<?xml version="1.0" encoding="utf-8"?>
<!-- Generator: Adobe Illustrator 22.1.0, SVG Export Plug-In . SVG Version: 6.00 Build 0)  -->
<svg version="1.1" id="Layer_1" xmlns="http://www.w3.org/2000/svg" xmlns:xlink="http://www.w3.org/1999/xlink" x="0px" y="0px"
	 viewBox="0 0 50 50" style="enable-background:new 0 0 50 50;" xml:space="preserve">
<style type="text/css">
	.st0{fill:#53C2C9;}
	.st1{fill:#FFFFFF;}
	.st2{fill:#FFB412;}
</style>
<g>
	<g>
		<path class="st0" d="M29.1,8.2H2.7c-1.4,0-2.6,1.1-2.6,2.6V27c0,1.4,1.1,2.6,2.6,2.6h2.9l-1,6.6l7.9-6.6h16.6
			c1.4,0,2.6-1.1,2.6-2.6V10.8C31.7,9.4,30.5,8.2,29.1,8.2z"/>
		<g>
			<rect x="7.3" y="13.2" class="st1" width="17.3" height="1.7"/>
			<rect x="7.3" y="17.9" class="st1" width="17.3" height="1.7"/>
			<rect x="7.3" y="22.6" class="st1" width="17.3" height="1.7"/>
		</g>
	</g>
	<g>
		<path class="st2" d="M49.9,27.4c0-5.9-6.6-10.7-14.7-10.7c-8.1,0-14.7,4.8-14.7,10.7c0,5.9,6.6,10.7,14.7,10.7
			c2.1,0,4.2-0.3,6-0.9l5,4.6l-1-6.5C48.1,33.3,49.9,30.5,49.9,27.4z"/>
		<g>
			<path class="st1" d="M36.6,25c0,2.1-2.7,2.7-2.7,3.5v0.3h-2.7v-0.8c0-1.1,2.1-1.8,2.1-3c0-0.6-0.4-1.1-1.1-1.1
				c-0.9,0-1,0.6-1,1.3c0,0.1,0,0.3,0,0.4h-3c0-0.2,0-0.4,0-0.6c0-2,1.9-3.2,4.4-3.2C34.9,21.9,36.6,23.1,36.6,25z M34.1,32.6h-3.2
				v-2.8h3.2V32.6z M37.7,32.6h-2.4v-2.1h2.4V32.6z M40.9,32.6h-2.4v-2.1h2.4V32.6z"/>
		</g>
	</g>
</g>
</svg>
