<?xml version="1.0" encoding="utf-8"?>
<!-- Generator: Adobe Illustrator 24.3.0, SVG Export Plug-In . SVG Version: 6.00 Build 0)  -->
<svg version="1.1" id="Layer_1" xmlns="http://www.w3.org/2000/svg" xmlns:xlink="http://www.w3.org/1999/xlink" x="0px" y="0px"
	 viewBox="0 0 48 48" style="enable-background:new 0 0 48 48;" xml:space="preserve">
<style type="text/css">
	.st0{fill:#686868;}
</style>
<path class="st0" d="M24,4.2c-12.5,0-22.6,8.2-22.6,18.4c0,4.4,1.9,8.4,5,11.5c-1.1,4.4-4.8,8.4-4.8,8.5c-0.2,0.2-0.2,0.5-0.1,0.8
	s0.4,0.4,0.6,0.4c5.9,0,10.2-2.8,12.4-4.5c2.9,1.1,6.1,1.7,9.5,1.7c12.5,0,22.6-8.2,22.6-18.4S36.5,4.2,24,4.2z M12.7,25.4
	c-1.6,0-2.8-1.3-2.8-2.8s1.3-2.8,2.8-2.8s2.8,1.3,2.8,2.8C15.5,24.2,14.3,25.4,12.7,25.4z M24,25.4c-1.6,0-2.8-1.3-2.8-2.8
	s1.3-2.8,2.8-2.8c1.6,0,2.8,1.3,2.8,2.8C26.8,24.2,25.6,25.4,24,25.4z M35.3,25.4c-1.6,0-2.8-1.3-2.8-2.8s1.3-2.8,2.8-2.8
	s2.8,1.3,2.8,2.8C38.1,24.2,36.9,25.4,35.3,25.4z"/>
</svg>
