<?xml version="1.0" encoding="utf-8"?>
<!-- Generator: Adobe Illustrator 21.0.0, SVG Export Plug-In . SVG Version: 6.00 Build 0)  -->
<svg version="1.1" id="Layer_1" xmlns="http://www.w3.org/2000/svg" xmlns:xlink="http://www.w3.org/1999/xlink" x="0px" y="0px"
	 viewBox="0 0 48 48" style="enable-background:new 0 0 48 48;" xml:space="preserve">
<style type="text/css">
	.st0{fill:#363636;}
</style>
<path class="st0" d="M34.2,0.8H14.1c-2.4,0-4.3,1.9-4.3,4.3v37.4c0,2.4,1.9,4.3,4.3,4.3h20.1c2.4,0,4.3-1.9,4.3-4.3V5.1
	C38.5,2.8,36.6,0.8,34.2,0.8z M24.2,44c-1.6,0-2.9-1.3-2.9-2.9s1.3-2.9,2.9-2.9s2.9,1.3,2.9,2.9C27,42.7,25.8,44,24.2,44z
	 M34.2,34.3c0,0.6-0.5,1.1-1.1,1.1h-18c-0.6,0-1.1-0.5-1.1-1.1v-28c0-0.6,0.5-1.1,1.1-1.1h18c0.6,0,1.1,0.5,1.1,1.1V34.3z"/>
</svg>
