<?xml version="1.0" encoding="utf-8"?>
<!-- Generator: Adobe Illustrator 25.2.1, SVG Export Plug-In . SVG Version: 6.00 Build 0)  -->
<svg version="1.1" xmlns="http://www.w3.org/2000/svg" xmlns:xlink="http://www.w3.org/1999/xlink" x="0px" y="0px"
	 viewBox="0 0 36 36" style="enable-background:new 0 0 36 36;" xml:space="preserve">
<style type="text/css">
	.st0{display:none;}
	.st1{display:inline;}
	.st2{fill:#E0C55E;}
	.st3{display:inline;fill:#E0C55E;}
	.st4{fill:#00F354;}
	.st5{display:inline;fill:#00F354;}
	.st6{fill:#A8A8A8;}
	.st7{display:inline;fill:#A8A8A8;}
	.st8{fill:#FE1F03;}
	.st9{display:inline;fill:#FE1F03;}
	.st10{fill:#D8D8D8;}
	.st11{display:inline;fill:#D8D8D8;}
	.st12{fill:#0094FE;}
	.st13{display:inline;fill:#0094FE;}
	.st14{fill:#FFFFFF;}
	.st15{display:inline;fill:#FFFFFF;}
	.st16{fill:#E4FF23;}
	.st17{display:inline;fill:#E4FF23;}
	.st18{fill:#919EF8;}
	.st19{display:inline;fill:#919EF8;}
	.st20{fill:#91CACE;}
	.st21{display:inline;fill:#91CACE;}
	.st22{fill:#3F6B6E;}
	.st23{display:inline;fill:#3F6B6E;}
	.st24{fill:#393637;}
	.st25{display:inline;fill:#393637;}
	.st26{fill:#111111;}
	.st27{fill:#FF00B2;}
	.st28{display:inline;fill:#FF00B2;}
	.st29{fill:#FF800E;}
	.st30{display:inline;fill:#FF800E;}
	.st31{fill:#25AAE1;}
	.st32{display:inline;fill:#25AAE1;}
</style>
<g id="w1n" class="st0">
</g>
<g id="w2n" class="st0">
</g>
<g id="w3n" class="st0">
</g>
<g id="w4n" class="st0">
</g>
<g id="w5n" class="st0">
</g>
<g id="w6n" class="st0">
</g>
<g id="w7n" class="st0">
</g>
<g id="w8n" class="st0">
</g>
<g id="w9n">
	<g>
		<path class="st8" d="M33.9,9.7c-2.2-4.2-5.8-7.3-10.3-8.8c-1.3-0.4-2.6-0.7-4-0.8L18.5,0h-0.3h-0.6c-0.1,0-0.2,0-0.3,0
			C12.5,0.1,8,2.2,4.8,5.8C2.7,8,1.1,10.8,0.5,13.9C0.2,15.2,0,16.6,0,18c-0.1,5,2,9.9,5.8,13.2c2.3,2.2,5.2,3.7,8.3,4.3
			c1,0.2,2,0.3,3,0.4l0.6,0.1h0.6l0.4-0.1C26,35.6,32.4,31,34.9,24.1c0.5-1.4,0.8-2.8,1-4.2C36.3,16.4,35.6,12.8,33.9,9.7z
			 M18.3,32.8C10.1,33,3.4,26.5,3.2,18.3C3,10.1,9.5,3.4,17.7,3.2c8.1-0.2,14.9,6.3,15.1,14.4C32.9,25.8,26.5,32.6,18.3,32.8
			L18.3,32.8z"/>
		<path class="st8" d="M4.6,22.6l1.2-0.4L8,21.4c0.2-0.1,0.3,0,0.3,0.1c0.1,0.1,0.3,0.7,0.4,1c0.2,0.3,0,0.3-0.1,0.4l-2.9,1.6
			c-0.1,0-0.2,0.1-0.3,0C5.1,23.9,4.9,23.3,4.6,22.6z"/>
		<path class="st8" d="M5.8,18h1.6c0.2,0,0.3,0,0.3,0.3c0,0.3,0,0.8,0.1,1.2c0,0.1-0.1,0.2-0.2,0.3c0,0,0,0-0.1,0l-3.1,0.5
			c-0.4,0-0.4,0-0.5-0.3c0-0.3-0.1-1.1-0.1-1.6c0-0.2,0.1-0.2,0.2-0.2L5.8,18z"/>
		<path class="st8" d="M30.1,18h1.6c0.2,0,0.3,0,0.3,0.3c0,0.5-0.1,1.1-0.1,1.6c0,0.3-0.1,0.3-0.4,0.3l-2.3-0.4l-0.8-0.1
			c-0.2,0-0.3-0.1-0.3-0.3c0.1-0.4,0.1-0.7,0.1-1.1c0-0.2,0.1-0.3,0.3-0.3C29.1,18,29.6,18,30.1,18z"/>
		<path class="st8" d="M6.8,9.4l2,1.5l0.9,0.7c0.1,0.1,0.2,0.2,0.1,0.4c-0.2,0.4-0.5,0.8-0.8,1.2l-3.4-1.9C5.9,10.6,6.3,10,6.8,9.4z
			"/>
		<path class="st8" d="M27.5,7.7l-2.4,2.6c-0.1,0.1-0.2,0.1-0.4,0.1c0,0,0,0-0.1-0.1l-0.9-0.7c-0.1,0-0.1-0.1-0.1-0.2c0,0,0,0,0,0
			c0.6-0.9,1.3-1.9,1.9-2.8c0.1-0.1,0.2-0.2,0.3-0.1L27.5,7.7C27.4,7.7,27.4,7.6,27.5,7.7z"/>
		<path class="st8" d="M10.2,6.2l1.3,2l0.6,1c0.2,0.3,0.2,0.3-0.1,0.5c-0.3,0.2-0.4,0.4-0.7,0.6c-0.3,0.3-0.3,0.1-0.5,0L9,8.2
			L8.5,7.8c-0.1-0.1-0.1-0.1,0-0.2C9,7.1,9.6,6.7,10.2,6.2z"/>
		<path class="st8" d="M20.5,7.9c0.1-0.4,0.2-0.8,0.3-1.3C21,6,21.2,5.3,21.4,4.6c0.1-0.3,0.1-0.3,0.4-0.2l1.6,0.6
			c0.2,0.1,0.2,0.2,0.2,0.3c-0.4,1-0.9,2-1.3,2.9c-0.1,0.3-0.2,0.3-0.5,0.2c-0.3-0.1-0.6-0.2-0.9-0.3C20.7,8.1,20.6,8,20.5,7.9z"/>
		<path class="st8" d="M12.2,30.8H12l-1.4-0.8c-0.3-0.2-0.3-0.3-0.1-0.5c0.6-0.9,1.2-1.8,1.7-2.7c0.1-0.2,0.2-0.2,0.4-0.1
			c0.2,0.1,0.6,0.3,0.9,0.5c0.3,0.2,0.2,0.2,0.1,0.4c-0.4,1-0.9,2-1.3,3C12.4,30.7,12.3,30.8,12.2,30.8z"/>
		<path class="st8" d="M15.4,7.9c0,0-0.1,0.1-0.2,0.2c-0.4,0.2-0.8,0.3-1.1,0.4c-0.4,0.1-0.2-0.1-0.3-0.2c-0.4-0.8-0.8-1.7-1.1-2.6
			l-0.2-0.5c0-0.1,0-0.2,0.1-0.3l1.8-0.6c0.1,0,0.2,0,0.2,0.1c0.2,0.8,0.4,1.6,0.6,2.4C15.2,7.3,15.3,7.6,15.4,7.9z"/>
		<path class="st8" d="M18.9,28.7c0-0.4,0-0.4,0.4-0.4l0.9-0.2c0.2,0,0.3,0,0.4,0.2c0.3,1.1,0.6,2.1,0.8,3.2c0,0.2,0,0.3-0.2,0.3
			l-1.7,0.3c-0.2,0-0.2-0.1-0.2-0.2c0-0.1-0.1-0.6-0.1-0.9C19,30.1,18.9,29.4,18.9,28.7z"/>
		<path class="st8" d="M27.8,21.4l0.3,0.1l2.9,1c0.3,0.1,0.4,0.2,0.2,0.5l-0.7,1.4c-0.1,0.2-0.2,0.2-0.3,0.1l-2.9-1.6
			c-0.2-0.1-0.2-0.2-0.1-0.3c0.1-0.2,0.3-0.7,0.5-1C27.6,21.5,27.7,21.4,27.8,21.4z"/>
		<path class="st8" d="M27,13c-0.1,0-0.1-0.1-0.2-0.2c-0.2-0.3-0.4-0.7-0.7-1c-0.1-0.1,0-0.2,0.1-0.3l2.4-1.8
			c0.6-0.4,0.5-0.4,0.9,0.2l0.7,1c0.2,0.2,0.1,0.3-0.1,0.4l-2.8,1.5L27,13z"/>
		<path class="st8" d="M28.4,16.2c-0.2,0-0.3,0-0.4-0.3s-0.1-0.7-0.2-1c-0.1-0.1,0-0.2,0.1-0.3c0,0,0,0,0.1,0l3.1-1.1
			c0.1-0.1,0.2,0,0.3,0.1c0,0,0,0,0,0.1c0.2,0.6,0.3,1.1,0.5,1.7c0.1,0.2-0.1,0.2-0.2,0.3L29.7,16L28.4,16.2z"/>
		<path class="st8" d="M25.7,29.8l-1.8,1c-0.1,0.1-0.2,0-0.3-0.1c-0.4-1-0.9-2.1-1.4-3.1c0-0.1,0-0.2,0.1-0.3l1-0.5
			c0.1-0.1,0.2-0.1,0.3,0c0,0,0,0,0,0L25.7,29.8C25.7,29.8,25.7,29.8,25.7,29.8z"/>
		<path class="st8" d="M25,25.5c0.4-0.4,0.7-0.8,1.1-1.2l0.5,0.4l2.3,1.8c0.2,0.2,0.2,0.3,0,0.5l-1.1,1.2c-0.1,0.2-0.3,0.2-0.4,0
			L25,25.5z"/>
		<path class="st8" d="M8.3,28.3L7,26.9c-0.1-0.1-0.1-0.2,0-0.3l2.7-2.1c0.1-0.1,0.2-0.1,0.3,0c0,0,0,0,0,0l0.7,0.8
			c0.1,0.1,0.1,0.3,0,0.4c0,0,0,0,0,0L8.3,28.3z"/>
		<path class="st8" d="M7.5,16.2l-2-0.3l-1.3-0.2c-0.2,0-0.2-0.1-0.2-0.3c0.2-0.5,0.3-1.1,0.4-1.6c0-0.2,0.2-0.3,0.4-0.2l3.1,1.1
			c0.1,0,0.2,0.2,0.2,0.3c0,0,0,0,0,0c-0.1,0.3-0.1,0.6-0.2,1C7.8,16.3,7.8,16.2,7.5,16.2z"/>
		<path class="st8" d="M18,3.9h0.8c0.2,0,0.3,0,0.2,0.2c0,0.7-0.1,1.4-0.2,2.1c0,0.4-0.1,0.8-0.1,1.3c0,0.2-0.1,0.2-0.3,0.2h-1.1
			c-0.1,0-0.2-0.1-0.3-0.2c0,0,0,0,0-0.1c-0.1-1.1-0.2-2.1-0.2-3.2c0-0.4,0-0.4,0.3-0.4L18,3.9z"/>
		<path class="st8" d="M17,28.9c-0.1,0.9-0.1,1.9-0.2,2.9c0,0.2-0.1,0.2-0.2,0.2c-0.6-0.1-1.2-0.2-1.8-0.3c-0.2,0-0.2-0.2-0.1-0.3
			c0.2-0.7,0.3-1.4,0.5-2.1l0.3-1.1c0-0.1,0.1-0.2,0.2-0.2c0,0,0,0,0.1,0l1,0.2c0.2,0,0.3,0.1,0.3,0.4C17,28.7,17,28.8,17,28.9z"/>
		<path class="st8" d="M7.7,24.1c0.3,0,0.6,0.3,0.6,0.6c0,0,0,0,0,0c0,0.3-0.3,0.6-0.6,0.6c-0.3,0-0.6-0.3-0.6-0.7
			C7.1,24.3,7.4,24.1,7.7,24.1z"/>
		<path class="st8" d="M17.7,8.6c-5.2,0.1-9.3,4.5-9.2,9.7c0.1,5.2,4.5,9.3,9.7,9.2c5.1-0.1,9.2-4.3,9.2-9.4c0-5.2-4.2-9.5-9.5-9.5
			C17.9,8.5,17.8,8.6,17.7,8.6z M18,24.4c-3.5-0.1-6.4-2.9-6.4-6.4c0.1-3.5,2.9-6.3,6.4-6.4c3.5,0,6.4,2.9,6.4,6.4
			S21.5,24.4,18,24.4z"/>
		<path class="st8" d="M22.5,19c-0.2-0.4-0.6-0.6-1-0.5c0,0-0.1,0-0.1,0c-0.3,0.1-0.5,0.1-0.8,0l-0.3-0.1c-0.4-0.1-0.4-0.2-0.4-0.6
			c0-0.4-0.2-0.9-0.6-1.2c-0.1-0.1-0.2-0.2-0.2-0.2c-0.1-0.1-0.1-0.2-0.1-0.3c0.1-0.5,0.3-0.9,0.8-1.2c0.3-0.2,0.5-0.5,0.4-0.9
			c-0.1-0.4-0.4-0.6-0.8-0.6c-0.6,0-1,0.4-0.8,1c0.2,0.4,0.2,0.9,0,1.3c-0.1,0.3-0.3,0.5-0.6,0.5c-0.5,0-1.1,0.2-1.4,0.7
			c-0.1,0.1-0.3,0.2-0.5,0.1c-0.2-0.1-0.4-0.2-0.6-0.3c-0.1-0.1-0.3-0.2-0.4-0.4c-0.1-0.1-0.2-0.3-0.3-0.4c-0.4-0.2-0.8-0.1-1.1,0.2
			c-0.3,0.3-0.3,0.7,0,1.1c0.2,0.3,0.7,0.4,1,0.2c0.2-0.1,0.5-0.1,0.7,0l0.2,0.1c0.5,0.2,0.5,0.2,0.5,0.7v0.1
			c0.1,0.5,0.3,0.9,0.6,1.2c0.2,0.2,0.2,0.5,0.1,0.7c-0.1,0.3-0.3,0.6-0.7,0.8c-0.4,0.2-0.5,0.7-0.3,1.1c0.2,0.4,0.7,0.5,1.1,0.4
			c0.4-0.2,0.6-0.7,0.4-1.1c-0.1-0.2-0.1-0.4-0.1-0.5c0.1-0.2,0.1-0.4,0.2-0.7c0-0.2,0.2-0.4,0.5-0.3c0.5,0.1,1-0.1,1.3-0.6
			c0.2-0.3,0.6-0.4,0.9-0.2c0.3,0.1,0.6,0.3,0.8,0.6c0.2,0.4,0.7,0.6,1.1,0.4c0,0,0,0,0,0C22.4,19.9,22.6,19.4,22.5,19z M18.1,17.3
			h-0.2c-0.3,0.1-0.5,0.3-0.6,0.6c0,0.2-0.2,0.3-0.3,0.3c0,0,0,0-0.1,0c-0.2,0-0.2-0.2-0.2-0.4c0.1-0.5,0.5-0.9,1-1.1
			c0.1,0,0.2,0,0.3,0C18.3,17,18.3,17.2,18.1,17.3z"/>
	</g>
</g>
<g id="w10n" class="st0">
</g>
<g id="w11n" class="st0">
</g>
<g id="n2a" class="st0">
</g>
</svg>
