<?xml version="1.0" encoding="utf-8"?>
<!-- Generator: Adobe Illustrator 25.2.1, SVG Export Plug-In . SVG Version: 6.00 Build 0)  -->
<svg version="1.1" xmlns="http://www.w3.org/2000/svg" xmlns:xlink="http://www.w3.org/1999/xlink" x="0px" y="0px"
	 viewBox="0 0 36 36" style="enable-background:new 0 0 36 36;" xml:space="preserve">
<style type="text/css">
	.st0{display:none;}
	.st1{display:inline;}
	.st2{fill:#E0C55E;}
	.st3{display:inline;fill:#E0C55E;}
	.st4{fill:#00F354;}
	.st5{display:inline;fill:#00F354;}
	.st6{fill:#A8A8A8;}
	.st7{display:inline;fill:#A8A8A8;}
	.st8{fill:#FE1F03;}
	.st9{display:inline;fill:#FE1F03;}
	.st10{fill:#D8D8D8;}
	.st11{display:inline;fill:#D8D8D8;}
	.st12{fill:#0094FE;}
	.st13{display:inline;fill:#0094FE;}
	.st14{fill:#FFFFFF;}
	.st15{display:inline;fill:#FFFFFF;}
	.st16{fill:#E4FF23;}
	.st17{display:inline;fill:#E4FF23;}
	.st18{fill:#919EF8;}
	.st19{display:inline;fill:#919EF8;}
	.st20{fill:#91CACE;}
	.st21{display:inline;fill:#91CACE;}
	.st22{fill:#3F6B6E;}
	.st23{display:inline;fill:#3F6B6E;}
	.st24{fill:#393637;}
	.st25{display:inline;fill:#393637;}
	.st26{fill:#111111;}
	.st27{fill:#FF00B2;}
	.st28{display:inline;fill:#FF00B2;}
	.st29{fill:#FF800E;}
	.st30{display:inline;fill:#FF800E;}
	.st31{fill:#25AAE1;}
	.st32{display:inline;fill:#25AAE1;}
</style>
<g id="w1n" class="st0">
</g>
<g id="w2n" class="st0">
</g>
<g id="w3n" class="st0">
</g>
<g id="w4n" class="st0">
</g>
<g id="w5n" class="st0">
</g>
<g id="w6n" class="st0">
</g>
<g id="w7n" class="st0">
</g>
<g id="w8n" class="st0">
</g>
<g id="w9n">
	<path class="st8" d="M28.6,7.1c-0.5,0.5-1,1.1-1.3,1.6c-0.2,0.5-0.9,0.9-1.5,0.7c-1.3,0-2.4-0.7-3.3-1.8c0.5-0.1,1.1-0.4,1.6-0.5
		c0.6-0.4,1.3-0.5,1.9-0.5c-1-0.5-1.5-1.5-1.5-2.6c1.1-0.4,2.3-0.4,3.3,0.2l-1.1-1.7c0.7-0.4,1.5-0.4,2.2-0.4c0.7,0,1.3,0.5,1.8,1.1
		L30.1,2c2.1,0,3.6,1.8,3.6,3.9c0.7,0,1.5,0,1.9,0.6h-0.2c-1.3,0.6-2.1,2.1-1.6,3.4c0.2,0.9,0.5,1.6,1,2.3c0,0.1,0.1,0.4,0.2,0.5
		L34,12.1c0.1,0.2,0.2,0.5,0.2,0.6c0.4,0.9,0.7,1.8,1.1,2.7c0.7,2.1,0.9,4.4,0.2,6.4c-1,3.3-3.5,5.8-6.8,6.8c-0.5,0.1-1,0.5-1.2,1.1
		l-1.7,3.8c0,0.1-0.1,0.4-0.2,0.6c-0.2-2.4-0.7-4.6-2.6-6.3c1.5-0.1,2.9-0.6,4.4-1.2c2.4-1,4.3-3,5-5.5v-0.4c0,0-0.1,0.2-0.2,0.2
		c-0.7,1.8-2.2,3.3-3.9,4.1c-1.7,0.9-3.5,1.2-5.3,1.2c-3.2,0-6.2-0.5-9.1-1.5h-0.1c1.6-0.7,3.2-1.3,4.7-2.1c1.6-0.7,3-1.6,4.4-2.7
		c-1.8,0.7-3.8,1.3-5.7,1.8c-1.2-3.5-3.3-6-7.2-6.3c1.8-0.7,3.8-0.6,5.5,0.2c-2.3-2.6-5.6-4-9-4c3.3-1.3,7-0.7,9.7,1.6v-0.2
		c-1-1.3-2.1-2.4-3.4-3.4c-2.1-1.5-4.6-1.9-7-1.3C3.9,9,2.1,9.7,0.6,10.9C0.4,11,0.2,11.2,0,11.4v-0.2c0.7-1,1.6-1.9,2.4-2.8
		c0.9-0.9,1.9-1.5,3-1.9c2.2-0.9,4.6-0.7,6.8,0.2c2.1,1,3.9,2.3,5.5,4l0.7,0.7v-0.2c-0.9-1.6-1.9-3-3.2-4.3C14,5.6,12.4,4.6,10.7,4
		C8,3.1,5,3.4,2.4,4.6L1.9,4.8c1.6-1.3,3.4-2.2,5.3-2.7c2.6-0.6,5.2-0.2,7.4,1.1c1.3,0.9,2.6,1.8,3.5,3c1.5,1.7,2.7,3.5,3.6,5.5
		c0.6,1,1.1,1.9,1.7,2.9c0.4,0.5,0.7,1,1.2,1.5c0.7,0.6,1.2,0.6,1.7-0.2c0.4-0.6,0.6-1.3,0.6-2.1v-1.1h-0.7c0.2-1.9,1.1-4,2.4-5.7
		h-0.4h0.1L28.6,7.1z M32.3,5.9c-0.2,0-0.4,0-0.4,0.4c0,0.2,0.2,0.4,0.4,0.4c0.2,0,0.4-0.2,0.4-0.4C32.7,6,32.5,5.9,32.3,5.9z"/>
</g>
<g id="w10n" class="st0">
</g>
<g id="w11n" class="st0">
</g>
<g id="n2a" class="st0">
</g>
</svg>
