<?xml version="1.0" encoding="utf-8"?>
<!-- Generator: Adobe Illustrator 25.2.1, SVG Export Plug-In . SVG Version: 6.00 Build 0)  -->
<svg version="1.1" id="Layer_1" xmlns="http://www.w3.org/2000/svg" xmlns:xlink="http://www.w3.org/1999/xlink" x="0px" y="0px"
	 viewBox="0 0 36 36" style="enable-background:new 0 0 36 36;" xml:space="preserve">
<style type="text/css">
	.st0{display:none;}
	.st1{display:inline;}
	.st2{fill:#E0C55E;}
	.st3{fill:#edebe4;}
</style>
<g id="w1n__x28_a_x29_" class="st0">
	<g class="st1">
		<path class="st2" d="M17.1,36l5.4-2.9c0.8-0.4,1.4-1.3,1.5-2.2l0.3-3.8c-2.4,1.7-5,3.1-7.2,4C17.1,31.1,17.1,36,17.1,36z"/>
		<path class="st2" d="M5.3,12c-0.9,0.1-1.8,0.6-2.2,1.5l-2.9,5.4H5c0.9-2.3,2.3-4.8,4-7.2L5.3,12z"/>
		<path class="st2" d="M8.2,17.2c-0.9,1.8-1.6,3.5-1.9,5l7.3,7.5c1.6-0.2,3.4-0.9,5.2-1.8L8.2,17.2z"/>
		<path class="st2" d="M35.6,0.5L35.6,0.5C34.2,0.1,32.8,0,31.5,0c-5.8,0-11.3,2.3-15.3,6.4c-2.3,2.4-4.9,5.6-6.9,8.8l11.5,11.6
			c3.2-1.9,6.4-4.4,8.8-6.8c5.1-5,7.4-12.3,6.1-19.3L35.6,0.5z M28.5,14.7c-0.9,1-2.2,1.5-3.6,1.5c-2.8,0-5.1-2.3-5.1-5.1
			S22.1,6,24.9,6S30,8.3,30,11.1C30,12.5,29.4,13.8,28.5,14.7z"/>
		<path class="st2" d="M2.3,28.9L5.2,26c0.4-0.4,0.4-1,0-1.4s-1-0.4-1.4,0l-2.9,2.9c-0.2,0.2-0.3,0.5-0.3,0.7c0,0.6,0.5,1,1,1
			C1.9,29.2,2.1,29.1,2.3,28.9z"/>
		<path class="st2" d="M8.2,28.7c0-0.5-0.4-1-1-0.9c-0.3,0-0.5,0.1-0.7,0.3l-5.1,5.1c-0.2,0.2-0.3,0.4-0.3,0.7c0,0.5,0.4,1,1,0.9
			c0.3,0,0.5-0.1,0.7-0.3l5.1-5.1C8.1,29.2,8.2,29,8.2,28.7z"/>
		<path class="st2" d="M9.5,31.1l-2.7,2.7c-0.2,0.2-0.3,0.4-0.3,0.7c0,0.5,0.4,1,1,0.9c0.3,0,0.5-0.1,0.7-0.3l2.7-2.7
			c0.4-0.4,0.4-1,0-1.4C10.5,30.7,9.9,30.7,9.5,31.1z"/>
	</g>
</g>
<g id="w1n__x28_d_x29_">
	<g>
		<path class="st3" d="M17.1,36l5.4-2.9c0.8-0.4,1.4-1.3,1.5-2.2l0.3-3.8c-2.4,1.7-5,3.1-7.2,4C17.1,31.1,17.1,36,17.1,36z"/>
		<path class="st3" d="M5.3,12c-0.9,0.1-1.8,0.6-2.2,1.5l-2.9,5.4H5c0.9-2.3,2.3-4.8,4-7.2L5.3,12z"/>
		<path class="st3" d="M8.2,17.2c-0.9,1.8-1.6,3.5-1.9,5l7.3,7.5c1.6-0.2,3.4-0.9,5.2-1.8L8.2,17.2z"/>
		<path class="st3" d="M35.6,0.5L35.6,0.5C34.2,0.1,32.8,0,31.5,0c-5.8,0-11.3,2.3-15.3,6.4c-2.3,2.4-4.9,5.6-6.9,8.8l11.5,11.6
			c3.2-1.9,6.4-4.4,8.8-6.8c5.1-5,7.4-12.3,6.1-19.3L35.6,0.5z M28.5,14.7c-0.9,1-2.2,1.5-3.6,1.5c-2.8,0-5.1-2.3-5.1-5.1
			S22.1,6,24.9,6S30,8.3,30,11.1C30,12.5,29.4,13.8,28.5,14.7z"/>
		<path class="st3" d="M2.3,28.9L5.2,26c0.4-0.4,0.4-1,0-1.4s-1-0.4-1.4,0l-2.9,2.9c-0.2,0.2-0.3,0.5-0.3,0.7c0,0.6,0.5,1,1,1
			C1.9,29.2,2.1,29.1,2.3,28.9z"/>
		<path class="st3" d="M8.2,28.7c0-0.5-0.4-1-1-0.9c-0.3,0-0.5,0.1-0.7,0.3l-5.1,5.1c-0.2,0.2-0.3,0.4-0.3,0.7c0,0.5,0.4,1,1,0.9
			c0.3,0,0.5-0.1,0.7-0.3l5.1-5.1C8.1,29.2,8.2,29,8.2,28.7z"/>
		<path class="st3" d="M9.5,31.1l-2.7,2.7c-0.2,0.2-0.3,0.4-0.3,0.7c0,0.5,0.4,1,1,0.9c0.3,0,0.5-0.1,0.7-0.3l2.7-2.7
			c0.4-0.4,0.4-1,0-1.4C10.5,30.7,9.9,30.7,9.5,31.1z"/>
	</g>
</g>
</svg>
