<?xml version="1.0" encoding="utf-8"?>
<!-- Generator: Adobe Illustrator 25.2.1, SVG Export Plug-In . SVG Version: 6.00 Build 0)  -->
<svg version="1.1" id="Layer_1" xmlns="http://www.w3.org/2000/svg" xmlns:xlink="http://www.w3.org/1999/xlink" x="0px" y="0px"
	 viewBox="0 0 36 36" style="enable-background:new 0 0 36 36;" xml:space="preserve">
<style type="text/css">
	.st0{fill:#edebe4;}
	.st1{display:none;}
	.st2{display:inline;}
	.st3{fill:#A8A8A8;}
</style>
<g id="w1n__x28_a_x29_">
	<g>
		<path class="st0" d="M11.7,5.5l-0.1-0.1l-0.1,0.1c-0.9,0.4-1.7,0.7-2.4,1C8.4,6.7,7.6,6.9,6.6,7.1H6.5v0.1
			c0.2,1.2,0.4,2.3,0.7,3.5v0.1l6.1-2.1l-0.1-0.2C12.9,7.6,12.3,6.5,11.7,5.5z"/>
		<path class="st0" d="M4.5,5.7L4.5,5.7L4.5,5.7c0-1.2,0.1-2.4,0.2-3.5V1.8L4.5,2.1C3.2,3,2.1,4.3,1.3,5.8L1.2,6h0.3
			C2.5,6,3.5,5.9,4.5,5.7z"/>
		<path class="st0" d="M5.6,11.4C5.2,10.2,5,8.9,4.8,7.7V7.5H4.6c-1,0.1-2,0.2-3,0.2h-1v0.1C0.1,9.5,0,11.4,0.4,13.1v0.2l5.1-1.8
			L5.6,11.4z"/>
		<path class="st0" d="M12.2,3l0.1,0.1L12.4,3c1-0.5,1.9-1.2,2.8-1.9L15.3,1l-0.2-0.1C13.8,0.3,12.3,0,10.8,0c-0.3,0-0.5,0-0.8,0
			H9.6l0.2,0.2C10.7,1.1,11.5,2,12.2,3z"/>
		<path class="st0" d="M6.5,5.3C7.3,5.1,8,4.9,8.6,4.7C9.1,4.5,9.8,4.3,10.5,4l0.2-0.1l-0.1-0.2c-0.9-1.2-1.9-2.3-3-3.2H7.5L6.8,0.8
			v0.1C6.4,2.3,6.3,3.7,6.3,5.2v0.2L6.5,5.3z"/>
		<path class="st0" d="M13.2,4.6l0.1,0.1C14,5.8,14.5,6.9,15,8.1v0.1l5.5-1.9l-0.1-0.1c-0.8-1.7-2-3.1-3.5-4.2l0,0l0,0
			c-1.1,0.9-2.2,1.8-3.5,2.5L13.2,4.6z"/>
		<path class="st0" d="M8.1,13.2c0,0.1,0.1,0.2,0.2,0.4c0.1,0,0.1,0,0.2,0c0.3-0.1,0.6-0.1,0.9-0.2c0.1,0,0.3,0,0.5,0s0.3,0,0.5,0h1
			h0.3h2.9L14.5,13c-0.1-0.7-0.3-1.3-0.5-2.2v-0.2l-6.1,2.1L8,12.8C8,12.9,8.1,13.1,8.1,13.2z"/>
		<path class="st0" d="M15.6,10.1c0.3,0.9,0.5,1.9,0.7,2.9l0.1,0.3h4.7l0.1-0.3c0.4-1.6,0.4-3.2,0-4.8V8l-5.5,1.9L15.6,10.1z"/>
		<path class="st0" d="M32.9,20.8c-0.6-1.2-1.4-2.4-2.4-3.3c-0.9-1-2.1-1.7-3.4-2.1c-0.4-0.1-0.9-0.2-1.4-0.2h-0.9l0,0h-14
			c-0.2,0-0.4,0-0.6,0l0,0c-0.3,0-0.7,0-1,0.1c-0.2,0-0.3,0.1-0.5,0.1c-0.5,0.1-1,0.4-1.5,0.7c-0.1,0.1-0.2,0.1-0.3,0.2
			c-0.2,0.1-0.4,0.3-0.6,0.4c-0.2,0.2-0.5,0.4-0.7,0.6c-0.1,0.1-0.1,0.1-0.2,0.2c-0.4,0.4-0.8,0.8-1.1,1.3l-0.1,0.1
			c-0.2,0.2-0.3,0.4-0.4,0.7l-0.1,0.1c-0.2,0.3-0.3,0.6-0.5,0.9c-0.1,0.1-0.1,0.2-0.2,0.3c0,0.1,0,0.2-0.1,0.4
			c-1,2.1-1.8,4.4-2.3,6.8C0.2,29.9,0,31.9,0,33.8c0,0.4,0.1,0.7,0.2,1c0.1,0.6,0.6,1,1.2,1.1C1.6,36,1.9,36,2.2,36
			c0.7,0,1.4-0.2,2-0.6c1.3-0.8,2.4-1.7,3.3-2.9c0.3-0.4,0.6-0.8,0.8-1.1c0,0,0.7-0.9,0.8-1.1c0.8-1,1.9-1.6,3.2-1.6h11.2
			c1.2,0,2.4,0.6,3.2,1.6c0.3,0.4,0.6,0.8,0.9,1.2c0.3,0.4,0.6,0.8,0.8,1.1c0.9,1.2,2,2.2,3.3,2.9c0.6,0.4,1.3,0.5,2,0.6
			c0.3,0,0.5,0,0.8-0.1c0.6-0.1,1.1-0.5,1.2-1.1l0,0c0.1-0.3,0.2-0.7,0.2-1c0-1.9-0.2-3.9-0.6-5.8C34.9,25.5,34,23.1,32.9,20.8z
			 M27.4,18.6c0.2-0.2,0.5-0.3,0.8-0.3c0.6,0,1.1,0.5,1.1,1.1s-0.5,1.1-1.1,1.1l0,0l0,0l0,0c-0.3,0-0.6-0.1-0.8-0.3
			c-0.2-0.2-0.3-0.5-0.3-0.8C27.1,19.1,27.2,18.8,27.4,18.6z M10,22.4H8.9v0.1c0,0.3,0,0.7,0,1c0,0.1,0,0.3-0.1,0.4
			C8.7,24,8.5,24,8.4,24c-0.2,0-0.3,0-0.5,0H7.5c-0.2,0-0.3-0.1-0.4-0.2S6.9,23.5,7,23.4c0-0.2,0-0.4,0-0.6v-0.3v-0.1H6
			c-0.5,0-0.7-0.2-0.7-0.7V21c0-0.4,0.2-0.7,0.6-0.7h1L7,20.2c0-0.2,0-0.3,0-0.5s0-0.3,0-0.5c0-0.5,0.2-0.7,0.7-0.7h0.7
			c0.2,0,0.3,0,0.5,0.2C9,18.8,9.1,19,9.1,19.2V20l0,0v0.2l1,0.1c0.2,0,0.4,0,0.5,0.2c0.1,0.1,0.2,0.3,0.2,0.5v0.7
			c0,0.2,0,0.3-0.2,0.5C10.4,22.3,10.2,22.4,10,22.4z M15.4,25.3c0,1.3-1.1,2.4-2.4,2.4l0,0c-1.3,0-2.4-1.1-2.4-2.4s1.1-2.4,2.4-2.4
			C14.3,23,15.4,24,15.4,25.3L15.4,25.3z M18.8,20.9h-1.6l0,0c-0.2,0-0.4-0.1-0.5-0.2s-0.2-0.3-0.2-0.5s0.1-0.4,0.2-0.5
			s0.3-0.2,0.5-0.2c0.3,0,0.6,0,0.8,0c0.3,0,0.8,0,0.8,0c0.2,0,0.3,0.1,0.4,0.2s0.2,0.3,0.2,0.5C19.4,20.6,19.1,20.9,18.8,20.9z
			 M22.8,27.7L22.8,27.7c-0.7,0-1.3-0.3-1.7-0.7c-0.4-0.5-0.7-1.1-0.7-1.7c0-1.3,1.1-2.3,2.4-2.3c0.6,0,1.3,0.3,1.7,0.7
			c0.4,0.4,0.7,1.1,0.7,1.7C25.1,26.7,24.1,27.7,22.8,27.7z M26.2,22.4c-0.3,0-0.6-0.1-0.8-0.3c-0.2-0.2-0.3-0.5-0.3-0.8
			c0-0.6,0.5-1.1,1.1-1.1s1.1,0.5,1.1,1.1c0,0.3-0.1,0.6-0.3,0.8C26.8,22.3,26.5,22.4,26.2,22.4z M28.2,24.4L28.2,24.4L28.2,24.4
			L28.2,24.4c-0.6,0-1.1-0.5-1.1-1.1c0-0.3,0.1-0.6,0.3-0.8c0.2-0.2,0.5-0.3,0.8-0.3s0.6,0.1,0.8,0.3c0.2,0.2,0.3,0.5,0.3,0.8
			C29.2,23.9,28.8,24.4,28.2,24.4z M31,22.1c-0.2,0.2-0.5,0.3-0.8,0.3l0,0c-0.6,0-1.1-0.5-1.1-1.1s0.5-1.1,1.1-1.1s1.1,0.5,1.1,1.1
			C31.3,21.6,31.2,21.9,31,22.1z"/>
		<path class="st0" d="M2.8,17.7c0,0,0.1-0.1,0.1-0.2S3,17.4,3,17.3s0.1-0.2,0.2-0.2c0.1-0.2,0.3-0.3,0.4-0.5l0.1-0.1
			C3.8,16.3,4,16.2,4.2,16c0.2-0.2,0.3-0.3,0.5-0.5L5,15.4l0,0c0.2-0.1,0.3-0.3,0.5-0.4c0.2-0.2,0.4-0.3,0.7-0.4l0.2-0.1l0.1-0.1
			l0.1-0.1c0-0.1-0.1-0.3-0.1-0.3c-0.1-0.2-0.2-0.4-0.3-0.6v-0.1H6L1,15l0.1,0.2l0,0C1.5,16,2.1,16.9,2.8,17.7L2.8,17.7z"/>
	</g>
</g>
<g id="w1n__x28_d_x29_" class="st1">
	<g class="st2">
		<path class="st3" d="M11.7,5.5l-0.1-0.1l-0.1,0.1c-0.9,0.4-1.7,0.7-2.4,1C8.4,6.7,7.6,6.9,6.6,7.1H6.5v0.1
			c0.2,1.2,0.4,2.3,0.7,3.5v0.1l6.1-2.1l-0.1-0.2C12.9,7.6,12.3,6.5,11.7,5.5z"/>
		<path class="st3" d="M4.5,5.7L4.5,5.7L4.5,5.7c0-1.2,0.1-2.4,0.2-3.5V1.8L4.5,2.1C3.2,3,2.1,4.3,1.3,5.8L1.2,6h0.3
			C2.5,6,3.5,5.9,4.5,5.7z"/>
		<path class="st3" d="M5.6,11.4C5.2,10.2,5,8.9,4.8,7.7V7.5H4.6c-1,0.1-2,0.2-3,0.2h-1v0.1C0.1,9.5,0,11.4,0.4,13.1v0.2l5.1-1.8
			L5.6,11.4z"/>
		<path class="st3" d="M12.2,3l0.1,0.1L12.4,3c1-0.5,1.9-1.2,2.8-1.9L15.3,1l-0.2-0.1C13.8,0.3,12.3,0,10.8,0c-0.3,0-0.5,0-0.8,0
			H9.6l0.2,0.2C10.7,1.1,11.5,2,12.2,3z"/>
		<path class="st3" d="M6.5,5.3C7.3,5.1,8,4.9,8.6,4.7C9.1,4.5,9.8,4.3,10.5,4l0.2-0.1l-0.1-0.2c-0.9-1.2-1.9-2.3-3-3.2H7.5L6.8,0.8
			v0.1C6.4,2.3,6.3,3.7,6.3,5.2v0.2L6.5,5.3z"/>
		<path class="st3" d="M13.2,4.6l0.1,0.1C14,5.8,14.5,6.9,15,8.1v0.1l5.5-1.9l-0.1-0.1c-0.8-1.7-2-3.1-3.5-4.2l0,0l0,0
			c-1.1,0.9-2.2,1.8-3.5,2.5L13.2,4.6z"/>
		<path class="st3" d="M8.1,13.2c0,0.1,0.1,0.2,0.2,0.4c0.1,0,0.1,0,0.2,0c0.3-0.1,0.6-0.1,0.9-0.2c0.1,0,0.3,0,0.5,0s0.3,0,0.5,0h1
			h0.3h2.9L14.5,13c-0.1-0.7-0.3-1.3-0.5-2.2v-0.2l-6.1,2.1L8,12.8C8,12.9,8.1,13.1,8.1,13.2z"/>
		<path class="st3" d="M15.6,10.1c0.3,0.9,0.5,1.9,0.7,2.9l0.1,0.3h4.7l0.1-0.3c0.4-1.6,0.4-3.2,0-4.8V8l-5.5,1.9L15.6,10.1z"/>
		<path class="st3" d="M32.9,20.8c-0.6-1.2-1.4-2.4-2.4-3.3c-0.9-1-2.1-1.7-3.4-2.1c-0.4-0.1-0.9-0.2-1.4-0.2h-0.9l0,0h-14
			c-0.2,0-0.4,0-0.6,0l0,0c-0.3,0-0.7,0-1,0.1c-0.2,0-0.3,0.1-0.5,0.1c-0.5,0.1-1,0.4-1.5,0.7c-0.1,0.1-0.2,0.1-0.3,0.2
			c-0.2,0.1-0.4,0.3-0.6,0.4c-0.2,0.2-0.5,0.4-0.7,0.6c-0.1,0.1-0.1,0.1-0.2,0.2c-0.4,0.4-0.8,0.8-1.1,1.3l-0.1,0.1
			c-0.2,0.2-0.3,0.4-0.4,0.7l-0.1,0.1c-0.2,0.3-0.3,0.6-0.5,0.9c-0.1,0.1-0.1,0.2-0.2,0.3c0,0.1,0,0.2-0.1,0.4
			c-1,2.1-1.8,4.4-2.3,6.8C0.2,29.9,0,31.9,0,33.8c0,0.4,0.1,0.7,0.2,1c0.1,0.6,0.6,1,1.2,1.1C1.6,36,1.9,36,2.2,36
			c0.7,0,1.4-0.2,2-0.6c1.3-0.8,2.4-1.7,3.3-2.9c0.3-0.4,0.6-0.8,0.8-1.1c0,0,0.7-0.9,0.8-1.1c0.8-1,1.9-1.6,3.2-1.6h11.2
			c1.2,0,2.4,0.6,3.2,1.6c0.3,0.4,0.6,0.8,0.9,1.2c0.3,0.4,0.6,0.8,0.8,1.1c0.9,1.2,2,2.2,3.3,2.9c0.6,0.4,1.3,0.5,2,0.6
			c0.3,0,0.5,0,0.8-0.1c0.6-0.1,1.1-0.5,1.2-1.1l0,0c0.1-0.3,0.2-0.7,0.2-1c0-1.9-0.2-3.9-0.6-5.8C34.9,25.5,34,23.1,32.9,20.8z
			 M27.4,18.6c0.2-0.2,0.5-0.3,0.8-0.3c0.6,0,1.1,0.5,1.1,1.1s-0.5,1.1-1.1,1.1l0,0l0,0l0,0c-0.3,0-0.6-0.1-0.8-0.3
			c-0.2-0.2-0.3-0.5-0.3-0.8C27.1,19.1,27.2,18.8,27.4,18.6z M10,22.4H8.9v0.1c0,0.3,0,0.7,0,1c0,0.1,0,0.3-0.1,0.4
			C8.7,24,8.5,24,8.4,24c-0.2,0-0.3,0-0.5,0H7.5c-0.2,0-0.3-0.1-0.4-0.2S6.9,23.5,7,23.4c0-0.2,0-0.4,0-0.6v-0.3v-0.1H6
			c-0.5,0-0.7-0.2-0.7-0.7V21c0-0.4,0.2-0.7,0.6-0.7h1L7,20.2c0-0.2,0-0.3,0-0.5s0-0.3,0-0.5c0-0.5,0.2-0.7,0.7-0.7h0.7
			c0.2,0,0.3,0,0.5,0.2C9,18.8,9.1,19,9.1,19.2V20l0,0v0.2l1,0.1c0.2,0,0.4,0,0.5,0.2c0.1,0.1,0.2,0.3,0.2,0.5v0.7
			c0,0.2,0,0.3-0.2,0.5C10.4,22.3,10.2,22.4,10,22.4z M15.4,25.3c0,1.3-1.1,2.4-2.4,2.4l0,0c-1.3,0-2.4-1.1-2.4-2.4s1.1-2.4,2.4-2.4
			C14.3,23,15.4,24,15.4,25.3L15.4,25.3z M18.8,20.9h-1.6l0,0c-0.2,0-0.4-0.1-0.5-0.2s-0.2-0.3-0.2-0.5s0.1-0.4,0.2-0.5
			s0.3-0.2,0.5-0.2c0.3,0,0.6,0,0.8,0c0.3,0,0.8,0,0.8,0c0.2,0,0.3,0.1,0.4,0.2s0.2,0.3,0.2,0.5C19.4,20.6,19.1,20.9,18.8,20.9z
			 M22.8,27.7L22.8,27.7c-0.7,0-1.3-0.3-1.7-0.7c-0.4-0.5-0.7-1.1-0.7-1.7c0-1.3,1.1-2.3,2.4-2.3c0.6,0,1.3,0.3,1.7,0.7
			c0.4,0.4,0.7,1.1,0.7,1.7C25.1,26.7,24.1,27.7,22.8,27.7z M26.2,22.4c-0.3,0-0.6-0.1-0.8-0.3c-0.2-0.2-0.3-0.5-0.3-0.8
			c0-0.6,0.5-1.1,1.1-1.1s1.1,0.5,1.1,1.1c0,0.3-0.1,0.6-0.3,0.8C26.8,22.3,26.5,22.4,26.2,22.4z M28.2,24.4L28.2,24.4L28.2,24.4
			L28.2,24.4c-0.6,0-1.1-0.5-1.1-1.1c0-0.3,0.1-0.6,0.3-0.8c0.2-0.2,0.5-0.3,0.8-0.3s0.6,0.1,0.8,0.3c0.2,0.2,0.3,0.5,0.3,0.8
			C29.2,23.9,28.8,24.4,28.2,24.4z M31,22.1c-0.2,0.2-0.5,0.3-0.8,0.3l0,0c-0.6,0-1.1-0.5-1.1-1.1s0.5-1.1,1.1-1.1s1.1,0.5,1.1,1.1
			C31.3,21.6,31.2,21.9,31,22.1z"/>
		<path class="st3" d="M2.8,17.7c0,0,0.1-0.1,0.1-0.2S3,17.4,3,17.3s0.1-0.2,0.2-0.2c0.1-0.2,0.3-0.3,0.4-0.5l0.1-0.1
			C3.8,16.3,4,16.2,4.2,16c0.2-0.2,0.3-0.3,0.5-0.5L5,15.4l0,0c0.2-0.1,0.3-0.3,0.5-0.4c0.2-0.2,0.4-0.3,0.7-0.4l0.2-0.1l0.1-0.1
			l0.1-0.1c0-0.1-0.1-0.3-0.1-0.3c-0.1-0.2-0.2-0.4-0.3-0.6v-0.1H6L1,15l0.1,0.2l0,0C1.5,16,2.1,16.9,2.8,17.7L2.8,17.7z"/>
	</g>
</g>
</svg>
