<?xml version="1.0" encoding="utf-8"?>
<!-- Generator: Adobe Illustrator 25.2.1, SVG Export Plug-In . SVG Version: 6.00 Build 0)  -->
<svg version="1.1" xmlns="http://www.w3.org/2000/svg" xmlns:xlink="http://www.w3.org/1999/xlink" x="0px" y="0px"
	 viewBox="0 0 36 36" style="enable-background:new 0 0 36 36;" xml:space="preserve">
<style type="text/css">
	.st0{display:none;}
	.st1{display:inline;}
	.st2{fill:#E0C55E;}
	.st3{display:inline;fill:#E0C55E;}
	.st4{fill:#00F354;}
	.st5{display:inline;fill:#00F354;}
	.st6{fill:#A8A8A8;}
	.st7{display:inline;fill:#A8A8A8;}
	.st8{fill:#FE1F03;}
	.st9{display:inline;fill:#FE1F03;}
	.st10{fill:#D8D8D8;}
	.st11{display:inline;fill:#D8D8D8;}
	.st12{fill:#0094FE;}
	.st13{display:inline;fill:#0094FE;}
	.st14{fill:#FFFFFF;}
	.st15{display:inline;fill:#FFFFFF;}
	.st16{fill:#E4FF23;}
	.st17{display:inline;fill:#E4FF23;}
	.st18{fill:#919EF8;}
	.st19{display:inline;fill:#919EF8;}
	.st20{fill:#91CACE;}
	.st21{display:inline;fill:#91CACE;}
	.st22{fill:#3F6B6E;}
	.st23{display:inline;fill:#3F6B6E;}
	.st24{fill:#393637;}
	.st25{display:inline;fill:#393637;}
	.st26{fill:#edebe4;}
	.st27{fill:#FF00B2;}
	.st28{display:inline;fill:#FF00B2;}
	.st29{fill:#FF800E;}
	.st30{display:inline;fill:#FF800E;}
	.st31{fill:#25AAE1;}
	.st32{display:inline;fill:#25AAE1;}
</style>
<g id="w1n" class="st0">
</g>
<g id="w2n" class="st0">
</g>
<g id="w3n" class="st0">
</g>
<g id="w4n" class="st0">
</g>
<g id="w5n" class="st0">
</g>
<g id="w6n" class="st0">
</g>
<g id="w7n" class="st0">
</g>
<g id="w8n" class="st0">
</g>
<g id="w9n">
	<g>
		<path class="st26" d="M35.9,6.5c-0.1,0.4-0.3,0.7-0.4,1.1c-0.2,0.3-0.4,0.6-0.7,0.8c-0.2,0.1-0.3,0.4-0.3,0.6v13.8
			c0,1.4-1,2.6-2.4,2.8c-0.2,0-0.2-0.1-0.2-0.2V9c0-0.2-0.1-0.4-0.3-0.6c-0.9-0.6-1.4-1.8-1-2.9c0.3-1.1,1.3-1.8,2.4-1.9
			c1.1-0.1,2.1,0.6,2.5,1.5c0.1,0.3,0.2,0.6,0.4,0.8S35.9,6.3,35.9,6.5z"/>
		<path class="st26" d="M29,20c-0.6,0-0.6,0-0.6-0.6v-8c0-0.4-0.3-0.7-0.6-0.9c-0.3-0.1-0.6-0.2-0.9-0.2c-1,0-1.9,0-2.9,0
			c-0.2,0-0.4-0.1-0.4-0.1c0-0.2,0-0.4,0.1-0.6c0.1-0.2,0.3-0.4,0.5-0.6l0.8-0.9c0.2-0.2,0.3-0.5,0.1-0.7c-0.1-0.1-0.2-0.2-0.3-0.2
			c-0.6-0.1-1.2-0.3-1.8-0.4c-0.3,0-0.5-0.2-0.7-0.4C22,6,21.7,5.6,21.5,5.1c-0.3-0.4-0.9-0.6-1.2,0l-0.4,0.8
			c-0.1,0.1-0.2,0.2-0.4,0.2l-2.8-0.6c-0.2-0.1-0.4-0.2-0.5-0.4c-0.4-0.8-0.9-1.6-1.4-2.4c-0.3-0.5-0.7-0.5-1.1,0
			c-0.3,0.5-0.8,1.4-1.2,2.1c-0.1,0.2-0.2,0.3-0.3,0.5c-0.1,0.1-0.3,0.2-0.5,0.3C10.9,5.7,10,5.9,9.1,6C8.9,6.1,8.7,6,8.6,5.8
			C8.5,5.5,8.3,5.3,8.2,5C8,4.7,7.7,4.5,7.4,4.6C7.2,4.7,7.1,4.8,7,5C6.8,5.5,6.5,6,6.2,6.5C6.1,6.7,5.9,6.9,5.6,6.9
			C5,7,4.5,7.1,3.9,7.2c-0.3,0-0.5,0.3-0.5,0.7c0,0.1,0.1,0.3,0.2,0.4C4,8.7,4.4,9.2,4.9,9.6C5,9.7,5.1,9.9,5,10.1
			c-0.1,0.2-0.3,0.2-0.5,0.2c-0.9,0-1.7,0-2.6,0c-1.2,0-1.5,0.2-1.9,1.3v21L0.3,33c0.2,0.4,0.7,0.7,1.2,0.7h0.3H27
			c0.8,0,1.5-0.6,1.5-1.3c0-0.1,0-0.1,0-0.2c0-1.2,0-2.4,0-3.6c0-0.3,0-0.4,0.4-0.4h0.6c0.2,0,0.3-0.1,0.4-0.3c0,0,0,0,0-0.1
			c0-0.2,0-0.4,0-0.6v-6.4C29.8,20.1,29.8,20,29,20z M18.9,8.3C19,8.1,19.2,8,19.5,8c0.4,0,0.7-0.3,0.9-0.6c0.1-0.2,0.2-0.4,0.3-0.6
			c0.1-0.2,0.2-0.2,0.3,0c0.1,0.1,0.2,0.3,0.2,0.4C21.4,7.6,21.9,8,22.4,8l0.4,0.1c0.4,0.1,0.4,0.2,0.2,0.5
			c-0.2,0.3-0.2,0.3-0.3,0.4c-0.3,0.3-0.5,0.8-0.4,1.3c0,0.1,0,0.3,0,0.4c0,0.2-0.1,0.3-0.3,0.2l-0.7-0.3c-0.3-0.2-0.7-0.2-1,0
			c-0.2,0.1-0.4,0.2-0.7,0.3h-0.1c-0.1,0-0.2-0.1-0.2-0.2s0-0.4,0.1-0.6V9.9c0.1-0.3,0-0.6-0.2-0.8c-0.1-0.1-0.3-0.3-0.3-0.4
			C18.8,8.5,18.8,8.3,18.9,8.3z M10.7,7c0.6-0.1,1.1-0.3,1.7-0.3c0.3,0,0.6-0.3,0.8-0.6c0.3-0.5,0.5-0.9,0.8-1.4
			c0.1-0.1,0.1-0.4,0.3-0.3c0.2,0.1,0.2,0.2,0.3,0.3c0.3,0.5,0.6,1,0.8,1.5c0.1,0.2,0.4,0.4,0.6,0.4L17.9,7c0.3,0,0.3,0.2,0.1,0.4
			c-0.4,0.4-0.7,0.8-1.1,1.2c-0.3,0.3-0.5,0.8-0.4,1.3c0.1,0.5,0.1,1,0.2,1.5c0,0.5,0,0.4-0.3,0.2c-0.3-0.1-0.9-0.4-1.3-0.6
			c-0.5-0.3-1.1-0.3-1.6,0c-0.4,0.2-0.8,0.4-1.3,0.6c-0.4,0.2-0.5,0.1-0.4-0.2c0.1-0.6,0.2-1.2,0.2-1.7c0.1-0.4-0.1-0.8-0.4-1.1
			c-0.4-0.4-0.8-0.8-1.1-1.2C10.2,7,10.4,7,10.7,7L10.7,7z M5.6,8.1C5.8,8.1,6.1,8,6.4,7.9c0.2,0,0.4-0.2,0.5-0.3
			C7,7.4,7.2,7.1,7.3,6.9s0.3-0.3,0.5,0l0.4,0.7C8.3,7.8,8.5,7.9,8.8,8C9,8,9.2,8.1,9.4,8.1c0.3,0.1,0.4,0.3,0.2,0.5L9.2,9.2
			C9,9.4,9,9.6,9,9.9c0,0.2,0,0.5,0.1,0.7c0.1,0.2-0.1,0.3-0.3,0.2c-0.2-0.1-0.4-0.2-0.6-0.3c-0.3-0.2-0.7-0.2-1,0
			c-0.2,0.1-0.5,0.2-0.7,0.3c-0.2,0.1-0.3,0-0.3-0.3c0-0.3,0-0.3,0-0.5c0.1-0.4-0.1-0.9-0.4-1.2C5.6,8.8,5.5,8.7,5.4,8.5
			C5.3,8.3,5.3,8.2,5.6,8.1L5.6,8.1z M20.2,29.7H8.5c-0.6,0-0.6,0-0.6-0.5v-0.6c0-0.3,0.1-0.4,0.4-0.4h11.7c0.4,0,0.4,0,0.4,0.4v0.7
			C20.5,29.6,20.5,29.7,20.2,29.7z M25.8,23.5c0,0.5-0.2,0.6-0.7,0.6H3.4c-0.5,0-0.7-0.2-0.7-0.7c0-2.4,0-4.8,0-7.2v-2.4
			c0-0.7,0.1-0.8,0.8-0.8H25c0.6,0,0.7,0.1,0.7,0.7v3.2v6.4C25.8,23.4,25.8,23.4,25.8,23.5z"/>
		<path class="st26" d="M17.2,18.6v-3.8c0-0.3,0-0.3-0.3-0.3h-5.2c-0.3,0-0.3,0-0.3,0.3v7.5c0,0.3,0,0.4,0.4,0.4h5.1
			c0.4,0,0.4,0,0.4-0.4L17.2,18.6z M16.2,18.6l-1.8,1.5c-0.1,0.1-0.3,0.1-0.4,0c0,0,0,0,0,0l-1.7-1.5c-0.1-0.1-0.2-0.3-0.1-0.4
			c0,0,0,0,0,0l0,0c0.2-0.5,0.7-0.9,1.3-0.8c0.3,0,0.5,0,0.8,0h1.2c0.2,0,0.4,0.1,0.5,0.3c0.1,0.2,0.2,0.4,0.3,0.6
			C16.4,18.3,16.3,18.5,16.2,18.6L16.2,18.6z"/>
		<path class="st26" d="M10,18.6v-3.8c0-0.2,0-0.3-0.3-0.3H4.4c-0.2,0-0.3,0.1-0.3,0.3v7.7c0,0.2,0.1,0.3,0.3,0.3h5.3
			c0.2,0,0.3-0.1,0.3-0.3V18.6z M9,18.6l-1.8,1.5c-0.1,0.1-0.3,0.1-0.4,0c0,0,0,0,0,0L5,18.6c-0.1-0.1-0.2-0.3,0-0.5c0,0,0,0,0,0
			c0.1-0.2,0.2-0.4,0.4-0.6c0.1-0.1,0.2-0.2,0.4-0.2H7h1.3c0.2,0,0.4,0.1,0.5,0.3L9,18.1C9.1,18.2,9.1,18.4,9,18.6
			C9,18.6,9,18.6,9,18.6L9,18.6z"/>
		<path class="st26" d="M24.4,14.9c0-0.4,0-0.4-0.4-0.4h-5.1c-0.4,0-0.4,0-0.4,0.4v7.4c0,0.4,0,0.4,0.4,0.4H24c0.3,0,0.4,0,0.4-0.4
			c0-0.7,0-1.5,0-2.2C24.4,18.3,24.4,16.6,24.4,14.9z M23.5,18.6L21.8,20c-0.1,0.2-0.4,0.2-0.5,0c0,0,0,0,0,0
			c-0.6-0.5-1.1-1-1.7-1.5c-0.1-0.1-0.1-0.3,0-0.5c0,0,0,0,0,0c0.1-0.1,0.1-0.2,0.2-0.2c0.1-0.4,0.6-0.7,1-0.6h0.1h0.8h1.3
			c0.2,0,0.4,0.1,0.4,0.3c0.1,0.2,0.2,0.4,0.4,0.6C23.8,18.2,23.7,18.4,23.5,18.6C23.6,18.5,23.5,18.6,23.5,18.6L23.5,18.6z"/>
	</g>
</g>
<g id="w10n" class="st0">
</g>
<g id="w11n" class="st0">
</g>
<g id="n2a" class="st0">
</g>
</svg>
