<svg width="75" height="74" viewBox="0 0 75 74" fill="none" xmlns="http://www.w3.org/2000/svg">
<rect width="74.6316" height="74" rx="37" fill="#513030"/>
<path d="M45.3487 46.3092L37.3158 38.2155L29.222 46.3092C28.8569 46.6743 28.2484 46.6743 27.8224 46.3092C27.4572 45.8832 27.4572 45.2747 27.8224 44.9095L35.9161 36.8158L27.8832 28.7829C27.4572 28.4178 27.4572 27.8092 27.8832 27.3832C28.2484 27.0181 28.8569 27.0181 29.222 27.3832L37.3158 35.477L45.3487 27.3832C45.7138 27.0181 46.3224 27.0181 46.7484 27.3832C47.1135 27.8092 47.1135 28.4178 46.7484 28.7829L38.6546 36.8158L46.7484 44.9095C47.1135 45.2747 47.1135 45.8832 46.7484 46.3092C46.3224 46.6743 45.7138 46.6743 45.3487 46.3092Z" fill="#FF8181"/>
</svg>
