<svg width="74" height="74" viewBox="0 0 74 74" fill="none" xmlns="http://www.w3.org/2000/svg">
<rect width="74" height="74" rx="37" fill="#F99702" fill-opacity="0.1"/>
<path d="M50.6316 36.8158C50.6316 31.9474 48.0148 27.5049 43.8158 25.0707C39.5559 22.5757 34.3832 22.5757 30.1842 25.0707C25.9243 27.5049 23.3684 31.9474 23.3684 36.8158C23.3684 41.7451 25.9243 46.1875 30.1842 48.6217C34.3832 51.1168 39.5559 51.1168 43.8158 48.6217C48.0148 46.1875 50.6316 41.7451 50.6316 36.8158ZM21.4211 36.8158C21.4211 31.278 24.3421 26.1661 29.2105 23.3668C34.0181 20.5674 39.9211 20.5674 44.7895 23.3668C49.597 26.1661 52.5789 31.278 52.5789 36.8158C52.5789 42.4145 49.597 47.5263 44.7895 50.3257C39.9211 53.125 34.0181 53.125 29.2105 50.3257C24.3421 47.5263 21.4211 42.4145 21.4211 36.8158ZM36.0263 28.0526C36.0263 27.5658 36.4523 27.0789 37 27.0789C37.4868 27.0789 37.9737 27.5658 37.9737 28.0526V36.3289L43.3289 39.9194C43.8158 40.2237 43.9375 40.8322 43.6332 41.2582C43.3289 41.7451 42.7204 41.8668 42.2944 41.5625L36.4523 37.6678C36.148 37.4852 36.0263 37.1809 36.0263 36.8158V28.0526Z" fill="#F99702"/>
</svg>
