<svg width="74" height="74" viewBox="0 0 74 74" fill="none" xmlns="http://www.w3.org/2000/svg">
<rect width="74" height="73.8421" rx="36.9211" fill="#28A746" fill-opacity="0.1"/>
<g clip-path="url(#clip0_1931_38837)">
<path d="M37 52.4211C32.8891 52.4211 28.9467 50.788 26.0398 47.8812C23.133 44.9744 21.5 41.0319 21.5 36.9211C21.5 32.8102 23.133 28.8677 26.0398 25.9609C28.9467 23.0541 32.8891 21.4211 37 21.4211C41.1109 21.4211 45.0533 23.0541 47.9602 25.9609C50.867 28.8677 52.5 32.8102 52.5 36.9211C52.5 41.0319 50.867 44.9744 47.9602 47.8812C45.0533 50.788 41.1109 52.4211 37 52.4211ZM37 23.3586C33.403 23.3586 29.9533 24.7875 27.4099 27.3309C24.8664 29.8744 23.4375 33.3241 23.4375 36.9211C23.4375 40.518 24.8664 43.9677 27.4099 46.5112C29.9533 49.0546 33.403 50.4836 37 50.4836C40.597 50.4836 44.0467 49.0546 46.5901 46.5112C49.1336 43.9677 50.5625 40.518 50.5625 36.9211C50.5625 33.3241 49.1336 29.8744 46.5901 27.3309C44.0467 24.7875 40.597 23.3586 37 23.3586ZM42.0314 31.5082C42.3463 31.0783 42.9518 30.9814 43.3816 31.2962C43.8115 31.6111 43.9084 32.2166 43.5936 32.6464L35.8436 43.3027C35.674 43.5328 35.4197 43.6781 35.1352 43.6962C34.8506 43.7144 34.5721 43.6175 34.3723 43.4177L30.4973 39.5427C30.1219 39.1673 30.1219 38.5498 30.4973 38.1744C30.8727 37.799 31.4902 37.799 31.8656 38.1744L34.9354 41.2441L42.0193 31.5082H42.0314Z" fill="#28A746"/>
</g>
<defs>
<clipPath id="clip0_1931_38837">
<rect width="31" height="31" fill="white" transform="translate(21.5 21.4211)"/>
</clipPath>
</defs>
</svg>
