<svg width="74" height="74" viewBox="0 0 74 74" fill="none" xmlns="http://www.w3.org/2000/svg">
<rect width="74" height="73.8421" rx="36.9211" fill="#F99702" fill-opacity="0.1"/>
<path d="M38.0344 35.5422C38.0344 34.9711 37.5714 34.5081 37.0003 34.5081C36.4292 34.5081 35.9662 34.9711 35.9662 35.5422V43.8152C35.9662 44.3863 36.4292 44.8493 37.0003 44.8493C37.5714 44.8493 38.0344 44.3863 38.0344 43.8152V35.5422Z" fill="#F99702"/>
<path fill-rule="evenodd" clip-rule="evenodd" d="M37.0007 22.0988C28.8146 22.0988 22.1784 28.7349 22.1784 36.9211C22.1784 45.1073 28.8146 51.7434 37.0007 51.7434C45.1869 51.7434 51.823 45.1073 51.823 36.9211C51.823 28.7349 45.1869 22.0988 37.0007 22.0988ZM24.2466 36.9211C24.2466 29.8772 29.9568 24.167 37.0007 24.167C44.0445 24.167 49.7548 29.8772 49.7548 36.9211C49.7548 43.9649 44.0445 49.6752 37.0007 49.6752C29.9568 49.6752 24.2466 43.9649 24.2466 36.9211Z" fill="#F99702"/>
<path d="M38.3786 31.4057C38.3786 32.1672 37.7613 32.7846 36.9997 32.7846C36.2382 32.7846 35.6209 32.1672 35.6209 31.4057C35.6209 30.6442 36.2382 30.0269 36.9997 30.0269C37.7613 30.0269 38.3786 30.6442 38.3786 31.4057Z" fill="#F99702"/>
</svg>
