<?xml version="1.0" encoding="utf-8"?>
<!-- Generator: Adobe Illustrator 25.2.1, SVG Export Plug-In . SVG Version: 6.00 Build 0)  -->
<svg version="1.1" xmlns="http://www.w3.org/2000/svg" xmlns:xlink="http://www.w3.org/1999/xlink" x="0px" y="0px"
	 viewBox="0 0 36 36" style="enable-background:new 0 0 36 36;" xml:space="preserve">
<style type="text/css">
	.st0{display:none;}
	.st1{display:inline;}
	.st2{fill:#E0C55E;}
	.st3{display:inline;fill:#E0C55E;}
	.st4{fill:#00F354;}
	.st5{display:inline;fill:#00F354;}
	.st6{fill:#A8A8A8;}
	.st7{display:inline;fill:#A8A8A8;}
	.st8{fill:#FE1F03;}
	.st9{display:inline;fill:#FE1F03;}
	.st10{fill:#D8D8D8;}
	.st11{display:inline;fill:#D8D8D8;}
	.st12{fill:#0094FE;}
	.st13{display:inline;fill:#0094FE;}
	.st14{fill:#FFFFFF;}
	.st15{display:inline;fill:#FFFFFF;}
	.st16{fill:#E4FF23;}
	.st17{display:inline;fill:#E4FF23;}
	.st18{fill:#919EF8;}
	.st19{display:inline;fill:#919EF8;}
	.st20{fill:#91CACE;}
	.st21{display:inline;fill:#91CACE;}
	.st22{fill:#3F6B6E;}
	.st23{display:inline;fill:#3F6B6E;}
	.st24{fill:#393637;}
	.st25{display:inline;fill:#393637;}
	.st26{fill:#edebe4;}
	.st27{fill:#FF00B2;}
	.st28{display:inline;fill:#FF00B2;}
	.st29{fill:#FF800E;}
	.st30{display:inline;fill:#FF800E;}
	.st31{fill:#25AAE1;}
	.st32{display:inline;fill:#25AAE1;}
</style>
<g id="w1n" class="st0">
</g>
<g id="w2n" class="st0">
</g>
<g id="w3n" class="st0">
</g>
<g id="w4n" class="st0">
</g>
<g id="w5n" class="st0">
</g>
<g id="w6n" class="st0">
</g>
<g id="w7n" class="st0">
</g>
<g id="w8n" class="st0">
</g>
<g id="w9n">
	<g>
		<path class="st26" d="M16.2,17.1v3.7c0,0.2,0,0.3,0,0.5c0.2,0.7,1.1,1.1,2.3,0.9c0.9-0.1,1.3-0.5,1.3-1.3c0-2.6,0-5.1,0-7.6
			c0-0.6,0.2-0.6,0.7-0.6c1.7,0.4,3.3,1,4.8,1.8c3,1.4,6,2.7,9,4.1c0.5,0.2,0.9,0.5,1.2,0.9c0.6,0.5,0.6,1.4,0.1,2
			c0,0-0.1,0.1-0.1,0.1c-0.7,0.6-1.5,1.1-2.4,1.4c-3.3,1.5-6.7,3.1-10,4.6c-3.2,1.5-7,1.5-10.2,0c-3.3-1.5-6.5-2.9-9.8-4.4
			c-0.7-0.3-1.4-0.6-2-1.1c-1.3-0.9-1.3-2.1,0-3c1-0.6,2.1-1.2,3.2-1.6l8.5-3.9c0.9-0.4,1.8-0.7,2.8-0.9c0.4-0.1,0.5,0,0.5,0.4
			C16.1,14.5,16.2,15.8,16.2,17.1z M7,19.2c-0.7,0-1.3,0.1-1.9,0.5c-0.6,0.3-0.8,0.9-0.6,1.5c0.1,0.3,0.3,0.5,0.6,0.6
			c1.3,0.7,2.8,0.7,4-0.1c0.5-0.3,0.7-1,0.4-1.5c-0.1-0.2-0.2-0.3-0.4-0.4C8.5,19.3,7.8,19.1,7,19.2z"/>
		<path class="st26" d="M18.2,34.6c-2.1-0.1-4.2-0.6-6.1-1.5c-3.3-1.6-6.6-3-9.8-4.5c-0.2-0.1-0.4-0.2-0.7-0.3
			c-1.3-0.6-1.9-2-1.4-3.3c0.1-0.4,0.4-0.5,0.8-0.3c1.3,0.6,2.6,1.2,3.9,1.8c3,1.3,6,2.8,9,4c3.1,1.2,6.5,1,9.4-0.4
			c3.3-1.5,6.6-3,9.9-4.4l2.1-0.9c0.5-0.2,0.8-0.1,0.8,0.5c0.2,1.8-0.1,2.6-1.8,3.3c-2.6,1.2-5.2,2.4-7.7,3.6
			c-1.6,0.8-3.2,1.5-4.9,2.1C20.4,34.4,19.3,34.6,18.2,34.6z"/>
		<path class="st26" d="M23,6.3c0,2.8-2.2,5-4.9,5s-5-2.2-5-4.9c0-2.8,2.2-5,4.9-5c0,0,0,0,0,0C20.8,1.4,23,3.6,23,6.3
			C23,6.3,23,6.3,23,6.3z"/>
	</g>
</g>
<g id="w10n" class="st0">
</g>
<g id="w11n" class="st0">
</g>
<g id="n2a" class="st0">
</g>
</svg>
