<?xml version="1.0" encoding="utf-8"?>
<!-- Generator: Adobe Illustrator 25.2.1, SVG Export Plug-In . SVG Version: 6.00 Build 0)  -->
<svg version="1.1" xmlns="http://www.w3.org/2000/svg" xmlns:xlink="http://www.w3.org/1999/xlink" x="0px" y="0px"
	 viewBox="0 0 36 36" style="enable-background:new 0 0 36 36;" xml:space="preserve">
<style type="text/css">
	.st0{display:none;}
	.st1{display:inline;}
	.st2{fill:#E0C55E;}
	.st3{display:inline;fill:#E0C55E;}
	.st4{fill:#00F354;}
	.st5{display:inline;fill:#00F354;}
	.st6{fill:#A8A8A8;}
	.st7{display:inline;fill:#A8A8A8;}
	.st8{fill:#FE1F03;}
	.st9{display:inline;fill:#FE1F03;}
	.st10{fill:#D8D8D8;}
	.st11{display:inline;fill:#D8D8D8;}
	.st12{fill:#0094FE;}
	.st13{display:inline;fill:#0094FE;}
	.st14{fill:#FFFFFF;}
	.st15{display:inline;fill:#FFFFFF;}
	.st16{fill:#E4FF23;}
	.st17{display:inline;fill:#E4FF23;}
	.st18{fill:#919EF8;}
	.st19{display:inline;fill:#919EF8;}
	.st20{fill:#91CACE;}
	.st21{display:inline;fill:#91CACE;}
	.st22{fill:#3F6B6E;}
	.st23{display:inline;fill:#3F6B6E;}
	.st24{fill:#393637;}
	.st25{display:inline;fill:#393637;}
	.st26{fill:#edebe4;}
	.st27{fill:#FF00B2;}
	.st28{display:inline;fill:#FF00B2;}
	.st29{fill:#FF800E;}
	.st30{display:inline;fill:#FF800E;}
	.st31{fill:#25AAE1;}
	.st32{display:inline;fill:#25AAE1;}
</style>
<g id="w1n" class="st0">
</g>
<g id="w2n" class="st0">
</g>
<g id="w3n" class="st0">
</g>
<g id="w4n" class="st0">
</g>
<g id="w5n" class="st0">
</g>
<g id="w6n" class="st0">
</g>
<g id="w7n" class="st0">
</g>
<g id="w8n" class="st0">
</g>
<g id="w9n">
	<g>
		<path class="st26" d="M19.2,12.5c0,0.1-0.1,0.1-0.1,0.2l-5.2,4.2c-0.1,0.1-0.2,0.1-0.3,0.1l-6.3-1.4c-0.2,0-0.2-0.1-0.2-0.2
			c-0.3-1.7-0.6-3.4-0.9-5c0-0.2,0-0.3,0.1-0.5l2-2.1c1.1-1.1,2.3-2.1,3.6-2.9c0.2-0.2,0.5-0.3,0.8-0.1L17.8,6C17.9,6,18,6.2,18,6.3
			c0.3,1.1,0.6,2.2,0.8,3.3C19,10.6,19.1,11.5,19.2,12.5z"/>
		<path class="st26" d="M6.9,16.2c0.7,0.2,1.4,0.3,2.1,0.5l4.2,0.9c0.1,0,0.3,0.1,0.3,0.3l2.5,6.9c0.1,0.1,0,0.3-0.1,0.4
			c-1.2,1.4-2.3,2.8-3.5,4.3c-0.1,0.1-0.2,0.2-0.3,0.1l-5.4-1.6c-0.1,0-0.2-0.1-0.3-0.2c-1.4-2.1-2.3-4.6-2.7-7.1
			c0-0.1,0-0.2,0.1-0.3l3-3.9C6.8,16.3,6.8,16.2,6.9,16.2z"/>
		<path class="st26" d="M18.8,6c0.5-0.3,1.1-0.6,1.6-0.9c0.8-0.5,1.7-0.9,2.5-1.4c0.1,0,0.3,0,0.4,0c2.4,0.8,4.5,2.1,6.4,3.8
			C29.9,7.6,30,7.8,30,7.9c0.1,1.9,0.2,3.7,0.4,5.6c0,0.2-0.1,0.3-0.2,0.4L26,16.5c-0.1,0.1-0.3,0.1-0.4,0l-5.3-3.6
			c-0.1-0.1-0.2-0.2-0.2-0.3c-0.1-2.2-0.5-4.3-1.1-6.3C18.8,6.1,18.8,6.1,18.8,6z"/>
		<path class="st26" d="M13,29.9l3.4-4.1l0.1-0.1c0.5-0.6,0.5-0.6,1.3-0.7c1.9-0.1,3.8-0.3,5.6-0.5c0.3,0,0.5,0.1,0.7,0.3
			c0.9,1.2,1.9,2.3,2.9,3.5c0.1,0.1,0.1,0.3,0,0.4c0,0,0,0,0,0c-1,1.3-1.9,2.6-2.8,3.9c-0.1,0.1-0.2,0.2-0.3,0.2
			c-1.2,0.2-2.4,0.5-3.5,0.6c-0.7,0.1-1.4,0.1-2.1,0.1c-0.8,0-1.5,0-2.3,0c-0.1,0-0.2,0-0.3-0.1L13,29.9z"/>
		<path class="st26" d="M33.8,18.1c0,1.3-0.2,2.5-0.5,3.8c-0.4,1.4-1,2.8-1.9,4c-0.1,0.2-0.3,0.4-0.6,0.5l-2.9,1.5
			c-0.2,0.1-0.3,0.1-0.4-0.1c-1-1.3-2-2.5-3.1-3.7c-0.1-0.1-0.1-0.2-0.1-0.4c0.5-2,1.1-4.1,1.6-6.2c0-0.1,0.1-0.2,0.2-0.3l4.6-2.7
			c0.1-0.1,0.2-0.1,0.3,0c0,0,0,0,0,0c0.9,1,1.7,2,2.6,2.9C33.9,17.7,33.8,17.9,33.8,18.1z"/>
		<path class="st26" d="M12.7,0.5c-0.3,1-0.6,2.1-0.9,3.1c0,0.1-0.1,0.2-0.2,0.2c-0.5,0.4-0.9,0.7-1.4,1.1C8.6,6,7.3,7.3,6.1,8.8
			C5.7,9.3,5.2,9.6,4.6,9.7c-0.9,0.2-1.9,0.5-2.8,0.8l-0.3,0.1C3.6,5.8,7.6,2.1,12.7,0.5L12.7,0.5z"/>
		<path class="st26" d="M5.4,30.9C1.8,27.5-0.2,22.7,0,17.8l0.2,0.1l2.4,2.4c0.1,0.1,0.1,0.2,0.2,0.3c0.4,2.4,1.3,4.8,2.6,6.9
			c0.3,0.4,0.4,1,0.3,1.5C5.6,29.6,5.5,30.3,5.4,30.9L5.4,30.9z"/>
		<path class="st26" d="M32.8,7.5c-0.6-0.1-1.2-0.2-1.8-0.3c-0.3,0-0.5-0.1-0.7-0.3c-0.8-0.6-1.6-1.2-2.3-1.7
			c-1.1-0.8-2.3-1.4-3.5-1.9C24,3.2,23.6,3,23.2,2.8c-0.3-0.3-0.5-0.7-0.7-1.1c-0.3-0.5-0.7-1.1-1-1.7c2.3,0.5,4.5,1.4,6.4,2.6
			C29.8,4,31.5,5.6,32.8,7.5z"/>
		<path class="st26" d="M27.1,33.5l-0.7,0.5c-1.7,1-3.7,1.7-5.7,1.9c-2.7,0.3-5.4,0.1-8-0.7l-0.2-0.1l0.1-0.1l2-0.9
			c0.1,0,0.2,0,0.3,0c1.6,0,3.1,0.2,4.7,0.1c1.1-0.1,2.1-0.3,3.2-0.6c0.6-0.1,1.2-0.2,1.9-0.2h2L27.1,33.5
			C27.1,33.5,27.1,33.5,27.1,33.5z"/>
		<path class="st26" d="M32.4,28.9l-0.3-2.4c0-0.1,0.1-0.2,0.1-0.3c0.5-1,1.1-2,1.6-3.1c0.5-1.4,0.8-2.9,0.8-4.4c0-0.2,0-0.4,0-0.6
			c-0.1-0.8,0.1-1.6,0.6-2.3c0.2-0.4,0.4-0.7,0.6-1.1C36.6,19.7,35.4,24.8,32.4,28.9z"/>
	</g>
</g>
<g id="w10n" class="st0">
</g>
<g id="w11n" class="st0">
</g>
<g id="n2a" class="st0">
</g>
</svg>
