<?xml version="1.0" encoding="UTF-8"?>
<svg id="Layer_3" data-name="Layer 3" xmlns="http://www.w3.org/2000/svg" xmlns:xlink="http://www.w3.org/1999/xlink" viewBox="0 0 40 40">
  <defs>
    <style>
      .cls-1 {
        fill: #fff;
      }

      .cls-2 {
        fill: url(#linear-gradient);
      }
    </style>
    <linearGradient id="linear-gradient" x1="19.999999999998181" y1=".318553594491277" x2="20.000000000002295" y2="40.318553594494006" gradientUnits="userSpaceOnUse">
      <stop offset="0" stop-color="#8e8e8e"/>
      <stop offset=".757771491321635" stop-color="#7b7b7b"/>
      <stop offset=".99601808006881" stop-color="#757575"/>
    </linearGradient>
  </defs>
  <rect class="cls-2" x="-.000000000000004" width="40" height="40" rx="5.297029702949658" ry="5.297029702949658"/>
  <g>
    <g>
      <path class="cls-1" d="M23.802115356347713,18.317276085140293h-7.606459290081148c-.596678142399469,0-1.080456972265893-.483993528119754-1.080456972265893-1.080936472840222,0-.596942944709554.483778829866424-1.080936472839312,1.080456972265893-1.080936472839312h7.606459290081148c.596678142401288,0,1.080456972267712.483993528129758,1.080456972267712,1.080936472839312,0,.596942944720467-.483778829866424,1.080936472840222-1.080456972267712,1.080936472840222Z"/>
      <path class="cls-1" d="M19.661770474354853,23.839658075030457h-3.466114408088288c-.596678142399469,0-1.080456972265893-.483993528119754-1.080456972265893-1.080936472830217,0-.596942944719558.483778829866424-1.080936472839312,1.080456972265893-1.080936472839312h3.466114408088288c.596678142401288,0,1.080456972266802.483993528119754,1.080456972266802,1.080936472839312,0,.596942944710463-.483778829865514,1.080936472830217-1.080456972266802,1.080936472830217Z"/>
    </g>
    <path class="cls-1" d="M7.581016466609071,33.5c-.280138013805299,0-.560276027608779-.108727008499045-.771830346880961-.324597622449801-.417832969746087-.426991018809531-.410447033412311-1.11102113052948.015827006428481-1.528511731129583l2.029022224283835-1.987170810660245c.60195381120684-.589553730549596.66737210444262-1.525872726049784.155632229886578-2.226792470160035-2.056455702087987-2.818457404770015-2.890538940931947-6.291915865569536-2.348200187275324-9.780152754729897.852020512795207-5.479630107919547,5.330008198619907-9.980717139330409,10.889507990472339-10.945537389499805,4.516500068139976-.781145497960097,9.087867091894623.67347409146987,12.221086798082979,3.899393877590228,3.076770049925472,3.167861674799497,4.335017061083818,7.479468142859332,3.451870102308931,11.830131885839364-.976526296713928,4.811961827560481-4.735967890628672,8.759913398270328-9.577449157453884,10.057248286089816-2.752843984997526.737338013940644-5.614894314359844.629666607460422-8.278051929583853-.311402597159031-.562386295133365-.198980981560453-.857296181610764-.816508165760752-.65840346747791-1.379671845700614.198365147257391-.563163679939862.814563264250864-.858732246730142,1.379059826903358-.658695663129947,2.247962479894341.79539612526969,4.66791176298284.885650098350197,6.998174676306007.261789302010584,4.056461747917638-1.08727008499045,7.204453326769908-4.384443007750633,8.019016591020772-8.399425307010461.738593633383061-3.639715779630023-.312319593545908-7.245652294480351-2.884208138362737-9.893629972330018-2.634141436770733-2.712369401319847-6.485379667985399-3.934756545399978-10.301798485052132-3.275533081259709-4.659998259765416.808591150589564-8.411526350471831,4.570228964019407-9.123214072925293,9.14784714219968-.45370751765131,2.91821179605995.241625631487295,5.820589561740235,1.957800695342485,8.172998672800531,1.15115093431541,1.575486021200049.987605201211409,3.698301691979395-.388816791287354,5.046305476939779l-2.02902222427474,1.986643009649924c-.21049918551671.206370195749514-.483251262990052.30876359209924-.756003340461575.30876359209924Z"/>
  </g>
</svg>