<?xml version="1.0" encoding="UTF-8"?>
<svg id="Layer_3" data-name="Layer 3" xmlns="http://www.w3.org/2000/svg" viewBox="0 0 40 40">
  <defs>
    <style>
      .cls-1 {
        fill: #fff;
      }
    </style>
  </defs>
  <path class="cls-1" d="M28.355299168239071,40H11.644700831770024c-3.387872283339675,0-6.144700831770024-2.768401312700007-6.144700831770024-6.17049538989977V6.170495389910684c0-3.402094077190668,2.756828548430349-6.170495389910684,6.144700831770024-6.170495389910684h16.710598336469047c3.38787228333058,0,6.144700831760929,2.768401312720016,6.144700831760929,6.170495389910684v27.659009220189546c0,3.402094077199763-2.756828548430349,6.17049538989977-6.144700831760929,6.17049538989977ZM11.644700831770024,3.200500078150071c-1.630909578751016,0-2.957579822910702,1.332239412410672-2.957579822910702,2.969995311760613v27.659009220189546c0,1.637755899370859,1.326670244159686,2.969995311770617,2.957579822910702,2.969995311770617h16.710598336469047c1.630909578740102,0,2.957579822910702-1.332239412399758,2.957579822910702-2.969995311770617V6.170495389910684c0-1.637755899349941-1.3266702441706-2.969995311760613-2.957579822910702-2.969995311760613H11.644700831770024Z"/>
  <path class="cls-1" d="M26.413925409178773,33.953742772310761h-12.827850818350271c-.880037563729275,0-1.593560504428751-.71651820596071-1.593560504428751-1.600250039060484,0-.883731833109778.713522940699477-1.600250039069579,1.593560504428751-1.600250039069579h12.827850818350271c.880037563721999,0,1.59356050443057.716518205959801,1.59356050443057,1.600250039069579,0,.883731833099773-.713522940708572,1.600250039060484-1.59356050443057,1.600250039060484Z"/>
</svg>