<?xml version="1.0" encoding="UTF-8"?>
<svg id="Layer_3" data-name="Layer 3" xmlns="http://www.w3.org/2000/svg" xmlns:xlink="http://www.w3.org/1999/xlink" viewBox="0 0 39.999999999998181 40">
  <defs>
    <style>
      .cls-1 {
        fill: url(#linear-gradient-3);
        opacity: .6;
      }

      .cls-2 {
        fill: url(#linear-gradient-2);
      }

      .cls-3 {
        fill: url(#linear-gradient-4);
      }

      .cls-4 {
        fill: url(#linear-gradient-5);
      }

      .cls-5 {
        fill: url(#linear-gradient-6);
      }

      .cls-6 {
        fill: url(#linear-gradient);
      }
    </style>
    <linearGradient id="linear-gradient" x1="10.769085813766651" y1="22.309049617226265" x2="10.769085813767903" y2="34.490158778389997" gradientUnits="userSpaceOnUse">
      <stop offset=".017219931674025" stop-color="#c46f1c"/>
      <stop offset=".99143562757532" stop-color="#fa5"/>
    </linearGradient>
    <linearGradient id="linear-gradient-2" x1="10.949857186615191" y1="22.973084627800745" x2="10.949857186616331" y2="34.052077594966747" gradientUnits="userSpaceOnUse">
      <stop offset=".017219931674025" stop-color="#895d11"/>
      <stop offset=".622567776328105" stop-color="#a47413"/>
      <stop offset=".99143562757532" stop-color="#b88416"/>
    </linearGradient>
    <linearGradient id="linear-gradient-3" x1="30.450393146618808" y1="18.053341980197729" x2="39.999999999998181" y2="18.053341980197729" gradientUnits="userSpaceOnUse">
      <stop offset="0" stop-color="#ffe5ab"/>
      <stop offset=".285382756762883" stop-color="#ffefce"/>
      <stop offset=".563455071055647" stop-color="#fff8e9"/>
      <stop offset=".810192014748327" stop-color="#fffdf9"/>
      <stop offset="1" stop-color="#fff"/>
    </linearGradient>
    <linearGradient id="linear-gradient-4" x1="30.687164558270524" y1="18.050641334362808" x2="39.835198177650355" y2="18.050641334362808" xlink:href="#linear-gradient-3"/>
    <linearGradient id="linear-gradient-5" x1="14.108974886008582" y1="6.840969316336668" x2="14.108974886011531" y2="35.51230731739372" gradientUnits="userSpaceOnUse">
      <stop offset="0" stop-color="#fcf6bb"/>
      <stop offset=".120665321368991" stop-color="#fdeaa3"/>
      <stop offset=".251367876929076" stop-color="#fee291"/>
      <stop offset=".389757206343532" stop-color="#fedd86"/>
      <stop offset=".547428299219844" stop-color="#ffdc83"/>
      <stop offset=".733763117012477" stop-color="#ffd580"/>
      <stop offset=".99245990235125" stop-color="#ffc37b"/>
      <stop offset="1" stop-color="#ffc37b"/>
    </linearGradient>
    <linearGradient id="linear-gradient-6" x1="14.10921955246522" y1="7.257571465382171" x2="14.10921955246806" y2="34.864847584778289" gradientUnits="userSpaceOnUse">
      <stop offset=".022342155261353" stop-color="#f5e183"/>
      <stop offset=".442466254002559" stop-color="#fed352"/>
      <stop offset=".623140387545091" stop-color="#d6a630"/>
      <stop offset=".78335609279395" stop-color="#b88416"/>
    </linearGradient>
  </defs>
  <path class="cls-6" d="M13.341814702262127,35c-.932580314678489,0-1.793543443254748-.507672903093408-2.2481568854746-1.325940718943457l-5.428894085627689-9.978452806388304,8.883644867397379.564431364307893,1.292223140539136,7.739646836234897c.19616881411639,1.240803027112634-.504434093407326,2.443767080092584-1.667434919894731,2.861572419587901-.275570476962457.093020811442329-.551140953921276.13874290520107-.831382116939494.13874290520107Z"/>
  <path class="cls-2" d="M15.368650584698116,32.080553867715935c.159484467418224,1.000959112889177-.414523386956716,1.985757830569128-1.355082790298184,2.324830512927292-.956614886647003.322813748154658-2.00878422540336-.080801976040675-2.503001193083037-.968736861468642l-5.006002386176988-9.202458219464461,7.636571692008147.484417700234189,1.227514677550062,7.361946867771621Z"/>
  <path class="cls-1" d="M39.999999999998181,18.050867353113063c0,5.117819791883448-3.332047966992832,9.47688932098572-7.923429660258989,10.929846804696354-.127568112737208.032320790422091-.255136225481692.064641580831449-.366746160889306.064641580831449-.685520483817527,0-1.259431032231078-.565121137269671-1.259431032231078-1.291649148623037,0-.56502259827721.350690677598323-1.065502154715432.876823999951739-1.243069424004716,3.555170531839394-1.130143735546881,6.122004434284463-4.504414546981934,6.122004434284463-8.459769812900049,0-3.971614200132535-2.566833902445069-7.329724616360181-6.122004434284463-8.475930208118371-.526133322353417-.161505413070699-.876823999951739-.678145364719967-.876823999951739-1.227007567793407,0-.871873029222115.813088596562011-1.485376813110634,1.626177193120384-1.227007567793407,4.591381693266158,1.453056022701276,7.923429660258989,5.795866617610955,7.923429660258989,10.929945343705185Z"/>
  <path class="cls-3" d="M34.738958694293615,18.050867353113063c0,1.985757830561852-.924698531973263,3.761627601426881-2.375433080349467,4.875610941768173-.797130419225141.613503783888518-1.91313246732534.016160395198312-1.91313246732534-.984798717679951v-7.797883382389045c0-.984798717679951,1.116002048100199-1.582142106359242,1.91313246732534-.968638322465267,1.450734548376204,1.113983340341292,2.375433080349467,2.889853111200864,2.375433080349467,4.875709480766091Z"/>
  <path class="cls-4" d="M25.706677572381523,31.093125919691374c-.541799581813393,0-1.06180262873022-.178158503251325-1.505517803496332-.513979398780066l-6.694650005225412-5.176056338023045-3.394031863121199-.200231238173728-7.937052494555246-.501366407399473C2.709776356759903,24.4744586924553-.000000000001819,21.552974563803218-.000000000001819,18.051292831612955-.000000000001819,16.348538995171111.635213302821285,14.729346226618873,1.788094309535154,13.488543199495325c1.158330140431644-1.245532898879901,2.715225490486773-1.988122766446395,4.385774201095046-2.089026697496593l11.332641253029578-.717363884798033,6.691536214519147-5.157136850955794c.443715174762474-.343704015140247.966832012389204-.525015766244906,1.511745384897949-.525015766244906,1.382523070853495,0,2.508158408942109,1.139899096076988,2.508158408942109,2.539941139380971v21.02112676055367c0,1.396888795463383-1.125635338088614,2.532058019756732-2.51127219963746,2.532058019756732Z"/>
  <path class="cls-5" d="M27.740130260050137,7.540698128810618v21.020239909605152c0,1.695264872809275-1.913132467332616,2.647742800081687-3.252257080297568,1.630623291979646l-6.807524918098352-5.263164809750378-3.539212354506162-.209789520700724-7.636571692008147-.484417700234189-.302913451549102-.016160395212864c-3.20447985424471-.209789520700724-5.723341918710503-2.906013506397358-5.723341918710503-6.167161551384197,0-1.630623291994198.637645951806917-3.132061961321597,1.657996241847286-4.229884906451844,1.036308467377239-1.113983340343111,2.471084838409297-1.84051135169284,4.065345676863217-1.937375183946642l11.478697498063411-.72652801134609,6.807524918098352-5.247004414550247c1.339124612964952-1.033279903296716,3.252257080297568-.064543041837169,3.252257080297568,1.630623291992379Z"/>
</svg>