<?xml version="1.0" encoding="UTF-8"?>
<svg id="Layer_3" data-name="Layer 3" xmlns="http://www.w3.org/2000/svg" viewBox="0 0 40 40">
  <defs>
    <style>
      .cls-1 {
        fill: #fff;
      }
    </style>
  </defs>
  <path class="cls-1" d="M16.250684609964082,32.464391082640759C7.289726938426611,32.464391082640759-.000000000003638,25.182782673250586-.000000000003638,16.231804771300631-.000000000003638,7.281608409350156,7.289726938426611,0,16.250684609964082,0c8.960957671552023,0,16.250684609971358,7.281608409350156,16.250684609971358,16.231804771300631,0,8.950977901949955-7.289726938419335,16.232586311340128-16.250684609971358,16.232586311340128ZM16.250684609964082,3.201187940820091c-7.193490337220283,0-13.045927548697364,5.845137844140481-13.045927548697364,13.03061683048054,0,7.185478986350063,5.852437211477081,13.031398370490024,13.045927548697364,13.031398370490024s13.045927548711916-5.845919384139961,13.045927548711916-13.031398370490024c0-7.185478986340058-5.852437211491633-13.03061683048054-13.045927548711916-13.03061683048054Z"/>
  <path class="cls-1" d="M38.397621469364822,40c-.409983569359611,0-.819967138719221-.156308004940001-1.132931695479783-.468924014779986l-6.64032548313844-6.632930188940009c-.625929113532038-.625232019699979-.625929113532038-1.638107891599248,0-2.263339911279218.6259291135284-.625232019699979,1.639934277438442-.625232019699979,2.26586339097048,0l6.64032548313844,6.63293018892c.6259291135284.625232019719988.6259291135284,1.638107891599248,0,2.263339911299227-.312964556771476.312616009839985-.722948126131087.468924014779986-1.132931695490697.468924014779986Z"/>
</svg>