<svg width="80" height="73" viewBox="0 0 80 73" fill="none" xmlns="http://www.w3.org/2000/svg">
<g clip-path="url(#clip0_3161_30)">
<path d="M66.6063 33.7559C49.0045 23.5749 30.8145 23.5749 13.2127 33.7559C4.38914 38.869 0 44.0274 0 49.1857C0 54.3441 4.38914 59.5025 13.2127 64.6156C30.8145 74.7966 49.0045 74.7966 66.6063 64.6156C75.4299 59.5477 79.819 54.3441 79.819 49.1857C79.819 44.0274 75.4299 38.869 66.6063 33.7559Z" fill="#949494"/>
<path d="M66.6063 33.7559C49.0045 23.5749 30.8145 23.5749 13.2127 33.7559C4.38914 38.869 0 44.0274 0 49.1857C0 54.3441 4.38914 59.5025 13.2127 64.6156C30.8145 74.7966 49.0045 74.7966 66.6063 64.6156C75.4299 59.5477 79.819 54.3441 79.819 49.1857C79.819 44.0274 75.4299 38.869 66.6063 33.7559Z" fill="#FF9B00"/>
<path d="M66.6063 56.923C49.0045 67.104 30.8145 67.104 13.2127 56.923C4.38914 51.8099 0 46.6515 0 41.4932V49.1855C0 54.3438 4.38914 59.5022 13.2127 64.6153C30.8145 74.7963 49.0045 74.7963 66.6063 64.6153C75.4299 59.5475 79.819 54.3438 79.819 49.1855V41.4932C79.819 46.6515 75.4299 51.8099 66.6063 56.923Z" fill="url(#paint0_linear_3161_30)"/>
<path d="M66.6063 26.0635C49.0045 15.8825 30.8145 15.8825 13.2127 26.0635C4.38914 31.1766 0 36.335 0 41.4933C0 46.6517 4.38914 51.8101 13.2127 56.9232C30.8145 67.1042 49.0045 67.1042 66.6063 56.9232C75.4299 51.8553 79.819 46.6517 79.819 41.4933C79.819 36.335 75.4299 31.1766 66.6063 26.0635Z" fill="#008CFF"/>
<mask id="mask0_3161_30" style="mask-type:luminance" maskUnits="userSpaceOnUse" x="0" y="18" width="80" height="47">
<path d="M66.6063 26.0635C49.0045 15.8825 30.8145 15.8825 13.2127 26.0635C4.38914 31.1766 0 36.335 0 41.4933C0 46.6517 4.38914 51.8101 13.2127 56.9232C30.8145 67.1042 49.0045 67.1042 66.6063 56.9232C75.4299 51.8553 79.819 46.6517 79.819 41.4933C79.819 36.335 75.4299 31.1766 66.6063 26.0635Z" fill="white"/>
</mask>
<g mask="url(#mask0_3161_30)">
<path opacity="0.03" d="M81.3114 23.8915C81.4924 24.4798 81.6282 25.1133 81.6282 25.792C81.5829 25.1585 81.4924 24.525 81.3114 23.8915ZM81.1757 50.1359C81.3567 49.8644 81.4924 49.5476 81.5377 49.2309C81.4472 49.5929 81.3567 49.8644 81.1757 50.1359ZM86.1983 14.2988L84.6598 13.4391L77.058 9.04991L75.5648 8.19018L67.9178 3.80104L66.3793 2.94131C65.3386 2.35308 64.3884 2.26258 63.7096 2.66982L55.2933 7.5567C55.4291 7.4662 55.6101 7.42095 55.7911 7.3757C55.6101 7.42095 55.4743 7.4662 55.2933 7.5567C54.6146 7.96394 54.1621 8.82367 54.1621 10.0001V32.6246C54.1621 35.0228 55.8816 38.0092 57.963 39.2309L59.5015 40.0906L67.1033 44.4798L68.6417 45.3395L76.2436 49.7286L77.782 50.5884C78.8227 51.1766 79.773 51.2671 80.4517 50.8599L88.868 45.973C89.5467 45.5657 89.9992 44.706 89.9992 43.5295V20.9051C90.0445 18.5069 88.325 15.5205 86.1983 14.2988ZM77.782 19.1857C78.0535 19.3214 78.325 19.5024 78.5513 19.7286C78.325 19.5024 78.0535 19.3667 77.782 19.1857Z" fill="#F7FAFF"/>
<path opacity="0.06" d="M80.2701 23.8915C80.4511 24.4798 80.5416 25.1133 80.5868 25.792C80.5868 25.1585 80.4963 24.525 80.2701 23.8915ZM80.1343 50.1359C80.3153 49.8644 80.4511 49.5476 80.4963 49.2309C80.4511 49.5929 80.3153 49.8644 80.1343 50.1359ZM85.2022 14.2988L83.709 13.439L76.0619 9.04991L74.5235 8.19018L66.9217 3.80104L65.3832 2.94131C64.3425 2.35308 63.3923 2.26258 62.7135 2.66982L54.2972 7.51145C53.6185 7.91869 53.166 8.77842 53.166 9.95489V32.5793C53.166 34.9775 54.8855 37.9639 56.9669 39.1857L58.5054 40.0454L66.1072 44.4345L67.6457 45.2943L75.2475 49.6834L76.7859 50.5431C77.8266 51.1314 78.7769 51.2219 79.4556 50.8146L87.8719 45.9277C88.5506 45.5205 89.0031 44.6608 89.0031 43.4843V20.8599C89.0031 18.5069 87.2837 15.5205 85.2022 14.2988ZM76.7859 19.1857C77.0574 19.3214 77.3289 19.5024 77.5552 19.7286C77.3289 19.5024 77.0574 19.3667 76.7859 19.1857Z" fill="#F0F5FF"/>
<path opacity="0.09" d="M79.2763 23.8915C79.4573 24.4798 79.5478 25.1133 79.593 25.792C79.593 25.1585 79.5025 24.525 79.2763 23.8915ZM79.1405 50.1359C79.3215 49.8644 79.4573 49.5476 79.5025 49.2309C79.4573 49.5929 79.3215 49.8644 79.1405 50.1359ZM84.2084 14.2988L82.6699 13.4391L75.0681 9.04991L73.5297 8.19018L65.8826 3.80104L64.3441 2.94131C63.3034 2.35308 62.3532 2.26258 61.6745 2.66982L53.2582 7.5567C52.5794 7.96394 52.127 8.82367 52.127 10.0001V32.6246C52.127 35.0228 53.8464 38.0092 55.9279 39.2309L57.4663 40.0906L65.0681 44.4798L66.6066 45.3395L74.2084 49.7286L75.7469 50.5884C76.7876 51.1766 77.7378 51.2671 78.4165 50.8599L86.8328 46.0182C87.5116 45.611 87.9641 44.7513 87.9641 43.5748V20.9504C88.0093 18.5069 86.2899 15.5205 84.2084 14.2988ZM75.7921 19.1857C76.0636 19.3214 76.3351 19.5024 76.5613 19.7286C76.2898 19.5024 76.0636 19.3667 75.7921 19.1857Z" fill="#E8F0FF"/>
<path opacity="0.12" d="M78.2799 23.8915C78.4608 24.4798 78.5966 25.1133 78.5966 25.792C78.5966 25.1585 78.4608 24.525 78.2799 23.8915ZM78.1441 50.1359C78.3251 49.8644 78.4608 49.5476 78.5061 49.2309C78.4608 49.5929 78.3251 49.8644 78.1441 50.1359ZM83.212 14.2988L81.6735 13.4391L74.0717 9.04991L72.5332 8.19018L64.9314 3.80104L63.393 2.94131C62.3523 2.35308 61.402 2.26258 60.7233 2.66982L52.307 7.5567C51.6283 7.96394 51.1758 8.82367 51.1758 10.0001V32.6246C51.1758 35.0228 52.8952 38.0092 54.9767 39.2309L56.5151 40.0906L64.117 44.4798L65.6554 45.3395L73.2572 49.7286L74.7957 50.5884C75.8364 51.1766 76.7866 51.2671 77.4654 50.8599L85.8817 45.973C86.5604 45.5657 87.0129 44.706 87.0129 43.5295V20.9051C87.0129 18.5069 85.2934 15.5205 83.212 14.2988ZM74.7957 19.1857C75.0672 19.3214 75.3387 19.5024 75.5649 19.7286C75.2934 19.5024 75.0672 19.3667 74.7957 19.1857ZM76.2437 20.4074C76.6961 20.9051 77.1034 21.4481 77.4654 22.0363C77.1486 21.4481 76.7414 20.9051 76.2437 20.4074Z" fill="#E0EBFF"/>
<path opacity="0.15" d="M77.2841 23.8915C77.4651 24.4798 77.5556 25.1133 77.6008 25.792C77.5556 25.1585 77.4651 24.525 77.2841 23.8915ZM77.1483 50.1359C77.3293 49.8644 77.4651 49.5476 77.5103 49.2309C77.4198 49.5929 77.3293 49.8644 77.1483 50.1359ZM82.171 14.2988L80.6325 13.4391L73.0307 9.04991L71.4922 8.19018L63.8904 3.80104L62.352 2.94131C61.3112 2.35308 60.361 2.26258 59.6823 2.66982L51.266 7.5567C50.5873 7.96394 50.1348 8.82367 50.1348 10.0001V32.6246C50.1348 35.0228 51.8542 38.0092 53.9357 39.2309L55.4741 40.0906L63.0759 44.4798L64.6144 45.3395L72.2162 49.7286L73.7547 50.5884C74.7954 51.1766 75.7456 51.2671 76.4244 50.8599L84.8406 45.973C85.5194 45.5657 85.9719 44.706 85.9719 43.5295V20.9051C86.0171 18.5069 84.2977 15.5205 82.171 14.2988ZM73.7547 19.1857C74.0262 19.3214 74.2977 19.5024 74.5239 19.7286C74.2977 19.5476 74.0262 19.3667 73.7547 19.1857ZM75.2479 20.4074C75.7004 20.9051 76.1529 21.4481 76.4696 22.0363C76.1076 21.4481 75.7004 20.9051 75.2479 20.4074Z" fill="#D8E6FF"/>
<path opacity="0.18" d="M76.288 23.8914C76.469 24.4796 76.5595 25.1131 76.6047 25.7918C76.5595 25.1583 76.469 24.5249 76.288 23.8914ZM76.1522 50.1357C76.3332 49.8642 76.469 49.5475 76.5142 49.2307C76.4237 49.5927 76.288 49.8642 76.1522 50.1357ZM81.1749 14.2986L79.6364 13.4389L72.0346 9.04975L70.4961 8.19002L62.8943 3.75563L61.3559 2.8959C60.3151 2.30767 59.3649 2.21717 58.6862 2.62441L50.2699 7.51129C50.4056 7.42079 50.5866 7.37554 50.7676 7.33029C50.5866 7.37554 50.4509 7.42079 50.2699 7.51129C49.5912 7.91853 49.1387 8.77825 49.1387 9.95473V32.5792C49.1387 34.9774 50.8581 37.9638 52.9396 39.1855L54.478 40.0452L62.0798 44.4344L63.6183 45.2941L71.2201 49.6832L72.7586 50.543C73.7993 51.1312 74.7495 51.2217 75.4283 50.8145L83.8446 45.9276C84.5233 45.5203 84.9758 44.6606 84.9758 43.4841V20.8597C84.9758 18.5068 83.3016 15.5203 81.1749 14.2986ZM52.9396 7.73753C52.4871 7.46604 51.9894 7.28504 51.4916 7.23979C51.9894 7.28504 52.5323 7.46604 52.9396 7.73753ZM72.7586 19.1855C73.0301 19.3212 73.3016 19.5022 73.5278 19.7285C73.3016 19.5022 73.0301 19.3665 72.7586 19.1855Z" fill="#D1E1FF"/>
<path opacity="0.21" d="M75.2489 23.8915C75.4299 24.4798 75.5204 25.1133 75.5657 25.792C75.5657 25.1585 75.4752 24.525 75.2489 23.8915ZM75.1132 50.1359C75.2942 49.8644 75.4299 49.5476 75.4752 49.2309C75.4299 49.5929 75.2942 49.8644 75.1132 50.1359ZM80.1811 14.344L78.6426 13.4843L71.0408 9.04991L69.5023 8.19018L61.8553 3.80104L60.3168 2.94131C59.2761 2.35308 58.3259 2.26258 57.6471 2.66982L49.2308 7.5567C48.5521 7.96394 48.0996 8.82367 48.0996 10.0001V32.6246C48.0996 35.0228 49.8191 38.0092 51.9005 39.2309L53.439 40.0906L61.0408 44.4798L62.5792 45.3395L70.1811 49.7286L71.7195 50.5884C72.7602 51.1766 73.7105 51.2671 74.3892 50.8599L82.8055 45.973C83.4842 45.5657 83.9367 44.706 83.9367 43.5295V20.9051C83.982 18.5069 82.2625 15.5205 80.1811 14.344ZM71.7648 19.1857C72.0363 19.3214 72.3078 19.5024 72.534 19.7286C72.3078 19.5476 72.0363 19.3667 71.7648 19.1857Z" fill="#C9DCFF"/>
<path opacity="0.24" d="M74.2525 23.8915C74.4335 24.4798 74.5693 25.1133 74.5693 25.792C74.5693 25.1585 74.4335 24.525 74.2525 23.8915ZM74.1168 50.1359C74.2978 49.8644 74.4335 49.5476 74.4788 49.2309C74.4335 49.5929 74.2978 49.8644 74.1168 50.1359ZM79.1846 14.344L77.6462 13.4843L70.0444 9.04991L68.5059 8.19018L60.9041 3.80104L59.3656 2.94131C58.3249 2.35308 57.3747 2.26258 56.696 2.66982L48.2797 7.5567C47.6009 7.96394 47.1484 8.82367 47.1484 10.0001V32.6246C47.1484 35.0228 48.8679 38.0092 50.9493 39.2309L52.4878 40.0906L60.0896 44.4798L61.6281 45.3395L69.2299 49.7286L70.7683 50.5884C71.8091 51.1766 72.7593 51.2671 73.438 50.8599L81.8543 45.973C82.533 45.5657 82.9855 44.706 82.9855 43.5295V20.9051C82.9855 18.5069 81.2661 15.5205 79.1846 14.344ZM70.7683 19.1857C70.9946 19.3214 71.2661 19.5024 71.4923 19.6834C71.2661 19.5476 70.9946 19.3667 70.7683 19.1857Z" fill="#C1D7FF"/>
<path opacity="0.27" d="M73.2564 23.8914C73.4374 24.4796 73.5279 25.1131 73.5732 25.7918C73.5279 25.1583 73.4374 24.5249 73.2564 23.8914ZM73.1207 50.1357C73.3017 49.8642 73.4374 49.5475 73.4827 49.2307C73.3922 49.5927 73.3017 49.8642 73.1207 50.1357ZM78.1885 14.2986L76.6501 13.4389L69.0483 9.04975L67.5098 8.19002L59.908 3.80088L58.3695 2.8959C57.3288 2.30767 56.3786 2.21717 55.6999 2.62441L47.2836 7.51129C46.6048 7.91853 46.1523 8.77825 46.1523 9.95473V32.5792C46.1523 34.9774 47.8718 37.9638 49.9532 39.1855L51.4917 40.0452L59.0935 44.4344L60.632 45.2941L68.2338 49.6832L69.7723 50.543C70.813 51.1312 71.7632 51.2217 72.4419 50.8145L80.8582 45.9728C81.537 45.5656 81.9894 44.7059 81.9894 43.5294V20.905C81.9894 18.5068 80.27 15.5203 78.1885 14.2986ZM69.7723 19.1855C70.0437 19.3212 70.3152 19.5022 70.5415 19.7285C70.27 19.5022 69.9985 19.3665 69.7723 19.1855Z" fill="#B9D2FF"/>
<path opacity="0.3" d="M72.2626 23.8915C72.4436 24.4798 72.5341 25.1133 72.5793 25.792C72.5341 25.1585 72.4436 24.525 72.2626 23.8915ZM72.1269 50.1359C72.3078 49.8644 72.4436 49.5476 72.4888 49.2309C72.3983 49.5929 72.2626 49.8644 72.1269 50.1359ZM77.1495 14.2988L75.611 13.4391L68.0092 9.04991L66.516 8.19018L58.8689 3.80104L57.3305 2.94131C56.2898 2.35308 55.3395 2.26258 54.6608 2.66982L46.2445 7.5567C45.5658 7.96394 45.1133 8.82367 45.1133 10.0001V32.6246C45.1133 35.0228 46.8327 38.0092 48.9142 39.2309L50.4526 40.0906L58.0545 44.4798L59.5929 45.3395L67.1947 49.7286L68.7332 50.5884C69.7739 51.1766 70.7241 51.2671 71.4029 50.8599L79.8192 45.973C80.4979 45.5657 80.9504 44.706 80.9504 43.5295V20.9051C80.9956 18.5069 79.2762 15.5205 77.1495 14.2988ZM68.7332 19.1857C69.0047 19.3214 69.2762 19.5024 69.5024 19.7286C69.2762 19.5024 69.0047 19.3667 68.7332 19.1857Z" fill="#B2CDFF"/>
<path opacity="0.33" d="M71.2213 23.8915C71.4023 24.4798 71.4928 25.1133 71.538 25.792C71.538 25.1585 71.4475 24.525 71.2213 23.8915ZM71.0855 50.1359C71.2665 49.8644 71.4023 49.5476 71.4475 49.2309C71.4023 49.5929 71.2665 49.8644 71.0855 50.1359ZM76.1534 14.2988L74.6149 13.439L67.0131 9.04991L65.4747 8.19018L57.8728 3.80104L56.3344 2.94131C55.2937 2.35308 54.3434 2.26258 53.6647 2.66982L45.2484 7.51145C44.5697 7.91869 44.1172 8.77842 44.1172 9.95489V32.5793C44.1172 34.9775 45.8366 37.9639 47.9181 39.1857L49.4566 40.0454L57.0584 44.4345L58.5968 45.2943L66.1986 49.6834L67.7371 50.5431C68.7778 51.1314 69.728 51.2219 70.4068 50.8146L78.8231 45.9277C79.5018 45.5205 79.9543 44.6608 79.9543 43.4843V20.8599C79.9543 18.5069 78.2348 15.5205 76.1534 14.2988ZM67.7371 19.1857C68.0086 19.3214 68.2801 19.5024 68.5063 19.7286C68.2801 19.5024 68.0086 19.3667 67.7371 19.1857Z" fill="#AAC8FF"/>
<path opacity="0.36" d="M70.2255 23.8915C70.4065 24.4798 70.5422 25.1133 70.5422 25.792C70.5422 25.1585 70.4065 24.525 70.2255 23.8915ZM70.0897 50.1359C70.2707 49.8644 70.4065 49.5476 70.4517 49.2309C70.4065 49.5929 70.2707 49.8644 70.0897 50.1359ZM75.1576 14.2988L73.6192 13.439L66.0173 9.04991L64.4789 8.19018L56.8771 3.80104L55.3386 2.94131C54.2979 2.35308 53.3477 2.26258 52.6689 2.66982L44.2074 7.51145C43.5287 7.91869 43.0762 8.77842 43.0762 9.95489V32.5793C43.0762 34.9775 44.7956 37.9639 46.8771 39.1857L48.4155 40.0454L56.0174 44.4345L57.5558 45.2943L65.1576 49.6834L66.6961 50.5431C67.7368 51.1314 68.687 51.2219 69.3658 50.8146L77.7821 45.973C78.4608 45.5657 78.9133 44.706 78.9133 43.5295V20.9051C78.9585 18.5069 77.2391 15.5205 75.1576 14.2988ZM66.7413 19.1857C67.0128 19.3214 67.2843 19.5024 67.5106 19.7286C67.2391 19.5024 67.0128 19.3667 66.7413 19.1857Z" fill="#A2C3FF"/>
<path opacity="0.39" d="M69.2294 23.8915C69.4104 24.4798 69.5009 25.1133 69.5461 25.792C69.5009 25.1585 69.4104 24.525 69.2294 23.8915ZM69.0936 50.1359C69.2746 49.8644 69.4104 49.5476 69.4556 49.2309C69.3651 49.5929 69.2746 49.8644 69.0936 50.1359ZM74.1615 14.2988L72.6231 13.439L65.0213 9.04991L63.4828 8.19018L55.881 3.80104L54.3425 2.94131C53.3018 2.35308 52.3516 2.26258 51.6728 2.66982L43.2113 7.51145C43.347 7.42095 43.528 7.3757 43.709 7.33045C43.528 7.3757 43.3923 7.42095 43.2113 7.51145C42.5326 7.91869 42.0801 8.73317 42.0801 9.95489V32.5793C42.0801 34.9775 43.7995 37.9639 45.881 39.1857L47.4194 40.0454L55.0213 44.4345L56.5597 45.2943L64.1615 49.6834L65.7 50.5431C66.7407 51.1314 67.6909 51.2219 68.3697 50.8146L76.786 45.9277C77.4647 45.5205 77.9172 44.6608 77.9172 43.4843V20.8599C77.9624 18.5069 76.243 15.5205 74.1615 14.2988ZM65.7452 19.1857C66.0167 19.3214 66.2882 19.5024 66.5145 19.7286C66.243 19.5024 65.9715 19.3667 65.7452 19.1857ZM67.1932 20.4074C67.6457 20.9051 68.0529 21.4481 68.4149 22.0363C68.0982 21.4481 67.6457 20.9051 67.1932 20.4074Z" fill="#9BBEFF"/>
<path opacity="0.42" d="M68.2353 23.8915C68.4163 24.4798 68.5067 25.1133 68.552 25.792C68.5067 25.1585 68.4163 24.525 68.2353 23.8915ZM68.0995 50.1359C68.2805 49.8644 68.4163 49.5476 68.4615 49.2309C68.371 49.5929 68.2805 49.8644 68.0995 50.1359ZM73.1221 14.2988L71.5837 13.439L63.9819 9.04991L62.4434 8.19018L54.8416 3.80104L53.3031 2.94131C52.2624 2.35308 51.3122 2.26258 50.6334 2.66982L42.2172 7.51145C41.5384 7.91869 41.0859 8.77842 41.0859 9.95489V32.5793C41.0859 34.9775 42.8054 37.9639 44.8868 39.1857L46.4253 40.0454L54.0271 44.4345L55.5656 45.2943L63.1674 49.6834L64.7058 50.5431C65.7466 51.1314 66.6968 51.2219 67.3755 50.8146L75.7918 45.9277C76.4705 45.5205 76.923 44.6608 76.923 43.4843V20.8599C76.9683 18.5069 75.2488 15.5205 73.1221 14.2988ZM64.7058 19.1857C64.9773 19.3214 65.2488 19.5024 65.4751 19.7286C65.2488 19.5476 64.9773 19.3667 64.7058 19.1857ZM66.1991 20.4074C66.6515 20.9051 67.104 21.4481 67.4208 22.0363C67.0588 21.4481 66.6515 20.9051 66.1991 20.4074Z" fill="#93B9FF"/>
<path opacity="0.45" d="M67.2392 23.8914C67.4202 24.4796 67.5559 25.1131 67.5559 25.7918C67.5107 25.1583 67.4202 24.5249 67.2392 23.8914ZM67.0582 50.1357C67.2392 49.8642 67.3749 49.5475 67.4202 49.2307C67.3749 49.5927 67.2392 49.8642 67.0582 50.1357ZM72.126 14.2986L70.5876 13.4389L62.9858 9.04975L61.4473 8.19002L53.8455 3.75563L52.307 2.8959C51.2663 2.30767 50.3161 2.21717 49.6374 2.62441L41.2211 7.51129C40.5423 7.91853 40.0898 8.77825 40.0898 9.95473V32.5792C40.0898 34.9774 41.8093 37.9638 43.8907 39.1855L45.4292 40.0452L53.031 44.4344L54.5695 45.2941L62.1713 49.6832L63.7098 50.543C64.7505 51.1312 65.7007 51.2217 66.3794 50.8145L74.7957 45.9276C75.4745 45.5203 75.9269 44.6606 75.9269 43.4841V20.8597C75.9269 18.5068 74.2075 15.5203 72.126 14.2986ZM63.7098 19.1855C63.9812 19.3212 64.2527 19.5022 64.479 19.7285C64.2527 19.5022 63.9812 19.3665 63.7098 19.1855Z" fill="#8BB4FF"/>
<path opacity="0.48" d="M66.1981 23.8915C66.3791 24.4798 66.5149 25.1133 66.5149 25.792C66.5149 25.1585 66.4244 24.525 66.1981 23.8915ZM66.0624 50.1359C66.2434 49.8644 66.3791 49.5476 66.4244 49.2309C66.3791 49.5929 66.2434 49.8644 66.0624 50.1359ZM71.1303 14.2988L69.5918 13.439L61.99 9.04991L60.4515 8.19018L52.8045 3.80104L51.266 2.94131C50.2253 2.35308 49.2751 2.26258 48.5963 2.66982L40.18 7.51145C39.5013 7.91869 39.0488 8.77842 39.0488 9.95489V32.5793C39.0488 34.9775 40.7683 37.9639 42.8497 39.1857L44.3882 40.0454L51.99 44.4345L53.5285 45.2943L61.1303 49.6834L62.6687 50.5431C63.7095 51.1314 64.6597 51.2219 65.3384 50.8146L73.7547 45.9277C74.4334 45.5205 74.8859 44.6608 74.8859 43.4843V20.8599C74.9312 18.5069 73.2117 15.5205 71.1303 14.2988ZM62.714 19.1857C62.9855 19.3214 63.257 19.5024 63.4832 19.7286C63.2117 19.5024 62.9855 19.3667 62.714 19.1857Z" fill="#83AFFF"/>
<path opacity="0.52" d="M65.2021 23.8915C65.3831 24.4798 65.4735 25.1133 65.5188 25.792C65.4735 25.1585 65.3831 24.525 65.2021 23.8915ZM65.0663 50.1359C65.2473 49.8644 65.3831 49.5476 65.4283 49.2309C65.3831 49.5929 65.2473 49.8644 65.0663 50.1359ZM70.1342 14.344L68.5957 13.4843L60.9939 9.04991L59.4554 8.19018L51.8536 3.80104L50.3152 2.94131C49.2745 2.35308 48.3242 2.26258 47.6455 2.66982L39.184 7.51145C39.3197 7.42095 39.5007 7.3757 39.6817 7.33045C39.5007 7.3757 39.365 7.42095 39.184 7.51145C38.5052 7.91869 38.0527 8.77842 38.0527 9.95489V32.5793C38.0527 34.9775 39.7722 37.9639 41.8536 39.1857L43.3921 40.0454L50.9939 44.4345L52.5324 45.2943L60.1342 49.6834L61.6726 50.5431C62.7134 51.1314 63.6636 51.2219 64.3423 50.8146L72.7586 45.9277C73.4373 45.5205 73.8898 44.6608 73.8898 43.4843V20.8599C73.9351 18.5069 72.2156 15.5205 70.1342 14.344ZM61.7179 19.1857C61.9441 19.3214 62.2156 19.5024 62.4419 19.6834C62.2156 19.5476 61.9441 19.3667 61.7179 19.1857Z" fill="#7CA9FF"/>
<path opacity="0.55" d="M64.2079 23.8914C64.3889 24.4796 64.5247 25.1131 64.5247 25.7918C64.4794 25.1583 64.3889 24.5249 64.2079 23.8914ZM64.0722 50.1357C64.2532 49.8642 64.3889 49.5475 64.4342 49.2307C64.3437 49.5927 64.2532 49.8642 64.0722 50.1357ZM69.0948 14.2986L67.5563 13.4389L59.9545 9.04975L58.4161 8.19002L50.8142 3.80088L49.321 2.8959C48.2803 2.30767 47.3301 2.21717 46.6514 2.62441L38.1898 7.51129C37.5111 7.91853 37.0586 8.77825 37.0586 9.95473V32.5792C37.0586 34.9774 38.7781 37.9638 40.8595 39.1855L42.398 40.0452L49.9998 44.4344L51.5382 45.2941L59.14 49.6832L60.6785 50.543C61.7192 51.1312 62.6695 51.2217 63.3482 50.8145L71.7645 45.9276C72.4432 45.5203 72.8957 44.6606 72.8957 43.4841V20.8597C72.9409 18.5068 71.2215 15.5203 69.0948 14.2986ZM60.7237 19.1855C60.9952 19.3212 61.2667 19.5022 61.493 19.7285C61.2215 19.5022 60.95 19.3665 60.7237 19.1855Z" fill="#74A4FF"/>
<path opacity="0.58" d="M63.2118 23.8915C63.3928 24.4798 63.4833 25.1133 63.5286 25.792C63.4833 25.1585 63.3928 24.525 63.2118 23.8915ZM63.0761 50.1359C63.2571 49.8644 63.3928 49.5476 63.4381 49.2309C63.3476 49.5929 63.2118 49.8644 63.0761 50.1359ZM68.0987 14.2988L66.5602 13.439L58.9584 9.04991L57.4652 8.19018L49.8182 3.80104L48.2797 2.94131C47.239 2.35308 46.2887 2.26258 45.61 2.66982L37.1937 7.51145C36.515 7.91869 36.0625 8.77842 36.0625 9.95489V32.5793C36.0625 34.9775 37.782 37.9639 39.8634 39.1857L41.4019 40.0454L49.0037 44.4345L50.5421 45.2943L58.1439 49.6834L59.6824 50.5431C60.7231 51.1314 61.6734 51.2219 62.3521 50.8146L70.7684 45.9277C71.4471 45.5205 71.8996 44.6608 71.8996 43.4843V20.8599C71.8996 18.5069 70.1801 15.5205 68.0987 14.2988ZM59.6824 19.1857C59.9539 19.3214 60.2254 19.5024 60.4516 19.7286C60.2254 19.5024 59.9539 19.3667 59.6824 19.1857Z" fill="#6C9FFF"/>
<path opacity="0.61" d="M62.1705 23.8915C62.3515 24.4798 62.4872 25.1133 62.4872 25.792C62.4872 25.1585 62.3967 24.525 62.1705 23.8915ZM62.0347 50.1359C62.2157 49.8644 62.3515 49.5476 62.3967 49.2309C62.3515 49.5929 62.2157 49.8644 62.0347 50.1359ZM67.1026 14.344L65.5641 13.4843L57.9623 9.04991L56.4239 8.19018L48.8221 3.80104L47.2836 2.94131C46.2429 2.35308 45.2926 2.26258 44.6139 2.66982L36.1976 7.51145C35.5189 7.91869 35.0664 8.77842 35.0664 9.95489V32.5793C35.0664 34.9775 36.7859 37.9639 38.8673 39.1857L40.4058 40.0454L48.0076 44.4345L49.546 45.2943L57.1479 49.6834L58.6863 50.5431C59.727 51.1314 60.6773 51.2219 61.356 50.8146L69.7723 45.9277C70.451 45.5205 70.9035 44.6608 70.9035 43.4843V20.8599C70.9035 18.5069 69.1841 15.5205 67.1026 14.344ZM58.6863 19.1857C58.9578 19.3214 59.2293 19.5024 59.4555 19.7286C59.2293 19.5476 58.9578 19.3667 58.6863 19.1857Z" fill="#649AFF"/>
<path opacity="0.64" d="M61.1767 23.8915C61.3577 24.4797 61.4482 25.1132 61.4934 25.792C61.4934 25.1585 61.3577 24.525 61.1767 23.8915ZM61.0409 50.1359C61.2219 49.8644 61.3577 49.5476 61.4029 49.2309C61.3577 49.5929 61.2219 49.8644 61.0409 50.1359ZM66.1088 14.2988L64.5703 13.439L56.9685 9.04988L55.4301 8.19016L47.8282 3.80102L46.2898 2.94129C45.2491 2.26255 44.2988 2.21731 43.6201 2.62455L35.1586 7.51142C34.4798 7.91866 34.0273 8.77839 34.0273 9.95486V32.5793C34.0273 34.9775 35.7468 37.9639 37.8282 39.1856L39.3215 40.0906L46.9233 44.4797L48.4617 45.3395L56.0635 49.7286L57.602 50.5883C58.6427 51.1766 59.593 51.2671 60.2717 50.8598L68.7332 46.0182C69.412 45.611 69.8644 44.7512 69.8644 43.5748V20.9503C69.9097 18.5069 68.1902 15.5205 66.1088 14.2988ZM39.3667 8.64264L37.8282 7.78292C37.3758 7.51142 36.878 7.33043 36.3803 7.28518C36.9233 7.33043 37.421 7.51142 37.8735 7.78292L39.3667 8.64264ZM57.6473 19.1856C57.9187 19.3214 58.1902 19.5024 58.4165 19.7286C58.1902 19.5476 57.9187 19.3666 57.6473 19.1856Z" fill="#5D95FF"/>
<path opacity="0.67" d="M60.1806 23.8915C60.3616 24.4798 60.4973 25.1133 60.4973 25.792C60.4973 25.1585 60.3616 24.525 60.1806 23.8915ZM60.0448 50.1359C60.2258 49.8644 60.3616 49.5476 60.4068 49.2309C60.3163 49.5929 60.2258 49.8644 60.0448 50.1359ZM65.1127 14.2988L63.5742 13.439L55.9724 9.04991L54.434 8.19018L46.8322 3.80104L45.2937 2.94131C44.253 2.35308 43.3027 2.26258 42.624 2.66982L34.1625 7.51145C33.4837 7.91869 33.0312 8.73317 33.0312 9.95489V32.5793C33.0312 34.9775 34.7507 37.9639 36.8322 39.1857L38.3706 40.0454L45.9724 44.4345L47.5109 45.2943L55.1127 49.6834L56.6512 50.5431C57.6919 51.1314 58.6421 51.2219 59.3208 50.8146L67.7824 45.973C68.4611 45.5657 68.9136 44.706 68.9136 43.5295V20.9051C68.9136 18.5069 67.1941 15.5205 65.1127 14.2988ZM56.6964 19.1857C56.9679 19.3214 57.2394 19.5024 57.4656 19.7286C57.1941 19.5024 56.9227 19.3667 56.6964 19.1857ZM58.1444 20.4074C58.5969 20.9051 59.0041 21.4481 59.3661 22.0363C59.0493 21.4481 58.5969 20.9051 58.1444 20.4074Z" fill="#5590FF"/>
<path opacity="0.7" d="M59.1845 23.8915C59.3655 24.4798 59.456 25.1133 59.5012 25.792C59.456 25.1585 59.3655 24.525 59.1845 23.8915ZM59.0487 50.1359C59.2297 49.8644 59.3655 49.5476 59.4107 49.2309C59.3202 49.5929 59.1845 49.8644 59.0487 50.1359ZM64.0714 14.2988L62.5329 13.439L54.9311 9.04991L53.3926 8.19018L45.7908 3.80104L44.2524 2.94131C43.2116 2.35308 42.2614 2.26258 41.5827 2.66982L33.1664 7.51145C32.4876 7.91869 32.0352 8.77842 32.0352 9.95489V32.5793C32.0352 34.9775 33.7546 37.9639 35.8361 39.1857L37.3745 40.0454L44.9763 44.4345L46.5148 45.2943L54.1166 49.6834L55.6551 50.5431C56.6958 51.1314 57.646 51.2219 58.3247 50.8146L66.741 45.9277C67.4198 45.5205 67.8723 44.6608 67.8723 43.4843V20.8599C67.8723 18.5069 66.1981 15.5205 64.0714 14.2988ZM55.6551 19.1857C55.9266 19.3214 56.198 19.5024 56.4243 19.7286C56.198 19.5476 55.9266 19.3667 55.6551 19.1857ZM57.1483 20.4074C57.6008 20.9051 58.0533 21.4481 58.37 22.0363C58.008 21.4481 57.6008 20.9051 57.1483 20.4074Z" fill="#4D8BFF"/>
<path opacity="0.73" d="M58.1431 23.8914C58.3241 24.4796 58.4146 25.1131 58.4599 25.7918C58.4599 25.1583 58.3694 24.5249 58.1431 23.8914ZM58.0074 50.1357C58.1884 49.8642 58.3241 49.5475 58.3694 49.2307C58.3241 49.5927 58.1884 49.8642 58.0074 50.1357ZM63.0753 14.2986L61.5368 13.4389L53.935 9.04975L52.3965 8.19002L44.7947 3.75563L43.2563 2.8959C42.2155 2.30767 41.2653 2.21717 40.5866 2.62441L32.1703 7.51129C31.4916 7.91853 31.0391 8.77825 31.0391 9.95473V32.5792C31.0391 34.9774 32.7585 37.9638 34.84 39.1855L36.3784 40.0452L43.9802 44.4344L45.5187 45.2941L53.1205 49.6832L54.659 50.543C55.6997 51.1312 56.6499 51.2217 57.3287 50.8145L65.7449 45.9276C66.4237 45.5203 66.8762 44.6606 66.8762 43.4841V20.8597C66.8762 18.5068 65.1567 15.5203 63.0753 14.2986ZM54.659 19.1855C54.9305 19.3212 55.202 19.5022 55.4282 19.7285C55.202 19.5022 54.9305 19.3665 54.659 19.1855Z" fill="#4686FF"/>
<path opacity="0.76" d="M57.1493 23.8914C57.3303 24.4796 57.4661 25.1131 57.4661 25.7918C57.4661 25.1583 57.3303 24.5249 57.1493 23.8914ZM57.0136 50.1357C57.1946 49.8642 57.3303 49.5475 57.3756 49.2307C57.3303 49.5927 57.1946 49.8642 57.0136 50.1357ZM62.0814 14.2986L60.543 13.4389L52.9412 9.04975L51.4027 8.19002L43.8009 3.75563L42.2624 2.8959C41.2217 2.30767 40.2715 2.21717 39.5475 2.62441L31.1312 7.51129C30.4525 7.91853 30 8.77825 30 9.95472V32.5792C30 34.9773 31.7195 37.9638 33.8009 39.1855L35.3394 40.0452L42.9864 44.4796L44.5249 45.3393L52.1267 49.7285L53.6652 50.5882C54.7059 51.1764 55.6561 51.2669 56.3348 50.8597L64.7511 45.9728C65.4299 45.5656 65.8824 44.7059 65.8824 43.5294V20.905C65.8824 18.5068 64.1629 15.5203 62.0814 14.2986ZM53.6652 19.1855C53.9366 19.3212 54.2081 19.5022 54.4344 19.7285C54.1629 19.5022 53.9366 19.3665 53.6652 19.1855Z" fill="#3E81FF"/>
<path opacity="0.79" d="M56.1532 23.8914C56.3342 24.4796 56.4247 25.1131 56.47 25.7918C56.4247 25.1583 56.3342 24.5249 56.1532 23.8914ZM56.0175 50.1357C56.1985 49.8642 56.3342 49.5475 56.3795 49.2307C56.289 49.5927 56.1985 49.8642 56.0175 50.1357ZM61.0854 14.3439L59.5469 13.4841L51.9451 9.04975L50.4066 8.19002L42.8048 3.75563L41.2663 2.8959C40.2256 2.30767 39.2754 2.21717 38.5967 2.62441L30.1351 7.51129C29.4564 7.91853 29.0039 8.77825 29.0039 9.95473V32.5792C29.0039 34.9774 30.7234 37.9638 32.8048 39.1855L34.3433 40.0452L41.9451 44.4344L43.4835 45.2941L51.1306 49.6832L52.6691 50.543C53.7098 51.1312 54.66 51.2217 55.3388 50.8145L63.755 45.9276C64.4338 45.5203 64.8863 44.6606 64.8863 43.4841V20.8597C64.8863 18.5068 63.1668 15.5203 61.0854 14.3439ZM32.8501 7.78278C32.3976 7.51129 31.8546 7.33029 31.3568 7.28504C31.8998 7.33029 32.3976 7.51129 32.8501 7.78278ZM52.6691 19.1855C52.8953 19.3212 53.1668 19.5022 53.393 19.6832C53.1668 19.5475 52.8953 19.3665 52.6691 19.1855Z" fill="#367CFF"/>
<path opacity="0.82" d="M55.1571 23.8914C55.3381 24.4796 55.4739 25.1131 55.4739 25.7918C55.4286 25.1583 55.3381 24.5249 55.1571 23.8914ZM55.0214 50.1357C55.2024 49.8642 55.3381 49.5475 55.3834 49.2307C55.2929 49.5927 55.2024 49.8642 55.0214 50.1357ZM60.044 14.2986L58.5055 13.4389L50.9037 9.04975L49.3653 8.19002L41.7635 3.75563L40.2703 2.8959C39.2295 2.30767 38.2341 2.21717 37.5553 2.62441L29.139 7.51129C28.4603 7.91853 28.0078 8.77825 28.0078 9.95473V32.5792C28.0078 34.9774 29.7273 37.9638 31.8087 39.1855L33.3472 40.0452L40.949 44.4344L42.4874 45.2941L50.0893 49.6832L51.6277 50.543C52.6684 51.1312 53.6187 51.2217 54.2974 50.8145L62.7137 45.9276C63.3924 45.5203 63.8449 44.6606 63.8449 43.4841V20.8597C63.8902 18.5068 62.1707 15.5203 60.044 14.2986ZM51.6277 19.1855C51.8992 19.3212 52.1707 19.5022 52.397 19.7285C52.1707 19.5022 51.8992 19.3665 51.6277 19.1855Z" fill="#2E77FF"/>
<path opacity="0.85" d="M54.163 23.8914C54.344 24.4796 54.4797 25.1131 54.4797 25.7918C54.4345 25.1583 54.344 24.5249 54.163 23.8914ZM53.982 50.1357C54.163 49.8642 54.2987 49.5475 54.344 49.2307C54.2987 49.5927 54.163 49.8642 53.982 50.1357ZM59.0499 14.2986L57.5114 13.4389L49.9096 9.04975L48.3711 8.19002L40.7693 3.75563L39.2309 2.8959C38.1901 2.30767 37.2399 2.21717 36.5612 2.62441L28.1449 7.51129C28.2806 7.42079 28.4616 7.37554 28.5974 7.33029C28.4164 7.37554 28.2806 7.42079 28.1449 7.51129C27.4662 7.91853 27.0137 8.77825 27.0137 9.95473V32.5792C27.0137 34.9774 28.7331 37.9638 30.8146 39.1855L32.353 40.0452L39.9548 44.4344L41.4933 45.2941L49.0951 49.6832L50.6336 50.543C51.6743 51.1312 52.6245 51.2217 53.3033 50.8145L61.7196 45.9276C62.3983 45.5203 62.8508 44.6606 62.8508 43.4841V20.8597C62.8508 18.5068 61.1313 15.5203 59.0499 14.2986ZM50.6336 19.1855C50.9051 19.3212 51.1766 19.5022 51.4028 19.7285C51.1766 19.5022 50.9051 19.3665 50.6336 19.1855Z" fill="#2772FF"/>
<path opacity="0.88" d="M53.1216 23.8914C53.3026 24.4796 53.3931 25.1131 53.4384 25.7918C53.4384 25.1583 53.3479 24.5249 53.1216 23.8914ZM52.9859 50.1357C53.1669 49.8642 53.3026 49.5475 53.3479 49.2307C53.3026 49.5927 53.1669 49.8642 52.9859 50.1357ZM58.0538 14.2986L56.5153 13.4389L48.9135 9.04975L47.375 8.19002L39.7732 3.75563L38.2348 2.8959C37.194 2.30767 36.2438 2.21717 35.5651 2.62441L27.1488 7.51129C27.2845 7.42079 27.4655 7.37554 27.6013 7.33029C27.4203 7.37554 27.2845 7.42079 27.1488 7.51129C26.4701 7.91853 26.0176 8.77825 26.0176 9.95473V32.5792C26.0176 34.9774 27.737 37.9638 29.8185 39.1855L31.3569 40.0452L38.9588 44.4344L40.4972 45.2941L48.099 49.6832L49.6375 50.543C50.6782 51.1312 51.6284 51.2217 52.3072 50.8145L60.7235 45.9276C61.4022 45.5203 61.8547 44.6606 61.8547 43.4841V20.8597C61.8547 18.5068 60.1352 15.5203 58.0538 14.2986ZM49.6375 19.1855C49.909 19.3212 50.1805 19.5022 50.4067 19.7285C50.1352 19.5022 49.909 19.3665 49.6375 19.1855Z" fill="#1F6DFF"/>
<path opacity="0.91" d="M52.1259 23.8914C52.3069 24.4796 52.4426 25.1131 52.4426 25.7918C52.4426 25.1583 52.3069 24.5249 52.1259 23.8914ZM51.9901 50.1357C52.1711 49.8642 52.3069 49.5475 52.3521 49.2307C52.3069 49.5927 52.1711 49.8642 51.9901 50.1357ZM57.058 14.2986L55.5195 13.4389L47.9177 9.04975L46.3793 8.19002L38.7775 3.75563L37.239 2.8959C36.1983 2.30767 35.2481 2.21717 34.5241 2.62441L26.1078 7.51129C25.4291 7.91853 24.9766 8.77825 24.9766 9.95472V32.5792C24.9766 34.9773 26.696 37.9638 28.7775 39.1855L30.2707 40.0905L37.8725 44.4796L39.411 45.3393L47.0128 49.7285L48.5512 50.5882C49.5919 51.1764 50.5422 51.2669 51.2209 50.8597L59.6372 46.0181C60.3159 45.6108 60.7684 44.7511 60.7684 43.5746V20.9502C60.8589 18.5068 59.1395 15.5203 57.058 14.2986ZM30.3159 8.64251L28.7775 7.78278C28.325 7.51129 27.8272 7.33029 27.3295 7.28504C27.8725 7.33029 28.3702 7.51129 28.8227 7.78278L30.3159 8.64251ZM48.5965 19.1855C48.868 19.3212 49.1395 19.5022 49.3657 19.7285C49.1395 19.5475 48.868 19.3665 48.5965 19.1855Z" fill="#1768FF"/>
<path opacity="0.94" d="M51.1298 23.8914C51.3108 24.4796 51.4013 25.1131 51.4465 25.7918C51.4013 25.1583 51.3108 24.5249 51.1298 23.8914ZM50.994 50.1357C51.175 49.8642 51.3108 49.5475 51.356 49.2307C51.2655 49.5927 51.175 49.8642 50.994 50.1357ZM56.0619 14.2986L54.5235 13.4389L46.8764 9.04975L45.3379 8.19002L37.7361 3.75563L36.1977 2.8959C35.1569 2.30767 34.2067 2.21717 33.528 2.62441L25.1117 7.51129C24.433 7.91853 23.9805 8.73301 23.9805 9.95472V32.5792C23.9805 34.9773 25.6999 37.9638 27.7814 39.1855L29.3198 40.0452L36.9216 44.4344L38.4601 45.3393L46.0619 49.7285L47.6004 50.5882C48.6411 51.1764 49.5913 51.2669 50.2701 50.8597L58.6863 45.9728C59.3651 45.5656 59.8176 44.7059 59.8176 43.5294V20.905C59.8628 18.5068 58.1434 15.5203 56.0619 14.2986ZM47.6456 19.1855C47.9171 19.3212 48.1886 19.5022 48.4149 19.7285C48.1434 19.5022 47.8719 19.3665 47.6456 19.1855ZM49.0936 20.4072C49.5461 20.905 49.9533 21.4479 50.3153 22.0362C49.9986 21.4479 49.5461 20.905 49.0936 20.4072Z" fill="#0F63FF"/>
<path opacity="0.97" d="M50.1356 23.8914C50.3166 24.4796 50.4524 25.1131 50.4524 25.7918C50.4071 25.1583 50.3166 24.5249 50.1356 23.8914ZM49.9999 50.1357C50.1809 49.8642 50.3166 49.5475 50.3619 49.2307C50.2714 49.5927 50.1356 49.8642 49.9999 50.1357ZM55.0225 14.2986L53.4841 13.4389L45.8823 9.04975L44.3438 8.19002L36.742 3.75563L35.2035 2.8959C34.1628 2.30767 33.2126 2.21717 32.5338 2.62441L24.1175 7.51129C24.2533 7.42079 24.4343 7.37554 24.57 7.33029C24.389 7.37554 24.2533 7.42079 24.1175 7.51129C23.4388 7.91853 22.9863 8.77825 22.9863 9.95473V32.5792C22.9863 34.9774 24.7058 37.9638 26.7872 39.1855L28.3257 40.0452L35.9275 44.4344L37.466 45.2941L45.0678 49.6832L46.6062 50.543C47.647 51.1312 48.5972 51.2217 49.2759 50.8145L57.6922 45.9276C58.3709 45.5203 58.8234 44.6606 58.8234 43.4841V20.8597C58.8234 18.5068 57.1492 15.5203 55.0225 14.2986ZM46.6062 19.1855C46.8777 19.3212 47.1492 19.5022 47.3755 19.7285C47.1492 19.5475 46.8777 19.3665 46.6062 19.1855Z" fill="#085EFF"/>
<path d="M49.0943 23.8914C49.2753 24.4796 49.411 25.1131 49.411 25.7918C49.411 25.1583 49.3206 24.5249 49.0943 23.8914ZM48.9586 50.1357C49.1396 49.8642 49.2753 49.5475 49.3206 49.2307C49.2753 49.5927 49.1396 49.8642 48.9586 50.1357ZM54.0264 14.3439L52.488 13.4841L44.8862 9.04975L43.3477 8.19002L35.7459 3.75563L34.2074 2.8959C33.1667 2.30767 32.2165 2.21717 31.5377 2.62441L23.1215 7.51129C23.2572 7.42079 23.4382 7.37554 23.5739 7.33029C23.3929 7.37554 23.2572 7.42079 23.1215 7.51129C22.4427 7.91853 21.9902 8.77825 21.9902 9.95473V32.5792C21.9902 34.9774 23.7097 37.9638 25.7911 39.1855L27.3296 40.0452L34.9314 44.4344L36.4699 45.2941L44.0717 49.6832L45.6101 50.543C46.6509 51.1312 47.6011 51.2217 48.2798 50.8145L56.6961 45.9276C57.3748 45.5203 57.8273 44.6606 57.8273 43.4841V20.8597C57.8273 18.5068 56.1079 15.5203 54.0264 14.3439ZM45.6101 19.1855C45.8816 19.3212 46.1531 19.5022 46.3794 19.7285C46.1079 19.5475 45.8816 19.3665 45.6101 19.1855Z" fill="#0059FF"/>
</g>
<path d="M49.6385 23.4385C41.1769 26.2439 30.6339 26.2439 22.1271 23.4385C21.2674 25.8367 18.643 27.2846 16.2448 27.1941L16.1543 49.5018C27.014 55.7462 44.5706 55.7462 55.3398 49.5018C60.6792 46.3797 63.3941 42.3073 63.3941 38.2349L63.4394 23.4385H49.6385Z" fill="#4C5C75"/>
<path d="M54.9775 1.5835C65.611 7.73734 65.6562 17.6468 55.1132 23.7554C44.5702 29.864 27.3757 29.9545 16.7422 23.8007L54.9775 1.5835Z" fill="#C9CEE2"/>
<path d="M66.3797 12.8506L66.3344 17.6922C66.3344 22.2623 63.3027 26.8325 57.2846 30.3619C45.1579 37.4207 25.4747 37.4207 13.3027 30.3619L13.348 25.475C25.5199 32.5338 45.2484 32.4886 57.3299 25.475C63.348 21.9909 66.3797 17.4207 66.3797 12.8506Z" fill="#BF7D5A"/>
<path d="M57.1938 0C69.3658 7.05882 69.4563 18.4615 57.3296 25.4751C45.2029 32.4887 25.5196 32.5339 13.3477 25.4751L57.1938 0Z" fill="#DBA660"/>
<path d="M64.3433 12.8052C64.3433 13.1672 64.3433 13.4839 64.2981 13.8459C64.2528 14.1627 64.2076 14.4341 64.1171 14.7509C63.3478 18.0541 60.6329 21.2215 56.3343 23.7102C50.7687 26.9681 43.3478 28.7328 35.384 28.7328C30.1352 28.778 24.8863 27.9183 19.9542 26.2441L19.7279 26.1536C19.0039 25.9274 18.3252 25.6559 17.6465 25.3391L57.194 2.39795C61.8094 5.33913 64.2981 9.00428 64.3433 12.8052Z" fill="#BF7D5A"/>
<path d="M64.2534 13.8009C64.2082 14.1177 64.1629 14.3892 64.0724 14.7059C63.3484 18.0091 60.6335 21.1765 56.2896 23.6652C50.724 26.9231 43.3032 28.6878 35.3394 28.6878C30.1358 28.7783 24.8869 27.9186 19.9548 26.2444L19.7285 26.1539L57.1946 4.38916C61.4027 7.05884 63.8914 10.362 64.2534 13.8009Z" fill="#78E75A"/>
<path d="M44.6145 16.018L51.2209 19.8642C51.7186 20.1357 52.3068 20.1357 52.7593 19.8642L57.1032 17.3755C57.4652 17.1493 57.6009 16.6968 57.42 16.3348C57.3295 16.199 57.239 16.1085 57.1032 16.018L50.4969 12.1719C49.9991 11.9004 49.4109 11.9004 48.9584 12.1719L44.6145 14.6606C44.2525 14.8868 44.1168 15.3393 44.343 15.7013C44.3883 15.837 44.4788 15.9275 44.6145 16.018Z" fill="white"/>
<path d="M33.3938 22.4887L40.0002 26.3349C40.4979 26.6064 41.0861 26.6064 41.5386 26.3349L45.8825 23.8462C46.2445 23.62 46.3802 23.1675 46.1992 22.8055C46.1088 22.6697 46.0183 22.5792 45.8825 22.4887L39.2762 18.6426C38.7784 18.3711 38.1902 18.3711 37.7377 18.6426L33.3938 21.1313C33.0318 21.3575 32.8961 21.81 33.1223 22.2172C33.1676 22.3077 33.2581 22.3982 33.3938 22.4887Z" fill="white"/>
<path d="M48.8675 15.7015C48.777 15.7468 48.6865 15.8373 48.596 15.9278C48.3698 16.1993 48.4603 16.4708 48.8222 16.697C49.0485 16.8328 49.3652 16.9233 49.6367 16.9233H52.6232C52.6232 16.7423 52.6232 16.516 52.6232 16.335C52.6232 15.973 52.6232 15.611 52.6232 15.249C52.6232 14.8871 52.0802 14.5703 51.4014 14.5703C51.0847 14.5703 50.8132 14.6156 50.5417 14.7966C50.3607 14.8871 50.225 15.068 50.1797 15.2943C50.1797 15.3848 50.1797 15.4753 50.1797 15.611H49.682C49.4105 15.5205 49.139 15.5658 48.8675 15.7015Z" fill="#E93565"/>
<path d="M37.6914 21.3574V22.8054C37.6914 22.8506 37.6914 22.9411 37.6914 22.9864C37.7367 23.3484 38.2344 23.6199 38.8679 23.6199C39.1394 23.6199 39.4109 23.5746 39.6824 23.4389C39.8633 23.3484 39.9991 23.1674 40.0443 22.9864C40.0443 22.9411 40.0443 22.8959 40.0443 22.8506C40.3158 22.9864 40.4968 23.2579 40.6326 23.5746L41.5376 23.0769C41.1303 23.0316 40.6778 22.9411 40.3158 22.7601V22.7149H40.4968C40.7683 22.7149 41.0851 22.6696 41.3566 22.5339C41.5376 22.4434 41.6733 22.2624 41.6733 22.0814C41.6733 21.7194 41.1756 21.4027 40.4968 21.4027L37.6914 21.3574Z" fill="#4C5C75"/>
<path d="M30.7242 29.7283C28.3713 29.7283 26.4256 31.6288 26.4256 34.027C26.4256 31.674 24.5251 29.7283 22.127 29.7283C24.4799 29.7283 26.4256 27.8279 26.4256 25.4297C26.3803 27.7826 28.326 29.6831 30.7242 29.7283C30.679 29.7283 30.679 29.7283 30.7242 29.7283Z" fill="white"/>
</g>
<defs>
<linearGradient id="paint0_linear_3161_30" x1="0" y1="56.8647" x2="79.81" y2="56.8647" gradientUnits="userSpaceOnUse">
<stop stop-color="#00AAFF"/>
<stop offset="0.04" stop-color="#00A9FF"/>
<stop offset="0.35" stop-color="#00A6FF"/>
<stop offset="0.54" stop-color="#0086DD"/>
<stop offset="0.74" stop-color="#0066BA"/>
<stop offset="1" stop-color="#0041AD"/>
</linearGradient>
<clipPath id="clip0_3161_30">
<rect width="80" height="72.2172" fill="white"/>
</clipPath>
</defs>
</svg>
