<svg width="80" height="75" viewBox="0 0 80 75" fill="none" xmlns="http://www.w3.org/2000/svg">
<g clip-path="url(#clip0_3161_468)">
<path d="M66.5747 35.6785C48.9195 25.5635 30.7126 25.5635 13.2414 35.6785C4.41379 40.644 0 45.9773 0 51.1268C0 56.2762 4.41379 61.4256 13.2414 66.575C30.8966 76.69 49.1034 76.69 66.5747 66.575C75.4023 61.4256 79.8161 56.2762 79.8161 51.1268C79.8161 45.9773 75.4023 40.644 66.5747 35.6785Z" fill="#949494"/>
<path d="M66.5747 58.8506C48.9195 68.9656 30.7126 68.9656 13.2414 58.8506C4.41379 53.7012 0 48.5518 0 43.4023V51.1265C0 56.2759 4.41379 61.4253 13.2414 66.5748C30.8966 76.6897 49.1034 76.6897 66.5747 66.5748C75.4023 61.4253 79.8161 56.2759 79.8161 51.1265V43.4023C79.8161 48.5518 75.4023 53.7012 66.5747 58.8506Z" fill="url(#paint0_linear_3161_468)"/>
<path d="M66.5747 27.9544C48.9195 17.8394 30.7126 17.8394 13.2414 27.9544C4.41379 33.1038 0 38.2532 0 43.4026C0 48.5521 4.41379 53.7015 13.2414 58.8509C30.8966 68.9659 49.1034 68.9659 66.5747 58.8509C75.4023 53.7015 79.8161 48.5521 79.8161 43.4026C79.8161 38.2532 75.4023 33.1038 66.5747 27.9544Z" fill="#FFDB32"/>
<mask id="mask0_3161_468" style="mask-type:luminance" maskUnits="userSpaceOnUse" x="0" y="20" width="80" height="47">
<path d="M66.5747 27.9544C48.9195 17.8394 30.7126 17.8394 13.2414 27.9544C4.41379 33.1038 0 38.2532 0 43.4026C0 48.5521 4.41379 53.7015 13.2414 58.8509C30.8966 68.9659 49.1034 68.9659 66.5747 58.8509C75.4023 53.7015 79.8161 48.5521 79.8161 43.4026C79.8161 38.2532 75.4023 33.1038 66.5747 27.9544Z" fill="white"/>
</mask>
<g mask="url(#mask0_3161_468)">
<path opacity="0.03" d="M89.011 21.1499C88.6432 20.966 88.2753 20.7821 87.7236 20.966C88.0914 20.7821 88.6432 20.7821 89.011 21.1499L62.7121 5.88558L60.6891 4.78213C59.7696 4.41431 58.6661 4.41431 57.9305 5.14995C55.5397 6.62121 54.0684 9.19592 54.0684 11.9545V34.943C53.8845 36.0465 54.4363 36.966 55.3558 37.5178L83.4937 53.8856C84.4133 54.2534 85.5167 54.2534 86.2524 53.7017C88.6432 52.2304 90.1144 49.6557 90.2983 46.8971V23.7247C90.2983 22.6212 89.7466 21.7017 89.011 21.1499Z" fill="#FFFDFA"/>
<path opacity="0.06" d="M87.9075 21.1499C87.5397 20.966 87.1719 20.7821 86.6202 20.966C87.1719 20.7821 87.5397 20.7821 87.9075 21.1499L61.7926 5.88558L59.7696 4.78213C58.8501 4.41431 57.7466 4.41431 57.011 5.14995C54.6202 6.62121 53.1489 9.19592 53.1489 11.9545V34.943C52.965 35.8626 53.5167 36.966 54.2524 37.5178L82.3903 53.8856C83.3098 54.2534 84.4133 54.2534 85.1489 53.7017C87.5397 52.2304 89.011 49.6557 89.1949 46.8971V23.7247C89.1949 22.6212 88.8271 21.7017 87.9075 21.1499Z" fill="#FFFBF4"/>
<path opacity="0.09" d="M86.9896 21.1499C86.6218 20.966 86.2539 20.7821 85.7022 20.966C86.07 20.7821 86.6218 20.7821 86.9896 21.1499L60.6907 5.88558L58.8516 4.78213C57.9321 4.41431 56.8287 4.41431 56.093 5.14995C53.7022 6.62121 52.231 9.19592 52.231 11.9545V34.943C52.047 35.8626 52.5988 36.966 53.3344 37.5178L81.4723 53.8856C82.3919 54.2534 83.4953 54.2534 84.231 53.7017C86.6218 52.2304 88.093 49.6557 88.2769 46.8971V23.7247C88.2769 22.6212 87.9091 21.7017 86.9896 21.1499Z" fill="#FFFAEF"/>
<path opacity="0.12" d="M85.8861 21.1499C85.5182 20.966 85.1504 20.7821 84.5987 20.966C85.1504 20.7821 85.5182 20.7821 85.8861 21.1499L59.7711 5.88558L57.7481 4.78213C56.8286 4.41431 55.7251 4.41431 54.9895 5.14995C52.5987 6.62121 51.1274 9.19592 51.1274 11.9545V34.943C50.9435 35.8626 51.4953 36.966 52.2309 37.5178L80.3688 53.8856C81.2884 54.2534 82.3918 54.2534 83.1274 53.7017C85.5182 52.2304 86.9895 49.6557 87.1734 46.8971V23.7247C87.1734 22.6212 86.8056 21.7017 85.8861 21.1499Z" fill="#FFF8E9"/>
<path opacity="0.15" d="M84.9665 21.1499C84.5986 20.966 84.2308 20.7821 83.6791 20.966C84.0469 20.7821 84.5986 20.7821 84.9665 21.1499L58.8515 5.88558L56.8285 4.78213C55.909 4.41431 54.8055 4.41431 54.0699 5.14995C51.6791 6.62121 50.2078 9.19592 50.0239 11.9545V34.943C49.84 35.8626 50.3917 36.966 51.1274 37.5178L79.2653 53.8856C80.1848 54.2534 81.2883 54.2534 82.0239 53.7017C84.4147 52.2304 85.886 49.6557 86.0699 46.8971V23.7247C86.2538 22.6212 85.7021 21.7017 84.9665 21.1499Z" fill="#FFF6E4"/>
<path opacity="0.18" d="M84.0465 21.1499C83.6787 20.966 83.3109 20.7821 82.7592 20.966C83.127 20.7821 83.4948 20.7821 84.0465 21.1499L57.7477 5.88558L55.7247 4.78213C54.8052 4.41431 53.7017 4.41431 52.9661 5.14995C50.5753 6.62121 49.104 9.19592 49.104 11.9545V34.943C48.9201 35.8626 49.4718 36.966 50.2074 37.5178L78.3454 53.8856C79.2649 54.2534 80.3684 54.2534 81.104 53.7017C83.4948 52.2304 84.9661 49.6557 85.15 46.8971V23.7247C85.15 22.6212 84.7822 21.7017 84.0465 21.1499Z" fill="#FEF4DE"/>
<path opacity="0.21" d="M82.943 21.1499C82.5752 20.966 82.2074 20.7821 81.6557 20.966C82.2074 20.7821 82.5752 20.7821 82.943 21.1499L56.8281 5.88558L54.8051 4.78213C53.8855 4.41431 52.7821 4.41431 52.0465 5.14995C49.6557 6.62121 48.1844 9.19592 48.0005 11.9545V34.943C47.8166 35.8626 48.3683 36.966 49.1039 37.5178L77.2419 53.8856C78.1614 54.2534 79.2649 54.2534 80.0005 53.7017C82.3913 52.2304 83.8626 49.6557 84.0465 46.8971V23.7247C84.2304 22.6212 83.6786 21.7017 82.943 21.1499Z" fill="#FEF2D9"/>
<path opacity="0.24" d="M81.8392 21.1499C81.4714 20.966 81.1036 20.7821 80.5518 20.966C81.1036 20.7821 81.4714 20.7821 81.8392 21.1499L55.7242 5.88558L53.7013 4.78213C52.7817 4.41431 51.6783 4.41431 50.9426 5.14995C48.5518 6.62121 47.0806 9.19592 47.0806 11.9545V34.943C46.8967 35.8626 47.4484 36.966 48.184 37.5178L76.3219 53.8856C77.2415 54.2534 78.161 54.2534 79.0806 53.7017C81.4714 52.2304 82.9426 49.6557 83.1265 46.8971V23.7247C83.1265 22.6212 82.7587 21.7017 81.8392 21.1499Z" fill="#FEF0D4"/>
<path opacity="0.27" d="M80.9196 21.1499C80.5518 20.966 80.1839 20.7821 79.6322 20.966C80.1839 20.7821 80.5518 20.7821 80.9196 21.1499L54.8046 5.88558L52.7816 4.78213C51.8621 4.41431 50.7587 4.41431 50.023 5.14995C47.6322 6.62121 46.161 9.19592 45.9771 11.9545V34.943C45.7931 35.8626 46.3449 36.966 47.0805 37.5178L75.4023 53.8856C76.3219 54.2534 77.4253 54.2534 78.161 53.7017C80.5518 52.2304 82.023 49.6557 82.2069 46.8971V23.7247C82.2069 22.6212 81.8391 21.7017 80.9196 21.1499Z" fill="#FEEFCE"/>
<path opacity="0.3" d="M79.9997 21.1499C79.6318 20.966 79.264 20.7821 78.7123 20.966C79.0801 20.7821 79.6318 20.7821 79.9997 21.1499L53.7008 5.88558L51.6778 4.78213C50.7583 4.41431 49.6548 4.41431 48.9192 5.14995C46.5284 6.62121 45.0571 9.19592 45.0571 11.9545V34.943C44.8732 35.8626 45.4249 36.966 46.1606 37.5178L74.2985 53.8856C75.2181 54.2534 76.3215 54.2534 77.0571 53.7017C79.4479 52.2304 80.9192 49.6557 81.1031 46.8971V23.7247C81.1031 22.6212 80.7353 21.7017 79.9997 21.1499Z" fill="#FEEDC9"/>
<path opacity="0.33" d="M78.8961 21.1499C78.5283 20.966 78.1605 20.7821 77.6088 20.966C78.1605 20.7821 78.5283 20.7821 78.8961 21.1499L52.7812 5.88558L50.7582 4.78213C49.8387 4.41431 48.7352 4.41431 47.9996 5.14995C45.6088 6.62121 44.1375 9.19592 43.9536 11.9545V34.943C43.7697 35.8626 44.3214 36.966 45.0571 37.5178L73.195 53.8856C74.1145 54.2534 75.218 54.2534 75.9536 53.7017C78.3444 52.2304 79.8157 49.6557 79.9996 46.8971V23.7247C80.1835 22.6212 79.8157 21.7017 78.8961 21.1499Z" fill="#FEEBC3"/>
<path opacity="0.36" d="M77.9778 21.1499C77.61 20.966 77.2421 20.7821 76.6904 20.966C77.0582 20.7821 77.61 20.7821 77.9778 21.1499L51.6789 5.88558L49.6559 4.78213C48.7364 4.41431 47.6329 4.41431 46.8973 5.14995C44.5065 6.62121 43.0352 9.19592 43.0352 11.9545V34.943C42.8513 36.0465 43.4031 36.966 44.3226 37.5178L72.4605 53.8856C73.3801 54.2534 74.4835 54.2534 75.2191 53.7017C77.61 52.2304 79.0812 49.6557 79.2651 46.8971V23.7247C79.2651 22.6212 78.7134 21.7017 77.9778 21.1499Z" fill="#FEE9BE"/>
<path opacity="0.39" d="M76.8743 21.1499C76.5065 20.966 76.1387 20.7821 75.587 20.966C76.1387 20.7821 76.5065 20.7821 76.8743 21.1499L50.7594 5.88558L48.7364 4.78213C47.8169 4.41431 46.8973 4.41431 45.9778 5.14995C43.587 6.62121 42.1157 9.19592 42.1157 11.9545V34.943C41.9318 35.8626 42.4835 36.966 43.2192 37.5178L71.3571 53.8856C72.2766 54.2534 73.3801 54.2534 74.1157 53.7017C76.5065 52.2304 77.9778 49.6557 78.1617 46.8971V23.7247C78.1617 22.6212 77.7939 21.7017 76.8743 21.1499Z" fill="#FEE7B8"/>
<path opacity="0.42" d="M75.9547 21.1499C75.5869 20.966 75.2191 20.7821 74.6674 20.966C75.0352 20.7821 75.5869 20.7821 75.9547 21.1499L49.6559 5.88558L47.6329 4.78213C46.7134 4.41431 45.6099 4.41431 44.8743 5.14995C42.4835 6.62121 41.0122 9.19592 41.0122 11.9545V34.943C40.8283 35.8626 41.38 36.966 42.1157 37.5178L70.2536 53.8856C71.1731 54.2534 72.2766 54.2534 73.0122 53.7017C75.403 52.2304 76.8743 49.6557 77.0582 46.8971V23.7247C77.0582 22.6212 76.6904 21.7017 75.9547 21.1499Z" fill="#FEE6B3"/>
<path opacity="0.45" d="M74.8509 21.1499C74.4831 20.966 74.1153 20.7821 73.5635 20.966C74.1153 20.7821 74.4831 20.7821 74.8509 21.1499L48.736 5.88558L46.713 4.78213C45.7934 4.41431 44.69 4.41431 43.9544 5.14995C41.5635 6.62121 40.0923 9.19592 40.0923 11.9545V34.943C39.9084 35.8626 40.4601 36.966 41.1957 37.5178L69.3337 53.8856C70.2532 54.2534 71.3567 54.2534 72.0923 53.7017C74.4831 52.2304 75.9544 49.6557 76.1383 46.8971V23.7247C76.1383 22.6212 75.7704 21.7017 74.8509 21.1499Z" fill="#FEE4AE"/>
<path opacity="0.48" d="M73.9313 21.1499C73.5635 20.966 73.1957 20.7821 72.6439 20.966C73.0118 20.7821 73.5635 20.7821 73.9313 21.1499L47.6324 5.88558L45.6095 4.78213C44.6899 4.41431 43.5865 4.41431 42.8508 5.14995C40.46 6.62121 38.9888 9.19592 38.9888 11.9545V34.943C38.8049 35.8626 39.3566 36.966 40.0922 37.5178L68.2301 53.8856C69.1497 54.2534 70.2531 54.2534 70.9888 53.7017C73.3796 52.2304 74.8508 49.6557 75.0347 46.8971V23.7247C75.2187 22.6212 74.6669 21.7017 73.9313 21.1499Z" fill="#FEE2A8"/>
<path opacity="0.52" d="M72.8275 21.1499C72.4596 20.966 72.0918 20.7821 71.5401 20.966C72.0918 20.7821 72.4596 20.7821 72.8275 21.1499L46.7125 5.88558L44.6895 4.78213C43.77 4.41431 42.6665 4.41431 41.9309 5.14995C39.5401 6.62121 38.0688 9.19592 38.0688 11.9545V34.943C37.8849 35.8626 38.4367 36.966 39.1723 37.5178L67.3102 53.8856C68.2298 54.2534 69.3332 54.2534 70.0688 53.7017C72.4596 52.2304 73.9309 49.6557 74.1148 46.8971V23.7247C74.1148 22.6212 73.747 21.7017 72.8275 21.1499Z" fill="#FDE0A3"/>
<path opacity="0.55" d="M71.9079 21.1499C71.54 20.966 71.1722 20.7821 70.6205 20.966C70.9883 20.7821 71.54 20.7821 71.9079 21.1499L45.7929 5.88558L43.7699 4.78213C42.8504 4.41431 41.7469 4.41431 41.0113 5.14995C38.6205 6.62121 37.1492 9.19592 36.9653 11.9545V34.943C36.7814 35.8626 37.3331 36.966 38.0688 37.5178L66.2067 53.8856C67.1263 54.2534 68.2297 54.2534 68.9653 53.7017C71.3561 52.2304 72.8274 49.6557 73.0113 46.8971V23.7247C73.1952 22.6212 72.6435 21.7017 71.9079 21.1499Z" fill="#FDDE9D"/>
<path opacity="0.58" d="M70.804 21.1499C70.4362 20.966 70.0684 20.7821 69.5167 20.966C70.0684 20.7821 70.4362 20.7821 70.804 21.1499L44.6891 5.88558L42.6661 4.78213C41.7466 4.41431 40.6431 4.41431 39.9075 5.14995C37.5167 6.62121 36.0454 9.19592 36.0454 11.9545V34.943C35.8615 35.8626 36.4132 36.966 37.1489 37.5178L65.2868 53.8856C66.2063 54.2534 67.3098 54.2534 68.0454 53.5178C70.4362 52.0465 71.9075 49.4718 72.0914 46.7132V23.7247C72.0914 22.6212 71.7236 21.7017 70.804 21.1499Z" fill="#FDDC98"/>
<path opacity="0.61" d="M69.8844 21.1499C69.5166 20.966 69.1488 20.7821 68.5971 20.966C69.1488 20.7821 69.5166 20.7821 69.8844 21.1499L43.7695 5.88558L41.7465 4.78213C40.827 4.41431 39.7235 4.41431 38.9879 5.14995C36.5971 6.62121 35.1258 9.19592 34.9419 11.9545V34.943C34.758 35.8626 35.3097 36.966 36.0453 37.5178L64.3672 53.8856C65.2867 54.2534 66.3902 54.2534 67.1258 53.7017C69.5166 52.2304 70.9879 49.6557 71.1718 46.8971V23.7247C71.1718 22.6212 70.804 21.7017 69.8844 21.1499Z" fill="#FDDB93"/>
<path opacity="0.64" d="M68.7825 21.1499C68.4147 20.966 68.0469 20.7821 67.4952 20.966C68.0469 20.7821 68.4147 20.7821 68.7825 21.1499L42.6676 5.88558L40.6446 4.78213C39.7251 4.41431 38.6216 4.41431 37.886 5.14995C35.4952 6.62121 34.0239 9.19592 34.0239 11.9545V34.943C33.84 35.8626 34.3917 36.966 35.1274 37.5178L63.2653 53.8856C64.1848 54.2534 65.2883 54.2534 66.0239 53.7017C68.4147 52.2304 69.886 49.6557 70.0699 46.8971V23.7247C70.0699 22.6212 69.7021 21.7017 68.7825 21.1499Z" fill="#FDD98D"/>
<path opacity="0.67" d="M67.8629 21.1499C67.4951 20.966 67.1273 20.7821 66.5756 20.966C67.1273 20.7821 67.4951 20.7821 67.8629 21.1499L41.748 5.88558L39.725 4.78213C38.8055 4.41431 37.702 4.41431 36.7825 5.14995C34.5756 6.62121 33.1043 9.19592 32.9204 11.9545V34.943C32.7365 35.8626 33.2882 36.966 34.0239 37.5178L62.1618 53.8856C63.0813 54.2534 64.1848 54.2534 64.9204 53.7017C67.3112 52.2304 68.7825 49.6557 68.9664 46.8971V23.7247C69.1503 22.6212 68.5986 21.7017 67.8629 21.1499Z" fill="#FDD788"/>
<path opacity="0.7" d="M66.7587 21.1499C66.3909 20.966 66.0231 20.7821 65.4713 20.966C66.0231 20.7821 66.3909 20.7821 66.7587 21.1499L40.6438 5.88558L38.6208 4.78213C37.7012 4.41431 36.5978 4.41431 35.8622 5.14995C33.4713 6.62121 32.0001 9.19592 32.0001 11.9545V34.943C31.8162 36.0465 32.3679 36.966 33.2874 37.5178L61.4254 53.8856C62.3449 54.2534 63.4484 54.2534 64.184 53.7017C66.5748 52.2304 68.0461 49.6557 68.23 46.8971V23.7247C68.23 22.6212 67.6782 21.7017 66.7587 21.1499Z" fill="#FDD582"/>
<path opacity="0.73" d="M65.8392 21.1499C65.4714 20.966 65.1036 20.7821 64.5518 20.966C65.1036 20.7821 65.4714 20.7821 65.8392 21.1499L39.7242 5.88558L37.7013 4.78213C36.7817 4.41431 35.8622 4.41431 34.9426 5.14995C32.5518 6.62121 31.0806 9.19592 31.0806 11.9545V34.943C30.8967 35.8626 31.4484 36.966 32.184 37.5178L60.3219 53.8856C61.2415 54.2534 62.3449 54.2534 63.0806 53.7017C65.4714 52.2304 66.9426 49.6557 67.1265 46.8971V23.7247C67.1265 22.6212 66.7587 21.7017 65.8392 21.1499Z" fill="#FDD37D"/>
<path opacity="0.76" d="M64.9196 21.1499C64.5518 20.966 64.1839 20.7821 63.6322 20.966C64 20.7821 64.5518 20.7821 64.9196 21.1499L38.6207 5.88558L36.5977 4.78213C35.6782 4.41431 34.5748 4.41431 33.8391 5.14995C31.4483 6.62121 29.9771 9.19592 29.9771 11.9545V34.943C29.7931 35.8626 30.3449 36.966 31.0805 37.5178L59.2184 53.8856C60.138 54.2534 61.2414 54.2534 61.9771 53.7017C64.3679 52.2304 65.8391 49.6557 66.023 46.8971V23.7247C66.023 22.6212 65.6552 21.7017 64.9196 21.1499Z" fill="#FDD277"/>
<path opacity="0.79" d="M63.8158 21.1499C63.4479 20.966 63.0801 20.7821 62.5284 20.966C63.0801 20.7821 63.4479 20.7821 63.8158 21.1499L37.7008 5.88558L35.6778 4.78213C34.7583 4.41431 33.6548 4.41431 32.9192 5.14995C30.5284 6.62121 29.0571 9.19592 29.0571 11.9545V34.943C28.8732 35.8626 29.4249 36.966 30.1606 37.5178L58.2985 53.8856C59.218 54.2534 60.3215 54.2534 61.0571 53.7017C63.4479 52.2304 64.9192 49.6557 65.1031 46.8971V23.7247C65.1031 22.6212 64.7353 21.7017 63.8158 21.1499Z" fill="#FDD072"/>
<path opacity="0.82" d="M62.8961 21.1499C62.5283 20.966 62.1605 20.7821 61.6088 20.966C61.9766 20.7821 62.5283 20.7821 62.8961 21.1499L36.5973 5.88558L34.5743 4.78213C33.6548 4.41431 32.5513 4.41431 31.8157 5.14995C29.4249 6.62121 27.9536 9.19592 27.9536 11.9545V34.943C27.7697 35.8626 28.3214 36.966 29.0571 37.5178L57.195 53.8856C58.1145 54.2534 59.218 54.2534 59.9536 53.7017C62.3444 52.2304 63.8157 49.6557 63.9996 46.8971V23.7247C63.9996 22.6212 63.6318 21.7017 62.8961 21.1499Z" fill="#FDCE6D"/>
<path opacity="0.85" d="M61.7943 21.1499C61.4264 20.966 61.0586 20.7821 60.5069 20.966C61.0586 20.7821 61.4264 20.7821 61.7943 21.1499L35.6793 5.88558L33.6563 4.78213C32.7368 4.41431 31.6333 4.41431 30.8977 5.14995C28.5069 6.62121 27.0356 9.19592 27.0356 11.9545V34.943C26.8517 35.8626 27.4035 36.966 28.1391 37.5178L56.277 53.8856C57.1966 54.2534 58.3 54.2534 59.0356 53.7017C61.4264 52.2304 62.8977 49.6557 63.0816 46.8971V23.7247C63.0816 22.6212 62.7138 21.7017 61.7943 21.1499Z" fill="#FCCC67"/>
<path opacity="0.88" d="M60.8747 21.1499C60.5068 20.966 60.139 20.7821 59.5873 20.966C59.9551 20.7821 60.5068 20.7821 60.8747 21.1499L34.5758 5.88558L32.5528 4.78213C31.6333 4.41431 30.5298 4.41431 29.7942 5.14995C27.5873 6.62121 26.116 9.19592 25.9321 11.9545V34.943C25.7482 35.8626 26.2999 36.966 27.0356 37.5178L55.1735 53.8856C56.093 54.2534 57.1965 54.2534 57.9321 53.7017C60.3229 52.2304 61.7942 49.6557 61.7942 46.8971V23.7247C61.9781 22.6212 61.6103 21.7017 60.8747 21.1499Z" fill="#FCCA62"/>
<path opacity="0.91" d="M59.7708 21.1499C59.403 20.966 59.0352 20.7821 58.4835 20.966C59.0352 20.7821 59.403 20.7821 59.7708 21.1499L33.6559 5.88558L31.6329 4.78213C30.7134 4.41431 29.6099 4.41431 28.8743 5.14995C26.4835 6.62121 25.0122 9.19592 25.0122 11.9545V34.943C24.8283 35.8626 25.38 36.966 26.1157 37.5178L54.2536 53.8856C55.1731 54.2534 56.2766 54.2534 57.0122 53.7017C59.403 52.2304 60.8743 49.6557 61.0582 46.8971V23.7247C61.0582 22.6212 60.6904 21.7017 59.7708 21.1499Z" fill="#FCC85C"/>
<path opacity="0.94" d="M58.8512 21.1499C58.4834 20.966 58.1156 20.7821 57.5639 20.966C58.1156 20.7821 58.4834 20.7821 58.8512 21.1499L32.5524 5.88558L30.5294 4.78213C29.6098 4.41431 28.5064 4.41431 27.7708 5.14995C25.5639 6.62121 24.0926 9.19592 23.9087 11.9545V34.943C23.7248 35.8626 24.2765 36.966 25.0121 37.5178L53.334 53.8856C54.2535 54.2534 55.357 54.2534 56.0926 53.7017C58.4834 52.2304 59.9547 49.6557 59.9547 46.8971V23.7247C60.1386 22.6212 59.5869 21.7017 58.8512 21.1499Z" fill="#FCC757"/>
<path opacity="0.97" d="M57.7474 21.1499C57.3796 20.966 57.0118 20.7821 56.46 20.966C57.0118 20.7821 57.3796 20.7821 57.7474 21.1499L31.6324 5.88558L29.6095 4.78213C28.6899 4.41431 27.5865 4.41431 26.8508 5.14995C24.46 6.62121 22.9888 9.19592 22.9888 11.9545V34.943C22.8049 35.8626 23.3566 36.966 24.0922 37.5178L52.2301 53.8856C53.1497 54.2534 54.2531 54.2534 54.9888 53.7017C57.3796 52.2304 58.8508 49.6557 58.8508 46.8971V23.7247C59.0347 22.6212 58.6669 21.7017 57.7474 21.1499Z" fill="#FCC551"/>
<path d="M56.8278 21.1499C56.46 20.966 56.0922 20.7821 55.5404 20.966C55.9082 20.7821 56.46 20.7821 56.8278 21.1499L30.5289 5.88558L28.5059 4.78213C27.5864 4.41431 26.483 4.41431 25.7473 5.14995C23.3565 6.62121 21.8853 9.19592 21.8853 11.9545V34.943C21.7013 35.8626 22.2531 36.966 22.9887 37.5178L51.1266 53.8856C52.0462 54.2534 53.1496 54.2534 53.8853 53.7017C56.2761 52.2304 57.7473 49.6557 57.7473 46.8971V23.7247C57.9312 22.6212 57.5634 21.7017 56.8278 21.1499Z" fill="#FCC34C"/>
</g>
<path d="M58.1157 19.8623C55.3571 21.7014 53.518 24.6439 53.3341 27.9543V55.1727C53.1502 56.2761 53.7019 57.5635 54.6214 58.1152C55.7249 58.6669 57.0122 58.483 57.9318 57.7474C60.6904 55.9083 62.3456 52.9658 62.5295 49.6554V22.621C62.7134 21.5175 62.1617 20.2302 61.2421 19.6784C60.1387 19.1267 59.0352 19.1267 58.1157 19.8623Z" fill="#E6E6E6"/>
<path d="M30.3439 1.6553L27.953 0.184035C27.0335 -0.183781 25.7462 0.000127431 24.6427 0.551852C21.8841 2.39093 20.2289 5.33346 20.045 8.64381V36.0461C19.8611 37.1496 20.4128 38.4369 21.3324 38.9886L54.6197 58.299C53.5163 57.5633 52.9645 56.4599 53.1484 55.1725V27.9542C53.3324 24.6438 54.9875 21.7013 57.7461 19.8622C58.6657 19.1266 59.953 19.1266 61.0565 19.4944L30.3439 1.6553Z" fill="url(#paint1_linear_3161_468)"/>
<path d="M48.1841 39.1727L41.0117 34.9428V33.8394L48.1841 37.8853V39.1727Z" fill="#A3A3A3"/>
<path d="M48.1841 38.4371L41.0117 34.3911V33.8394L48.1841 37.8853V38.4371Z" fill="#C4C4C4"/>
<path d="M48.1841 42.2992L41.0117 38.0693V36.9658L48.1841 41.1957V42.2992Z" fill="#A3A3A3"/>
<path d="M48.1841 41.5635L41.0117 37.5175V36.9658L48.1841 41.0118V41.5635Z" fill="#C4C4C4"/>
<path d="M48.1841 45.4256L41.0117 41.1957V40.0923L48.1841 44.3222V45.4256Z" fill="#A3A3A3"/>
<path d="M48.1841 44.8739L41.0117 40.644V40.0923L48.1841 44.1383V44.8739Z" fill="#C4C4C4"/>
<path d="M48.1841 48.5521L41.0117 44.3222V43.2188L48.1841 47.4486V48.5521Z" fill="#A3A3A3"/>
<path d="M48.1841 47.8165L41.0117 43.7705V43.2188L48.1841 47.4486V47.8165Z" fill="#C4C4C4"/>
<path d="M25.3789 24.644V25.0119V27.9544V28.3222V28.5061V29.0578V31.0808V31.6326V32.1843L32.5513 36.4142V35.6785V35.3107V35.1268V33.1038V32.5521V32.1843V32.0004V29.0578V28.8739L25.3789 24.644Z" fill="#A3A3A3"/>
<path d="M25.9316 25.5635V25.7474V28.3221V28.6899V29.2416V30.8968V31.4485V32.0003L32.0006 35.4945V34.9428V34.575V32.7359V32.3681V32.1842V31.8163V29.2416L25.9316 25.5635Z" fill="#C4C4C4"/>
<path d="M32.5513 39.5404L25.3789 35.3105V34.207L32.5513 38.4369V39.5404Z" fill="#A3A3A3"/>
<path d="M32.5513 38.8047L25.3789 34.7588V34.207L32.5513 38.4369V38.8047Z" fill="#C4C4C4"/>
<path d="M40.4598 34.575L33.1035 30.3451V29.2417L40.4598 33.4716V34.575Z" fill="#A3A3A3"/>
<path d="M40.4598 34.0233L33.1035 29.7934V29.2417L40.4598 33.4716V34.0233Z" fill="#C4C4C4"/>
<path d="M40.4598 37.7015L33.1035 33.4716V32.3682L40.4598 36.598V37.7015Z" fill="#A3A3A3"/>
<path d="M40.4598 37.1498L33.1035 32.9199V32.3682L40.4598 36.598V37.1498Z" fill="#C4C4C4"/>
<path d="M40.4598 40.8275L33.1035 36.5976V35.4941L40.4598 39.724V40.8275Z" fill="#A3A3A3"/>
<path d="M40.4598 40.2758L33.1035 36.0459V35.4941L40.4598 39.724V40.2758Z" fill="#C4C4C4"/>
<path d="M40.4598 43.9539L33.1035 39.7241V38.6206L40.4598 42.8505V43.9539Z" fill="#A3A3A3"/>
<path d="M40.4598 43.4022L33.1035 39.1723V38.6206L40.4598 42.8505V43.4022Z" fill="#C4C4C4"/>
<path d="M27.5862 17.1035V24.8276L26.2988 23.9081V13.4253L28.1379 14.5287L29.6092 21.7012V15.2644L30.8965 16V26.6667L29.4253 25.7471L27.5862 17.1035Z" fill="#4F4F4F"/>
<path d="M33.2874 21.8851L35.3103 22.9885V24.4598L33.2874 23.3564V26.4828L35.8621 27.9541V29.4253L32 27.2184V16.5518L35.8621 18.7587V20.2299L33.2874 18.7587V21.8851Z" fill="#4F4F4F"/>
<path d="M39.9086 26.115L39.3569 31.4483L37.3339 30.3449L36.2305 19.1265L37.7017 19.8621L38.4374 28.6897L39.173 20.7816L40.6443 21.5173L41.3799 30.3449L42.1155 22.4368L43.4029 23.1724L42.2994 33.1035L40.4604 32L39.9086 26.115Z" fill="#4F4F4F"/>
<path d="M45.9767 24.6437C47.2641 25.3794 48.1836 26.8506 47.9997 28.5058V28.8736L46.7124 28.138V27.5863C46.7124 27.0345 46.5285 26.4828 45.9767 26.115C45.425 25.9311 45.2411 25.9311 45.2411 26.6667C45.2411 28.8736 47.9997 30.8966 47.9997 33.8391C47.9997 35.4943 47.2641 36.046 45.7928 35.3104C44.3216 34.5748 43.5859 32.9196 43.5859 31.4483V30.8966L44.8733 31.6323V32.3679C44.8733 32.9196 45.0572 33.4713 45.6089 33.8391C46.1606 34.0231 46.3446 34.0231 46.3446 33.2874C46.3446 31.0805 43.5859 29.0575 43.5859 26.115C43.9538 24.4598 44.6894 23.7242 45.9767 24.6437Z" fill="#4F4F4F"/>
</g>
<defs>
<linearGradient id="paint0_linear_3161_468" x1="0" y1="58.7287" x2="79.7434" y2="58.7287" gradientUnits="userSpaceOnUse">
<stop stop-color="#FFED44"/>
<stop offset="0.07" stop-color="#FFF047"/>
<stop offset="0.3" stop-color="#FFF24A"/>
<stop offset="0.55" stop-color="#FFE23A"/>
<stop offset="0.74" stop-color="#FFDC34"/>
<stop offset="1" stop-color="#F9B519"/>
</linearGradient>
<linearGradient id="paint1_linear_3161_468" x1="30.5478" y1="44.2815" x2="48.9559" y2="12.3939" gradientUnits="userSpaceOnUse">
<stop stop-color="white"/>
<stop offset="0.58" stop-color="#FDFDFD"/>
<stop offset="0.79" stop-color="#F6F6F6"/>
<stop offset="0.94" stop-color="#EBEBEB"/>
<stop offset="1" stop-color="#E3E3E3"/>
</linearGradient>
<clipPath id="clip0_3161_468">
<rect width="80" height="74.1149" fill="white"/>
</clipPath>
</defs>
</svg>
