<svg width="81" height="75" viewBox="0 0 81 75" fill="none" xmlns="http://www.w3.org/2000/svg">
<g clip-path="url(#clip0_3165_909)">
<g style="mix-blend-mode:multiply">
<path d="M67.2619 35.9602C49.6111 25.7698 31.3934 25.7698 13.7472 35.9602C4.9127 41.0577 0.5 46.2323 0.5 51.4115C0.5 56.5906 4.9127 61.7652 13.7381 66.8627C31.3889 77.0532 49.6066 77.0532 67.2528 66.8627C76.0782 61.7652 80.4909 56.5906 80.4909 51.4115C80.4909 46.2323 76.0873 41.0577 67.2619 35.9602Z" fill="#949494"/>
</g>
<path d="M67.2619 59.1529C49.6111 69.3434 31.3934 69.3434 13.7472 59.1529C4.9127 54.0554 0.5 48.8763 0.5 43.7017V51.4114C0.5 56.5905 4.9127 61.7652 13.7381 66.8627C31.3889 77.0531 49.6066 77.0531 67.2528 66.8627C76.0782 61.7652 80.4909 56.5905 80.4909 51.4114V43.7017C80.5 48.8763 76.0873 54.0554 67.2619 59.1529Z" fill="url(#paint0_linear_3165_909)"/>
<path d="M67.2619 28.2503C49.6111 18.0598 31.3934 18.0598 13.7472 28.2503C4.9127 33.3478 0.5 38.5224 0.5 43.7015C0.5 48.8807 4.9127 54.0553 13.7381 59.1528C31.3889 69.3433 49.6066 69.3433 67.2528 59.1528C76.0782 54.0553 80.4909 48.8807 80.4909 43.7015C80.4909 38.5224 76.0873 33.3478 67.2619 28.2503Z" fill="#37384F"/>
<path opacity="0.12" d="M52.6537 38.8808C52.8397 38.6904 52.8442 38.4818 52.6537 38.3593L48.7535 36.0917C48.9394 35.9013 48.944 35.6926 48.7535 35.5702L43.9145 32.7584L44.0959 32.6496L36.8487 28.45C36.6873 28.3701 36.5057 28.3401 36.3272 28.3638H36.2954C35.9644 28.3956 33.1208 28.6813 32.9712 28.6768C32.7072 28.6721 32.4469 28.7395 32.2183 28.8718L9.60156 41.738L12.0914 43.1847C11.5922 43.3804 11.1059 43.6076 10.6356 43.865C9.81018 44.3593 9.6197 44.8083 10.1186 45.0985C10.6174 45.3888 11.7331 45.4795 13.1843 45.348C13.8555 45.2845 14.5675 45.1802 15.2796 45.0396L16.8895 45.9784C16.3903 46.174 15.9041 46.4012 15.4338 46.6586C14.6084 47.153 14.4179 47.6019 14.9168 47.8922C15.4156 48.1824 16.5313 48.2731 17.9825 48.1416C18.6537 48.0781 19.3657 47.9738 20.0778 47.8332L21.6877 48.772C21.1885 48.9676 20.7023 49.1948 20.2319 49.4523C19.4066 49.9466 19.2161 50.3956 19.7149 50.6858C20.2138 50.9761 21.3295 51.0668 22.7807 50.9353C23.4519 50.8718 24.1639 50.7675 24.8759 50.6269L26.4859 51.5657C25.9867 51.7613 25.5005 51.9885 25.0301 52.2459C24.2047 52.7403 24.0143 53.1892 24.5131 53.4795C25.012 53.7697 26.1276 53.8604 27.5789 53.7289C28.2501 53.6654 28.9621 53.5611 29.6741 53.4205L32.0233 54.7811L35.5199 54.4591L56.309 42.0237L56.5222 41.8967C56.8805 41.6836 56.9485 41.3843 56.6809 41.2301L52.6537 38.8808ZM13.3884 44.4908C13.068 44.5539 12.7383 44.5539 12.4179 44.4908C12.3453 44.45 12.3861 44.3276 12.7263 44.1235C12.8929 44.033 13.0657 43.9542 13.2433 43.8877L14.1503 44.4092C13.8873 44.4228 13.6514 44.4591 13.3884 44.4908ZM18.1866 47.2754C17.8662 47.3385 17.5365 47.3385 17.2161 47.2754C17.1435 47.2346 17.1843 47.1121 17.5245 46.9081C17.6911 46.8175 17.8639 46.7387 18.0415 46.6722L18.9485 47.1938C18.6855 47.2119 18.4315 47.2527 18.1866 47.2754ZM22.9848 50.0691C22.6644 50.1321 22.3347 50.1321 22.0143 50.0691C21.9417 50.0282 21.9825 49.9058 22.3227 49.7017C22.4893 49.6112 22.6621 49.5324 22.8397 49.4659L23.7467 49.9874C23.4882 50.0101 23.2297 50.0418 22.9893 50.0645L22.9848 50.0691ZM27.783 52.8627C27.4625 52.9258 27.1329 52.9258 26.8124 52.8627C26.7399 52.8219 26.7807 52.6994 27.1208 52.4954C27.2875 52.4048 27.4602 52.326 27.6378 52.2595L28.5449 52.7811C28.2864 52.7992 28.0279 52.8355 27.7875 52.8582L27.783 52.8627Z" fill="black"/>
<path d="M55.2168 44.0917L58.9628 41.9285C59.1834 41.7852 59.367 41.5917 59.4987 41.3639C59.6303 41.1362 59.7062 40.8805 59.7202 40.6178V28.9126L55.2168 31.5112V44.0917Z" fill="#FFD600"/>
<path d="M55.7246 35.7333L59.457 33.5701C59.682 33.427 59.8694 33.2321 60.0035 33.0017C60.1376 32.7713 60.2146 32.5121 60.228 32.2458V20.5542L55.7246 23.1528V35.7333Z" fill="#FF9200"/>
<path d="M56.2324 27.6152L59.9785 25.4428C60.1991 25.2995 60.3827 25.1061 60.5143 24.8783C60.6459 24.6505 60.7218 24.3949 60.7358 24.1322V12.436L56.2324 15.0347V27.6152Z" fill="#FF6A00"/>
<path d="M57.8562 0.604076L32.0059 15.5156V54.7809L34.3415 56.1415L56.3505 40.722V16.146C56.3645 15.8833 56.4405 15.6277 56.5721 15.3999C56.7037 15.1721 56.8873 14.9787 57.1079 14.8354L58.5864 13.9828L60.736 1.90566C60.736 1.90566 58.5501 0.72199 58.482 0.626752C58.4007 0.543226 58.2902 0.494267 58.1737 0.490044C58.0571 0.485821 57.9434 0.52666 57.8562 0.604076Z" fill="#006AA9"/>
<path d="M60.1921 1.95095L34.3418 16.8625V56.1278L58.691 42.0689V17.4974C58.706 17.2339 58.7833 16.9777 58.9165 16.7499C59.0498 16.5221 59.2352 16.3291 59.4574 16.1868L60.9359 15.3342V2.39086C60.9495 1.9056 60.6094 1.71059 60.1921 1.95095Z" fill="#0089CE"/>
<path d="M52.0785 30.6178C51.9016 30.45 51.5978 30.5089 51.3166 30.7765C50.5456 31.5021 49.2485 32.9806 48.6363 33.6926C46.2735 33.357 44.1012 30.137 44.1012 26.9352C44.6862 26.1824 45.9152 24.586 46.5138 23.62C46.6184 23.4769 46.6898 23.3123 46.7227 23.1381C46.7557 22.964 46.7494 22.7847 46.7043 22.6132L44.5683 17.5838C44.5401 17.5082 44.487 17.4445 44.4177 17.4033C44.3484 17.3621 44.2672 17.3457 44.1873 17.357C43.9732 17.3956 43.78 17.5099 43.6431 17.679C43.4753 17.8604 39.5207 22.1915 38.9266 26.9398C38.0195 34.3366 42.464 40.9987 48.1148 40.6178C48.626 40.5782 49.1279 40.4589 49.6023 40.264C52.6182 39.0667 55.3166 35.3298 55.4254 35.1711C55.5754 34.9663 55.6734 34.7282 55.7111 34.4772C55.7311 34.3853 55.7296 34.29 55.7068 34.1988C55.684 34.1075 55.6405 34.0228 55.5796 33.9511L52.0785 30.6178Z" fill="white"/>
<path d="M36.5671 28.3003C35.8823 27.9601 34.8937 29.4567 35.5014 29.874C36.1091 30.2912 36.0456 30.3275 36.0456 30.4681C36.0456 30.6086 35.905 30.8309 35.5014 31.0622C34.8763 31.3668 34.19 31.5252 33.4946 31.5252C32.7992 31.5252 32.1129 31.3668 31.4878 31.0622C31.0841 30.8309 30.9436 30.6086 30.9436 30.4681C30.9436 30.3275 31.0841 30.1098 31.4878 29.874C31.657 29.7851 31.8368 29.7181 32.0229 29.6744V27.5928C31.4985 27.727 30.9905 27.9186 30.5082 28.1642C30.0768 28.3743 29.7087 28.6947 29.4411 29.0929C29.1735 29.4911 29.0159 29.953 28.9844 30.4318C29.0159 30.9105 29.1735 31.3724 29.4411 31.7707C29.7087 32.1689 30.0768 32.4893 30.5082 32.6993C31.4316 33.1758 32.4555 33.4244 33.4946 33.4244C34.5336 33.4244 35.5576 33.1758 36.481 32.6993C36.9123 32.4893 37.2805 32.1689 37.5481 31.7707C37.8157 31.3724 37.9732 30.9105 38.0048 30.4318C38.0041 29.9738 37.867 29.5265 37.6109 29.1468C37.3549 28.7672 36.9915 28.4724 36.5671 28.3003Z" fill="#C7C7C7"/>
<path d="M36.5688 36.9213C35.884 36.5812 34.8953 38.0778 35.5031 38.495C36.1108 38.9123 36.0473 38.9486 36.0473 39.0891C36.0473 39.2297 35.9067 39.452 35.5031 39.6833C34.8779 39.9879 34.1917 40.1463 33.4963 40.1463C32.8008 40.1463 32.1146 39.9879 31.4895 39.6833C31.0858 39.452 30.9452 39.2297 30.9452 39.0891C30.9452 38.9486 31.0858 38.7309 31.4895 38.495C31.6587 38.4062 31.8385 38.3392 32.0246 38.2955V36.2139C31.5004 36.3466 30.9924 36.5367 30.5099 36.7808C30.0576 36.969 29.6711 37.287 29.3993 37.6946C29.1275 38.1022 28.9824 38.5811 28.9824 39.071C28.9824 39.5609 29.1275 40.0399 29.3993 40.4474C29.6711 40.855 30.0576 41.173 30.5099 41.3613C31.4332 41.8377 32.4572 42.0864 33.4963 42.0864C34.5353 42.0864 35.5593 41.8377 36.4826 41.3613C36.914 41.1512 37.2822 40.8308 37.5498 40.4326C37.8174 40.0343 37.9749 39.5724 38.0065 39.0937C38.014 38.6288 37.8807 38.1725 37.6241 37.7848C37.3676 37.3971 36.9997 37.0961 36.5688 36.9213Z" fill="#C7C7C7"/>
<path d="M36.5688 45.5429C35.884 45.2028 34.8953 46.6994 35.5031 47.1166C36.1108 47.5339 36.0473 47.5701 36.0473 47.7107C36.0473 47.8513 35.9067 48.069 35.5031 48.3048C34.8779 48.6095 34.1917 48.7678 33.4963 48.7678C32.8008 48.7678 32.1146 48.6095 31.4895 48.3048C31.0858 48.0735 30.9452 47.8513 30.9452 47.7107C30.9452 47.5701 31.0858 47.3479 31.4895 47.1166C31.6587 47.0278 31.8385 46.9608 32.0246 46.9171V44.8354C31.5006 44.9667 30.9926 45.1553 30.5099 45.3978C30.0576 45.5861 29.6711 45.904 29.3993 46.3116C29.1275 46.7192 28.9824 47.1981 28.9824 47.6881C28.9824 48.178 29.1275 48.6569 29.3993 49.0645C29.6711 49.4721 30.0576 49.79 30.5099 49.9783C31.4332 50.4548 32.4572 50.7034 33.4963 50.7034C34.5353 50.7034 35.5593 50.4548 36.4826 49.9783C36.914 49.7682 37.2822 49.4478 37.5498 49.0496C37.8174 48.6514 37.9749 48.1895 38.0065 47.7107C38.0131 47.2466 37.8794 46.7913 37.6228 46.4045C37.3663 46.0177 36.9989 45.7174 36.5688 45.5429Z" fill="#C7C7C7"/>
<path d="M36.5671 19.6787C35.8823 19.3385 34.8937 20.8351 35.5014 21.2524C36.1091 21.6696 36.0456 21.7059 36.0456 21.8465C36.0456 21.9871 35.905 22.2048 35.5014 22.4406C34.8763 22.7453 34.19 22.9036 33.4946 22.9036C32.7992 22.9036 32.1129 22.7453 31.4878 22.4406C31.0841 22.2093 30.9436 21.9871 30.9436 21.8465C30.9436 21.7059 31.0841 21.4882 31.4878 21.2524C31.657 21.1636 31.8368 21.0965 32.0229 21.0528V18.9712C31.4984 19.1068 30.9904 19.3 30.5082 19.5472C30.0768 19.7572 29.7087 20.0776 29.4411 20.4758C29.1735 20.8741 29.0159 21.336 28.9844 21.8147C29.0159 22.2935 29.1735 22.7554 29.4411 23.1536C29.7087 23.5518 30.0768 23.8722 30.5082 24.0823C31.4316 24.5588 32.4555 24.8074 33.4946 24.8074C34.5336 24.8074 35.5576 24.5588 36.481 24.0823C36.9123 23.8722 37.2805 23.5518 37.5481 23.1536C37.8157 22.7554 37.9732 22.2935 38.0048 21.8147C38.005 21.356 37.8683 20.9077 37.6122 20.5271C37.3561 20.1466 36.9922 19.8511 36.5671 19.6787Z" fill="#C7C7C7"/>
</g>
<defs>
<linearGradient id="paint0_linear_3165_909" x1="0.5" y1="59.103" x2="80.5" y2="59.103" gradientUnits="userSpaceOnUse">
<stop stop-color="#545770"/>
<stop offset="0.1" stop-color="#50536B"/>
<stop offset="0.3" stop-color="#4E5168"/>
<stop offset="0.38" stop-color="#464960"/>
<stop offset="0.59" stop-color="#353850"/>
<stop offset="0.74" stop-color="#2F324A"/>
<stop offset="1" stop-color="#20233D"/>
</linearGradient>
<clipPath id="clip0_3165_909">
<rect width="80" height="74.0045" fill="white" transform="translate(0.5 0.5)"/>
</clipPath>
</defs>
</svg>
