<svg width="81" height="71" viewBox="0 0 81 71" fill="none" xmlns="http://www.w3.org/2000/svg">
<g clip-path="url(#clip0_3165_2780)">
<path d="M67.2952 31.6286C49.6435 21.4187 31.4019 21.4187 13.7501 31.6286C4.90159 36.7108 0.5 41.8838 0.5 47.0568C0.5 52.2298 4.90159 57.4028 13.7501 62.5305C31.4019 72.7403 49.6435 72.7403 67.2952 62.5305C76.1438 57.4482 80.5454 52.2298 80.5454 47.0568C80.5454 41.8838 76.1438 36.7108 67.2952 31.6286Z" fill="#949494"/>
<path d="M67.2952 54.8164C49.6435 65.0263 31.4019 65.0263 13.7501 54.8164C4.90159 49.7342 0.5 44.5612 0.5 39.3428V47.0569C0.5 52.2299 4.90159 57.4029 13.7501 62.5305C31.4019 72.7404 49.6435 72.7404 67.2952 62.5305C76.1438 57.4483 80.5454 52.2299 80.5454 47.0569V39.3428C80.5454 44.5612 76.1438 49.7342 67.2952 54.8164Z" fill="url(#paint0_linear_3165_2780)"/>
<path d="M67.2952 23.9147C49.6435 13.7049 31.4019 13.7049 13.7501 23.9147C4.90159 28.997 0.5 34.17 0.5 39.343C0.5 44.516 4.90159 49.689 13.7501 54.8166C31.4019 65.0265 49.6435 65.0265 67.2952 54.8166C76.1438 49.7344 80.5454 44.516 80.5454 39.343C80.5454 34.17 76.1438 28.997 67.2952 23.9147Z" fill="#FFDB32"/>
<mask id="mask0_3165_2780" style="mask-type:luminance" maskUnits="userSpaceOnUse" x="0" y="16" width="81" height="47">
<path d="M67.2952 23.9147C49.6435 13.7049 31.4019 13.7049 13.7501 23.9147C4.90159 28.997 0.5 34.17 0.5 39.343C0.5 44.516 4.90159 49.689 13.7501 54.8166C31.4019 65.0265 49.6435 65.0265 67.2952 54.8166C76.1438 49.7344 80.5454 44.516 80.5454 39.343C80.5454 34.17 76.1438 28.997 67.2952 23.9147Z" fill="white"/>
</mask>
<g mask="url(#mask0_3165_2780)">
<path opacity="0.03" d="M84.4923 15.1572C84.4923 12.3892 82.5411 9.03124 80.1361 7.62455L79.8638 7.44304C79.8638 7.21616 79.6369 6.98927 79.3193 6.85314V4.22126C79.2739 4.08513 79.1832 3.949 79.047 3.85824V2.49693C79.5462 2.3608 79.8638 2.08853 79.8638 1.77089V1.27174C79.8638 1.31712 79.8184 1.3625 79.8184 1.40788C79.8638 1.3625 79.8638 1.31712 79.8638 1.27174C79.8638 0.817972 79.2285 0.500332 78.5025 0.500332C77.7765 0.500332 77.1412 0.86335 77.1412 1.27174V1.77089C77.1412 1.86165 77.1866 1.99778 77.232 2.08853C77.3227 2.17929 77.4135 2.27004 77.5042 2.31542C77.6403 2.40617 77.7765 2.45155 77.9126 2.49693V3.81287C77.7765 3.85824 77.6403 3.99438 77.6403 4.17589V6.17248L68.8372 1.09024C67.6574 0.409578 66.5683 0.318823 65.7515 0.772595L62.3936 2.72381C63.165 2.27004 63.165 2.27004 62.3936 2.72381C61.6222 3.17759 61.123 4.13051 61.123 5.5372V31.8106C61.123 34.5786 63.0743 37.9365 65.4793 39.3432L76.8236 45.8775C78.0034 46.5582 79.0924 46.6489 79.9092 46.1952C80.726 45.7414 80.6806 45.7414 79.9092 46.1952L83.2671 44.244C84.0385 43.7902 84.5377 42.8373 84.5377 41.4306L84.4923 15.1572Z" fill="#FFFDF7"/>
<path opacity="0.06" d="M83.4947 15.1572C83.4947 12.3892 81.5435 9.03124 79.1385 7.62455L78.8662 7.44304C78.8662 7.21616 78.6393 6.98927 78.3217 6.85314V4.22126C78.2763 4.08513 78.1856 3.949 78.0494 3.85824V2.49693C78.5486 2.3608 78.8662 2.08853 78.8662 1.77089V1.27174C78.8662 1.31712 78.8209 1.3625 78.8209 1.40788C78.8662 1.3625 78.8662 1.31712 78.8662 1.27174C78.8662 0.817972 78.231 0.500332 77.5049 0.500332C76.7789 0.500332 76.1436 0.86335 76.1436 1.27174V1.77089C76.1436 1.86165 76.189 1.99778 76.2344 2.08853C76.3251 2.17929 76.4159 2.27004 76.5066 2.31542C76.6428 2.40617 76.7789 2.45155 76.915 2.49693V3.81287C76.7789 3.85824 76.6428 3.99438 76.6428 4.17589V6.17248L67.7942 1.09024C66.6144 0.409578 65.5253 0.318823 64.7086 0.772595L61.3506 2.72381C62.1221 2.27004 62.1221 2.27004 61.3506 2.72381C60.5792 3.17759 60.0801 4.13051 60.0801 5.5372V31.8106C60.0801 34.5786 62.0313 37.9365 64.4363 39.3432L75.7806 45.8775C76.9604 46.5582 78.0494 46.6489 78.8662 46.1952C79.683 45.7414 79.6376 45.7414 78.8662 46.1952L82.2242 44.244C82.9956 43.7902 83.4947 42.8373 83.4947 41.4306V15.1572Z" fill="#FFFBF0"/>
<path opacity="0.09" d="M82.4508 15.1572C82.4508 12.3892 80.4996 9.03124 78.0946 7.62455L77.8224 7.44304C77.8224 7.21616 77.5955 6.98927 77.2778 6.85314V4.22126C77.2325 4.08513 77.1417 3.949 77.0056 3.85824V2.49693C77.5047 2.3608 77.8224 2.08853 77.8224 1.77089V1.27174C77.8224 1.31712 77.777 1.3625 77.777 1.40788C77.8224 1.3625 77.8224 1.31712 77.8224 1.27174C77.8224 0.817972 77.1871 0.500332 76.461 0.500332C75.735 0.500332 75.0997 0.86335 75.0997 1.27174V1.77089C75.0997 1.86165 75.1451 1.99778 75.1905 2.08853C75.2812 2.17929 75.372 2.27004 75.4627 2.31542C75.5989 2.40617 75.735 2.45155 75.8711 2.49693V3.81287C75.735 3.85824 75.5989 3.99438 75.5989 4.17589V6.17248L66.7957 1.09024C65.6159 0.409578 64.5268 0.318823 63.7101 0.772595L60.3975 2.72381C61.1689 2.27004 61.1689 2.27004 60.3975 2.72381C59.6261 3.17759 59.127 4.13051 59.127 5.5372V31.8106C59.127 34.5786 61.0782 37.9365 63.4832 39.3432L74.8275 45.8775C76.0073 46.5582 77.0963 46.6489 77.9131 46.1952C78.7299 45.7414 78.6845 45.7414 77.9131 46.1952L81.271 44.244C82.0424 43.7902 82.5416 42.8373 82.5416 41.4306L82.4508 15.1572Z" fill="#FFFAE8"/>
<path opacity="0.12" d="M81.4513 15.1572C81.4513 12.3892 79.5001 9.03124 77.0951 7.62455L76.8228 7.44304C76.8228 7.21616 76.5959 6.98927 76.2783 6.85314V4.22126C76.2329 4.08513 76.1422 3.949 76.006 3.85824V2.49693C76.5052 2.3608 76.8228 2.08853 76.8228 1.77089V1.27174C76.8228 1.31712 76.7774 1.3625 76.7774 1.40788C76.8228 1.3625 76.8228 1.31712 76.8228 1.27174C76.8228 0.817972 76.1875 0.500332 75.4615 0.500332C74.7355 0.500332 74.1002 0.86335 74.1002 1.27174V1.77089C74.1002 1.86165 74.1456 1.99778 74.1909 2.08853C74.2817 2.17929 74.3724 2.27004 74.4632 2.31542C74.5993 2.40617 74.7355 2.45155 74.8716 2.49693V3.81287C74.7355 3.85824 74.5993 3.99438 74.5993 4.17589V6.17248L65.7962 1.09024C64.6163 0.409578 63.5273 0.318823 62.7105 0.772595L59.3526 2.72381C60.124 2.27004 60.124 2.27004 59.3526 2.72381C58.5812 3.17759 58.082 4.13051 58.082 5.5372V31.8106C58.082 34.5786 60.0332 37.9365 62.4382 39.3432L73.7825 45.8775C74.9623 46.5582 76.0514 46.6489 76.8682 46.1952C77.685 45.7414 77.6396 45.7414 76.8682 46.1952L80.2261 44.244C80.9975 43.7902 81.4967 42.8373 81.4967 41.4306L81.4513 15.1572Z" fill="#FFF8E0"/>
<path opacity="0.15" d="M80.4532 15.1572C80.4532 12.3892 78.502 9.03124 76.097 7.62455L75.8248 7.44304C75.8248 7.21616 75.5979 6.98927 75.2802 6.85314V4.22126C75.2349 4.08513 75.1441 3.949 75.008 3.85824V2.49693C75.5071 2.3608 75.8248 2.08853 75.8248 1.77089V1.27174C75.8248 1.31712 75.7794 1.3625 75.7794 1.40788C75.8248 1.40788 75.8248 1.31712 75.8248 1.27174C75.8248 0.817972 75.1895 0.500332 74.4635 0.500332C73.7374 0.500332 73.1021 0.86335 73.1021 1.27174V1.77089C73.1021 1.86165 73.1475 1.99778 73.1929 2.08853C73.2836 2.17929 73.3744 2.27004 73.4652 2.31542C73.6013 2.40617 73.7374 2.45155 73.8735 2.49693V3.81287C73.7374 3.85824 73.6013 3.99438 73.6013 4.17589V6.17248L64.7981 1.09024C63.6183 0.409578 62.5292 0.318823 61.7125 0.772595L58.3545 2.72381C59.126 2.27004 59.126 2.27004 58.3545 2.72381C57.5831 3.17759 57.084 4.13051 57.084 5.5372V31.8106C57.084 34.5786 59.0352 37.9365 61.4402 39.3432L72.7845 45.8775C73.9643 46.5582 75.0534 46.6489 75.8701 46.1952C76.6869 45.7414 76.6416 45.7414 75.8701 46.1952L79.2281 44.244C79.9995 43.7902 80.4986 42.8373 80.4986 41.4306L80.4532 15.1572Z" fill="#FFF6D8"/>
<path opacity="0.18" d="M79.4556 15.1572C79.4556 12.3892 77.5044 9.03124 75.0994 7.62455L74.8272 7.44304C74.8272 7.21616 74.6003 6.98927 74.2827 6.85314V4.22126C74.2373 4.08513 74.1465 3.949 74.0104 3.85824V2.49693C74.5095 2.3608 74.8272 2.08853 74.8272 1.77089V1.27174C74.8272 1.31712 74.7818 1.3625 74.7818 1.40788C74.8272 1.3625 74.8272 1.31712 74.8272 1.27174C74.8272 0.817972 74.1919 0.500332 73.4659 0.500332C72.7398 0.500332 72.1045 0.86335 72.1045 1.27174V1.77089C72.1045 1.86165 72.1499 1.99778 72.1953 2.08853C72.2861 2.17929 72.3768 2.27004 72.4676 2.31542C72.6037 2.40617 72.7398 2.45155 72.876 2.49693V3.81287C72.7398 3.85824 72.6037 3.99438 72.6037 4.17589V6.17248L63.7551 1.09024C62.5753 0.409578 61.4863 0.318823 60.6695 0.772595L57.3116 2.72381C58.083 2.27004 58.083 2.27004 57.3116 2.72381C56.5402 3.17759 56.041 4.13051 56.041 5.5372V31.8106C56.041 34.5786 57.9922 37.9365 60.3972 39.3432L71.7415 45.8775C72.9213 46.5582 74.0104 46.6489 74.8272 46.1952C75.644 45.7414 75.5986 45.7414 74.8272 46.1952L78.1851 44.244C78.9565 43.7902 79.4556 42.8373 79.4556 41.4306V15.1572Z" fill="#FFF4D1"/>
<path opacity="0.21" d="M78.4122 15.1572C78.4122 12.3892 76.461 9.03124 74.056 7.62455L73.7838 7.44304C73.7838 7.21616 73.5569 6.98927 73.2392 6.85314V4.22126C73.1939 4.08513 73.1031 3.949 72.967 3.85824V2.49693C73.4661 2.3608 73.7838 2.08853 73.7838 1.77089V1.27174C73.7838 1.31712 73.7384 1.3625 73.7384 1.40788C73.7838 1.3625 73.7838 1.31712 73.7838 1.27174C73.7838 0.817972 73.1485 0.500332 72.4224 0.500332C71.6964 0.500332 71.0611 0.86335 71.0611 1.27174V1.77089C71.0611 1.86165 71.1065 1.99778 71.1519 2.08853C71.2426 2.17929 71.3334 2.27004 71.4241 2.31542C71.5603 2.40617 71.6964 2.45155 71.8325 2.49693V3.81287C71.6964 3.85824 71.5603 3.99438 71.5603 4.17589V6.17248L62.7571 1.09024C61.5773 0.409578 60.4882 0.318823 59.6714 0.772595L56.3135 2.72381C57.0849 2.27004 57.0849 2.27004 56.3135 2.72381C55.5421 3.17759 55.043 4.13051 55.043 5.5372V31.8106C55.043 34.5786 56.9942 37.9365 59.3992 39.3432L70.7435 45.8775C71.9233 46.5582 73.0123 46.6489 73.8291 46.1952C74.6459 45.7414 74.6005 45.7414 73.8291 46.1952L77.187 44.244C77.9585 43.7902 78.4576 42.8373 78.4576 41.4306L78.4122 15.1572Z" fill="#FFF2C9"/>
<path opacity="0.24" d="M77.4142 15.1572C77.4142 12.3892 75.463 9.03124 73.058 7.62455L72.7857 7.44304C72.7857 7.21616 72.5588 6.98927 72.2412 6.85314V4.22126C72.1958 4.08513 72.105 3.949 71.9689 3.85824V2.49693C72.4681 2.3608 72.7857 2.08853 72.7857 1.77089V1.27174C72.7857 1.31712 72.7403 1.3625 72.7403 1.40788C72.7857 1.3625 72.7857 1.31712 72.7857 1.27174C72.7857 0.817972 72.1504 0.500332 71.4244 0.500332C70.6984 0.500332 70.0631 0.86335 70.0631 1.27174V1.77089C70.0631 1.86165 70.1084 1.99778 70.1538 2.08853C70.2446 2.17929 70.3353 2.27004 70.4261 2.31542C70.5622 2.40617 70.6984 2.45155 70.8345 2.49693V3.81287C70.6984 3.85824 70.5622 3.99438 70.5622 4.17589V6.17248L61.759 1.09024C60.5792 0.409578 59.4902 0.318823 58.6734 0.772595L55.3155 2.72381C56.0869 2.27004 56.0869 2.27004 55.3155 2.72381C54.5441 3.17759 54.0449 4.13051 54.0449 5.5372V31.8106C54.0449 34.5786 55.9961 37.9365 58.4011 39.3432L69.7454 45.8775C70.9252 46.5582 72.0143 46.6489 72.8311 46.1952C73.6479 45.7414 73.6025 45.7414 72.8311 46.1952L76.189 44.244C76.9604 43.7902 77.4596 42.8373 77.4596 41.4306L77.4142 15.1572Z" fill="#FFF0C1"/>
<path opacity="0.27" d="M76.4142 15.1572C76.4142 12.3892 74.463 9.03124 72.058 7.62455L71.7857 7.44304C71.7857 7.21616 71.5588 6.98927 71.2412 6.85314V4.22126C71.1958 4.08513 71.105 3.949 70.9689 3.85824V2.49693C71.4681 2.3608 71.7857 2.08853 71.7857 1.77089V1.27174C71.7857 1.31712 71.7403 1.3625 71.7403 1.40788C71.7857 1.3625 71.7857 1.31712 71.7857 1.27174C71.7857 0.817972 71.1504 0.500332 70.4244 0.500332C69.6984 0.500332 69.0631 0.86335 69.0631 1.27174V1.77089C69.0631 1.86165 69.1084 1.99778 69.1538 2.08853C69.2446 2.17929 69.3353 2.27004 69.4261 2.31542C69.5622 2.40617 69.6984 2.45155 69.8345 2.49693V3.81287C69.6984 3.85824 69.5622 3.99438 69.5622 4.17589V6.17248L60.759 1.09024C59.5792 0.409578 58.4902 0.318823 57.6734 0.772595L54.3155 2.72381C55.0869 2.27004 55.0869 2.27004 54.3155 2.72381C53.5441 3.17759 53.0449 4.13051 53.0449 5.5372V31.8106C53.0449 34.5786 54.9961 37.9365 57.4011 39.3432L68.7454 45.8775C69.9252 46.5582 71.0143 46.6489 71.8311 46.1952C72.6479 45.7414 72.6025 45.7414 71.8311 46.1952L75.189 44.244C75.9604 43.7902 76.4596 42.8373 76.4596 41.4306L76.4142 15.1572Z" fill="#FFEFB9"/>
<path opacity="0.3" d="M75.4161 15.1572C75.4161 12.3892 73.4649 9.03124 71.0599 7.62455L70.7877 7.44304C70.7877 7.21616 70.5608 6.98927 70.2431 6.85314V4.22126C70.1978 4.08513 70.107 3.949 69.9709 3.85824V2.49693C70.47 2.3608 70.7877 2.08853 70.7877 1.77089V1.27174C70.7877 1.31712 70.7423 1.3625 70.7423 1.40788C70.7877 1.3625 70.7877 1.31712 70.7877 1.27174C70.7877 0.817972 70.1524 0.500332 69.4263 0.500332C68.7003 0.500332 68.065 0.86335 68.065 1.27174V1.77089C68.065 1.86165 68.1104 1.99778 68.1558 2.08853C68.2465 2.17929 68.3373 2.27004 68.428 2.31542C68.5642 2.40617 68.7003 2.45155 68.8364 2.49693V3.81287C68.7003 3.85824 68.5642 3.99438 68.5642 4.17589V6.17248L59.761 1.09024C58.5812 0.409578 57.4921 0.318823 56.6754 0.772595L53.3174 2.72381C54.0889 2.27004 54.0889 2.27004 53.3174 2.72381C52.546 3.17759 52.0469 4.13051 52.0469 5.5372V31.8106C52.0469 34.5786 53.9981 37.9365 56.4031 39.3432L67.7474 45.8775C68.9272 46.5582 70.0162 46.6489 70.833 46.1952C71.6498 45.7414 71.6044 45.7414 70.833 46.1952L74.1909 44.244C74.9624 43.7902 75.4615 42.8373 75.4615 41.4306L75.4161 15.1572Z" fill="#FFEDB2"/>
<path opacity="0.33" d="M74.4185 15.1572C74.4185 12.3892 72.4673 9.03124 70.0623 7.62455L69.7901 7.44304C69.7901 7.21616 69.5632 6.98927 69.2455 6.85314V4.22126C69.2002 4.08513 69.1094 3.949 68.9733 3.85824V2.49693C69.4724 2.3608 69.7901 2.08853 69.7901 1.77089V1.27174C69.7901 1.31712 69.7447 1.3625 69.7447 1.40788C69.7901 1.3625 69.7901 1.31712 69.7901 1.27174C69.7901 0.817972 69.1548 0.500332 68.4287 0.500332C67.7027 0.500332 67.0674 0.86335 67.0674 1.27174V1.77089C67.0674 1.86165 67.1128 1.99778 67.1582 2.08853C67.2489 2.17929 67.3397 2.27004 67.4304 2.31542C67.5666 2.40617 67.7027 2.45155 67.8388 2.49693V3.81287C67.7027 3.85824 67.5666 3.99438 67.5666 4.17589V6.17248L58.718 1.09024C57.5382 0.409578 56.4492 0.318823 55.6324 0.772595L52.2745 2.72381C53.0459 2.27004 53.0459 2.27004 52.2745 2.72381C51.5031 3.17759 51.0039 4.13051 51.0039 5.5372V31.8106C51.0039 34.5786 52.9551 37.9365 55.3601 39.3432L66.7044 45.8775C67.8842 46.5582 68.9733 46.6489 69.7901 46.1952C70.6069 45.7414 70.5615 45.7414 69.7901 46.1952L73.1026 44.244C73.874 43.7902 74.3732 42.8373 74.3732 41.4306L74.4185 15.1572Z" fill="#FFEBAA"/>
<path opacity="0.36" d="M73.3747 15.1572C73.3747 12.3892 71.4234 9.03124 69.0185 7.62455L68.7462 7.44304C68.7462 7.21616 68.5193 6.98927 68.2017 6.85314V4.22126C68.1563 4.08513 68.0655 3.949 67.9294 3.85824V2.49693C68.4286 2.3608 68.7462 2.08853 68.7462 1.77089V1.27174C68.7462 1.31712 68.7008 1.3625 68.7008 1.40788C68.7462 1.3625 68.7462 1.31712 68.7462 1.27174C68.7462 0.817972 68.1109 0.500332 67.3849 0.500332C66.6588 0.500332 66.0236 0.86335 66.0236 1.27174V1.77089C66.0236 1.86165 66.0689 1.99778 66.1143 2.08853C66.2051 2.17929 66.2958 2.27004 66.3866 2.31542C66.5227 2.40617 66.6588 2.45155 66.795 2.49693V3.81287C66.6588 3.85824 66.5227 3.99438 66.5227 4.17589V6.17248L57.7195 1.09024C56.5397 0.409578 55.4507 0.318823 54.6339 0.772595L51.3213 2.72381C52.0928 2.27004 52.0928 2.27004 51.3213 2.72381C50.5499 3.17759 50.0508 4.13051 50.0508 5.5372V31.8106C50.0508 34.5786 52.002 37.9365 54.407 39.3432L65.7513 45.8775C66.9311 46.5582 68.0202 46.6489 68.8369 46.1952C69.6537 45.7414 69.6084 45.7414 68.8369 46.1952L72.1949 44.244C72.9663 43.7902 73.4654 42.8373 73.4654 41.4306L73.3747 15.1572Z" fill="#FFE9A2"/>
<path opacity="0.39" d="M72.3771 15.1572C72.3771 12.3892 70.4259 9.03124 68.0209 7.62455L67.7486 7.44304C67.7486 7.21616 67.5217 6.98927 67.2041 6.85314V4.22126C67.1587 4.08513 67.0679 3.949 66.9318 3.85824V2.49693C67.431 2.3608 67.7486 2.08853 67.7486 1.77089V1.27174C67.7486 1.31712 67.7032 1.3625 67.7032 1.40788C67.7486 1.3625 67.7486 1.31712 67.7486 1.27174C67.7486 0.817972 67.1133 0.500332 66.3873 0.500332C65.6612 0.500332 65.026 0.86335 65.026 1.27174V1.77089C65.026 1.86165 65.0713 1.99778 65.1167 2.08853C65.2075 2.17929 65.2982 2.27004 65.389 2.31542C65.5251 2.40617 65.6612 2.45155 65.7974 2.49693V3.81287C65.6612 3.85824 65.5251 3.99438 65.5251 4.17589V6.17248L56.7219 1.09024C55.5421 0.409578 54.4531 0.318823 53.6363 0.772595L50.2784 2.72381C51.0498 2.27004 51.0498 2.27004 50.2784 2.72381C49.507 3.17759 49.0078 4.13051 49.0078 5.5372V31.8106C49.0078 34.5786 50.959 37.9365 53.364 39.3432L64.7083 45.8775C65.8881 46.5582 66.9772 46.6489 67.794 46.1952C68.6108 45.7414 68.5654 45.7414 67.794 46.1952L71.1519 44.244C71.9233 43.7902 72.4224 42.8373 72.4224 41.4306L72.3771 15.1572Z" fill="#FFE79B"/>
<path opacity="0.42" d="M71.379 15.1572C71.379 12.3892 69.4278 9.03124 67.0228 7.62455L66.7505 7.44304C66.7505 7.21616 66.5237 6.98927 66.206 6.85314V4.22126C66.1606 4.08513 66.0699 3.949 65.9338 3.85824V2.49693C66.4329 2.3608 66.7505 2.08853 66.7505 1.77089V1.27174C66.7505 1.31712 66.7052 1.3625 66.7052 1.40788C66.7505 1.40788 66.7505 1.31712 66.7505 1.27174C66.7505 0.817972 66.1153 0.500332 65.3892 0.500332C64.6632 0.500332 64.0279 0.86335 64.0279 1.27174V1.77089C64.0279 1.86165 64.0733 1.99778 64.1187 2.08853C64.2094 2.17929 64.3002 2.27004 64.3909 2.31542C64.5271 2.40617 64.6632 2.45155 64.7993 2.49693V3.81287C64.6632 3.85824 64.5271 3.99438 64.5271 4.17589V6.17248L55.7239 1.09024C54.5441 0.409578 53.455 0.318823 52.6382 0.772595L49.2803 2.72381C50.0517 2.27004 50.0517 2.27004 49.2803 2.72381C48.5089 3.17759 48.0098 4.13051 48.0098 5.5372V31.8106C48.0098 34.5786 49.961 37.9365 52.366 39.3432L63.7103 45.8775C64.8901 46.5582 65.9791 46.6489 66.7959 46.1952C67.6127 45.7414 67.5673 45.7414 66.7959 46.1952L70.1538 44.244C70.9253 43.7902 71.4244 42.8373 71.4244 41.4306L71.379 15.1572Z" fill="#FFE693"/>
<path opacity="0.45" d="M70.3795 15.1572C70.3795 12.3892 68.4283 9.03124 66.0233 7.62455L65.751 7.44304C65.751 7.21616 65.5241 6.98927 65.2065 6.85314V4.22126C65.1611 4.08513 65.0703 3.949 64.9342 3.85824V2.49693C65.4334 2.3608 65.751 2.08853 65.751 1.77089V1.27174C65.751 1.31712 65.7056 1.3625 65.7056 1.40788C65.751 1.3625 65.751 1.31712 65.751 1.27174C65.751 0.817972 65.1157 0.500332 64.3897 0.500332C63.6637 0.500332 63.0284 0.86335 63.0284 1.27174V1.77089C63.0284 1.86165 63.0737 1.99778 63.1191 2.08853C63.2099 2.17929 63.3006 2.27004 63.3914 2.31542C63.5275 2.40617 63.6637 2.45155 63.7998 2.49693V3.81287C63.6637 3.85824 63.5275 3.99438 63.5275 4.17589V6.17248L54.679 1.09024C53.4992 0.409578 52.4101 0.318823 51.5933 0.772595L48.2354 2.72381C49.0068 2.27004 49.0068 2.27004 48.2354 2.72381C47.464 3.17759 46.9648 4.13051 46.9648 5.5372V31.8106C46.9648 34.5786 48.9161 37.9365 51.3211 39.3432L62.6654 45.8775C63.8452 46.5582 64.9342 46.6489 65.751 46.1952C66.5678 45.7414 66.5224 45.7414 65.751 46.1952L69.1089 44.244C69.8803 43.7902 70.3795 42.8373 70.3795 41.4306V15.1572Z" fill="#FFE48B"/>
<path opacity="0.48" d="M69.3361 15.1572C69.3361 12.3892 67.3848 9.03124 64.9798 7.62455L64.7076 7.44304C64.7076 7.21616 64.4807 6.98927 64.1631 6.85314V4.22126C64.1177 4.08513 64.0269 3.949 63.8908 3.85824V2.49693C64.3899 2.3608 64.7076 2.08853 64.7076 1.77089V1.27174C64.7076 1.31712 64.6622 1.3625 64.6622 1.40788C64.7076 1.3625 64.7076 1.31712 64.7076 1.27174C64.7076 0.817972 64.0723 0.500332 63.3463 0.500332C62.6202 0.500332 61.9849 0.86335 61.9849 1.27174V1.77089C61.9849 1.86165 62.0303 1.99778 62.0757 2.08853C62.1665 2.17929 62.2572 2.27004 62.348 2.31542C62.4841 2.40617 62.6202 2.45155 62.7564 2.49693V3.81287C62.6202 3.85824 62.4841 3.99438 62.4841 4.17589V6.17248L53.6809 1.09024C52.5011 0.409578 51.4121 0.318823 50.5953 0.772595L47.2374 2.72381C48.0088 2.27004 48.0088 2.27004 47.2374 2.72381C46.4659 3.17759 45.9668 4.13051 45.9668 5.5372V31.8106C45.9668 34.5786 47.918 37.9365 50.323 39.3432L61.6673 45.8775C62.8471 46.5582 63.9362 46.6489 64.753 46.1952C65.5698 45.7414 65.5244 45.7414 64.753 46.1952L68.1109 44.244C68.8823 43.7902 69.3814 42.8373 69.3814 41.4306L69.3361 15.1572Z" fill="#FFE283"/>
<path opacity="0.52" d="M68.338 15.1572C68.338 12.3892 66.3868 9.03124 63.9818 7.62455L63.7095 7.44304C63.7095 7.21616 63.4826 6.98927 63.165 6.85314V4.22126C63.1196 4.08513 63.0289 3.949 62.8927 3.85824V2.49693C63.3919 2.3608 63.7095 2.08853 63.7095 1.77089V1.27174C63.7095 1.31712 63.6642 1.3625 63.6642 1.40788C63.7095 1.3625 63.7095 1.31712 63.7095 1.27174C63.7095 0.817972 63.0743 0.500332 62.3482 0.500332C61.6222 0.500332 60.9869 0.86335 60.9869 1.27174V1.77089C60.9869 1.86165 61.0323 1.99778 61.0777 2.08853C61.1684 2.17929 61.2592 2.27004 61.3499 2.31542C61.4861 2.40617 61.6222 2.45155 61.7583 2.49693V3.81287C61.6222 3.85824 61.486 3.99438 61.486 4.17589V6.17248L52.6829 1.09024C51.5031 0.409578 50.414 0.318823 49.5972 0.772595L46.2393 2.72381C47.0107 2.27004 47.0107 2.27004 46.2393 2.72381C45.4679 3.17759 44.9688 4.13051 44.9688 5.5372V31.8106C44.9688 34.5786 46.92 37.9365 49.325 39.3432L60.6693 45.8775C61.8491 46.5582 62.9381 46.6489 63.7549 46.1952C64.5717 45.7414 64.5263 45.7414 63.7549 46.1952L67.1128 44.244C67.8842 43.7902 68.3834 42.8373 68.3834 41.4306V15.1572H68.338Z" fill="#FFE07C"/>
<path opacity="0.55" d="M67.34 15.1572C67.34 12.3892 65.3887 9.03124 62.9837 7.62455L62.7115 7.44304C62.7115 7.21616 62.4846 6.98927 62.167 6.85314V4.22126C62.1216 4.08513 62.0308 3.949 61.8947 3.85824V2.49693C62.3938 2.3608 62.7115 2.08853 62.7115 1.77089V1.27174C62.7115 1.31712 62.6661 1.3625 62.6661 1.40788C62.7115 1.3625 62.7115 1.31712 62.7115 1.27174C62.7115 0.817972 62.0762 0.500332 61.3502 0.500332C60.6241 0.500332 59.9889 0.86335 59.9889 1.27174V1.77089C59.9889 1.86165 60.0342 1.99778 60.0796 2.08853C60.1704 2.17929 60.2611 2.27004 60.3519 2.31542C60.488 2.40617 60.6241 2.45155 60.7603 2.49693V3.81287C60.6241 3.85824 60.488 3.99438 60.488 4.17589V6.17248L51.6848 1.09024C50.505 0.409578 49.416 0.318823 48.5992 0.772595L45.2413 2.72381C46.0127 2.27004 46.0127 2.27004 45.2413 2.72381C44.4699 3.17759 43.9707 4.13051 43.9707 5.5372V31.8106C43.9707 34.5786 45.9219 37.9365 48.3269 39.3432L59.6712 45.8775C60.851 46.5582 61.9401 46.6489 62.7569 46.1952C63.5736 45.7414 63.5283 45.7414 62.7569 46.1952L66.1148 44.244C66.8862 43.7902 67.3853 42.8373 67.3853 41.4306L67.34 15.1572Z" fill="#FFDE74"/>
<path opacity="0.58" d="M66.3424 15.1572C66.3424 12.3892 64.3911 9.03124 61.9862 7.62455L61.7139 7.44304C61.7139 7.21616 61.487 6.98927 61.1694 6.85314V4.22126C61.124 4.08513 61.0332 3.949 60.8971 3.85824V2.49693C61.3963 2.3608 61.7139 2.08853 61.7139 1.77089V1.27174C61.7139 1.31712 61.6685 1.3625 61.6685 1.40788C61.7139 1.3625 61.7139 1.31712 61.7139 1.27174C61.7139 0.817972 61.0786 0.500332 60.3526 0.500332C59.6265 0.500332 58.9913 0.86335 58.9913 1.27174V1.77089C58.9913 1.86165 59.0366 1.99778 59.082 2.08853C59.1728 2.17929 59.2635 2.27004 59.3543 2.31542C59.4904 2.40617 59.6265 2.45155 59.7627 2.49693V3.81287C59.6265 3.85824 59.4904 3.99438 59.4904 4.17589V6.17248L50.6419 1.09024C49.4621 0.409578 48.373 0.318823 47.5562 0.772595L44.1983 2.72381C44.9697 2.27004 44.9697 2.27004 44.1983 2.72381C43.4269 3.17759 42.9277 4.13051 42.9277 5.5372V31.8106C42.9277 34.5786 44.879 37.9365 47.2839 39.3432L58.6282 45.8775C59.8081 46.5582 60.8971 46.6489 61.7139 46.1952C62.5307 45.7414 62.4853 45.7414 61.7139 46.1952L65.0718 44.244C65.8432 43.7902 66.3424 42.8373 66.3424 41.4306V15.1572Z" fill="#FFDC6C"/>
<path opacity="0.61" d="M65.297 15.1572C65.297 12.3892 63.3458 9.03124 60.9408 7.62455L60.6685 7.44304C60.6685 7.21616 60.4416 6.98927 60.124 6.85314V4.22126C60.0786 4.08513 59.9879 3.949 59.8517 3.85824V2.49693C60.3509 2.3608 60.6685 2.08853 60.6685 1.77089V1.27174C60.6685 1.31712 60.6231 1.3625 60.6231 1.40788C60.6685 1.3625 60.6685 1.31712 60.6685 1.27174C60.6685 0.817972 60.0332 0.500332 59.3072 0.500332C58.5812 0.500332 57.9459 0.86335 57.9459 1.27174V1.77089C57.9459 1.86165 57.9913 1.99778 58.0366 2.08853C58.1274 2.17929 58.2181 2.27004 58.3543 2.31542C58.4904 2.40617 58.6265 2.45155 58.7627 2.49693V3.81287C58.6265 3.85824 58.4904 3.99438 58.4904 4.17589V6.17248L49.6419 1.09024C48.4621 0.409578 47.373 0.318823 46.5562 0.772595L43.1983 2.72381C43.9697 2.27004 43.9697 2.27004 43.1983 2.72381C42.4269 3.17759 41.9277 4.13051 41.9277 5.5372V31.8106C41.9277 34.5786 43.879 37.9365 46.2839 39.3432L57.6282 45.8775C58.8081 46.5582 59.8971 46.6489 60.7139 46.1952C61.5307 45.7414 61.4853 45.7414 60.7139 46.1952L64.0264 44.244C64.7978 43.7902 65.297 42.8373 65.297 41.4306V15.1572Z" fill="#FFDB64"/>
<path opacity="0.64" d="M64.2989 15.1572C64.2989 12.3892 62.3477 9.03124 59.9427 7.62455L59.6705 7.44304C59.6705 7.21616 59.4436 6.98927 59.1259 6.85314V4.22126C59.0806 4.08513 58.9898 3.949 58.8537 3.85824V2.49693C59.3528 2.3608 59.6705 2.08853 59.6705 1.77089V1.27174C59.6705 1.31712 59.6251 1.3625 59.6251 1.40788C59.6705 1.3625 59.6705 1.31712 59.6705 1.27174C59.6705 0.817972 59.0352 0.500332 58.3092 0.500332C57.5831 0.500332 56.9478 0.86335 56.9478 1.27174V1.77089C56.9478 1.86165 56.9932 1.99778 57.0386 2.08853C57.1293 2.17929 57.2201 2.27004 57.3562 2.31542C57.4924 2.40617 57.6285 2.45155 57.7646 2.49693V3.81287C57.6285 3.85824 57.4924 3.99438 57.4924 4.17589V6.17248L48.6438 1.09024C47.464 0.409578 46.375 0.318823 45.5582 0.772595L42.2003 2.72381C42.9717 2.27004 42.9717 2.27004 42.2003 2.72381C41.4288 3.17759 40.9297 4.13051 40.9297 5.5372V31.8106C40.9297 34.5786 42.8809 37.9365 45.2859 39.3432L56.6302 45.8775C57.81 46.5582 58.8991 46.6489 59.7158 46.1952C60.5326 45.7414 60.4873 45.7414 59.7158 46.1952L63.0738 44.244C63.8452 43.7902 64.3443 42.8373 64.3443 41.4306L64.2989 15.1572Z" fill="#FFD95D"/>
<path opacity="0.67" d="M63.3009 15.1572C63.3009 12.3892 61.3497 9.03124 58.9447 7.62455L58.6724 7.44304C58.6724 7.21616 58.4455 6.98927 58.1279 6.85314V4.22126C58.0825 4.08513 57.9918 3.949 57.8556 3.85824V2.49693C58.3548 2.3608 58.6724 2.08853 58.6724 1.77089V1.27174C58.6724 1.31712 58.627 1.3625 58.627 1.40788C58.6724 1.3625 58.6724 1.31712 58.6724 1.27174C58.6724 0.817972 58.0825 0.500332 57.3111 0.500332C56.5397 0.500332 55.9498 0.86335 55.9498 1.27174V1.77089C55.9498 1.86165 55.9952 1.99778 56.0405 2.08853C56.1313 2.17929 56.2221 2.27004 56.3582 2.31542C56.4943 2.40617 56.6304 2.45155 56.7666 2.49693V3.81287C56.6304 3.85824 56.4943 3.99438 56.4943 4.17589V6.17248L47.6458 1.09024C46.466 0.409578 45.3769 0.318823 44.5601 0.772595L41.2022 2.72381C41.9736 2.27004 41.9736 2.27004 41.2022 2.72381C40.4308 3.17759 39.9316 4.13051 39.9316 5.5372V31.8106C39.9316 34.5786 41.8829 37.9365 44.2879 39.3432L55.6322 45.8775C56.812 46.5582 57.901 46.6489 58.7178 46.1952C59.5346 45.7414 59.4892 45.7414 58.7178 46.1952L62.0757 44.244C62.8471 43.7902 63.3463 42.8373 63.3463 41.4306L63.3009 15.1572Z" fill="#FFD755"/>
<path opacity="0.7" d="M62.3029 15.1572C62.3029 12.3892 60.3516 9.03124 57.9466 7.62455L57.6744 7.44304C57.6744 7.21616 57.4475 6.98927 57.1299 6.85314V4.22126C57.0845 4.08513 56.9937 3.949 56.8576 3.85824V2.49693C57.3567 2.3608 57.6744 2.08853 57.6744 1.77089V1.27174C57.6744 1.31712 57.629 1.3625 57.629 1.40788C57.6744 1.40788 57.6744 1.31712 57.6744 1.27174C57.6744 0.817972 57.0845 0.500332 56.3131 0.500332C55.5416 0.500332 54.9517 0.86335 54.9517 1.27174V1.77089C54.9517 1.86165 54.9971 1.99778 55.0425 2.08853C55.1333 2.17929 55.224 2.27004 55.3601 2.31542C55.4963 2.40617 55.6324 2.45155 55.7685 2.49693V3.81287C55.6324 3.85824 55.4963 3.99438 55.4963 4.17589V6.17248L46.6477 1.09024C45.4225 0.409578 44.3789 0.318823 43.5621 0.772595L40.2042 2.72381C40.9756 2.27004 40.9756 2.27004 40.2042 2.72381C39.4327 3.17759 38.9336 4.13051 38.9336 5.5372V31.8106C38.9336 34.5786 40.8848 37.9365 43.2898 39.3432L54.6341 45.8775C55.8139 46.5582 56.903 46.6489 57.7198 46.1952C58.5365 45.7414 58.4912 45.7414 57.7198 46.1952L61.0777 44.244C61.8491 43.7902 62.3482 42.8373 62.3482 41.4306L62.3029 15.1572Z" fill="#FFD54D"/>
<path opacity="0.73" d="M61.2599 15.1572C61.2599 12.3892 59.3087 9.03124 56.9037 7.62455L56.6314 7.44304C56.6314 7.21616 56.4045 6.98927 56.0869 6.85314V4.22126C56.0415 4.08513 55.9507 3.949 55.8146 3.85824V2.49693C56.3138 2.3608 56.6314 2.08853 56.6314 1.77089V1.27174C56.6314 1.31712 56.586 1.3625 56.586 1.40788C56.6314 1.3625 56.6314 1.31712 56.6314 1.27174C56.6314 0.817972 56.0415 0.500332 55.2701 0.500332C54.4987 0.500332 53.9088 0.86335 53.9088 1.27174V1.77089C53.9088 1.86165 53.9542 1.99778 53.9995 2.08853C54.0903 2.17929 54.181 2.27004 54.3172 2.31542C54.4533 2.40617 54.5894 2.45155 54.7256 2.49693V3.81287C54.5894 3.85824 54.4533 3.99438 54.4533 4.17589V6.17248L45.6047 1.09024C44.4249 0.409578 43.3359 0.318823 42.5191 0.772595L39.1612 2.72381C39.9326 2.27004 39.9326 2.27004 39.1612 2.72381C38.3898 3.17759 37.8906 4.13051 37.8906 5.5372V31.8106C37.8906 34.5786 39.8418 37.9365 42.2468 39.3432L53.5911 45.8775C54.7709 46.5582 55.86 46.6489 56.6768 46.1952C57.4936 45.7414 57.4482 45.7414 56.6768 46.1952L60.0347 44.244C60.8061 43.7902 61.3053 42.8373 61.3053 41.4306L61.2599 15.1572Z" fill="#FFD346"/>
<path opacity="0.76" d="M60.2599 15.1572C60.2599 12.3892 58.3087 9.03124 55.9037 7.62455L55.6314 7.44304C55.6314 7.21616 55.4045 6.98927 55.0869 6.85314V4.22126C55.0415 4.08513 54.9507 3.949 54.8146 3.85824V2.49693C55.3138 2.3608 55.6314 2.08853 55.6314 1.77089V1.27174C55.6314 1.31712 55.586 1.3625 55.586 1.40788C55.6314 1.3625 55.6314 1.31712 55.6314 1.27174C55.6314 0.817972 55.0415 0.500332 54.2701 0.500332C53.4987 0.500332 52.9088 0.86335 52.9088 1.27174V1.77089C52.9088 1.86165 52.9542 1.99778 52.9995 2.08853C53.0903 2.17929 53.181 2.27004 53.3172 2.31542C53.4533 2.40617 53.5894 2.45155 53.7256 2.49693V3.81287C53.5894 3.85824 53.4533 3.99438 53.4533 4.17589V6.17248L44.6047 1.09024C43.4249 0.409578 42.3359 0.318823 41.5191 0.772595L38.1612 2.72381C38.9326 2.27004 38.9326 2.27004 38.1612 2.72381C37.3898 3.17759 36.8906 4.13051 36.8906 5.5372V31.8106C36.8906 34.5786 38.8418 37.9365 41.2468 39.3432L52.5911 45.8775C53.7709 46.5582 54.86 46.6489 55.6768 46.1952C56.4936 45.7414 56.4482 45.7414 55.6768 46.1952L59.0347 44.244C59.8061 43.7902 60.3053 42.8373 60.3053 41.4306L60.2599 15.1572Z" fill="#FFD23E"/>
<path opacity="0.79" d="M59.2618 15.1572C59.2618 12.3892 57.3106 9.03124 54.9056 7.62455L54.6334 7.44304C54.6334 7.21616 54.4065 6.98927 54.0888 6.85314V4.22126C54.0435 4.08513 53.9527 3.949 53.8166 3.85824V2.49693C54.3157 2.3608 54.6334 2.08853 54.6334 1.77089V1.27174C54.6334 1.31712 54.588 1.3625 54.588 1.40788C54.6334 1.3625 54.6334 1.31712 54.6334 1.27174C54.6334 0.817972 54.0435 0.500332 53.272 0.500332C52.5006 0.500332 51.9107 0.86335 51.9107 1.27174V1.77089C51.9107 1.86165 51.9561 1.99778 52.0015 2.08853C52.0922 2.17929 52.183 2.27004 52.3191 2.31542C52.4553 2.40617 52.5914 2.45155 52.7275 2.49693V3.81287C52.5914 3.85824 52.4553 3.99438 52.4553 4.17589V6.17248L43.6067 1.09024C42.3815 0.409578 41.3378 0.318823 40.5211 0.772595L37.1631 2.72381C37.9346 2.27004 37.9346 2.27004 37.1631 2.72381C36.3917 3.17759 35.8926 4.13051 35.8926 5.5372V31.8106C35.8926 34.5786 37.8438 37.9365 40.2488 39.3432L51.5931 45.8775C52.7729 46.5582 53.8619 46.6489 54.6787 46.1952C55.4955 45.7414 55.4502 45.7414 54.6787 46.1952L58.0367 44.244C58.8081 43.7902 59.3072 42.8373 59.3072 41.4306L59.2618 15.1572Z" fill="#FFD036"/>
<path opacity="0.82" d="M58.2638 15.1572C58.2638 12.3892 56.3126 9.03124 53.9076 7.62455L53.6353 7.44304C53.6353 7.21616 53.4084 6.98927 53.0908 6.85314V4.22126C53.0454 4.08513 52.9547 3.949 52.8185 3.85824V2.49693C53.3177 2.3608 53.6353 2.08853 53.6353 1.77089V1.27174C53.6353 1.31712 53.5899 1.3625 53.5899 1.40788C53.6353 1.3625 53.6353 1.31712 53.6353 1.27174C53.6353 0.817972 53.0454 0.500332 52.274 0.500332C51.5026 0.500332 50.9127 0.86335 50.9127 1.27174V1.77089C50.9127 1.86165 50.9581 1.99778 51.0034 2.08853C51.0942 2.17929 51.1849 2.27004 51.3211 2.31542C51.4572 2.40617 51.5933 2.45155 51.7295 2.49693V3.81287C51.5933 3.85824 51.4572 3.99438 51.4572 4.17589V6.17248L42.6087 1.09024C41.4288 0.409578 40.3398 0.318823 39.523 0.772595L36.1651 2.72381C36.9365 2.27004 36.9365 2.27004 36.1651 2.72381C35.3937 3.17759 34.8945 4.13051 34.8945 5.5372V31.8106C34.8945 34.5786 36.8457 37.9365 39.2507 39.3432L50.595 45.8775C51.7748 46.5582 52.8639 46.6489 53.6807 46.1952C54.4975 45.7414 54.4521 45.7414 53.6807 46.1952L57.0386 44.244C57.81 43.7902 58.3092 42.8373 58.3092 41.4306L58.2638 15.1572Z" fill="#FFCE2E"/>
<path opacity="0.85" d="M57.2662 15.1572C57.2662 12.3892 55.315 9.03124 52.91 7.62455L52.6377 7.44304C52.6377 7.21616 52.4108 6.98927 52.0932 6.85314V4.22126C52.0478 4.08513 51.9571 3.949 51.8209 3.85824V2.49693C52.3201 2.3608 52.6377 2.08853 52.6377 1.77089V1.27174C52.6377 1.31712 52.5923 1.3625 52.5923 1.40788C52.6377 1.3625 52.6377 1.31712 52.6377 1.27174C52.6377 0.817972 52.0478 0.500332 51.2764 0.500332C50.505 0.500332 49.9151 0.86335 49.9151 1.27174V1.77089C49.9151 1.86165 49.9605 1.99778 50.0058 2.08853C50.0966 2.17929 50.1874 2.27004 50.3235 2.31542C50.4596 2.40617 50.5957 2.45155 50.7319 2.49693V3.81287C50.5957 3.85824 50.4596 3.99438 50.4596 4.17589V6.17248L41.5657 1.09024C40.3859 0.409578 39.2968 0.318823 38.48 0.772595L35.1221 2.72381C35.8935 2.27004 35.8935 2.27004 35.1221 2.72381C34.3507 3.17759 33.8516 4.13051 33.8516 5.5372V31.8106C33.8516 34.5786 35.8028 37.9365 38.2078 39.3432L49.5521 45.8775C50.7319 46.5582 51.8209 46.6489 52.6377 46.1952C53.4545 45.7414 53.4091 45.7414 52.6377 46.1952L55.9956 44.244C56.767 43.7902 57.2662 42.8373 57.2662 41.4306V15.1572Z" fill="#FFCC27"/>
<path opacity="0.88" d="M56.2228 15.1572C56.2228 12.3892 54.2716 9.03124 51.8666 7.62455L51.5943 7.44304C51.5943 7.21616 51.3674 6.98927 51.0498 6.85314V4.22126C51.0044 4.08513 50.9136 3.949 50.7775 3.85824V2.49693C51.2767 2.3608 51.5943 2.08853 51.5943 1.77089V1.27174C51.5943 1.31712 51.5489 1.3625 51.5489 1.40788C51.5943 1.3625 51.5943 1.31712 51.5943 1.27174C51.5943 0.817972 51.0044 0.500332 50.233 0.500332C49.4616 0.500332 48.8717 0.86335 48.8717 1.27174V1.77089C48.8717 1.86165 48.917 1.99778 48.9624 2.08853C49.0532 2.17929 49.1439 2.27004 49.2801 2.31542C49.4162 2.40617 49.5523 2.45155 49.6885 2.49693V3.81287C49.5523 3.85824 49.4162 3.99438 49.4162 4.17589V6.17248L40.5676 1.09024C39.3878 0.409578 38.2988 0.318823 37.482 0.772595L34.1241 2.72381C34.8955 2.27004 34.8955 2.27004 34.1241 2.72381C33.3527 3.17759 32.8535 4.13051 32.8535 5.5372V31.8106C32.8535 34.5786 34.8047 37.9365 37.2097 39.3432L48.554 45.8775C49.7338 46.5582 50.8229 46.6489 51.6397 46.1952C52.4565 45.7414 52.4111 45.7414 51.6397 46.1952L54.9522 44.244C55.7236 43.7902 56.2228 42.8373 56.2228 41.4306V15.1572Z" fill="#FFCA1F"/>
<path opacity="0.91" d="M55.2247 15.1572C55.2247 12.3892 53.2735 9.03124 50.8685 7.62455L50.5963 7.44304C50.5963 7.21616 50.3694 6.98927 50.0517 6.85314V4.22126C50.0063 4.08513 49.9156 3.949 49.7795 3.85824V2.49693C50.2786 2.3608 50.5963 2.08853 50.5963 1.77089V1.27174C50.5963 1.31712 50.5509 1.3625 50.5509 1.40788C50.5963 1.3625 50.5963 1.31712 50.5963 1.27174C50.5963 0.817972 50.0063 0.500332 49.2349 0.500332C48.4635 0.500332 47.8736 0.86335 47.8736 1.27174V1.77089C47.8736 1.86165 47.919 1.99778 47.9644 2.08853C48.0551 2.17929 48.1459 2.27004 48.282 2.31542C48.4181 2.40617 48.5543 2.45155 48.6904 2.49693V3.81287C48.5543 3.85824 48.4181 3.99438 48.4181 4.17589V6.17248L39.5696 1.09024C38.3898 0.409578 37.3007 0.318823 36.4839 0.772595L33.126 2.72381C33.8974 2.27004 33.8974 2.27004 33.126 2.72381C32.3546 3.17759 31.8555 4.13051 31.8555 5.5372V31.8106C31.8555 34.5786 33.8067 37.9365 36.2117 39.3432L47.556 45.8775C48.7358 46.5582 49.8248 46.6489 50.6416 46.1952C51.4584 45.7414 51.413 45.7414 50.6416 46.1952L53.9995 44.244C54.771 43.7902 55.2701 42.8373 55.2701 41.4306L55.2247 15.1572Z" fill="#FFC817"/>
<path opacity="0.94" d="M54.2247 15.1572C54.2247 12.3892 52.2735 9.03124 49.8685 7.62455L49.5962 7.44304C49.5962 7.21616 49.3694 6.98927 49.0517 6.85314V4.22126C49.0063 4.08513 48.9156 3.949 48.7795 3.85824V2.49693C49.2786 2.3608 49.5962 2.08853 49.5962 1.77089V1.27174C49.5962 1.31712 49.5509 1.3625 49.5509 1.40788C49.5963 1.3625 49.5962 1.31712 49.5962 1.27174C49.5962 0.817972 49.0063 0.500332 48.2349 0.500332C47.4635 0.500332 46.8736 0.86335 46.8736 1.27174V1.77089C46.8736 1.86165 46.919 1.99778 46.9644 2.08853C47.0551 2.17929 47.1459 2.27004 47.282 2.31542C47.4181 2.40617 47.5543 2.45155 47.6904 2.49693V3.81287C47.5543 3.85824 47.4181 3.99438 47.4181 4.17589V6.17248L38.5696 1.09024C37.3898 0.409578 36.3007 0.318823 35.4839 0.772595L32.126 2.72381C32.8974 2.27004 32.8974 2.27004 32.126 2.72381C31.3546 3.17759 30.8555 4.13051 30.8555 5.5372V31.8106C30.8555 34.5786 32.8067 37.9365 35.2117 39.3432L46.556 45.8775C47.7358 46.5582 48.8248 46.6489 49.6416 46.1952C50.4584 45.7414 50.413 45.7414 49.6416 46.1952L52.9995 44.244C53.771 43.7902 54.2701 42.8373 54.2701 41.4306L54.2247 15.1572Z" fill="#FFC70F"/>
<path opacity="0.97" d="M53.2271 15.1572C53.2271 12.3892 51.2759 9.03124 48.8709 7.62455L48.5987 7.44304C48.5987 7.21616 48.3718 6.98927 48.0541 6.85314V4.22126C48.0088 4.08513 47.918 3.949 47.7819 3.85824V2.49693C48.281 2.3608 48.5987 2.08853 48.5987 1.77089V1.27174C48.5987 1.31712 48.5533 1.3625 48.5533 1.40788C48.5987 1.3625 48.5987 1.31712 48.5987 1.27174C48.5987 0.817972 48.0088 0.500332 47.2373 0.500332C46.4659 0.500332 45.876 0.86335 45.876 1.27174V1.77089C45.876 1.86165 45.9214 1.99778 45.9668 2.08853C46.0575 2.17929 46.1483 2.27004 46.2844 2.31542C46.4206 2.40617 46.5567 2.45155 46.6928 2.49693V3.81287C46.5567 3.85824 46.4206 3.99438 46.4206 4.17589V6.17248L37.5266 1.09024C36.3468 0.409578 35.2578 0.318823 34.441 0.772595L31.0831 2.72381C31.8545 2.27004 31.8545 2.27004 31.0831 2.72381C30.3117 3.17759 29.8125 4.13051 29.8125 5.5372V31.8106C29.8125 34.5786 31.7637 37.9365 34.1687 39.3432L45.513 45.8775C46.6928 46.5582 47.7819 46.6489 48.5987 46.1952C49.4155 45.7414 49.3701 45.7414 48.5987 46.1952L51.9566 44.244C52.728 43.7902 53.2271 42.8373 53.2271 41.4306V15.1572Z" fill="#FFC508"/>
<path d="M52.1837 15.1572C52.1837 12.3892 50.2325 9.03124 47.8275 7.62455L47.5552 7.44304C47.5552 7.21616 47.3283 6.98927 47.0107 6.85314V4.22126C46.9653 4.08513 46.8746 3.949 46.7384 3.85824V2.49693C47.2376 2.3608 47.5552 2.08853 47.5552 1.77089V1.27174C47.5552 1.31712 47.5099 1.3625 47.5099 1.40788C47.5552 1.3625 47.5552 1.31712 47.5552 1.27174C47.5552 0.817972 46.9653 0.500332 46.1939 0.500332C45.4225 0.500332 44.8326 0.86335 44.8326 1.27174V1.77089C44.8326 1.86165 44.878 1.99778 44.9234 2.08853C45.0141 2.17929 45.1049 2.27004 45.241 2.31542C45.3771 2.40617 45.5133 2.45155 45.6494 2.49693V3.81287C45.5586 3.90362 45.4225 4.03975 45.4225 4.22126V6.21786L36.5286 1.09024C35.3488 0.409578 34.2597 0.318823 33.4429 0.772595L30.085 2.72381C30.8564 2.27004 30.8564 2.27004 30.085 2.72381C29.3136 3.17759 28.8145 4.13051 28.8145 5.5372V31.8106C28.8145 34.5786 30.7657 37.9365 33.1707 39.3432L44.515 45.8775C45.6948 46.5582 46.7838 46.6489 47.6006 46.1952C48.4174 45.7414 48.372 45.7414 47.6006 46.1952L50.9585 44.244C51.7299 43.7902 52.2291 42.8373 52.2291 41.4306L52.1837 15.1572Z" fill="#FFC300"/>
</g>
<path d="M33.1707 3.04092L44.515 9.57524C46.92 10.9366 48.8712 14.3398 48.8712 17.1079V43.3812C48.8712 44.7426 48.372 45.7409 47.6006 46.1946C46.8292 46.6484 45.7401 46.603 44.515 45.877L33.1707 39.3427C30.7657 37.9814 28.8145 34.5781 28.8145 31.8101V5.53667C28.8145 4.17535 29.3136 3.17705 30.085 2.72328C30.9018 2.26951 31.9909 2.36026 33.1707 3.04092Z" fill="#262626"/>
<path d="M32.6715 23.824L35.4849 25.4576C35.5302 25.503 35.621 25.5484 35.6664 25.5938C35.8933 25.8206 36.0294 26.0929 36.0294 26.4105C36.0294 26.7736 35.8025 26.9097 35.4849 26.7282L32.6715 25.0946C32.3538 24.8677 32.127 24.5501 32.127 24.1417C32.127 23.824 32.3538 23.6879 32.6715 23.824Z" fill="#FF481E"/>
<path d="M32.6715 27.2269L35.5302 28.8605C35.8479 29.0874 36.0294 29.405 36.0748 29.8134C36.0748 30.1764 35.8479 30.3125 35.5302 30.131L32.6715 28.4975C32.3538 28.2706 32.127 27.9529 32.127 27.5445C32.127 27.2269 32.3538 27.0454 32.6715 27.2269Z" fill="#DBDBDB"/>
<path d="M32.6715 30.9028L35.5302 32.5364C35.8479 32.7633 36.0294 33.0809 36.0748 33.4893C36.0748 33.8523 35.8479 33.9885 35.5302 33.8069L32.6715 32.1734C32.3538 31.9465 32.127 31.6288 32.127 31.2204C32.127 30.8574 32.3538 30.7213 32.6715 30.9028Z" fill="#DBDBDB"/>
<path d="M41.112 11.5718L36.5289 8.93996C36.3474 8.84921 36.2113 8.6677 36.1205 8.48619C36.0298 8.35006 35.9844 8.16855 35.9844 7.98704C35.9844 7.62403 36.2113 7.48789 36.5289 7.6694L41.112 10.3013C41.4296 10.5282 41.6565 10.8458 41.6565 11.2542C41.6565 11.3903 41.6111 11.5265 41.5204 11.5718C41.4296 11.6626 41.2481 11.6626 41.112 11.5718Z" fill="#646873"/>
<path d="M42.2008 40.0234L45.0595 41.657C45.3772 41.8839 45.5587 42.2015 45.6041 42.6099C45.6041 42.9729 45.3772 43.1091 45.0595 42.9275L42.2008 41.294C41.8831 41.0671 41.6562 40.7494 41.6562 40.341C41.6562 39.978 41.8831 39.8419 42.2008 40.0234Z" fill="#DBDBDB"/>
<path d="M42.2008 36.3935L45.0595 38.0271C45.3772 38.254 45.5587 38.5716 45.6041 38.98C45.6041 39.343 45.3772 39.4792 45.0595 39.2977L42.2008 37.6641C41.8831 37.4372 41.6562 37.1196 41.6562 36.7112C41.6562 36.3481 41.8831 36.212 42.2008 36.3935Z" fill="#DBDBDB"/>
<path d="M37.4371 37.3008L40.2959 38.9343C40.6135 39.1612 40.8404 39.4789 40.8404 39.8873C40.8404 40.2503 40.6135 40.3864 40.2959 40.2049L37.4371 38.5713C37.1195 38.3444 36.8926 38.0268 36.8926 37.6184C36.8926 37.2554 37.1195 37.1192 37.4371 37.3008Z" fill="#DBDBDB"/>
<path d="M37.4824 27.2726C37.4824 27.0911 37.5278 26.9096 37.5732 26.7281C37.7547 26.2743 38.2538 26.1382 38.8437 26.4558C39.4336 26.8642 39.8874 27.4541 40.1143 28.1348C40.1597 28.3617 40.2051 28.5432 40.2051 28.7701C40.2051 29.6322 39.6152 29.9952 38.8437 29.5415C38.0269 29.0877 37.5278 28.2255 37.4824 27.2726Z" fill="#FAFAFA"/>
<path d="M32.6715 34.5327L35.5302 36.1663C35.8479 36.3931 36.0294 36.7108 36.0748 37.1192C36.0748 37.4822 35.8479 37.6183 35.5302 37.4368L32.6715 35.8032C32.3538 35.5764 32.127 35.2587 32.127 34.8503C32.127 34.4873 32.3538 34.3512 32.6715 34.5327Z" fill="#DBDBDB"/>
<path d="M37.4371 29.9951L40.2959 31.6287C40.6135 31.8556 40.8404 32.1732 40.8404 32.5816C40.8404 32.9446 40.6135 33.0807 40.2959 32.8992L37.4371 31.2656C37.1195 31.0388 36.8926 30.7211 36.8926 30.3127C36.8926 29.9497 37.1195 29.8136 37.4371 29.9951Z" fill="#DBDBDB"/>
<path d="M42.2008 32.7632L45.0595 34.3967C45.3772 34.6236 45.5587 34.9413 45.6041 35.3497C45.6041 35.7127 45.3772 35.8488 45.0595 35.6673L42.2008 34.0337C41.8831 33.8068 41.6562 33.4892 41.6562 33.0808C41.6562 32.7178 41.8831 32.5816 42.2008 32.7632Z" fill="#DBDBDB"/>
<path d="M37.4371 33.6255L40.2959 35.259C40.6135 35.4859 40.8404 35.8036 40.8404 36.212C40.8404 36.575 40.6135 36.7111 40.2959 36.5296L37.4371 34.896C37.1195 34.6691 36.8926 34.3515 36.8926 33.9431C36.8926 33.5801 37.1195 33.4439 37.4371 33.6255Z" fill="#DBDBDB"/>
<path d="M42.0197 29.2689C42.0651 29.2689 42.1559 29.3142 42.2012 29.3142L45.0146 30.9478C45.3323 31.1747 45.5138 31.4923 45.5591 31.9007C45.5591 32.2637 45.3323 32.3999 45.0146 32.2184L42.1559 30.5848C41.8382 30.3579 41.6113 30.0403 41.6113 29.6319C41.6567 29.3596 41.7928 29.2235 42.0197 29.2689Z" fill="#94D400"/>
<path d="M44.5152 15.8373C45.7858 16.6541 46.6026 18.0608 46.6933 19.5582V26.9547C46.6933 28.316 45.7858 28.8606 44.606 28.2707L33.8516 9.66602L44.5152 15.8373Z" fill="url(#paint1_linear_3165_2780)"/>
<path d="M33.1722 9.3032L33.8529 9.7116L44.6073 28.3162L44.5165 28.2255L33.1722 21.6912C31.9017 20.8744 31.0849 19.4677 30.9941 17.9249V10.5284C30.9941 9.16707 31.9924 8.57717 33.1722 9.3032Z" fill="#FFC600"/>
<path d="M48.8263 43.3814V17.0626C48.8263 14.2946 46.875 10.9367 44.5154 9.57537L33.1711 3.04105C31.9913 2.31502 30.9023 2.26964 30.1309 2.72341L33.4888 0.772191C34.2602 0.318419 35.3492 0.363796 36.5744 1.08983L47.9187 7.62415C50.3237 8.98546 52.2749 12.3888 52.2749 15.1568V41.4302C52.2749 42.7915 51.7758 43.7898 51.0044 44.2435L47.6465 46.1948C48.3725 45.741 48.8716 44.7427 48.8263 43.3814Z" fill="url(#paint2_linear_3165_2780)"/>
<path d="M46.2402 9.25767C46.9921 9.25767 47.6015 8.9123 47.6015 8.48626C47.6015 8.06022 46.9921 7.71484 46.2402 7.71484C45.4884 7.71484 44.8789 8.06022 44.8789 8.48626C44.8789 8.9123 45.4884 9.25767 46.2402 9.25767Z" fill="#FAFAFA"/>
<path d="M46.2402 8.25921C45.4688 8.25921 44.8789 7.89619 44.8789 7.48779V8.53147C44.8789 8.98524 45.4688 9.30288 46.2402 9.30288C47.0116 9.30288 47.6015 8.93986 47.6015 8.53147V7.48779C47.6015 7.94156 46.9663 8.25921 46.2402 8.25921Z" fill="url(#paint3_linear_3165_2780)"/>
<path d="M46.2402 8.25962C46.9921 8.25962 47.6015 7.91425 47.6015 7.48821C47.6015 7.06217 46.9921 6.7168 46.2402 6.7168C45.4884 6.7168 44.8789 7.06217 44.8789 7.48821C44.8789 7.91425 45.4884 8.25962 46.2402 8.25962Z" fill="#454545"/>
<path d="M46.2406 7.89631C46.6917 7.89631 47.0574 7.69315 47.0574 7.44254C47.0574 7.19193 46.6917 6.98877 46.2406 6.98877C45.7895 6.98877 45.4238 7.19193 45.4238 7.44254C45.4238 7.69315 45.7895 7.89631 46.2406 7.89631Z" fill="#FAFAFA"/>
<path d="M46.2406 4.67448C45.7868 4.67448 45.4238 4.44759 45.4238 4.2207V7.44248C45.4238 7.71475 45.7868 7.89626 46.2406 7.89626C46.6944 7.89626 47.0574 7.66937 47.0574 7.44248V4.2207C47.0574 4.44759 46.6944 4.67448 46.2406 4.67448Z" fill="url(#paint4_linear_3165_2780)"/>
<path d="M46.2406 4.71998C46.6917 4.71998 47.0574 4.4965 47.0574 4.22083C47.0574 3.94516 46.6917 3.72168 46.2406 3.72168C45.7895 3.72168 45.4238 3.94516 45.4238 4.22083C45.4238 4.4965 45.7895 4.71998 46.2406 4.71998Z" fill="#454545"/>
<path d="M46.2398 4.49319C46.5406 4.49319 46.7844 4.35098 46.7844 4.17555C46.7844 4.00012 46.5406 3.85791 46.2398 3.85791C45.9391 3.85791 45.6953 4.00012 45.6953 4.17555C45.6953 4.35098 45.9391 4.49319 46.2398 4.49319Z" fill="#FAFAFA"/>
<path d="M46.2398 2.36061C45.9222 2.36061 45.6953 2.22448 45.6953 2.04297V4.1757C45.6953 4.35721 45.9222 4.49334 46.2398 4.49334C46.5575 4.49334 46.7844 4.35721 46.7844 4.1757V2.04297C46.739 2.22448 46.5121 2.36061 46.2398 2.36061Z" fill="url(#paint5_linear_3165_2780)"/>
<path d="M46.2398 2.36038C46.5406 2.36038 46.7844 2.21817 46.7844 2.04274C46.7844 1.86731 46.5406 1.7251 46.2398 1.7251C45.9391 1.7251 45.6953 1.86731 45.6953 2.04274C45.6953 2.21817 45.9391 2.36038 46.2398 2.36038Z" fill="#EDEDED"/>
<path d="M46.2402 2.54185C46.9921 2.54185 47.6015 2.19648 47.6015 1.77044C47.6015 1.3444 46.9921 0.999023 46.2402 0.999023C45.4884 0.999023 44.8789 1.3444 44.8789 1.77044C44.8789 2.19648 45.4884 2.54185 46.2402 2.54185Z" fill="#FAFAFA"/>
<path d="M46.2402 2.08827C45.4688 2.08827 44.8789 1.72526 44.8789 1.31686V1.81601C44.8789 2.26978 45.4688 2.58742 46.2402 2.58742C47.0116 2.58742 47.6015 2.22441 47.6015 1.81601V1.27148C47.6015 1.72526 46.9663 2.08827 46.2402 2.08827Z" fill="url(#paint6_linear_3165_2780)"/>
<path d="M46.2402 2.04282C46.9921 2.04282 47.6015 1.69745 47.6015 1.27141C47.6015 0.845373 46.9921 0.5 46.2402 0.5C45.4884 0.5 44.8789 0.845373 44.8789 1.27141C44.8789 1.69745 45.4884 2.04282 46.2402 2.04282Z" fill="#454545"/>
</g>
<defs>
<linearGradient id="paint0_linear_3165_2780" x1="0.5" y1="54.7716" x2="80.5363" y2="54.7716" gradientUnits="userSpaceOnUse">
<stop stop-color="#FFED44"/>
<stop offset="0.07" stop-color="#FFF047"/>
<stop offset="0.3" stop-color="#FFF24A"/>
<stop offset="0.55" stop-color="#FFE23A"/>
<stop offset="0.74" stop-color="#FFDC34"/>
<stop offset="1" stop-color="#F9B519"/>
</linearGradient>
<linearGradient id="paint1_linear_3165_2780" x1="33.8516" y1="19.088" x2="46.6752" y2="19.088" gradientUnits="userSpaceOnUse">
<stop stop-color="#FFA500"/>
<stop offset="0.06" stop-color="#FFA700"/>
<stop offset="0.3" stop-color="#FFAA00"/>
<stop offset="0.55" stop-color="#FF9A00"/>
<stop offset="0.74" stop-color="#FF9400"/>
<stop offset="1" stop-color="#FF6D00"/>
</linearGradient>
<linearGradient id="paint2_linear_3165_2780" x1="33.4298" y1="0.953179" x2="56.6062" y2="41.2801" gradientUnits="userSpaceOnUse">
<stop stop-color="#383838"/>
<stop offset="0.1" stop-color="#3D3B3C"/>
<stop offset="0.3" stop-color="#403D3E"/>
<stop offset="0.55" stop-color="#302D2E"/>
<stop offset="0.74" stop-color="#2A2728"/>
<stop offset="1"/>
</linearGradient>
<linearGradient id="paint3_linear_3165_2780" x1="44.8471" y1="8.39307" x2="47.5834" y2="8.39307" gradientUnits="userSpaceOnUse">
<stop stop-color="#383838"/>
<stop offset="0.1" stop-color="#3D3B3C"/>
<stop offset="0.3" stop-color="#403D3E"/>
<stop offset="0.4" stop-color="#333031"/>
<stop offset="0.63" stop-color="#171616"/>
<stop offset="0.84" stop-color="#060606"/>
<stop offset="1"/>
</linearGradient>
<linearGradient id="paint4_linear_3165_2780" x1="45.3966" y1="6.04714" x2="47.0393" y2="6.04714" gradientUnits="userSpaceOnUse">
<stop stop-color="#383838"/>
<stop offset="0.1" stop-color="#3D3B3C"/>
<stop offset="0.3" stop-color="#403D3E"/>
<stop offset="0.4" stop-color="#333031"/>
<stop offset="0.63" stop-color="#171616"/>
<stop offset="0.84" stop-color="#060606"/>
<stop offset="1"/>
</linearGradient>
<linearGradient id="paint5_linear_3165_2780" x1="45.6772" y1="3.26815" x2="46.7571" y2="3.26815" gradientUnits="userSpaceOnUse">
<stop stop-color="#383838"/>
<stop offset="0.1" stop-color="#3D3B3C"/>
<stop offset="0.3" stop-color="#403D3E"/>
<stop offset="0.4" stop-color="#333031"/>
<stop offset="0.63" stop-color="#171616"/>
<stop offset="0.84" stop-color="#060606"/>
<stop offset="1"/>
</linearGradient>
<linearGradient id="paint6_linear_3165_2780" x1="44.8471" y1="1.93399" x2="47.5834" y2="1.93399" gradientUnits="userSpaceOnUse">
<stop stop-color="#383838"/>
<stop offset="0.1" stop-color="#3D3B3C"/>
<stop offset="0.3" stop-color="#403D3E"/>
<stop offset="0.4" stop-color="#333031"/>
<stop offset="0.63" stop-color="#171616"/>
<stop offset="0.84" stop-color="#060606"/>
<stop offset="1"/>
</linearGradient>
<clipPath id="clip0_3165_2780">
<rect width="80" height="69.6994" fill="white" transform="translate(0.5 0.5)"/>
</clipPath>
</defs>
</svg>
