<svg width="81" height="74" viewBox="0 0 81 74" fill="none" xmlns="http://www.w3.org/2000/svg">
<g clip-path="url(#clip0_3165_3051)">
<path d="M67.2574 34.6946C49.6156 24.4905 31.3844 24.4905 13.7426 34.6946C4.89909 39.7739 0.5 44.944 0.5 50.1141C0.5 55.2841 4.89909 60.4542 13.7426 65.5789C31.3844 75.783 49.6156 75.783 67.2574 65.5789C76.1009 60.4996 80.5 55.2841 80.5 50.1141C80.5 44.944 76.1009 39.7739 67.2574 34.6946Z" fill="#949494"/>
<path d="M67.2574 57.8696C49.6156 68.0737 31.3844 68.0737 13.7426 57.8696C4.89909 52.7903 0.5 47.6202 0.5 42.4048V50.1145C0.5 55.2846 4.89909 60.4547 13.7426 65.5794C31.3844 75.7835 49.6156 75.7835 67.2574 65.5794C76.1009 60.5 80.5 55.2846 80.5 50.1145V42.4048C80.5 47.6202 76.1009 52.7903 67.2574 57.8696Z" fill="url(#paint0_linear_3165_3051)"/>
<path d="M67.2574 26.9851C49.6156 16.781 31.3844 16.781 13.7426 26.9851C4.89909 32.0645 0.5 37.2345 0.5 42.4046C0.5 47.5747 4.89909 52.7447 13.7426 57.8694C31.3844 68.0735 49.6156 68.0735 67.2574 57.8694C76.1009 52.7901 80.5 47.5747 80.5 42.4046C80.5 37.2345 76.1009 32.0645 67.2574 26.9851Z" fill="#B0BCCC"/>
<mask id="mask0_3165_3051" style="mask-type:luminance" maskUnits="userSpaceOnUse" x="0" y="23" width="74" height="43">
<path d="M61.6791 30.205C45.4887 20.8626 28.7993 20.8626 12.6088 30.205C4.53628 34.8762 0.5 39.5928 0.5 44.3547C0.5 49.1166 4.53628 53.8332 12.6542 58.5044C28.8447 67.8468 45.534 67.8468 61.7245 58.5044C69.797 53.8332 73.8787 49.0713 73.8787 44.3547C73.8787 39.6382 69.797 34.8762 61.6791 30.205Z" fill="white"/>
</mask>
<g mask="url(#mask0_3165_3051)">
<path opacity="0.03" d="M82.1797 40.9081L78.4155 38.7312C76.8736 37.9149 75.1502 37.416 73.3815 37.3707C73.5176 37.5974 73.6536 37.8242 73.7897 38.0509C74.0164 38.4591 74.1978 38.8673 74.4246 39.2754C74.2432 38.8673 74.0618 38.4591 73.7897 38.0509C72.792 36.2822 71.3861 34.7856 69.6627 33.6972L67.4405 32.4273L67.2591 32.3366C67.123 32.2459 66.9416 32.1552 66.8056 32.0192L63.0414 29.8423C59.8214 27.9829 54.606 27.9829 51.386 29.8423C49.8441 30.7493 48.9824 31.9285 48.9824 33.1983V37.6881C48.9824 38.958 49.8441 40.1371 51.386 41.0441L55.1502 43.221C56.9643 44.1734 58.9597 44.6722 61.0006 44.6269C62.1343 44.6269 63.2681 44.4908 64.3566 44.2187V46.577C64.3566 47.8468 65.2183 49.026 66.7602 49.933L70.5244 52.1099C74.1978 53.9693 78.5062 53.9693 82.1797 52.1099C83.7217 51.2029 84.5833 50.0237 84.5833 48.7539V44.2641C84.5833 42.9942 83.7217 41.8151 82.1797 40.9081Z" fill="#FCFDFE"/>
<path opacity="0.06" d="M81.2266 40.9081L77.4624 38.7312C75.9204 37.9149 74.1971 37.416 72.4284 37.3707C72.5644 37.5974 72.7005 37.8242 72.8366 38.0509C73.0633 38.4591 73.2447 38.8673 73.4715 39.2754C73.2901 38.8673 73.1087 38.4591 72.8366 38.0509C71.8388 36.2822 70.4329 34.7856 68.7096 33.6972L66.4873 32.4273L66.3059 32.3366C66.1699 32.2459 65.9885 32.1552 65.8524 32.0192L62.0883 29.8423C58.8683 27.9829 53.6529 27.9829 50.4329 29.8423C48.891 30.7493 48.0293 31.9285 48.0293 33.1983V37.6881C48.0293 38.958 48.891 40.1371 50.4329 41.0441L54.1971 43.221C56.0112 44.1734 58.0066 44.6722 60.0474 44.6269C61.1812 44.6269 62.315 44.4908 63.4034 44.2187V46.577C63.4034 47.8468 64.2651 49.026 65.8071 49.933L69.5712 52.1099C73.2447 53.9693 77.5531 53.9693 81.2266 52.1099C82.7685 51.2029 83.6302 50.0237 83.6302 48.7539V44.2641C83.6302 42.9942 82.7685 41.8151 81.2266 40.9081Z" fill="#F9FAFC"/>
<path opacity="0.09" d="M80.3203 40.9081L76.5561 38.7312C75.0142 37.9149 73.2908 37.416 71.5221 37.3707C71.6582 37.5974 71.7942 37.8242 71.9303 38.0509C72.1571 38.4591 72.3385 38.8673 72.5652 39.2754C72.3838 38.8673 72.2024 38.4591 71.9303 38.0509C70.9326 36.2822 69.5267 34.7856 67.8033 33.6972L65.5811 32.4273L65.3997 32.3366C65.2636 32.2459 65.0822 32.1552 64.9462 32.0192L61.182 29.8423C57.962 27.9829 52.7466 27.9829 49.5267 29.8423C47.9847 30.7493 47.123 31.9285 47.123 33.1983V37.6881C47.123 38.958 47.9847 40.1371 49.5267 41.0441L53.2908 43.221C55.1049 44.1734 57.1004 44.6722 59.1412 44.6269C60.275 44.6269 61.4088 44.4908 62.4972 44.2187V46.577C62.4972 47.8468 63.3589 49.026 64.9008 49.933L68.665 52.1099C72.3385 53.9693 76.6469 53.9693 80.3203 52.1099C81.8623 51.2029 82.724 50.0237 82.724 48.7539V44.2641C82.724 42.9942 81.8623 41.8151 80.3203 40.9081Z" fill="#F6F8FB"/>
<path opacity="0.12" d="M79.3672 40.9081L75.603 38.7312C74.0611 37.9149 72.3377 37.416 70.569 37.3707C70.7051 37.5974 70.8411 37.8242 70.9772 38.0509C71.2039 38.4591 71.3853 38.8673 71.6121 39.2754C71.4307 38.8673 71.2493 38.4591 70.9772 38.0509C69.9794 36.2822 68.5736 34.7856 66.8502 33.6972L64.628 32.4273L64.4466 32.3366C64.3105 32.2459 64.1291 32.1552 63.9931 32.0192L60.2289 29.8423C57.0089 27.9829 51.7935 27.9829 48.5736 29.8423C47.0316 30.7493 46.1699 31.9285 46.1699 33.1983V37.6881C46.1699 38.958 47.0316 40.1371 48.5736 41.0441L52.3377 43.221C54.1518 44.1734 56.1472 44.6722 58.1881 44.6269C59.3218 44.6269 60.4556 44.4908 61.5441 44.2187V46.577C61.5441 47.8468 62.4057 49.026 63.9477 49.933L67.7119 52.1099C71.3853 53.9693 75.6937 53.9693 79.3672 52.1099C80.9092 51.2029 81.7708 50.0237 81.7708 48.7539V44.2641C81.8162 42.9942 80.9545 41.8151 79.3672 40.9081Z" fill="#F3F6F9"/>
<path opacity="0.15" d="M78.4609 40.9081L74.6968 38.7312C73.1548 37.9149 71.4315 37.416 69.6628 37.3707C69.7988 37.5974 69.9349 37.8242 70.0709 38.0509C70.2977 38.4591 70.4791 38.8673 70.7059 39.2754C70.5244 38.8673 70.343 38.4591 70.0709 38.0509C69.0732 36.2822 67.6673 34.7856 65.9439 33.6972L63.7217 32.4273L63.5403 32.3366C63.4043 32.2459 63.2229 32.1552 63.0868 32.0192L59.3226 29.8423C56.1027 27.9829 50.8873 27.9829 47.6673 29.8423C46.1254 30.7493 45.2637 31.9285 45.2637 33.1983V37.6881C45.2637 38.958 46.1254 40.1371 47.6673 41.0441L51.4315 43.221C53.2455 44.1734 55.241 44.6722 57.2818 44.6269C58.4156 44.6269 59.5494 44.4908 60.6378 44.2187V46.577C60.6378 47.8468 61.4995 49.026 63.0414 49.933L66.8056 52.1099C70.4791 53.9693 74.7875 53.9693 78.4609 52.1099C80.0029 51.2029 80.8646 50.0237 80.8646 48.7539V44.2641C80.8646 42.9942 80.0029 41.8151 78.4609 40.9081Z" fill="#F0F3F8"/>
<path opacity="0.18" d="M77.5527 40.9081L73.7886 38.7312C72.2466 37.9149 70.5233 37.416 68.7546 37.3707C68.8906 37.5974 69.0267 37.8242 69.1627 38.0509C69.3895 38.4591 69.5709 38.8673 69.7976 39.2754C69.6162 38.8673 69.4348 38.4591 69.1627 38.0509C68.165 36.2822 66.7591 34.7856 65.0357 33.6972L62.8135 32.4273L62.6321 32.3366C62.4961 32.2459 62.3147 32.1552 62.1786 32.0192L58.4144 29.8423C55.1945 27.9829 49.9791 27.9829 46.7591 29.8423C45.2171 30.7493 44.3555 31.9285 44.3555 33.1983V37.6881C44.3555 38.958 45.2171 40.1371 46.7591 41.0441L50.5233 43.221C52.292 44.1734 54.2874 44.6269 56.3283 44.6269C57.462 44.6269 58.5958 44.4908 59.6843 44.2187V46.577C59.6843 47.8468 60.5459 49.026 62.0879 49.933L65.8521 52.1099C69.5255 53.9693 73.8339 53.9693 77.5074 52.1099C79.0494 51.2029 79.911 50.0237 79.911 48.7539V44.2641C79.9564 42.9942 79.0947 41.8151 77.5527 40.9081Z" fill="#EDF1F6"/>
<path opacity="0.21" d="M76.6016 40.9081L72.8374 38.7312C71.2955 37.9149 69.5721 37.416 67.8034 37.3707C67.9394 37.5974 68.0755 37.8242 68.2116 38.0509C68.4383 38.4591 68.6197 38.8673 68.8465 39.2754C68.6651 38.8673 68.4837 38.4591 68.2116 38.0509C67.2138 36.2822 65.8079 34.7856 64.0846 33.6972L61.8623 32.4273L61.6809 32.3366C61.5449 32.2459 61.3635 32.1552 61.2274 32.0192L57.4633 29.8423C54.2433 27.9829 49.0279 27.9829 45.8079 29.8423C44.266 30.7493 43.4043 31.9285 43.4043 33.1983V37.6881C43.4043 38.958 44.266 40.1371 45.8079 41.0441L49.5721 43.221C51.3408 44.1734 53.3816 44.6269 55.3771 44.6269C56.5109 44.6269 57.6447 44.4908 58.7331 44.2187V46.577C58.7331 47.8468 59.5948 49.026 61.1367 49.933L64.9009 52.1099C68.5744 53.9693 72.8828 53.9693 76.5562 52.1099C78.0982 51.2029 78.9599 50.0237 78.9599 48.7539V44.2641C79.0506 42.9942 78.1889 41.8151 76.6016 40.9081Z" fill="#EAEFF5"/>
<path opacity="0.24" d="M75.6934 40.9081L71.9292 38.7312C70.3872 37.9149 68.6639 37.416 66.8952 37.3707C67.0312 37.5974 67.1673 37.8242 67.3034 38.0509C67.5301 38.4591 67.7115 38.8673 67.9383 39.2754C67.7569 38.8673 67.5755 38.4591 67.3034 38.0509C66.3056 36.2822 64.8997 34.7856 63.1764 33.6972L60.9541 32.4273L60.7727 32.3366C60.6367 32.2459 60.4553 32.1552 60.3192 32.0192L56.5551 29.8423C53.3351 27.9829 48.1197 27.9829 44.8997 29.8423C43.3578 30.7493 42.4961 31.9285 42.4961 33.1983V37.6881C42.4961 38.958 43.3578 40.1371 44.8997 41.0441L48.6639 43.221C50.478 44.1734 52.4734 44.6722 54.5142 44.6269C55.648 44.6269 56.7818 44.4908 57.8702 44.2187V46.577C57.8702 47.8468 58.7319 49.026 60.2739 49.933L64.038 52.1099C67.7115 53.9693 72.0199 53.9693 75.6934 52.1099C77.2353 51.2029 78.097 50.0237 78.097 48.7539V44.2641C78.097 42.9942 77.2353 41.8151 75.6934 40.9081Z" fill="#E7ECF3"/>
<path opacity="0.27" d="M74.7871 40.9081L71.023 38.7312C69.481 37.9149 67.7576 37.416 65.9889 37.3707C66.125 37.5974 66.261 37.8242 66.3971 38.0509C66.6239 38.4591 66.8053 38.8673 67.032 39.2754C66.8506 38.8673 66.6692 38.4591 66.3971 38.0509C65.3994 36.2822 63.9935 34.7856 62.2701 33.6972L60.0479 32.4273L59.8665 32.3366C59.7304 32.2459 59.549 32.1552 59.413 32.0192L55.6488 29.8423C52.4288 27.9829 47.2134 27.9829 43.9935 29.8423C42.4515 30.7493 41.5898 31.9285 41.5898 33.1983V37.6881C41.5898 38.958 42.4515 40.1371 43.9935 41.0441L47.7576 43.221C49.5717 44.1734 51.5672 44.6722 53.608 44.6269C54.7418 44.6269 55.8756 44.4908 56.964 44.2187V46.577C56.964 47.8468 57.8257 49.026 59.3676 49.933L63.1318 52.1099C66.8053 53.9693 71.1137 53.9693 74.7871 52.1099C76.3291 51.2029 77.1908 50.0237 77.1908 48.7539V44.2641C77.1908 42.9942 76.3291 41.8151 74.7871 40.9081Z" fill="#E4EAF2"/>
<path opacity="0.3" d="M73.834 40.9081L70.0698 38.7312C68.5279 37.9149 66.8045 37.416 65.0358 37.3707C65.1719 37.5974 65.3079 37.8242 65.444 38.0509C65.6707 38.4591 65.8521 38.8673 66.0789 39.2754C65.8975 38.8673 65.7161 38.4591 65.444 38.0509C64.4462 36.2822 63.0403 34.7856 61.317 33.6972L59.0948 32.4273L58.9134 32.3366C58.7773 32.2459 58.5959 32.1552 58.4598 32.0192L54.6957 29.8423C51.4757 27.9829 46.2603 27.9829 43.0403 29.8423C41.4984 30.7493 40.6367 31.9285 40.6367 33.1983V37.6881C40.6367 38.958 41.4984 40.1371 43.0403 41.0441L46.8045 43.221C48.6186 44.1734 50.614 44.6722 52.6549 44.6269C53.7886 44.6269 54.9224 44.4908 56.0109 44.2187V46.577C56.0109 47.8468 56.8725 49.026 58.4145 49.933L62.1787 52.1099C65.8521 53.9693 70.1605 53.9693 73.834 52.1099C75.3759 51.2029 76.2376 50.0237 76.2376 48.7539V44.2641C76.2376 42.9942 75.3759 41.8151 73.834 40.9081Z" fill="#E1E8F0"/>
<path opacity="0.33" d="M72.9277 40.9081L69.1636 38.7312C67.6216 37.9149 65.8983 37.416 64.1296 37.3707C64.2656 37.5974 64.4017 37.8242 64.5377 38.0509C64.7645 38.4591 64.9459 38.8673 65.1726 39.2754C64.9912 38.8673 64.8098 38.4591 64.5377 38.0509C63.54 36.2822 62.1341 34.7856 60.4107 33.6972L58.1885 32.4273L58.0071 32.3366C57.8711 32.2459 57.6897 32.1552 57.5536 32.0192L53.7894 29.8423C50.5695 27.9829 45.3541 27.9829 42.1341 29.8423C40.5921 30.7493 39.7305 31.9285 39.7305 33.1983V37.6881C39.7305 38.958 40.5921 40.1371 42.1341 41.0441L45.8983 43.221C47.7123 44.1734 49.7078 44.6722 51.7486 44.6269C52.8824 44.6269 54.0162 44.4908 55.1046 44.2187V46.577C55.1046 47.8468 55.9663 49.026 57.5082 49.933L61.2724 52.1099C64.9459 53.9693 69.2543 53.9693 72.9277 52.1099C74.4697 51.2029 75.3314 50.0237 75.3314 48.7539V44.2641C75.3314 42.9942 74.4697 41.8151 72.9277 40.9081Z" fill="#DEE5EF"/>
<path opacity="0.36" d="M71.9746 40.9081L68.2105 38.7312C66.6685 37.9149 64.9451 37.416 63.1764 37.3707C63.3125 37.5974 63.4485 37.8242 63.5846 38.0509C63.8114 38.4591 63.9928 38.8673 64.2195 39.2754C64.0381 38.8673 63.8567 38.4591 63.5846 38.0509C62.5869 36.2822 61.181 34.7856 59.4576 33.6972L57.2354 32.4273L57.054 32.3366C56.9179 32.2459 56.7365 32.1552 56.6005 32.0192L52.8363 29.8423C49.6163 27.9829 44.4009 27.9829 41.181 29.8423C39.639 30.7493 38.7773 31.9285 38.7773 33.1983V37.6881C38.7773 38.958 39.639 40.1371 41.181 41.0441L44.9451 43.221C46.7592 44.1734 48.7547 44.6722 50.7955 44.6269C51.9293 44.6269 53.0631 44.4908 54.1515 44.2187V46.577C54.1515 47.8468 55.0132 49.026 56.5551 49.933L60.3193 52.1099C63.9928 53.9693 68.3012 53.9693 71.9746 52.1099C73.5166 51.2029 74.3782 50.0237 74.3782 48.7539V44.2641C74.4236 42.9942 73.5619 41.8151 71.9746 40.9081Z" fill="#DBE3EE"/>
<path opacity="0.39" d="M71.0684 40.9081L67.3042 38.7312C65.7623 37.9149 64.0389 37.416 62.2702 37.3707C62.4062 37.5974 62.5423 37.8242 62.6784 38.0509C62.9051 38.4591 63.0865 38.8673 63.3133 39.2754C63.1319 38.8673 62.9505 38.4591 62.6784 38.0509C61.6806 36.2822 60.2747 34.7856 58.5514 33.6972L56.3291 32.4273L56.1477 32.3366C56.0117 32.2459 55.8303 32.1552 55.6942 32.0192L51.9301 29.8423C48.7101 27.9829 43.4947 27.9829 40.2747 29.8423C38.7328 30.7493 37.8711 31.9285 37.8711 33.1983V37.6881C37.8711 38.958 38.7328 40.1371 40.2747 41.0441L44.0389 43.221C45.853 44.1734 47.8484 44.6722 49.8892 44.6269C51.023 44.6269 52.1568 44.4908 53.2452 44.2187V46.577C53.2452 47.8468 54.1069 49.026 55.6489 49.933L59.413 52.1099C63.0865 53.9693 67.3949 53.9693 71.0684 52.1099C72.6103 51.2029 73.472 50.0237 73.472 48.7539V44.2641C73.472 42.9942 72.6103 41.8151 71.0684 40.9081Z" fill="#D8E1EC"/>
<path opacity="0.42" d="M70.1602 40.9081L66.396 38.7312C64.8541 37.9149 63.1307 37.416 61.362 37.3707C61.498 37.5974 61.6341 37.8242 61.7702 38.0509C61.9969 38.4591 62.1783 38.8673 62.4051 39.2754C62.2237 38.8673 62.0423 38.4591 61.7702 38.0509C60.7724 36.2822 59.3665 34.7856 57.6432 33.6972L55.4209 32.4273L55.2395 32.3366C55.1035 32.2459 54.9221 32.1552 54.786 32.0192L51.0218 29.8423C47.8019 27.9829 42.5865 27.9829 39.3665 29.8423C37.8246 30.7493 36.9629 31.9285 36.9629 33.1983V37.6881C36.9629 38.958 37.8246 40.1371 39.3665 41.0441L43.1307 43.221C44.9448 44.1734 46.9402 44.6722 48.981 44.6269C50.1148 44.6269 51.2486 44.4908 52.337 44.2187V46.577C52.337 47.8468 53.1987 49.026 54.7407 49.933L58.5048 52.1099C62.1783 53.9693 66.4867 53.9693 70.1602 52.1099C71.7021 51.2029 72.5638 50.0237 72.5638 48.7539V44.2641C72.5638 42.9942 71.7021 41.8151 70.1602 40.9081Z" fill="#D5DEEB"/>
<path opacity="0.45" d="M69.209 40.9081L65.4448 38.7312C63.9029 37.9149 62.1795 37.416 60.4108 37.3707C60.5469 37.5974 60.6829 37.8242 60.819 38.0509C61.0457 38.4591 61.2271 38.8673 61.4539 39.2754C61.2725 38.8673 61.0911 38.4591 60.819 38.0509C59.8212 36.2822 58.4153 34.7856 56.692 33.6972L54.4698 32.4273L54.2884 32.3366C54.1523 32.2459 53.9709 32.1552 53.8348 32.0192L50.0707 29.8423C46.8507 27.9829 41.6353 27.9829 38.4153 29.8423C36.8734 30.7493 36.0117 31.9285 36.0117 33.1983V37.6881C36.0117 38.958 36.8734 40.1371 38.4153 41.0441L42.1795 43.221C43.9482 44.1734 45.9437 44.6269 47.9845 44.6269C49.1183 44.6269 50.2521 44.4908 51.3405 44.2187V46.577C51.3405 47.8468 52.2022 49.026 53.7441 49.933L57.5083 52.1099C61.1818 53.9693 65.4902 53.9693 69.1636 52.1099C70.7056 51.2029 71.5673 50.0237 71.5673 48.7539V44.2641C71.658 42.9942 70.7963 41.8151 69.209 40.9081Z" fill="#D2DCE9"/>
<path opacity="0.48" d="M68.3008 40.9081L64.5366 38.7312C62.9947 37.9149 61.2713 37.416 59.5026 37.3707C59.6387 37.5974 59.7747 37.8242 59.9108 38.0509C60.1375 38.4591 60.3189 38.8673 60.5457 39.2754C60.3643 38.8673 60.1829 38.4591 59.9108 38.0509C58.913 36.2822 57.5071 34.7856 55.7838 33.6972L53.5616 32.4273L53.3802 32.3366C53.2441 32.2459 53.0627 32.1552 52.9266 32.0192L49.1625 29.8423C45.9425 27.9829 40.7271 27.9829 37.5071 29.8423C35.9652 30.7493 35.1035 31.9285 35.1035 33.1983V37.6881C35.1035 38.958 35.9652 40.1371 37.5071 41.0441L41.2713 43.221C43.0854 44.1734 45.0808 44.6722 47.1217 44.6269C48.2554 44.6269 49.3892 44.4908 50.4777 44.2187V46.577C50.4777 47.8468 51.3393 49.026 52.8813 49.933L56.6455 52.1099C60.3189 53.9693 64.6273 53.9693 68.3008 52.1099C69.8427 51.2029 70.7044 50.0237 70.7044 48.7539V44.2641C70.7044 42.9942 69.8427 41.8151 68.3008 40.9081Z" fill="#CFDAE8"/>
<path opacity="0.52" d="M67.3496 40.9081L63.5855 38.7312C62.0435 37.9149 60.3201 37.416 58.5514 37.3707C58.6875 37.5974 58.8235 37.8242 58.9596 38.0509C59.1864 38.4591 59.3678 38.8673 59.5945 39.2754C59.4131 38.8673 59.2317 38.4591 58.9596 38.0509C57.9619 36.2822 56.556 34.7856 54.8326 33.6972L52.6104 32.4273L52.429 32.3366C52.2929 32.2459 52.1115 32.1552 51.9755 32.0192L48.2113 29.8423C44.9913 27.9829 39.7759 27.9829 36.556 29.8423C35.014 30.7493 34.1523 31.9285 34.1523 33.1983V37.6881C34.1523 38.958 35.014 40.1371 36.556 41.0441L40.3201 43.221C42.1342 44.1734 44.1297 44.6722 46.1705 44.6269C47.3043 44.6269 48.4381 44.4908 49.5265 44.2187V46.577C49.5265 47.8468 50.3882 49.026 51.9301 49.933L55.6943 52.1099C59.3678 53.9693 63.6762 53.9693 67.3496 52.1099C68.8916 51.2029 69.7533 50.0237 69.7533 48.7539V44.2641C69.7986 42.9942 68.9369 41.8151 67.3496 40.9081Z" fill="#CCD7E6"/>
<path opacity="0.55" d="M66.4414 40.9081L62.6773 38.7312C61.1353 37.9149 59.4119 37.416 57.6432 37.3707C57.7793 37.5974 57.9153 37.8242 58.0514 38.0509C57.0537 36.2822 55.6478 34.7856 53.9244 33.6972L51.7022 32.4273L51.5208 32.3366C51.3847 32.2459 51.2033 32.1552 51.0673 32.0192L47.3031 29.8423C44.0831 27.9829 38.8677 27.9829 35.6478 29.8423C34.1058 30.7493 33.2441 31.9285 33.2441 33.1983V37.6881C33.2441 38.958 34.1058 40.1371 35.6478 41.0441L39.4119 43.221C41.1807 44.1734 43.2215 44.6269 45.2169 44.6269C46.3507 44.6269 47.4845 44.4908 48.5729 44.2187V46.577C48.5729 47.8468 49.4346 49.026 50.9766 49.933L54.7407 52.1099C58.4142 53.9693 62.7226 53.9693 66.3961 52.1099C67.938 51.2029 68.7997 50.0237 68.7997 48.7539V44.2641C68.8451 42.9942 68.0287 41.8151 66.4414 40.9081Z" fill="#C9D5E5"/>
<path opacity="0.58" d="M65.5352 40.9081L61.771 38.7312C60.2291 37.9149 58.5057 37.416 56.737 37.3707C56.873 37.5974 57.0091 37.8242 57.1451 38.0509C56.1474 36.2822 54.7415 34.7856 53.0182 33.6972L50.7959 32.4273L50.6145 32.3366C50.4785 32.2459 50.2971 32.1552 50.161 32.0192L46.3968 29.8423C43.1769 27.9829 37.9615 27.9829 34.7415 29.8423C33.1996 30.7493 32.3379 31.9285 32.3379 33.1983V37.6881C32.3379 38.958 33.1996 40.1371 34.7415 41.0441L38.5057 43.221C40.2744 44.1734 42.3152 44.6269 44.3107 44.6269C45.4445 44.6269 46.5783 44.4908 47.6667 44.2187V46.577C47.6667 47.8468 48.5284 49.026 50.0703 49.933L53.8345 52.1099C57.508 53.9693 61.8164 53.9693 65.4898 52.1099C67.0318 51.2029 67.8935 50.0237 67.8935 48.7539V44.2641C67.9388 42.9942 67.0771 41.8151 65.5352 40.9081Z" fill="#C6D3E3"/>
<path opacity="0.61" d="M64.582 40.9081L60.8179 38.7312C59.2759 37.9149 57.5526 37.416 55.7839 37.3707C55.9199 37.5974 56.056 37.8242 56.192 38.0509C55.1943 36.2822 53.7884 34.7856 52.065 33.6972L49.8428 32.4273L49.6614 32.3366C49.5254 32.2459 49.344 32.1552 49.2079 32.0192L45.4437 29.8423C42.2238 27.9829 37.0083 27.9829 33.7884 29.8423C32.2464 30.7493 31.3848 31.9285 31.3848 33.1983V37.6881C31.3848 38.958 32.2464 40.1371 33.7884 41.0441L37.5526 43.221C39.3213 44.1734 41.3621 44.6722 43.3576 44.6269C44.4913 44.6269 45.6251 44.4908 46.7136 44.2187V46.577C46.7136 47.8468 47.5752 49.026 49.1172 49.933L52.8814 52.1099C56.5548 53.9693 60.8632 53.9693 64.5367 52.1099C66.0786 51.2029 66.9403 50.0237 66.9403 48.7539V44.2641C67.031 42.9942 66.1693 41.8151 64.582 40.9081Z" fill="#C3D0E2"/>
<path opacity="0.64" d="M63.6762 40.9081L59.9121 38.7312C58.3701 37.9149 56.6467 37.416 54.878 37.3707C55.0141 37.5974 55.1502 37.8242 55.2862 38.0509C54.2885 36.2822 52.8826 34.7856 51.1592 33.6972L48.937 32.4273L48.7556 32.3366C48.6195 32.2459 48.4381 32.1552 48.3021 32.0192L44.4926 29.8423C41.2726 27.9829 36.0572 27.9829 32.8372 29.8423C31.2953 30.7493 30.4336 31.9285 30.4336 33.1983V37.6881C30.4336 38.958 31.2953 40.1371 32.8372 41.0441L36.6014 43.221C38.4155 44.1734 40.4109 44.6722 42.4517 44.6269C43.5855 44.6269 44.7193 44.4908 45.8077 44.2187V46.577C45.8077 47.8468 46.6694 49.026 48.2114 49.933L51.9755 52.1099C55.649 53.9693 59.9574 53.9693 63.6309 52.1099C65.1728 51.2029 66.0345 50.0237 66.0345 48.7539V44.2641C66.0799 42.9942 65.2182 41.8151 63.6762 40.9081Z" fill="#C0CEE0"/>
<path opacity="0.67" d="M62.768 40.9081L59.0038 38.7312C57.4619 37.9149 55.7385 37.416 53.9698 37.3707C54.1059 37.5974 54.2419 37.8242 54.378 38.0509C53.3803 36.2822 51.9744 34.7856 50.251 33.6972L48.0288 32.4273L47.8474 32.3366C47.7113 32.2459 47.5299 32.1552 47.3939 32.0192L43.5843 29.8423C40.3644 27.9829 35.149 27.9829 31.929 29.8423C30.3871 30.7493 29.5254 31.9285 29.5254 33.1983V37.6881C29.5254 38.958 30.3871 40.1371 31.929 41.0441L35.6932 43.221C37.4619 44.1734 39.5027 44.6722 41.4982 44.6269C42.632 44.6269 43.7658 44.4908 44.8542 44.2187V46.577C44.8542 47.8468 45.7159 49.026 47.2578 49.933L51.022 52.1099C54.6955 53.9693 59.0039 53.9693 62.6773 52.1099C64.2193 51.2029 65.0809 50.0237 65.0809 48.7539V44.2641C65.1716 42.9942 64.31 41.8151 62.768 40.9081Z" fill="#BDCCDF"/>
<path opacity="0.7" d="M61.8164 40.9081L58.0522 38.7312C56.5103 37.9149 54.7869 37.416 53.0182 37.3707C53.1543 37.5974 53.2903 37.8242 53.4264 38.0509C52.4287 36.2822 51.0228 34.7856 49.2994 33.6972L47.0772 32.4273L46.8958 32.3366C46.7597 32.2459 46.5783 32.1552 46.4423 32.0192L42.6781 29.8423C39.4581 27.9829 34.2427 27.9829 31.0228 29.8423C29.4808 30.7493 28.6191 31.9285 28.6191 33.1983V37.6881C28.6191 38.958 29.4808 40.1371 31.0228 41.0441L34.7869 43.221C36.601 44.1734 38.5965 44.6722 40.6373 44.6269C41.7711 44.6269 42.9049 44.4908 43.9933 44.2187V46.577C43.9933 47.8468 44.855 49.026 46.3969 49.933L50.1611 52.1099C53.8346 53.9693 58.1429 53.9693 61.8164 52.1099C63.3584 51.2029 64.22 50.0237 64.22 48.7539V44.2641C64.2654 42.9942 63.4037 41.8151 61.8164 40.9081Z" fill="#BAC9DE"/>
<path opacity="0.73" d="M60.9086 40.9081L57.1445 38.7312C55.6025 37.9149 53.8792 37.416 52.1105 37.3707C52.2465 37.5974 52.3826 37.8242 52.5186 38.0509C51.5209 36.2822 50.115 34.7856 48.3916 33.6972L46.1694 32.4273L45.988 32.3366C45.852 32.2459 45.6706 32.1552 45.5345 32.0192L41.725 29.8423C38.505 27.9829 33.2896 27.9829 30.0696 29.8423C28.5277 30.7493 27.666 31.9285 27.666 33.1983V37.6881C27.666 38.958 28.5277 40.1371 30.0696 41.0441L33.8338 43.221C35.6479 44.1734 37.6433 44.6722 39.6842 44.6269C40.8179 44.6269 41.9517 44.4908 43.0402 44.2187V46.577C43.0402 47.8468 43.9018 49.026 45.4438 49.933L49.208 52.1099C52.8814 53.9693 57.1898 53.9693 60.8633 52.1099C62.4052 51.2029 63.2669 50.0237 63.2669 48.7539V44.2641C63.3123 42.9942 62.4506 41.8151 60.9086 40.9081Z" fill="#B7C7DC"/>
<path opacity="0.76" d="M59.957 40.9081L56.1929 38.7312C54.6509 37.9149 52.9276 37.416 51.1589 37.3707C51.2949 37.5974 51.431 37.8242 51.567 38.0509C51.7938 38.4591 52.0205 38.8673 52.2019 39.2754C52.0205 38.8673 51.8391 38.4591 51.6124 38.0509C50.6146 36.2822 49.2087 34.7856 47.4854 33.6972L45.2178 32.4273L45.0364 32.3366C44.9004 32.2459 44.7189 32.1552 44.5829 32.0192L40.8187 29.8423C37.5988 27.9829 32.3833 27.9829 29.1634 29.8423C27.6214 30.7493 26.7598 31.9285 26.7598 33.1983V37.6881C26.7598 38.958 27.6214 40.1371 29.1634 41.0441L32.9276 43.221C34.6963 44.1734 36.7371 44.6269 38.7326 44.6269C39.8663 44.6269 41.0001 44.4908 42.0886 44.2187V46.577C42.0886 47.8468 42.9502 49.026 44.4922 49.933L48.2564 52.1099C51.9298 53.9693 56.2382 53.9693 59.9117 52.1099C61.4536 51.2029 62.3153 50.0237 62.3153 48.7539V44.2641C62.406 42.9942 61.5443 41.8151 59.957 40.9081Z" fill="#B4C5DB"/>
<path opacity="0.79" d="M59.0488 40.9081L55.2847 38.7312C53.7427 37.9149 52.0194 37.416 50.2507 37.3707C50.3867 37.5974 50.5228 37.8242 50.6588 38.0509C49.6611 36.2822 48.2552 34.7856 46.5318 33.6972L44.3096 32.4273L44.1282 32.3366C43.9922 32.2459 43.8107 32.1552 43.6747 32.0192L39.9105 29.8423C36.6906 27.9829 31.4751 27.9829 28.2552 29.8423C26.7132 30.7493 25.8516 31.9285 25.8516 33.1983V37.6881C25.8516 38.958 26.7132 40.1371 28.2552 41.0441L32.0194 43.221C33.7881 44.1734 35.8289 44.6269 37.8244 44.6269C38.9581 44.6269 40.0919 44.4908 41.1804 44.2187V46.577C41.1804 47.8468 42.042 49.026 43.584 49.933L47.3482 52.1099C51.0216 53.9693 55.33 53.9693 59.0035 52.1099C60.5454 51.2029 61.4071 50.0237 61.4071 48.7539V44.2641C61.4525 42.9942 60.6361 41.8151 59.0488 40.9081Z" fill="#B1C2D9"/>
<path opacity="0.82" d="M58.1426 40.9081L54.3784 38.7312C52.8365 37.9149 51.1131 37.416 49.3444 37.3707C49.4805 37.5974 49.6165 37.8242 49.7526 38.0509C48.7548 36.2822 47.3489 34.7856 45.6256 33.6972L43.4034 32.4273L43.222 32.3366C43.0859 32.2459 42.9045 32.1552 42.7684 32.0192L39.0043 29.8423C35.7843 27.9829 30.5689 27.9829 27.3489 29.8423C25.807 30.7493 24.9453 31.9285 24.9453 33.1983V37.6881C24.9453 38.958 25.807 40.1371 27.3489 41.0441L31.1131 43.221C32.8818 44.1734 34.9226 44.6269 36.9181 44.6269C38.0519 44.6269 39.1857 44.4908 40.2741 44.2187V46.577C40.2741 47.8468 41.1358 49.026 42.6777 49.933L46.4419 52.1099C50.1154 53.9693 54.4238 53.9693 58.0972 52.1099C59.6392 51.2029 60.5009 50.0237 60.5009 48.7539V44.2641C60.5462 42.9942 59.6845 41.8151 58.1426 40.9081Z" fill="#AEC0D8"/>
<path opacity="0.85" d="M57.1895 40.9081L53.4253 38.7312C51.8833 37.9149 50.16 37.416 48.3913 37.3707C48.5273 37.5974 48.6634 37.8242 48.7994 38.0509C47.8017 36.2822 46.3958 34.7856 44.6725 33.6972L42.4502 32.4273L42.2688 32.3366C42.1328 32.2459 41.9514 32.1552 41.8153 32.0192L38.0511 29.8423C34.8312 27.9829 29.6158 27.9829 26.3958 29.8423C24.8539 30.7493 23.9922 31.9285 23.9922 33.1983V37.6881C23.9922 38.958 24.8539 40.1371 26.3958 41.0441L30.16 43.221C31.974 44.1734 33.9695 44.6722 36.0103 44.6269C37.1441 44.6269 38.2779 44.4908 39.3663 44.2187V46.577C39.3663 47.8468 40.228 49.026 41.77 49.933L45.5341 52.1099C49.2076 53.9693 53.516 53.9693 57.1895 52.1099C58.7314 51.2029 59.5931 50.0237 59.5931 48.7539V44.2641C59.6384 42.9942 58.7768 41.8151 57.1895 40.9081Z" fill="#ABBED6"/>
<path opacity="0.88" d="M56.2832 40.9081L52.519 38.7312C50.9771 37.9149 49.2537 37.416 47.485 37.3707C47.6211 37.5974 47.7571 37.8242 47.8932 38.0509C46.8955 36.2822 45.4896 34.7856 43.7662 33.6972L41.544 32.4273L41.3626 32.3366C41.2265 32.2459 41.0451 32.1552 40.9091 32.0192L37.1449 29.8423C33.9249 27.9829 28.7095 27.9829 25.4896 29.8423C23.9476 30.7493 23.0859 31.9285 23.0859 33.1983V37.6881C23.0859 38.958 23.9476 40.1371 25.4896 41.0441L29.2537 43.221C31.0224 44.1734 33.0633 44.6269 35.0587 44.6269C36.1925 44.6269 37.3263 44.4908 38.4147 44.2187V46.577C38.4147 47.8468 39.2764 49.026 40.8184 49.933L44.5825 52.1099C48.256 53.9693 52.5644 53.9693 56.2379 52.1099C57.7798 51.2029 58.6415 50.0237 58.6415 48.7539V44.2641C58.6868 42.9942 57.8252 41.8151 56.2832 40.9081Z" fill="#A8BBD5"/>
<path opacity="0.91" d="M55.3754 40.908L51.6113 38.7311C50.0693 37.9148 48.346 37.416 46.5773 37.3706C46.7133 37.5974 46.8494 37.8241 46.9854 38.0509C45.9877 36.2822 44.5818 34.7856 42.8584 33.6971L40.6362 32.4273L40.4095 32.2912C40.2734 32.2005 40.092 32.1098 39.9559 31.9738L36.1918 29.7969C32.9718 27.9375 27.7564 27.9375 24.5364 29.7969C22.9945 30.7039 22.1328 31.8831 22.1328 33.1529V37.6881C22.1328 38.9579 22.9945 40.137 24.5364 41.0441L28.3006 43.2209C30.1147 44.1733 32.1101 44.6722 34.151 44.6268C35.2847 44.6268 36.4185 44.4908 37.507 44.2187V46.5769C37.507 47.8468 38.3686 49.0259 39.9106 49.933L43.6748 52.1098C45.4888 53.0622 47.4843 53.5611 49.5251 53.5157C51.5659 53.5611 53.5614 53.0622 55.3754 52.1098C56.9174 51.2028 57.7791 50.0237 57.7791 48.7538V44.264C57.7791 42.9942 56.9174 41.815 55.3754 40.908Z" fill="#A5B9D3"/>
<path opacity="0.94" d="M54.4238 40.908L50.6597 38.7311C49.1177 37.9148 47.3944 37.416 45.6257 37.3706C45.7617 37.5974 45.8978 37.8241 46.0338 38.0509C45.0361 36.2822 43.6302 34.7856 41.9068 33.6971L39.6846 32.4273L39.5032 32.2912C39.3672 32.2005 39.1857 32.1098 39.0497 31.9738L35.2855 29.7969C32.0656 27.9375 26.8501 27.9375 23.6302 29.7969C22.0882 30.7039 21.2266 31.8831 21.2266 33.1529V37.6881C21.2266 38.9579 22.0882 40.137 23.6302 41.0441L27.3944 43.2209C29.1631 44.1733 31.2039 44.6722 33.1994 44.6268C34.3331 44.6268 35.4669 44.4908 36.5554 44.2187V46.5769C36.5554 47.8468 37.417 49.0259 38.959 49.933L42.7232 52.1098C44.5372 53.0622 46.5327 53.5611 48.5735 53.5157C50.6143 53.5611 52.6098 53.0622 54.4238 52.1098C55.9658 51.2028 56.8275 50.0237 56.8275 48.7538V44.264C56.8728 42.9942 56.0111 41.815 54.4238 40.908Z" fill="#A2B7D2"/>
<path opacity="0.97" d="M53.5161 40.908L49.7519 38.7311C48.2099 37.9148 46.4866 37.416 44.7179 37.3706C44.8539 37.5974 44.99 37.8241 45.126 38.0509C44.1283 36.2822 42.7224 34.7856 40.9991 33.6971L38.7768 32.4273L38.5954 32.2912C38.4594 32.2005 38.278 32.1098 38.1419 31.9738L34.3324 29.7969C31.1124 27.9375 25.897 27.9375 22.6771 29.7969C21.1351 30.7039 20.2734 31.8831 20.2734 33.1529V37.6881C20.2734 38.9579 21.1351 40.137 22.6771 41.0441L26.4412 43.2209C28.2553 44.1733 30.2508 44.6722 32.2916 44.6268C33.4254 44.6268 34.5592 44.4908 35.6476 44.2187V46.5769C35.6476 47.8468 36.5093 49.0259 38.0512 49.933L41.8154 52.1098C43.6294 53.0622 45.6249 53.5611 47.6204 53.5157C49.6612 53.5611 51.6567 53.0622 53.4707 52.1098C55.0127 51.2028 55.8743 50.0237 55.8743 48.7538V44.264C55.9197 42.9942 55.058 41.815 53.5161 40.908Z" fill="#9FB4D0"/>
<path d="M52.5645 40.9081L48.8003 38.7312C47.2583 37.9149 45.535 37.416 43.7663 37.3707C43.9023 37.5974 44.0384 37.8242 44.1744 38.0509C43.1767 36.2822 41.7708 34.7856 40.0475 33.6972L37.8252 32.4273L37.6438 32.3366C37.5078 32.2459 37.3264 32.1552 37.1903 32.0192L33.4261 29.8423C30.2062 27.9829 24.9908 27.9829 21.7708 29.8423C20.2289 30.7493 19.3672 31.9285 19.3672 33.1983V37.6881C19.3672 38.958 20.2289 40.1371 21.7708 41.0441L25.535 43.221C27.3037 44.1734 29.2992 44.6269 31.34 44.6269C32.4738 44.6269 33.6076 44.4908 34.696 44.2187V46.577C34.696 47.8468 35.5577 49.026 37.0996 49.933L40.8638 52.1099C42.6778 53.0623 44.6733 53.5611 46.7141 53.5158C48.7549 53.5611 50.7504 53.0623 52.5645 52.1099C54.1064 51.2029 54.9681 50.0237 54.9681 48.7539V44.2641C55.0134 42.9942 54.1518 41.8151 52.5645 40.9081Z" fill="#9CB2CF"/>
</g>
<path d="M27.1659 44.6268L22.404 42.2232C20.9074 41.4522 19.819 39.8649 19.5469 37.5973C18.8213 31.9284 18.8666 26.8944 19.5469 20.4544C20.0911 15.8286 23.0389 10.8853 26.8485 8.3456C32.1999 4.80818 36.599 2.63131 41.9052 0.862606C43.3111 0.318388 44.8984 0.36374 46.2589 0.99866L51.0208 3.40229C49.6603 2.76737 48.073 2.72202 46.6671 3.26623C41.3609 5.03494 36.9618 7.21181 31.6104 10.7492C27.8008 13.2889 24.8077 18.2322 24.3088 22.8581C23.5832 29.298 23.5378 34.3773 24.2634 40.0463C24.5809 42.2685 25.6693 43.8558 27.1659 44.6268Z" fill="#F6A5A2"/>
<path d="M35.9643 43.13C34.5584 43.7196 33.1072 44.2638 31.6106 44.7173C29.9326 45.3069 28.3906 45.2162 27.1661 44.6266C26.5312 44.3091 25.9416 43.8556 25.5335 43.2661L25.4428 43.13L25.3974 43.0393L25.3521 42.9486L25.3067 42.9032V42.8579V42.8125V42.7672V42.7218V42.6765V42.6311V42.5858V42.6765V42.6311V42.5858V42.5404V42.4951V42.4497V42.4044V42.359V42.3137V42.2683V42.223V42.1776V42.1323V42.0869V42.223V42.1776V42.1323V42.0869V42.0416V41.9962V41.9509V41.9055V41.8602V41.8148V41.7695V41.7241V41.6788V41.6334V41.5881V41.5427V41.4974V41.452V41.4066V41.3613V41.3159V41.2706V41.2252V41.1799V41.1345V41.0892V41.0438V40.9985V40.9531V40.9078V40.8624V40.7264V40.681C25.3067 40.4996 25.2614 40.3636 25.2614 40.1822L25.216 39.9554L25.1707 39.5926C25.1253 39.3658 25.1253 39.1844 25.08 38.9577L25.0346 38.5495L24.9893 38.232C24.9893 38.096 24.9893 37.9599 24.9439 37.8239L23.9462 36.7808C23.9462 36.554 23.9008 36.3273 23.9008 36.1459V36.0552V35.8284V35.647C23.9008 35.2842 23.8555 34.9214 23.8555 34.5586V34.3772C23.8555 34.2865 23.8555 34.1504 23.8555 34.0597V33.6062C23.8555 33.5608 23.8555 33.4701 23.8555 33.4248V33.2434C23.8555 33.1527 23.8555 33.062 23.8555 32.9713C23.8555 32.6085 23.8555 32.2003 23.8555 31.8375C23.8555 31.3386 23.8555 30.8398 23.8555 30.3862C23.8555 30.1595 23.8555 29.9781 23.8555 29.7513C23.8555 29.4339 23.8555 29.1617 23.9008 28.8443V28.7082V28.4815V28.2094C23.9008 28.028 23.9008 27.8466 23.9462 27.6652V27.4384V27.0756V26.8942C23.9462 26.5767 23.9915 26.3046 24.0369 25.9871V25.8964V25.8057C24.0822 25.4883 24.0822 25.1708 24.1276 24.808L24.1729 24.4905L24.2183 24.037C24.2636 23.7196 24.2636 23.4021 24.309 23.0847V22.9486V22.8125V22.6311V22.5858V22.4497V22.3137V22.2683V22.223C24.309 22.1323 24.3543 21.9962 24.3543 21.9055V21.8602V21.8148V21.7695C24.3543 21.6788 24.3997 21.5881 24.3997 21.4973C24.3997 21.4066 24.445 21.2706 24.4904 21.1345C24.5357 20.9531 24.5811 20.7717 24.6264 20.5903V20.545C24.6718 20.3182 24.7625 20.1368 24.8078 19.91L24.8532 19.8193L24.8986 19.6833V19.6379V19.5926C25.0346 19.2298 25.1707 18.8216 25.3521 18.4588V18.4134C25.3974 18.2774 25.4881 18.096 25.5788 17.9599L25.6695 17.7785C25.7602 17.5518 25.8963 17.325 25.987 17.1436L26.123 16.9168V16.8715L26.3498 16.4633V16.3726L26.8033 15.9191L26.9394 15.7377C28.1639 13.7422 29.7512 12.0642 31.6559 10.749C37.0074 7.21163 41.4065 5.03476 46.7126 3.26605H46.758V3.2207H46.8033H46.8487H46.894H46.9394H46.9847H47.0301H47.0754H47.1208H47.3475H47.3929H47.4382H47.7557H47.801H49.7965H49.8872H50.0686H50.114H50.2047H50.25H50.2954L50.3861 3.26605H50.4314L50.5221 3.31141H50.5675L50.7035 3.35676H50.7489L50.8849 3.40211C51.021 3.44746 51.1117 3.49281 51.2478 3.53816C52.7444 4.30914 53.7874 5.85109 54.1049 8.07331C54.9212 13.9237 54.8759 19.003 54.1049 25.4429C53.6967 29.8874 50.7035 34.7853 46.9394 37.2797C46.2137 37.7785 44.6718 38.6402 43.9915 39.0484L40.0913 53.062L35.9643 43.13Z" fill="#F0595F"/>
<path d="M35.9645 43.1304L39.774 53.0623L34.5586 50.4773L32.291 44.4909C33.5609 44.1281 34.7853 43.6292 35.9645 43.1304Z" fill="#F6A5A2"/>
<path d="M38.3678 29.3887C37.7782 29.9329 37.234 30.0236 37.0526 29.6608C36.6444 28.9352 36.463 28.0735 36.5084 27.2572C36.5084 26.1687 36.7352 25.1256 37.1887 24.1279C37.5515 23.2209 38.0503 22.3592 38.6853 21.5429C39.2295 20.8626 39.7283 20.137 40.1819 19.366C40.59 18.7764 40.8168 18.0508 40.8621 17.3252C40.9075 16.8263 40.7261 16.3275 40.2726 16.01C39.9098 15.7832 39.3202 15.8739 38.5492 16.2368C37.5061 16.781 36.5991 17.5973 35.9188 18.595C35.2839 19.5021 34.5129 20.0009 34.1955 19.6835L32.971 18.459C32.6535 18.1415 32.8349 17.2345 33.4245 16.3728C34.7397 14.1052 36.6444 12.2912 39.0027 11.112C40.9075 10.205 42.4041 10.0236 43.4925 10.6132C44.581 11.2027 45.1252 12.4272 45.1252 14.2866C45.1252 15.3297 44.9438 16.3275 44.6263 17.3252C44.3088 18.2322 43.9007 19.1393 43.4018 19.9556C42.903 20.7266 42.4494 21.4068 41.9506 22.0871C41.4971 22.722 41.0889 23.4023 40.7261 24.1279C40.4086 24.7175 40.2272 25.3978 40.2272 26.0327C40.2272 26.078 40.2272 26.078 40.2272 26.1234C40.1819 26.7129 40.0005 27.2572 39.7283 27.8014C39.4109 28.391 39.0027 28.9352 38.5039 29.3887H38.3678ZM40.5447 36.1461C40.1819 36.8717 39.5923 37.5066 38.8667 37.9148C38.3225 38.2322 37.6422 38.1869 37.1887 37.7787C36.6898 37.2798 36.4177 36.5996 36.463 35.8739C36.463 34.9669 36.7352 34.1052 37.1887 33.2889C37.5515 32.5633 38.141 31.9284 38.8667 31.5202C39.4109 31.2027 40.0912 31.2481 40.5447 31.6563C41.0435 32.1551 41.3157 32.8354 41.2703 33.5157C41.2703 34.4681 40.9982 35.3297 40.5447 36.1461Z" fill="#A83C41"/>
<path d="M38.596 38.5045C38.5053 38.4591 38.4146 38.3684 38.3239 38.3231C37.825 37.8242 37.5529 37.1439 37.5982 36.4637C37.5982 35.5566 37.8703 34.695 38.3239 33.8786C38.6867 33.153 39.2762 32.5181 39.9565 32.1553C40.41 31.8832 40.9089 31.8832 41.3624 32.1099L42.723 32.7902L42.3148 33.7426C42.3148 33.8786 42.3601 34.06 42.3601 34.1961C42.3601 35.1031 42.088 35.9648 41.6345 36.7811C41.3624 37.3254 40.9542 37.8242 40.4554 38.187L40.0019 39.3208L38.596 38.5045ZM38.2785 30.3866C38.2332 30.3412 38.1878 30.2959 38.1425 30.2505C37.7343 29.5249 37.5529 28.6632 37.5982 27.8015C37.5982 26.7131 37.825 25.67 38.2785 24.6723C38.6413 23.7653 39.1402 22.9036 39.7751 22.0873C40.3193 21.407 40.8182 20.6814 41.2717 19.9104C41.6799 19.3208 41.9066 18.5952 41.952 17.8696C41.9973 17.3707 41.8159 16.8718 41.3624 16.5544C40.9996 16.3276 40.41 16.4183 39.6391 16.7811C38.596 17.3254 37.6889 18.1417 37.054 19.1848L36.7819 20.9988L35.376 20.2732L35.3307 20.2278L35.2853 20.1825L34.0608 18.958C33.7434 18.6405 33.9248 17.7335 34.5143 16.8718C35.8295 14.6043 37.7343 12.7902 40.0472 11.6111C41.952 10.704 43.4486 10.5226 44.537 11.1122H44.5824L45.8976 11.7471L45.444 11.8832C45.9883 12.7449 46.2604 13.7426 46.1697 14.7403C46.1697 15.7834 45.9883 16.7811 45.6708 17.7789C45.3987 18.6859 44.9905 19.5929 44.4917 20.4093C43.9928 21.1802 43.5393 21.8605 43.0404 22.5408C42.5869 23.1757 42.1787 23.856 41.8159 24.5816C41.4985 25.1712 41.3171 25.8514 41.3171 26.4864C41.3171 26.5317 41.3171 26.5317 41.3171 26.5771C41.2717 27.1666 41.0903 27.7108 40.8182 28.2551C40.5461 28.7993 40.1833 29.2981 39.7298 29.7063L39.7751 31.0215L38.3692 30.3412L38.2785 30.3866Z" fill="#96C2E7"/>
<path d="M40.9084 30.6587C40.3188 31.2029 39.7746 31.2936 39.5932 30.9308C39.185 30.2052 39.0036 29.3435 39.049 28.4818C39.049 27.3934 39.2757 26.3503 39.7292 25.3526C40.0921 24.4456 40.5909 23.5839 41.2258 22.7675C41.7701 22.0873 42.2689 21.3617 42.7224 20.5907C43.1306 20.0011 43.3574 19.2755 43.4027 18.5499C43.4481 18.051 43.2667 17.5521 42.8132 17.2347C42.4503 17.0079 41.8608 17.0986 41.0898 17.4614C40.0467 18.0056 39.1397 18.822 38.5048 19.8651C37.8698 20.7721 37.0989 21.2709 36.7814 20.9535L35.5569 19.729C35.2395 19.4115 35.4209 18.5045 36.0104 17.6428C37.3256 15.3753 39.2304 13.5612 41.5433 12.3821C43.4481 11.475 44.9447 11.2936 46.0331 11.8832C47.1215 12.4728 47.6658 13.6973 47.6658 15.5567C47.6658 16.5997 47.4844 17.5975 47.1669 18.5952C46.8494 19.5022 46.4413 20.4093 45.9424 21.2256C45.4435 21.9966 44.99 22.6768 44.4912 23.3571C44.0376 23.992 43.6295 24.6723 43.2667 25.3979C42.9492 25.9875 42.8131 26.6224 42.7678 27.3027C42.7678 27.348 42.7678 27.348 42.7678 27.3934C42.7224 27.983 42.541 28.5272 42.2689 29.0714C41.9515 29.661 41.5433 30.2052 41.0444 30.6587H40.9084ZM43.0853 37.3707C42.7224 38.0964 42.1329 38.7313 41.4073 39.1394C40.863 39.4569 40.1828 39.4115 39.7292 39.0034C39.2304 38.5045 38.9583 37.8242 39.0036 37.144C39.0036 36.2369 39.2757 35.3753 39.7292 34.5589C40.0921 33.8333 40.6816 33.1984 41.4073 32.7902C41.9515 32.4728 42.6317 32.5181 43.0853 32.9263C43.5841 33.4251 43.8562 34.1054 43.8109 34.7857C43.7655 35.7381 43.5388 36.5998 43.0853 37.3707Z" fill="#CDE3F5"/>
</g>
<defs>
<linearGradient id="paint0_linear_3165_3051" x1="0.5" y1="57.8294" x2="80.491" y2="57.8294" gradientUnits="userSpaceOnUse">
<stop stop-color="#C2CEDE"/>
<stop offset="0.1" stop-color="#C7D1E2"/>
<stop offset="0.3" stop-color="#CAD3E4"/>
<stop offset="0.55" stop-color="#BAC3D4"/>
<stop offset="0.74" stop-color="#B4BDCE"/>
<stop offset="1" stop-color="#8A96A6"/>
</linearGradient>
<clipPath id="clip0_3165_3051">
<rect width="80" height="72.7438" fill="white" transform="translate(0.5 0.5)"/>
</clipPath>
</defs>
</svg>
