<svg width="81" height="70" viewBox="0 0 81 70" fill="none" xmlns="http://www.w3.org/2000/svg">
<g clip-path="url(#clip0_3165_3182)">
<path d="M67.2195 30.9588C49.5878 20.7605 31.3669 20.7605 13.7351 30.9588C4.8966 36.0353 0.5 41.2024 0.5 46.4149C0.5 51.6273 4.8966 56.7491 13.7351 61.871C31.3669 72.0693 49.5878 72.0693 67.2195 61.871C76.0581 56.7945 80.4547 51.582 80.4547 46.4149C80.4547 41.2477 76.0581 36.0353 67.2195 30.9588Z" fill="#949494"/>
<path d="M67.2195 54.1202C49.5878 64.3185 31.3669 64.3185 13.7351 54.1202C4.8966 49.0438 0.5 43.8766 0.5 38.7095V46.4149C0.5 51.582 4.8966 56.7491 13.7351 61.8709C31.3669 72.0692 49.5878 72.0692 67.2195 61.8709C76.0581 56.7945 80.4547 51.582 80.4547 46.4149V38.7095C80.4547 43.8766 76.0581 49.0438 67.2195 54.1202Z" fill="url(#paint0_linear_3165_3182)"/>
<path d="M67.2195 23.2532C49.5878 13.0549 31.3669 13.0549 13.7351 23.2532C4.8966 28.3297 0.5 33.4968 0.5 38.7093C0.5 43.9218 4.8966 49.0436 13.7351 54.1654C31.3669 64.3637 49.5878 64.3637 67.2195 54.1654C76.0581 49.0889 80.4547 43.8764 80.4547 38.7093C80.4547 33.5422 76.0581 28.3297 67.2195 23.2532Z" fill="#FFDB32"/>
<path d="M63.6385 28.8287C50.4487 21.214 36.8056 21.214 23.6158 28.8287C16.9982 32.6361 13.6895 36.5341 13.6895 40.3868C13.6895 44.2395 16.9982 48.1375 23.6158 51.9449C36.8056 59.5596 50.4487 59.5596 63.6385 51.9449C70.256 48.1375 73.5195 44.2848 73.5195 40.3868C73.5195 36.4888 70.2107 32.6361 63.6385 28.8287Z" fill="#FFCC32"/>
<path d="M62.1423 32.6356C52.1706 26.8793 41.927 26.8793 31.9553 32.6356C26.9695 35.4912 24.4766 38.4373 24.4766 41.3382C24.4766 44.239 26.9695 47.1852 31.91 50.0407C41.8817 55.7971 52.1706 55.7971 62.1423 50.0407C67.1281 47.1852 69.621 44.239 69.621 41.3382C69.621 38.4373 67.1281 35.4912 62.1423 32.6356Z" fill="#FFDB32"/>
<mask id="mask0_3165_3182" style="mask-type:luminance" maskUnits="userSpaceOnUse" x="0" y="15" width="81" height="47">
<path d="M67.2195 23.2532C49.5878 13.0549 31.3669 13.0549 13.7351 23.2532C4.8966 28.3297 0.5 33.4968 0.5 38.7093C0.5 43.9218 4.8966 49.0436 13.7351 54.1654C31.3669 64.3637 49.5878 64.3637 67.2195 54.1654C76.0581 49.0889 80.4547 43.8764 80.4547 38.7093C80.4547 33.5422 76.0581 28.3297 67.2195 23.2532Z" fill="white"/>
</mask>
<g mask="url(#mask0_3165_3182)">
<path opacity="0.03" d="M61.5081 28.1486L70.1653 33.1345L81.1794 45.5991L85.1681 43.2874L84.2616 40.6585C84.6695 40.6585 85.0775 40.5679 85.4401 40.3413L89.4287 38.0296C90.2899 37.5311 90.8338 36.4432 90.8338 34.8568V21.4404C90.8338 18.3583 88.6582 14.5509 85.984 13.0098L65.5421 1.17979C64.1823 0.409251 63.0038 0.318599 62.0973 0.817183L58.1086 3.1288C57.2474 3.62738 56.6582 4.7152 56.6582 6.3016V19.718C56.6582 22.8002 58.8338 26.6076 61.5081 28.1486Z" fill="#FDFCF7"/>
<path opacity="0.06" d="M60.512 28.1486L69.1692 33.1345L80.138 45.5537L84.1267 43.2421L83.2202 40.6132C83.6281 40.6132 84.0361 40.5226 84.3987 40.2959L88.3873 37.9843C89.2485 37.4857 89.7924 36.3979 89.7924 34.8115V21.4404C89.7924 18.3583 87.6168 14.5509 84.9426 13.0098L64.546 1.17979C63.1862 0.409251 62.0077 0.318599 61.1012 0.817183L57.1125 3.1288C56.2513 3.62738 55.6621 4.7152 55.6621 6.3016V19.718C55.6621 22.8002 57.8377 26.6076 60.512 28.1486Z" fill="#FCF8F0"/>
<path opacity="0.09" d="M59.5143 28.1486L68.1715 33.1345L79.1404 45.5537L83.1291 43.2421L82.2225 40.6132C82.6305 40.6132 83.0384 40.5226 83.401 40.2959L87.3897 37.9843C88.2509 37.4857 88.7948 36.3979 88.7948 34.8115V21.4404C88.7948 18.3583 86.6191 14.5509 83.9449 13.0098L63.503 1.17979C62.1432 0.409251 60.9647 0.318599 60.0582 0.817183L56.0696 3.1288C55.2084 3.62738 54.6191 4.7152 54.6191 6.3016V19.718C54.6645 22.8002 56.8401 26.6076 59.5143 28.1486Z" fill="#FAF5E8"/>
<path opacity="0.12" d="M58.5163 28.1486L67.1735 33.1345L78.1423 45.5537L82.131 43.2421L81.2245 40.6132C81.6324 40.6132 82.0404 40.5226 82.403 40.2959L86.3916 37.9843C87.2528 37.4857 87.7967 36.3979 87.7967 34.8115V21.4404C87.7967 18.3583 85.6211 14.5509 82.9469 13.0098L62.5049 1.17979C61.1452 0.409251 59.9667 0.318599 59.0602 0.817183L55.0715 3.1288C54.2103 3.62738 53.6211 4.7152 53.6211 6.3016V19.718C53.6211 22.8002 55.8421 26.6076 58.5163 28.1486Z" fill="#F9F2E0"/>
<path opacity="0.15" d="M57.5202 28.1486L66.1774 33.1345L77.1462 45.5537L81.1349 43.2421L80.2284 40.6132C80.6363 40.6132 81.0443 40.5226 81.4069 40.2959L85.3955 37.9843C86.2567 37.4857 86.8006 36.3979 86.8006 34.8115V21.4404C86.8006 18.3583 84.625 14.5509 81.9508 13.0098L61.5089 1.17979C60.1491 0.409251 58.9706 0.318599 58.0641 0.817183L54.0754 3.1288C53.2142 3.62738 52.625 4.7152 52.625 6.3016V19.718C52.625 22.8002 54.8006 26.6076 57.5202 28.1486Z" fill="#F7EED8"/>
<path opacity="0.18" d="M56.4768 28.1486L65.134 33.1345L76.1029 45.5537L80.0915 43.2421L79.185 40.6132C79.593 40.6132 80.0009 40.5226 80.3635 40.2959L84.3522 37.9843C85.2134 37.4857 85.7573 36.3979 85.7573 34.8115V21.4404C85.7573 18.3583 83.5816 14.5509 80.9074 13.0098L60.5108 1.17979C59.151 0.409251 57.9272 0.318599 57.066 0.817183L53.0774 3.1288C52.2162 3.62738 51.627 4.7152 51.627 6.3016V19.718C51.627 22.8002 53.8026 26.6076 56.4768 28.1486Z" fill="#F6EBD1"/>
<path opacity="0.21" d="M55.4811 28.1486L64.1383 33.1345L75.1072 45.5537L79.0958 43.2421L78.1893 40.6132C78.5973 40.6132 79.0052 40.5226 79.3678 40.2959L83.4018 37.9843C84.263 37.4857 84.8069 36.3979 84.8069 34.8115V21.4404C84.8069 18.3583 82.6313 14.5509 79.957 13.0098L59.4698 1.17979C58.11 0.409251 56.8862 0.318599 56.025 0.817183L52.0364 3.1288C51.1752 3.62738 50.5859 4.7152 50.5859 6.3016V19.718C50.6313 22.8002 52.8069 26.6076 55.4811 28.1486Z" fill="#F4E8C9"/>
<path opacity="0.24" d="M54.4831 28.1486L63.1403 33.1345L74.1091 45.5537L78.0978 43.2421L77.1913 40.6132C77.5992 40.6132 78.0072 40.5226 78.3698 40.2959L82.3584 37.9843C83.2196 37.4857 83.7635 36.3979 83.7635 34.8115V21.4404C83.7635 18.3583 81.5879 14.5509 78.9137 13.0098L58.4717 1.17979C57.112 0.409251 55.8882 0.318599 55.027 0.817183L51.0383 3.1288C50.1771 3.62738 49.5879 4.7152 49.5879 6.3016V19.718C49.5879 22.8002 51.8089 26.6076 54.4831 28.1486Z" fill="#F3E5C1"/>
<path opacity="0.27" d="M53.485 28.1486L62.1423 33.1345L73.1111 45.5991L77.0998 43.2874L76.1932 40.6585C76.6012 40.6585 77.0091 40.5679 77.3717 40.3413C77.5983 40.2053 77.825 40.024 78.0063 39.8427C77.825 40.024 77.6437 40.2053 77.417 40.3413L81.4057 38.0296C82.2669 37.5311 82.8108 36.4432 82.8108 34.8568V21.4404C82.8108 18.3583 80.6352 14.5509 77.9609 13.0098L57.4737 1.17979C56.1139 0.409251 54.8901 0.318599 54.0289 0.817183L50.0403 3.1288C49.1791 3.62738 48.5898 4.7152 48.5898 6.3016V19.718C48.5898 22.8002 50.7655 26.6076 53.485 28.1486Z" fill="#F1E1B9"/>
<path opacity="0.3" d="M52.444 28.1486L61.1012 33.1345L72.1154 45.5991L76.1041 43.2874L75.1976 40.6585C75.6055 40.6585 76.0134 40.5679 76.376 40.3413L80.3647 38.0296C81.2259 37.5311 81.7698 36.4432 81.7698 34.8568V21.4404C81.7698 18.3583 79.5942 14.5509 76.9199 13.0098L56.478 1.17979C55.1182 0.409251 53.8944 0.318599 53.0332 0.817183L48.9993 3.1288C48.1381 3.62738 47.5488 4.7152 47.5488 6.3016V19.718C47.5942 22.8002 49.7698 26.6076 52.444 28.1486Z" fill="#F0DEB2"/>
<path opacity="0.33" d="M51.446 28.1486L60.1032 33.1345L71.072 45.5537L75.0607 43.2421L74.1542 40.6132C74.5621 40.6132 74.97 40.5226 75.3327 40.2959L79.3213 37.9843C80.1825 37.4857 80.7264 36.3979 80.7264 34.8115V21.4404C80.7264 18.3583 78.5508 14.5509 75.8766 13.0098L55.4346 1.17979C54.0749 0.409251 52.8511 0.318599 51.9899 0.817183L48.0012 3.1288C47.14 3.62738 46.5508 4.7152 46.5508 6.3016V19.718C46.5961 22.8002 48.7717 26.6076 51.446 28.1486Z" fill="#EEDBAA"/>
<path opacity="0.36" d="M50.4499 28.1486L59.1071 33.1345L70.0759 45.5537L74.0646 43.2421L73.1581 40.6132C73.566 40.6132 73.9739 40.5226 74.3366 40.2959L78.3252 37.9843C79.1864 37.4857 79.7303 36.3979 79.7303 34.8115V21.4404C79.7303 18.3583 77.5547 14.5509 74.8805 13.0098L54.4385 1.17979C53.0788 0.409251 51.855 0.318599 50.9938 0.817183L47.0051 3.1288C46.1439 3.62738 45.5547 4.7152 45.5547 6.3016V19.718C45.5547 22.8002 47.7756 26.6076 50.4499 28.1486Z" fill="#ECD7A2"/>
<path opacity="0.39" d="M49.4518 28.1486L58.109 33.1345L69.0779 45.5537L73.0666 43.2421L72.16 40.6132C72.568 40.6132 72.9759 40.5226 73.3385 40.2959L77.3272 37.9843C78.1884 37.4857 78.7323 36.3979 78.7323 34.8115V21.4404C78.7323 18.3583 76.5566 14.5509 73.8371 13.0098L53.4405 1.17979C52.0807 0.409251 50.8569 0.318599 49.9957 0.817183L46.0071 3.1288C45.1459 3.62738 44.5566 4.7152 44.5566 6.3016V19.718C44.5566 22.8002 46.7323 26.6076 49.4518 28.1486Z" fill="#EBD49B"/>
<path opacity="0.42" d="M48.4538 28.1486L57.111 33.1345L68.0798 45.5537L72.0685 43.2421L71.162 40.6132C71.5699 40.6132 71.9779 40.5226 72.3405 40.2959L76.3291 37.9843C77.1903 37.4857 77.7342 36.3979 77.7342 34.8115V21.4404C77.7342 18.3583 75.5586 14.5509 72.8844 13.0098L52.4424 1.17979C51.0827 0.409251 49.8589 0.318599 48.9977 0.817183L45.009 3.1288C44.1025 3.62738 43.5586 4.7152 43.5586 6.3016V19.718C43.5586 22.8002 45.7342 26.6076 48.4538 28.1486Z" fill="#E9D193"/>
<path opacity="0.45" d="M47.4128 28.1486L56.07 33.1345L67.0388 45.5537L71.0275 43.2421L70.121 40.6132C70.5289 40.6132 70.9368 40.5226 71.2994 40.2959L75.2881 37.9843C76.1493 37.4857 76.6932 36.3979 76.6932 34.8115V21.4404C76.6932 18.3583 74.5176 14.5509 71.8434 13.0098L51.4014 1.17979C50.0417 0.409251 48.8179 0.318599 47.9567 0.817183L43.968 3.1288C43.1068 3.62738 42.5176 4.7152 42.5176 6.3016V19.718C42.5629 22.8002 44.7385 26.6076 47.4128 28.1486Z" fill="#E8CD8B"/>
<path opacity="0.48" d="M46.4147 28.1486L55.0719 33.1345L66.0408 45.5537L70.0294 43.2421L69.1229 40.6132C69.5309 40.6132 69.9388 40.5226 70.3014 40.2959L74.3354 37.9843C75.1966 37.4857 75.7405 36.3979 75.7405 34.8115V21.4404C75.7405 18.3583 73.5649 14.5509 70.8906 13.0098L50.4034 1.17979C49.0436 0.409251 47.8198 0.318599 46.9586 0.817183L42.97 3.1288C42.1088 3.62738 41.5195 4.7152 41.5195 6.3016V19.718C41.5649 22.8002 43.7405 26.6076 46.4147 28.1486Z" fill="#E6CA83"/>
<path opacity="0.52" d="M45.4186 28.1486L54.0758 33.1345L65.0447 45.5537L69.0334 43.2421L68.1268 40.6132C68.5348 40.6132 68.9427 40.5226 69.3053 40.2959L73.294 37.9843C74.1552 37.4857 74.6991 36.3979 74.6991 34.8115V21.4404C74.6991 18.3583 72.5234 14.5509 69.8492 13.0098L49.4073 1.17979C48.0475 0.409251 46.8237 0.318599 45.9625 0.817183L41.9739 3.1288C41.1127 3.62738 40.5234 4.7152 40.5234 6.3016V19.718C40.5234 22.8002 42.7444 26.6076 45.4186 28.1486Z" fill="#E5C77C"/>
<path opacity="0.55" d="M44.4206 28.1486L53.0778 33.1345L64.0466 45.5537L68.0353 43.2874L67.1288 40.6585C67.5367 40.6585 67.9447 40.5679 68.3073 40.3413C68.5339 40.2053 68.7605 40.024 68.9418 39.8427C68.7605 40.024 68.5792 40.2053 68.3526 40.3413L72.3413 38.0296C73.2024 37.5311 73.7464 36.4432 73.7464 34.8568V21.4404C73.7464 18.3583 71.5707 14.5509 68.8965 13.0098L48.4092 1.17979C47.0495 0.409251 45.8257 0.318599 44.9645 0.817183L40.9758 3.1288C40.1146 3.62738 39.5254 4.7152 39.5254 6.3016V19.718C39.5254 22.8002 41.701 26.6076 44.4206 28.1486Z" fill="#E3C474"/>
<path opacity="0.58" d="M43.3776 28.1486L52.0348 33.1345L63.049 45.5991L67.0377 43.2874L66.1311 40.6585C66.5391 40.6585 66.947 40.5679 67.3096 40.3413L71.2983 38.0296C72.1595 37.5311 72.7034 36.4432 72.7034 34.8568V21.4404C72.7034 18.3583 70.5277 14.5509 67.8535 13.0098L47.3663 1.17979C46.0065 0.409251 44.7827 0.318599 43.9215 0.817183L39.9328 3.1288C39.0717 3.62738 38.4824 4.7152 38.4824 6.3016V19.718C38.5277 22.8002 40.7034 26.6076 43.3776 28.1486Z" fill="#E2C06C"/>
<path opacity="0.61" d="M42.3815 28.1486L51.0387 33.1345L62.0076 45.5537L65.9962 43.2421L65.0897 40.6132C65.4977 40.6132 65.9056 40.5226 66.2682 40.2959L70.2569 37.9843C71.1181 37.4857 71.662 36.3979 71.662 34.8115V21.4404C71.662 18.3583 69.4863 14.5509 66.8121 13.0098L46.3702 1.17979C45.0104 0.409251 43.7866 0.318599 42.9254 0.817183L38.9368 3.1288C38.0756 3.62738 37.4863 4.7152 37.4863 6.3016V19.718C37.5317 22.8002 39.7073 26.6076 42.3815 28.1486Z" fill="#E0BD64"/>
<path opacity="0.64" d="M41.3835 28.1484L50.0407 33.1342L61.0095 45.5535L64.9982 43.2419L64.0917 40.613C64.4996 40.613 64.9075 40.5223 65.2701 40.2957L69.2588 37.9841C70.12 37.4855 70.6639 36.3977 70.6639 34.8113V21.4402C70.6639 18.358 68.4883 14.5507 65.8141 13.0096L45.3721 1.17956C44.0124 0.409023 42.8339 0.318372 41.9274 0.862281L37.9387 3.1739C37.0775 3.67248 36.4883 4.7603 36.4883 6.3467V19.7631C36.4883 22.8 38.7092 26.6073 41.3835 28.1484Z" fill="#DFBA5D"/>
<path opacity="0.67" d="M40.3874 28.1486L49.0446 33.1345L60.0134 45.5991L64.0021 43.2874L63.0956 40.6585C63.5035 40.6585 63.9114 40.5679 64.2741 40.3413L68.2627 38.0296C69.1239 37.5311 69.6678 36.4432 69.6678 34.8568V21.4404C69.6678 18.3583 67.5375 14.5509 64.818 13.0098L44.376 1.17979C43.0163 0.409251 41.7925 0.318599 40.9313 0.817183L36.9426 3.1288C36.0814 3.62738 35.4922 4.7152 35.4922 6.3016V19.718C35.4922 22.8002 37.6678 26.6076 40.3874 28.1486Z" fill="#DDB655"/>
<path opacity="0.7" d="M39.344 28.1484L48.0012 33.1342L58.9701 45.5535L62.9587 43.2419L62.0522 40.613C62.4601 40.613 62.8681 40.5223 63.2307 40.2957L67.2194 37.9841C68.0805 37.4855 68.6245 36.3977 68.6245 34.8113V21.4402C68.6245 18.358 66.4488 14.5507 63.7746 13.0096L43.378 1.17956C42.0182 0.409023 40.8397 0.318372 39.9332 0.862281L35.9446 3.1739C35.038 3.67248 34.4941 4.7603 34.4941 6.3467V19.7631C34.4941 22.8 36.6698 26.6073 39.344 28.1484Z" fill="#DBB34D"/>
<path opacity="0.73" d="M38.3464 28.1486L47.0036 33.1345L57.9724 45.5537L61.9611 43.2421L61.0546 40.6132C61.4625 40.6132 61.8704 40.5226 62.233 40.2959L66.2217 37.9843C67.0829 37.4857 67.6268 36.3979 67.6268 34.8115V21.4404C67.6268 18.3583 65.4512 14.5509 62.7769 13.0098L42.335 1.17979C40.9753 0.409251 39.7515 0.318599 38.8903 0.817183L34.9016 3.1288C34.0404 3.62738 33.4512 4.7152 33.4512 6.3016V19.718C33.4965 22.8002 35.6721 26.6076 38.3464 28.1486Z" fill="#DAB046"/>
<path opacity="0.76" d="M37.3503 28.1486L46.0075 33.1345L56.9763 45.5537L60.965 43.2421L60.0585 40.6132C60.4664 40.6132 60.8743 40.5226 61.2369 40.2959L65.2709 37.9843C66.1321 37.4857 66.676 36.3979 66.676 34.8115V21.4404C66.676 18.3583 64.5004 14.5509 61.8262 13.0098L41.3389 1.17979C39.9792 0.409251 38.7554 0.318599 37.8942 0.817183L33.9055 3.1288C33.0443 3.62738 32.4551 4.7152 32.4551 6.3016V19.718C32.5004 22.8002 34.676 26.6076 37.3503 28.1486Z" fill="#D8AC3E"/>
<path opacity="0.79" d="M36.3522 28.1486L45.0094 33.1345L55.9783 45.5537L59.9669 43.2421L59.0604 40.6132C59.4684 40.6132 59.8763 40.5226 60.2389 40.2959L64.2276 37.9843C65.0888 37.4857 65.6327 36.3979 65.6327 34.8115V21.4404C65.6327 18.3583 63.457 14.5509 60.7828 13.0098L40.3409 1.17979C38.9811 0.409251 37.7573 0.318599 36.8961 0.817183L32.9075 3.1288C32.0463 3.62738 31.457 4.7152 31.457 6.3016V19.718C31.457 22.8002 33.678 26.6076 36.3522 28.1486Z" fill="#D7A936"/>
<path opacity="0.82" d="M35.3108 28.1484L44.0133 33.1796L54.9822 45.5988L58.9709 43.2872L58.0643 40.6583C58.4723 40.6583 58.8802 40.5677 59.2428 40.341C59.4694 40.2051 59.6961 40.0238 59.8774 39.8425C59.6961 40.0238 59.5148 40.2051 59.2881 40.341L63.2768 38.0294C64.138 37.5308 64.6819 36.443 64.6819 34.8566V21.4402C64.6819 18.358 62.5063 14.5507 59.832 13.0096L39.3448 1.17956C37.985 0.409023 36.7612 0.318372 35.9 0.862281L31.9114 3.1739C31.0502 3.67248 30.4609 4.7603 30.4609 6.3467V19.7631C30.4609 22.8 32.6366 26.6073 35.3108 28.1484Z" fill="#D5A62E"/>
<path opacity="0.85" d="M34.3132 28.1486L42.9704 33.1345L53.9845 45.5991L57.9732 43.2874L57.0667 40.6585C57.4746 40.6585 57.8826 40.5679 58.2905 40.3413L62.2792 38.0296C63.1403 37.5311 63.6843 36.4432 63.6843 34.8568V21.4404C63.6843 18.3583 61.5086 14.5509 58.8344 13.0098L38.3018 1.17979C36.942 0.409251 35.7183 0.318599 34.8571 0.817183L30.8684 3.1288C30.0072 3.62738 29.418 4.7152 29.418 6.3016V19.718C29.4633 22.8002 31.6389 26.6076 34.3132 28.1486Z" fill="#D4A327"/>
<path opacity="0.88" d="M33.3151 28.1486L41.9723 33.1345L52.9412 45.5537L56.9298 43.2421L56.0233 40.6132C56.4313 40.6132 56.8392 40.5226 57.2471 40.2959L61.2358 37.9843C62.097 37.4857 62.6409 36.3979 62.6409 34.8115V21.4404C62.6409 18.3583 60.4652 14.5509 57.791 13.0098L37.3038 1.17979C35.944 0.409251 34.7202 0.318599 33.859 0.817183L29.8703 3.1288C28.9638 3.62738 28.4199 4.7152 28.4199 6.3016V19.718C28.4652 22.8002 30.6409 26.6076 33.3151 28.1486Z" fill="#D29F1F"/>
<path opacity="0.91" d="M32.319 28.1484L40.9762 33.1342L51.9451 45.5535L55.9337 43.2419L55.0272 40.613C55.4352 40.613 55.8431 40.5223 56.251 40.2957L60.2397 37.9841C61.1009 37.4855 61.6448 36.3977 61.6448 34.8113V21.4402C61.6448 18.358 59.4692 14.5507 56.7949 13.0096L36.3077 1.17956C34.9479 0.409023 33.7241 0.318372 32.8629 0.862281L28.8743 3.1739C27.9677 3.67248 27.4238 4.7603 27.4238 6.3467V19.7631C27.4238 22.8 29.6448 26.6073 32.319 28.1484Z" fill="#D19C17"/>
<path opacity="0.94" d="M31.321 28.1486L39.9782 33.1345L50.947 45.5537L54.9357 43.2421L54.0292 40.6132C54.4371 40.6132 54.845 40.5226 55.253 40.2959L59.2416 37.9843C60.1028 37.4857 60.6467 36.3979 60.6467 34.8115V21.4404C60.6467 18.3583 58.4711 14.5509 55.7516 13.0098L35.3096 1.17979C33.9499 0.409251 32.7261 0.318599 31.8649 0.817183L27.8762 3.1288C26.9697 3.62738 26.4258 4.7152 26.4258 6.3016V19.718C26.4258 22.8002 28.6014 26.6076 31.321 28.1486Z" fill="#CF990F"/>
<path opacity="0.97" d="M30.2795 28.1484L38.9368 33.1342L49.9056 45.5535L53.8943 43.2419L52.9878 40.613C53.3957 40.613 53.8036 40.5223 54.2116 40.2957L58.2002 37.9841C59.0614 37.4855 59.6053 36.3977 59.6053 34.8113V21.4402C59.6053 18.358 57.4297 14.5507 54.7555 13.0096L34.3135 1.17956C32.9538 0.409023 31.73 0.318372 30.8688 0.862281L26.8348 3.1739C25.9283 3.67248 25.4297 4.7603 25.4297 6.3467V19.7631C25.4297 22.8 27.6053 26.6073 30.2795 28.1484Z" fill="#CE9508"/>
<path d="M29.2819 28.1486L37.9391 33.1345L48.908 45.5537L52.8966 43.2421L51.9901 40.6132C52.398 40.6132 52.806 40.5226 53.2139 40.2959L57.2026 37.9843C58.0638 37.4857 58.6077 36.3979 58.6077 34.8115V21.4404C58.6077 18.3583 56.432 14.5509 53.7578 13.0098L33.2706 1.17979C31.9108 0.409251 30.687 0.318599 29.8258 0.817183L25.8371 3.1288C24.9306 3.62738 24.3867 4.7152 24.3867 6.3016V19.718C24.432 22.8002 26.6077 26.6076 29.2819 28.1486Z" fill="#CC9200"/>
</g>
<path d="M50.3578 35.7183L46.3691 38.0299L48.9074 45.5993L52.9414 43.2877L50.3578 35.7183Z" fill="#99C900"/>
<path d="M53.8039 13.0098L33.2713 1.17979C31.9115 0.409251 30.6877 0.318599 29.8266 0.817183L25.8379 3.1288C26.7444 2.63021 27.9229 2.67554 29.2826 3.4914L49.7699 15.3214C52.4441 16.8625 54.6198 20.6699 54.6198 23.752V37.1685C54.6198 38.7095 54.0758 39.7974 53.1693 40.3413L57.158 38.0296C58.0192 37.5311 58.6084 36.4432 58.6084 34.8568V21.4404C58.6538 18.3583 56.4781 14.5509 53.8039 13.0098Z" fill="url(#paint1_linear_3165_3182)"/>
<path d="M29.2815 3.49157L49.7688 15.3216C52.443 16.8627 54.6186 20.67 54.6186 23.7522V37.1686C54.6186 38.7097 54.0747 39.7975 53.1682 40.3414C52.2617 40.8853 51.0832 40.7947 49.7234 39.9788L49.2248 39.7069L46.2787 37.9845L48.8622 45.5539L37.9387 33.18L29.2815 28.1488C26.6073 26.6077 24.4316 22.8004 24.4316 19.7182V6.30177C24.4316 4.76069 24.9756 3.67287 25.8821 3.12896C26.7886 2.58505 27.9217 2.6757 29.2815 3.49157Z" fill="#B1D400"/>
<path d="M39.5252 17.7691C38.5734 17.2251 37.7122 17.1798 37.123 17.5424L34.7207 18.9475C35.3553 18.5849 36.2165 18.6302 37.123 19.1742C39.1626 20.4886 40.4318 22.7096 40.5224 25.1118C40.5224 26.1996 40.1598 26.9702 39.5252 27.3328L41.9275 25.9277C42.5621 25.5651 42.9247 24.7945 42.9247 23.7067C42.834 21.2591 41.5649 19.0835 39.5252 17.7691Z" fill="white"/>
<path d="M33.7246 21.1232C33.8606 23.5255 35.1297 25.7465 37.124 27.0609C38.0759 27.6048 38.9371 27.6502 39.5263 27.2876C40.1155 26.9249 40.5235 26.1544 40.5235 25.0666C40.3875 22.6643 39.1184 20.4434 37.124 19.1289C36.1722 18.585 35.311 18.5397 34.7218 18.9023C34.1325 19.2649 33.7246 20.0354 33.7246 21.1232Z" fill="#F0F0F0"/>
<path d="M30.5956 13.7349C30.097 13.3723 29.4171 13.2817 28.8278 13.5536L27.1055 14.5508C27.6947 14.2788 28.3746 14.3695 28.8732 14.7321C30.3689 15.6839 31.2754 17.3157 31.3661 19.0834C31.4114 19.7179 31.1395 20.3525 30.6409 20.7151L32.4086 19.7179C32.9525 19.3553 33.2244 18.7208 33.1338 18.0862C33.0431 16.3185 32.0913 14.6868 30.5956 13.7349Z" fill="white"/>
<path d="M26.335 16.1824C26.4256 17.9501 27.3774 19.5819 28.8279 20.5337C29.4624 21.0776 30.4143 21.0323 31.0035 20.4431C31.3208 20.0804 31.4568 19.5819 31.3661 19.0833C31.2755 17.3156 30.3236 15.6838 28.8732 14.732C28.3746 14.3694 27.6947 14.2788 27.1055 14.5507C26.5616 14.9133 26.2896 15.5479 26.335 16.1824Z" fill="#F0F0F0"/>
<path d="M48.4085 23.8878C47.9099 23.5252 47.23 23.4345 46.6408 23.7065L44.873 24.7036C45.4623 24.4317 46.1422 24.5223 46.6408 24.8849C48.1365 25.8368 49.043 27.4685 49.1337 29.2362C49.179 29.8708 48.907 30.5053 48.4085 30.8679L50.1762 29.8708C50.6747 29.5082 50.992 28.8736 50.9014 28.239C50.8107 26.4713 49.9042 24.8396 48.4085 23.8878Z" fill="white"/>
<path d="M44.1487 26.3358C44.2393 28.1035 45.1912 29.7352 46.6416 30.687C47.2761 31.231 48.228 31.1856 48.8172 30.5511C49.1345 30.1885 49.2705 29.6899 49.1798 29.2366C49.0892 27.4689 48.1373 25.8372 46.6869 24.8853C46.0523 24.3414 45.1005 24.3868 44.5113 25.0213C44.194 25.3839 44.058 25.8825 44.1487 26.3358Z" fill="#F0F0F0"/>
</g>
<defs>
<linearGradient id="paint0_linear_3165_3182" x1="0.5" y1="54.1146" x2="80.4547" y2="54.1146" gradientUnits="userSpaceOnUse">
<stop stop-color="#FFED44"/>
<stop offset="0.07" stop-color="#FFF047"/>
<stop offset="0.3" stop-color="#FFF24A"/>
<stop offset="0.55" stop-color="#FFE23A"/>
<stop offset="0.74" stop-color="#FFDC34"/>
<stop offset="1" stop-color="#F9B519"/>
</linearGradient>
<linearGradient id="paint1_linear_3165_3182" x1="34.678" y1="-1.98377" x2="57.6278" y2="37.7672" gradientUnits="userSpaceOnUse">
<stop stop-color="#99C900"/>
<stop offset="0.03" stop-color="#99C900"/>
<stop offset="0.3" stop-color="#99C900"/>
<stop offset="0.41" stop-color="#8AC500"/>
<stop offset="0.55" stop-color="#81C300"/>
<stop offset="0.74" stop-color="#7EC200"/>
<stop offset="1" stop-color="#7EC200"/>
</linearGradient>
<clipPath id="clip0_3165_3182">
<rect width="80" height="68.9858" fill="white" transform="translate(0.5 0.5)"/>
</clipPath>
</defs>
</svg>
