<svg width="81" height="70" viewBox="0 0 81 70" fill="none" xmlns="http://www.w3.org/2000/svg">
<g clip-path="url(#clip0_3165_3893)">
<g style="mix-blend-mode:multiply">
<path d="M67.288 30.8236C49.6732 20.6539 31.4926 20.6539 13.8823 30.8236C5.06582 35.8881 0.662109 41.0567 0.662109 46.2117C0.662109 51.3667 5.06582 56.5443 13.8732 61.6315C31.4881 71.8012 49.6687 71.8012 67.279 61.6315C76.0819 56.5579 80.4992 51.3893 80.4992 46.2117C80.4992 41.034 76.0819 35.8881 67.288 30.8236Z" fill="#949494"/>
</g>
<path d="M67.2655 53.9916C49.6145 64.1342 31.452 64.1071 13.8598 53.9057C5.0478 48.805 0.653145 43.6318 0.662197 38.4678V46.1618C0.639567 51.3259 5.02517 56.499 13.8371 61.5997C31.4384 71.7966 49.619 71.8283 67.2429 61.6857C76.0593 56.6122 80.4721 51.4526 80.4812 46.2976V38.6036C80.4947 43.7586 76.082 48.9272 67.2655 53.9916Z" fill="url(#paint0_linear_3165_3893)"/>
<path d="M67.1531 24.4328C49.5518 14.2314 31.3712 14.2042 13.7473 24.3468C4.92182 29.4203 0.5 34.5799 0.5 39.7485C0.5 44.9171 4.88561 50.0902 13.6885 55.1909C31.2898 65.3878 49.4704 65.4194 67.0943 55.2769C75.9107 50.2079 80.3235 45.0438 80.3325 39.8888C80.3416 34.7338 75.9515 29.5335 67.1531 24.4328Z" fill="#37384F"/>
<path d="M58.3637 31.1133L48.7869 36.6394C47.3838 37.4496 46.4832 40.1651 46.8181 42.6L47.7233 49.3618C47.9586 51.0907 47.5875 51.7876 47.2345 52.0773L56.8113 46.5512C57.1643 46.2706 57.5354 45.5781 57.3001 43.8356L56.3949 37.0739C56.06 34.6344 56.9606 31.9234 58.3637 31.1133Z" fill="url(#paint1_linear_3165_3893)"/>
<path d="M35.295 7.19393L29.8639 4.97624C28.8546 4.55985 28.2391 4.61869 27.8634 4.83593L18.3047 10.3575C18.6803 10.1403 19.2959 10.086 20.3051 10.5024L25.7362 12.7201C26.3897 12.9859 27.0939 13.1035 27.7983 13.0643C28.5027 13.0252 29.1896 12.8303 29.8096 12.4938L39.3819 6.96764C38.76 7.30596 38.0707 7.50178 37.3639 7.54092C36.657 7.58006 35.9503 7.46153 35.295 7.19393Z" fill="url(#paint2_linear_3165_3893)"/>
<path d="M18.8303 14.8877C17.5359 12.6836 17.6264 11.5114 17.7939 11.009C17.878 10.7385 18.0584 10.5083 18.3008 10.3618C18.6764 10.1445 19.2919 10.0902 20.3012 10.5066L25.7323 12.7243C26.3858 12.9898 27.0901 13.1072 27.7944 13.0681C28.4987 13.029 29.1855 12.8343 29.8056 12.498C30.2914 12.2301 30.6975 11.8381 30.9824 11.362L33.4037 7.09407C33.584 6.74053 33.856 6.44196 34.1912 6.22962C34.4401 6.09987 34.7193 6.03939 34.9996 6.05452C35.2798 6.06965 35.5509 6.15983 35.7844 6.31562C36.332 6.63243 37.3684 7.51046 38.1695 9.84583L40.5909 16.9108C41.4734 19.4815 43.8812 22.8986 45.8545 24.3649L51.2856 28.3975C53.096 29.7327 53.6255 31.1131 53.793 31.801C53.9604 32.489 54.0509 33.7381 52.8154 34.4532L52.7565 34.4849L48.8371 36.6347H48.7964C47.3933 37.4448 46.4927 40.1604 46.8276 42.5953L47.7328 49.357C47.9681 51.0859 47.597 51.7829 47.244 52.0726C47.2068 52.1026 47.1675 52.1299 47.1263 52.154C46.7461 52.3758 46.2211 52.3079 45.6327 51.964C44.9611 51.5366 44.366 50.9997 43.8722 50.3754L39.043 44.6365C38.1181 43.5694 37.0232 42.6626 35.8025 41.9526C34.8266 41.3242 33.7066 40.955 32.5483 40.88L27.7056 41.0248C27.0878 41.0428 26.4776 40.8859 25.945 40.5722C25.2511 40.1549 24.6918 39.547 24.3338 38.8207C23.8244 37.8122 23.6545 36.666 23.8495 35.553L24.7547 29.8594C25.0896 27.7865 24.1709 23.9757 22.7452 21.5544L18.8303 14.8877Z" fill="#FFCD00"/>
<path d="M63.3558 26.2569C63.1883 25.5599 62.6361 24.1841 60.8439 22.8535L55.4128 18.8209C53.4531 17.3499 51.0498 13.9374 50.1718 11.3622L47.7504 4.30174C46.9493 1.96637 45.9129 1.08835 45.3653 0.771534C45.1313 0.614893 44.8594 0.524233 44.5783 0.5091C44.2971 0.493966 44.017 0.55492 43.7676 0.685542L34.1953 6.21168C34.4442 6.08193 34.7234 6.02145 35.0036 6.03658C35.2839 6.05171 35.555 6.14188 35.7884 6.29767C36.3361 6.61449 37.3725 7.49251 38.1736 9.82788L40.595 16.8928C41.4775 19.4635 43.8853 22.8761 45.8586 24.347L51.2897 28.3796C53.1 29.7147 53.6296 31.0951 53.797 31.7831C53.9645 32.471 54.055 33.7202 52.8194 34.4353L62.3963 28.9091C63.6137 28.194 63.5232 26.9449 63.3558 26.2569Z" fill="url(#paint3_linear_3165_3893)"/>
<path d="M42.021 31.6475C42.021 35.6213 39.233 37.2325 35.7888 35.2683C32.3446 33.304 29.5566 28.4251 29.5566 24.4468C29.5566 20.4685 32.3446 18.8618 35.8024 20.8668C39.2602 22.8718 42.021 27.6557 42.021 31.6475Z" fill="url(#paint4_radial_3165_3893)"/>
</g>
<defs>
<linearGradient id="paint0_linear_3165_3893" x1="0.648619" y1="53.8694" x2="80.4993" y2="53.8694" gradientUnits="userSpaceOnUse">
<stop stop-color="#545770"/>
<stop offset="0.1" stop-color="#50536B"/>
<stop offset="0.3" stop-color="#4E5168"/>
<stop offset="0.38" stop-color="#464960"/>
<stop offset="0.59" stop-color="#353850"/>
<stop offset="0.74" stop-color="#2F324A"/>
<stop offset="1" stop-color="#20233D"/>
</linearGradient>
<linearGradient id="paint1_linear_3165_3893" x1="49.6604" y1="36.137" x2="55.9559" y2="47.0445" gradientUnits="userSpaceOnUse">
<stop stop-color="#FFAF00"/>
<stop offset="0.6" stop-color="#FFCD10"/>
<stop offset="1" stop-color="#FFE31C"/>
</linearGradient>
<linearGradient id="paint2_linear_3165_3893" x1="26.9401" y1="5.36999" x2="30.7419" y2="11.9552" gradientUnits="userSpaceOnUse">
<stop stop-color="#FFE31C"/>
<stop offset="0.35" stop-color="#FFD111"/>
<stop offset="1" stop-color="#FFB300"/>
</linearGradient>
<linearGradient id="paint3_linear_3165_3893" x1="40.8529" y1="2.36918" x2="57.7255" y2="31.593" gradientUnits="userSpaceOnUse">
<stop stop-color="#FFCF00"/>
<stop offset="0.21" stop-color="#FFDC10"/>
<stop offset="0.39" stop-color="#FFE116"/>
<stop offset="0.61" stop-color="#FFDB12"/>
<stop offset="0.9" stop-color="#FFCA05"/>
<stop offset="1" stop-color="#FFC300"/>
</linearGradient>
<radialGradient id="paint4_radial_3165_3893" cx="0" cy="0" r="1" gradientUnits="userSpaceOnUse" gradientTransform="translate(39.1063 33.209) scale(14.4331)">
<stop stop-color="#FFE32E"/>
<stop offset="0.23" stop-color="#FFDD29"/>
<stop offset="0.54" stop-color="#FFCB1C"/>
<stop offset="0.9" stop-color="#FFAF07"/>
<stop offset="1" stop-color="#FFA600"/>
</radialGradient>
<clipPath id="clip0_3165_3893">
<rect width="80" height="68.7712" fill="white" transform="translate(0.5 0.5)"/>
</clipPath>
</defs>
</svg>
