<svg width="81" height="70" viewBox="0 0 81 70" fill="none" xmlns="http://www.w3.org/2000/svg">
<g clip-path="url(#clip0_3165_4054)">
<path d="M67.2563 30.7533C49.6257 20.5308 31.3743 20.5308 13.7437 30.7533C4.88696 35.8852 0.5 41.0585 0.5 46.2318C0.5 51.4051 4.88696 56.5784 13.7437 61.7103C31.3743 71.9328 49.6257 71.9328 67.2563 61.7103C76.113 56.6198 80.5 51.4465 80.5 46.2318C80.5 41.0171 76.113 35.8852 67.2563 30.7533Z" fill="#949494"/>
<path d="M67.2563 30.7533C49.6257 20.5308 31.3743 20.5308 13.7437 30.7533C4.88696 35.8852 0.5 41.0585 0.5 46.2318C0.5 51.4051 4.88696 56.5784 13.7437 61.7103C31.3743 71.9328 49.6257 71.9328 67.2563 61.7103C76.113 56.6198 80.5 51.4465 80.5 46.2318C80.5 41.0171 76.113 35.8852 67.2563 30.7533Z" fill="#2E2E2E"/>
<path d="M67.2563 53.9712C49.6257 64.1937 31.3743 64.1937 13.7437 53.9712C4.88696 48.8393 0.5 43.666 0.5 38.4927V46.1906C0.5 51.3639 4.88696 56.5372 13.7437 61.6691C31.3743 71.8915 49.6257 71.8915 67.2563 61.6691C76.113 56.5786 80.5 51.4052 80.5 46.1906V38.4927C80.4586 43.666 76.113 48.8393 67.2563 53.9712Z" fill="url(#paint0_linear_3165_4054)"/>
<path d="M67.2563 23.0555C49.6257 12.8331 31.3743 12.8331 13.7437 23.0555C4.88696 28.1874 0.5 33.3607 0.5 38.534C0.5 43.7073 4.88696 48.8807 13.7437 54.0126C31.3743 64.235 49.6257 64.235 67.2563 54.0126C76.113 48.922 80.5 43.7073 80.5 38.534C80.5 33.3607 76.113 28.1874 67.2563 23.0555Z" fill="#37384F"/>
<mask id="mask0_3165_4054" style="mask-type:luminance" maskUnits="userSpaceOnUse" x="0" y="14" width="81" height="49">
<path d="M67.256 22.7247C49.6253 12.2539 31.3739 12.2539 13.7433 22.7247C4.92798 27.9807 0.541016 33.2782 0.541016 38.5757C0.541016 43.8731 4.92798 49.1706 13.7847 54.4267C31.4153 64.8975 49.6667 64.8975 67.2973 54.4267C76.154 49.212 80.541 43.8731 80.541 38.5757C80.541 33.2782 76.1127 27.9807 67.256 22.7247Z" fill="white"/>
</mask>
<g mask="url(#mask0_3165_4054)">
<path opacity="0.03" d="M85.9209 1.07954C85.6312 0.996772 85.3829 0.996772 85.0932 0.996772C85.3829 0.996772 85.6312 1.03816 85.9209 1.07954ZM81.1614 4.43185C80.789 5.1768 80.582 5.96315 80.4993 6.74949C80.5407 5.96315 80.789 5.1768 81.1614 4.43185C81.2856 4.10075 81.4925 3.81105 81.6581 3.56273C81.4512 3.85244 81.2856 4.10075 81.1614 4.43185ZM62.5375 7.99108C61.9995 8.69465 61.7926 9.64654 62.1237 10.557C61.8754 9.64654 61.9995 8.65326 62.5375 7.99108C62.6203 7.90831 62.7031 7.74276 62.8686 7.70138C62.9514 7.65999 63.0756 7.6186 63.2411 7.6186L62.5375 7.99108ZM87.4936 10.2259C85.5898 5.7976 83.4377 5.01126 81.6581 6.04592C81.6995 5.63205 81.8236 5.21819 82.0306 4.84571C82.403 4.14214 82.9411 3.56273 83.5619 3.06609L86.3348 4.68017L87.4936 3.76966C87.328 2.52807 86.8728 1.65895 86.1692 1.28648L80.1682 -2.23137C79.6715 -2.52108 79.0921 -2.56246 78.5541 -2.35553C77.2297 -1.98305 75.864 -0.700073 75.0776 0.955385C74.581 1.94866 74.2913 3.10748 74.3327 4.22491L73.5877 3.76966L71.8909 4.76294C70.401 3.02471 68.9524 2.11421 67.9178 2.735L61.9167 6.33562C61.7512 6.45978 61.5443 6.62533 61.4201 6.79087C60.5096 8.03247 60.4682 9.52238 61.1304 11.2192L59.806 12.0056L59.3508 12.2953L48.7559 18.5446V26.077L50.2458 26.9461V37.5824L61.9167 44.4525L63.6964 45.4872L73.6291 51.3641L83.5619 45.4872L87.0383 43.3765L96.9711 37.4996V26.8219L98.461 25.9528V18.3791L88.1144 12.2539C88.0316 11.5503 87.8247 10.8467 87.4936 10.2259Z" fill="#F8F8F8"/>
<path opacity="0.06" d="M84.9267 1.07954C84.637 0.996772 84.3887 0.996772 84.099 0.996772C84.306 0.996772 84.637 1.03816 84.9267 1.07954ZM80.1673 4.43185C79.7948 5.1768 79.5879 5.96315 79.5051 6.74949C79.5051 5.96315 79.7534 5.1768 80.1673 4.43185C80.2915 4.10075 80.4984 3.81105 80.6639 3.56273C80.457 3.85244 80.2501 4.10075 80.1673 4.43185ZM61.5434 7.99108C61.0054 8.69465 60.7985 9.64654 61.1295 10.557C60.8398 9.64654 60.964 8.65326 61.5434 7.99108C61.6262 7.90831 61.709 7.74276 61.8745 7.70138C61.9573 7.65999 62.0814 7.6186 62.247 7.6186L61.5434 7.99108ZM86.4994 10.2259C84.5957 5.83899 82.4436 5.05264 80.6639 6.04592C80.7053 5.63205 80.8295 5.21819 81.0364 4.84571C81.4089 4.14214 81.9469 3.56273 82.5677 3.06609L85.3406 4.68017L86.4994 3.76966C86.3339 2.52807 85.8786 1.65895 85.1751 1.28648L79.174 -2.23137C78.6774 -2.52108 78.098 -2.56246 77.56 -2.35553C76.2356 -1.98305 74.8698 -0.700073 74.0835 0.955385C73.5869 1.94866 73.2972 3.10748 73.3385 4.22491L72.5936 3.76966L70.8967 4.76294C69.4068 3.02471 67.9583 2.11421 66.9236 2.735L60.9226 6.25285C60.7571 6.37701 60.5501 6.54256 60.426 6.7081C59.5155 7.94969 59.4741 9.43961 60.1363 11.1365L58.8119 11.9228L58.3567 12.2125L47.7617 18.5032V26.0356L49.2516 26.9047V37.541L60.9226 44.4112L62.7022 45.4458L72.635 51.3227L82.5677 45.4458L86.0442 43.3351L95.9355 37.4168V26.8219L97.4255 25.9528V18.3791L87.0375 12.2539C87.0375 11.5503 86.8305 10.8467 86.4994 10.2259Z" fill="#F1F1F2"/>
<path opacity="0.09" d="M83.8502 1.07954C83.5605 0.996772 83.3122 0.996772 83.0225 0.996772C83.3536 0.996772 83.6433 1.03816 83.8502 1.07954ZM79.0908 4.43185C78.7183 5.1768 78.5114 5.96315 78.4286 6.74949C78.5114 5.96315 78.7597 5.1768 79.0908 4.43185C79.2149 4.10075 79.4219 3.81105 79.5874 3.56273C79.4219 3.85244 79.2977 4.10075 79.0908 4.43185ZM60.5083 7.99108C59.9702 8.69465 59.7633 9.64654 60.0944 10.5157C59.8461 9.60515 60.0116 8.65326 60.5083 7.99108C60.591 7.86692 60.6738 7.74276 60.8393 7.65999C60.9221 7.6186 61.0463 7.57722 61.2118 7.57722L60.5083 7.99108ZM85.4643 10.2259C83.5605 5.83899 81.4084 5.05264 79.6288 6.04592C79.6702 5.63205 79.7943 5.21819 80.0013 4.84571C80.3737 4.14214 80.9118 3.56273 81.5326 3.06609L84.3055 4.68017L85.4643 3.76966C85.2987 2.52807 84.8435 1.65895 84.1399 1.28648L78.1389 -2.23137C77.6422 -2.52108 77.0628 -2.56246 76.5248 -2.35553C75.2004 -1.98305 73.8347 -0.700073 73.0483 0.955385C72.5517 1.94866 72.262 3.10748 72.3034 4.22491L71.5584 3.76966L69.8616 4.76294C68.3717 3.02471 66.9231 2.11421 65.8885 2.735L59.8875 6.25285C59.7219 6.37701 59.515 6.54256 59.3908 6.7081C58.4803 7.94969 58.3975 9.43961 59.1011 11.1365L57.7767 11.9228L57.3215 12.2125L46.7266 18.5032V26.0356L48.2165 26.9047V37.541L59.8875 44.4112L61.6671 45.4458L71.5998 51.3227L81.5326 45.4458L85.009 43.3351L94.9418 37.4582V26.8219L96.4317 25.9528V18.3791L86.0851 12.2539C86.0437 11.5503 85.8368 10.8467 85.4643 10.2259Z" fill="#EAEAEB"/>
<path opacity="0.12" d="M82.8573 1.07931C82.5676 0.996537 82.3193 0.996537 82.0295 0.996537C82.2779 0.996537 82.609 1.03792 82.8573 1.07931ZM78.0978 4.43161C78.222 4.10052 78.4289 3.81081 78.5945 3.5625C78.4289 3.8522 78.1806 4.10052 78.0978 4.43161ZM59.5567 7.90807C59.0187 8.61164 58.8117 9.56353 59.1428 10.474C58.8531 9.6463 59.0187 8.65303 59.5567 7.90807C59.6395 7.8253 59.7223 7.65975 59.8878 7.61837C59.9706 7.57698 60.0947 7.5356 60.2603 7.5356L59.5567 7.90807ZM84.5127 10.1429C82.609 5.75598 80.4569 4.96964 78.6772 5.96291C78.7186 5.54905 78.8428 5.13518 79.0497 4.7627C79.4222 4.05913 79.9602 3.47972 80.581 2.98309L83.3539 4.59716L84.5127 3.68666C84.3472 2.44506 83.8919 1.57595 83.1884 1.20347L77.1873 -2.31438C76.6907 -2.60408 76.1113 -2.64547 75.5733 -2.43854C74.2489 -2.06606 72.8831 -0.783081 72.0968 0.872377C71.6002 1.86565 71.3105 3.02447 71.3518 4.14191L70.6069 3.68666L68.9928 4.67993C67.5029 2.9417 66.0544 2.0312 65.0197 2.65199L59.0187 6.25262C58.8531 6.37677 58.6462 6.54232 58.522 6.70787C57.6115 7.94946 57.5288 9.43937 58.2323 11.1362L56.908 11.9226L56.4527 12.2123L45.8164 18.503V26.0353L47.3063 26.9045V37.5408L59.0187 44.4523L60.7983 45.487L70.731 51.3638L80.6638 45.487L84.1403 43.3763L94.0316 37.4166V26.8217L95.5215 25.9526V18.3788L85.1749 12.2537C85.0094 11.5501 84.7611 10.8465 84.5127 10.1429Z" fill="#E3E3E5"/>
<path opacity="0.15" d="M81.8221 1.07943C81.5324 0.996654 81.2841 0.996654 80.9944 0.996654C81.3255 0.996654 81.6152 1.03804 81.8221 1.07943ZM77.0627 4.43173C76.6902 5.17669 76.4833 5.96303 76.4005 6.74937C76.5247 5.96303 76.7316 5.17669 77.0627 4.43173C77.1868 4.10064 77.3938 3.81093 77.5593 3.56261C77.4352 3.85232 77.2282 4.10064 77.0627 4.43173ZM58.5629 7.90819C58.0249 8.61176 57.818 9.56365 58.1491 10.4742C57.818 9.64642 58.0249 8.65315 58.5629 7.90819C58.6457 7.82542 58.7285 7.65987 58.894 7.61849C58.9768 7.5771 59.101 7.53571 59.2665 7.53571L58.5629 7.90819ZM83.519 10.1431C81.6152 5.75609 79.4631 4.96975 77.6835 5.96303C77.7249 5.54916 77.849 5.1353 78.056 4.76282C78.4284 4.05925 78.9665 3.47984 79.5873 2.9832L82.3601 4.59727L83.519 3.68677C83.3534 2.44518 82.8982 1.57606 82.1946 1.20359L76.2349 -2.27288C75.7383 -2.56258 75.1589 -2.60397 74.6209 -2.39703C73.2965 -2.02456 71.9308 -0.741577 71.1444 0.913881C70.6478 1.90716 70.3581 3.06598 70.3995 4.18341L69.6545 3.72816L67.9577 4.72143C66.4677 2.9832 65.0192 2.0727 63.9846 2.6935L57.9421 6.29412C57.7766 6.41828 57.5697 6.58382 57.4455 6.74937C56.535 7.99096 56.4522 9.48088 57.1558 11.1777L55.8314 11.9641L55.3762 12.2538L44.7812 18.5031V26.0355L46.2712 26.9046V37.5409L57.9421 44.411L59.7218 45.4457L69.6545 51.3226L79.5873 45.4457L83.0637 43.335L92.9551 37.4581V26.8218L94.445 25.9527V18.379L84.0984 12.2538C84.0156 11.5502 83.7673 10.8466 83.519 10.1431Z" fill="#DCDCDE"/>
<path opacity="0.18" d="M80.8717 1.07954C80.582 0.996772 80.3337 0.996772 80.044 0.996772C80.3337 0.996772 80.6234 1.03816 80.8717 1.07954ZM76.1122 4.43185C75.7398 5.1768 75.5328 5.96315 75.4501 6.74949C75.4915 5.96315 75.6984 5.1768 76.1122 4.43185C76.2364 4.10075 76.4433 3.81105 76.6089 3.56273C76.402 3.85244 76.2364 4.10075 76.1122 4.43185ZM57.5711 7.99108C57.0331 8.69465 56.8262 9.64654 57.1573 10.557C56.8262 9.64654 56.9917 8.65326 57.5711 7.99108C57.6539 7.90831 57.7367 7.74276 57.9022 7.70138C57.985 7.65999 58.1091 7.6186 58.2747 7.6186L57.5711 7.99108ZM82.5271 10.2259C80.6234 5.83899 78.4713 5.05264 76.6917 6.04592C76.733 5.63205 76.8572 5.21819 77.0641 4.84571C77.4366 4.14214 77.9746 3.56273 78.5954 3.06609L81.3683 4.68017L82.5271 3.76966C82.3616 2.52807 81.9064 1.65895 81.2028 1.28648L75.2017 -2.23137C74.7051 -2.52108 74.1257 -2.56246 73.5877 -2.35553C72.2633 -1.98305 70.8976 -0.700073 70.1112 0.955385C69.6146 1.94866 69.3249 3.10748 69.3663 4.22491L68.6213 3.76966L66.9245 4.76294C65.4345 3.02471 63.986 2.11421 62.9514 2.735L56.9503 6.25285C56.7848 6.37701 56.5778 6.54256 56.4537 6.7081C55.5432 7.94969 55.4604 9.43961 56.164 11.1365L54.8396 11.8814L54.3844 12.1711L43.748 18.5032V26.0356L45.238 26.9047V37.541L56.9089 44.4112L58.6886 45.4458L68.6213 51.3227L78.5541 45.4458L82.0305 43.3351L91.9633 37.4582V26.8219L93.4532 25.9528V18.3791L83.1066 12.2539C82.9824 11.5503 82.7341 10.8467 82.5271 10.2259Z" fill="#D5D5D8"/>
<path opacity="0.21" d="M79.7951 1.07954C79.5054 0.996772 79.2571 0.996772 78.9674 0.996772C79.3399 0.996772 79.5468 1.03816 79.7951 1.07954ZM75.0357 4.43185C74.6632 5.1768 74.4563 5.96315 74.3735 6.74949C74.4977 5.96315 74.7046 5.1768 75.0357 4.43185C75.1599 4.10075 75.3668 3.81105 75.5323 3.56273C75.4496 3.85244 75.2426 4.10075 75.0357 4.43185ZM56.536 7.99108C55.9979 8.69465 55.791 9.64654 56.1221 10.557C55.791 9.64654 55.9979 8.65326 56.536 7.99108C56.6187 7.90831 56.7015 7.74276 56.8671 7.70138C56.9498 7.65999 57.074 7.6186 57.2395 7.6186L56.536 7.99108ZM81.4506 10.2259C79.5468 5.83899 77.3947 5.05264 75.6151 6.04592C75.6565 5.63205 75.7807 5.21819 75.9876 4.84571C76.3601 4.14214 76.8981 3.56273 77.5189 3.06609L80.3332 4.68017L81.492 3.76966C81.3264 2.52807 80.8712 1.65895 80.1676 1.28648L74.1666 -2.23137C73.67 -2.52108 73.0905 -2.56246 72.5525 -2.35553C71.2282 -1.98305 69.8624 -0.700073 69.0761 0.955385C68.5794 1.94866 68.2897 3.10748 68.3311 4.22491L67.5861 3.76966L65.8893 4.76294C64.3994 3.02471 62.9509 2.11421 61.9162 2.735L55.9152 6.33562C55.7496 6.45978 55.5427 6.62533 55.4185 6.79087C54.508 8.03247 54.4253 9.52238 55.1288 11.2192L53.8045 12.0056L53.3492 12.2953L42.7129 18.5446V26.077L44.2028 26.9461V37.5824L55.8738 44.4525L57.6534 45.4872L67.5861 51.4055L77.5189 45.5286L80.9954 43.4179L90.9281 37.4996V26.8219L92.418 25.9528V18.3791L82.0714 12.2539C81.9886 11.5503 81.7817 10.8467 81.4506 10.2259Z" fill="#CECED1"/>
<path opacity="0.24" d="M78.8436 1.07931C78.5539 0.996536 78.3056 0.996536 78.0159 0.996536C78.3056 0.996536 78.5953 1.03792 78.8436 1.07931ZM74.0842 4.43161C73.7117 5.17657 73.5047 5.96291 73.422 6.74925C73.422 5.96291 73.6703 5.17657 74.0842 4.43161C74.2083 4.10052 74.4153 3.81081 74.5808 3.5625C74.3325 3.8522 74.2083 4.10052 74.0842 4.43161ZM55.543 7.90807C55.005 8.61164 54.7981 9.56353 55.1292 10.474C54.7981 9.6463 54.9636 8.65303 55.543 7.90807C55.6258 7.8253 55.7086 7.65975 55.8741 7.61837C55.9569 7.57698 56.0811 7.53559 56.2466 7.53559L55.543 7.90807ZM80.4577 10.1429C78.5539 5.75598 76.4018 4.96963 74.6222 5.96291C74.6636 5.54904 74.7877 5.13518 74.9947 4.7627C75.3671 4.05913 75.9052 3.47972 76.526 2.98309L79.2988 4.59716L80.4577 3.68666C80.2921 2.44506 79.8369 1.57595 79.1333 1.20347L73.1323 -2.31438C72.6356 -2.60408 72.0562 -2.64547 71.5182 -2.43854C70.1938 -2.06606 68.8281 -0.783081 68.0417 0.872377C67.5451 1.86565 67.2554 3.02447 67.2968 4.14191L66.5518 3.68666L64.855 4.67993C63.4065 2.90031 61.9579 1.98981 60.9233 2.56922L54.9222 6.16984C54.7567 6.294 54.5498 6.45955 54.4256 6.62509C53.5151 7.86669 53.4323 9.3566 54.1359 11.0534L52.8115 11.8398L52.3563 12.1295L41.8027 18.3788V25.9112L43.2926 26.7803V37.4166L54.9636 44.2868L56.7432 45.3214L66.676 51.1983L76.6087 45.3214L80.0852 43.2107L90.0179 37.3338V26.8217L91.5078 25.9526V18.3788L81.1612 12.2536C80.9957 11.5501 80.7888 10.8465 80.4577 10.1429Z" fill="#C7C7CB"/>
<path opacity="0.27" d="M77.8498 1.07954C77.5601 0.996772 77.3118 0.996772 77.0221 0.996772C77.3118 0.996772 77.5187 1.03816 77.8498 1.07954ZM73.0904 4.43185C72.7179 5.1768 72.511 5.96315 72.4282 6.74949C72.4696 5.96315 72.7179 5.1768 73.0904 4.43185C73.2145 4.10075 73.4215 3.81105 73.587 3.56273C73.3801 3.85244 73.2145 4.10075 73.0904 4.43185ZM54.5079 7.99108C53.9699 8.69465 53.7629 9.64654 54.094 10.557C53.8043 9.64654 53.9285 8.65326 54.5079 7.99108C54.5906 7.90831 54.6734 7.74276 54.839 7.70138C54.9217 7.65999 55.0459 7.6186 55.2114 7.6186L54.5079 7.99108ZM79.4639 10.2259C77.5601 5.83899 75.408 5.05264 73.6284 6.04592C73.6698 5.63205 73.794 5.21819 74.0009 4.84571C74.3734 4.14214 74.9114 3.56273 75.5322 3.06609L78.3051 4.68017L79.4639 3.76966C79.2984 2.52807 78.8431 1.65895 78.1395 1.28648L72.1385 -2.23137C71.6419 -2.52108 71.0625 -2.56246 70.5244 -2.35553C69.2001 -1.98305 67.8343 -0.700073 67.048 0.955385C66.5513 1.94866 66.2616 3.10748 66.303 4.22491L65.5581 3.76966L63.8612 4.76294C62.3713 3.02471 60.9228 2.11421 59.8881 2.735L53.8871 6.25285C53.7215 6.37701 53.5146 6.54256 53.3904 6.7081C52.4799 7.94969 52.3972 9.43961 53.1007 11.1365L51.7764 11.9228L51.3211 12.2125L40.7676 18.3791V25.9114L42.2575 26.7805V37.4168L53.9285 44.287L55.7081 45.3217L65.6408 51.1985L75.5736 45.3217L79.05 43.2109L88.9414 37.3755V26.8219L90.4313 25.9528V18.3791L80.0847 12.2539C79.9605 11.5503 79.7536 10.8467 79.4639 10.2259Z" fill="#C0C1C4"/>
<path opacity="0.3" d="M76.8576 1.07954C76.5679 0.996772 76.3196 0.996772 76.0299 0.996772C76.2782 0.996772 76.5679 1.03816 76.8576 1.07954ZM72.0982 4.43185C71.7257 5.1768 71.5188 5.96315 71.436 6.74949C71.4774 5.96315 71.7257 5.1768 72.0982 4.43185C72.2224 4.10075 72.4293 3.81105 72.5948 3.56273C72.3879 3.85244 72.2224 4.10075 72.0982 4.43185ZM53.5157 7.99108C52.9777 8.69465 52.7707 9.64654 53.1018 10.557C52.8121 9.64654 52.9363 8.65326 53.5157 7.99108C53.5985 7.90831 53.6812 7.74276 53.8468 7.70138C53.9296 7.65999 54.0537 7.6186 54.2193 7.6186L53.5157 7.99108ZM78.4303 10.2259C76.5266 5.7976 74.3745 5.01126 72.5948 6.04592C72.6362 5.63205 72.7604 5.21819 72.9673 4.84571C73.3398 4.14214 73.8778 3.56273 74.4986 3.06609L77.2715 4.68017L78.4303 3.76966C78.2648 2.52807 77.8095 1.65895 77.106 1.28648L71.1049 -2.23137C70.6083 -2.52108 70.0289 -2.56246 69.4909 -2.35553C68.1665 -1.98305 66.8007 -0.700073 66.0144 0.955385C65.5178 1.94866 65.2281 3.10748 65.2694 4.22491L64.5245 3.76966L62.8276 4.76294C61.3791 3.02471 59.8892 2.11421 58.8545 2.735L52.8535 6.33562C52.688 6.45978 52.481 6.62533 52.3569 6.79087C51.4464 8.03247 51.3636 9.52238 52.0672 11.2192L50.7428 12.0056L50.2875 12.2953L39.7754 18.3791V25.9114L41.2653 26.7805V37.4168L52.9363 44.287L54.7159 45.3217L64.6486 51.1985L74.5814 45.3217L78.0579 43.2109L87.9906 37.3341V26.8219L89.4805 25.9528V18.3791L79.1339 12.2539C78.9684 11.5503 78.7614 10.8467 78.4303 10.2259Z" fill="#B9BABE"/>
<path opacity="0.33" d="M75.8225 1.07954C75.5328 0.996772 75.2845 0.996772 74.9948 0.996772C75.2431 0.996772 75.5742 1.03816 75.8225 1.07954ZM71.0217 4.43185C70.6492 5.1768 70.4423 5.96315 70.3595 6.74949C70.4423 5.96315 70.6906 5.1768 71.0217 4.43185C71.1458 4.10075 71.3528 3.81105 71.5183 3.56273C71.3941 3.85244 71.1872 4.10075 71.0217 4.43185ZM52.4805 7.99108C51.9425 8.69465 51.7356 9.64654 52.0667 10.557C51.777 9.64654 51.9425 8.65326 52.4805 7.99108C52.5633 7.90831 52.6461 7.74276 52.8116 7.70138C52.8944 7.65999 53.0186 7.6186 53.1841 7.6186L52.4805 7.99108ZM77.4366 10.2259C75.5328 5.83899 73.3807 5.05264 71.6011 6.04592C71.6425 5.63205 71.7666 5.21819 71.9735 4.84571C72.346 4.14214 72.884 3.56273 73.5462 3.06609L76.3191 4.68017L77.4779 3.76966C77.3124 2.52807 76.8571 1.65895 76.1536 1.28648L70.1525 -2.23137C69.6559 -2.52108 69.0765 -2.56246 68.5385 -2.35553C67.2141 -1.98305 65.8484 -0.700073 65.062 0.955385C64.5654 1.94866 64.2757 3.10748 64.3171 4.22491L63.5721 3.76966L61.8753 4.76294C60.4267 3.02471 58.9368 2.11421 57.9022 2.735L51.9011 6.25285C51.7356 6.37701 51.5286 6.54256 51.4045 6.7081C50.494 7.94969 50.4112 9.43961 51.1148 11.1365L49.7904 11.9228L49.3352 12.2125L38.7402 18.3791V25.9114L40.2301 26.7805V37.4168L51.9011 44.287L53.6807 45.3217L63.6135 51.1985L73.5462 45.3217L77.0227 43.2109L86.9141 37.2927V26.8219L88.404 25.9528V18.3791L78.0574 12.2539C77.9746 11.5503 77.7263 10.8467 77.4366 10.2259Z" fill="#B2B3B7"/>
<path opacity="0.36" d="M74.787 1.07931C74.4973 0.996536 74.2489 0.996536 73.9592 0.996536C74.2489 0.996536 74.58 1.03792 74.787 1.07931ZM70.0275 4.43161C70.1517 4.10052 70.3586 3.81081 70.5242 3.5625C70.3586 3.8522 70.2345 4.10052 70.0275 4.43161ZM51.4864 7.99085C50.9484 8.69442 50.7414 9.6463 51.0725 10.5568C50.7828 9.6463 50.9484 8.65303 51.4864 7.99085C51.5692 7.90807 51.6519 7.74253 51.8175 7.70114C51.9003 7.65975 52.0244 7.61837 52.19 7.61837L51.4864 7.99085ZM76.401 10.2257C74.4973 5.83875 72.3452 5.05241 70.5655 6.04568C70.6069 5.63182 70.7311 5.21795 70.938 4.84548C71.3105 4.14191 71.8485 3.5625 72.4693 3.06586L75.2422 4.67993L76.401 3.76943C76.2355 2.52783 75.7802 1.65872 75.0767 1.28624L69.0756 -2.31438C68.579 -2.60408 67.9996 -2.64547 67.4616 -2.43854C66.1372 -2.06606 64.7714 -0.783081 63.9851 0.872377C63.4885 1.86565 63.1988 3.02447 63.2401 4.14191L62.4952 3.68666L60.7983 4.67993C59.3084 2.9417 57.8599 2.0312 56.8252 2.65199L50.8242 6.25261C50.6587 6.37677 50.4517 6.54232 50.3276 6.70787C49.4171 7.94946 49.3343 9.43937 50.0379 11.1362L48.7135 11.9226L48.2583 12.2123L37.7461 18.3788V25.9112L39.236 26.7803V37.4166L50.907 44.2868L52.6866 45.3214L62.6194 51.1983L72.5521 45.3214L76.0286 43.2107L85.9613 37.3338V26.8217L87.4512 25.9526V18.3788L77.1046 12.2536C76.9804 11.5501 76.7321 10.8465 76.401 10.2257Z" fill="#ABACB0"/>
<path opacity="0.39" d="M73.7948 1.07954C73.5051 0.996772 73.2568 0.996772 72.967 0.996772C73.2154 0.996772 73.5465 1.03816 73.7948 1.07954ZM69.0353 4.43185C69.1595 4.10075 69.3664 3.81105 69.532 3.56273C69.3664 3.85244 69.1181 4.10075 69.0353 4.43185ZM50.4942 7.99108C49.9562 8.69465 49.7493 9.64654 50.0803 10.557C49.7493 9.64654 49.9148 8.65326 50.4942 7.99108C50.577 7.90831 50.6598 7.74276 50.8253 7.70138C50.9081 7.65999 51.0322 7.6186 51.1978 7.6186L50.4942 7.99108ZM75.4502 10.2259C73.5465 5.83899 71.3944 5.05264 69.6147 6.04592C69.6561 5.63205 69.7803 5.21819 69.9872 4.84571C70.3597 4.14214 70.8977 3.56273 71.5185 3.06609L74.2914 4.68017L75.4502 3.76966C75.2847 2.52807 74.8294 1.65895 74.1259 1.28648L68.1248 -2.23137C67.6282 -2.52108 67.0488 -2.56246 66.5108 -2.35553C65.1864 -1.98305 63.8206 -0.700073 63.0343 0.955385C62.5377 1.94866 62.248 3.10748 62.2893 4.22491L61.5444 3.76966L59.9303 4.76294C58.4818 3.02471 56.9919 2.11421 55.9572 2.735L49.9562 6.25285C49.7906 6.37701 49.5837 6.54256 49.4595 6.7081C48.549 7.94969 48.4663 9.43961 49.1698 11.1365L47.8455 11.9228L47.3902 12.2125L36.7539 18.3791V25.9114L38.2438 26.7805V37.4168L49.9148 44.287L51.6944 45.3217L61.6272 51.1985L71.5599 45.3217L75.0364 43.2109L84.9691 37.3341V26.8219L86.459 25.9528V18.3791L76.1124 12.2539C75.9469 11.5503 75.6986 10.8467 75.4502 10.2259Z" fill="#A4A5AA"/>
<path opacity="0.42" d="M72.7593 1.07943C72.4695 0.996654 72.2212 0.996654 71.9315 0.996654C72.2626 0.996654 72.5109 1.03804 72.7593 1.07943ZM67.9998 4.43173C67.6273 5.17669 67.4204 5.96303 67.3376 6.74937C67.4618 5.96303 67.6687 5.17669 67.9998 4.43173C68.124 4.10064 68.3309 3.81093 68.4964 3.56261C68.3723 3.85232 68.1654 4.10064 67.9998 4.43173ZM49.5001 7.90819C48.9207 8.61176 48.7551 9.56365 49.0448 10.4742C48.7137 9.60504 48.9207 8.65315 49.5001 7.90819C49.5415 7.78403 49.6242 7.65987 49.7898 7.61849C49.8725 7.5771 49.9967 7.53571 50.1623 7.53571L49.5001 7.90819ZM74.4561 10.1431C72.5523 5.75609 70.4002 4.96975 68.6206 5.96303C68.662 5.54916 68.7862 5.1353 68.9931 4.76282C69.3656 4.05925 69.9036 3.47984 70.5244 2.9832L73.2973 4.59727L74.4561 3.68677C74.2905 2.44518 73.8353 1.57606 73.1317 1.20359L67.1721 -2.27288C66.6754 -2.56258 66.096 -2.60397 65.558 -2.39703C64.2336 -2.02456 62.8679 -0.741577 62.0815 0.913881C61.5849 1.90716 61.2952 3.06598 61.3366 4.18341L60.5916 3.72816L58.8948 4.72143C57.4463 2.9832 55.9564 2.0727 54.9217 2.6935L48.9207 6.21135C48.7551 6.33551 48.5482 6.50105 48.424 6.6666C47.5135 7.90819 47.4307 9.3981 48.1343 11.0949L46.8099 11.8813L46.3547 12.171L35.7598 18.379V25.9113L37.2497 26.7804V37.4167L48.9207 44.3696L50.7003 45.4043L60.633 51.2812L70.5658 45.4043L74.0422 43.2936L83.9336 37.4167V26.8218L85.4235 25.9527V18.379L75.0769 12.2538C74.9527 11.5502 74.7044 10.8466 74.4561 10.1431Z" fill="#9D9EA3"/>
<path opacity="0.45" d="M71.8069 1.07954C71.5172 0.996772 71.2688 0.996772 70.9791 0.996772C71.2688 0.996772 71.5172 1.03816 71.8069 1.07954ZM67.006 4.43185C67.1302 4.10075 67.3371 3.81105 67.5027 3.56273C67.2957 3.85244 67.1716 4.10075 67.006 4.43185ZM48.4649 7.99108C47.9269 8.69465 47.72 9.64654 48.051 10.557C47.72 9.64654 47.9269 8.65326 48.4649 7.99108C48.5477 7.90831 48.6305 7.74276 48.796 7.70138C48.8788 7.65999 49.0029 7.6186 49.1685 7.6186L48.4649 7.99108ZM73.3796 10.2259C71.4758 5.83899 69.3237 5.05264 67.5441 6.04592C67.5854 5.63205 67.7096 5.21819 67.9165 4.84571C68.289 4.14214 68.827 3.56273 69.4478 3.06609L72.2207 4.68017L73.3796 3.76966C73.214 2.52807 72.7588 1.65895 72.0552 1.28648L66.0541 -2.23137C65.5575 -2.52108 64.9781 -2.56246 64.4401 -2.35553C63.1157 -1.98305 61.75 -0.700073 60.9636 0.955385C60.467 1.94866 60.1773 3.10748 60.2187 4.22491L59.4737 3.76966L57.7769 4.76294C56.3283 3.02471 54.8384 2.11421 53.8038 2.735L47.8027 6.25285C47.6372 6.37701 47.4302 6.54256 47.3061 6.7081C46.3956 7.94969 46.3128 9.43961 47.0164 11.1365L45.692 11.8814L45.2368 12.1711L34.7246 18.3791V25.9114L36.2145 26.7805V37.4168L47.8855 44.287L49.6651 45.3217L59.5979 51.1985L69.5306 45.3217L73.0071 43.2109L82.9398 37.3341V26.8219L84.4297 25.9528V18.3791L74.0831 12.2539C73.8762 11.5503 73.6693 10.8467 73.3796 10.2259Z" fill="#96979D"/>
<path opacity="0.48" d="M70.7319 1.07954C70.4422 0.996772 70.1939 0.996772 69.9042 0.996772C70.2767 0.996772 70.4836 1.03816 70.7319 1.07954ZM65.9725 4.43185C65.6 5.1768 65.3931 5.96315 65.3103 6.74949C65.3931 5.96315 65.6414 5.1768 65.9725 4.43185C66.0966 4.10075 66.3036 3.81105 66.4691 3.56273C66.3036 3.85244 66.1794 4.10075 65.9725 4.43185ZM47.4727 7.99108C46.9347 8.69465 46.7278 9.64654 47.0589 10.5157C46.7278 9.60515 46.8933 8.65326 47.4727 7.99108C47.5555 7.86692 47.6383 7.74276 47.8038 7.65999C47.8866 7.6186 48.0107 7.57722 48.1763 7.57722L47.4727 7.99108ZM72.3874 10.2259C70.4836 5.83899 68.3315 5.05264 66.5519 6.04592C66.5933 5.63205 66.7174 5.21819 66.9244 4.84571C67.2968 4.14214 67.8349 3.56273 68.4556 3.06609L71.2699 4.68017L72.4287 3.76966C72.2632 2.52807 71.808 1.65895 71.1044 1.28648L65.1033 -2.23137C64.6067 -2.52108 64.0273 -2.56246 63.4893 -2.35553C62.1649 -1.98305 60.7992 -0.700073 60.0128 0.955385C59.5162 1.94866 59.2265 3.10748 59.2679 4.22491L58.4815 3.76966L56.7847 4.76294C55.2948 3.02471 53.8462 2.11421 52.8116 2.735L46.8519 6.21146C46.6864 6.33562 46.4794 6.50117 46.3553 6.66671C45.4448 7.90831 45.362 9.39822 46.0656 11.0951L44.7412 11.8814L44.286 12.1711L33.7324 18.3791V25.9114L35.2223 26.7805V37.4168L46.8519 44.3698L48.6315 45.4044L58.5643 51.3227L68.497 45.4458L71.9735 43.3351L81.9062 37.4168V26.8219L83.3962 25.9528V18.3791L73.0495 12.2539C72.9254 11.5503 72.7185 10.8467 72.3874 10.2259Z" fill="#8F9096"/>
<path opacity="0.52" d="M69.7795 1.07931C69.4898 0.996536 69.2415 0.996536 68.9518 0.996536C69.2415 0.996536 69.4898 1.03792 69.7795 1.07931ZM65.0201 4.43161C64.6476 5.17657 64.4407 5.96291 64.3579 6.74925C64.3579 5.96291 64.6062 5.17657 65.0201 4.43161C65.1442 4.10052 65.3512 3.81081 65.5167 3.5625C65.2684 3.8522 65.1442 4.10052 65.0201 4.43161ZM46.4376 7.90807C45.8995 8.61164 45.6926 9.56353 46.0237 10.474C45.734 9.6463 45.8995 8.65303 46.4376 7.90807C46.5203 7.8253 46.6031 7.65975 46.7687 7.61837C46.8514 7.57698 46.9756 7.53559 47.0997 7.53559L46.4376 7.90807ZM71.3936 10.1429C69.4898 5.75598 67.3377 4.96963 65.5581 5.96291C65.5995 5.54904 65.7236 5.13518 65.9306 4.7627C66.3031 4.05913 66.8411 3.47972 67.4619 2.98309L70.2348 4.59716L71.3936 3.68666C71.228 2.44506 70.7728 1.57595 70.0692 1.20347L64.0682 -2.31438C63.5716 -2.60408 62.9921 -2.64547 62.4541 -2.43854C61.1297 -2.06606 59.764 -0.783081 58.9777 0.872377C58.481 1.86565 58.1913 3.02447 58.2327 4.14191L57.4464 3.68666L55.7495 4.67993C54.301 2.90031 52.8525 1.98981 51.8178 2.56922L45.8168 6.16984C45.6512 6.294 45.4443 6.45955 45.3201 6.62509C44.4096 7.86669 44.3269 9.3566 45.0304 11.0534L43.7061 11.8398L43.2508 12.1295L32.6973 18.3788V25.9112L34.1872 26.7803V37.4166L45.8582 44.2868L47.6378 45.3214L57.5705 51.1983L67.5033 45.3214L70.9797 43.2107L80.9125 37.3338V26.8217L82.4024 25.9526V18.3788L72.0558 12.2536C71.8488 11.5501 71.7247 10.8465 71.3936 10.1429Z" fill="#898990"/>
<path opacity="0.55" d="M68.7854 1.07931C68.4957 0.996536 68.2474 0.996536 67.9576 0.996536C68.206 0.996536 68.4543 1.03792 68.7854 1.07931ZM63.9845 4.43161C63.6121 5.17657 63.4051 5.96291 63.3224 6.74925C63.4051 5.96291 63.6535 5.17657 63.9845 4.43161C64.1087 4.10052 64.3156 3.81081 64.4812 3.5625C64.3156 3.8522 64.1501 4.10052 63.9845 4.43161ZM45.4434 7.90807C44.9054 8.61164 44.6985 9.56353 45.0296 10.474C44.7399 9.60492 44.864 8.65303 45.4434 7.90807C45.5262 7.78391 45.609 7.65975 45.7745 7.61837C45.8573 7.57698 45.9814 7.53559 46.1056 7.53559L45.4434 7.90807ZM70.3994 10.1429C68.4957 5.75598 66.3436 4.96963 64.564 5.96291C64.6053 5.54904 64.7295 5.13518 64.9364 4.7627C65.3089 4.05913 65.8469 3.47972 66.4677 2.98309L69.2406 4.59716L70.3994 3.68666C70.2339 2.44506 69.7787 1.57595 69.0751 1.20347L63.074 -2.31438C62.5774 -2.60408 61.998 -2.64547 61.46 -2.43854C60.1356 -2.06606 58.7699 -0.783081 57.9835 0.872377C57.4869 1.86565 57.1972 3.02447 57.2386 4.14191L56.4522 3.68666L54.7554 4.67993C53.2655 2.9417 51.8169 2.0312 50.7823 2.65199L44.7812 6.16984C44.6157 6.294 44.4088 6.45955 44.2846 6.62509C43.3741 7.86669 43.2913 9.3566 43.9949 11.0534L42.6705 11.8398L42.2981 12.0881L31.7031 18.3788V25.9112L33.193 26.7803V37.4166L44.864 44.2868L46.6436 45.3214L56.5764 51.1983L66.5091 45.3214L69.9856 43.2107L79.8769 37.3752V26.8217L81.3669 25.9526V18.3788L71.0202 12.2536C70.8961 11.5501 70.6892 10.8465 70.3994 10.1429Z" fill="#828289"/>
<path opacity="0.58" d="M67.7522 1.07931C67.4625 0.996536 67.2142 0.996536 66.9244 0.996536C67.2142 0.996536 67.5039 1.03792 67.7522 1.07931ZM62.9927 4.43161C62.6203 5.17657 62.4133 5.96291 62.3306 6.74925C62.3306 5.96291 62.6616 5.17657 62.9927 4.43161C63.1169 4.10052 63.3238 3.81081 63.4894 3.5625C63.3238 3.8522 63.1583 4.10052 62.9927 4.43161ZM44.4102 7.90807C43.8722 8.61164 43.6653 9.56353 43.9964 10.474C43.748 9.60492 43.8722 8.65303 44.4102 7.90807C44.493 7.78391 44.5758 7.65975 44.7413 7.61837C44.8241 7.57698 44.9482 7.53559 45.1138 7.53559L44.4102 7.90807ZM69.3662 10.1429C67.4625 5.75598 65.3104 4.96963 63.5308 5.96291C63.5721 5.54904 63.6963 5.13518 63.9032 4.7627C64.2757 4.05913 64.8137 3.47972 65.4345 2.98309L68.2074 4.59716L69.3662 3.68666C69.2007 2.44506 68.7455 1.57595 68.0419 1.20347L62.0408 -2.31438C61.5442 -2.60408 60.9648 -2.64547 60.4268 -2.43854C59.1024 -2.06606 57.7367 -0.783081 56.9503 0.872377C56.4537 1.86565 56.164 3.02447 56.2054 4.14191L55.419 3.68666L53.7222 4.67993C52.2323 2.9417 50.7837 2.0312 49.7491 2.65199L43.7067 6.25261C43.5411 6.37677 43.3342 6.54232 43.21 6.70787C42.2995 7.94946 42.2167 9.43937 42.9203 11.1362L41.6373 11.9226L41.1821 12.2123L30.6699 18.3788V25.9112L32.1598 26.7803V37.4166L43.8308 44.2868L45.6104 45.3214L55.5432 51.1983L65.4759 45.3214L68.9524 43.2107L78.8851 37.3338V26.8217L80.375 25.9526V18.3788L70.0284 12.2536C69.9043 11.5501 69.656 10.8465 69.3662 10.1429Z" fill="#7B7B83"/>
<path opacity="0.61" d="M66.7167 1.07931C66.4269 0.996536 66.1786 0.996536 65.8889 0.996536C66.1786 0.996536 66.4269 1.03792 66.7167 1.07931ZM61.9572 4.43161C62.0814 4.10052 62.2883 3.81081 62.4538 3.5625C62.2883 3.8522 62.0814 4.10052 61.9572 4.43161ZM43.4161 7.90807C42.8781 8.61164 42.6711 9.56353 43.0022 10.474C42.7125 9.60492 42.8781 8.65303 43.4161 7.90807C43.4989 7.78391 43.5816 7.65975 43.7472 7.61837C43.8299 7.57698 43.9541 7.53559 44.1197 7.53559L43.4161 7.90807ZM68.3721 10.1429C66.4683 5.75598 64.3162 4.96963 62.5366 5.96291C62.578 5.54904 62.7022 5.13518 62.9091 4.7627C63.2816 4.05913 63.8196 3.47972 64.4404 2.98309L67.2133 4.59716L68.3721 3.68666C68.2066 2.44506 67.7513 1.57595 67.0477 1.20347L61.0467 -2.31438C60.5501 -2.60408 59.9707 -2.64547 59.4326 -2.43854C58.1083 -2.06606 56.7425 -0.783081 55.9562 0.872377C55.4595 1.86565 55.1698 3.02447 55.2112 4.14191L54.4249 3.68666L52.728 4.67993C51.2795 2.9417 49.7896 2.0312 48.7549 2.65199L42.7125 6.16984C42.547 6.294 42.34 6.45955 42.2159 6.62509C41.3054 7.86669 41.2226 9.3566 41.9262 11.0534L40.6432 11.7984L40.1879 12.0881L29.6758 18.3788V25.9112L31.1657 26.7803V37.4166L42.8367 44.2868L44.6163 45.3214L54.549 51.1983L64.4818 45.3214L67.9582 43.2107L77.8496 37.2924V26.8217L79.3395 25.9526V18.3788L68.9929 12.2536C68.9101 11.5501 68.6618 10.8465 68.3721 10.1429Z" fill="#74747C"/>
<path opacity="0.64" d="M65.7245 1.07931C65.4348 0.996536 65.1864 0.996536 64.8967 0.996536C65.1864 0.996536 65.5175 1.03792 65.7245 1.07931ZM60.965 4.43161C61.0892 4.10052 61.2961 3.81081 61.4617 3.5625C61.2961 3.8522 61.0892 4.10052 60.965 4.43161ZM42.4239 7.90807C41.8859 8.61164 41.6789 9.56353 42.01 10.474C41.6789 9.60492 41.8859 8.65303 42.4239 7.90807C42.5067 7.78391 42.5894 7.65975 42.755 7.61837C42.8378 7.57698 42.9619 7.53559 43.0861 7.53559L42.4239 7.90807ZM67.2971 10.1429C65.3934 5.75598 63.2413 4.96963 61.4617 5.96291C61.503 5.54904 61.6272 5.13518 61.8341 4.7627C62.2066 4.05913 62.7446 3.47972 63.3654 2.98309L66.1383 4.59716L67.2971 3.68666C67.1316 2.44506 66.6764 1.57595 65.9728 1.20347L59.9717 -2.31438C59.4751 -2.60408 58.8957 -2.64547 58.3577 -2.43854C57.0333 -2.06606 55.6676 -0.783081 54.8812 0.872377C54.3846 1.86565 54.0949 3.02447 54.1363 4.14191L53.3499 3.68666L51.6531 4.67993C50.1632 2.9417 48.7146 2.0312 47.68 2.65199L41.6789 6.25261C41.5134 6.37677 41.3065 6.54232 41.1823 6.70787C40.2718 7.94946 40.189 9.43937 40.8926 11.1362L39.6096 11.9226L39.1544 12.2123L28.6836 18.3788V25.9112L30.1735 26.7803V37.4166L41.8445 44.3695L43.5827 45.4456L53.5155 51.3225L63.4482 45.4456L66.9247 43.3349L76.8574 37.4166V26.8217L78.3473 25.9526V18.3788L68.0007 12.2536C67.9179 11.5501 67.6696 10.8465 67.2971 10.1429Z" fill="#6D6D76"/>
<path opacity="0.67" d="M64.7303 1.07931C64.4406 0.996537 64.1923 0.996537 63.9026 0.996537C64.1509 0.996537 64.4406 1.03792 64.7303 1.07931ZM59.9709 4.43161C60.095 4.10052 60.302 3.81081 60.4675 3.5625C60.302 3.8522 60.0537 4.10052 59.9709 4.43161ZM41.4298 7.90807C40.8917 8.61164 40.6848 9.56353 41.0159 10.474C40.6848 9.60492 40.8503 8.65303 41.4298 7.90807C41.5125 7.78391 41.5953 7.65975 41.7608 7.61837C41.8436 7.57698 41.9678 7.5356 42.1333 7.5356L41.4298 7.90807ZM66.3444 10.1429C64.4406 5.75598 62.2885 4.96964 60.5089 5.96291C60.5503 5.54905 60.6744 5.13518 60.8814 4.7627C61.2539 4.05913 61.7919 3.47972 62.4127 2.98309L65.1856 4.59716L66.3444 3.68666C66.1789 2.44506 65.7236 1.57595 65.02 1.20347L59.019 -2.31438C58.5224 -2.60408 57.9429 -2.64547 57.4049 -2.43854C56.0806 -2.06606 54.7148 -0.783081 53.9285 0.872377C53.4318 1.86565 53.1421 3.02447 53.1835 4.14191L52.3972 3.68666L50.7831 4.67993C49.2932 2.9417 47.8447 2.0312 46.81 2.65199L40.8503 6.25262C40.6848 6.37677 40.4779 6.54232 40.3537 6.70787C39.4432 7.94946 39.3604 9.43937 40.064 11.1362L38.7396 11.8812L38.3258 12.0881L27.6895 18.3788V25.9112L29.1794 26.7803V37.4166L40.8503 44.3695L42.63 45.4042L52.5627 51.2811L62.4955 45.4042L65.9719 43.2935L75.9047 37.4166V26.8217L77.3946 25.9526V18.3788L67.048 12.2537C66.8824 11.5501 66.6341 10.8465 66.3444 10.1429Z" fill="#66666F"/>
<path opacity="0.7" d="M63.6967 1.07943C63.407 0.996654 63.1587 0.996654 62.869 0.996654C63.2001 0.996654 63.4484 1.03804 63.6967 1.07943ZM58.9373 4.43173C58.5648 5.17669 58.3579 5.96303 58.2751 6.74937C58.3993 5.96303 58.6062 5.17669 58.9373 4.43173C59.0615 4.10064 59.2684 3.81093 59.4339 3.56261C59.3098 3.85232 59.1029 4.10064 58.9373 4.43173ZM40.4376 7.90819C39.8582 8.61176 39.6926 9.56365 39.9823 10.4742C39.6926 9.60504 39.8168 8.65315 40.4376 7.90819C40.5203 7.82542 40.6031 7.65987 40.7687 7.61849C40.8514 7.5771 40.9756 7.53571 41.0997 7.53571L40.4376 7.90819ZM65.3522 10.1431C63.4484 5.75609 61.2963 4.96975 59.5167 5.96303C59.5581 5.54916 59.6823 5.1353 59.8892 4.76282C60.2617 4.05925 60.7997 3.47984 61.4205 2.9832L64.1934 4.59727L65.3522 3.68677C65.1867 2.44518 64.7314 1.57606 64.0278 1.20359L58.0682 -2.27288C57.5716 -2.56258 56.9921 -2.60397 56.4541 -2.39703C55.1298 -2.02456 53.764 -0.741577 52.9777 0.913881C52.481 1.90716 52.1913 3.06598 52.2327 4.18341L51.4464 3.72816L49.7495 4.72143C48.2596 2.9832 46.8111 2.0727 45.7764 2.6935L39.8168 6.21135C39.6512 6.33551 39.4443 6.50105 39.3201 6.6666C38.4096 7.90819 38.3269 9.3981 39.0304 11.0949L37.7474 11.8813L37.2922 12.171L26.6973 18.379V25.9113L28.1872 26.7804V37.4167L39.8168 44.3696L41.5964 45.4043L51.5291 51.2812L61.4619 45.4043L64.9383 43.2936L74.8297 37.4167V26.8218L76.3196 25.9527V18.379L65.973 12.2538C65.8488 11.5502 65.6419 10.8466 65.3522 10.1431Z" fill="#5F5F68"/>
<path opacity="0.73" d="M62.7444 1.07931C62.4547 0.996537 62.2063 0.996537 61.9166 0.996537C62.2063 0.996537 62.4547 1.03792 62.7444 1.07931ZM57.9435 4.43161C57.5711 5.17657 57.3641 5.96291 57.2814 6.74925C57.3227 5.96291 57.5711 5.17657 57.9435 4.43161C58.0677 4.10052 58.2746 3.81081 58.4402 3.5625C58.2746 3.8522 58.1091 4.10052 57.9435 4.43161ZM39.4024 7.90807C38.8644 8.61164 38.6575 9.56353 38.9885 10.474C38.6575 9.60492 38.823 8.65303 39.4024 7.90807C39.4852 7.78391 39.568 7.65975 39.7335 7.61837C39.8163 7.57698 39.9404 7.5356 40.106 7.5356L39.4024 7.90807ZM64.317 10.1429C62.4133 5.75598 60.2612 4.96964 58.4816 5.96291C58.5229 5.54905 58.6471 5.13518 58.854 4.7627C59.2265 4.05913 59.7645 3.47972 60.3853 2.98309L63.1582 4.59716L64.317 3.68666C64.1515 2.44506 63.6963 1.57595 62.9927 1.20347L56.9916 -2.31438C56.495 -2.60408 55.9156 -2.64547 55.3776 -2.43854C54.0532 -2.06606 52.6875 -0.783081 51.9011 0.872377C51.4045 1.86565 51.1148 3.02447 51.1562 4.14191L50.3698 3.68666L48.673 4.67993C47.2244 2.9417 45.7345 2.0312 44.6999 2.65199L38.6988 6.25262C38.5333 6.37677 38.3264 6.54232 38.2022 6.70787C37.2917 7.94946 37.2089 9.43937 37.9125 11.1362L36.7537 11.8812L36.3398 12.0881L25.6621 18.3788V25.9112L27.152 26.7803V37.4166L38.7816 44.3695L40.5612 45.4042L50.494 51.2811L60.4267 45.4042L63.9032 43.2935L73.8359 37.4166V26.8217L75.3258 25.9526V18.3788L64.9792 12.2537C64.8137 11.5501 64.6068 10.8465 64.317 10.1429Z" fill="#585862"/>
<path opacity="0.76" d="M61.6678 1.07943C61.3781 0.996654 61.1298 0.996654 60.8401 0.996654C61.1298 0.996654 61.4195 1.03804 61.6678 1.07943ZM56.9498 4.43173C56.5773 5.17669 56.3704 5.96303 56.2876 6.74937C56.329 5.96303 56.5773 5.17669 56.9498 4.43173C57.0739 4.10064 57.2809 3.81093 57.4464 3.56261C57.2395 3.85232 57.1153 4.10064 56.9498 4.43173ZM38.3673 7.90819C37.8292 8.61176 37.6223 9.56365 37.9534 10.4742C37.6637 9.60504 37.8292 8.65315 38.3673 7.90819C38.45 7.78403 38.5328 7.65987 38.6983 7.61849C38.7811 7.5771 38.9053 7.53571 39.0708 7.53571L38.3673 7.90819ZM63.3233 10.1431C61.4195 5.75609 59.2674 4.96975 57.4878 5.96303C57.5292 5.54916 57.6533 5.1353 57.8603 4.76282C58.2327 4.05925 58.7708 3.47984 59.3916 2.9832L62.2058 4.63866L63.3647 3.72816C63.1991 2.48657 62.7439 1.61745 62.0403 1.24497L56.0393 -2.27288C55.5426 -2.56258 54.9632 -2.60397 54.4252 -2.39703C53.1008 -2.02456 51.7351 -0.741577 50.9487 0.913881C50.4521 1.90716 50.1624 3.06598 50.2038 4.18341L49.4174 3.72816L47.7206 4.72143C46.2307 2.9832 44.7822 2.0727 43.7475 2.6935L37.7465 6.29412C37.5809 6.41828 37.374 6.58382 37.2498 6.74937C36.3393 7.99096 36.2565 9.48088 36.9601 11.1777L35.6357 11.9641L35.2633 12.171L24.627 18.379V25.9113L26.1169 26.7804V37.4167L37.7878 44.3696L39.5675 45.4043L49.5002 51.3226L59.433 45.4457L62.9094 43.335L72.8008 37.4167V26.8218L74.2907 25.9527V18.379L63.9855 12.2538C63.8613 11.5502 63.6544 10.8466 63.3233 10.1431Z" fill="#51525B"/>
<path opacity="0.79" d="M60.7151 1.07931C60.4254 0.996537 60.177 0.996537 59.8873 0.996537C60.1357 0.996537 60.4254 1.03792 60.7151 1.07931ZM55.9142 4.43161C55.5418 5.17657 55.3348 5.96291 55.2521 6.74925C55.3348 5.96291 55.5831 5.17657 55.9142 4.43161C56.0384 4.10052 56.2453 3.81081 56.4109 3.5625C56.2453 3.8522 56.0798 4.10052 55.9142 4.43161ZM37.3731 7.90807C36.8351 8.61164 36.6282 9.56353 36.9592 10.474C36.6695 9.60492 36.7937 8.65303 37.3731 7.90807C37.4559 7.78391 37.5387 7.65975 37.7042 7.61837C37.787 7.57698 37.9111 7.5356 38.0767 7.5356L37.3731 7.90807ZM62.3291 10.1429C60.4254 5.75598 58.2733 4.96964 56.4937 5.96291C56.535 5.54905 56.6592 5.13518 56.8661 4.7627C57.2386 4.05913 57.7766 3.47972 58.3974 2.98309L61.1703 4.59716L62.3291 3.68666C62.1636 2.44506 61.7083 1.57595 61.0048 1.20347L55.0037 -2.31438C54.5071 -2.60408 53.9277 -2.64547 53.3897 -2.43854C52.0653 -2.06606 50.6995 -0.783081 49.9132 0.872377C49.4166 1.86565 49.1269 3.02447 49.1682 4.14191L48.3819 3.68666L46.6851 4.67993C45.2365 2.9417 43.7466 2.0312 42.712 2.65199L36.7109 6.25262C36.5454 6.37677 36.3385 6.54232 36.2143 6.70787C35.3038 7.94946 35.221 9.43937 35.9246 11.1362L34.6002 11.9226L34.145 12.2123L23.6328 18.3788V25.9112L25.1227 26.7803V37.4166L36.7937 44.3281L38.5733 45.3628L48.5061 51.2397L58.4388 45.3628L61.9153 43.2521L71.848 37.3338V26.8217L73.3379 25.9526V18.3788L62.9913 12.2537C62.7844 11.5501 62.6602 10.8465 62.3291 10.1429Z" fill="#4A4B55"/>
<path opacity="0.82" d="M59.6815 1.07943C59.3918 0.996654 59.1435 0.996654 58.8538 0.996654C59.1435 0.996654 59.3918 1.03804 59.6815 1.07943ZM54.9221 4.43173C54.5496 5.17669 54.3426 5.96303 54.2599 6.74937C54.3426 5.96303 54.591 5.17669 54.9221 4.43173C55.0462 4.10064 55.2531 3.81093 55.4187 3.56261C55.2531 3.85232 55.0876 4.10064 54.9221 4.43173ZM36.3809 7.90819C35.8429 8.61176 35.636 9.56365 35.9671 10.4742C35.6774 9.60504 35.8015 8.65315 36.3809 7.90819C36.4637 7.78403 36.5465 7.65987 36.712 7.61849C36.7948 7.5771 36.9189 7.53571 37.0845 7.53571L36.3809 7.90819ZM61.337 10.1431C59.4332 5.75609 57.2811 4.96975 55.5015 5.96303C55.5428 5.54916 55.667 5.1353 55.8739 4.76282C56.2464 4.05925 56.7844 3.47984 57.4052 2.9832L60.1781 4.59727L61.337 3.68677C61.1714 2.44518 60.7162 1.57606 60.0126 1.20359L54.0116 -2.27288C53.5149 -2.56258 52.9355 -2.60397 52.3975 -2.39703C51.0731 -2.02456 49.7074 -0.741577 48.921 0.913881C48.4244 1.90716 48.1347 3.06598 48.1761 4.18341L47.3897 3.72816L45.6929 4.72143C44.203 2.9832 42.7544 2.0727 41.7198 2.6935L35.7187 6.29412C35.5532 6.41828 35.3463 6.58382 35.2221 6.74937C34.3116 7.99096 34.2288 9.48088 34.9324 11.1777L33.608 11.9641L33.1528 12.2538L22.6406 18.379V25.9113L24.1305 26.7804V37.4167L35.8015 44.3696L37.5811 45.4043L47.5139 51.2812L57.4466 45.4043L60.9231 43.2936L70.8144 37.4581V26.8218L72.3044 25.9527V18.379L61.9577 12.2538C61.8336 11.5502 61.5853 10.8466 61.337 10.1431Z" fill="#43444E"/>
<path opacity="0.85" d="M58.6877 1.07931C58.398 0.996537 58.1497 0.996537 57.86 0.996537C58.1497 0.996537 58.4394 1.03792 58.6877 1.07931ZM53.9283 4.43161C53.5558 5.17657 53.3489 5.96291 53.2661 6.74925C53.3075 5.96291 53.5144 5.17657 53.9283 4.43161C54.0524 4.10052 54.2594 3.81081 54.4249 3.5625C54.2594 3.8522 54.0938 4.10052 53.9283 4.43161ZM35.3458 7.90807C34.8077 8.61164 34.6008 9.56353 34.9319 10.474C34.6008 9.60492 34.8077 8.65303 35.3458 7.90807C35.4285 7.78391 35.5113 7.65975 35.6769 7.61837C35.7596 7.57698 35.8838 7.5356 36.0493 7.5356L35.3458 7.90807ZM60.3018 10.1429C58.398 5.75598 56.3287 4.96964 54.5077 5.96291C54.5491 5.54905 54.6732 5.13518 54.8802 4.7627C55.2526 4.05913 55.7907 3.47972 56.4115 2.98309L59.1844 4.59716L60.3432 3.68666C60.1776 2.44506 59.7224 1.57595 59.0188 1.20347L53.0178 -2.31438C52.5211 -2.60408 51.9417 -2.64547 51.4037 -2.43854C50.0793 -2.06606 48.7136 -0.783081 47.9272 0.872377C47.4306 1.86565 47.1409 3.02447 47.1823 4.14191L46.396 3.68666L44.6991 4.67993C43.2092 2.9417 41.7607 2.0312 40.726 2.65199L34.6836 6.25262C34.518 6.37677 34.3111 6.54232 34.1869 6.70787C33.2764 7.94946 33.1937 9.43937 33.8972 11.1362L32.5729 11.9226L32.1176 12.2123L21.6055 18.3788V25.9112L23.0954 26.7803V37.4166L34.7664 44.3281L36.546 45.3628L46.4787 51.2397L56.4115 45.3628L59.8879 43.2521L69.7793 37.3338V26.8217L71.2692 25.9526V18.3788L60.9226 12.2537C60.8398 11.5501 60.5915 10.8465 60.3018 10.1429Z" fill="#3C3D48"/>
<path opacity="0.88" d="M57.6542 1.07931C57.3644 0.996536 57.1161 0.996536 56.8264 0.996536C57.1161 0.996536 57.4058 1.03792 57.6542 1.07931ZM52.8947 4.43161C53.0189 4.10052 53.2258 3.81081 53.3913 3.5625C53.2258 3.8522 53.0603 4.10052 52.8947 4.43161ZM34.3536 7.90807C33.8156 8.61164 33.6086 9.56353 33.9397 10.474C33.6086 9.60492 33.8156 8.65303 34.3536 7.90807C34.4364 7.78391 34.5191 7.65975 34.6847 7.61837C34.7674 7.57698 34.8916 7.53559 35.0158 7.53559L34.3536 7.90807ZM59.3096 10.1429C57.4058 5.75598 55.2537 4.96963 53.4741 5.96291C53.5155 5.54904 53.6397 5.13518 53.8466 4.7627C54.2191 4.05913 54.7571 3.47972 55.3779 2.98309L58.1922 4.59716L59.351 3.68666C59.1854 2.44506 58.7302 1.57595 58.0266 1.20347L52.0256 -2.31438C51.529 -2.60408 50.9495 -2.64547 50.4115 -2.43854C49.0872 -2.06606 47.7214 -0.783081 46.9351 0.872377C46.4384 1.86565 46.1487 3.02447 46.1901 4.14191L45.4038 3.68666L43.7069 4.67993C42.2998 2.90031 40.7685 1.98981 39.7338 2.56922L33.7328 6.16984C33.5672 6.294 33.3603 6.45955 33.2361 6.62509C32.3256 7.86669 32.2429 9.3566 32.9464 11.0534L31.6221 11.8398L31.1668 12.1295L20.6133 18.3788V25.9112L22.1032 26.7803V37.4166L33.7742 44.3695L35.5538 45.4042L45.4865 51.3225L55.4193 45.4456L58.8957 43.3349L68.7871 37.4166V26.8217L70.277 25.9526V18.3788L59.9304 12.2536C59.8476 11.5501 59.5993 10.8465 59.3096 10.1429Z" fill="#353641"/>
<path opacity="0.91" d="M56.66 1.07931C56.3703 0.996536 56.122 0.996536 55.8323 0.996536C56.122 0.996536 56.3703 1.03792 56.66 1.07931ZM51.9006 4.43161C52.0247 4.10052 52.2317 3.81081 52.3972 3.5625C52.2317 3.8522 52.0247 4.10052 51.9006 4.43161ZM33.3594 7.90807C32.8214 8.61164 32.6145 9.56353 32.9456 10.474C32.6145 9.60492 32.78 8.65303 33.3594 7.90807C33.4422 7.78391 33.525 7.65975 33.6905 7.61837C33.7733 7.57698 33.8975 7.53559 34.063 7.53559L33.3594 7.90807ZM58.2741 10.1429C56.3703 5.75598 54.2182 4.96963 52.4386 5.96291C52.48 5.54904 52.6041 5.13518 52.8111 4.7627C53.1835 4.05913 53.7216 3.47972 54.3424 2.98309L57.1566 4.59716L58.3155 3.68666C58.1499 2.44506 57.6947 1.57595 56.9911 1.20347L50.9901 -2.31438C50.4934 -2.60408 49.914 -2.64547 49.376 -2.43854C48.0516 -2.06606 46.6859 -0.783081 45.8995 0.872377C45.4029 1.86565 45.1132 3.02447 45.1546 4.14191L44.3682 3.68666L42.6714 4.67993C41.2229 2.9417 39.733 2.0312 38.6983 2.65199L32.78 6.12846C32.6145 6.25261 32.4076 6.41816 32.2834 6.58371C31.3729 7.8253 31.2901 9.31521 31.9937 11.0121L30.6693 11.7984L30.2141 12.0881L19.6191 18.3788V25.9112L21.1091 26.7803V37.4166L32.78 44.3695L34.5183 45.4456L44.451 51.3225L54.3838 45.4456L57.8602 43.3349L67.793 37.4166V26.8217L69.2829 25.9526V18.3788L58.9363 12.2536C58.7707 11.5501 58.6052 10.8465 58.2741 10.1429Z" fill="#2E2F3B"/>
<path opacity="0.94" d="M55.6659 1.07931C55.3762 0.996537 55.1278 0.996537 54.8381 0.996537C55.1278 0.996537 55.3762 1.03792 55.6659 1.07931ZM50.9064 4.43161C51.0306 4.10052 51.2375 3.81081 51.4031 3.5625C51.2375 3.8522 51.0306 4.10052 50.9064 4.43161ZM32.3653 7.90807C31.8273 8.61164 31.6203 9.56353 31.9514 10.474C31.6203 9.60492 31.7445 8.65303 32.3653 7.90807C32.4481 7.78391 32.5308 7.65975 32.6964 7.61837C32.7792 7.57698 32.9033 7.5356 33.0689 7.5356L32.3653 7.90807ZM57.2799 10.1429C55.3762 5.75598 53.2241 4.96964 51.4445 5.96291C51.4858 5.54905 51.61 5.13518 51.8169 4.7627C52.1894 4.05913 52.7274 3.47972 53.3482 2.98309L56.1625 4.59716L57.3213 3.68666C57.1558 2.44506 56.7005 1.57595 55.997 1.20347L49.9959 -2.31438C49.4993 -2.60408 48.9199 -2.64547 48.3819 -2.43854C47.0575 -2.06606 45.6917 -0.783081 44.9054 0.872377C44.4088 1.86565 44.1191 3.02447 44.1604 4.14191L43.3741 3.68666L41.76 4.72132C40.2701 2.98309 38.8216 2.07258 37.7869 2.69338L31.7859 6.21123C31.6203 6.33539 31.4134 6.50093 31.2893 6.66648C30.3788 7.90807 30.296 9.39799 30.9995 11.0948L29.6752 11.8812L29.2199 12.1709L18.625 18.3788V25.9112L20.1149 26.7803V37.4166L31.7445 44.3695L33.5241 45.4042L43.4569 51.2811L53.3896 45.4042L56.8661 43.2935L66.7574 37.4166V26.8217L68.2473 25.9526V18.3788L57.9007 12.2537C57.7766 11.5501 57.5696 10.8465 57.2799 10.1429Z" fill="#272834"/>
<path opacity="0.97" d="M54.6744 1.07943C54.3847 0.996654 54.1364 0.996654 53.8467 0.996654C54.1364 0.996654 54.3847 1.03804 54.6744 1.07943ZM49.915 4.43173C49.5425 5.17669 49.3356 5.96303 49.2528 6.74937C49.2528 5.96303 49.5425 5.17669 49.915 4.43173C50.0391 4.10064 50.2461 3.81093 50.4116 3.56261C50.2047 3.85232 50.0391 4.10064 49.915 4.43173ZM31.2911 7.90819C30.7531 8.61176 30.5461 9.56365 30.8772 10.4742C30.5875 9.60504 30.7531 8.65315 31.2911 7.90819C31.3325 7.78403 31.4566 7.65987 31.5808 7.61849C31.7049 7.5771 31.8291 7.53571 31.9533 7.53571L31.2911 7.90819ZM56.2471 10.1431C54.3433 5.75609 52.1912 4.96975 50.4116 5.96303C50.453 5.54916 50.5772 5.1353 50.7841 4.76282C51.1566 4.05925 51.6946 3.47984 52.3154 2.9832L55.1297 4.63866L56.2885 3.72816C56.123 2.48657 55.6677 1.61745 54.9641 1.24497L48.9631 -2.27288C48.4665 -2.56258 47.887 -2.60397 47.349 -2.39703C46.0247 -2.02456 44.6589 -0.741577 43.8726 0.913881C43.3759 1.90716 43.0862 3.06598 43.1276 4.18341L42.3413 3.72816L40.6858 4.63866C39.2373 2.90043 37.7474 1.98993 36.7127 2.56934L30.7117 6.16996C30.5461 6.29412 30.3392 6.45966 30.215 6.62521C29.3045 7.8668 29.2218 9.35672 29.9253 11.0536L28.6423 11.8399L28.1871 12.1296L17.5508 18.379V25.9113L19.0821 26.7804V37.4167L30.7531 44.3696L32.5327 45.4043L42.4654 51.2812L52.3982 45.4043L55.8746 43.2936L65.766 37.4167V26.8218L67.2559 25.9527V18.379L56.9093 12.2538C56.7851 11.5502 56.5782 10.8466 56.2471 10.1431Z" fill="#20212E"/>
<path d="M53.6803 1.07931C53.3906 0.996536 53.1423 0.996536 52.8526 0.996536C53.1423 0.996536 53.3906 1.03792 53.6803 1.07931ZM48.8795 4.43161C48.507 5.17657 48.3 5.96291 48.2173 6.74925C48.2587 5.96291 48.507 5.17657 48.8795 4.43161C49.0036 4.10052 49.2105 3.81081 49.3761 3.5625C49.1692 3.8522 49.045 4.10052 48.8795 4.43161ZM30.2969 7.90807C29.7589 8.61164 29.552 9.56353 29.8831 10.474C29.5934 9.60492 29.7589 8.65303 30.2969 7.90807C30.3797 7.78391 30.4625 7.65975 30.628 7.61837C30.7108 7.57698 30.835 7.53559 31.0005 7.53559L30.2969 7.90807ZM55.253 10.1429C53.3492 5.75598 51.1971 4.96963 49.4175 5.96291C49.4589 5.54904 49.583 5.13518 49.79 4.7627C50.1624 4.05913 50.7005 3.47972 51.3213 2.98309L54.1355 4.59716L55.2944 3.68666C55.1288 2.44506 54.6736 1.57595 53.97 1.20347L47.969 -2.31438C47.4723 -2.60408 46.8929 -2.64547 46.3549 -2.43854C45.0305 -2.06606 43.6648 -0.783081 42.8784 0.872377C42.3818 1.86565 42.0921 3.02447 42.1335 4.14191L41.3885 3.68666L39.7331 4.63854C38.2845 2.90031 36.7946 1.98981 35.76 2.61061L29.7589 6.21123C29.5934 6.33539 29.3864 6.50093 29.2623 6.66648C28.3518 7.90807 28.269 9.39798 28.9726 11.0948L27.6896 11.8812L27.2343 12.1709L16.5566 18.3788V25.9112L18.0466 26.7803V37.4166L29.7175 44.3695L31.4971 45.4042L41.4299 51.3225L51.3626 45.4456L54.8391 43.3349L64.7719 37.4166V26.8217L66.3031 25.9526V18.3788L55.9565 12.2536C55.791 11.5501 55.5841 10.8465 55.253 10.1429Z" fill="#191A27"/>
</g>
<path d="M62.91 20.4067V38.1615L40.4785 51.1569V33.4021L62.91 20.4067Z" fill="url(#paint1_radial_3165_4054)"/>
<path d="M40.4794 33.4021V51.1569L17.9238 38.1615V20.4067L40.4794 33.4021Z" fill="url(#paint2_radial_3165_4054)"/>
<path d="M64.4413 20.1997V27.2768L40.4785 41.1412V34.0642L64.4413 20.1997Z" fill="url(#paint3_radial_3165_4054)"/>
<path d="M40.4787 34.0642V41.1412L16.4746 27.2768V20.1997L40.4787 34.0642Z" fill="url(#paint4_radial_3165_4054)"/>
<path d="M16.4746 20.2L40.4787 6.37695L64.4415 20.2L40.4787 34.0645L16.4746 20.2Z" fill="url(#paint5_radial_3165_4054)"/>
<path d="M50.0391 45.6525L53.3914 43.7073V33.6504L50.0391 35.5956V45.6525Z" fill="#FF9E4D"/>
<path d="M30.8781 45.6525L27.4844 43.7073V33.6504L30.8781 35.5956V45.6525Z" fill="#FFE186"/>
<path d="M50.744 12.3364L26.7812 26.1595L30.1749 28.1047L54.1377 14.2816L50.744 12.3364Z" fill="#FFE589"/>
<path d="M30.1749 35.1819L26.7812 33.2367V26.1597L30.1749 28.1048V35.1819Z" fill="#FFD87F"/>
<path d="M30.1749 12.3364L54.1377 26.1595L50.744 28.1047L26.7812 14.2816L30.1749 12.3364Z" fill="#FFD87F"/>
<path d="M50.7422 35.1819L54.1359 33.2367V26.1597L50.7422 28.1048V35.1819Z" fill="#FFBC67"/>
<path d="M26.3665 22.8075L32.202 26.1598L31.5398 25.3734L25.7871 22.0625L26.3665 22.8075Z" fill="#FF8434"/>
<path d="M34.8925 18.1304C33.7751 18.8339 32.4507 19.1236 31.1263 18.9167C29.6778 18.7926 28.3121 18.627 25.7461 22.0207L31.5402 25.373C34.1475 21.9793 35.4719 22.1449 36.9204 22.269C38.2034 22.4759 39.5692 22.1862 40.6866 21.4827L34.8925 18.1304Z" fill="url(#paint6_linear_3165_4054)"/>
<path d="M40.6855 22.8488C38.6575 24.0076 37.4159 23.8834 36.3399 23.8007C34.9741 23.6765 34.1464 23.5937 32.1599 26.2011L31.5391 25.4147C34.1464 22.0211 35.4708 22.1866 36.9193 22.3108C38.2023 22.5177 39.568 22.228 40.6855 21.5244V22.8488Z" fill="#FFAB57"/>
<path d="M46.9363 3.97628L52.7304 7.28719C52.6062 6.37669 52.2751 5.75589 51.7785 5.50758L45.9844 2.15527C46.4396 2.44498 46.7707 3.06578 46.9363 3.97628Z" fill="url(#paint7_linear_3165_4054)"/>
<path d="M46.8117 0.748279C46.3565 0.49996 45.7771 0.417187 45.239 0.624119C43.9975 0.913824 42.6731 2.15542 41.8867 3.68672C41.0176 5.38356 40.9349 7.12179 41.6798 8.44616C42.3834 9.72914 42.5075 10.9293 42.0523 12.0054C41.5557 13.2056 40.3554 14.1989 39.4863 14.6955L45.2804 18.0478C46.1495 17.5512 47.3911 16.5165 47.8464 15.3577C48.3016 14.2816 48.1775 13.0401 47.4739 11.7985C46.7703 10.4741 46.8117 8.73586 47.6808 7.03902C48.4672 5.46633 49.7916 4.26613 51.0331 3.93503C51.5298 3.76949 52.1092 3.81088 52.6058 4.05919L46.8117 0.748279Z" fill="url(#paint8_linear_3165_4054)"/>
<path d="M45.2383 19.4964V18.1721C46.1074 17.6754 47.349 16.6408 47.8042 15.4819C48.2595 14.4059 48.1353 13.1643 47.4318 11.9227C46.7282 10.5983 46.7696 8.86012 47.6387 7.16327C48.425 5.59059 49.7494 4.39038 50.991 4.05929C51.4876 3.89374 52.067 3.93513 52.5637 4.18345C53.2259 4.55593 53.6397 5.34227 53.8467 6.50109L52.6878 7.3702C52.5637 6.4597 52.2326 5.83891 51.736 5.59059C51.4049 5.42504 51.0324 5.38365 50.7013 5.46643C49.915 5.67336 49.0044 6.4597 48.5078 7.45298C47.9284 8.44625 47.9284 9.68784 48.4664 10.6811C49.3355 12.171 49.4597 13.992 48.7561 15.6061C47.8456 17.7996 45.8177 19.124 45.2383 19.4964Z" fill="#FFAB57"/>
<path d="M35.1407 9.60502C34.7682 8.73591 34.9338 7.78402 35.5132 7.03906L29.7191 10.3914C29.1397 11.0949 29.0155 12.1296 29.3466 12.9573C30.0916 14.9439 32.7817 17.4271 36.5065 19.7861L42.3006 16.4338C38.5344 14.0748 35.9271 11.5916 35.1407 9.60502Z" fill="url(#paint9_linear_3165_4054)"/>
<path d="M43.6251 18.5445L37.831 21.8968C37.831 16.2269 31.8714 7.20466 29.2227 8.73596L35.0168 5.38366C37.6655 3.81097 43.6251 12.8746 43.6251 18.5445Z" fill="url(#paint10_linear_3165_4054)"/>
<path d="M28.7679 9.10821C26.4089 12.2536 29.844 17.22 37.8729 21.8552C37.8729 16.1853 31.9133 7.16305 29.2646 8.69435C29.0576 8.77712 28.8921 8.94266 28.7679 9.10821ZM29.3887 12.9985C29.0162 12.1294 29.1818 11.1775 29.7612 10.4326C29.844 10.3084 29.9267 10.2256 30.0509 10.1429C30.3406 9.97733 30.6717 10.0187 31.0856 10.267C32.9066 11.3431 35.8864 15.9784 36.5486 19.7859C32.7824 17.3855 30.1337 14.9023 29.3887 12.9985Z" fill="#FFE186"/>
<path d="M51.7779 18.6273L45.9838 21.9796C44.6181 22.7659 42.3418 22.8073 39.0723 21.2346L44.8664 17.8823C48.0945 19.455 50.3708 19.4136 51.7779 18.6273Z" fill="url(#paint11_linear_3165_4054)"/>
<path d="M44.8664 17.841L39.0723 21.1933C39.4861 17.9237 41.2244 14.4059 43.1281 13.3298L48.9222 9.97754C47.0185 11.0536 45.2802 14.5714 44.8664 17.841Z" fill="url(#paint12_linear_3165_4054)"/>
<path d="M53.8066 12.4606C51.9442 8.28061 49.8749 7.53566 48.0539 8.6117L42.2598 11.964C44.0394 10.9293 46.1087 11.6329 48.0125 15.8129C49.461 18.9997 49.0058 22.1037 46.7709 23.3867L52.565 20.0344C54.7999 18.7514 55.2551 15.6474 53.8066 12.4606Z" fill="url(#paint13_linear_3165_4054)"/>
<path d="M48.0522 15.8132C46.1898 11.6332 44.1204 10.8882 42.2994 11.9642C39.7749 13.4128 37.8711 18.3378 37.8711 21.897C41.9684 24.2974 45.0309 24.463 46.8106 23.4283C49.004 22.1039 49.4593 18.9999 48.0522 15.8132ZM47.1417 20.8623C46.8519 21.3176 46.4381 21.6901 45.9828 21.9798C44.6171 22.7661 42.3408 22.8075 39.0713 21.2348C39.4852 17.9653 41.2234 14.4474 43.1272 13.3714C43.7066 12.9575 44.4929 12.9575 45.1137 13.2472C45.7759 13.6197 46.4381 14.5302 47.1003 16.0201C47.8452 17.7997 47.8866 19.5793 47.1417 20.8623Z" fill="#FFE186"/>
</g>
<defs>
<linearGradient id="paint0_linear_3165_4054" x1="0.520693" y1="53.924" x2="80.5138" y2="53.924" gradientUnits="userSpaceOnUse">
<stop stop-color="#545770"/>
<stop offset="0.1" stop-color="#50536B"/>
<stop offset="0.3" stop-color="#4E5168"/>
<stop offset="0.38" stop-color="#464960"/>
<stop offset="0.59" stop-color="#353850"/>
<stop offset="0.74" stop-color="#2F324A"/>
<stop offset="1" stop-color="#20233D"/>
</linearGradient>
<radialGradient id="paint1_radial_3165_4054" cx="0" cy="0" r="1" gradientUnits="userSpaceOnUse" gradientTransform="translate(35.3221 25.0229) scale(38.3211 38.3211)">
<stop stop-color="#C90000"/>
<stop offset="1" stop-color="#730000"/>
</radialGradient>
<radialGradient id="paint2_radial_3165_4054" cx="0" cy="0" r="1" gradientUnits="userSpaceOnUse" gradientTransform="translate(14.4804 18.9982) scale(40.4148 40.4148)">
<stop stop-color="#FFF2D9"/>
<stop offset="0.01" stop-color="#FFDDB7"/>
<stop offset="0.03" stop-color="#FFC28D"/>
<stop offset="0.06" stop-color="#FFAA67"/>
<stop offset="0.08" stop-color="#FF9647"/>
<stop offset="0.11" stop-color="#FF862D"/>
<stop offset="0.13" stop-color="#FF7A19"/>
<stop offset="0.17" stop-color="#FF710B"/>
<stop offset="0.21" stop-color="#FF6C02"/>
<stop offset="0.27" stop-color="#FF6A00"/>
<stop offset="1" stop-color="#E81E00"/>
</radialGradient>
<radialGradient id="paint3_radial_3165_4054" cx="0" cy="0" r="1" gradientUnits="userSpaceOnUse" gradientTransform="translate(42.4333 24.0048) scale(53.7059 53.7059)">
<stop stop-color="#D70000"/>
<stop offset="1" stop-color="#8A0000"/>
</radialGradient>
<radialGradient id="paint4_radial_3165_4054" cx="0" cy="0" r="1" gradientUnits="userSpaceOnUse" gradientTransform="translate(14.0248 11.7966) scale(42.4507 42.4507)">
<stop stop-color="#FFF2D9"/>
<stop offset="0.01" stop-color="#FFDDB7"/>
<stop offset="0.03" stop-color="#FFC28D"/>
<stop offset="0.06" stop-color="#FFAA67"/>
<stop offset="0.08" stop-color="#FF9647"/>
<stop offset="0.11" stop-color="#FF862D"/>
<stop offset="0.13" stop-color="#FF7A19"/>
<stop offset="0.17" stop-color="#FF710B"/>
<stop offset="0.21" stop-color="#FF6C02"/>
<stop offset="0.27" stop-color="#FF6A00"/>
<stop offset="1" stop-color="#E81E00"/>
</radialGradient>
<radialGradient id="paint5_radial_3165_4054" cx="0" cy="0" r="1" gradientUnits="userSpaceOnUse" gradientTransform="translate(12.9744 15.4862) scale(44.6093 44.6093)">
<stop stop-color="#FF9A42"/>
<stop offset="1" stop-color="#FF543D"/>
</radialGradient>
<linearGradient id="paint6_linear_3165_4054" x1="31.2408" y1="25.2042" x2="35.21" y2="18.3277" gradientUnits="userSpaceOnUse">
<stop stop-color="#FFE98D"/>
<stop offset="1" stop-color="#FF9E48"/>
</linearGradient>
<linearGradient id="paint7_linear_3165_4054" x1="49.0588" y1="5.20384" x2="49.5931" y2="4.27612" gradientUnits="userSpaceOnUse">
<stop stop-color="#FFB05C"/>
<stop offset="0.15" stop-color="#FFA152"/>
<stop offset="0.38" stop-color="#FF9147"/>
<stop offset="0.64" stop-color="#FF8840"/>
<stop offset="1" stop-color="#FF853E"/>
</linearGradient>
<linearGradient id="paint8_linear_3165_4054" x1="41.245" y1="15.8407" x2="49.1622" y2="2.12992" gradientUnits="userSpaceOnUse">
<stop stop-color="#FFB763"/>
<stop offset="0.05" stop-color="#FFC26F"/>
<stop offset="0.15" stop-color="#FFDE8D"/>
<stop offset="0.16" stop-color="#FFE292"/>
<stop offset="0.29" stop-color="#FFC471"/>
<stop offset="0.36" stop-color="#FFB763"/>
<stop offset="0.47" stop-color="#FFC771"/>
<stop offset="0.64" stop-color="#FFDA80"/>
<stop offset="0.81" stop-color="#FFE58A"/>
<stop offset="1" stop-color="#FFE98D"/>
</linearGradient>
<linearGradient id="paint9_linear_3165_4054" x1="32.4162" y1="8.8318" x2="38.1704" y2="18.7998" gradientUnits="userSpaceOnUse">
<stop stop-color="#FF7529"/>
<stop offset="0.15" stop-color="#FF7B2E"/>
<stop offset="0.36" stop-color="#FF8C3D"/>
<stop offset="0.59" stop-color="#FFA855"/>
<stop offset="0.7" stop-color="#FFB763"/>
<stop offset="0.92" stop-color="#FFB460"/>
<stop offset="1" stop-color="#FFB05C"/>
</linearGradient>
<linearGradient id="paint10_linear_3165_4054" x1="33.2776" y1="6.34626" x2="41.1346" y2="19.9589" gradientUnits="userSpaceOnUse">
<stop stop-color="#FFE98D"/>
<stop offset="0.2" stop-color="#FFD37B"/>
<stop offset="0.41" stop-color="#FFC36D"/>
<stop offset="0.66" stop-color="#FFBA65"/>
<stop offset="1" stop-color="#FFB763"/>
</linearGradient>
<linearGradient id="paint11_linear_3165_4054" x1="44.3839" y1="18.1135" x2="46.4389" y2="21.671" gradientUnits="userSpaceOnUse">
<stop stop-color="#FFE186"/>
<stop offset="0.11" stop-color="#FFD77F"/>
<stop offset="0.35" stop-color="#FFC774"/>
<stop offset="0.62" stop-color="#FFBE6E"/>
<stop offset="1" stop-color="#FFBB6C"/>
</linearGradient>
<linearGradient id="paint12_linear_3165_4054" x1="42.791" y1="13.5083" x2="45.186" y2="17.6589" gradientUnits="userSpaceOnUse">
<stop stop-color="#FF762C"/>
<stop offset="0.24" stop-color="#FF7C31"/>
<stop offset="0.56" stop-color="#FF8D3F"/>
<stop offset="0.92" stop-color="#FFA956"/>
<stop offset="1" stop-color="#FFB05C"/>
</linearGradient>
<linearGradient id="paint13_linear_3165_4054" x1="45.746" y1="9.94116" x2="51.8308" y2="20.4813" gradientUnits="userSpaceOnUse">
<stop stop-color="#FFE98D"/>
<stop offset="0.2" stop-color="#FFD37B"/>
<stop offset="0.41" stop-color="#FFC36D"/>
<stop offset="0.66" stop-color="#FFBA65"/>
<stop offset="1" stop-color="#FFB763"/>
</linearGradient>
<clipPath id="clip0_3165_4054">
<rect width="80" height="68.9912" fill="white" transform="translate(0.5 0.5)"/>
</clipPath>
</defs>
</svg>
