<svg width="80" height="70" viewBox="0 0 80 70" fill="none" xmlns="http://www.w3.org/2000/svg">
<g clip-path="url(#clip0_3161_2)">
<path d="M66.7574 30.7937C49.1156 20.5896 30.8844 20.5896 13.2426 30.7937C4.39909 35.8731 0 41.0431 0 46.2585C0 51.474 4.39909 56.5987 13.2426 61.678C30.8844 71.8821 49.1156 71.8821 66.7574 61.678C75.6009 56.5987 80 51.3833 80 46.2132C80 41.0431 75.6009 35.8731 66.7574 30.7937Z" fill="#949494"/>
<path d="M66.7574 30.7937C49.1156 20.5896 30.8844 20.5896 13.2426 30.7937C4.39909 35.8731 0 41.0431 0 46.2585C0 51.474 4.39909 56.5987 13.2426 61.678C30.8844 71.8821 49.1156 71.8821 66.7574 61.678C75.6009 56.5987 80 51.3833 80 46.2132C80 41.0431 75.6009 35.8731 66.7574 30.7937Z" fill="#2E2E2E"/>
<path d="M66.7574 53.9683C49.1156 64.1724 30.8844 64.1724 13.2426 53.9683C4.39909 48.889 0 43.7189 0 38.5488V46.2586C0 51.4286 4.39909 56.5987 13.2426 61.6781C30.8844 71.8822 49.1156 71.8822 66.7574 61.6781C75.6009 56.5987 80 51.3833 80 46.2132V38.5488C80 43.7189 75.6009 48.889 66.7574 53.9683Z" fill="url(#paint0_linear_3161_2)"/>
<path d="M66.7574 23.1291C49.1156 12.9251 30.8844 12.9251 13.2426 23.1291C4.39909 28.2085 0 33.3786 0 38.594C0 43.8094 4.39909 48.9341 13.2426 54.0135C30.8844 64.2176 49.1156 64.2176 66.7574 54.0135C75.6009 48.9341 80 43.7641 80 38.594C80 33.4239 75.6009 28.2085 66.7574 23.1291Z" fill="#612E00"/>
<path d="M58.0059 40.6353L61.9061 38.3677V36.1455L58.0059 38.3677V40.6353Z" fill="#363636"/>
<path d="M56.0547 39.5015L58.0048 40.6353V38.3677L56.0547 37.2793V39.5015Z" fill="#1C1C1C"/>
<path d="M39.2754 51.4741L43.1756 49.2065V46.939L39.2754 49.2065V51.4741Z" fill="#363636"/>
<path d="M35.375 49.2065L39.2752 51.4741V49.2065L35.375 46.939V49.2065Z" fill="#1C1C1C"/>
<path d="M20.5 40.6353L24.4002 38.3677V36.1455L20.5 38.3677V40.6353Z" fill="#363636"/>
<path d="M16.5996 38.3677L20.4998 40.6353V38.3677L16.5996 36.1455V38.3677Z" fill="#1C1C1C"/>
<path d="M16.5996 31.3834L39.2753 44.4447L61.9057 31.3834L39.2753 18.2769L16.5996 31.3834Z" fill="#545454"/>
<path d="M16.5996 36.1452L39.2753 49.2064V44.4445L16.5996 31.3833V36.1452Z" fill="#1C1C1C"/>
<path d="M39.2754 49.2064L61.9058 36.1452V31.3833L39.2754 44.4445V49.2064Z" fill="#363636"/>
<path d="M28.0273 30.5672L39.2745 37.0525L50.5217 30.5672L39.2745 24.0366L28.0273 30.5672Z" fill="#B0B0B0"/>
<path d="M28.0273 32.9252L39.2745 39.4104V37.0522L28.0273 30.5669V32.9252Z" fill="#1C1C1C"/>
<path d="M39.2754 39.4104L50.5226 32.9252V30.5669L39.2754 37.0522V39.4104Z" fill="#363636"/>
<path d="M36.6445 31.0658H41.86V7.57373H36.6445V31.0658Z" fill="#1C1C1C"/>
<path d="M41.0897 29.9773C40.092 29.3878 38.414 29.3878 37.4163 29.9773C36.4185 30.5669 36.4185 31.5193 37.4163 32.1089C38.414 32.6984 40.092 32.6984 41.0897 32.1089C42.1328 31.5193 42.1328 30.5669 41.0897 29.9773Z" fill="#1C1C1C"/>
<path d="M54.1055 34.3765L58.0057 32.1543V29.8867L54.1055 32.1543V34.3765Z" fill="#1E7BD6"/>
<path d="M52.1543 33.2427L54.1044 34.3765V32.1543L52.1543 31.0205V33.2427Z" fill="#1E7BD6"/>
<path d="M52.1543 31.0205L54.1044 32.1543L58.0046 29.8867L56.0545 28.7529L52.1543 31.0205Z" fill="#3B97F5"/>
<path d="M45.1249 4.76221C44.2632 7.16584 41.9503 8.93454 39.2292 8.93454C36.5081 8.93454 34.1952 7.21119 33.3335 4.76221C33.1068 5.39713 32.9707 6.12275 32.9707 6.84838C32.9707 10.2951 35.7825 13.1069 39.2292 13.1069C42.6759 13.1069 45.4877 10.2951 45.4877 6.84838C45.4877 6.0774 45.3517 5.39713 45.1249 4.76221Z" fill="#C62A33"/>
<path d="M39.2746 8.8891C41.9957 8.8891 44.3086 7.16575 45.1703 4.71677C44.3086 2.31314 41.9957 0.544434 39.2746 0.544434C36.5535 0.544434 34.2406 2.26779 33.3789 4.71677C34.2406 7.16575 36.5535 8.8891 39.2746 8.8891Z" fill="#F44444"/>
</g>
<defs>
<linearGradient id="paint0_linear_3161_2" x1="0" y1="53.9513" x2="80" y2="53.9513" gradientUnits="userSpaceOnUse">
<stop stop-color="#734000"/>
<stop offset="0.1" stop-color="#784300"/>
<stop offset="0.3" stop-color="#7B4500"/>
<stop offset="0.55" stop-color="#6B3500"/>
<stop offset="0.74" stop-color="#652F00"/>
<stop offset="1" stop-color="#3B0800"/>
</linearGradient>
<clipPath id="clip0_3161_2">
<rect width="80" height="69.3424" fill="white"/>
</clipPath>
</defs>
</svg>
