<svg width="80" height="81" viewBox="0 0 80 81" fill="none" xmlns="http://www.w3.org/2000/svg">
<g clip-path="url(#clip0_3161_159)">
<path d="M66.6063 41.7192C49.0045 31.5382 30.8145 31.5382 13.2127 41.7192C4.38914 46.8324 0 51.9907 0 57.1491C0 62.3075 4.38914 67.4658 13.2127 72.579C30.8145 82.76 49.0045 82.76 66.6063 72.579C75.4299 67.5111 79.819 62.3527 79.819 57.1491C79.819 51.9455 75.4299 46.8324 66.6063 41.7192Z" fill="#949494"/>
<path d="M66.6063 41.7192C49.0045 31.5382 30.8145 31.5382 13.2127 41.7192C4.38914 46.8324 0 51.9907 0 57.1491C0 62.3075 4.38914 67.4658 13.2127 72.579C30.8145 82.76 49.0045 82.76 66.6063 72.579C75.4299 67.5111 79.819 62.3527 79.819 57.1491C79.819 51.9455 75.4299 46.8324 66.6063 41.7192Z" fill="#ABCF00"/>
<path d="M66.6063 64.8869C49.0045 75.0679 30.8145 75.0679 13.2127 64.8869C4.38914 59.7738 0 54.6154 0 49.457V57.1493C0 62.3077 4.38914 67.4661 13.2127 72.5792C30.8145 82.7602 49.0045 82.7602 66.6063 72.5792C75.4299 67.5113 79.819 62.353 79.819 57.1493V49.457C79.819 54.6154 75.4299 59.7738 66.6063 64.8869Z" fill="url(#paint0_linear_3161_159)"/>
<path d="M66.6063 34.0273C49.0045 23.8464 30.8145 23.8464 13.2127 34.0273C4.38914 39.1405 0 44.2988 0 49.4572C0 54.6156 4.38914 59.774 13.2127 64.8871C30.8145 75.0681 49.0045 75.0681 66.6063 64.8871C75.4299 59.8192 79.819 54.6156 79.819 49.4572C79.819 44.2988 75.4299 39.1405 66.6063 34.0273Z" fill="#ABC700"/>
<mask id="mask0_3161_159" style="mask-type:luminance" maskUnits="userSpaceOnUse" x="0" y="26" width="80" height="47">
<path d="M66.6063 34.0273C49.0045 23.8464 30.8145 23.8464 13.2127 34.0273C4.38914 39.1405 0 44.2988 0 49.4572C0 54.6156 4.38914 59.774 13.2127 64.8871C30.8145 75.0681 49.0045 75.0681 66.6063 64.8871C75.4299 59.8192 79.819 54.6156 79.819 49.4572C79.819 44.2988 75.4299 39.1405 66.6063 34.0273Z" fill="white"/>
</mask>
<g mask="url(#mask0_3161_159)">
<path opacity="0.03" d="M63.5751 62.7152C65.5208 63.8464 67.6928 64.5704 69.9099 64.7966C70.1814 64.7966 70.4982 64.8419 70.7697 64.8419C70.9507 64.8419 71.1317 64.8419 71.3127 64.8419C71.6294 64.8419 71.9914 64.7966 72.3081 64.7514L72.6249 64.7061C72.9869 64.6156 73.3489 64.5251 73.7108 64.3894L73.8466 64.3441C74.2538 64.2084 74.6611 64.0274 75.0231 63.8011L76.9235 62.7152C77.2403 62.5342 77.5117 62.3532 77.7832 62.1269C78.1452 61.9912 78.462 61.8102 78.824 61.6292C79.4575 61.2672 80.0004 60.8147 80.4982 60.2717C80.0004 60.8147 79.4122 61.2672 78.824 61.6292L80.7244 60.5432C81.0412 60.3622 81.3127 60.1812 81.5842 59.955C81.9461 59.8192 82.2629 59.6382 82.6249 59.4572C83.2584 59.0952 83.8013 58.6428 84.2991 58.0998C83.8013 58.6428 83.2131 59.0952 82.6249 59.4572L84.5253 58.3713C84.8421 58.1903 85.1136 58.0093 85.3851 57.783C85.747 57.6473 86.0638 57.4663 86.4258 57.2853C87.2855 56.7876 88.0547 56.1088 88.6882 55.2943C89.005 54.9323 89.2765 54.5251 89.5027 54.0726C89.5027 54.0274 89.5479 54.0274 89.5479 53.9821C89.8194 53.5296 90.0457 53.0319 90.2267 52.4889C90.0457 52.9866 89.7742 53.4844 89.5479 53.9821C89.5479 54.0274 89.5027 54.0274 89.5027 54.0726C89.2765 54.4799 89.005 54.8871 88.6882 55.2943C88.0547 56.1088 87.2855 56.7423 86.4258 57.2853L88.3262 56.1993C90.9507 54.7061 92.4891 51.8102 93.0321 48.1903C94.6158 43.0771 93.3489 35.5206 89.2312 28.3713C85.1136 21.2219 79.0955 16.2898 73.8918 15.1133C70.4982 13.7559 67.2403 13.6654 64.6158 15.1586L62.7154 16.2446C62.3986 16.4256 62.1271 16.6518 61.8556 16.8328C61.4937 16.9685 61.1769 17.1043 60.8149 17.2853L58.9145 18.3713C58.5977 18.5523 58.3262 18.7785 58.0547 18.9595C57.6928 19.0952 57.376 19.231 57.014 19.412L55.1136 20.5432C54.7968 20.7242 54.5253 20.9504 54.2538 21.1314C53.8918 21.2672 53.5751 21.4029 53.2131 21.5839L51.3127 22.6699C50.9054 22.8961 50.4982 23.2129 50.1362 23.5296C50.0909 23.5749 50.0457 23.6201 50.0004 23.6654C49.6837 23.9369 49.367 24.2536 49.0955 24.5704L49.0502 24.6609C47.376 26.7875 46.471 29.7287 46.4258 33.2129C45.8828 38.0998 47.2855 44.3894 50.7697 50.3622C54.2538 56.3351 59.0955 60.7695 63.5751 62.7152Z" fill="#FBFCF7"/>
<path opacity="0.06" d="M75.249 62.9414C75.068 63.0771 74.887 63.2129 74.6608 63.3486C74.8418 63.2129 75.068 63.0771 75.249 62.9414ZM62.5793 62.7152C64.525 63.8464 66.697 64.5704 68.9142 64.7966C69.1857 64.7966 69.5024 64.8419 69.7739 64.8419C69.9549 64.8419 70.1359 64.8419 70.3169 64.8419C70.6336 64.8419 70.9956 64.7966 71.3124 64.7514L71.6291 64.7061C71.9911 64.6156 72.3531 64.5251 72.7151 64.3894L72.8508 64.3441C73.2581 64.2084 73.6653 64.0274 74.0273 63.8011L75.9278 62.7152C76.2445 62.5342 76.516 62.3532 76.7875 62.1269C77.1495 61.9912 77.4662 61.8102 77.8282 61.6292C78.4617 61.2672 79.0047 60.8147 79.5024 60.2717C79.0047 60.8147 78.4164 61.2672 77.8282 61.6292L79.7287 60.5432C80.0454 60.3622 80.3169 60.1812 80.5884 59.955C80.9504 59.8192 81.2671 59.6382 81.6291 59.4572C82.2626 59.0952 82.8056 58.6428 83.3033 58.0998C82.8056 58.6428 82.2173 59.0952 81.6291 59.4572L83.5296 58.3713C83.8463 58.1903 84.1178 58.0093 84.3893 57.783C84.7513 57.6473 85.068 57.4663 85.43 57.2853C86.2897 56.7876 87.059 56.1088 87.6925 55.2943C88.0092 54.9323 88.2807 54.5251 88.5069 54.0726C88.5069 54.0274 88.5522 54.0274 88.5522 53.9821C88.8237 53.5296 89.0499 53.0319 89.2309 52.4889C89.0499 52.9866 88.7784 53.4844 88.5522 53.9821C88.5522 54.0274 88.5069 54.0274 88.5069 54.0726C88.2807 54.4799 88.0092 54.8871 87.6925 55.2943C87.059 56.1088 86.2897 56.7423 85.43 57.2853L87.3305 56.1993C89.9549 54.7061 91.4934 51.8102 92.0363 48.1903C93.6201 43.0771 92.3531 35.5206 88.2354 28.3713C84.1178 21.2219 78.0997 16.2898 72.8508 15.1133C69.4572 13.7559 66.1992 13.6654 63.5748 15.1586L61.6744 16.2446C61.3576 16.4256 61.0861 16.6518 60.8146 16.8328C60.4526 16.9685 60.1359 17.1043 59.7739 17.2853L57.8735 18.3713C57.5567 18.5523 57.2852 18.7785 57.0137 18.9595C56.6517 19.0952 56.335 19.231 55.973 19.412L54.0725 20.498C53.7558 20.679 53.4843 20.9052 53.2128 21.0862C52.8508 21.2219 52.5341 21.3577 52.1721 21.5387L50.2716 22.6247C49.8644 22.8509 49.4572 23.1676 49.0952 23.4844C49.0499 23.5296 49.0047 23.5749 48.9594 23.6201C48.6427 23.8916 48.3259 24.2084 48.0544 24.5251L48.0092 24.6156C46.335 26.6971 45.4753 29.6382 45.3848 33.1224C44.8418 38.0093 46.2445 44.2989 49.7287 50.2717C53.2128 56.2446 58.0545 60.7695 62.5793 62.7152Z" fill="#F7FAF0"/>
<path opacity="0.09" d="M74.2549 62.9414C74.0739 63.0771 73.8929 63.2129 73.6666 63.3486C73.8476 63.2129 74.0739 63.0771 74.2549 62.9414ZM61.5852 62.7152C63.5309 63.8464 65.7028 64.5704 67.92 64.7966C68.1915 64.7966 68.5083 64.8419 68.7798 64.8419C68.9608 64.8419 69.1418 64.8419 69.3228 64.8419C69.6395 64.8419 70.0015 64.7966 70.3182 64.7514L70.635 64.7061C70.997 64.6156 71.359 64.5251 71.7209 64.3894L71.8567 64.3441C72.2639 64.2084 72.6712 64.0274 73.0332 63.8011L74.9336 62.7152C75.2504 62.5342 75.5218 62.3532 75.7933 62.1269C76.1553 61.9912 76.4721 61.8102 76.8341 61.6292C77.4676 61.2672 78.0105 60.8147 78.5083 60.2717C78.0105 60.8147 77.4223 61.2672 76.8341 61.6292L78.7345 60.5432C79.0513 60.3622 79.3227 60.1812 79.5942 59.955C79.9562 59.8192 80.273 59.6382 80.635 59.4572C81.2685 59.0952 81.8114 58.6428 82.3092 58.0998C81.8114 58.6428 81.2232 59.0952 80.635 59.4572L82.5354 58.3713C82.8522 58.1903 83.1237 58.0093 83.3952 57.783C83.7571 57.6473 84.0739 57.4663 84.4359 57.2853C85.2956 56.7876 86.0648 56.1088 86.6983 55.2943C87.0151 54.9323 87.2866 54.5251 87.5128 54.0726C87.5128 54.0274 87.558 54.0274 87.558 53.9821C87.8295 53.5296 88.0558 53.0319 88.2368 52.4889C88.0558 52.9866 87.7843 53.4844 87.558 53.9821C87.558 54.0274 87.5128 54.0274 87.5128 54.0726C87.2866 54.4799 87.0151 54.8871 86.6983 55.2943C86.0648 56.1088 85.2956 56.7423 84.4359 57.2853L86.3363 56.1993C88.9608 54.7061 90.4992 51.8102 91.0422 48.1903C92.6259 43.0771 91.359 35.5206 87.2413 28.3713C83.1237 21.2219 77.1056 16.2898 71.8567 15.1133C68.463 13.7559 65.2051 13.6654 62.5807 15.1586L60.6802 16.2446C60.3635 16.4256 60.092 16.6518 59.8205 16.8328C59.4585 16.9685 59.1418 17.1043 58.7798 17.2853L56.8793 18.3713C56.5626 18.5523 56.2911 18.7785 56.0196 19.0047C55.6576 19.1405 55.3409 19.2762 54.9789 19.4572L53.0784 20.5432C52.7617 20.7242 52.4902 20.9504 52.2187 21.1314C51.8567 21.2672 51.5399 21.4029 51.178 21.5839L49.2775 22.6699C48.8703 22.8961 48.463 23.2129 48.101 23.5296C48.0558 23.5749 48.0105 23.6201 47.9653 23.6654C47.6485 23.9369 47.3318 24.2536 47.0603 24.5704L47.0151 24.6609C45.3409 26.7423 44.4359 29.6835 44.3906 33.1676C43.8476 38.0545 45.2504 44.3441 48.7345 50.317C52.2187 56.2898 57.0603 60.7695 61.5852 62.7152Z" fill="#F3F7E8"/>
<path opacity="0.12" d="M60.5435 62.7152C62.4892 63.8464 64.6612 64.5704 66.8784 64.7966C67.1499 64.7966 67.4666 64.8419 67.7381 64.8419C67.9191 64.8419 68.1001 64.8419 68.2811 64.8419C68.5978 64.8419 68.9598 64.7966 69.2766 64.7514L69.5933 64.7061C69.9553 64.6156 70.3173 64.5251 70.6793 64.3894L70.815 64.3441C71.2223 64.2084 71.6295 64.0274 71.9915 63.8011L73.8919 62.7152C74.2087 62.5342 74.4802 62.3532 74.7517 62.1269C75.1137 61.9912 75.4304 61.8102 75.7924 61.6292C76.4259 61.2672 76.9689 60.8147 77.4666 60.2717C76.9689 60.8147 76.3806 61.2672 75.7924 61.6292L77.6928 60.5432C78.0096 60.3622 78.2811 60.1812 78.5526 59.955C78.9146 59.8192 79.2313 59.6382 79.5933 59.4572C80.2268 59.0952 80.7698 58.6428 81.2675 58.0998C80.7698 58.6428 80.1815 59.0952 79.5933 59.4572L81.4938 58.3713C81.8105 58.1903 82.082 58.0093 82.3535 57.783C82.7155 57.6473 83.0322 57.4663 83.3942 57.2853C84.2539 56.7876 85.0232 56.1088 85.6566 55.2943C85.9734 54.9323 86.2449 54.5251 86.4711 54.0726C86.4711 54.0274 86.5164 54.0274 86.5164 53.9821C86.7879 53.5296 87.0141 53.0319 87.1951 52.4889C87.0141 52.9866 86.7426 53.4844 86.5164 53.9821C86.5164 54.0274 86.4711 54.0274 86.4711 54.0726C86.2449 54.4799 85.9734 54.8871 85.6566 55.2943C85.0232 56.1088 84.2539 56.7423 83.3942 57.2853L85.2947 56.1993C87.9191 54.7061 89.4575 51.8102 90.0005 48.1903C91.5842 43.0771 90.3173 35.5206 86.1996 28.3713C82.082 21.2219 76.0639 16.2898 70.8603 15.1133C67.4666 13.7559 64.2087 13.6654 61.5843 15.1586L59.6838 16.2446C59.3671 16.4256 59.0956 16.6518 58.8241 16.8328C58.4621 16.9685 58.1453 17.1043 57.7833 17.2853L55.8829 18.3713C55.5662 18.5523 55.2947 18.7785 55.0232 18.9595C54.6612 19.0952 54.3444 19.231 53.9824 19.412L52.082 20.498C51.7652 20.679 51.4938 20.9052 51.2223 21.0862C50.8603 21.2219 50.5435 21.3577 50.1815 21.5387L48.3263 22.6699C47.9191 22.8961 47.5119 23.2129 47.1499 23.5296C47.1046 23.5749 47.0594 23.6201 47.0141 23.6654C46.6974 23.9369 46.3806 24.2536 46.1091 24.5704L46.0639 24.6609C44.3897 26.7423 43.4847 29.6835 43.4395 33.1676C42.8965 38.0545 44.2992 44.3441 47.7833 50.317C51.2675 56.2898 56.0639 60.7695 60.5435 62.7152Z" fill="#EFF4E0"/>
<path opacity="0.15" d="M59.5478 62.7152C61.4935 63.8464 63.6654 64.5704 65.8826 64.7966C66.1541 64.7966 66.4708 64.8419 66.7423 64.8419C66.9233 64.8419 67.1043 64.8419 67.2853 64.8419C67.6473 64.8419 67.9641 64.7966 68.326 64.7061L68.6428 64.6609C69.0048 64.5704 69.3668 64.4799 69.7288 64.3441L69.8645 64.2989C70.2717 64.1631 70.679 63.9821 71.041 63.7559L72.9414 62.6699C73.2582 62.4889 73.5297 62.3079 73.8012 62.0817C74.1631 61.9459 74.4799 61.7649 74.8419 61.5839C75.4754 61.2219 76.0184 60.7695 76.5161 60.2265C76.0184 60.7695 75.4301 61.2219 74.8419 61.5839L76.7423 60.498C77.0591 60.317 77.3306 60.136 77.6021 59.9097C77.964 59.774 78.2808 59.593 78.6428 59.412C79.2763 59.05 79.8193 58.5975 80.317 58.0545C79.8193 58.5975 79.231 59.05 78.6428 59.412L80.5432 58.326C80.86 58.145 81.1315 57.964 81.403 57.7378C81.765 57.602 82.0817 57.421 82.4437 57.24C83.3034 56.7423 84.0726 56.0636 84.7061 55.2491C85.0229 54.8871 85.2944 54.4799 85.5206 54.0274C85.5206 53.9821 85.5659 53.9821 85.5659 53.9369C85.8374 53.4844 86.0636 52.9866 86.2446 52.4437C86.0636 52.9414 85.7921 53.4391 85.5659 53.9369C85.5659 53.9821 85.5206 53.9821 85.5206 54.0274C85.2944 54.4346 85.0229 54.8418 84.7061 55.2491C84.0726 56.0636 83.3034 56.6971 82.4437 57.24L84.3441 56.1541C86.9686 54.6609 88.507 51.7649 89.05 48.145C90.6337 43.0319 89.3668 35.4753 85.2491 28.326C81.1315 21.1767 75.0681 16.2898 69.8645 15.1133C66.4708 13.7559 63.2129 13.6654 60.5885 15.1586L58.688 16.2446C58.3713 16.4256 58.0998 16.6518 57.8283 16.8328C57.4663 16.9685 57.1496 17.1043 56.7876 17.2853L54.8871 18.3713C54.5704 18.5523 54.2989 18.7785 54.0274 18.9595C53.6654 19.0952 53.3487 19.231 52.9867 19.412L51.0862 20.498C50.7695 20.679 50.498 20.9052 50.2265 21.0862C49.8645 21.2219 49.5478 21.3577 49.1858 21.5387L47.2853 22.6247C46.8781 22.8509 46.4708 23.1676 46.1088 23.4844C46.0636 23.5296 46.0183 23.5749 45.9731 23.6201C45.6564 23.8916 45.3396 24.2084 45.0681 24.5251L45.0229 24.6156C43.3487 26.6971 42.4889 29.6382 42.3984 33.1224C41.8555 38.0093 43.2582 44.2989 46.7423 50.2717C50.2265 56.2446 55.0681 60.7695 59.5478 62.7152Z" fill="#EBF2D8"/>
<path opacity="0.18" d="M58.552 62.7152C60.4977 63.8464 62.6696 64.5704 64.8868 64.7966C65.1583 64.7966 65.4751 64.8419 65.7466 64.8419C65.9276 64.8419 66.1086 64.8419 66.2895 64.8419C66.6063 64.8419 66.9683 64.7966 67.285 64.7514L67.6018 64.7061C67.9638 64.6156 68.3257 64.5251 68.6877 64.3894L68.8235 64.3441C69.2307 64.2084 69.638 64.0274 70 63.8011L71.9004 62.7152C72.2171 62.5342 72.4886 62.3532 72.7601 62.1269C73.1221 61.9912 73.4389 61.8102 73.8009 61.6292C74.4343 61.2672 74.9773 60.8147 75.4751 60.2717C74.9773 60.8147 74.3891 61.2672 73.8009 61.6292L75.7013 60.5432C76.0181 60.3622 76.2895 60.1812 76.561 59.955C76.923 59.8192 77.2398 59.6382 77.6018 59.4572C78.2352 59.0952 78.7782 58.6428 79.276 58.0998C78.7782 58.6428 78.19 59.0952 77.6018 59.4572L79.5022 58.3713C79.819 58.1903 80.0905 58.0093 80.3619 57.783C80.7239 57.6473 81.0407 57.4663 81.4027 57.2853C82.2624 56.7876 83.0316 56.1088 83.6651 55.2943C83.9819 54.9323 84.2533 54.5251 84.4796 54.0726C84.4796 54.0274 84.5248 54.0274 84.5248 53.9821C84.7963 53.5296 85.0226 53.0319 85.2036 52.4889C85.0226 52.9866 84.7511 53.4844 84.5248 53.9821C84.5248 54.0274 84.4796 54.0274 84.4796 54.0726C84.2533 54.4799 83.9819 54.8871 83.6651 55.2943C83.0316 56.1088 82.2624 56.7423 81.4027 57.2853L83.3031 56.1993C85.9276 54.7061 87.466 51.8102 88.009 48.1903C89.5927 43.0771 88.3257 35.5206 84.2081 28.3713C80.0905 21.2219 74.0724 16.2898 68.8235 15.1133C65.4298 13.7559 62.1719 13.6654 59.5475 15.1586L57.647 16.2446C57.3303 16.4256 57.0588 16.6518 56.7873 16.8328C56.4253 16.9685 56.1086 17.1043 55.7466 17.2853L53.8461 18.3713C53.5294 18.5523 53.2579 18.7785 52.9864 18.9595C52.6244 19.0952 52.3076 19.231 51.9457 19.412L50.0452 20.498C49.7285 20.679 49.457 20.9052 49.1855 21.1767C48.8235 21.3124 48.5067 21.4482 48.1448 21.6292L46.2443 22.7152C45.8371 22.9866 45.4298 23.2581 45.0678 23.5749C45.0226 23.6201 44.9773 23.6654 44.9321 23.7106C44.6153 23.9821 44.2986 24.2989 44.0271 24.6156L43.9819 24.7061C42.3076 26.7875 41.4027 29.774 41.3574 33.2129C40.8144 38.0998 42.2172 44.3894 45.7013 50.3622C49.1855 56.3351 54.0271 60.7695 58.552 62.7152Z" fill="#E8EFD1"/>
<path opacity="0.21" d="M70.2272 62.9414C70.0462 63.0771 69.8652 63.2129 69.639 63.3486C69.82 63.2129 70.0462 63.0771 70.2272 62.9414ZM57.5575 62.7152C59.5032 63.8464 61.6752 64.5704 63.8924 64.7966C64.1639 64.7966 64.4806 64.8419 64.7521 64.8419C64.9331 64.8419 65.1141 64.8419 65.2951 64.8419C65.6118 64.8419 65.9738 64.7966 66.2906 64.7514L66.6073 64.7061C66.9693 64.6156 67.3313 64.5251 67.6933 64.3894L67.829 64.3441C68.2363 64.2084 68.6435 64.0274 69.0055 63.8011L70.9059 62.7152C71.2227 62.5342 71.4942 62.3532 71.7657 62.1269C72.1277 61.9912 72.4444 61.8102 72.8064 61.6292C73.4399 61.2672 73.9829 60.8147 74.4806 60.2717C73.9829 60.8147 73.3946 61.2672 72.8064 61.6292L74.7068 60.5432C75.0236 60.3622 75.2951 60.1812 75.5666 59.955C75.9286 59.8192 76.2453 59.6382 76.6073 59.4572C77.2408 59.0952 77.7838 58.6428 78.2815 58.0998C77.7838 58.6428 77.1955 59.0952 76.6073 59.4572L78.5077 58.3713C78.8245 58.1903 79.096 58.0093 79.3675 57.783C79.7295 57.6473 80.0462 57.4663 80.4082 57.2853C81.2679 56.7876 82.0372 56.1088 82.6706 55.2943C82.9874 54.9323 83.2589 54.5251 83.4851 54.0726C83.4851 54.0274 83.5304 54.0274 83.5304 53.9821C83.8019 53.4844 84.0734 52.9866 84.2544 52.4889C84.0734 52.9866 83.8019 53.4844 83.5756 53.9821C83.5756 54.0274 83.5304 54.0274 83.5304 54.0726C83.3041 54.4799 83.0326 54.8871 82.7159 55.2943C82.0824 56.1088 81.3132 56.7423 80.4535 57.2853L82.3539 56.1993C84.9783 54.7061 86.5168 51.8102 87.0598 48.1903C88.6435 43.0771 87.3765 35.5206 83.2589 28.3713C79.1412 21.2219 73.0779 16.2898 67.829 15.1133C64.4353 13.7559 61.1774 13.6654 58.553 15.1586L56.6525 16.2446C56.3358 16.4256 56.0643 16.6518 55.7928 16.8328C55.4308 16.9685 55.1141 17.1043 54.7521 17.2853L52.8969 18.4165C52.5801 18.5975 52.3087 18.8237 52.0372 19.0047C51.6752 19.1405 51.3584 19.2762 50.9964 19.4572L49.096 20.5432C48.7792 20.7242 48.5077 20.9504 48.2363 21.1314C47.8743 21.2672 47.5575 21.4029 47.1955 21.5839L45.2951 22.6699C44.8878 22.8961 44.4806 23.2129 44.1186 23.5296C44.0734 23.5749 44.0281 23.6201 43.9829 23.6654C43.6661 23.9369 43.3494 24.2536 43.0779 24.5704L43.0326 24.6609C41.3584 26.7423 40.4535 29.6835 40.4082 33.1676C39.8652 38.0545 41.2679 44.3441 44.7521 50.317C48.2363 56.2898 53.0326 60.7695 57.5575 62.7152Z" fill="#E4ECC9"/>
<path opacity="0.24" d="M69.1862 62.9414C69.0052 63.0771 68.8242 63.2129 68.598 63.3486C68.8242 63.2129 69.0504 63.0771 69.1862 62.9414ZM56.5165 62.7152C58.4622 63.8464 60.6342 64.5704 62.8513 64.7966C63.1228 64.7966 63.4396 64.8419 63.7111 64.8419C63.8921 64.8419 64.0731 64.8419 64.2541 64.8419C64.5708 64.8419 64.9328 64.7966 65.2495 64.7514L65.5663 64.7061C65.9283 64.6156 66.2903 64.5251 66.6523 64.3894L66.788 64.3441C67.1952 64.2084 67.6025 64.0274 67.9645 63.8011L69.8649 62.7152C70.1817 62.5342 70.4532 62.3532 70.7247 62.1269C71.0866 61.9912 71.4034 61.8102 71.7654 61.6292C72.3989 61.2672 72.9418 60.8147 73.4396 60.2717C72.9418 60.8147 72.3536 61.2672 71.7654 61.6292L73.6658 60.5432C73.9826 60.3622 74.2541 60.1812 74.5256 59.955C74.8875 59.8192 75.2043 59.6382 75.5663 59.4572C76.1998 59.0952 76.7427 58.6428 77.2405 58.0998C76.7427 58.6428 76.1545 59.0952 75.5663 59.4572L77.4667 58.3713C77.7835 58.1903 78.055 58.0093 78.3265 57.783C78.6885 57.6473 79.0052 57.4663 79.3672 57.2853C80.2269 56.7876 80.9961 56.1088 81.6296 55.2943C81.9464 54.9323 82.2179 54.5251 82.4441 54.0726C82.4441 54.0274 82.4894 54.0274 82.4894 53.9821C82.7609 53.5296 82.9871 53.0319 83.1681 52.4889C82.9871 52.9866 82.7156 53.4844 82.4894 53.9821C82.4894 54.0274 82.4441 54.0274 82.4441 54.0726C82.2179 54.4799 81.9464 54.8871 81.6296 55.2943C80.9961 56.1088 80.2269 56.7423 79.3672 57.2853L81.2676 56.1993C83.8921 54.7061 85.4305 51.8102 85.9735 48.1903C87.5572 43.0771 86.2903 35.5206 82.1726 28.3713C78.055 21.2219 72.0821 16.2898 66.8332 15.1133C63.4396 13.7559 60.1817 13.6654 57.5572 15.1586L55.6568 16.2446C55.34 16.4256 55.0685 16.6518 54.7971 16.8328C54.4351 16.9685 54.1183 17.1043 53.7563 17.2853L51.8559 18.3713C51.5391 18.5523 51.2676 18.7785 50.9961 18.9595C50.6342 19.0952 50.3174 19.231 49.9554 19.412L48.055 20.498C47.7382 20.679 47.4667 20.9052 47.1952 21.0862C46.8333 21.2219 46.5165 21.3577 46.1545 21.5387L44.2541 22.6247C43.8468 22.8509 43.4396 23.1676 43.0776 23.4844C43.0323 23.5296 42.9871 23.5749 42.9418 23.6201C42.6251 23.8916 42.3084 24.2084 42.0369 24.5251L41.9916 24.6156C40.3174 26.6971 39.4577 29.6382 39.3672 33.1224C38.8242 38.0093 40.2269 44.2989 43.7111 50.2717C47.1952 56.2446 52.0369 60.7695 56.5165 62.7152Z" fill="#E0E9C1"/>
<path opacity="0.27" d="M55.5204 62.7152C57.4661 63.8464 59.6381 64.5704 61.8553 64.7966C62.1267 64.7966 62.4435 64.8419 62.715 64.8419C62.896 64.8419 63.077 64.8419 63.258 64.8419C63.5747 64.8419 63.9367 64.7966 64.2534 64.7514L64.5702 64.7061C64.9322 64.6156 65.2942 64.5251 65.6562 64.3894L65.7919 64.3441C66.1991 64.2084 66.6064 64.0274 66.9684 63.8011L68.8688 62.7152C69.1856 62.5342 69.4571 62.3532 69.7286 62.1269C70.0905 61.9912 70.4073 61.8102 70.7693 61.6292C71.4028 61.2672 71.9458 60.8147 72.4435 60.2717C71.9458 60.8147 71.3575 61.2672 70.7693 61.6292L72.6697 60.5432C72.9865 60.3622 73.258 60.1812 73.5295 59.955C73.8915 59.8192 74.2082 59.6382 74.5702 59.4572C75.2037 59.0952 75.7467 58.6428 76.2444 58.0998C75.7467 58.6428 75.1584 59.0952 74.5702 59.4572L76.4706 58.3713C76.7874 58.1903 77.0589 58.0093 77.3304 57.783C77.6924 57.6473 78.0091 57.4663 78.3711 57.2853C79.2308 56.7876 80 56.1088 80.6335 55.2943C80.9503 54.9323 81.2218 54.5251 81.448 54.0726C81.448 54.0274 81.4933 54.0274 81.4933 53.9821C81.7648 53.5296 81.991 53.0319 82.172 52.4889C81.991 52.9866 81.7195 53.4844 81.4933 53.9821C81.4933 54.0274 81.448 54.0274 81.448 54.0726C81.2218 54.4799 80.9503 54.8871 80.6335 55.2943C80 56.1088 79.2308 56.7423 78.3711 57.2853L80.2715 56.1993C82.896 54.7061 84.4344 51.8102 84.9774 48.1903C86.5611 43.0771 85.2942 35.5206 81.1765 28.3713C77.0589 21.2219 71.0408 16.2898 65.8372 15.1133C62.4435 13.7559 59.1856 13.6654 56.5611 15.1586L54.6607 16.2446C54.3439 16.4256 54.0725 16.6518 53.801 16.8328C53.439 16.9685 53.1222 17.1043 52.7602 17.2853L50.8598 18.3713C50.543 18.5523 50.2715 18.7785 50.0001 18.9595C49.6381 19.0952 49.3213 19.231 48.9593 19.412L47.0589 20.498C46.7421 20.679 46.4706 20.9052 46.1991 21.0862C45.8372 21.2219 45.5204 21.3577 45.1584 21.5387L43.258 22.6247C42.8507 22.8509 42.4435 23.1676 42.0815 23.4844C42.0363 23.5296 41.991 23.5749 41.9458 23.6201C41.629 23.8916 41.3123 24.2084 41.0408 24.5251L40.9955 24.6156C39.3213 26.6971 38.4616 29.6382 38.3711 33.1224C37.8281 38.0093 39.2308 44.2989 42.715 50.2717C46.1991 56.2446 51.0408 60.7695 55.5204 62.7152Z" fill="#DCE7B9"/>
<path opacity="0.3" d="M67.195 62.9414C67.014 63.0771 66.833 63.2129 66.6067 63.3486C66.7877 63.2129 67.014 63.0771 67.195 62.9414ZM54.5253 62.7152C56.471 63.8464 58.6429 64.5704 60.8601 64.7966C61.1316 64.7966 61.4484 64.8419 61.7199 64.8419C61.9009 64.8419 62.0819 64.8419 62.2629 64.8419C62.5796 64.8419 62.9416 64.7966 63.2583 64.7514L63.5751 64.7061C63.9371 64.6156 64.299 64.5251 64.661 64.3894L64.7968 64.3441C65.204 64.2084 65.6113 64.0274 65.9733 63.8011L67.8737 62.7152C68.1905 62.5342 68.4619 62.3532 68.7334 62.1269C69.0954 61.9912 69.4122 61.8102 69.7742 61.6292C70.4076 61.2672 70.9506 60.8147 71.4484 60.2717C70.9506 60.8147 70.3624 61.2672 69.7742 61.6292L71.6746 60.5432C71.9914 60.3622 72.2629 60.1812 72.5343 59.955C72.8963 59.8192 73.2131 59.6382 73.5751 59.4572C74.2086 59.0952 74.7515 58.6428 75.2493 58.0998C74.7515 58.6428 74.1633 59.0952 73.5751 59.4572L75.4755 58.3713C75.7923 58.1903 76.0638 58.0093 76.3352 57.783C76.6972 57.6473 77.014 57.4663 77.376 57.2853C78.2357 56.7876 79.0049 56.1088 79.6384 55.2943C79.9552 54.9323 80.2267 54.5251 80.4529 54.0726C80.4529 54.0274 80.4981 54.0274 80.4981 53.9821C80.7696 53.5296 80.9959 53.0319 81.1769 52.4889C80.9959 52.9866 80.7244 53.4844 80.4981 53.9821C80.4981 54.0274 80.4529 54.0274 80.4529 54.0726C80.2267 54.4799 79.9552 54.8871 79.6384 55.2943C79.0049 56.1088 78.2357 56.7423 77.376 57.2853L79.2764 56.1993C81.9009 54.7061 83.4393 51.8102 83.9823 48.1903C85.566 43.0771 84.299 35.5206 80.1814 28.3713C76.0638 21.2219 70.0457 16.2898 64.842 15.1133C61.4484 13.7559 58.1905 13.6654 55.566 15.1586L53.6656 16.2446C53.3488 16.4256 53.0773 16.6518 52.8058 16.8328C52.4438 16.9685 52.1271 17.1043 51.7651 17.2853L49.8647 18.3713C49.5479 18.5523 49.2764 18.7785 49.0049 18.9595C48.6429 19.0952 48.3262 19.231 47.9642 19.412L46.0638 20.5432C45.747 20.7242 45.4755 20.9504 45.204 21.1314C44.842 21.2672 44.5253 21.4029 44.1633 21.5839L42.2629 22.6699C41.8556 22.8961 41.4484 23.2129 41.0864 23.5296C41.0411 23.5749 40.9959 23.6201 40.9506 23.6654C40.6339 23.9369 40.3171 24.2536 40.0457 24.5704L40.0004 24.6609C38.4619 26.8328 37.557 29.774 37.5117 33.2129C36.9687 38.0998 38.3714 44.3894 41.8556 50.3622C45.3398 56.3351 50.0457 60.7695 54.5253 62.7152Z" fill="#D8E4B2"/>
<path opacity="0.33" d="M66.2002 62.9414C66.0192 63.0771 65.8382 63.2129 65.612 63.3486C65.7929 63.2129 66.0192 63.0771 66.2002 62.9414ZM53.5305 62.7152C55.4762 63.8464 57.6482 64.5704 59.8654 64.7966C60.1368 64.7966 60.4536 64.8419 60.7251 64.8419C60.9061 64.8419 61.0871 64.8419 61.2681 64.8419C61.5848 64.8419 61.9468 64.7966 62.2635 64.7514L62.5803 64.7061C62.9423 64.6156 63.3043 64.5251 63.6663 64.3894L63.802 64.3441C64.2092 64.2084 64.6165 64.0274 64.9785 63.8011L66.8789 62.7152C67.1957 62.5342 67.4672 62.3532 67.7386 62.1269C68.1006 61.9912 68.4174 61.8102 68.7794 61.6292C69.4129 61.2672 69.9558 60.8147 70.4536 60.2717C69.9558 60.8147 69.3676 61.2672 68.7794 61.6292L70.6798 60.5432C70.9966 60.3622 71.2681 60.1812 71.5396 59.955C71.9015 59.8192 72.2183 59.6382 72.5803 59.4572C73.2138 59.0952 73.7568 58.6428 74.2545 58.0998C73.7568 58.6428 73.1685 59.0952 72.5803 59.4572L74.4807 58.3713C74.7975 58.1903 75.069 58.0093 75.3405 57.783C75.7025 57.6473 76.0192 57.4663 76.3812 57.2853C77.2409 56.7876 78.0101 56.1088 78.6436 55.2943C78.9604 54.9323 79.2319 54.5251 79.4581 54.0726C79.4581 54.0274 79.5034 54.0274 79.5034 53.9821C79.7748 53.5296 80.0011 53.0319 80.1821 52.4889C80.0011 52.9866 79.7296 53.4844 79.5034 53.9821C79.5034 54.0274 79.4581 54.0274 79.4581 54.0726C79.2319 54.4799 78.9604 54.8871 78.6436 55.2943C78.0101 56.1088 77.2409 56.7423 76.3812 57.2853L78.2816 56.1993C80.9061 54.7061 82.4445 51.8102 82.9875 48.1903C84.5712 43.0771 83.3043 35.5206 79.1866 28.3713C75.069 21.2219 69.0509 16.2898 63.802 15.1133C60.4083 13.7559 57.1504 13.6654 54.526 15.1586L52.6255 16.2446C52.3088 16.4256 52.0373 16.6518 51.7658 16.8328C51.4038 16.9685 51.0871 17.1043 50.7251 17.2853L48.8246 18.3713C48.5079 18.5523 48.2364 18.7785 47.9649 18.9595C47.6029 19.0952 47.2862 19.231 46.9242 19.412L45.0237 20.498C44.707 20.679 44.4355 20.9052 44.164 21.0862C43.802 21.2219 43.4853 21.3577 43.1233 21.5387L41.2228 22.6247C40.8156 22.8509 40.4083 23.1676 40.0463 23.4844C40.0011 23.5296 39.9558 23.5749 39.9106 23.6201C39.5939 23.8916 39.2771 24.2084 39.0056 24.5251L38.9604 24.6156C37.2862 26.6971 36.4264 29.6382 36.3359 33.1224C35.793 38.0093 37.1957 44.2989 40.6798 50.2717C44.164 56.2446 49.0056 60.7695 53.5305 62.7152Z" fill="#D4E1AA"/>
<path opacity="0.36" d="M52.4888 62.7152C54.4345 63.8464 56.6065 64.5704 58.8237 64.7966C59.0952 64.7966 59.4119 64.8419 59.6834 64.8419C59.8644 64.8419 60.0454 64.8419 60.2264 64.8419C60.5431 64.8419 60.9051 64.7966 61.2219 64.7514L61.5386 64.7061C61.9006 64.6156 62.2626 64.5251 62.6246 64.3894L62.7603 64.3441C63.1676 64.2084 63.5748 64.0274 63.9368 63.8011L65.8373 62.7152C66.154 62.5342 66.4255 62.3532 66.697 62.1269C67.059 61.9912 67.3757 61.8102 67.7377 61.6292C68.3712 61.2672 68.9142 60.8147 69.4119 60.2717C68.9142 60.8147 68.3259 61.2672 67.7377 61.6292L69.6382 60.5432C69.9549 60.3622 70.2264 60.1812 70.4979 59.955C70.8599 59.8192 71.1766 59.6382 71.5386 59.4572C72.1721 59.0952 72.7151 58.6428 73.2128 58.0998C72.7151 58.6428 72.1269 59.0952 71.5386 59.4572L73.4391 58.3713C73.7558 58.1903 74.0273 58.0093 74.2988 57.783C74.6608 57.6473 74.9775 57.4663 75.3395 57.2853C76.1992 56.7876 76.9685 56.1088 77.602 55.2943C77.9187 54.9323 78.1902 54.5251 78.4164 54.0726C78.4164 54.0274 78.4617 54.0274 78.4617 53.9821C78.7332 53.5296 78.9594 53.0319 79.1404 52.4889C78.9594 52.9866 78.6879 53.4844 78.4617 53.9821C78.4617 54.0274 78.4164 54.0274 78.4164 54.0726C78.1902 54.4799 77.9187 54.8871 77.602 55.2943C76.9685 56.1088 76.1992 56.7423 75.3395 57.2853L77.24 56.1993C79.8644 54.7061 81.4029 51.8102 81.9459 48.1903C83.5296 43.0771 82.2626 35.5206 78.1449 28.3713C74.0273 21.2219 68.0545 16.2898 62.8056 15.1133C59.4119 13.7559 56.154 13.6654 53.5296 15.1586L51.6291 16.2446C51.3124 16.4256 51.0409 16.6518 50.7694 16.8328C50.4074 16.9685 50.0907 17.1043 49.7287 17.2853L47.8282 18.3713C47.5567 18.5523 47.24 18.7785 47.0137 19.0047C46.6517 19.1405 46.335 19.2762 45.973 19.4572L44.0726 20.5432C43.7558 20.7242 43.4843 20.9504 43.2128 21.1314C42.8508 21.2672 42.5341 21.4029 42.1721 21.5839L40.2716 22.6699C39.8644 22.8961 39.4572 23.2129 39.0952 23.5296C39.0499 23.5749 39.0047 23.6201 38.9594 23.6654C38.6427 23.9369 38.3259 24.2536 38.0545 24.5704L38.0092 24.6609C36.335 26.7423 35.4753 29.6835 35.3848 33.1676C34.8418 38.0545 36.2445 44.3441 39.7287 50.317C43.2128 56.2898 48.0092 60.7695 52.4888 62.7152Z" fill="#D0DFA2"/>
<path opacity="0.39" d="M51.494 62.7152C53.4397 63.8464 55.6117 64.5704 57.8289 64.7966C58.1004 64.7966 58.4171 64.8419 58.6886 64.8419C58.8696 64.8419 59.0506 64.8419 59.2316 64.8419C59.5483 64.8419 59.9103 64.7966 60.2271 64.7514L60.5438 64.7061C60.9058 64.6156 61.2678 64.5251 61.6298 64.3894L61.7655 64.3441C62.1728 64.2084 62.58 64.0274 62.942 63.8011L64.8425 62.7152C65.1592 62.5342 65.4307 62.3532 65.7022 62.1269C66.0642 61.9912 66.3809 61.8102 66.7429 61.6292C67.3764 61.2672 67.9194 60.8147 68.4171 60.2717C67.9194 60.8147 67.3311 61.2672 66.7429 61.6292L68.6434 60.5432C68.9601 60.3622 69.2316 60.1812 69.5031 59.955C69.8651 59.8192 70.1818 59.6382 70.5438 59.4572C71.1773 59.0952 71.7203 58.6428 72.218 58.0998C71.7203 58.6428 71.1321 59.0952 70.5438 59.4572L72.4443 58.3713C72.761 58.1903 73.0325 58.0093 73.304 57.783C73.666 57.6473 73.9827 57.4663 74.3447 57.2853C75.2045 56.7876 75.9737 56.1088 76.6072 55.2943C76.9239 54.9323 77.1954 54.5251 77.4216 54.0726C77.4216 54.0274 77.4669 54.0274 77.4669 53.9821C77.7384 53.4844 78.0099 52.9866 78.2361 52.4889C78.0551 52.9866 77.7836 53.4844 77.5574 53.9821C77.5574 54.0274 77.5121 54.0274 77.5121 54.0726C77.2859 54.4799 77.0144 54.8871 76.6977 55.2943C76.0642 56.1088 75.2949 56.7423 74.4352 57.2853L76.3357 56.1993C78.9601 54.7061 80.4986 51.8102 81.0416 48.1903C82.6253 43.0771 81.3583 35.5206 77.2406 28.3713C73.123 21.2219 67.0144 16.2898 61.8108 15.1133C58.4171 13.7559 55.1592 13.6654 52.5348 15.1586L50.6343 16.2446C50.3176 16.4256 50.0461 16.6518 49.7746 16.8328C49.4126 16.9685 49.0959 17.1043 48.7339 17.2853L46.8334 18.3713C46.5167 18.5523 46.2452 18.7785 45.9737 18.9595C45.6117 19.0952 45.295 19.231 44.933 19.412L43.0325 20.498C42.7158 20.679 42.4443 20.9052 42.1728 21.0862C41.8108 21.2219 41.494 21.3577 41.1321 21.5387L39.3673 22.7604C38.9601 22.9866 38.5529 23.3034 38.1909 23.6201C38.1456 23.6654 38.1004 23.7106 38.0551 23.7559C37.7384 24.0274 37.4216 24.3441 37.1502 24.6609L37.1049 24.7514C35.4307 26.8328 34.571 29.774 34.4805 33.2581C33.9375 38.145 35.3402 44.4346 38.8244 50.4075C42.3085 56.3803 47.0144 60.7695 51.494 62.7152Z" fill="#CCDC9B"/>
<path opacity="0.42" d="M50.4979 62.7152C52.4437 63.8464 54.6156 64.5704 56.8328 64.7966C57.1043 64.7966 57.421 64.8419 57.6925 64.8419C57.8735 64.8419 58.0545 64.8419 58.2355 64.8419C58.5975 64.8419 58.9142 64.7966 59.2762 64.7061L59.593 64.6609C59.955 64.5704 60.317 64.4799 60.6789 64.3441L60.8147 64.2989C61.2219 64.1631 61.6292 63.9821 61.9912 63.7559L63.8916 62.6699C64.2084 62.4889 64.4799 62.3079 64.7513 62.0817C65.1133 61.9459 65.4301 61.7649 65.7921 61.5839C66.4255 61.2219 66.9685 60.7695 67.4663 60.2265C66.9685 60.7695 66.3803 61.2219 65.7921 61.5839L67.6925 60.498C68.0093 60.317 68.2808 60.136 68.5522 59.9097C68.9142 59.774 69.231 59.593 69.593 59.412C70.2265 59.05 70.7694 58.5975 71.2672 58.0545C70.7694 58.5975 70.1812 59.05 69.593 59.412L71.4934 58.326C71.8102 58.145 72.0817 57.964 72.3531 57.7378C72.7151 57.602 73.0319 57.421 73.3939 57.24C74.2536 56.7423 75.0228 56.0636 75.6563 55.2491C75.9731 54.8871 76.2446 54.4799 76.4708 54.0274C76.4708 53.9821 76.516 53.9821 76.516 53.9369C76.7875 53.4844 77.0138 52.9866 77.1948 52.4437C77.0138 52.9414 76.7423 53.4391 76.516 53.9369C76.516 53.9821 76.4708 53.9821 76.4708 54.0274C76.2446 54.4346 75.9731 54.8418 75.6563 55.2491C75.0228 56.0636 74.2536 56.6971 73.3939 57.24L75.2943 56.1541C77.9188 54.6609 79.4572 51.7649 80.0002 48.145C81.5839 43.0319 80.3169 35.4753 76.1993 28.326C72.0817 21.1767 66.0183 16.2898 60.8147 15.1133C57.421 13.7559 54.1631 13.6654 51.5387 15.1586L49.6382 16.2446C49.3215 16.4256 49.05 16.6518 48.7785 16.8328C48.4165 16.9685 48.0998 17.1043 47.7378 17.2853L45.8373 18.3713C45.5206 18.5523 45.2491 18.7785 44.9776 18.9595C44.6156 19.0952 44.2989 19.231 43.9369 19.412L42.0364 20.498C41.7197 20.679 41.4482 20.9052 41.1767 21.0862C40.8147 21.2219 40.4979 21.3577 40.136 21.5387L38.2355 22.6247C37.8283 22.8509 37.421 23.1676 37.059 23.4844C37.0138 23.5296 36.9685 23.5749 36.9233 23.6201C36.6065 23.8916 36.2898 24.2084 36.0183 24.5251L35.9731 24.6156C34.3894 26.7423 33.5296 29.6835 33.4844 33.1676C32.9414 38.0545 34.3441 44.3441 37.8283 50.317C41.3124 56.2898 46.0183 60.7695 50.4979 62.7152Z" fill="#C8D993"/>
<path opacity="0.45" d="M62.1728 62.9414C61.9918 63.0771 61.8109 63.2129 61.5846 63.3486C61.7656 63.2129 61.9918 63.0771 62.1728 62.9414ZM49.5032 62.7152C51.4489 63.8464 53.6208 64.5704 55.838 64.7966C56.1095 64.7966 56.4262 64.8419 56.6977 64.8419C56.8787 64.8419 57.0597 64.8419 57.2407 64.8419C57.5575 64.8419 57.9195 64.7966 58.2362 64.7514L58.5529 64.7061C58.9149 64.6156 59.2769 64.5251 59.6389 64.3894L59.7747 64.3441C60.1819 64.2084 60.5891 64.0274 60.9511 63.8011L62.8516 62.7152C63.1683 62.5342 63.4398 62.3532 63.7113 62.1269C64.0733 61.9912 64.39 61.8102 64.752 61.6292C65.3855 61.2672 65.9285 60.8147 66.4262 60.2717C65.9285 60.8147 65.3403 61.2672 64.752 61.6292L66.6525 60.5432C66.9692 60.3622 67.2407 60.1812 67.5122 59.955C67.8742 59.8192 68.1909 59.6382 68.5529 59.4572C69.1864 59.0952 69.7294 58.6428 70.2271 58.0998C69.7294 58.6428 69.1412 59.0952 68.5529 59.4572L70.4534 58.3713C70.7701 58.1903 71.0416 58.0093 71.3131 57.783C71.6751 57.6473 71.9918 57.4663 72.3538 57.2853C73.2136 56.7876 73.9828 56.1088 74.6163 55.2943C74.933 54.9323 75.2045 54.5251 75.4308 54.0726C75.4308 54.0274 75.476 54.0274 75.476 53.9821C75.7475 53.5296 75.9738 53.0319 76.1547 52.4889C75.9738 52.9866 75.7023 53.4844 75.476 53.9821C75.476 54.0274 75.4308 54.0274 75.4308 54.0726C75.2045 54.4799 74.933 54.8871 74.6163 55.2943C73.9828 56.1088 73.2136 56.7423 72.3538 57.2853L74.2543 56.1993C76.8787 54.7061 78.4172 51.8102 78.9602 48.1903C80.5439 43.0771 79.2769 35.5206 75.1593 28.3713C71.0416 21.2219 65.0235 16.2898 59.7747 15.1133C56.381 13.7559 53.1231 13.6654 50.4986 15.1586L48.5982 16.2446C48.2814 16.4256 48.01 16.6518 47.7385 16.8328C47.3765 16.9685 47.0597 17.1043 46.6977 17.2853L44.7973 18.3713C44.4805 18.5523 44.209 18.7785 43.9376 18.9595C43.5756 19.0952 43.2588 19.231 42.8968 19.412L40.9964 20.498C40.6796 20.679 40.4081 20.9052 40.1366 21.1767C39.7747 21.3124 39.4579 21.4482 39.0959 21.6292L37.1955 22.7152C36.7882 22.9866 36.381 23.2581 36.019 23.5749C35.9738 23.6201 35.9285 23.6654 35.8833 23.7106C35.5665 23.9821 35.2498 24.2989 34.9783 24.6156L34.933 24.7061C33.2588 26.7875 32.3991 29.774 32.3086 33.2129C31.7656 38.0998 33.1683 44.3894 36.6525 50.3622C40.1366 56.3351 44.9783 60.7695 49.5032 62.7152Z" fill="#C4D78B"/>
<path opacity="0.48" d="M61.1328 62.9414C60.9518 63.0771 60.7708 63.2129 60.5446 63.3486C60.7708 63.2129 60.9971 63.0771 61.1328 62.9414ZM48.4631 62.7152C50.4088 63.8464 52.5808 64.5704 54.798 64.7966C55.0695 64.7966 55.3862 64.8419 55.6577 64.8419C55.8387 64.8419 56.0197 64.8419 56.2007 64.8419C56.5174 64.8419 56.8794 64.7966 57.1962 64.7514L57.5129 64.7061C57.8749 64.6156 58.2369 64.5251 58.5989 64.3894L58.7346 64.3441C59.1419 64.2084 59.5491 64.0274 59.9111 63.8011L61.8115 62.7152C62.1283 62.5342 62.3998 62.3532 62.6713 62.1269C63.0333 61.9912 63.35 61.8102 63.712 61.6292C64.3455 61.2672 64.8885 60.8147 65.3862 60.2717C64.8885 60.8147 64.3002 61.2672 63.712 61.6292L65.6124 60.5432C65.9292 60.3622 66.2007 60.1812 66.4722 59.955C66.8342 59.8192 67.1509 59.6382 67.5129 59.4572C68.1464 59.0952 68.6894 58.6428 69.1871 58.0998C68.6894 58.6428 68.1011 59.0952 67.5129 59.4572L69.4133 58.3713C69.7301 58.1903 70.0016 58.0093 70.2731 57.783C70.6351 57.6473 70.9518 57.4663 71.3138 57.2853C72.1735 56.7876 72.9428 56.1088 73.5762 55.2943C73.893 54.9323 74.1645 54.5251 74.3907 54.0726C74.3907 54.0274 74.436 54.0274 74.436 53.9821C74.7075 53.4844 74.979 52.9866 75.16 52.4889C74.979 52.9866 74.7075 53.4844 74.4812 53.9821C74.4812 54.0274 74.436 54.0274 74.436 54.0726C74.2097 54.4799 73.9382 54.8871 73.6215 55.2943C72.988 56.1088 72.2188 56.7423 71.359 57.2853L73.2595 56.1993C75.8839 54.7061 77.4224 51.8102 77.9654 48.1903C79.5491 43.0771 78.2821 35.5206 74.1645 28.3713C70.0468 21.2219 64.0287 16.2898 58.7799 15.1133C55.3862 13.7559 52.1283 13.6654 49.5038 15.1586L47.6034 16.2446C47.2866 16.4256 47.0152 16.6518 46.7437 16.8328C46.3817 16.9685 46.0649 17.1043 45.7029 17.2853L43.893 18.4165C43.5762 18.5975 43.3047 18.8237 43.0333 19.0047C42.6713 19.1405 42.3545 19.2762 41.9925 19.4572L40.0921 20.5432C39.7753 20.7242 39.5038 20.9504 39.2323 21.1314C38.8704 21.2672 38.5536 21.4029 38.1916 21.5839L36.2912 22.6699C35.8839 22.8961 35.4767 23.2129 35.1147 23.5296C35.0695 23.5749 35.0242 23.6201 34.979 23.6654C34.6622 23.9369 34.3455 24.2536 34.074 24.5704L34.0287 24.6609C32.3545 26.7423 31.4948 29.6835 31.4043 33.1676C30.8613 38.0545 32.264 44.3441 35.7482 50.317C39.2324 56.2898 43.9835 60.7695 48.4631 62.7152Z" fill="#C0D483"/>
<path opacity="0.52" d="M47.4677 62.7152C49.4134 63.8464 51.5853 64.5704 53.8025 64.7966C54.074 64.7966 54.3908 64.8419 54.6623 64.8419C54.8432 64.8419 55.0242 64.8419 55.2052 64.8419C55.522 64.8419 55.884 64.7966 56.2007 64.7514L56.5175 64.7061C56.8794 64.6156 57.2414 64.5251 57.6034 64.3894L57.7392 64.3441C58.1464 64.2084 58.5537 64.0274 58.9156 63.8011L60.8161 62.7152C61.1328 62.5342 61.4043 62.3532 61.6758 62.1269C62.0378 61.9912 62.3546 61.8102 62.7165 61.6292C63.35 61.2672 63.893 60.8147 64.3908 60.2717C63.893 60.8147 63.3048 61.2672 62.7165 61.6292L64.617 60.5432C64.9337 60.3622 65.2052 60.1812 65.4767 59.955C65.8387 59.8192 66.1555 59.6382 66.5175 59.4572C67.1509 59.0952 67.6939 58.6428 68.1917 58.0998C67.6939 58.6428 67.1057 59.0952 66.5175 59.4572L68.4179 58.3713C68.7346 58.1903 69.0061 58.0093 69.2776 57.783C69.6396 57.6473 69.9564 57.4663 70.3184 57.2853C71.1781 56.7876 71.9473 56.1088 72.5808 55.2943C72.8975 54.9323 73.169 54.5251 73.3953 54.0726C73.3953 54.0274 73.4405 54.0274 73.4405 53.9821C73.712 53.5296 73.9383 53.0319 74.1193 52.4889C73.9383 52.9866 73.6668 53.4844 73.4405 53.9821C73.4405 54.0274 73.3953 54.0274 73.3953 54.0726C73.169 54.4799 72.8975 54.8871 72.5808 55.2943C71.9473 56.1088 71.1781 56.7423 70.3184 57.2853L72.2188 56.1993C74.8432 54.7061 76.3817 51.8102 76.9247 48.1903C78.5084 43.0771 77.2414 35.5206 73.1238 28.3713C69.0061 21.2219 62.988 16.2898 57.7844 15.1133C54.3908 13.7559 51.1328 13.6654 48.5084 15.1586L46.608 16.2446C46.2912 16.4256 46.0197 16.6518 45.7482 16.8328C45.3862 16.9685 45.0695 17.1043 44.7075 17.2853L42.807 18.3713C42.4903 18.5523 42.2188 18.7785 41.9473 18.9595C41.5853 19.0952 41.2686 19.231 40.9066 19.412L39.0061 20.498C38.6894 20.679 38.4179 20.9052 38.1464 21.0862C37.7844 21.2219 37.4677 21.3577 37.1057 21.5387L35.2052 22.6247C34.798 22.8509 34.3908 23.1676 34.0288 23.4844C33.9835 23.5296 33.9383 23.5749 33.893 23.6201C33.5763 23.8916 33.2595 24.2084 32.988 24.5251L32.9428 24.6156C31.2686 26.6971 30.4089 29.6382 30.3184 33.1224C29.7754 38.0093 31.1781 44.2989 34.6623 50.2717C38.1464 56.2446 42.988 60.7695 47.4677 62.7152Z" fill="#BDD17C"/>
<path opacity="0.55" d="M46.4716 62.7152C48.4173 63.8464 50.5892 64.5704 52.8064 64.7966C53.0779 64.7966 53.3947 64.8419 53.6662 64.8419C53.8472 64.8419 54.0281 64.8419 54.2091 64.8419C54.5259 64.8419 54.8879 64.7966 55.2046 64.7514L55.5214 64.7061C55.8833 64.6156 56.2453 64.5251 56.6073 64.3894L56.7431 64.3441C57.1503 64.2084 57.5576 64.0274 57.9195 63.8011L59.82 62.7152C60.1367 62.5342 60.4082 62.3532 60.6797 62.1269C61.0417 61.9912 61.3585 61.8102 61.7204 61.6292C62.3539 61.2672 62.8969 60.8147 63.3947 60.2717C62.8969 60.8147 62.3087 61.2672 61.7204 61.6292L63.6209 60.5432C63.9376 60.3622 64.2091 60.1812 64.4806 59.955C64.8426 59.8192 65.1594 59.6382 65.5214 59.4572C66.1548 59.0952 66.6978 58.6428 67.1956 58.0998C66.6978 58.6428 66.1096 59.0952 65.5214 59.4572L67.4218 58.3713C67.7386 58.1903 68.01 58.0093 68.2815 57.783C68.6435 57.6473 68.9603 57.4663 69.3223 57.2853C70.182 56.7876 70.9512 56.1088 71.5847 55.2943C71.9014 54.9323 72.1729 54.5251 72.3992 54.0726C72.3992 54.0274 72.4444 54.0274 72.4444 53.9821C72.7159 53.5296 72.9422 53.0319 73.1232 52.4889C72.9422 52.9866 72.6707 53.4844 72.4444 53.9821C72.4444 54.0274 72.3992 54.0274 72.3992 54.0726C72.1729 54.4799 71.9014 54.8871 71.5847 55.2943C70.9512 56.1088 70.182 56.7423 69.3223 57.2853L71.2227 56.1993C73.8471 54.7061 75.3856 51.8102 75.9286 48.1903C77.5123 43.0771 76.2453 35.5206 72.1277 28.3713C68.01 21.2219 61.9919 16.2898 56.7883 15.1133C53.3947 13.7559 50.1367 13.6654 47.5123 15.1586L45.6119 16.2446C45.2951 16.4256 45.0236 16.6518 44.7521 16.8328C44.3901 16.9685 44.0734 17.1043 43.7114 17.2853L41.811 18.3713C41.4942 18.5523 41.2227 18.7785 40.9512 18.9595C40.5892 19.0952 40.2725 19.231 39.9105 19.412L38.01 20.498C37.6933 20.679 37.4218 20.9052 37.1503 21.0862C36.7883 21.2219 36.4716 21.3577 36.1096 21.5387L34.2091 22.6247C33.8019 22.8509 33.3947 23.1676 33.0327 23.4844C32.9874 23.5296 32.9422 23.5749 32.8969 23.6201C32.5802 23.8916 32.2634 24.2084 31.9919 24.5251L31.9467 24.6156C30.2725 26.6971 29.4128 29.6382 29.3223 33.1224C28.7793 38.0093 30.182 44.2989 33.6662 50.2717C37.1503 56.2446 41.9919 60.7695 46.4716 62.7152Z" fill="#B9CE74"/>
<path opacity="0.58" d="M58.1465 62.9414C57.9655 63.0771 57.7845 63.2129 57.5582 63.3486C57.7392 63.2129 57.9655 63.0771 58.1465 62.9414ZM45.4768 62.7152C47.4225 63.8464 49.5944 64.5704 51.8116 64.7966C52.0831 64.7966 52.3999 64.8419 52.6714 64.8419C52.8524 64.8419 53.0334 64.8419 53.2143 64.8419C53.5311 64.8419 53.8931 64.7966 54.2098 64.7514L54.5266 64.7061C54.8886 64.6156 55.2505 64.5251 55.6125 64.3894L55.7483 64.3441C56.1555 64.2084 56.5628 64.0274 56.9248 63.8011L58.8252 62.7152C59.142 62.5342 59.4134 62.3532 59.6849 62.1269C60.0469 61.9912 60.3637 61.8102 60.7257 61.6292C61.3591 61.2672 61.9021 60.8147 62.3999 60.2717C61.9021 60.8147 61.3139 61.2672 60.7257 61.6292L62.6261 60.5432C62.9429 60.3622 63.2143 60.1812 63.4858 59.955C63.8478 59.8192 64.1646 59.6382 64.5266 59.4572C65.1601 59.0952 65.703 58.6428 66.2008 58.0998C65.703 58.6428 65.1148 59.0952 64.5266 59.4572L66.427 58.3713C66.7438 58.1903 67.0153 58.0093 67.2867 57.783C67.6487 57.6473 67.9655 57.4663 68.3275 57.2853C69.1872 56.7876 69.9564 56.1088 70.5899 55.2943C70.9067 54.9323 71.1782 54.5251 71.4044 54.0726C71.4044 54.0274 71.4496 54.0274 71.4496 53.9821C71.7211 53.5296 71.9474 53.0319 72.1284 52.4889C71.9474 52.9866 71.6759 53.4844 71.4496 53.9821C71.4496 54.0274 71.4044 54.0274 71.4044 54.0726C71.1782 54.4799 70.9067 54.8871 70.5899 55.2943C69.9564 56.1088 69.1872 56.7423 68.3275 57.2853L70.2279 56.1993C72.8524 54.7061 74.3908 51.8102 74.9338 48.1903C76.5175 43.0771 75.2505 35.5206 71.1329 28.3713C67.0153 21.2219 60.9972 16.2898 55.7935 15.1133C52.3999 13.7559 49.142 13.6654 46.5175 15.1586L44.6171 16.2446C44.3003 16.4256 44.0288 16.6518 43.7573 16.8328C43.3953 16.9685 43.0786 17.1043 42.7166 17.2853L40.8162 18.3713C40.4994 18.5523 40.2279 18.7785 39.9564 18.9595C39.5944 19.0952 39.2777 19.231 38.9157 19.412L37.1058 20.5885C36.789 20.7695 36.5175 20.9957 36.246 21.1767C35.884 21.3124 35.5673 21.4482 35.2053 21.6292L33.3048 22.7152C32.8976 22.9414 32.4904 23.2581 32.1284 23.5749C32.0831 23.6201 32.0379 23.6654 31.9926 23.7106C31.6759 23.9821 31.3591 24.2989 31.0877 24.6156L31.0424 24.7061C29.3682 26.7875 28.4632 29.774 28.418 33.2129C27.875 38.0998 29.2777 44.3894 32.7619 50.3622C36.246 56.3351 40.9972 60.7695 45.4768 62.7152Z" fill="#B5CC6C"/>
<path opacity="0.61" d="M57.151 62.9414C56.97 63.0771 56.789 63.2129 56.5628 63.3486C56.7438 63.2129 56.97 63.0771 57.151 62.9414ZM44.4814 62.7152C46.4271 63.8464 48.599 64.5704 50.8162 64.7966C51.0877 64.7966 51.4044 64.8419 51.6759 64.8419C51.8569 64.8419 52.0379 64.8419 52.2189 64.8419C52.5357 64.8419 52.8976 64.7966 53.2144 64.7514L53.5311 64.7061C53.8931 64.6156 54.2551 64.5251 54.6171 64.3894L54.7528 64.3441C55.1601 64.2084 55.5673 64.0274 55.9293 63.8011L57.8298 62.7152C58.1465 62.5342 58.418 62.3532 58.6895 62.1269C59.0515 61.9912 59.3682 61.8102 59.7302 61.6292C60.3637 61.2672 60.9067 60.8147 61.4044 60.2717C60.9067 60.8147 60.3185 61.2672 59.7302 61.6292L61.6307 60.5432C61.9474 60.3622 62.2189 60.1812 62.4904 59.955C62.8524 59.8192 63.1691 59.6382 63.5311 59.4572C64.1646 59.0952 64.7076 58.6428 65.2053 58.0998C64.7076 58.6428 64.1194 59.0952 63.5311 59.4572L65.4316 58.3713C65.7483 58.1903 66.0198 58.0093 66.2913 57.783C66.6533 57.6473 66.97 57.4663 67.332 57.2853C68.1918 56.7876 68.961 56.1088 69.5945 55.2943C69.9112 54.9323 70.1827 54.5251 70.409 54.0726C70.409 54.0274 70.4542 54.0274 70.4542 53.9821C70.7257 53.5296 70.9519 53.0319 71.1329 52.4889C70.9519 52.9866 70.6804 53.4844 70.4542 53.9821C70.4542 54.0274 70.409 54.0274 70.409 54.0726C70.1827 54.4799 69.9112 54.8871 69.5945 55.2943C68.961 56.1088 68.1918 56.7423 67.332 57.2853L69.2325 56.1993C71.8569 54.7061 73.3954 51.8102 73.9384 48.1903C75.5221 43.0771 74.2551 35.5206 70.1375 28.3713C66.0198 21.2219 60.0017 16.2898 54.7528 15.1133C51.3592 13.7559 48.1013 13.6654 45.4768 15.1586L43.5764 16.2446C43.2596 16.4256 42.9881 16.6518 42.7166 16.8328C42.3547 16.9685 42.0379 17.1043 41.6759 17.2853L39.8207 18.4165C39.504 18.5975 39.2325 18.8237 38.961 19.0047C38.599 19.1405 38.2823 19.2762 37.9203 19.4572L36.0198 20.5432C35.7031 20.7242 35.4316 20.9504 35.1601 21.1314C34.7981 21.2672 34.4814 21.4029 34.1194 21.5839L32.2189 22.6699C31.8117 22.8961 31.4044 23.2129 31.0424 23.5296C30.9972 23.5749 30.9519 23.6201 30.9067 23.6654C30.59 23.9369 30.2732 24.2536 30.0017 24.5704L29.9565 24.6609C28.2823 26.7423 27.4225 29.6835 27.332 33.1676C26.789 38.0545 28.1918 44.3441 31.6759 50.317C35.1601 56.2898 39.9565 60.7695 44.4814 62.7152Z" fill="#B1C964"/>
<path opacity="0.64" d="M56.1098 62.9414C55.9288 63.0771 55.7478 63.2129 55.5215 63.3486C55.7478 63.2129 55.974 63.0771 56.1098 62.9414ZM43.4401 62.7152C45.3858 63.8464 47.5577 64.5704 49.7749 64.7966C50.0464 64.7966 50.3632 64.8419 50.6346 64.8419C50.8156 64.8419 50.9966 64.8419 51.1776 64.8419C51.4944 64.8419 51.8564 64.7966 52.1731 64.7514L52.4898 64.7061C52.8518 64.6156 53.2138 64.5251 53.5758 64.3894L53.7116 64.3441C54.1188 64.2084 54.526 64.0274 54.888 63.8011L56.7885 62.7152C57.1052 62.5342 57.3767 62.3532 57.6482 62.1269C58.0102 61.9912 58.3269 61.8102 58.6889 61.6292C59.3224 61.2672 59.8654 60.8147 60.3631 60.2717C59.8654 60.8147 59.2772 61.2672 58.6889 61.6292L60.5894 60.5432C60.9061 60.3622 61.1776 60.1812 61.4491 59.955C61.8111 59.8192 62.1279 59.6382 62.4898 59.4572C63.1233 59.0952 63.6663 58.6428 64.1641 58.0998C63.6663 58.6428 63.0781 59.0952 62.4898 59.4572L64.3903 58.3713C64.707 58.1903 64.9785 58.0093 65.25 57.783C65.612 57.6473 65.9288 57.4663 66.2908 57.2853C67.1505 56.7876 67.9197 56.1088 68.5532 55.2943C68.8699 54.9323 69.1414 54.5251 69.3677 54.0726C69.3677 54.0274 69.4129 54.0274 69.4129 53.9821C69.6844 53.5296 69.9107 53.0319 70.0917 52.4889C69.9107 52.9866 69.6392 53.4844 69.4129 53.9821C69.4129 54.0274 69.3677 54.0274 69.3677 54.0726C69.1414 54.4799 68.8699 54.8871 68.5532 55.2943C67.9197 56.1088 67.1505 56.7423 66.2908 57.2853L68.1912 56.1993C70.8156 54.7061 72.3541 51.8102 72.8971 48.1903C74.4808 43.0771 73.2138 35.5206 69.0962 28.3713C64.9785 21.2219 59.0057 16.2898 53.7568 15.1133C50.3632 13.7559 47.1052 13.6654 44.4808 15.1586L42.5803 16.2446C42.2636 16.4256 41.9921 16.6518 41.7206 16.8328C41.3586 16.9685 41.0419 17.1043 40.6799 17.2853L38.7794 18.3713C38.4627 18.5523 38.1912 18.7785 37.9197 18.9595C37.5577 19.0952 37.241 19.231 36.879 19.412L34.9785 20.498C34.6618 20.679 34.3903 20.9052 34.1188 21.0862C33.7568 21.2219 33.4401 21.3577 33.0781 21.5387L31.1776 22.6247C30.7704 22.8509 30.3632 23.1676 30.0012 23.4844C29.9559 23.5296 29.9107 23.5749 29.8654 23.6201C29.5487 23.8916 29.2319 24.2084 28.9604 24.5251L28.9152 24.6156C27.241 26.6971 26.3813 29.6382 26.2908 33.1224C25.7478 38.0998 27.1957 44.3441 30.6346 50.3622C34.0736 56.3803 38.9604 60.7695 43.4401 62.7152Z" fill="#ADC65D"/>
<path opacity="0.67" d="M42.4452 62.7152C44.3909 63.8464 46.5629 64.5704 48.7801 64.7966C49.0516 64.7966 49.3683 64.8419 49.6398 64.8419C49.8208 64.8419 50.0018 64.8419 50.1828 64.8419C50.4995 64.8419 50.8615 64.7966 51.1782 64.7514L51.495 64.7061C51.857 64.6156 52.219 64.5251 52.581 64.3894L52.7167 64.3441C53.1239 64.2084 53.5312 64.0274 53.8932 63.8011L55.7936 62.7152C56.1104 62.5342 56.3819 62.3532 56.6534 62.1269C57.0154 61.9912 57.3321 61.8102 57.6941 61.6292C58.3276 61.2672 58.8706 60.8147 59.3683 60.2717C58.8706 60.8147 58.2823 61.2672 57.6941 61.6292L59.5945 60.5432C59.9113 60.3622 60.1828 60.1812 60.4543 59.955C60.8163 59.8192 61.133 59.6382 61.495 59.4572C62.1285 59.0952 62.6715 58.6428 63.1692 58.0998C62.6715 58.6428 62.0832 59.0952 61.495 59.4572L63.3954 58.3713C63.7122 58.1903 63.9837 58.0093 64.2552 57.783C64.6172 57.6473 64.9339 57.4663 65.2959 57.2853C66.1556 56.7876 66.9249 56.1088 67.5583 55.2943C67.8751 54.9323 68.1466 54.5251 68.3728 54.0726C68.3728 54.0274 68.4181 54.0274 68.4181 53.9821C68.6896 53.5296 68.9158 53.0319 69.0968 52.4889C68.9158 52.9866 68.6443 53.4844 68.4181 53.9821C68.4181 54.0274 68.3728 54.0274 68.3728 54.0726C68.1466 54.4799 67.8751 54.8871 67.5583 55.2943C66.9249 56.1088 66.1556 56.7423 65.2959 57.2853L67.1963 56.1993C69.8208 54.7061 71.3592 51.8102 71.9022 48.1903C73.4859 43.0771 72.219 35.5206 68.1013 28.3713C63.9837 21.2219 57.9656 16.2898 52.762 15.1133C49.3683 13.7559 46.1104 13.6654 43.4859 15.1586L41.5855 16.2446C41.2687 16.4256 40.9973 16.6518 40.7258 16.8328C40.3638 16.9685 40.047 17.1043 39.685 17.2853L37.7846 18.3713C37.4678 18.5523 37.1963 18.7785 36.9249 18.9595C36.5629 19.0952 36.2461 19.231 35.8841 19.412L33.9837 20.498C33.6669 20.679 33.3954 20.9052 33.1239 21.0862C32.762 21.2219 32.4452 21.3577 32.0832 21.5387L30.3185 22.7604C29.9113 22.9866 29.504 23.3034 29.142 23.6201C29.0968 23.6654 29.0516 23.7106 29.0063 23.7559C28.6896 24.0274 28.3728 24.3441 28.1013 24.6609L28.0561 24.7061C26.3819 26.7875 25.4769 29.7287 25.4316 33.2129C24.8887 38.0998 26.2914 44.3894 29.7755 50.3622C33.2597 56.3351 37.9656 60.7695 42.4452 62.7152Z" fill="#A9C455"/>
<path opacity="0.7" d="M41.4491 62.7152C43.3948 63.8464 45.5668 64.5704 47.784 64.7966C48.0555 64.7966 48.3722 64.8419 48.6437 64.8419C48.8247 64.8419 49.0057 64.8419 49.1867 64.8419C49.5487 64.8419 49.8654 64.7966 50.2274 64.7061L50.5441 64.6609C50.9061 64.5704 51.2681 64.4799 51.6301 64.3441L51.7659 64.2989C52.1731 64.1631 52.5803 63.9821 52.9423 63.7559L54.8428 62.6699C55.1595 62.4889 55.431 62.3079 55.7025 62.0817C56.0645 61.9459 56.3812 61.7649 56.7432 61.5839C57.3767 61.2219 57.9197 60.7695 58.4174 60.2265C57.9197 60.7695 57.3315 61.2219 56.7432 61.5839L58.6437 60.498C58.9604 60.317 59.2319 60.136 59.5034 59.9097C59.8654 59.774 60.1822 59.593 60.5441 59.412C61.1776 59.05 61.7206 58.5975 62.2183 58.0545C61.7206 58.5975 61.1324 59.05 60.5441 59.412L62.4446 58.326C62.7613 58.145 63.0328 57.964 63.3043 57.7378C63.6663 57.602 63.9831 57.421 64.345 57.24C65.2048 56.7423 65.974 56.0636 66.6075 55.2491C66.9242 54.8871 67.1957 54.4799 67.422 54.0274C67.422 53.9821 67.4672 53.9821 67.4672 53.9369C67.7387 53.4844 67.965 52.9866 68.146 52.4437C67.965 52.9414 67.6935 53.4391 67.4672 53.9369C67.4672 53.9821 67.422 53.9821 67.422 54.0274C67.1957 54.4346 66.9242 54.8418 66.6075 55.2491C65.974 56.0636 65.2048 56.6971 64.345 57.24L66.2455 56.1541C68.8699 54.6609 70.4084 51.7649 70.9514 48.145C72.5351 43.0319 71.2681 35.4753 67.1505 28.326C63.0328 21.1767 56.9695 16.2898 51.7659 15.1133C48.3722 13.7559 45.1143 13.6654 42.4898 15.1586L40.5894 16.2446C40.2727 16.4256 40.0012 16.6518 39.7297 16.8328C39.3677 16.9685 39.0509 17.1043 38.6889 17.2853L36.7885 18.3713C36.4717 18.5523 36.2003 18.7785 35.9288 18.9595C35.5668 19.0952 35.25 19.231 34.888 19.412L32.9876 20.498C32.6708 20.679 32.3993 20.9052 32.1279 21.0862C31.7659 21.2219 31.4491 21.3577 31.0871 21.5387L29.1867 22.6247C28.7794 22.8509 28.3722 23.1676 28.0102 23.4844C27.965 23.5296 27.9197 23.5749 27.8745 23.6201C27.5577 23.8916 27.241 24.2084 26.9695 24.5251L26.9242 24.6156C25.3405 26.7423 24.4808 29.6835 24.4355 33.1676C23.8926 38.0545 25.2953 44.3441 28.7794 50.317C32.2636 56.2898 36.9695 60.7695 41.4491 62.7152Z" fill="#A5C14D"/>
<path opacity="0.73" d="M53.1221 62.9414C52.9411 63.0771 52.7601 63.2129 52.5338 63.3486C52.7148 63.2129 52.9411 63.0771 53.1221 62.9414ZM40.4524 62.7152C42.3981 63.8464 44.57 64.5704 46.7872 64.7966C47.0587 64.7966 47.3755 64.8419 47.647 64.8419C47.828 64.8419 48.0089 64.8419 48.1899 64.8419C48.5067 64.8419 48.8687 64.7966 49.1854 64.7514L49.5022 64.7061C49.8641 64.6156 50.2261 64.5251 50.5881 64.3894L50.7239 64.3441C51.1311 64.2084 51.5384 64.0274 51.9003 63.8011L53.8008 62.7152C54.1175 62.5342 54.389 62.3532 54.6605 62.1269C55.0225 61.9912 55.3393 61.8102 55.7012 61.6292C56.3347 61.2672 56.8777 60.8147 57.3755 60.2717C56.8777 60.8147 56.2895 61.2672 55.7012 61.6292L57.6017 60.5432C57.9184 60.3622 58.1899 60.1812 58.4614 59.955C58.8234 59.8192 59.1402 59.6382 59.5022 59.4572C60.1356 59.0952 60.6786 58.6428 61.1764 58.0998C60.6786 58.6428 60.0904 59.0952 59.5022 59.4572L61.4026 58.3713C61.7193 58.1903 61.9908 58.0093 62.2623 57.783C62.6243 57.6473 62.9411 57.4663 63.3031 57.2853C64.1628 56.7876 64.932 56.1088 65.5655 55.2943C65.8822 54.9323 66.1537 54.5251 66.38 54.0726C66.38 54.0274 66.4252 54.0274 66.4252 53.9821C66.6967 53.5296 66.923 53.0319 67.104 52.4889C66.923 52.9866 66.6515 53.4844 66.4252 53.9821C66.4252 54.0274 66.38 54.0274 66.38 54.0726C66.1537 54.4799 65.8822 54.8871 65.5655 55.2943C64.932 56.1088 64.1628 56.7423 63.3031 57.2853L65.2035 56.1993C67.828 54.7061 69.3664 51.8102 69.9094 48.1903C71.4931 43.0771 70.2261 35.5206 66.1085 28.3713C61.9908 21.2219 55.9727 16.2898 50.7239 15.1133C47.3302 13.7559 44.0723 13.6654 41.4479 15.1586L39.5474 16.2446C39.2307 16.4256 38.9592 16.6518 38.6877 16.8328C38.3257 16.9685 38.0089 17.1043 37.647 17.2853L35.7465 18.3713C35.4298 18.5523 35.1583 18.7785 34.8868 18.9595C34.5248 19.0952 34.208 19.231 33.846 19.412L31.9456 20.498C31.6289 20.679 31.3574 20.9052 31.0859 21.1767C30.7239 21.3124 30.4071 21.4482 30.0451 21.6292L28.1447 22.7152C27.7375 22.9414 27.3302 23.2581 26.9682 23.5749C26.923 23.6201 26.8777 23.6654 26.8325 23.7106C26.5157 23.9821 26.199 24.2989 25.9275 24.6156L25.8822 24.7061C24.208 26.7875 23.3483 29.7287 23.2578 33.2129C22.7148 38.0998 24.1175 44.3894 27.6017 50.3622C31.0859 56.3351 35.9275 60.7695 40.4524 62.7152Z" fill="#A1BE46"/>
<path opacity="0.76" d="M52.1279 62.9414C51.9469 63.0771 51.7659 63.2129 51.5397 63.3486C51.7207 63.2129 51.9469 63.0771 52.1279 62.9414ZM39.4582 62.7152C41.4039 63.8464 43.5759 64.5704 45.7931 64.7966C46.0646 64.7966 46.3813 64.8419 46.6528 64.8419C46.8338 64.8419 47.0148 64.8419 47.1958 64.8419C47.5125 64.8419 47.8745 64.7966 48.1913 64.7514L48.508 64.7061C48.87 64.6156 49.232 64.5251 49.594 64.3894L49.7297 64.3441C50.137 64.2084 50.5442 64.0274 50.9062 63.8011L52.8067 62.7152C53.1234 62.5342 53.3949 62.3532 53.6664 62.1269C54.0284 61.9912 54.3451 61.8102 54.7071 61.6292C55.3406 61.2672 55.8836 60.8147 56.3813 60.2717C55.8836 60.8147 55.2953 61.2672 54.7071 61.6292L56.6076 60.5432C56.9243 60.3622 57.1958 60.1812 57.4673 59.955C57.8293 59.8192 58.146 59.6382 58.508 59.4572C59.1415 59.0952 59.6845 58.6428 60.1822 58.0998C59.6845 58.6428 59.0963 59.0952 58.508 59.4572L60.4085 58.3713C60.7252 58.1903 60.9967 58.0093 61.2682 57.783C61.6302 57.6473 61.9469 57.4663 62.3089 57.2853C63.1686 56.7876 63.9379 56.1088 64.5714 55.2943C64.8881 54.9323 65.1596 54.5251 65.3858 54.0726C65.3858 54.0274 65.4311 54.0274 65.4311 53.9821C65.7026 53.4844 65.9741 52.9866 66.1551 52.4889C65.9741 52.9866 65.7026 53.4844 65.4763 53.9821C65.4763 54.0274 65.4311 54.0274 65.4311 54.0726C65.2049 54.4799 64.9334 54.8871 64.6166 55.2943C63.9831 56.1088 63.2139 56.7423 62.3542 57.2853L64.2546 56.1993C66.8791 54.7061 68.4175 51.8102 68.9605 48.1903C70.5442 43.0771 69.2772 35.5206 65.1596 28.3713C61.042 21.2219 54.9334 16.2898 49.7297 15.1133C46.3361 13.7559 43.0782 13.6654 40.4537 15.1586L38.5533 16.2446C38.2365 16.4256 37.965 16.6518 37.6935 16.8328C37.3315 16.9685 37.0148 17.1043 36.6528 17.2853L34.7524 18.3713C34.4356 18.5523 34.1641 18.7785 33.8926 18.9595C33.5306 19.0952 33.2139 19.231 32.8519 19.412L30.9515 20.498C30.6347 20.679 30.3632 20.9052 30.0917 21.0862C29.7297 21.2219 29.413 21.3577 29.051 21.5387L27.1506 22.6247C26.7433 22.8509 26.3361 23.1676 25.9741 23.4844C25.9288 23.5296 25.8836 23.5749 25.8383 23.6201C25.5216 23.8916 25.2048 24.2084 24.9334 24.5251L24.8881 24.6156C23.2139 26.6971 22.3089 29.6382 22.2637 33.1224C21.7207 38.0093 23.1234 44.2989 26.6076 50.2717C30.0917 56.2446 34.9334 60.7695 39.4582 62.7152Z" fill="#9DBC3E"/>
<path opacity="0.79" d="M38.4169 62.7152C40.3626 63.8464 42.5345 64.5704 44.7517 64.7966C45.0232 64.7966 45.34 64.8419 45.6115 64.8419C45.7925 64.8419 45.9735 64.8419 46.1545 64.8419C46.4712 64.8419 46.8332 64.7966 47.1499 64.7514L47.4667 64.7061C47.8287 64.6156 48.1907 64.5251 48.5526 64.3894L48.6884 64.3441C49.0956 64.2084 49.5029 64.0274 49.8649 63.8011L51.7653 62.7152C52.0821 62.5342 52.3536 62.3532 52.625 62.1269C52.987 61.9912 53.3038 61.8102 53.6658 61.6292C54.2993 61.2672 54.8422 60.8147 55.34 60.2717C54.8422 60.8147 54.254 61.2672 53.6658 61.6292L55.5662 60.5432C55.883 60.3622 56.1545 60.1812 56.4259 59.955C56.7879 59.8192 57.1047 59.6382 57.4667 59.4572C58.1002 59.0952 58.6431 58.6428 59.1409 58.0998C58.6431 58.6428 58.0549 59.0952 57.4667 59.4572L59.3671 58.3713C59.6839 58.1903 59.9554 58.0093 60.2269 57.783C60.5888 57.6473 60.9056 57.4663 61.2676 57.2853C62.1273 56.7876 62.8965 56.1088 63.53 55.2943C63.8468 54.9323 64.1183 54.5251 64.3445 54.0726C64.3445 54.0274 64.3898 54.0274 64.3898 53.9821C64.6612 53.4844 64.9327 52.9866 65.159 52.4889C64.978 52.9866 64.7065 53.4844 64.4802 53.9821C64.4802 54.0274 64.435 54.0274 64.435 54.0726C64.2088 54.4799 63.9373 54.8871 63.6205 55.2943C62.987 56.1088 62.2178 56.7423 61.3581 57.2853L63.2585 56.1993C65.883 54.7061 67.4214 51.8102 67.9644 48.1903C69.5481 43.0771 68.2812 35.5206 64.1635 28.3713C60.0459 21.2219 53.9373 16.2898 48.7336 15.1133C45.34 13.7559 42.0821 13.6654 39.4576 15.1586L37.5572 16.2446C37.2404 16.4256 36.9689 16.6518 36.6974 16.8328C36.3355 16.9685 36.0187 17.1043 35.6567 17.2853L33.7563 18.3713C33.4395 18.5523 33.168 18.7785 32.8965 18.9595C32.5345 19.0952 32.2178 19.231 31.8558 19.412L29.9554 20.498C29.6386 20.679 29.3671 20.9052 29.0956 21.0862C28.7336 21.2219 28.4169 21.3577 28.0549 21.5387L26.1545 22.6247C25.7472 22.8509 25.34 23.1676 24.978 23.4844C24.9327 23.5296 24.8875 23.5749 24.8422 23.6201C24.5255 23.8916 24.2088 24.2084 23.9373 24.5251L23.892 24.6156C22.2178 26.6971 21.3128 29.6382 21.2676 33.1224C20.7246 38.0093 22.1273 44.2989 25.6115 50.2717C29.0956 56.2446 33.9373 60.7695 38.4169 62.7152Z" fill="#99B936"/>
<path opacity="0.82" d="M37.4208 62.7152C39.3665 63.8464 41.5385 64.5704 43.7556 64.7966C44.0271 64.7966 44.3439 64.8419 44.6154 64.8419C44.7964 64.8419 44.9774 64.8419 45.1584 64.8419C45.4751 64.8419 45.8371 64.7966 46.1538 64.7514L46.4706 64.7061C46.8326 64.6156 47.1946 64.5251 47.5566 64.3894L47.6923 64.3441C48.0995 64.2084 48.5068 64.0274 48.8688 63.8011L50.7692 62.7152C51.086 62.5342 51.3575 62.3532 51.6289 62.1269C51.9909 61.9912 52.3077 61.8102 52.6697 61.6292C53.3032 61.2672 53.8461 60.8147 54.3439 60.2717C53.8461 60.8147 53.2579 61.2672 52.6697 61.6292L54.5701 60.5432C54.8869 60.3622 55.1584 60.1812 55.4299 59.955C55.7918 59.8192 56.1086 59.6382 56.4706 59.4572C57.1041 59.0952 57.647 58.6428 58.1448 58.0998C57.647 58.6428 57.0588 59.0952 56.4706 59.4572L58.371 58.3713C58.6878 58.1903 58.9593 58.0093 59.2308 57.783C59.5927 57.6473 59.9095 57.4663 60.2715 57.2853C61.1312 56.7876 61.9004 56.1088 62.5339 55.2943C62.8507 54.9323 63.1222 54.5251 63.3484 54.0726C63.3484 54.0274 63.3937 54.0274 63.3937 53.9821C63.6652 53.5296 63.8914 53.0319 64.0724 52.4889C63.8914 52.9866 63.6199 53.4844 63.3937 53.9821C63.3937 54.0274 63.3484 54.0274 63.3484 54.0726C63.1222 54.4799 62.8507 54.8871 62.5339 55.2943C61.9004 56.1088 61.1312 56.7423 60.2715 57.2853L62.1719 56.1993C64.7964 54.7061 66.3348 51.8102 66.8778 48.1903C68.4615 43.0771 67.1946 35.5206 63.0769 28.3713C58.9593 21.2219 52.9412 16.2898 47.7375 15.1133C44.3439 13.7559 41.086 13.6654 38.4615 15.1586L36.5611 16.2446C36.2443 16.4256 35.9728 16.6518 35.7014 16.8328C35.3394 16.9685 35.0226 17.1043 34.6606 17.2853L32.7602 18.3713C32.4434 18.5523 32.1719 18.7785 31.9004 18.9595C31.5385 19.0952 31.2217 19.231 30.8597 19.412L28.9593 20.498C28.6425 20.679 28.371 20.9052 28.0995 21.0862C27.7375 21.2219 27.4208 21.3577 27.0588 21.5387L25.1584 22.6247C24.7511 22.8509 24.3439 23.1676 23.9819 23.4844C23.9366 23.5296 23.8914 23.5749 23.8461 23.6201C23.5294 23.8916 23.2127 24.2084 22.9412 24.5251L22.8959 24.6156C21.2217 26.6971 20.362 29.6382 20.2715 33.1224C19.7285 38.0998 21.1312 44.3441 24.6154 50.3622C28.0995 56.3803 32.9412 60.7695 37.4208 62.7152Z" fill="#95B62E"/>
<path opacity="0.85" d="M49.0954 62.9414C48.9144 63.0771 48.7334 63.2129 48.5071 63.3486C48.6881 63.2129 48.9144 63.0771 49.0954 62.9414ZM36.4257 62.7152C38.3714 63.8464 40.5433 64.5704 42.7605 64.7966C43.032 64.7966 43.3488 64.8419 43.6203 64.8419C43.8013 64.8419 43.9822 64.8419 44.1632 64.8419C44.48 64.8419 44.842 64.7966 45.1587 64.7514L45.4755 64.7061C45.8374 64.6156 46.1994 64.5251 46.5614 64.3894L46.6972 64.3441C47.1044 64.2084 47.5117 64.0274 47.8737 63.8011L49.7741 62.7152C50.0908 62.5342 50.3623 62.3532 50.6338 62.1269C50.9958 61.9912 51.3126 61.8102 51.6746 61.6292C52.308 61.2672 52.851 60.8147 53.3488 60.2717C52.851 60.8147 52.2628 61.2672 51.6746 61.6292L53.575 60.5432C53.8917 60.3622 54.1632 60.1812 54.4347 59.955C54.7967 59.8192 55.1135 59.6382 55.4755 59.4572C56.1089 59.0952 56.6519 58.6428 57.1497 58.0998C56.6519 58.6428 56.0637 59.0952 55.4755 59.4572L57.3759 58.3713C57.6927 58.1903 57.9641 58.0093 58.2356 57.783C58.5976 57.6473 58.9144 57.4663 59.2764 57.2853C60.1361 56.7876 60.9053 56.1088 61.5388 55.2943C61.8555 54.9323 62.127 54.5251 62.3533 54.0726C62.3533 54.0274 62.3985 54.0274 62.3985 53.9821C62.67 53.5296 62.8963 53.0319 63.0773 52.4889C62.8963 52.9866 62.6248 53.4844 62.3985 53.9821C62.3985 54.0274 62.3533 54.0274 62.3533 54.0726C62.127 54.4799 61.8555 54.8871 61.5388 55.2943C60.9053 56.1088 60.1361 56.7423 59.2764 57.2853L61.1768 56.1993C63.8012 54.7061 65.3397 51.8102 65.8827 48.1903C67.4664 43.0771 66.1994 35.5206 62.0818 28.3713C57.9641 21.2219 51.946 16.2898 46.6972 15.1133C43.3035 13.7559 40.0456 13.6654 37.4212 15.1586L35.5207 16.2446C35.204 16.4256 34.9325 16.6518 34.661 16.8328C34.299 16.9685 33.9822 17.1043 33.6203 17.2853L31.7198 18.3713C31.4031 18.5523 31.1316 18.7785 30.8601 18.9595C30.4981 19.0952 30.1813 19.231 29.8193 19.412L28.0546 20.5885C27.7379 20.7695 27.4664 20.9957 27.1949 21.1767C26.8329 21.3124 26.5162 21.4482 26.1542 21.6292L24.2537 22.7152C23.8465 22.9414 23.4393 23.2581 23.0773 23.5749C23.032 23.6201 22.9868 23.6654 22.9415 23.7106C22.6248 23.9821 22.308 24.2989 22.0365 24.6156L21.9913 24.7061C20.3623 26.7875 19.4574 29.7287 19.4121 33.2129C18.8691 38.0998 20.2718 44.3894 23.756 50.3622C27.2402 56.3351 31.9008 60.7695 36.4257 62.7152Z" fill="#92B327"/>
<path opacity="0.88" d="M48.1003 62.9414C47.9193 63.0771 47.7383 63.2129 47.512 63.3486C47.693 63.2129 47.9193 63.0771 48.1003 62.9414ZM35.4306 62.7152C37.3763 63.8464 39.5482 64.5704 41.7654 64.7966C42.0369 64.7966 42.3536 64.8419 42.6251 64.8419C42.8061 64.8419 42.9871 64.8419 43.1681 64.8419C43.4849 64.8419 43.8469 64.7966 44.1636 64.7514L44.4803 64.7061C44.8423 64.6156 45.2043 64.5251 45.5663 64.3894L45.7021 64.3441C46.1093 64.2084 46.5165 64.0274 46.8785 63.8011L48.779 62.7152C49.0957 62.5342 49.3672 62.3532 49.6387 62.1269C50.0007 61.9912 50.3174 61.8102 50.6794 61.6292C51.3129 61.2672 51.8559 60.8147 52.3536 60.2717C51.8559 60.8147 51.2677 61.2672 50.6794 61.6292L52.5799 60.5432C52.8966 60.3622 53.1681 60.1812 53.4396 59.955C53.8016 59.8192 54.1184 59.6382 54.4803 59.4572C55.1138 59.0952 55.6568 58.6428 56.1546 58.0998C55.6568 58.6428 55.0686 59.0952 54.4803 59.4572L56.3808 58.3713C56.6975 58.1903 56.969 58.0093 57.2405 57.783C57.6025 57.6473 57.9193 57.4663 58.2813 57.2853C59.141 56.7876 59.9102 56.1088 60.5437 55.2943C60.8604 54.9323 61.1319 54.5251 61.3582 54.0726C61.3582 54.0274 61.4034 54.0274 61.4034 53.9821C61.6749 53.5296 61.9012 53.0319 62.0822 52.4889C61.9012 52.9866 61.6297 53.4844 61.4034 53.9821C61.4034 54.0274 61.3582 54.0274 61.3582 54.0726C61.1319 54.4799 60.8604 54.8871 60.5437 55.2943C59.9102 56.1088 59.141 56.7423 58.2813 57.2853L60.1817 56.1993C62.8061 54.7061 64.3446 51.8102 64.8876 48.1903C66.4713 43.0771 65.2043 35.5206 61.0867 28.3713C56.969 21.2219 50.9509 16.2898 45.7021 15.1133C42.3084 13.7559 39.0505 13.6654 36.426 15.1586L34.5256 16.2446C34.2089 16.4256 33.9374 16.6518 33.6659 16.8328C33.3039 16.9685 32.9871 17.1043 32.6251 17.2853L30.7699 18.4165C30.4532 18.5975 30.1817 18.8237 29.9102 19.0047C29.5482 19.1405 29.2315 19.2762 28.8695 19.4572L26.969 20.5432C26.6523 20.7242 26.3808 20.9504 26.1093 21.1314C25.7473 21.2672 25.4306 21.4029 25.0686 21.5839L23.1681 22.6699C22.7609 22.8961 22.3536 23.2129 21.9917 23.5296C21.9464 23.5749 21.9012 23.6201 21.8559 23.6654C21.5392 23.9369 21.2224 24.2536 20.9509 24.5704L20.9057 24.6609C19.2315 26.7423 18.3265 29.6835 18.2813 33.1676C17.7383 38.0545 19.141 44.3441 22.6251 50.317C26.1093 56.2898 30.9057 60.7695 35.4306 62.7152Z" fill="#8EB11F"/>
<path opacity="0.91" d="M34.3896 62.7152C36.3353 63.8464 38.5072 64.5704 40.7244 64.7966C40.9959 64.7966 41.3126 64.8419 41.5841 64.8419C41.7651 64.8419 41.9461 64.8419 42.1271 64.8419C42.4439 64.8419 42.8058 64.7966 43.1226 64.7514L43.4393 64.7061C43.8013 64.6156 44.1633 64.5251 44.5253 64.3894L44.661 64.3441C45.0683 64.2084 45.4755 64.0274 45.8375 63.8011L47.738 62.7152C48.0547 62.5342 48.3262 62.3532 48.5977 62.1269C48.9597 61.9912 49.2764 61.8102 49.6384 61.6292C50.2719 61.2672 50.8149 60.8147 51.3126 60.2717C50.8149 60.8147 50.2267 61.2672 49.6384 61.6292L51.5389 60.5432C51.8556 60.3622 52.1271 60.1812 52.3986 59.955C52.7606 59.8192 53.0773 59.6382 53.4393 59.4572C54.0728 59.0952 54.6158 58.6428 55.1135 58.0998C54.6158 58.6428 54.0276 59.0952 53.4393 59.4572L55.3398 58.3713C55.6565 58.1903 55.928 58.0093 56.1995 57.783C56.5615 57.6473 56.8782 57.4663 57.2402 57.2853C58.1 56.7876 58.8692 56.1088 59.5027 55.2943C59.8194 54.9323 60.0909 54.5251 60.3172 54.0726C60.3172 54.0274 60.3624 54.0274 60.3624 53.9821C60.6339 53.5296 60.8601 53.0319 61.0411 52.4889C60.8601 52.9866 60.5886 53.4844 60.3624 53.9821C60.3624 54.0274 60.3172 54.0274 60.3172 54.0726C60.0909 54.4799 59.8194 54.8871 59.5027 55.2943C58.8692 56.1088 58.1 56.7423 57.2402 57.2853L59.1407 56.1993C61.7651 54.7061 63.3036 51.8102 63.8466 48.1903C65.4303 43.0771 64.1633 35.5206 60.0457 28.3713C55.928 21.2219 49.9099 16.2898 44.7063 15.1133C41.3126 13.7559 38.0547 13.6654 35.4303 15.1586L33.5298 16.2446C33.2131 16.4256 32.9416 16.6518 32.6701 16.8328C32.3081 16.9685 31.9914 17.1043 31.6294 17.2853L29.7289 18.3713C29.4122 18.5523 29.1407 18.7785 28.8692 18.9595C28.5072 19.0952 28.1905 19.231 27.8285 19.412L25.928 20.498C25.6113 20.679 25.3398 20.9052 25.0683 21.0862C24.7063 21.2219 24.3896 21.3577 24.0276 21.5387L22.1271 22.6247C21.7199 22.8509 21.3126 23.1676 20.9506 23.4844C20.9054 23.5296 20.8601 23.5749 20.8149 23.6201C20.4982 23.8916 20.1814 24.2084 19.9099 24.5251L19.8647 24.6156C18.1905 26.6971 17.2855 29.6382 17.2402 33.1224C16.6972 38.0998 18.1 44.3441 21.5841 50.3622C25.0683 56.3803 29.9099 60.7695 34.3896 62.7152Z" fill="#8AAE17"/>
<path opacity="0.94" d="M33.3942 62.7152C35.3399 63.8464 37.5118 64.5704 39.729 64.7966C40.0005 64.7966 40.3172 64.8419 40.5887 64.8419C40.7697 64.8419 40.9507 64.8419 41.1317 64.8419C41.4485 64.8419 41.8105 64.7966 42.1272 64.7514L42.4439 64.7061C42.8059 64.6156 43.1679 64.5251 43.5299 64.3894L43.6657 64.3441C44.0729 64.2084 44.4801 64.0274 44.8421 63.8011L46.7426 62.7152C47.0593 62.5342 47.3308 62.3532 47.6023 62.1269C47.9643 61.9912 48.281 61.8102 48.643 61.6292C49.2765 61.2672 49.8195 60.8147 50.3172 60.2717C49.8195 60.8147 49.2313 61.2672 48.643 61.6292L50.5435 60.5432C50.8602 60.3622 51.1317 60.1812 51.4032 59.955C51.7652 59.8192 52.082 59.6382 52.4439 59.4572C53.0774 59.0952 53.6204 58.6428 54.1182 58.0998C53.6204 58.6428 53.0322 59.0952 52.4439 59.4572L54.3444 58.3713C54.6611 58.1903 54.9326 58.0093 55.2041 57.783C55.5661 57.6473 55.8829 57.4663 56.2449 57.2853C57.1046 56.7876 57.8738 56.1088 58.5073 55.2943C58.824 54.9323 59.0955 54.5251 59.3218 54.0726C59.3218 54.0274 59.367 54.0274 59.367 53.9821C59.6385 53.5296 59.8648 53.0319 60.0458 52.4889C59.8648 52.9866 59.5933 53.4844 59.367 53.9821C59.367 54.0274 59.3218 54.0274 59.3218 54.0726C59.0955 54.4799 58.824 54.8871 58.5073 55.2943C57.8738 56.1088 57.1046 56.7423 56.2449 57.2853L58.1453 56.1993C60.7697 54.7061 62.3082 51.8102 62.8512 48.1903C64.4349 43.0771 63.1679 35.5206 59.0503 28.3713C54.9326 21.2219 48.9145 16.2898 43.7109 15.1133C40.3172 13.7559 37.0593 13.6654 34.4349 15.1586L32.5344 16.2446C32.2177 16.4256 31.9462 16.6518 31.6747 16.8328C31.3127 16.9685 30.996 17.1043 30.634 17.2853L28.7335 18.3713C28.4168 18.5523 28.1453 18.7785 27.8738 18.9595C27.5118 19.0952 27.1951 19.231 26.8331 19.412L24.9326 20.498C24.6159 20.679 24.3444 20.9052 24.0729 21.0862C23.7109 21.2219 23.3942 21.3577 23.0322 21.5387L21.2675 22.7604C20.8602 22.9866 20.453 23.3034 20.091 23.6201C20.0458 23.6654 20.0005 23.7106 19.9553 23.7559C19.6385 24.0274 19.3218 24.3441 19.0503 24.6609L19.005 24.7061C17.3308 26.7875 16.4711 29.7287 16.3806 33.2129C15.8376 38.0998 17.2856 44.3894 20.7245 50.3622C24.1634 56.3351 28.9145 60.7695 33.3942 62.7152Z" fill="#86AB0F"/>
<path opacity="0.97" d="M45.0693 62.9414C44.8883 63.0771 44.7073 63.2129 44.4811 63.3486C44.6621 63.2129 44.8883 63.0771 45.0693 62.9414ZM32.3996 62.7152C34.3454 63.8464 36.5173 64.5704 38.7345 64.7966C39.006 64.7966 39.3227 64.8419 39.5942 64.8419C39.7752 64.8419 39.9562 64.8419 40.1372 64.8419C40.4992 64.8419 40.8159 64.7966 41.1779 64.7061L41.4947 64.6609C41.8567 64.5704 42.2187 64.4799 42.5806 64.3441L42.7164 64.2989C43.1236 64.1631 43.5309 63.9821 43.8929 63.7559L45.7933 62.6699C46.1101 62.4889 46.3815 62.3079 46.653 62.0817C47.015 61.9459 47.3318 61.7649 47.6938 61.5839C48.3272 61.2219 48.8702 60.7695 49.368 60.2265C48.8702 60.7695 48.282 61.2219 47.6938 61.5839L49.5942 60.498C49.911 60.317 50.1825 60.136 50.4539 59.9097C50.8159 59.774 51.1327 59.593 51.4947 59.412C52.1282 59.05 52.6711 58.5975 53.1689 58.0545C52.6711 58.5975 52.0829 59.05 51.4947 59.412L53.3951 58.326C53.7119 58.145 53.9834 57.964 54.2549 57.7378C54.6168 57.602 54.9336 57.421 55.2956 57.24C56.1553 56.7423 56.9245 56.0636 57.558 55.2491C57.8748 54.8871 58.1463 54.4799 58.3725 54.0274C58.3725 53.9821 58.4177 53.9821 58.4177 53.9369C58.6892 53.4844 58.9155 52.9866 59.0965 52.4437C58.9155 52.9414 58.644 53.4391 58.4177 53.9369C58.4177 53.9821 58.3725 53.9821 58.3725 54.0274C58.1463 54.4346 57.8748 54.8418 57.558 55.2491C56.9245 56.0636 56.1553 56.6971 55.2956 57.24L57.196 56.1541C59.8205 54.6609 61.3589 51.7649 61.9019 48.145C63.4856 43.0319 62.2186 35.4753 58.101 28.326C53.9834 21.1767 47.92 16.2898 42.6711 15.1133C39.2775 13.7559 36.0196 13.6654 33.3951 15.1586L31.4947 16.2446C31.1779 16.4256 30.9064 16.6518 30.6349 16.8328C30.273 16.9685 29.9562 17.1043 29.5942 17.2853L27.6938 18.3713C27.377 18.5523 27.1055 18.7785 26.834 18.9595C26.472 19.0952 26.1553 19.231 25.7933 19.412L23.8929 20.498C23.5761 20.679 23.3046 20.9052 23.0331 21.0862C22.6711 21.2219 22.3544 21.3577 21.9924 21.5387L20.092 22.6247C19.6847 22.8509 19.2775 23.1676 18.9155 23.4844C18.8702 23.5296 18.825 23.5749 18.7797 23.6201C18.463 23.8916 18.1463 24.2084 17.8748 24.5251L17.8295 24.6156C16.1101 26.7876 15.2956 29.7287 15.2051 33.2129C14.6621 38.0998 16.0648 44.3894 19.549 50.3622C23.0331 56.3351 27.92 60.7695 32.3996 62.7152Z" fill="#82A908"/>
<path d="M44.0732 62.9414C43.8922 63.0771 43.7112 63.2129 43.485 63.3486C43.666 63.2129 43.8922 63.0771 44.0732 62.9414ZM31.4036 62.7152C33.3493 63.8464 35.5212 64.5704 37.7384 64.7966C38.0099 64.7966 38.3266 64.8419 38.5981 64.8419C38.7791 64.8419 38.9601 64.8419 39.1411 64.8419C39.4579 64.8419 39.8198 64.7966 40.1366 64.7514L40.4533 64.7061C40.8153 64.6156 41.1773 64.5251 41.5393 64.3894L41.675 64.3441C42.0823 64.2084 42.4895 64.0274 42.8515 63.8011L44.752 62.7152C45.0687 62.5342 45.3402 62.3532 45.6117 62.1269C45.9737 61.9912 46.2904 61.8102 46.6524 61.6292C47.2859 61.2672 47.8289 60.8147 48.3266 60.2717C47.8289 60.8147 47.2407 61.2672 46.6524 61.6292L48.5529 60.5432C48.8696 60.3622 49.1411 60.1812 49.4126 59.955C49.7746 59.8192 50.0913 59.6382 50.4533 59.4572C51.0868 59.0952 51.6298 58.6428 52.1275 58.0998C51.6298 58.6428 51.0416 59.0952 50.4533 59.4572L52.3538 58.3713C52.6705 58.1903 52.942 58.0093 53.2135 57.783C53.5755 57.6473 53.8922 57.4663 54.2542 57.2853C55.114 56.7876 55.8832 56.1088 56.5167 55.2943C56.8334 54.9323 57.1049 54.5251 57.3312 54.0726C57.3312 54.0274 57.3764 54.0274 57.3764 53.9821C57.6479 53.5296 57.8741 53.0319 58.0551 52.4889C57.8741 52.9866 57.6027 53.4844 57.3764 53.9821C57.3764 54.0274 57.3312 54.0274 57.3312 54.0726C57.1049 54.4799 56.8334 54.8871 56.5167 55.2943C55.8832 56.1088 55.114 56.7423 54.2542 57.2853L56.1547 56.1993C58.7791 54.7061 60.3176 51.8102 60.8606 48.1903C62.4443 43.0771 61.1773 35.5206 57.0597 28.3713C52.942 21.2219 46.9239 16.2898 41.675 15.1133C38.2814 13.7559 35.0235 13.6654 32.399 15.1586L30.4986 16.2446C30.1818 16.4256 29.9103 16.6518 29.6388 16.8328C29.2769 16.9685 28.9601 17.1043 28.5981 17.2853L26.6977 18.3713C26.3809 18.5523 26.1094 18.7785 25.8379 18.9595C25.476 19.0952 25.1592 19.231 24.7972 19.412L22.8968 20.498C22.58 20.679 22.3085 20.9052 22.037 21.1767C21.675 21.3124 21.3583 21.4482 20.9963 21.6292L19.0959 22.7152C18.6886 22.9414 18.2814 23.2581 17.9194 23.5749C17.8741 23.6201 17.8289 23.6654 17.7836 23.7106C17.4669 23.9821 17.1502 24.2989 16.8787 24.6156L16.8334 24.7061C15.1592 26.7875 14.2995 29.7287 14.209 33.2129C13.666 38.0998 15.0687 44.3894 18.5529 50.3622C22.037 56.3351 26.8787 60.7695 31.4036 62.7152Z" fill="#7EA600"/>
</g>
<path d="M52.7605 30.5884L39.4574 47.2852L39.4121 68.2354L65.3397 53.1676L65.385 47.059V38.9594L65.4302 32.2173L52.7605 30.5884Z" fill="#DBDBDB"/>
<path d="M13.348 32.2622L13.3027 53.1672L39.4113 68.2351L39.5018 47.3301L13.348 32.2622Z" fill="#F2F2F2"/>
<path d="M18.0547 24.4346L45.6565 40.4075L47.2855 38.507L19.6836 22.5342L18.0547 24.4346Z" fill="#C7402C"/>
<path d="M19.6836 22.5339L47.2854 38.5068L48.8239 36.6516L21.2221 20.6787L19.6836 22.5339Z" fill="#BD3D2A"/>
<path d="M16.4258 26.3803L44.0276 42.3531L45.6566 40.4074L18.0547 24.4346L16.4258 26.3803Z" fill="#BD3D2A"/>
<path d="M22.6699 18.9592L50.2717 34.9321L51.8554 33.0769L24.2536 17.104L22.6699 18.9592Z" fill="#BD3D2A"/>
<path d="M14.6152 28.5066L42.217 44.5247L44.027 42.3527L16.4252 26.3799L14.6152 28.5066Z" fill="#C7402C"/>
<path d="M11.1309 32.6246L38.8232 48.5974L40.3616 46.7422L12.7146 30.7241L11.1309 32.6246Z" fill="#C7402C"/>
<path d="M12.7148 30.724L40.3619 46.7421L42.2171 44.5249L14.6153 28.5068L12.7148 30.724Z" fill="#BD3C2A"/>
<path d="M21.2227 20.6789L48.8245 36.6518L50.2724 34.9323L22.6706 18.9595L21.2227 20.6789Z" fill="#C7402C"/>
<path d="M24.2539 17.1042L51.8557 33.0771L53.3037 31.3124L25.7924 15.249L24.2539 17.1042Z" fill="#C7402C"/>
<path d="M64.4791 32.3983L37.0131 16.516L35.4746 16.335L62.9859 32.2173L64.4791 32.3983Z" fill="#A13323"/>
<path d="M66.3802 32.579L38.6426 16.6966L37.0137 16.5156L64.4797 32.398L66.3802 32.579Z" fill="#942F20"/>
<path d="M35.4743 16.3348L33.6191 16.1538L61.1757 32.0814L62.9857 32.2172L35.4743 16.3348Z" fill="#942F20"/>
<path d="M25.791 15.249L53.3023 31.3124L55.8363 31.5386L28.0987 15.5205L25.791 15.249Z" fill="#942F20"/>
<path d="M31.9453 15.9277L59.5019 31.9006L61.1761 32.0816L33.6195 16.154L31.9453 15.9277Z" fill="#A13323"/>
<path d="M28.0996 15.5205L55.8372 31.5386L57.6471 31.7196L30.0001 15.7468L28.0996 15.5205Z" fill="#A13323"/>
<path d="M30 15.7466L57.6471 31.7194L59.5023 31.9004L31.9457 15.9276L30 15.7466Z" fill="#942F20"/>
<path d="M52.5791 11.0406V8.23512V5.88218L48.1899 5.29395L43.5745 11.131L43.5293 24.2532L52.5791 25.2939V11.0406Z" fill="#DBDBDB"/>
<path d="M43.5755 11.1312L34.4805 5.88232V18.914L43.5755 24.2081V11.1312Z" fill="#F2F2F2"/>
<path d="M34.5703 4.75133L44.8871 10.8599L45.7468 9.81921L35.43 3.75586L34.5703 4.75133Z" fill="#C7402C"/>
<path d="M36.1992 2.80553L46.516 8.91413L47.3757 7.91866L37.0589 1.81006L36.1992 2.80553Z" fill="#C7402C"/>
<path d="M33.0762 6.51598L43.4834 12.5341L44.1621 11.7648L33.8454 5.65625L33.0762 6.51598Z" fill="#C7402C"/>
<path d="M37.0586 1.80976L47.3753 7.91836L48.1446 6.96813L37.8278 0.904785L37.0586 1.80976Z" fill="#BD3D2A"/>
<path d="M33.8457 5.65595L44.1624 11.7646L44.8864 10.8596L34.5697 4.75098L33.8457 5.65595Z" fill="#BD3D2A"/>
<path d="M35.4297 3.75589L45.7464 9.81924L46.5157 8.91426L36.1989 2.80566L35.4297 3.75589Z" fill="#BD3D2A"/>
<path d="M37.8281 0.904977L48.1449 6.96833L48.9593 6.0181L38.5974 0L37.8281 0.904977Z" fill="#C7402C"/>
<path d="M53.8471 6.51582L43.4398 0.542973L42.3086 0.407227L52.3991 6.38008L53.8471 6.51582Z" fill="#942F20"/>
<path d="M42.3086 0.407231L41.2227 0.271484L51.3584 6.28958L52.3991 6.38008L42.3086 0.407231Z" fill="#A13323"/>
<path d="M38.5977 0L48.9596 6.0181L50.1361 6.15385L39.9551 0.135747L38.5977 0Z" fill="#A13323"/>
<path d="M39.9551 0.135742L50.1361 6.15384L51.3578 6.28959L41.222 0.271489L39.9551 0.135742Z" fill="#942F20"/>
<path d="M50.09 12.2173L50.1352 16.8327L46.5605 18.8689V14.2535L50.09 12.2173Z" fill="#9FC4E8"/>
<path d="M49.502 16.3802V12.5793L50.0902 12.2173L50.1354 16.8327L49.502 16.3802Z" fill="#808080"/>
<path d="M46.5605 18.0541L49.5017 16.3799L50.1352 16.8324L46.5605 18.8686V18.0541Z" fill="#999999"/>
<path d="M57.0585 42.4888V51.1766L50.3617 55.0227L50.3164 46.3349L57.0585 42.4888Z" fill="#9FC4E8"/>
<path d="M55.8831 50.3168V43.1675L57.0596 42.4888V51.1766L55.8379 50.3168H55.8831Z" fill="#808080"/>
<path d="M50.3613 53.5296L55.8364 50.3169L57.0582 51.1766L50.3613 55.0228V53.5296Z" fill="#999999"/>
<path d="M16.5605 40.8145V49.457L23.2121 53.3031L23.2574 44.6606L16.5605 40.8145Z" fill="#9FC4E8"/>
<path d="M17.6918 48.5973V41.4479L16.5605 40.8145V49.457L17.737 48.6425L17.6918 48.5973Z" fill="#808080"/>
<path d="M23.2121 51.81L17.737 48.6426L16.5605 49.4571L23.2121 53.3032V51.81Z" fill="#999999"/>
<path d="M28.5977 48.6426V57.2851L35.2945 61.1765L35.3397 52.534L28.5977 48.6426Z" fill="#9FC4E8"/>
<path d="M29.7741 56.4706V49.3213L28.5977 48.6426V57.2851L29.7741 56.4706Z" fill="#808080"/>
<path d="M35.2945 59.6381L29.7741 56.4707L28.5977 57.2852L35.2945 61.1766V59.6381Z" fill="#999999"/>
<path d="M44.8422 4.11768L43.4395 4.88691L44.8422 5.70139L46.1996 4.88691L44.8422 4.11768Z" fill="#B2B2B2"/>
<path d="M44.8412 5.33938C45.241 5.33938 45.5651 5.15705 45.5651 4.93214C45.5651 4.70723 45.241 4.5249 44.8412 4.5249C44.4413 4.5249 44.1172 4.70723 44.1172 4.93214C44.1172 5.15705 44.4413 5.33938 44.8412 5.33938Z" fill="#1A1A1A"/>
<path d="M44.1172 6.87793V7.28517L44.5244 7.51141V7.10417L44.1172 6.87793Z" fill="#999999"/>
<path d="M43.7559 6.69678V7.05877L44.1179 7.28501V6.87777L43.7559 6.69678Z" fill="#999999"/>
<path d="M44.5254 7.51124L44.8421 7.69224V7.285L44.5254 7.104V7.51124Z" fill="#999999"/>
<path d="M43.4395 6.51562V6.87762L43.7562 7.05861V6.69662L43.4395 6.51562Z" fill="#999999"/>
<path d="M43.7562 6.28955L43.4395 6.15381V6.5158L43.7562 6.69679V6.28955Z" fill="#999999"/>
<path d="M44.5254 7.10418L44.8421 7.28517V6.92318L44.5254 6.74219V7.10418Z" fill="#999999"/>
<path d="M44.1172 6.87762L44.5244 7.10386V6.74187L44.1172 6.51562V6.87762Z" fill="#999999"/>
<path d="M43.7559 6.28955V6.69679L44.1179 6.87779V6.5158L43.7559 6.28955Z" fill="#999999"/>
<path d="M44.1172 6.51564L44.5244 6.74188V6.33464L44.1172 6.1084V6.51564Z" fill="#999999"/>
<path d="M44.1179 6.10857L43.7559 5.88232V6.28956L44.1179 6.51581V6.10857Z" fill="#999999"/>
<path d="M44.5254 6.7422L44.8421 6.9232V6.47071L44.5254 6.33496V6.7422Z" fill="#999999"/>
<path d="M43.7562 5.88233L43.4395 5.74658V6.15382L43.7562 6.28957V5.88233Z" fill="#999999"/>
<path d="M44.5254 6.33497L44.8421 6.47072V6.06348L44.5254 5.92773V6.33497Z" fill="#999999"/>
<path d="M43.7562 5.4751L43.4395 5.33936V5.7466L43.7562 5.88234V5.4751Z" fill="#999999"/>
<path d="M44.1179 5.70134L43.7559 5.4751V5.88234L44.1179 6.10858V5.70134Z" fill="#999999"/>
<path d="M44.1172 6.10841L44.5244 6.33466V5.92742L44.1172 5.70117V6.10841Z" fill="#999999"/>
<path d="M44.5254 5.52051V5.92775L44.8421 6.06349V5.7015L44.5254 5.52051Z" fill="#999999"/>
<path d="M44.1179 5.70136V5.29412L43.7559 5.06787V5.47511L44.1179 5.70136Z" fill="#999999"/>
<path d="M43.7562 5.06771L43.4395 4.88672V5.33921L43.7562 5.47495V5.06771Z" fill="#999999"/>
<path d="M44.5244 5.92743V5.52019L44.1172 5.29395V5.70119L44.5244 5.92743Z" fill="#999999"/>
<path d="M45.1133 6.33464V6.69663L45.3848 6.51564V6.1084L45.1133 6.33464Z" fill="#666666"/>
<path d="M45.1133 7.0586V7.37534L45.3848 7.01335V6.92285L45.1133 7.0586Z" fill="#666666"/>
<path d="M45.3848 5.7466V5.33936L45.1133 5.52035V5.92759L45.3848 5.7466Z" fill="#666666"/>
<path d="M45.3848 5.74658L45.1133 5.92758V6.33482L45.3848 6.10857V5.74658Z" fill="#666666"/>
<path d="M45.1133 7.05861L45.3848 6.92287V6.51562L45.1133 6.69662V7.05861Z" fill="#666666"/>
<path d="M45.1133 6.33496L44.8418 6.47071V6.87795L45.1133 6.69695V6.33496Z" fill="#666666"/>
<path d="M45.1133 5.92773L44.8418 6.06348V6.47072L45.1133 6.33497V5.92773Z" fill="#666666"/>
<path d="M45.1133 5.52051L44.8418 5.7015V6.06349L45.1133 5.92775V5.52051Z" fill="#666666"/>
<path d="M45.1133 6.69678L44.8418 6.87777V7.23976L45.1133 7.05877V6.69678Z" fill="#666666"/>
<path d="M44.8418 7.23959V7.69208L45.1133 7.37534V7.05859L44.8418 7.23959Z" fill="#666666"/>
<path d="M46.1992 5.24871V4.88672L45.9277 5.02247V5.42971L46.1992 5.24871Z" fill="#666666"/>
<path d="M45.9277 5.74676L46.1992 5.61101V5.24902L45.9277 5.43002V5.74676Z" fill="#666666"/>
<path d="M45.9277 6.15381V6.38006L46.1992 6.10856V6.01807L45.9277 6.15381Z" fill="#666666"/>
<path d="M45.9277 6.15383L46.1992 6.01808V5.65609V5.61084L45.9277 5.74659V6.15383Z" fill="#666666"/>
<path d="M45.6562 5.92758V6.33482L45.9277 6.15382V5.74658L45.6562 5.92758Z" fill="#666666"/>
<path d="M45.9277 5.74643V5.42969L45.6562 5.61068V5.92743L45.9277 5.74643Z" fill="#666666"/>
<path d="M45.9277 5.4297V5.02246L45.6562 5.20346V5.6107L45.9277 5.4297Z" fill="#666666"/>
<path d="M45.6562 6.3348V6.69679L45.9277 6.38005V6.15381L45.6562 6.3348Z" fill="#666666"/>
<path d="M45.3848 6.51596V6.9232L45.611 6.78745L45.6563 6.69695V6.33496L45.3848 6.51596Z" fill="#666666"/>
<path d="M45.6563 5.92758V5.61084L45.3848 5.74659V6.10858L45.6563 5.92758Z" fill="#666666"/>
<path d="M45.6563 5.61085V5.20361L45.3848 5.33936V5.7466L45.6563 5.61085Z" fill="#666666"/>
<path d="M45.3848 7.01335L45.611 6.78711L45.3848 6.92286V7.01335Z" fill="#666666"/>
<path d="M45.3848 6.10873V6.51597L45.6563 6.33497V5.92773L45.3848 6.10873Z" fill="#666666"/>
</g>
<defs>
<linearGradient id="paint0_linear_3161_159" x1="0" y1="64.8241" x2="79.81" y2="64.8241" gradientUnits="userSpaceOnUse">
<stop stop-color="#C2DD00"/>
<stop offset="0.1" stop-color="#C7E000"/>
<stop offset="0.3" stop-color="#CAE200"/>
<stop offset="0.55" stop-color="#BAD200"/>
<stop offset="0.74" stop-color="#B4CC00"/>
<stop offset="1" stop-color="#8AA500"/>
</linearGradient>
<clipPath id="clip0_3161_159">
<rect width="80" height="80.181" fill="white"/>
</clipPath>
</defs>
</svg>
