<svg width="80" height="80" viewBox="0 0 80 80" fill="none" xmlns="http://www.w3.org/2000/svg">
<g clip-path="url(#clip0_3161_350)">
<path d="M66.269 41.7333C48.7563 31.6039 30.6584 31.6039 13.1458 41.7333C4.36691 46.7755 0 51.9078 0 57.085C0 62.2623 4.36691 67.3495 13.1458 72.4367C30.6584 82.5662 48.7563 82.5662 66.269 72.4367C75.0478 67.3945 79.4147 62.2623 79.4147 57.085C79.4147 51.9078 75.0478 46.7755 66.269 41.7333Z" fill="#FF9B00"/>
<path d="M66.269 64.7383C48.7563 74.8678 30.6584 74.8678 13.1458 64.7383C4.36691 59.6961 0 54.5639 0 49.4316V57.085C0 62.2172 4.36691 67.3495 13.1458 72.4367C30.6584 82.5661 48.7563 82.5661 66.269 72.4367C75.0478 67.3945 79.4147 62.2623 79.4147 57.085V49.4316C79.4147 54.5639 75.0478 59.6961 66.269 64.7383Z" fill="url(#paint0_linear_3161_350)"/>
<path d="M66.269 34.08C48.7563 23.9506 30.6584 23.9506 13.1458 34.08C4.36691 39.1222 0 44.2544 0 49.4317C0 54.609 4.36691 59.6962 13.1458 64.7834C30.6584 74.9128 48.7563 74.9128 66.269 64.7834C75.0478 59.7412 79.4147 54.5639 79.4147 49.4317C79.4147 44.2995 75.0478 39.1222 66.269 34.08Z" fill="#FFDB32"/>
<mask id="mask0_3161_350" style="mask-type:luminance" maskUnits="userSpaceOnUse" x="5" y="26" width="75" height="47">
<path d="M67.1695 34.08C50.8273 23.9506 33.9449 23.9506 17.6028 34.08C9.40919 39.1222 5.35742 44.2544 5.35742 49.4317C5.35742 54.609 9.40919 59.6962 17.6028 64.7834C33.9449 74.9128 50.8273 74.9128 67.1695 64.7834C75.3631 59.7412 79.4148 54.5639 79.4148 49.4317C79.4148 44.2995 75.3631 39.1222 67.1695 34.08Z" fill="white"/>
</mask>
<g mask="url(#mask0_3161_350)">
<path opacity="0.03" d="M72.2118 60.1465C84.8426 60.1465 95.0818 49.1816 95.0818 35.6558C95.0818 22.1299 84.8426 11.165 72.2118 11.165C59.581 11.165 49.3418 22.1299 49.3418 35.6558C49.3418 49.1816 59.581 60.1465 72.2118 60.1465Z" fill="#FFFDF8"/>
<path opacity="0.06" d="M71.3114 60.1465C83.9422 60.1465 94.1814 49.1816 94.1814 35.6558C94.1814 22.1299 83.9422 11.165 71.3114 11.165C58.6807 11.165 48.4414 22.1299 48.4414 35.6558C48.4414 49.1816 58.6807 60.1465 71.3114 60.1465Z" fill="#FFFBF1"/>
<path opacity="0.09" d="M70.3661 60.1465C82.9969 60.1465 93.2361 49.1816 93.2361 35.6558C93.2361 22.1299 82.9969 11.165 70.3661 11.165C57.7353 11.165 47.4961 22.1299 47.4961 35.6558C47.4961 49.1816 57.7353 60.1465 70.3661 60.1465Z" fill="#FFFAEA"/>
<path opacity="0.12" d="M69.4657 60.1465C82.0965 60.1465 92.3357 49.1816 92.3357 35.6558C92.3357 22.1299 82.0965 11.165 69.4657 11.165C56.835 11.165 46.5957 22.1299 46.5957 35.6558C46.5957 49.1816 56.835 60.1465 69.4657 60.1465Z" fill="#FFF8E3"/>
<path opacity="0.15" d="M68.4755 60.1465C81.1062 60.1465 91.3455 49.1816 91.3455 35.6558C91.3455 22.1299 81.1062 11.165 68.4755 11.165C55.8447 11.165 45.6055 22.1299 45.6055 35.6558C45.6055 49.1816 55.8447 60.1465 68.4755 60.1465Z" fill="#FFF6DC"/>
<path opacity="0.18" d="M67.5751 60.1465C80.2058 60.1465 90.4451 49.1816 90.4451 35.6558C90.4451 22.1299 80.2058 11.165 67.5751 11.165C54.9443 11.165 44.7051 22.1299 44.7051 35.6558C44.7051 49.1816 54.9443 60.1465 67.5751 60.1465Z" fill="#FFF4D5"/>
<path opacity="0.21" d="M66.6298 60.1465C79.2605 60.1465 89.4998 49.1816 89.4998 35.6558C89.4998 22.1299 79.2605 11.165 66.6298 11.165C53.999 11.165 43.7598 22.1299 43.7598 35.6558C43.7598 49.1816 53.999 60.1465 66.6298 60.1465Z" fill="#FFF3CE"/>
<path opacity="0.24" d="M65.7294 60.1465C78.3601 60.1465 88.5994 49.1816 88.5994 35.6558C88.5994 22.1299 78.3601 11.165 65.7294 11.165C53.0986 11.165 42.8594 22.1299 42.8594 35.6558C42.8594 49.1816 53.0986 60.1465 65.7294 60.1465Z" fill="#FFF1C7"/>
<path opacity="0.27" d="M64.7841 60.1465C77.4148 60.1465 87.6541 49.1816 87.6541 35.6558C87.6541 22.1299 77.4148 11.165 64.7841 11.165C52.1533 11.165 41.9141 22.1299 41.9141 35.6558C41.9141 49.1816 52.1533 60.1465 64.7841 60.1465Z" fill="#FFEFC0"/>
<path opacity="0.3" d="M63.8388 60.1465C76.4695 60.1465 86.7088 49.1816 86.7088 35.6558C86.7088 22.1299 76.4695 11.165 63.8388 11.165C51.208 11.165 40.9688 22.1299 40.9688 35.6558C40.9688 49.1816 51.208 60.1465 63.8388 60.1465Z" fill="#FFEDB9"/>
<path opacity="0.33" d="M62.8934 60.1465C75.5242 60.1465 85.7634 49.1816 85.7634 35.6558C85.7634 22.1299 75.5242 11.165 62.8934 11.165C50.2627 11.165 40.0234 22.1299 40.0234 35.6558C40.0234 49.1816 50.2627 60.1465 62.8934 60.1465Z" fill="#FFECB2"/>
<path opacity="0.36" d="M61.993 60.1465C74.6238 60.1465 84.8631 49.1816 84.8631 35.6558C84.8631 22.1299 74.6238 11.165 61.993 11.165C49.3623 11.165 39.123 22.1299 39.123 35.6558C39.123 49.1816 49.3623 60.1465 61.993 60.1465Z" fill="#FFEAAB"/>
<path opacity="0.39" d="M61.0477 60.1465C73.6785 60.1465 83.9177 49.1816 83.9177 35.6558C83.9177 22.1299 73.6785 11.165 61.0477 11.165C48.417 11.165 38.1777 22.1299 38.1777 35.6558C38.1777 49.1816 48.417 60.1465 61.0477 60.1465Z" fill="#FFE8A4"/>
<path opacity="0.42" d="M60.1024 60.1465C72.7332 60.1465 82.9724 49.1816 82.9724 35.6558C82.9724 22.1299 72.7332 11.165 60.1024 11.165C47.4717 11.165 37.2324 22.1299 37.2324 35.6558C37.2324 49.1816 47.4717 60.1465 60.1024 60.1465Z" fill="#FFE69D"/>
<path opacity="0.45" d="M59.1571 60.1465C71.7879 60.1465 82.0271 49.1816 82.0271 35.6558C82.0271 22.1299 71.7879 11.165 59.1571 11.165C46.5264 11.165 36.2871 22.1299 36.2871 35.6558C36.2871 49.1816 46.5264 60.1465 59.1571 60.1465Z" fill="#FFE596"/>
<path opacity="0.48" d="M58.2567 60.1465C70.8875 60.1465 81.1267 49.1816 81.1267 35.6558C81.1267 22.1299 70.8875 11.165 58.2567 11.165C45.626 11.165 35.3867 22.1299 35.3867 35.6558C35.3867 49.1816 45.626 60.1465 58.2567 60.1465Z" fill="#FFE38F"/>
<path opacity="0.52" d="M57.3114 60.1465C69.9422 60.1465 80.1814 49.1816 80.1814 35.6558C80.1814 22.1299 69.9422 11.165 57.3114 11.165C44.6807 11.165 34.4414 22.1299 34.4414 35.6558C34.4414 49.1816 44.6807 60.1465 57.3114 60.1465Z" fill="#FFE187"/>
<path opacity="0.55" d="M56.411 60.1465C69.0418 60.1465 79.281 49.1816 79.281 35.6558C79.281 22.1299 69.0418 11.165 56.411 11.165C43.7803 11.165 33.541 22.1299 33.541 35.6558C33.541 49.1816 43.7803 60.1465 56.411 60.1465Z" fill="#FFDF80"/>
<path opacity="0.58" d="M55.4208 60.1465C68.0515 60.1465 78.2908 49.1816 78.2908 35.6558C78.2908 22.1299 68.0515 11.165 55.4208 11.165C42.79 11.165 32.5508 22.1299 32.5508 35.6558C32.5508 49.1816 42.79 60.1465 55.4208 60.1465Z" fill="#FFDE79"/>
<path opacity="0.61" d="M54.5204 60.1465C67.1511 60.1465 77.3904 49.1816 77.3904 35.6558C77.3904 22.1299 67.1511 11.165 54.5204 11.165C41.8896 11.165 31.6504 22.1299 31.6504 35.6558C31.6504 49.1816 41.8896 60.1465 54.5204 60.1465Z" fill="#FFDC72"/>
<path opacity="0.64" d="M53.5731 60.1465C66.2039 60.1465 76.4431 49.1816 76.4431 35.6558C76.4431 22.1299 66.2039 11.165 53.5731 11.165C40.9424 11.165 30.7031 22.1299 30.7031 35.6558C30.7031 49.1816 40.9424 60.1465 53.5731 60.1465Z" fill="#FFDA6B"/>
<path opacity="0.67" d="M52.6727 60.1465C65.3035 60.1465 75.5427 49.1816 75.5427 35.6558C75.5427 22.1299 65.3035 11.165 52.6727 11.165C40.042 11.165 29.8027 22.1299 29.8027 35.6558C29.8027 49.1816 40.042 60.1465 52.6727 60.1465Z" fill="#FFD864"/>
<path opacity="0.7" d="M51.6825 60.1465C64.3133 60.1465 74.5525 49.1816 74.5525 35.6558C74.5525 22.1299 64.3133 11.165 51.6825 11.165C39.0518 11.165 28.8125 22.1299 28.8125 35.6558C28.8125 49.1816 39.0518 60.1465 51.6825 60.1465Z" fill="#FFD75D"/>
<path opacity="0.73" d="M50.7821 60.1465C63.4129 60.1465 73.6521 49.1816 73.6521 35.6558C73.6521 22.1299 63.4129 11.165 50.7821 11.165C38.1514 11.165 27.9121 22.1299 27.9121 35.6558C27.9121 49.1816 38.1514 60.1465 50.7821 60.1465Z" fill="#FFD556"/>
<path opacity="0.76" d="M49.8368 60.1465C62.4676 60.1465 72.7068 49.1816 72.7068 35.6558C72.7068 22.1299 62.4676 11.165 49.8368 11.165C37.206 11.165 26.9668 22.1299 26.9668 35.6558C26.9668 49.1816 37.206 60.1465 49.8368 60.1465Z" fill="#FFD34F"/>
<path opacity="0.79" d="M48.9364 60.1465C61.5672 60.1465 71.8064 49.1816 71.8064 35.6558C71.8064 22.1299 61.5672 11.165 48.9364 11.165C36.3057 11.165 26.0664 22.1299 26.0664 35.6558C26.0664 49.1816 36.3057 60.1465 48.9364 60.1465Z" fill="#FFD148"/>
<path opacity="0.82" d="M47.9462 60.1465C60.5769 60.1465 70.8162 49.1816 70.8162 35.6558C70.8162 22.1299 60.5769 11.165 47.9462 11.165C35.3154 11.165 25.0762 22.1299 25.0762 35.6558C25.0762 49.1816 35.3154 60.1465 47.9462 60.1465Z" fill="#FFD041"/>
<path opacity="0.85" d="M47.0458 60.1465C59.6765 60.1465 69.9158 49.1816 69.9158 35.6558C69.9158 22.1299 59.6765 11.165 47.0458 11.165C34.415 11.165 24.1758 22.1299 24.1758 35.6558C24.1758 49.1816 34.415 60.1465 47.0458 60.1465Z" fill="#FFCE3A"/>
<path opacity="0.88" d="M46.1005 60.1465C58.7312 60.1465 68.9705 49.1816 68.9705 35.6558C68.9705 22.1299 58.7312 11.165 46.1005 11.165C33.4697 11.165 23.2305 22.1299 23.2305 35.6558C23.2305 49.1816 33.4697 60.1465 46.1005 60.1465Z" fill="#FFCC33"/>
<path opacity="0.91" d="M45.2001 60.1465C57.8308 60.1465 68.0701 49.1816 68.0701 35.6558C68.0701 22.1299 57.8308 11.165 45.2001 11.165C32.5693 11.165 22.3301 22.1299 22.3301 35.6558C22.3301 49.1816 32.5693 60.1465 45.2001 60.1465Z" fill="#FFCA2C"/>
<path opacity="0.94" d="M44.2548 60.1465C56.8855 60.1465 67.1248 49.1816 67.1248 35.6558C67.1248 22.1299 56.8855 11.165 44.2548 11.165C31.624 11.165 21.3848 22.1299 21.3848 35.6558C21.3848 49.1816 31.624 60.1465 44.2548 60.1465Z" fill="#FFC925"/>
<path opacity="0.97" d="M43.3095 60.1465C55.9402 60.1465 66.1795 49.1816 66.1795 35.6558C66.1795 22.1299 55.9402 11.165 43.3095 11.165C30.6787 11.165 20.4395 22.1299 20.4395 35.6558C20.4395 49.1816 30.6787 60.1465 43.3095 60.1465Z" fill="#FFC71E"/>
<path d="M42.3641 60.1465C54.9949 60.1465 65.2341 49.1816 65.2341 35.6558C65.2341 22.1299 54.9949 11.165 42.3641 11.165C29.7334 11.165 19.4941 22.1299 19.4941 35.6558C19.4941 49.1816 29.7334 60.1465 42.3641 60.1465Z" fill="#FFC517"/>
</g>
<path d="M62.4868 42.4988C62.4868 50.0171 59.7856 55.1943 55.3737 57.4453L51.3219 59.8314L50.6466 58.6608L19.1778 6.30294L18.2324 4.72725L22.7344 2.11611C26.9212 -0.900215 32.9989 -0.810175 39.7518 3.10654C52.3123 10.3547 62.4868 28.0024 62.4868 42.4988Z" fill="#587380"/>
<path d="M57.2649 45.6052C57.2649 60.1015 47.0905 65.9991 34.53 58.7509C21.9245 51.5027 11.75 33.855 11.75 19.3587C11.75 4.86234 21.9245 -1.03524 34.4849 6.21293C47.0454 13.4611 57.2649 31.1088 57.2649 45.6052Z" fill="#37474F"/>
<path d="M53.2573 43.3094C53.2573 55.2846 44.8386 60.1468 34.4841 54.1591C24.1295 48.1715 15.7559 33.6302 15.7559 21.6549C15.7559 9.67967 24.1295 4.81754 34.4841 10.8052C44.8836 16.7928 53.2573 31.3792 53.2573 43.3094Z" fill="#263238"/>
<path d="M52.4923 42.904C52.4923 54.384 44.4338 59.0211 34.4844 53.2585C24.5801 47.541 16.4766 33.5849 16.4766 22.1049C16.4766 13.236 21.2487 8.46394 27.9566 9.36434C28.3167 9.40936 28.6769 9.45438 29.0821 9.54442C30.7928 9.90458 32.5936 10.6249 34.4394 11.7054C36.2852 12.7858 38.131 14.1814 39.7968 15.7571C40.2019 16.1173 40.5621 16.4775 40.9223 16.8826C47.7202 23.7256 52.4923 34.0351 52.4923 42.904Z" fill="#37474F"/>
<path d="M41.0126 16.8825L34.4848 32.5044L28.002 9.36426C28.3621 9.40928 28.7223 9.4543 29.1274 9.54434C30.8382 9.90449 32.639 10.6248 34.4848 11.7053C36.3306 12.7858 38.1764 14.1814 39.8421 15.7571C40.2473 16.1172 40.6075 16.4774 41.0126 16.8825Z" fill="#FFD54F"/>
<path d="M35.2061 14.7664C35.2061 15.2166 34.8909 15.3967 34.5308 15.1716C34.1706 14.9465 33.8555 14.4063 33.8555 14.0011C33.8555 13.5509 34.1706 13.3708 34.5308 13.5959C34.8909 13.821 35.2061 14.3162 35.2061 14.7664Z" fill="#DADFFF"/>
<path d="M34.4844 23.5005C33.9892 23.2304 33.584 22.4651 33.584 21.7898V17.873C33.584 17.1977 33.9892 16.9276 34.4844 17.1977C34.9796 17.4679 35.3848 18.2332 35.3848 18.9085V22.8252C35.3848 23.4555 34.9796 23.7706 34.4844 23.5005Z" fill="#DADFFF"/>
<path d="M27.2368 9.31904L34.4849 32.5042L18.0527 14.5863C18.1878 14.2262 18.3679 13.9561 18.548 13.6409C19.3583 12.2903 20.4388 11.2099 21.7894 10.4445C23.0949 9.6792 24.5806 9.31904 26.1563 9.229C26.5164 9.27402 26.8766 9.27402 27.2368 9.31904Z" fill="#F80202"/>
<path d="M23.9055 14.1348C24.1639 13.9856 24.1517 13.4806 23.8782 13.0069C23.6047 12.5332 23.1735 12.2702 22.9151 12.4193C22.6567 12.5685 22.669 13.0735 22.9425 13.5472C23.216 14.0209 23.6472 14.2839 23.9055 14.1348Z" fill="#DADFFF"/>
<path d="M28.9934 22.9601C28.6332 23.1401 28.093 22.825 27.7328 22.2397L25.1217 17.7378C24.7615 17.1525 24.7615 16.4772 25.1217 16.2971C25.4818 16.1171 26.0221 16.4322 26.3822 17.0175L28.9934 21.5194C29.3535 22.1047 29.3535 22.735 28.9934 22.9601Z" fill="#DADFFF"/>
<path d="M17.737 15.3066L34.5294 32.5042L17.737 30.2982C17.602 29.803 17.4669 29.2627 17.3318 28.7675C16.7916 26.5165 16.5215 24.2656 16.5215 22.1046C16.5215 19.9437 16.7916 18.0078 17.3318 16.3871C17.4669 15.9819 17.5569 15.6668 17.737 15.3066Z" fill="#FF8F00"/>
<path d="M18.8179 22.6448C19.178 22.8699 19.4932 23.4101 19.4932 23.8153C19.4932 24.2655 19.178 24.4455 18.8179 24.2204C18.4577 23.9954 18.1426 23.4551 18.1426 23.0499C18.1426 22.5997 18.4127 22.4197 18.8179 22.6448Z" fill="#DADFFF"/>
<path d="M26.6954 28.0022C26.6954 28.5875 26.3353 28.8126 25.9301 28.5875L22.0134 26.3365C21.6082 26.1114 21.248 25.4361 21.248 24.8508C21.248 24.2656 21.6082 24.0405 22.0134 24.2656L25.9301 26.5165C26.3353 26.7867 26.6954 27.4169 26.6954 28.0022Z" fill="#DADFFF"/>
<path d="M18.0527 31.3789L34.4849 32.5044L27.2368 47.3159C26.8766 46.9107 26.5164 46.5055 26.1563 46.1003C24.5806 44.2545 23.0949 42.1386 21.7894 39.8426C20.4838 37.5466 19.4033 35.2056 18.548 32.9096C18.3679 32.4144 18.1878 31.9191 18.0527 31.3789Z" fill="#039BE5"/>
<path d="M23.9016 39.7534C24.16 39.6042 24.1478 39.0993 23.8743 38.6256C23.6008 38.1519 23.1696 37.8888 22.9112 38.038C22.6528 38.1872 22.6651 38.6921 22.9386 39.1658C23.2121 39.6395 23.6433 39.9026 23.9016 39.7534Z" fill="#DADFFF"/>
<path d="M28.9934 35.7006C29.3535 36.2858 29.3535 36.9611 28.9934 37.1412L26.3822 38.6268C26.0221 38.8069 25.4818 38.4918 25.1217 37.9065C24.7615 37.3213 24.7615 36.646 25.1217 36.4659L27.7328 34.9802C28.093 34.7551 28.6332 35.0703 28.9934 35.7006Z" fill="#DADFFF"/>
<path d="M28.002 48.1262L34.4848 32.5044L40.9676 55.6445C40.6075 55.5995 40.2473 55.5545 39.8421 55.4644C38.1314 55.1043 36.3306 54.384 34.4848 53.3035C32.639 52.223 30.7932 50.8274 29.1274 49.2517C28.7673 48.8465 28.3621 48.4864 28.002 48.1262Z" fill="#0002B8"/>
<path d="M33.8086 50.1969C33.8086 49.7467 34.1237 49.5666 34.4839 49.7917C34.844 50.0168 35.1592 50.5571 35.1592 50.9622C35.1592 51.4124 34.844 51.5925 34.4839 51.3674C34.1237 51.1873 33.8086 50.6471 33.8086 50.1969Z" fill="#DADFFF"/>
<path d="M34.4844 41.5083C34.9796 41.7784 35.3848 42.5437 35.3848 43.219V47.1358C35.3848 47.8111 34.9796 48.0812 34.4844 47.8111C33.9892 47.5409 33.584 46.7756 33.584 46.1003V42.1836C33.629 41.5083 33.9892 41.2382 34.4844 41.5083Z" fill="#DADFFF"/>
<path d="M41.7776 55.6895L34.4844 32.5044L50.9166 50.3772C50.7815 50.7374 50.6014 51.0075 50.4213 51.3226C49.611 52.6732 48.5305 53.7537 47.1799 54.519C45.8744 55.2844 44.3887 55.6445 42.813 55.7346C42.4979 55.7346 42.1377 55.7346 41.7776 55.6895Z" fill="#59D45A"/>
<path d="M46.1067 52.5747C46.3651 52.4255 46.3528 51.9206 46.0793 51.4469C45.8058 50.9732 45.3747 50.7101 45.1163 50.8593C44.8579 51.0085 44.8702 51.5134 45.1437 51.9871C45.4172 52.4608 45.8483 52.7239 46.1067 52.5747Z" fill="#DADFFF"/>
<path d="M40.0221 42.0486C40.3822 41.8685 40.9225 42.1837 41.2826 42.7689L43.8938 47.2709C44.2539 47.8561 44.2539 48.5314 43.8938 48.7115C43.5336 48.8916 42.9934 48.5765 42.6332 47.9912L40.0221 43.4892C39.6619 42.904 39.6619 42.2287 40.0221 42.0486Z" fill="#DADFFF"/>
<path d="M51.2767 49.6569L34.4844 32.5044L51.2767 34.7104C51.4118 35.2056 51.5468 35.7458 51.6819 36.241C52.2221 38.492 52.4923 40.743 52.4923 42.9039C52.4923 45.0649 52.2221 47.0007 51.6819 48.6214C51.5468 48.9816 51.4118 49.3418 51.2767 49.6569Z" fill="#2E7D32"/>
<path d="M50.1968 42.3635C49.8366 42.1384 49.5215 41.5982 49.5215 41.193C49.5215 40.7428 49.8366 40.5627 50.1968 40.7878C50.5569 41.0129 50.8721 41.5532 50.8721 41.9583C50.8721 42.4085 50.5569 42.5886 50.1968 42.3635Z" fill="#DADFFF"/>
<path d="M42.3184 37.0066C42.3184 36.4213 42.6785 36.1962 43.0837 36.4213L47.0004 38.6723C47.4056 38.8974 47.7657 39.5727 47.7657 40.158C47.7657 40.7432 47.4056 40.9683 47.0004 40.7432L43.0837 38.4922C42.6335 38.2221 42.3184 37.5468 42.3184 37.0066Z" fill="#DADFFF"/>
<path d="M50.9615 33.5844L34.5293 32.4589L41.7775 17.6475C42.1376 18.0526 42.4978 18.4578 42.8579 18.863C44.4336 20.7088 45.9193 22.8247 47.2249 25.1207C48.5304 27.4167 49.6109 29.7578 50.4663 32.0538C50.6463 32.594 50.7814 33.0892 50.9615 33.5844Z" fill="#EC407A"/>
<path d="M46.1087 26.9614C46.3671 26.8122 46.3548 26.3073 46.0813 25.8336C45.8078 25.3599 45.3766 25.0968 45.1182 25.246C44.8599 25.3952 44.8721 25.9001 45.1456 26.3738C45.4191 26.8475 45.8503 27.1106 46.1087 26.9614Z" fill="#DADFFF"/>
<path d="M40.0221 29.3074C39.6619 28.7221 39.6619 28.0469 40.0221 27.8668L42.6332 26.3811C42.9934 26.201 43.5336 26.5162 43.8938 27.1014C44.2539 27.6867 44.2539 28.362 43.8938 28.5421L41.2826 30.0277C40.9225 30.2528 40.3822 29.8927 40.0221 29.3074Z" fill="#DADFFF"/>
<path d="M39.0765 35.1155C39.0765 38.0418 37.0506 39.2123 34.4845 37.7717C31.9634 36.3311 29.9375 32.7745 29.9375 29.8482C29.9375 26.922 31.9634 25.7514 34.4845 27.1921C37.0056 28.6777 39.0765 32.2343 39.0765 35.1155Z" fill="#587380"/>
<path d="M35.5201 33.0895C35.5201 33.7197 35.0699 33.9899 34.4847 33.6747C33.8994 33.3596 33.4492 32.5492 33.4492 31.919C33.4492 31.2887 33.8994 31.0186 34.4847 31.3337C35.0699 31.6488 35.5201 32.4142 35.5201 33.0895Z" fill="#FFD54F"/>
<path d="M35.6102 9.27427C35.6102 9.99459 35.1149 10.2647 34.5297 9.90455C33.9444 9.54439 33.4492 8.68901 33.4492 8.01372C33.4492 7.2934 33.9444 7.02329 34.5297 7.38344C35.1149 7.7436 35.6102 8.59898 35.6102 9.27427Z" fill="#587380"/>
<path d="M35.2041 9.04916C35.2041 9.49936 34.889 9.67943 34.5288 9.45434C34.1687 9.22924 33.8535 8.689 33.8535 8.28382C33.8535 7.83363 34.1687 7.65355 34.5288 7.87865C34.889 8.10374 35.2041 8.64398 35.2041 9.04916Z" fill="#FFD54F"/>
<path d="M20.6581 8.53588C21.0887 8.28725 21.0952 7.49221 20.6725 6.76013C20.2498 6.02804 19.558 5.63613 19.1274 5.88476C18.6968 6.1334 18.6903 6.92843 19.113 7.66052C19.5357 8.39261 20.2274 8.78452 20.6581 8.53588Z" fill="#587380"/>
<path d="M20.388 8.06885C20.6463 7.91967 20.6341 7.41472 20.3606 6.94101C20.0871 6.46731 19.6559 6.20423 19.3975 6.35342C19.1391 6.5026 19.1514 7.00755 19.4249 7.48125C19.6984 7.95495 20.1296 8.21803 20.388 8.06885Z" fill="#FFD54F"/>
<path d="M13.8656 19.3136C14.4509 19.6738 14.9461 20.5291 14.9461 21.2044C14.9461 21.9248 14.4509 22.1949 13.8656 21.8347C13.2804 21.4746 12.7852 20.6192 12.7852 19.9439C12.7852 19.2236 13.2804 18.9535 13.8656 19.3136Z" fill="#587380"/>
<path d="M13.8647 19.7637C14.2249 19.9888 14.54 20.529 14.54 20.9342C14.54 21.3394 14.2249 21.5645 13.8647 21.3394C13.5046 21.1143 13.1895 20.5741 13.1895 20.1689C13.1895 19.7187 13.5046 19.5836 13.8647 19.7637Z" fill="#FFD54F"/>
<path d="M20.6698 42.2527C21.1004 42.004 21.1069 41.209 20.6842 40.4769C20.2615 39.7448 19.5698 39.3529 19.1391 39.6016C18.7085 39.8502 18.702 40.6452 19.1247 41.3773C19.5474 42.1094 20.2391 42.5013 20.6698 42.2527Z" fill="#587380"/>
<path d="M20.3997 41.7837C20.6581 41.6345 20.6458 41.1296 20.3723 40.6559C20.0988 40.1822 19.6676 39.9191 19.4093 40.0683C19.1509 40.2174 19.1631 40.7224 19.4366 41.1961C19.7101 41.6698 20.1413 41.9329 20.3997 41.7837Z" fill="#FFD54F"/>
<path d="M33.4043 55.6895C33.4043 54.9692 33.8995 54.6991 34.4848 55.0592C35.07 55.4194 35.5652 56.2748 35.5652 56.9501C35.5652 57.6704 35.07 57.9405 34.4848 57.5803C33.8995 57.2202 33.4043 56.3648 33.4043 55.6895Z" fill="#587380"/>
<path d="M33.8086 55.9147C33.8086 55.4645 34.1237 55.2844 34.4839 55.5095C34.844 55.7346 35.1592 56.2748 35.1592 56.68C35.1592 57.1302 34.844 57.3103 34.4839 57.0852C34.1237 56.9051 33.8086 56.3649 33.8086 55.9147Z" fill="#FFD54F"/>
<path d="M49.8378 59.092C50.2684 58.8434 50.2748 58.0484 49.8522 57.3163C49.4295 56.5842 48.7377 56.1923 48.3071 56.4409C47.8764 56.6896 47.87 57.4846 48.2927 58.2167C48.7154 58.9488 49.4071 59.3407 49.8378 59.092Z" fill="#587380"/>
<path d="M49.5677 58.624C49.826 58.4748 49.8138 57.9699 49.5403 57.4962C49.2668 57.0225 48.8356 56.7594 48.5772 56.9086C48.3188 57.0578 48.3311 57.5627 48.6046 58.0364C48.8781 58.5101 49.3093 58.7732 49.5677 58.624Z" fill="#FFD54F"/>
<path d="M55.1488 45.6502C54.5636 45.29 54.0684 44.4346 54.0684 43.7593C54.0684 43.039 54.5636 42.7689 55.1488 43.129C55.7341 43.4892 56.2293 44.3446 56.2293 45.0199C56.2293 45.7402 55.7341 46.0103 55.1488 45.6502Z" fill="#587380"/>
<path d="M55.148 45.1999C54.7878 44.9748 54.4727 44.4346 54.4727 44.0294C54.4727 43.5792 54.7878 43.3992 55.148 43.6243C55.5081 43.8493 55.8232 44.3896 55.8232 44.7948C55.8232 45.245 55.5081 45.425 55.148 45.1999Z" fill="#FFD54F"/>
<path d="M49.8475 25.4187C50.2782 25.1701 50.2846 24.375 49.8619 23.6429C49.4392 22.9109 48.7475 22.5189 48.3169 22.7676C47.8862 23.0162 47.8798 23.8112 48.3024 24.5433C48.7251 25.2754 49.4169 25.6673 49.8475 25.4187Z" fill="#587380"/>
<path d="M49.5774 24.9512C49.8358 24.802 49.8235 24.297 49.55 23.8233C49.2765 23.3496 48.8454 23.0866 48.587 23.2357C48.3286 23.3849 48.3409 23.8899 48.6144 24.3636C48.8879 24.8373 49.319 25.1004 49.5774 24.9512Z" fill="#FFD54F"/>
<path d="M34.8449 9.58906L34.3047 9.27393L34.7099 13.2807L35.2051 9.76914L34.8449 9.58906Z" fill="#DADFFF"/>
<path d="M34.3047 9.27393L34.8449 9.58906L34.3047 9.27393Z" fill="#DADFFF"/>
<path d="M37.3671 10.2194L34.7109 14.0911L36.0615 13.3258L38.7177 9.4541L37.3671 10.2194Z" fill="#C70000"/>
<path d="M37.3669 10.2193L38.7175 9.45392L33.4052 6.39258L32.0996 7.15791L37.3669 10.2193Z" fill="#FF5454"/>
<path d="M37.3669 10.2195L32.0996 7.1582L34.7107 14.0912L37.3669 10.2195ZM34.3056 9.27413L34.8458 9.58927L35.1609 9.76935L34.7107 13.2359L34.3056 9.27413Z" fill="#F80202"/>
</g>
<defs>
<linearGradient id="paint0_linear_3161_350" x1="0" y1="64.7326" x2="79.4147" y2="64.7326" gradientUnits="userSpaceOnUse">
<stop stop-color="#FFED44"/>
<stop offset="0.07" stop-color="#FFF047"/>
<stop offset="0.3" stop-color="#FFF24A"/>
<stop offset="0.55" stop-color="#FFE23A"/>
<stop offset="0.74" stop-color="#FFDC34"/>
<stop offset="1" stop-color="#F9B519"/>
</linearGradient>
<clipPath id="clip0_3161_350">
<rect width="79.4147" height="80" fill="white"/>
</clipPath>
</defs>
</svg>
