<svg width="80" height="70" viewBox="0 0 80 70" fill="none" xmlns="http://www.w3.org/2000/svg">
<g clip-path="url(#clip0_3161_297)">
<path d="M66.7574 30.7937C49.1156 20.5896 30.8844 20.5896 13.2426 30.7937C4.39909 35.9184 0 41.0885 0 46.2585C0 51.4286 4.39909 56.5987 13.2426 61.7234C30.8844 71.9275 49.1156 71.9275 66.7574 61.7234C75.6009 56.644 80 51.4286 80 46.2585C80 41.0885 75.6009 35.9184 66.7574 30.7937Z" fill="#949494"/>
<path d="M66.7574 30.7937C49.1156 20.5896 30.8844 20.5896 13.2426 30.7937C4.39909 35.9184 0 41.0885 0 46.2585C0 51.4286 4.39909 56.5987 13.2426 61.7234C30.8844 71.9275 49.1156 71.9275 66.7574 61.7234C75.6009 56.644 80 51.4286 80 46.2585C80 41.0885 75.6009 35.9184 66.7574 30.7937Z" fill="#FF9B00"/>
<path d="M66.7574 54.0137C49.1156 64.2178 30.8844 64.2178 13.2426 54.0137C4.39909 48.889 0 43.7189 0 38.5488V46.2586C0 51.4286 4.39909 56.5987 13.2426 61.7234C30.8844 71.9275 49.1156 71.9275 66.7574 61.7234C75.6009 56.6441 80 51.4286 80 46.2586V38.5488C80 43.7189 75.6009 48.889 66.7574 54.0137Z" fill="url(#paint0_linear_3161_297)"/>
<path d="M66.7574 23.0837C49.1156 12.8796 30.8844 12.8796 13.2426 23.0837C4.39909 28.2084 0 33.3785 0 38.5486C0 43.7186 4.39909 48.8887 13.2426 54.0134C30.8844 64.2175 49.1156 64.2175 66.7574 54.0134C75.6009 48.9341 80 43.7186 80 38.5486C80 33.3785 75.6009 28.2084 66.7574 23.0837Z" fill="#37384F"/>
<mask id="mask0_3161_297" style="mask-type:luminance" maskUnits="userSpaceOnUse" x="0" y="15" width="80" height="47">
<path d="M66.7574 23.0837C49.1156 12.8796 30.8844 12.8796 13.2426 23.0837C4.39909 28.2084 0 33.3785 0 38.5486C0 43.7186 4.39909 48.8887 13.2426 54.0134C30.8844 64.2175 49.1156 64.2175 66.7574 54.0134C75.6009 48.9341 80 43.7186 80 38.5486C80 33.3785 75.6009 28.2084 66.7574 23.0837Z" fill="white"/>
</mask>
<g mask="url(#mask0_3161_297)">
<path opacity="0.03" d="M72.2435 49.3424C85.869 49.3424 96.9147 38.2967 96.9147 24.6712C96.9147 11.0457 85.869 0 72.2435 0C58.6179 0 47.5723 11.0457 47.5723 24.6712C47.5723 38.2967 58.6179 49.3424 72.2435 49.3424Z" fill="#F8F8F8"/>
<path opacity="0.06" d="M71.2474 49.3424C84.8729 49.3424 95.9186 38.2967 95.9186 24.6712C95.9186 11.0457 84.8729 0 71.2474 0C57.6219 0 46.5762 11.0457 46.5762 24.6712C46.5762 38.2967 57.6219 49.3424 71.2474 49.3424Z" fill="#F1F1F2"/>
<path opacity="0.09" d="M70.2493 49.3424C83.8749 49.3424 94.9205 38.2967 94.9205 24.6712C94.9205 11.0457 83.8749 0 70.2493 0C56.6238 0 45.5781 11.0457 45.5781 24.6712C45.5781 38.2967 56.6238 49.3424 70.2493 49.3424Z" fill="#EAEAEB"/>
<path opacity="0.12" d="M69.2513 49.3424C82.8768 49.3424 93.9225 38.2967 93.9225 24.6712C93.9225 11.0457 82.8768 0 69.2513 0C55.6257 0 44.5801 11.0457 44.5801 24.6712C44.5801 38.2967 55.6257 49.3424 69.2513 49.3424Z" fill="#E3E3E5"/>
<path opacity="0.15" d="M68.2083 49.3424C81.8338 49.3424 92.8795 38.2967 92.8795 24.6712C92.8795 11.0457 81.8338 0 68.2083 0C54.5828 0 43.5371 11.0457 43.5371 24.6712C43.5371 38.2967 54.5828 49.3424 68.2083 49.3424Z" fill="#DCDCDE"/>
<path opacity="0.18" d="M67.2103 49.3424C80.8358 49.3424 91.8815 38.2967 91.8815 24.6712C91.8815 11.0457 80.8358 0 67.2103 0C53.5847 0 42.5391 11.0457 42.5391 24.6712C42.5391 38.2967 53.5847 49.3424 67.2103 49.3424Z" fill="#D5D5D8"/>
<path opacity="0.21" d="M66.2122 49.3424C79.8377 49.3424 90.8834 38.2967 90.8834 24.6712C90.8834 11.0457 79.8377 0 66.2122 0C52.5867 0 41.541 11.0457 41.541 24.6712C41.541 38.2967 52.5867 49.3424 66.2122 49.3424Z" fill="#CECED1"/>
<path opacity="0.24" d="M65.2142 49.3424C78.8397 49.3424 89.8854 38.2967 89.8854 24.6712C89.8854 11.0457 78.8397 0 65.2142 0C51.5886 0 40.543 11.0457 40.543 24.6712C40.543 38.2967 51.5886 49.3424 65.2142 49.3424Z" fill="#C7C7CB"/>
<path opacity="0.27" d="M64.2161 49.3424C77.8417 49.3424 88.8873 38.2967 88.8873 24.6712C88.8873 11.0457 77.8417 0 64.2161 0C50.5906 0 39.5449 11.0457 39.5449 24.6712C39.5449 38.2967 50.5906 49.3424 64.2161 49.3424Z" fill="#C0C1C4"/>
<path opacity="0.3" d="M63.1732 49.3424C76.7987 49.3424 87.8444 38.2967 87.8444 24.6712C87.8444 11.0457 76.7987 0 63.1732 0C49.5476 0 38.502 11.0457 38.502 24.6712C38.502 38.2967 49.5476 49.3424 63.1732 49.3424Z" fill="#B9BABE"/>
<path opacity="0.33" d="M62.1771 49.3424C75.8026 49.3424 86.8483 38.2967 86.8483 24.6712C86.8483 11.0457 75.8026 0 62.1771 0C48.5515 0 37.5059 11.0457 37.5059 24.6712C37.5059 38.2967 48.5515 49.3424 62.1771 49.3424Z" fill="#B2B3B7"/>
<path opacity="0.36" d="M61.179 49.3424C74.8045 49.3424 85.8502 38.2967 85.8502 24.6712C85.8502 11.0457 74.8045 0 61.179 0C47.5535 0 36.5078 11.0457 36.5078 24.6712C36.5078 38.2967 47.5535 49.3424 61.179 49.3424Z" fill="#ABACB0"/>
<path opacity="0.39" d="M60.181 49.3424C73.8065 49.3424 84.8522 38.2967 84.8522 24.6712C84.8522 11.0457 73.8065 0 60.181 0C46.5554 0 35.5098 11.0457 35.5098 24.6712C35.5098 38.2967 46.5554 49.3424 60.181 49.3424Z" fill="#A4A5AA"/>
<path opacity="0.42" d="M59.138 49.3424C72.7635 49.3424 83.8092 38.2967 83.8092 24.6712C83.8092 11.0457 72.7635 0 59.138 0C45.5125 0 34.4668 11.0457 34.4668 24.6712C34.4668 38.2967 45.5125 49.3424 59.138 49.3424Z" fill="#9D9EA3"/>
<path opacity="0.45" d="M58.1399 49.3424C71.7655 49.3424 82.8112 38.2967 82.8112 24.6712C82.8112 11.0457 71.7655 0 58.1399 0C44.5144 0 33.4688 11.0457 33.4688 24.6712C33.4688 38.2967 44.5144 49.3424 58.1399 49.3424Z" fill="#96979D"/>
<path opacity="0.48" d="M57.1419 49.3424C70.7674 49.3424 81.8131 38.2967 81.8131 24.6712C81.8131 11.0457 70.7674 0 57.1419 0C43.5164 0 32.4707 11.0457 32.4707 24.6712C32.4707 38.2967 43.5164 49.3424 57.1419 49.3424Z" fill="#8F9096"/>
<path opacity="0.52" d="M56.1439 49.3424C69.7694 49.3424 80.8151 38.2967 80.8151 24.6712C80.8151 11.0457 69.7694 0 56.1439 0C42.5183 0 31.4727 11.0457 31.4727 24.6712C31.4727 38.2967 42.5183 49.3424 56.1439 49.3424Z" fill="#898990"/>
<path opacity="0.55" d="M55.1458 49.3424C68.7713 49.3424 79.817 38.2967 79.817 24.6712C79.817 11.0457 68.7713 0 55.1458 0C41.5203 0 30.4746 11.0457 30.4746 24.6712C30.4746 38.2967 41.5203 49.3424 55.1458 49.3424Z" fill="#828289"/>
<path opacity="0.58" d="M54.1028 49.3424C67.7284 49.3424 78.774 38.2967 78.774 24.6712C78.774 11.0457 67.7284 0 54.1028 0C40.4773 0 29.4316 11.0457 29.4316 24.6712C29.4316 38.2967 40.4773 49.3424 54.1028 49.3424Z" fill="#7B7B83"/>
<path opacity="0.61" d="M53.1067 49.3424C66.7323 49.3424 77.778 38.2967 77.778 24.6712C77.778 11.0457 66.7323 0 53.1067 0C39.4812 0 28.4355 11.0457 28.4355 24.6712C28.4355 38.2967 39.4812 49.3424 53.1067 49.3424Z" fill="#74747C"/>
<path opacity="0.64" d="M52.1087 49.3424C65.7342 49.3424 76.7799 38.2967 76.7799 24.6712C76.7799 11.0457 65.7342 0 52.1087 0C38.4832 0 27.4375 11.0457 27.4375 24.6712C27.4375 38.2967 38.4832 49.3424 52.1087 49.3424Z" fill="#6D6D76"/>
<path opacity="0.67" d="M51.1107 49.3424C64.7362 49.3424 75.7819 38.2967 75.7819 24.6712C75.7819 11.0457 64.7362 0 51.1107 0C37.4851 0 26.4395 11.0457 26.4395 24.6712C26.4395 38.2967 37.4851 49.3424 51.1107 49.3424Z" fill="#66666F"/>
<path opacity="0.7" d="M50.0677 49.3424C63.6932 49.3424 74.7389 38.2967 74.7389 24.6712C74.7389 11.0457 63.6932 0 50.0677 0C36.4422 0 25.3965 11.0457 25.3965 24.6712C25.3965 38.2967 36.4422 49.3424 50.0677 49.3424Z" fill="#5F5F68"/>
<path opacity="0.73" d="M49.0696 49.3424C62.6952 49.3424 73.7408 38.2967 73.7408 24.6712C73.7408 11.0457 62.6952 0 49.0696 0C35.4441 0 24.3984 11.0457 24.3984 24.6712C24.3984 38.2967 35.4441 49.3424 49.0696 49.3424Z" fill="#585862"/>
<path opacity="0.76" d="M48.0716 49.3424C61.6971 49.3424 72.7428 38.2967 72.7428 24.6712C72.7428 11.0457 61.6971 0 48.0716 0C34.4461 0 23.4004 11.0457 23.4004 24.6712C23.4004 38.2967 34.4461 49.3424 48.0716 49.3424Z" fill="#51525B"/>
<path opacity="0.79" d="M47.0735 49.3424C60.6991 49.3424 71.7447 38.2967 71.7447 24.6712C71.7447 11.0457 60.6991 0 47.0735 0C33.448 0 22.4023 11.0457 22.4023 24.6712C22.4023 38.2967 33.448 49.3424 47.0735 49.3424Z" fill="#4A4B55"/>
<path opacity="0.82" d="M46.0306 49.3424C59.6561 49.3424 70.7018 38.2967 70.7018 24.6712C70.7018 11.0457 59.6561 0 46.0306 0C32.405 0 21.3594 11.0457 21.3594 24.6712C21.3594 38.2967 32.405 49.3424 46.0306 49.3424Z" fill="#43444E"/>
<path opacity="0.85" d="M45.0325 49.3424C58.6581 49.3424 69.7037 38.2967 69.7037 24.6712C69.7037 11.0457 58.6581 0 45.0325 0C31.407 0 20.3613 11.0457 20.3613 24.6712C20.3613 38.2967 31.407 49.3424 45.0325 49.3424Z" fill="#3C3D48"/>
<path opacity="0.88" d="M44.0364 49.3424C57.662 49.3424 68.7076 38.2967 68.7076 24.6712C68.7076 11.0457 57.662 0 44.0364 0C30.4109 0 19.3652 11.0457 19.3652 24.6712C19.3652 38.2967 30.4109 49.3424 44.0364 49.3424Z" fill="#353641"/>
<path opacity="0.91" d="M43.0384 49.3424C56.6639 49.3424 67.7096 38.2967 67.7096 24.6712C67.7096 11.0457 56.6639 0 43.0384 0C29.4129 0 18.3672 11.0457 18.3672 24.6712C18.3672 38.2967 29.4129 49.3424 43.0384 49.3424Z" fill="#2E2F3B"/>
<path opacity="0.94" d="M42.0403 49.3424C55.6659 49.3424 66.7115 38.2967 66.7115 24.6712C66.7115 11.0457 55.6659 0 42.0403 0C28.4148 0 17.3691 11.0457 17.3691 24.6712C17.3691 38.2967 28.4148 49.3424 42.0403 49.3424Z" fill="#272834"/>
<path opacity="0.97" d="M40.9974 49.3424C54.6229 49.3424 65.6686 38.2967 65.6686 24.6712C65.6686 11.0457 54.6229 0 40.9974 0C27.3718 0 16.3262 11.0457 16.3262 24.6712C16.3262 38.2967 27.3718 49.3424 40.9974 49.3424Z" fill="#20212E"/>
<path d="M39.9993 49.3424C53.6249 49.3424 64.6705 38.2967 64.6705 24.6712C64.6705 11.0457 53.6249 0 39.9993 0C26.3738 0 15.3281 11.0457 15.3281 24.6712C15.3281 38.2967 26.3738 49.3424 39.9993 49.3424Z" fill="#191A27"/>
</g>
<path d="M39.9993 49.3424C53.6249 49.3424 64.6705 38.2967 64.6705 24.6712C64.6705 11.0457 53.6249 0 39.9993 0C26.3738 0 15.3281 11.0457 15.3281 24.6712C15.3281 38.2967 26.3738 49.3424 39.9993 49.3424Z" fill="url(#paint1_radial_3161_297)"/>
<path d="M34.4357 45.5452C38.6003 43.1407 38.5957 35.3361 34.4253 28.1131C30.255 20.8901 23.4983 16.9839 19.3336 19.3884C15.169 21.793 15.1737 29.5976 19.344 36.8206C23.5143 44.0435 30.2711 47.9497 34.4357 45.5452Z" fill="#BABABA"/>
<path d="M23.8558 40.7255C21.7696 39.5463 20.4998 37.3241 20.5905 34.9205V33.696C20.5905 32.1994 20.9533 31.2924 21.9057 31.247C20.9987 30.1586 20.5451 28.798 20.5905 27.3922V26.8933C20.5905 24.399 21.7696 23.6733 23.9012 24.8978C25.9873 26.077 27.2572 28.2992 27.2118 30.7028V31.2017C27.2118 32.7436 26.7583 33.5146 25.8966 33.56C26.8036 34.6937 27.2572 36.0996 27.2118 37.5509V38.7754C27.1211 41.2244 25.9873 41.95 23.8558 40.7255ZM22.6767 29.0702C22.6767 30.2946 23.1755 30.9749 23.8558 31.3831C24.5361 31.7912 25.0349 31.6552 25.0349 30.4307V29.569C25.0349 28.1631 24.5361 27.5282 23.8558 27.12C23.1755 26.7119 22.6767 26.8026 22.6767 28.2085V29.0702ZM23.8558 38.5033C24.5361 38.9114 25.0349 38.8207 25.0349 37.4602V36.0089C25.0349 34.7844 24.5814 34.0135 23.8558 33.56C23.1302 33.1064 22.6767 33.4239 22.6767 34.6484V36.0996C22.6767 37.4602 23.1755 38.0951 23.8558 38.5033Z" fill="#012E3E"/>
</g>
<defs>
<linearGradient id="paint0_linear_3161_297" x1="0" y1="53.9508" x2="79.9909" y2="53.9508" gradientUnits="userSpaceOnUse">
<stop stop-color="#545770"/>
<stop offset="0.1" stop-color="#50536B"/>
<stop offset="0.3" stop-color="#4E5168"/>
<stop offset="0.38" stop-color="#464960"/>
<stop offset="0.59" stop-color="#353850"/>
<stop offset="0.74" stop-color="#2F324A"/>
<stop offset="1" stop-color="#20233D"/>
</linearGradient>
<radialGradient id="paint1_radial_3161_297" cx="0" cy="0" r="1" gradientUnits="userSpaceOnUse" gradientTransform="translate(30.022 12.6032) scale(38.1859 38.1859)">
<stop stop-color="#FFC100"/>
<stop offset="0.16" stop-color="#FEBA00"/>
<stop offset="0.4" stop-color="#FAA600"/>
<stop offset="0.69" stop-color="#F38500"/>
<stop offset="1" stop-color="#EB5A00"/>
</radialGradient>
<clipPath id="clip0_3161_297">
<rect width="80" height="69.3424" fill="white"/>
</clipPath>
</defs>
</svg>
