<svg width="81" height="71" viewBox="0 0 81 71" fill="none" xmlns="http://www.w3.org/2000/svg">
<g clip-path="url(#clip0_3165_3907)">
<path d="M67.2574 31.9739C49.6156 21.7698 31.3844 21.7698 13.7426 31.9739C4.89909 37.0532 0.5 42.2233 0.5 47.4387C0.5 52.6541 4.89909 57.7789 13.7426 62.9036C31.3844 73.1077 49.6156 73.1077 67.2574 62.9036C76.1009 57.8242 80.5 52.6088 80.5 47.4387C80.5 42.2686 76.1009 37.0532 67.2574 31.9739Z" fill="#949494"/>
<path d="M67.2574 31.9739C49.6156 21.7698 31.3844 21.7698 13.7426 31.9739C4.89909 37.0532 0.5 42.2233 0.5 47.4387C0.5 52.6541 4.89909 57.7789 13.7426 62.9036C31.3844 73.1077 49.6156 73.1077 67.2574 62.9036C76.1009 57.8242 80.5 52.6088 80.5 47.4387C80.5 42.2686 76.1009 37.0532 67.2574 31.9739Z" fill="#FF9B00"/>
<path d="M67.2574 55.1485C49.6156 65.3526 31.3844 65.3526 13.7426 55.1485C4.89909 50.0691 0.5 44.8991 0.5 39.729V47.4388C0.5 52.6088 4.89909 57.7789 13.7426 62.9036C31.3844 73.1077 49.6156 73.1077 67.2574 62.9036C76.1009 57.8242 80.5 52.6088 80.5 47.4388V39.729C80.5 44.8991 76.1009 50.0691 67.2574 55.1485Z" fill="url(#paint0_linear_3165_3907)"/>
<path d="M67.2574 24.2639C49.6156 14.0598 31.3844 14.0598 13.7426 24.2639C4.89909 29.3433 0.5 34.5133 0.5 39.7288C0.5 44.9442 4.89909 50.0689 13.7426 55.1936C31.3844 65.3977 49.6156 65.3977 67.2574 55.1936C76.1009 50.1142 80.5 44.8988 80.5 39.7288C80.5 34.5587 76.1009 29.3433 67.2574 24.2639Z" fill="#008CFF"/>
<mask id="mask0_3165_3907" style="mask-type:luminance" maskUnits="userSpaceOnUse" x="0" y="16" width="81" height="47">
<path d="M67.2574 24.2639C49.6156 14.0598 31.3844 14.0598 13.7426 24.2639C4.89909 29.3433 0.5 34.5133 0.5 39.7288C0.5 44.9442 4.89909 50.0689 13.7426 55.1936C31.3844 65.3977 49.6156 65.3977 67.2574 55.1936C76.1009 50.1142 80.5 44.8988 80.5 39.7288C80.5 34.5587 76.1009 29.3433 67.2574 24.2639Z" fill="white"/>
</mask>
<g mask="url(#mask0_3165_3907)">
<path opacity="0.03" d="M81.86 48.3911C82.0414 48.1189 82.1774 47.8015 82.2228 47.484C82.1321 47.8015 82.0414 48.1189 81.86 48.3911ZM86.894 12.4727L85.3521 11.611L77.733 7.21192L76.2364 6.35024L68.572 1.95115L67.0301 1.08947C65.987 0.499898 65.0346 0.409195 64.3543 0.817358L55.9189 5.71532C55.2387 6.12348 54.7852 6.98516 54.7852 8.1643V30.84C54.7852 33.2437 56.5085 36.2369 58.5947 37.4614L60.1366 38.323L67.7557 42.7221L69.2976 43.6292L76.9167 48.0282L78.4586 48.8899C79.5017 49.4795 80.4541 49.5702 81.1344 49.162L89.5697 44.2641C90.25 43.8559 90.7035 42.9942 90.7035 41.7697V19.094C90.7489 16.6904 89.0255 13.6972 86.894 12.4727ZM57.1434 5.39786C57.5062 5.44321 57.9144 5.57926 58.2319 5.71532C57.8691 5.53391 57.5062 5.44321 57.1434 5.39786Z" fill="#F7FAFF"/>
<path opacity="0.06" d="M80.9546 22.0872C81.136 22.6768 81.2267 23.3117 81.2721 23.992C81.2721 23.3117 81.1813 22.6768 80.9546 22.0872ZM85.8979 12.4727L84.4013 11.611L76.7823 7.21192L75.2403 6.35024L67.5759 1.95115L66.034 1.08947C64.9909 0.499898 64.0385 0.409195 63.3582 0.817358L54.9228 5.62461C54.2426 6.03278 53.7891 6.89446 53.7891 8.07359V30.7493C53.7891 33.153 55.5124 36.1462 57.5986 37.3706L59.1405 38.2323L66.7596 42.6314L68.3015 43.5384L75.9206 47.9375L77.4625 48.7992C78.5056 49.3888 79.458 49.4795 80.1383 49.0713L88.5736 44.1734C89.2539 43.7652 89.7074 42.9035 89.7074 41.7244V19.094C89.7074 16.6904 87.9841 13.6972 85.8979 12.4727ZM56.1473 5.39786C56.5101 5.44321 56.9183 5.57926 57.2358 5.71532C56.873 5.53391 56.5101 5.44321 56.1473 5.39786Z" fill="#F0F5FF"/>
<path opacity="0.09" d="M79.9565 22.0872C80.138 22.6768 80.2287 23.3117 80.274 23.992C80.274 23.3117 80.1833 22.6768 79.9565 22.0872ZM84.8999 12.4727L83.3579 11.611L75.7389 7.21192L74.1969 6.35024L66.5779 1.95115L65.0359 1.08947C63.9928 0.499898 63.0404 0.409195 62.3602 0.817358L53.9248 5.71532C53.2445 6.12348 52.791 6.98516 52.791 8.1643V30.84C52.791 33.2437 54.5144 36.2369 56.6005 37.4614L58.1425 38.323L65.7615 42.7221L67.3035 43.6292L74.9225 48.0282L76.4645 48.8899C77.5076 49.4795 78.4599 49.5702 79.1402 49.162L87.5756 44.2187C88.2559 43.8106 88.7094 42.9489 88.7094 41.7697V19.094C88.7094 16.6904 86.986 13.6972 84.8999 12.4727ZM55.1039 5.39786C55.4668 5.44321 55.8749 5.57926 56.1924 5.71532C55.8749 5.53391 55.5121 5.44321 55.1039 5.39786ZM76.4645 17.3706C76.7366 17.5067 77.0087 17.6881 77.2355 17.9149C76.9633 17.6881 76.7366 17.5067 76.4645 17.3706ZM77.9157 18.5498C78.3692 19.0487 78.7774 19.5929 79.1402 20.1824C78.8228 19.5929 78.4146 19.0487 77.9157 18.5498Z" fill="#E8F0FF"/>
<path opacity="0.12" d="M83.9018 12.4727L82.3599 11.611L74.7408 7.21192L73.1989 6.35024L65.5798 1.95115L64.0379 1.08947C62.9948 0.499898 62.0424 0.409195 61.3621 0.817358L52.9268 5.71532C52.2465 6.12348 51.793 6.98516 51.793 8.1643V30.84C51.793 33.2437 53.5163 36.2369 55.6025 37.4614L57.1444 38.323L64.7635 42.7221L66.2601 43.6292L73.8791 48.0282L75.4211 48.8899C76.4642 49.4795 77.4166 49.5702 78.0968 49.162L86.5322 44.2641C87.2125 43.8559 87.666 42.9942 87.666 41.8151V19.094C87.7113 16.6904 85.988 13.6972 83.9018 12.4727ZM54.1059 5.39786C54.4687 5.44321 54.8769 5.57926 55.1943 5.71532C54.8769 5.53391 54.5141 5.44321 54.1059 5.39786ZM75.4211 17.3706C75.6932 17.5521 75.92 17.6881 76.1921 17.9149C75.9653 17.6881 75.6932 17.5067 75.4211 17.3706Z" fill="#E0EBFF"/>
<path opacity="0.15" d="M77.8248 48.3911C78.0062 48.1189 78.1423 47.8015 78.1876 47.484C78.0969 47.8015 78.0062 48.1189 77.8248 48.3911ZM82.8588 12.4727L81.3169 11.611L73.6978 7.21192L72.1559 6.35024L64.5368 1.95115L62.9949 1.08947C61.9518 0.499898 60.9994 0.409195 60.3192 0.817358L51.8838 5.71532C51.2035 6.12348 50.75 6.98516 50.75 8.1643V30.84C50.75 33.2437 52.4734 36.2369 54.5595 37.4614L56.1015 38.323L63.7205 42.7221L65.2625 43.6292L72.8815 48.0282L74.4235 48.8899C75.4666 49.4795 76.4189 49.5702 77.0992 49.162L85.5346 44.2641C86.2149 43.8559 86.6684 42.9942 86.6684 41.8151V19.094C86.7137 16.6904 84.9904 13.6972 82.8588 12.4727ZM53.1083 5.39786C53.4711 5.44321 53.8793 5.57926 54.1967 5.71532C53.8793 5.53391 53.4711 5.44321 53.1083 5.39786ZM75.9201 18.5498C76.3736 19.0487 76.8271 19.5929 77.1446 20.1824C76.7817 19.5929 76.3736 19.0487 75.9201 18.5498Z" fill="#D8E6FF"/>
<path opacity="0.18" d="M76.8268 48.391C77.0082 48.1189 77.1442 47.8014 77.1896 47.484C77.0989 47.8014 76.9628 48.1189 76.8268 48.391ZM81.8608 12.4726L80.3188 11.611L72.6998 7.21186L71.1579 6.35018L63.5388 1.90574L61.9969 1.04406C60.9538 0.454488 60.0014 0.363785 59.3211 0.771948L50.8857 5.66991C50.2055 6.07807 49.752 6.93975 49.752 8.11889V30.7946C49.752 33.1983 51.4753 36.1915 53.5615 37.4159L55.1034 38.2776L62.7225 42.6767L64.2644 43.5837L71.8835 47.9828L73.4254 48.8445C74.4685 49.4341 75.4209 49.5248 76.1012 49.1166L84.5365 44.2187C85.2168 43.8105 85.6703 42.9488 85.6703 41.7697V19.0939C85.6703 16.6903 83.9923 13.6971 81.8608 12.4726ZM52.1102 5.3978C52.473 5.44315 52.8812 5.5792 53.1987 5.71526C52.8359 5.53385 52.473 5.44315 52.1102 5.3978Z" fill="#D1E1FF"/>
<path opacity="0.21" d="M75.9194 22.0872C76.1008 22.6768 76.1915 23.3117 76.2369 23.992C76.2369 23.3117 76.1462 22.6768 75.9194 22.0872ZM80.8627 12.4727L79.3208 11.611L71.7018 7.21192L70.1598 6.35024L62.5408 1.95115L60.9988 1.08947C59.9557 0.499898 59.0033 0.409195 58.3231 0.817358L49.8877 5.71532C49.2074 6.12348 48.7539 6.98516 48.7539 8.1643V30.84C48.7539 33.2437 50.4773 36.2369 52.5634 37.4613L54.1054 38.323L61.7244 42.6768L63.2664 43.5838L70.8854 47.9829L72.4274 48.8446C73.4705 49.4341 74.4228 49.5248 75.1031 49.1167L83.5385 44.2187C84.2188 43.8106 84.6723 42.9489 84.6723 41.7697V19.094C84.6723 16.6904 82.9489 13.6972 80.8627 12.4727ZM51.0668 5.39786C51.4296 5.44321 51.8378 5.57926 52.1553 5.71532C51.8378 5.53391 51.475 5.44321 51.0668 5.39786ZM72.4274 17.3706C72.6995 17.5067 72.9716 17.6881 73.1984 17.9149C72.9262 17.6881 72.6995 17.5067 72.4274 17.3706ZM73.8786 18.5498C74.3321 19.0486 74.7403 19.5929 75.1031 20.1824C74.7857 19.5929 74.3775 19.0486 73.8786 18.5498Z" fill="#C9DCFF"/>
<path opacity="0.24" d="M74.9218 22.0872C75.1032 22.6768 75.1939 23.3117 75.2393 23.992C75.2393 23.3117 75.1032 22.6768 74.9218 22.0872ZM79.8651 12.4727L78.3232 11.611L70.7041 7.21192L69.1622 6.35024L61.4978 1.95115L59.9558 1.08947C58.9128 0.499898 57.9604 0.409195 57.2801 0.817358L48.8447 5.71532C48.1645 6.12348 47.7109 6.98516 47.7109 8.1643V30.84C47.7109 33.2437 49.4343 36.2369 51.5205 37.4614L53.0624 38.323L60.6815 42.7221L62.2234 43.6292L69.8878 48.0282L71.4298 48.8899C72.4728 49.4795 73.4252 49.5702 74.1055 49.162L82.5409 44.2641C83.2211 43.8559 83.6747 42.9942 83.6747 41.8151V19.094C83.6747 16.6904 81.9513 13.6972 79.8651 12.4727ZM50.0692 5.39786C50.432 5.44321 50.8402 5.57926 51.1576 5.71532C50.8402 5.53391 50.4774 5.44321 50.0692 5.39786ZM71.4298 17.3706C71.7019 17.5067 71.9286 17.6881 72.1554 17.9149C71.9286 17.6881 71.6565 17.5067 71.4298 17.3706ZM72.881 18.5498C73.3345 19.0487 73.7427 19.5929 74.1055 20.1824C73.788 19.5929 73.3799 19.0487 72.881 18.5498Z" fill="#C1D7FF"/>
<path opacity="0.27" d="M73.7877 48.3909C73.9691 48.1188 74.1052 47.8014 74.1505 47.4839C74.0598 47.8014 73.9691 48.1188 73.7877 48.3909ZM78.8671 12.4726L77.3251 11.6109L69.7061 7.2118L68.1641 6.35012L60.5451 1.95103L59.0031 0.998647C57.9601 0.409078 57.0077 0.318375 56.2821 0.726538L47.8467 5.6245C47.1664 6.03266 46.7129 6.89434 46.7129 8.07348V30.7492C46.7129 33.1528 48.4362 36.146 50.5224 37.3705L52.0644 38.2322L59.6834 42.6313L61.2254 43.5383L68.8444 47.9374L70.3864 48.7991C71.4294 49.3887 72.3818 49.4794 73.0621 49.0712L81.4975 44.1733C82.1777 43.7651 82.6313 42.9034 82.6313 41.7243V19.0939C82.6766 16.6903 80.9533 13.6971 78.8671 12.4726ZM49.0712 5.39774C49.434 5.44309 49.8421 5.57915 50.1596 5.7152C49.7968 5.53379 49.434 5.44309 49.0712 5.39774Z" fill="#B9D2FF"/>
<path opacity="0.3" d="M72.7897 48.3911C72.9711 48.1189 73.1071 47.8015 73.1525 47.484C73.0618 47.8015 72.9257 48.1189 72.7897 48.3911ZM77.8237 12.4727L76.2817 11.611L68.6627 7.21192L67.1661 6.35024L59.5017 1.95115L57.9597 1.08947C56.9167 0.499898 55.9643 0.409195 55.284 0.817358L46.8486 5.71532C46.1684 6.12348 45.7148 6.98516 45.7148 8.1643V30.84C45.7148 33.2437 47.4382 36.2369 49.5244 37.4614L51.0663 38.323L58.6854 42.7221L60.2273 43.6292L67.8464 48.0282L69.3883 48.8899C70.4314 49.4795 71.3838 49.5702 72.0641 49.162L80.4994 44.2641C81.1797 43.8559 81.6332 42.9942 81.6332 41.7697V19.094C81.6786 16.6904 79.9552 13.6972 77.8237 12.4727ZM48.0731 5.39786C48.4359 5.44321 48.8441 5.57926 49.1616 5.71532C48.7987 5.53391 48.4359 5.44321 48.0731 5.39786Z" fill="#B2CDFF"/>
<path opacity="0.33" d="M71.8843 22.0872C72.0657 22.6768 72.1564 23.3117 72.2017 23.992C72.2017 23.3117 72.111 22.6768 71.8843 22.0872ZM76.8276 12.4727L75.2856 11.611L67.6666 7.21192L66.1246 6.35024L58.5056 1.95115L56.9636 1.08947C55.9206 0.499898 54.9682 0.409195 54.2879 0.817358L45.8525 5.62461C45.1723 6.03278 44.7188 6.89446 44.7188 8.07359V30.7493C44.7188 33.153 46.4421 36.1462 48.5283 37.3706L50.0702 38.2323L57.6893 42.6314L59.2312 43.5384L66.8503 47.9375L68.3922 48.7992C69.4353 49.3888 70.3877 49.4795 71.068 49.0713L79.5033 44.1734C80.1836 43.7652 80.6371 42.9035 80.6371 41.7244V19.094C80.6371 16.6904 78.9138 13.6972 76.8276 12.4727ZM47.077 5.39786C47.4398 5.44321 47.848 5.57926 48.1655 5.71532C47.8026 5.53391 47.4398 5.44321 47.077 5.39786Z" fill="#AAC8FF"/>
<path opacity="0.36" d="M70.8862 22.0872C71.0676 22.6768 71.1583 23.3117 71.2037 23.992C71.2037 23.3117 71.0676 22.6768 70.8862 22.0872ZM75.8295 12.4727L74.2876 11.611L66.6685 7.21192L65.1266 6.35024L57.5075 1.95115L55.9656 1.08947C54.9225 0.499898 53.9701 0.409195 53.2899 0.817358L44.8545 5.62461C44.1742 6.03278 43.7207 6.89446 43.7207 8.07359V30.7493C43.7207 33.153 45.4441 36.1462 47.5302 37.3706L49.0722 38.2323L56.6912 42.6314L58.2332 43.5384L65.8522 47.9375L67.3942 48.7992C68.4373 49.3888 69.3896 49.4795 70.0699 49.0713L78.5053 44.2187C79.1856 43.8106 79.6391 42.9489 79.6391 41.7697V19.094C79.6391 16.6904 77.9157 13.6972 75.8295 12.4727ZM46.0336 5.39786C46.3964 5.44321 46.8046 5.57926 47.1221 5.71532C46.8046 5.53391 46.4418 5.44321 46.0336 5.39786ZM67.3942 17.3706C67.6663 17.5067 67.9384 17.6881 68.1651 17.9149C67.893 17.6881 67.6663 17.5067 67.3942 17.3706ZM68.8454 18.5498C69.2989 19.0487 69.7071 19.5929 70.0699 20.1824C69.7524 19.5929 69.3443 19.0487 68.8454 18.5498Z" fill="#A2C3FF"/>
<path opacity="0.39" d="M69.7526 48.3911C69.934 48.1189 70.07 47.8015 70.1154 47.484C70.0247 47.8015 69.934 48.1189 69.7526 48.3911ZM74.8319 12.4727L73.29 11.611L65.6709 7.21192L64.129 6.35024L56.5099 1.95115L54.968 1.08947C53.9249 0.499898 52.9725 0.409195 52.2922 0.817358L43.8115 5.62461C43.1312 6.03278 42.6777 6.89445 42.6777 8.11894V30.7947C42.6777 33.1983 44.4011 36.1915 46.4873 37.416L48.0292 38.2777L55.6936 42.6768L57.1902 43.5838L64.8093 47.9829L66.3512 48.8446C67.3943 49.4341 68.3467 49.5248 69.0269 49.1167L77.4623 44.2187C78.1426 43.8106 78.5961 42.9489 78.5961 41.7697V19.094C78.6415 16.6904 76.9181 13.6972 74.8319 12.4727ZM45.036 5.39786C45.3988 5.44321 45.807 5.57926 46.1244 5.71532C45.807 5.53391 45.3988 5.44321 45.036 5.39786ZM66.3512 17.3706C66.6233 17.5521 66.8501 17.6881 67.1222 17.9149C66.8954 17.6881 66.6233 17.5067 66.3512 17.3706Z" fill="#9BBEFF"/>
<path opacity="0.42" d="M68.7545 48.3911C68.9359 48.1189 69.072 47.8015 69.1173 47.484C69.0266 47.8015 68.9359 48.1189 68.7545 48.3911ZM73.7885 12.4727L72.2466 11.611L64.6275 7.21192L63.0856 6.35024L55.4665 1.95115L53.9246 1.08947C52.8815 0.499898 51.9291 0.409195 51.2488 0.817358L42.8135 5.62461C42.1332 6.03278 41.6797 6.89446 41.6797 8.07359V30.7493C41.6797 33.153 43.403 36.1462 45.4892 37.3706L47.0312 38.2323L54.6502 42.6314L56.1922 43.5384L63.8112 47.9375L65.3532 48.7992C66.3962 49.3888 67.3486 49.4795 68.0289 49.0713L76.4643 44.1734C77.1445 43.7652 77.5981 42.9035 77.5981 41.7244V19.094C77.6434 16.6904 75.9201 13.6972 73.7885 12.4727ZM44.038 5.39786C44.4008 5.44321 44.8089 5.57926 45.1264 5.71532C44.8089 5.53391 44.4008 5.44321 44.038 5.39786ZM66.8498 18.5498C67.3033 19.0487 67.7568 19.5929 68.0742 20.1824C67.7114 19.5929 67.3033 19.0487 66.8498 18.5498Z" fill="#93B9FF"/>
<path opacity="0.45" d="M72.7905 12.4726L71.2485 11.6109L63.6295 7.21186L62.0875 6.35018L54.4685 1.90573L52.9265 1.04406C51.8835 0.454488 50.9311 0.363785 50.2508 0.771948L41.8154 5.62456C41.1352 6.03272 40.6816 6.8944 40.6816 8.07354V30.7493C40.6816 33.1529 42.405 36.1461 44.4912 37.3706L46.0331 38.2323L53.6522 42.6314L55.1941 43.5384L62.8132 47.9375L64.3551 48.7992C65.3982 49.3887 66.3506 49.4794 67.0308 49.0713L75.4662 44.1733C76.1465 43.7651 76.6 42.9035 76.6 41.7243V19.0939C76.6 16.6903 74.8766 13.6971 72.7905 12.4726ZM43.0399 5.3978C43.4027 5.44315 43.8109 5.5792 44.1284 5.71526C43.7655 5.53385 43.4027 5.44315 43.0399 5.3978Z" fill="#8BB4FF"/>
<path opacity="0.48" d="M66.8496 22.0872C67.031 22.6768 67.1217 23.3117 67.167 23.992C67.167 23.3117 67.0763 22.6768 66.8496 22.0872ZM71.7929 12.4727L70.2509 11.611L62.6319 7.21192L61.0899 6.35024L53.4255 1.95115L51.8836 1.08947C50.8405 0.499898 49.8881 0.409195 49.2078 0.817358L40.7725 5.62461C40.0922 6.03278 39.6387 6.89446 39.6387 8.07359V30.7493C39.6387 33.153 41.362 36.1462 43.4482 37.3706L44.9901 38.2323L52.6545 42.6768L54.1965 43.5838L61.8155 47.9829L63.3575 48.8446C64.4006 49.4341 65.353 49.5248 66.0332 49.1167L74.4686 44.2187C75.1489 43.8106 75.6024 42.9489 75.6024 41.7697V19.094C75.6024 16.6904 73.879 13.6972 71.7929 12.4727ZM63.3575 17.3706C63.6296 17.5067 63.9017 17.6881 64.1285 17.9149C63.8564 17.6881 63.6296 17.5067 63.3575 17.3706ZM64.8087 18.5498C65.2623 19.0486 65.6704 19.5929 66.0332 20.1824C65.7158 19.5929 65.3076 19.0486 64.8087 18.5498Z" fill="#83AFFF"/>
<path opacity="0.52" d="M70.7948 12.4727L69.2529 11.611L61.6338 7.21192L60.0919 6.35024L52.4728 1.95115L50.9309 1.08947C49.8878 0.499898 48.9354 0.409195 48.2551 0.817358L39.7744 5.62461C39.0941 6.03278 38.6406 6.89446 38.6406 8.07359V30.7493C38.6406 33.153 40.364 36.1462 42.4501 37.3706L43.9921 38.2323L51.6111 42.6314L53.1531 43.5384L60.8175 47.9375L62.3594 48.7992C63.4025 49.3888 64.3549 49.4795 65.0352 49.0713L73.4706 44.1734C74.1508 43.7652 74.6043 42.9035 74.6043 41.7244V19.094C74.6043 16.6904 72.881 13.6972 70.7948 12.4727ZM40.9989 5.39786C41.3617 5.44321 41.7699 5.57926 42.0873 5.71532C41.7699 5.53391 41.4071 5.44321 40.9989 5.39786ZM62.3141 17.3706C62.5862 17.5067 62.813 17.6881 63.0851 17.9149C62.8583 17.6881 62.5862 17.5067 62.3141 17.3706Z" fill="#7CA9FF"/>
<path opacity="0.55" d="M64.7174 48.3909C64.8988 48.1188 65.0349 47.8014 65.0802 47.4839C64.9895 47.8014 64.8988 48.1188 64.7174 48.3909ZM69.7514 12.4726L68.2095 11.6109L60.5904 7.2118L59.0485 6.35012L51.4294 1.95103L49.9328 0.998647C48.8897 0.409078 47.9374 0.318375 47.2117 0.726538L38.7764 5.6245C38.0961 6.03266 37.6426 6.89434 37.6426 8.07348V30.7492C37.6426 33.1528 39.3659 36.146 41.4521 37.3705L42.9941 38.2322L50.6131 42.6313L52.1551 43.5383L59.7741 47.9374L61.3161 48.7991C62.3591 49.3887 63.3115 49.4794 63.9918 49.0712L72.4272 44.1733C73.1074 43.7651 73.5609 42.9034 73.5609 41.7243V19.0939C73.6063 16.6903 71.8829 13.6971 69.7514 12.4726ZM40.0009 5.39774C40.3637 5.44309 40.7718 5.57915 41.0893 5.7152C40.7265 5.53379 40.3637 5.44309 40.0009 5.39774Z" fill="#74A4FF"/>
<path opacity="0.58" d="M63.7194 48.3911C63.9008 48.1189 64.0368 47.8015 64.0822 47.484C63.9915 47.8015 63.8554 48.1189 63.7194 48.3911ZM68.7534 12.4727L67.2114 11.611L59.5924 7.21192L58.0958 6.35024L50.4314 1.95115L48.8894 1.08947C47.8463 0.499898 46.894 0.409195 46.2137 0.817358L37.7783 5.62461C37.098 6.03278 36.6445 6.89446 36.6445 8.07359V30.7493C36.6445 33.153 38.3679 36.1462 40.4541 37.3706L41.996 38.2323L49.6151 42.6314L51.157 43.5384L58.7761 47.9375L60.318 48.7992C61.3611 49.3888 62.3135 49.4795 62.9937 49.0713L71.4291 44.1734C72.1094 43.7652 72.5629 42.9035 72.5629 41.7244V19.094C72.5629 16.6904 70.8395 13.6972 68.7534 12.4727ZM39.0028 5.39786C39.3656 5.44321 39.7738 5.57926 40.0912 5.71532C39.7284 5.53391 39.3656 5.44321 39.0028 5.39786Z" fill="#6C9FFF"/>
<path opacity="0.61" d="M62.814 22.0872C62.9954 22.6768 63.0861 23.3117 63.1314 23.992C63.1314 23.3117 63.0407 22.6768 62.814 22.0872ZM67.7573 12.4727L66.2153 11.611L58.5963 7.21192L57.0543 6.35024L49.4353 1.95115L47.8933 1.08947C46.8503 0.499898 45.8979 0.409195 45.2176 0.817358L36.7822 5.62461C36.102 6.03278 35.6484 6.89446 35.6484 8.07359V30.7493C35.6484 33.153 37.3718 36.1462 39.458 37.3706L40.9999 38.2323L48.619 42.6314L50.1609 43.5384L57.78 47.9375L59.3219 48.7992C60.365 49.3888 61.3174 49.4795 61.9976 49.0713L70.433 44.1734C71.1133 43.7652 71.5668 42.9035 71.5668 41.7244V19.094C71.5668 16.6904 69.8434 13.6972 67.7573 12.4727ZM37.9614 5.39786C38.3242 5.44321 38.7323 5.57926 39.0498 5.71532C38.7323 5.53391 38.3695 5.44321 37.9614 5.39786ZM59.3219 17.3706C59.594 17.5067 59.8661 17.6881 60.0929 17.9149C59.8208 17.6881 59.594 17.5067 59.3219 17.3706ZM60.7732 18.5498C61.2267 19.0487 61.6348 19.5929 61.9976 20.1824C61.6802 19.5929 61.272 19.0487 60.7732 18.5498Z" fill="#649AFF"/>
<path opacity="0.64" d="M61.8164 22.0872C61.9978 22.6768 62.0885 23.3117 62.1338 23.992C62.1338 23.3117 61.9978 22.6768 61.8164 22.0872ZM66.7597 12.4727L65.2177 11.611L57.5987 7.21192L56.0567 6.35024L48.4377 1.95115L46.8957 1.08947C45.8526 0.499898 44.9003 0.409195 44.22 0.817358L35.7393 5.62461C35.059 6.03278 34.6055 6.89446 34.6055 8.07359V30.7493C34.6055 33.153 36.3288 36.1462 38.415 37.3706L39.9116 38.2777L47.576 42.6768L49.1179 43.5838L56.737 47.9829L58.2789 48.8446C59.322 49.4341 60.2744 49.5248 60.9547 49.1167L69.4354 44.2187C70.1157 43.8106 70.5692 42.9489 70.5692 41.7697V19.094C70.5692 16.6904 68.8458 13.6972 66.7597 12.4727ZM36.9637 5.39786C37.3266 5.44321 37.7347 5.57926 38.0522 5.71532C37.7347 5.53391 37.3719 5.44321 36.9637 5.39786ZM58.2789 17.3706C58.551 17.5067 58.8232 17.6881 59.0499 17.9149C58.8232 17.6881 58.5964 17.5067 58.2789 17.3706ZM59.7755 18.5498C60.2291 19.0486 60.6372 19.5929 61 20.1824C60.6826 19.5929 60.2744 19.0486 59.7755 18.5498Z" fill="#5D95FF"/>
<path opacity="0.67" d="M60.6823 48.3911C60.8637 48.1189 60.9997 47.8015 61.0451 47.484C60.9544 47.8015 60.8637 48.1189 60.6823 48.3911ZM65.7616 12.4727L64.2197 11.611L56.6006 7.21192L55.0587 6.35024L47.4396 1.95115L45.8977 1.08947C44.8546 0.499898 43.9022 0.409195 43.1766 0.817358L34.7412 5.62461C34.0609 6.03278 33.6074 6.89445 33.6074 8.11894V30.7947C33.6074 33.1983 35.3308 36.1915 37.4169 37.416L38.9589 38.2777L46.6233 42.6768L48.1199 43.5838L55.7389 47.9829L57.2809 48.8446C58.324 49.4341 59.2764 49.5248 59.9566 49.1167L68.4374 44.2187C69.1176 43.8106 69.5711 42.9489 69.5711 41.7697V19.094C69.5711 16.6904 67.8478 13.6972 65.7616 12.4727ZM35.9657 5.39786C36.3285 5.44321 36.7367 5.57926 37.0541 5.71532C36.6913 5.53391 36.3285 5.44321 35.9657 5.39786ZM57.2809 17.3706C57.553 17.5521 57.7798 17.6881 58.0519 17.9149C57.8251 17.6881 57.553 17.5067 57.2809 17.3706Z" fill="#5590FF"/>
<path opacity="0.7" d="M59.6842 48.3911C59.8656 48.1189 60.0017 47.8015 60.047 47.484C59.9563 47.8015 59.8203 48.1189 59.6842 48.3911ZM64.7182 12.4727L63.1763 11.611L55.5572 7.21192L54.0153 6.35024L46.3962 1.95115L44.8543 1.08947C43.8112 0.499898 42.8588 0.409195 42.1785 0.817358L33.7432 5.62461C33.0629 6.03278 32.6094 6.89446 32.6094 8.07359V30.7493C32.6094 33.153 34.3327 36.1462 36.4189 37.3706L37.9608 38.2323L45.5799 42.6768L47.1218 43.5838L54.7409 47.9829L56.2828 48.8446C57.3259 49.4341 58.2783 49.5248 58.9586 49.1167L67.394 44.2187C68.0742 43.8106 68.5277 42.9489 68.5277 41.7697V19.094C68.5731 16.6904 66.8497 13.6972 64.7182 12.4727ZM34.9677 5.39786C35.3305 5.44321 35.7386 5.57926 36.0561 5.71532C35.7386 5.53391 35.3305 5.44321 34.9677 5.39786ZM57.7794 18.5498C58.233 19.0486 58.6865 19.5929 59.0039 20.1824C58.6411 19.5929 58.233 19.0486 57.7794 18.5498Z" fill="#4D8BFF"/>
<path opacity="0.73" d="M58.7769 22.0871C58.9583 22.6767 59.049 23.3116 59.0943 23.9919C59.0943 23.3116 59.0036 22.6767 58.7769 22.0871ZM63.7202 12.4726L62.1782 11.611L54.5592 7.21186L53.0172 6.35018L45.3982 1.90574L43.8562 1.04406C42.8131 0.454488 41.8608 0.363785 41.1805 0.771948L32.7451 5.62456C32.0648 6.03272 31.6113 6.8944 31.6113 8.07354V30.7493C31.6113 33.1529 33.3347 36.1461 35.4209 37.3706L36.9628 38.2323L44.5818 42.6767L46.1238 43.5837L53.7428 47.9828L55.2848 48.8445C56.3279 49.4341 57.2803 49.5248 57.9605 49.1166L66.3959 44.2187C67.0762 43.8105 67.5297 42.9488 67.5297 41.7697V19.0939C67.5297 16.6903 65.8063 13.6971 63.7202 12.4726ZM33.9696 5.3978C34.3324 5.44315 34.7406 5.5792 35.058 5.71526C34.6952 5.53385 34.3324 5.44315 33.9696 5.3978ZM55.2848 17.3706C55.5569 17.5066 55.829 17.688 56.0558 17.9148C55.7837 17.688 55.5569 17.5066 55.2848 17.3706Z" fill="#4686FF"/>
<path opacity="0.76" d="M57.7792 22.0871C57.9607 22.6767 58.0514 23.3116 58.0967 23.9919C58.0967 23.3116 57.9607 22.6767 57.7792 22.0871ZM62.7226 12.4726L61.1806 11.611L53.5616 7.21186L52.0196 6.35018L44.4006 1.90574L42.8586 1.04406C41.8155 0.454488 40.8631 0.363785 40.1375 0.771948L31.7021 5.62456C31.0219 6.03272 30.5684 6.8944 30.5684 8.07354V30.7493C30.5684 33.1529 32.2917 36.1461 34.3779 37.3706L35.9198 38.2323L43.5842 42.6767L45.1262 43.5837L52.7452 47.9828L54.2872 48.8445C55.3303 49.4341 56.2826 49.5248 56.9629 49.1166L65.3983 44.2187C66.0786 43.8105 66.5321 42.9488 66.5321 41.7697V19.0939C66.5321 16.6903 64.8087 13.6971 62.7226 12.4726ZM32.9266 5.3978C33.2894 5.44315 33.6976 5.5792 34.0151 5.71526C33.6976 5.53385 33.3348 5.44315 32.9266 5.3978ZM54.2872 17.3706C54.5593 17.5066 54.8314 17.688 55.0582 17.9148C54.786 17.688 54.5593 17.5066 54.2872 17.3706ZM55.7384 18.5497C56.1919 19.0486 56.6001 19.5928 56.9629 20.1824C56.6455 19.5928 56.2373 19.0486 55.7384 18.5497Z" fill="#3E81FF"/>
<path opacity="0.79" d="M56.6451 48.391C56.8266 48.1189 56.9626 47.8014 57.008 47.484C56.9173 47.8014 56.8266 48.1189 56.6451 48.391ZM61.7245 12.4726L60.1826 11.611L52.5635 7.21186L51.0216 6.35018L43.4025 1.90574L41.8606 1.04406C40.8175 0.454488 39.8651 0.363785 39.1395 0.771948L30.7041 5.62456C30.0238 6.03272 29.5703 6.8944 29.5703 8.07354V30.7493C29.5703 33.1529 31.2937 36.1461 33.3798 37.3706L34.9218 38.2323L42.5862 42.6767L44.1281 43.5837L51.7925 47.9828L53.3345 48.8445C54.3776 49.4341 55.33 49.5248 56.0102 49.1166L64.4456 44.2187C65.1259 43.8105 65.5794 42.9488 65.5794 41.7697V19.0939C65.534 16.6903 63.8107 13.6971 61.7245 12.4726ZM31.9286 5.3978C32.2914 5.44315 32.6996 5.5792 33.017 5.71526C32.6996 5.53385 32.2914 5.44315 31.9286 5.3978ZM53.2438 17.3706C53.5159 17.5066 53.7426 17.688 54.0148 17.9148C53.788 17.688 53.5159 17.5066 53.2438 17.3706Z" fill="#367CFF"/>
<path opacity="0.82" d="M55.6471 48.3909C55.8285 48.1188 55.9646 47.8014 56.0099 47.4839C55.9192 47.8014 55.8285 48.1188 55.6471 48.3909ZM60.6811 12.4726L59.1392 11.6109L51.5201 7.2118L49.9782 6.35012L42.3591 1.90568L40.8625 0.998647C39.8194 0.409078 38.8217 0.318375 38.1414 0.726538L29.7061 5.6245C29.0258 6.03266 28.5723 6.89434 28.5723 8.07348V30.7492C28.5723 33.1528 30.2956 36.146 32.3818 37.3705L33.9237 38.2322L41.5881 42.6767L43.1301 43.5837L50.7491 47.9828L52.2911 48.8445C53.3342 49.434 54.2866 49.5247 54.9668 49.1166L63.4022 44.2186C64.0825 43.8104 64.536 42.9488 64.536 41.7696V19.0939C64.536 16.6903 62.8126 13.6971 60.6811 12.4726ZM30.9305 5.39774C31.2934 5.44309 31.7015 5.57915 32.019 5.7152C31.6562 5.53379 31.2934 5.44309 30.9305 5.39774Z" fill="#2E77FF"/>
<path opacity="0.85" d="M59.6831 12.4726L58.1411 11.611L50.5221 7.21186L48.9801 6.35018L41.3611 1.90574L39.8191 1.04406C38.776 0.454488 37.8237 0.363785 37.1434 0.771948L28.708 5.62456C28.0277 6.03272 27.5742 6.8944 27.5742 8.07354V30.7493C27.5742 33.1529 29.2976 36.1461 31.3837 37.3706L32.9257 38.2323L40.5447 42.6767L42.0867 43.5837L49.7057 47.9828L51.2477 48.8445C52.2908 49.4341 53.2432 49.5248 53.9234 49.1166L62.3588 44.2187C63.0391 43.8105 63.4926 42.9488 63.4926 41.7697V19.0939C63.4926 16.6903 61.7692 13.6971 59.6831 12.4726ZM29.8871 5.3978C30.25 5.44315 30.6581 5.5792 30.9756 5.71526C30.6581 5.53385 30.2953 5.44315 29.8871 5.3978ZM51.2477 17.3706C51.5198 17.5066 51.7919 17.688 52.0187 17.9148C51.7466 17.688 51.5198 17.5066 51.2477 17.3706Z" fill="#2772FF"/>
<path opacity="0.88" d="M53.7437 22.0871C53.9251 22.6767 54.0158 23.3116 54.0611 23.9919C54.0611 23.3116 53.9704 22.6767 53.7437 22.0871ZM58.687 12.4726L57.145 11.611L49.526 7.21186L47.984 6.35018L40.365 1.90574L38.823 1.04406C37.7799 0.454488 36.8276 0.363785 36.1473 0.771948L27.7119 5.62456C27.0316 6.03272 26.5781 6.8944 26.5781 8.07354V30.7493C26.5781 33.1529 28.3015 36.1461 30.3876 37.3706L31.9296 38.2323L39.5486 42.6767L41.0906 43.5837L48.7096 47.9828L50.2516 48.8445C51.2947 49.4341 52.2471 49.5248 52.9273 49.1166L61.3627 44.2187C62.043 43.8105 62.4965 42.9488 62.4965 41.7697V19.0939C62.4965 16.6903 60.7731 13.6971 58.687 12.4726ZM28.891 5.3978C29.2539 5.44315 29.662 5.5792 29.9795 5.71526C29.662 5.53385 29.2992 5.44315 28.891 5.3978ZM50.2516 17.3706C50.5237 17.5066 50.7958 17.688 51.0226 17.9148C50.7505 17.688 50.5237 17.5066 50.2516 17.3706ZM51.7028 18.5497C52.1564 19.0486 52.5645 19.5928 52.9273 20.1824C52.6099 19.5928 52.2017 19.0486 51.7028 18.5497Z" fill="#1F6DFF"/>
<path opacity="0.91" d="M57.6893 12.4726L56.1474 11.611L48.5284 7.21186L47.0318 6.35018L39.3674 1.90574L37.8254 1.04406C36.7823 0.454488 35.8299 0.363785 35.1043 0.771948L26.6689 5.62456C25.9887 6.03272 25.5352 6.8944 25.5352 8.07354V30.7493C25.5352 33.1529 27.2585 36.1461 29.3447 37.3706L30.8413 38.2776L38.551 42.6767L40.093 43.5837L47.712 47.9828L49.254 48.8445C50.2971 49.4341 51.2494 49.5248 51.9297 49.1166L60.3651 44.2187C61.0454 43.8105 61.4989 42.9488 61.4989 41.7697V19.0939C61.4989 16.6903 59.7755 13.6971 57.6893 12.4726ZM27.8934 5.3978C28.2562 5.44315 28.6644 5.5792 28.9819 5.71526C28.6644 5.53385 28.3016 5.44315 27.8934 5.3978Z" fill="#1768FF"/>
<path opacity="0.94" d="M51.6119 48.391C51.7933 48.1189 51.9294 47.8014 51.9748 47.484C51.884 47.8014 51.7933 48.1189 51.6119 48.391ZM56.6913 12.4726L55.1494 11.611L47.5303 7.21186L45.9884 6.35018L38.324 1.90574L36.782 1.04406C35.7389 0.454488 34.7865 0.363785 34.1063 0.771948L25.6709 5.62456C24.9906 6.03272 24.5371 6.8944 24.5371 8.11889V30.7946C24.5371 33.1983 26.2605 36.1915 28.3466 37.4159L29.8886 38.2776L37.553 42.6767L39.0496 43.5837L46.6686 47.9828L48.2106 48.8445C49.2537 49.4341 50.206 49.5248 50.8863 49.1166L59.3217 44.2187C60.002 43.8105 60.4555 42.9488 60.4555 41.7697V19.0939C60.5008 16.6903 58.7775 13.6971 56.6913 12.4726ZM26.8954 5.3978C27.2582 5.44315 27.6664 5.5792 27.9838 5.71526C27.621 5.53385 27.2582 5.44315 26.8954 5.3978ZM48.2106 17.3706C48.4827 17.552 48.7094 17.688 48.9816 17.9148C48.7548 17.688 48.4827 17.5066 48.2106 17.3706Z" fill="#0F63FF"/>
<path opacity="0.97" d="M50.6139 48.391C50.7953 48.1189 50.9314 47.8014 50.9767 47.484C50.886 47.8014 50.7499 48.1189 50.6139 48.391ZM55.6479 12.4726L54.106 11.611L46.4869 7.21186L44.945 6.35018L37.3259 1.90574L35.784 1.04406C34.7409 0.454488 33.7885 0.363785 33.1082 0.771948L24.6728 5.62456C23.9926 6.03272 23.5391 6.8944 23.5391 8.07354V30.7493C23.5391 33.1529 25.2624 36.1461 27.3486 37.3706L28.8905 38.2323L36.5096 42.6767L38.0515 43.5837L45.6706 47.9828L47.2125 48.8445C48.2556 49.4341 49.208 49.5248 49.8883 49.1166L58.3236 44.2187C59.0039 43.8105 59.4121 42.9488 59.4121 41.7243V19.0939C59.4574 16.6903 57.7794 13.6971 55.6479 12.4726ZM25.8973 5.3978C26.2602 5.44315 26.6683 5.5792 26.9858 5.71526C26.6683 5.53385 26.2602 5.44315 25.8973 5.3978Z" fill="#085EFF"/>
<path d="M49.7065 22.0871C49.888 22.6767 49.9787 23.3116 50.024 23.9919C50.024 23.3116 49.9333 22.6767 49.7065 22.0871ZM54.6499 12.4726L53.1079 11.611L45.4889 7.21186L43.9469 6.35018L36.3279 1.90574L34.7859 1.04406C33.7428 0.454488 32.7904 0.363785 32.1102 0.771948L23.6748 5.62456C22.9945 6.03272 22.541 6.8944 22.541 8.07354V30.7493C22.541 33.1529 24.2644 36.1461 26.3505 37.3706L27.8925 38.2323L35.5115 42.6767L37.0535 43.5837L44.6725 47.9828L46.2145 48.8445C47.2576 49.4341 48.2099 49.5248 48.8902 49.1166L57.3256 44.2187C58.0059 43.8105 58.4594 42.9488 58.4594 41.7697V19.0939C58.4594 16.6903 56.736 13.6971 54.6499 12.4726ZM24.8539 5.3978C25.2168 5.44315 25.6249 5.5792 25.9424 5.71526C25.6249 5.53385 25.2621 5.44315 24.8539 5.3978ZM46.1691 17.3706C46.4412 17.5066 46.7134 17.688 46.9401 17.9148C46.7134 17.688 46.4866 17.5066 46.1691 17.3706Z" fill="#0059FF"/>
</g>
<path d="M44.673 16.4635L37.0539 12.0644L35.512 11.2027L27.8929 6.80363L26.351 5.8966C25.3079 5.30703 24.3555 5.21632 23.6299 5.62449C22.9043 6.03265 22.4961 6.89433 22.4961 8.07347V30.7492C22.4961 33.1528 24.2195 36.146 26.3056 37.3705L27.8476 38.2322L35.512 42.6766L37.0539 43.5837L44.673 47.9828L46.2149 48.8444C47.258 49.434 48.2104 49.5247 48.8907 49.1166C49.5709 48.7084 50.0244 47.8467 50.0244 46.6676V23.9918C50.0244 21.5882 48.3011 18.595 46.2149 17.3705L44.673 16.4635Z" fill="#F8F8F8"/>
<path d="M54.6489 12.4726L53.1069 11.611L45.4879 7.21186L43.9459 6.35018L36.3269 1.90574L34.7849 1.04406C33.7419 0.454488 32.7895 0.363785 32.1092 0.771948L23.6738 5.62456C24.3541 5.21639 25.3065 5.26174 26.3949 5.89666L27.9369 6.75834L35.5559 11.1574L37.0979 12.0191L44.7169 16.4182L46.2589 17.2799C48.345 18.5044 50.0684 21.4522 50.0684 23.9012V46.5769C50.0684 47.8014 49.6602 48.6631 48.9346 49.0259L57.37 44.128C58.0502 43.7198 58.5038 42.8581 58.5038 41.679V19.0939C58.4584 16.6903 56.7351 13.6971 54.6489 12.4726Z" fill="url(#paint1_linear_3165_3907)"/>
<path d="M28.5273 12.1554C28.5273 13.1531 27.847 13.5613 26.9853 13.0624C26.0783 12.4729 25.4887 11.4751 25.4434 10.3867C25.4434 9.38896 26.1236 9.02615 26.9853 9.47967C27.9377 10.0692 28.4819 11.067 28.5273 12.1554Z" fill="black"/>
<path d="M47.121 44.3545C47.121 45.3522 46.4407 45.7604 45.5791 45.2615C44.672 44.6719 44.0825 43.6742 44.0371 42.5858C44.0371 41.588 44.7174 41.1799 45.5791 41.6787C46.4861 42.2683 47.0303 43.266 47.121 44.3545Z" fill="black"/>
<path d="M37.6892 20.8173L42.7232 29.5248C43.086 30.1144 43.2674 30.7947 43.3128 31.4749C43.3581 31.9738 43.1313 32.4727 42.7232 32.7448L40.8638 33.8332C40.4103 34.06 39.866 33.9693 39.4579 33.6971C38.8683 33.3343 38.4148 32.8355 38.052 32.2005L36.2833 29.162L34.5146 30.1597C34.0611 30.3865 33.5168 30.2958 33.1087 30.0237C32.5191 29.6609 32.0656 29.162 31.7028 28.5271L29.8434 25.3071C29.4806 24.7176 29.2991 24.0373 29.2538 23.357C29.2084 22.8581 29.4352 22.3593 29.798 22.0872L34.832 19.1847C35.2855 18.9579 35.8298 19.0486 36.2379 19.3207C36.8728 19.6835 37.3717 20.2278 37.6892 20.8173Z" fill="black"/>
<path d="M36.9166 28.1644C36.7805 26.7585 36.7805 25.3527 36.9166 23.9014L36.327 25.6248L35.7374 23.1758C35.8735 24.5817 35.8735 25.9876 35.7374 27.3935C35.5107 29.4343 34.9211 31.8379 33.5605 33.7427L39.0481 37.0533C37.9143 34.1962 37.1887 31.203 36.9166 28.1644Z" fill="black"/>
</g>
<defs>
<linearGradient id="paint0_linear_3165_3907" x1="0.5" y1="55.1128" x2="80.491" y2="55.1128" gradientUnits="userSpaceOnUse">
<stop stop-color="#00AAFF"/>
<stop offset="0.04" stop-color="#00A9FF"/>
<stop offset="0.35" stop-color="#00A6FF"/>
<stop offset="0.54" stop-color="#0086DD"/>
<stop offset="0.74" stop-color="#0066BA"/>
<stop offset="1" stop-color="#0041AD"/>
</linearGradient>
<linearGradient id="paint1_linear_3165_3907" x1="34.1874" y1="-0.45109" x2="59.3225" y2="43.0899" gradientUnits="userSpaceOnUse">
<stop stop-color="#F4F1F1"/>
<stop offset="0.23" stop-color="#F1EEEE"/>
<stop offset="0.4" stop-color="#E8E4E4"/>
<stop offset="0.53" stop-color="#DBD7D7"/>
<stop offset="1" stop-color="#D3D0D0"/>
</linearGradient>
<clipPath id="clip0_3165_3907">
<rect width="80" height="70.0227" fill="white" transform="translate(0.5 0.5)"/>
</clipPath>
</defs>
</svg>
