<svg width="80" height="74" viewBox="0 0 80 74" fill="none" xmlns="http://www.w3.org/2000/svg">
<g clip-path="url(#clip0_3161_543)">
<path d="M66.7574 34.5124C49.1156 24.3084 30.8844 24.3084 13.2426 34.5124C4.39909 39.5918 0 44.8072 0 49.9773C0 55.1474 4.39909 60.3174 13.2426 65.4421C30.8844 75.6462 49.1156 75.6462 66.7574 65.4421C75.6009 60.3174 80 55.1474 80 49.9773C80 44.8072 75.6009 39.5918 66.7574 34.5124Z" fill="#949494"/>
<path d="M66.7574 57.7324C49.1156 67.9365 30.8844 67.9365 13.2426 57.7324C4.39909 52.6077 0 47.4376 0 42.2676V49.9773C0 55.1474 4.39909 60.3175 13.2426 65.4422C30.8844 75.6463 49.1156 75.6463 66.7574 65.4422C75.6009 60.3175 80 55.1474 80 49.9773V42.2676C80 47.4376 75.6009 52.6077 66.7574 57.7324Z" fill="url(#paint0_linear_3161_543)"/>
<path d="M66.7574 26.803C49.1156 16.5989 30.8844 16.5989 13.2426 26.803C4.39909 31.8823 0 37.0977 0 42.2678C0 47.4379 4.39909 52.608 13.2426 57.7327C30.8844 67.9368 49.1156 67.9368 66.7574 57.7327C75.6009 52.608 80 47.4379 80 42.2678C80 37.0977 75.6009 31.8823 66.7574 26.803Z" fill="#FFDB32"/>
<mask id="mask0_3161_543" style="mask-type:luminance" maskUnits="userSpaceOnUse" x="0" y="19" width="80" height="47">
<path d="M66.7574 26.803C49.1156 16.5989 30.8844 16.5989 13.2426 26.803C4.39909 31.8823 0 37.0977 0 42.2678C0 47.4379 4.39909 52.608 13.2426 57.7327C30.8844 67.9368 49.1156 67.9368 66.7574 57.7327C75.6009 52.608 80 47.4379 80 42.2678C80 37.0977 75.6009 31.8823 66.7574 26.803Z" fill="white"/>
</mask>
<g mask="url(#mask0_3161_543)">
<path opacity="0.03" d="M69.5243 13.8325V12.6533C69.5243 12.3359 69.5696 11.9731 69.615 11.6556C69.9324 11.7917 70.2499 11.9277 70.522 12.1091C72.2454 13.1069 73.742 14.8756 74.785 16.871L69.5243 13.8325ZM91.0209 30.6125C91.0209 28.2089 89.3429 25.261 87.2567 24.0819L84.4903 22.4946V21.3155C84.4903 15.3744 80.3179 8.11819 75.1478 5.12499C72.5628 3.62839 70.2499 3.49234 68.5265 4.44472L63.9007 7.12046C62.2227 8.07284 61.1796 10.2044 61.1796 13.1522V15.7372L54.649 19.5014C53.9687 19.9096 53.5605 20.7259 53.5605 21.9504V34.9663C53.5605 37.3699 55.2386 40.3177 57.3247 41.4969L75.9642 52.2905C77.0073 52.8801 77.9596 52.9254 78.6399 52.5626L89.9324 46.032C90.6127 45.6239 91.0209 44.8075 91.0209 43.583V32.5173V30.6125Z" fill="#FFFDFA"/>
<path opacity="0.06" d="M68.4809 13.8324V12.6532C68.4809 12.3358 68.5262 11.973 68.5716 11.6555C68.889 11.7916 69.2065 11.9276 69.4786 12.109C71.202 13.1068 72.6986 14.8755 73.7416 16.8709L68.4809 13.8324ZM89.9775 30.6124C89.9775 28.2088 88.2995 25.2609 86.2133 24.0818L83.4469 22.4945V21.3154C83.4469 15.3743 79.2745 8.11809 74.1044 5.12489C71.5648 3.62829 69.2065 3.49224 67.5285 4.48997L62.9026 7.16571C61.2246 8.11809 60.1815 10.2496 60.1815 13.1975V15.7825L53.6509 19.5013C52.9707 19.9095 52.5625 20.7258 52.5625 21.9503V34.9662C52.5625 37.3698 54.2405 40.3176 56.3267 41.4968L74.9661 52.2904C76.0092 52.88 76.9616 52.9253 77.6419 52.5625L88.889 46.0319C89.5693 45.6238 89.9775 44.8074 89.9775 43.5829V32.5172V30.6124Z" fill="#FFFBF5"/>
<path opacity="0.09" d="M67.4833 13.8324V12.6532C67.4833 12.3358 67.5286 11.973 67.574 11.6555C67.8914 11.7916 68.2089 11.9276 68.481 12.109C70.2043 13.1068 71.7009 14.8755 72.744 16.8709L67.4833 13.8324ZM88.9799 30.6124C88.9799 28.2088 87.3018 25.2609 85.2157 24.0818L82.4492 22.4945V21.3154C82.4492 15.3743 78.2769 8.11809 73.1068 5.12489C70.5218 3.62829 68.2089 3.49224 66.5309 4.48997L61.905 7.16571C60.227 8.11809 59.1839 10.2496 59.1839 13.1975V15.7825L52.608 19.5013C51.9277 19.9095 51.5195 20.7258 51.5195 21.9503V34.9662C51.5195 37.3698 53.1975 40.3176 55.2837 41.4968L73.9232 52.2451C74.9662 52.8346 75.9186 52.88 76.5989 52.5172L87.8914 45.9866C88.5717 45.5784 88.9799 44.7621 88.9799 43.5376V32.5172V30.6124Z" fill="#FFF9F0"/>
<path opacity="0.12" d="M66.4852 13.8324V12.6532C66.4852 12.3358 66.5306 11.973 66.5759 11.6555C66.8934 11.7916 67.2108 11.9276 67.4829 12.109C69.2063 13.1068 70.7029 14.8755 71.746 16.8709L66.4852 13.8324ZM87.9818 30.6124C87.9818 28.2088 86.3038 25.2609 84.2176 24.0818L81.4512 22.4945V21.3154C81.4512 15.3743 77.2789 8.11809 72.1088 5.12489C69.5238 3.62829 67.2108 3.49224 65.4875 4.48997L60.8616 7.16571C59.1836 8.11809 58.1405 10.2496 58.1405 13.1975V15.7825L51.6099 19.5013C50.9296 19.9095 50.5215 20.7258 50.5215 21.9503V34.9662C50.5215 37.3698 52.1995 40.3176 54.2857 41.4968L72.9251 52.2451C73.9682 52.8346 74.9206 52.88 75.6008 52.5172L86.8934 45.9866C87.5736 45.5784 87.9818 44.7621 87.9818 43.5376V32.5172V30.6124Z" fill="#FFF7EB"/>
<path opacity="0.15" d="M65.4872 13.8325V12.6533C65.4872 12.3359 65.5325 11.9731 65.5779 11.6556C65.8953 11.7917 66.2128 11.9277 66.4849 12.1091C68.2083 13.1069 69.7048 14.8756 70.7479 16.871L65.4872 13.8325ZM86.9838 30.6125C86.9838 28.2089 85.3058 25.261 83.2196 24.0819L80.4531 22.4946V21.3155C80.4531 15.3744 76.2808 8.11819 71.1107 5.12499C68.5257 3.62839 66.2128 3.49234 64.4894 4.44472L59.8636 7.16581C58.1856 8.11819 57.1425 10.2497 57.1425 13.1976V15.7826L50.6119 19.5014C49.9316 19.9096 49.5234 20.7259 49.5234 21.9504V34.9663C49.5234 37.3699 51.2014 40.3177 53.2876 41.4969L71.9271 52.2905C72.9702 52.8801 73.9225 52.9254 74.6028 52.5626L85.8953 46.032C86.5756 45.6239 86.9838 44.8075 86.9838 43.583V32.5173V30.6125Z" fill="#FFF5E6"/>
<path opacity="0.18" d="M64.4438 13.8325V12.6533C64.4438 12.3359 64.4891 11.9731 64.5345 11.6556C64.8519 11.7917 65.1694 11.9277 65.4415 12.1091C67.1648 13.1069 68.6614 14.8756 69.7045 16.871L64.4438 13.8325ZM85.9857 30.6125C85.9857 28.2089 84.3077 25.261 82.2215 24.0819L79.4551 22.4946V21.3155C79.4551 15.3744 75.2828 8.11819 70.1127 5.12499C67.5277 3.62839 65.1694 3.49234 63.4914 4.44472L58.8655 7.12046C57.1875 8.07284 56.1444 10.2044 56.1444 13.1522V15.7372L49.6138 19.5014C48.9336 19.9096 48.5254 20.7259 48.5254 21.9504V34.9663C48.5254 37.3699 50.2034 40.3177 52.2896 41.4969L70.929 52.2905C71.9721 52.8801 72.9245 52.9254 73.6048 52.5626L84.8973 46.032C85.5775 45.6239 85.9857 44.8075 85.9857 43.583V32.5173V30.6125Z" fill="#FFF3E1"/>
<path opacity="0.21" d="M63.4461 13.8324V12.6532C63.4461 12.3358 63.4915 11.973 63.5368 11.6555C63.8543 11.7916 64.1718 11.9276 64.4439 12.109C66.1672 13.1068 67.6638 14.8755 68.7069 16.8709L63.4461 13.8324ZM84.9427 30.6124C84.9427 28.2088 83.2647 25.2609 81.1786 24.0818L78.4121 22.4945V21.3154C78.4121 15.3743 74.2398 8.11809 69.0697 5.12489C66.4847 3.62829 64.1718 3.49224 62.4484 4.48997L57.8226 7.16571C56.1446 8.11809 55.1015 10.2496 55.1015 13.1975V15.7825L48.5709 19.5013C47.8906 19.9095 47.4824 20.7258 47.4824 21.9503V34.9662C47.4824 37.3698 49.1604 40.3176 51.2466 41.4968L69.8861 52.2904C70.9291 52.88 71.8815 52.9253 72.5618 52.5625L83.8543 46.0319C84.5346 45.6238 84.9427 44.8074 84.9427 43.5829V32.5172V30.6124Z" fill="#FFF1DC"/>
<path opacity="0.24" d="M62.4481 13.8324V12.6532C62.4481 12.3358 62.4934 11.973 62.5388 11.6555C62.8563 11.7916 63.1737 11.9276 63.4458 12.109C65.1692 13.1068 66.6658 14.8755 67.7089 16.8709L62.4481 13.8324ZM83.9447 30.6124C83.9447 28.2088 82.2667 25.2609 80.1805 24.0818L77.4141 22.4945V21.3154C77.4141 15.3743 73.2417 8.11809 68.0717 5.12489C65.4866 3.62829 63.1737 3.49224 61.4504 4.48997L56.8245 7.16571C55.1465 8.11809 54.1034 10.2496 54.1034 13.1975V15.7825L47.5728 19.5013C46.8925 19.9095 46.4844 20.7258 46.4844 21.9503V34.9662C46.4844 37.3698 48.1624 40.3176 50.2485 41.4968L68.888 52.2451C69.9311 52.8346 70.8835 52.88 71.5637 52.5172L82.8563 45.9866C83.5365 45.5784 83.9447 44.7621 83.9447 43.5376V32.5172V30.6124Z" fill="#FFEFD7"/>
<path opacity="0.27" d="M61.45 13.8324V12.6532C61.45 12.3358 61.4954 11.973 61.5407 11.6555C61.8582 11.7916 62.1757 11.9276 62.4478 12.109C64.1711 13.1068 65.6677 14.8755 66.7108 16.8709L61.45 13.8324ZM82.9466 30.6124C82.9466 28.2088 81.2686 25.2609 79.1825 24.0818L76.416 22.4945V21.3154C76.416 15.3743 72.2437 8.11809 67.0736 5.12489C64.4886 3.62829 62.1757 3.49224 60.4977 4.48997L55.8718 7.16571C54.1938 8.11809 53.1507 10.2496 53.1507 13.1975V15.7825L46.5748 19.5013C45.8945 19.9095 45.4863 20.7258 45.4863 21.9503V34.9662C45.4863 37.3698 47.1643 40.3176 49.2505 41.4968L67.89 52.2904C68.933 52.88 69.8854 52.9253 70.5657 52.5625L81.8582 46.0319C82.5385 45.6238 82.9466 44.8074 82.9466 43.5829V32.5172V30.6124Z" fill="#FFECD3"/>
<path opacity="0.3" d="M60.4524 13.8325V12.6533C60.4524 12.3359 60.4978 11.9731 60.5431 11.6556C60.8606 11.7917 61.1781 11.9277 61.4502 12.1091C63.1735 13.1069 64.6701 14.8756 65.7132 16.871L60.4524 13.8325ZM81.949 30.6125C81.949 28.2089 80.271 25.261 78.1849 24.0819L75.4184 22.4946V21.3155C75.4184 15.3744 71.2461 8.11819 66.076 5.12499C63.491 3.62839 61.1781 3.49234 59.4547 4.44472L54.8288 7.12046C53.1508 8.07284 52.1078 10.2044 52.1078 13.1522V15.7372L45.5771 19.5014C44.8969 19.9096 44.4434 20.7713 44.4434 21.9504V34.9663C44.4434 37.3699 46.1214 40.3177 48.2075 41.4969L66.847 52.2905C67.8901 52.8801 68.8425 52.9254 69.5227 52.5626L80.8152 46.032C81.4955 45.6239 81.9037 44.8075 81.9037 43.583V32.5173L81.949 30.6125Z" fill="#FFEACE"/>
<path opacity="0.33" d="M59.411 13.8324V12.6532C59.411 12.3358 59.4563 11.973 59.5017 11.6555C59.8191 11.7916 60.1366 11.9276 60.4087 12.109C62.1321 13.1068 63.6287 14.8755 64.6718 16.8709L59.411 13.8324ZM80.9076 30.6124C80.9076 28.2088 79.2296 25.2609 77.1434 24.0818L74.377 22.4945V21.3154C74.377 15.3743 70.2046 8.11809 65.0346 5.12489C62.4949 3.62829 60.1366 3.49224 58.4586 4.48997L53.8328 7.16571C52.1547 8.11809 51.1117 10.2496 51.1117 13.1975V15.7825L44.5357 19.5013C43.8554 19.9095 43.4473 20.7258 43.4473 21.9503V34.9662C43.4473 37.3698 45.1253 40.3176 47.2114 41.4968L65.8509 52.2904C66.894 52.88 67.8464 52.9253 68.5266 52.5625L79.8191 46.0319C80.4994 45.6238 80.9076 44.8074 80.9076 43.5829V32.5172V30.6124Z" fill="#FFE8C9"/>
<path opacity="0.36" d="M58.4129 13.8324V12.6532C58.4129 12.3358 58.4583 11.973 58.5036 11.6555C58.8211 11.7916 59.1386 11.9276 59.4107 12.109C61.134 13.1068 62.6306 14.8755 63.6737 16.8709L58.4129 13.8324ZM79.9095 30.6124C79.9095 28.2088 78.2315 25.2609 76.1454 24.0818L73.3789 22.4945V21.3154C73.3789 15.3743 69.2066 8.11809 64.0365 5.12489C61.4515 3.62829 59.1386 3.49224 57.4606 4.48997L52.8347 7.16571C51.1567 8.11809 50.1136 10.2496 50.1136 13.1975V15.7825L43.5377 19.5013C42.8574 19.9095 42.4492 20.7258 42.4492 21.9503V34.9662C42.4492 37.3698 44.1272 40.3176 46.2134 41.4968L64.8528 52.2451C65.8959 52.8346 66.8483 52.88 67.5286 52.5172L78.8211 45.9866C79.5014 45.5784 79.9095 44.7621 79.9095 43.5376V32.5172V30.6124Z" fill="#FFE6C4"/>
<path opacity="0.39" d="M57.4149 13.8324V12.6532C57.4149 12.3358 57.4602 11.973 57.5056 11.6555C57.8231 11.7916 58.1405 11.9276 58.4126 12.109C60.136 13.1068 61.6326 14.8755 62.6757 16.8709L57.4149 13.8324ZM78.9115 30.6124C78.9115 28.2088 77.2335 25.2609 75.1473 24.0818L72.3809 22.4945V21.3154C72.3809 15.3743 68.2085 8.11809 63.0385 5.12489C60.4534 3.62829 58.1405 3.49224 56.4172 4.48997L51.7913 7.16571C50.1133 8.11809 49.0702 10.2496 49.0702 13.1975V15.7825L42.5396 19.5013C41.8593 19.9095 41.4512 20.7258 41.4512 21.9503V34.9662C41.4512 37.3698 43.1292 40.3176 45.2153 41.4968L63.8548 52.2904C64.8979 52.88 65.8503 52.9253 66.5305 52.5625L77.8231 46.0319C78.5033 45.6238 78.9115 44.8074 78.9115 43.5829V32.5172V30.6124Z" fill="#FFE4BF"/>
<path opacity="0.42" d="M56.4168 13.8325V12.6533C56.4168 12.3359 56.4622 11.9731 56.5075 11.6556C56.825 11.7917 57.1425 11.9277 57.4146 12.1091C59.1379 13.1069 60.6345 14.8756 61.6776 16.871L56.4168 13.8325ZM77.9134 30.6125C77.9134 28.2089 76.2354 25.261 74.1493 24.0819L71.3828 22.4946V21.3155C71.3828 15.3744 67.2105 8.11819 62.0404 5.12499C59.4554 3.62839 57.1425 3.49234 55.4191 4.44472L50.7933 7.16581C49.1153 8.11819 48.0722 10.2497 48.0722 13.1976V15.7826L41.5416 19.5014C40.8613 19.9096 40.4531 20.7259 40.4531 21.9504V34.9663C40.4531 37.3699 42.1311 40.3177 44.2173 41.4969L62.8568 52.2905C63.8998 52.8801 64.8522 52.9254 65.5325 52.5626L76.825 46.032C77.5053 45.6239 77.9134 44.8075 77.9134 43.583V32.5173V30.6125Z" fill="#FFE2BA"/>
<path opacity="0.45" d="M55.3739 13.8325V12.6533C55.3739 12.3359 55.4192 11.9731 55.4646 11.6556C55.782 11.7917 56.0995 11.9277 56.3716 12.1091C58.095 13.1069 59.5916 14.8756 60.6346 16.871L55.3739 13.8325ZM76.9158 30.6125C76.9158 28.2089 75.2378 25.261 73.1517 24.0819L70.3852 22.4946V21.3155C70.3852 15.3744 66.2129 8.11819 61.0428 5.12499C58.4578 3.62839 56.0995 3.49234 54.4215 4.44472L49.7956 7.12046C48.1176 8.07284 47.0746 10.2044 47.0746 13.1522V15.7372L40.4986 19.5014C39.8183 19.9096 39.4102 20.7259 39.4102 21.9504V34.9663C39.4102 37.3699 41.0882 40.3177 43.1743 41.4969L61.8138 52.2905C62.8569 52.8801 63.8092 52.9254 64.4895 52.5626L75.782 46.032C76.4623 45.6239 76.8705 44.8075 76.8705 43.583V32.5173L76.9158 30.6125Z" fill="#FFE0B5"/>
<path opacity="0.48" d="M54.3758 13.8324V12.6532C54.3758 12.3358 54.4212 11.973 54.4665 11.6555C54.784 11.7916 55.1015 11.9276 55.3736 12.109C57.0969 13.1068 58.5935 14.8755 59.6366 16.8709L54.3758 13.8324ZM75.8724 30.6124C75.8724 28.2088 74.1944 25.2609 72.1083 24.0818L69.3418 22.4945V21.3154C69.3418 15.3743 65.1695 8.11809 59.9994 5.12489C57.4144 3.62829 55.1015 3.49224 53.3781 4.48997L48.7522 7.16571C47.0742 8.11809 46.0312 10.2496 46.0312 13.1975V15.7825L39.5005 19.5013C38.8203 19.9095 38.4121 20.7258 38.4121 21.9503V34.9662C38.4121 37.3698 40.0901 40.3176 42.1763 41.4968L60.8157 52.2904C61.8588 52.88 62.8112 52.9253 63.4915 52.5625L74.784 46.0319C75.4643 45.6238 75.8724 44.8074 75.8724 43.5829V32.5172V30.6124Z" fill="#FFDEB0"/>
<path opacity="0.52" d="M53.3778 13.8324V12.6532C53.3778 12.3358 53.4231 11.973 53.4685 11.6555C53.7859 11.7916 54.1034 11.9276 54.3755 12.109C56.0989 13.1068 57.5955 14.8755 58.6386 16.8709L53.3778 13.8324ZM74.8744 30.6124C74.8744 28.2088 73.1964 25.2609 71.1102 24.0818L68.3438 22.4945V21.3154C68.3438 15.3743 64.1714 8.11809 59.0014 5.12489C56.4163 3.62829 54.1034 3.49224 52.3801 4.48997L47.7542 7.16571C46.0762 8.11809 45.0331 10.2496 45.0331 13.1975V15.7825L38.5025 19.5013C37.8222 19.9095 37.4141 20.7258 37.4141 21.9503V34.9662C37.4141 37.3698 39.0921 40.3176 41.1782 41.4968L59.8177 52.2451C60.8608 52.8346 61.8132 52.88 62.4934 52.5172L73.7859 45.9866C74.4662 45.5784 74.8744 44.7621 74.8744 43.5376V32.5172V30.6124Z" fill="#FFDCAB"/>
<path opacity="0.55" d="M52.3797 13.8324V12.6532C52.3797 12.3358 52.4251 11.973 52.4704 11.6555C52.7879 11.7916 53.1054 11.9276 53.3775 12.109C55.1008 13.1068 56.5974 14.8755 57.6405 16.8709L52.3797 13.8324ZM73.8763 30.6124C73.8763 28.2088 72.1983 25.2609 70.1122 24.0818L67.3457 22.4945V21.3154C67.3457 15.3743 63.1734 8.11809 58.0033 5.12489C55.4183 3.62829 53.1054 3.49224 51.382 4.48997L46.7561 7.16571C45.0781 8.11809 44.0351 10.2496 44.0351 13.1975V15.7825L37.5044 19.5013C36.8242 19.9095 36.416 20.7258 36.416 21.9503V34.9662C36.416 37.3698 38.094 40.3176 40.1802 41.4968L58.8196 52.2904C59.8627 52.88 60.8151 52.9253 61.4954 52.5625L72.7879 46.0319C73.4682 45.6238 73.8763 44.8074 73.8763 43.5829V32.5172V30.6124Z" fill="#FFDAA6"/>
<path opacity="0.58" d="M51.3821 13.8325V12.6533C51.3821 12.3359 51.4275 11.9731 51.4728 11.6556C51.7903 11.7917 52.1077 11.9277 52.3799 12.1091C54.1032 13.1069 55.5998 14.8756 56.6429 16.871L51.3821 13.8325ZM72.8787 30.6125C72.8787 28.2089 71.2007 25.261 69.1145 24.0819L66.3481 22.4946V21.3155C66.3481 15.3744 62.1758 8.11819 57.0057 5.12499C54.4207 3.62839 52.0624 3.49234 50.3844 4.44472L45.7585 7.12046C44.0805 8.07284 43.0374 10.2044 43.0374 13.1522V15.7372L36.4615 19.5014C35.7812 19.9096 35.373 20.7259 35.373 21.9504V34.9663C35.373 37.3699 37.0511 40.3177 39.1372 41.4969L57.7767 52.2905C58.8198 52.8801 59.7721 52.9254 60.4524 52.5626L71.7449 46.032C72.4252 45.6239 72.8334 44.8075 72.8334 43.583V32.5173V30.6125H72.8787Z" fill="#FFD8A1"/>
<path opacity="0.61" d="M50.3407 13.8324V12.6532C50.3407 12.3358 50.386 11.973 50.4314 11.6555C50.7488 11.7916 51.0663 11.9276 51.3384 12.109C53.0618 13.1068 54.5584 14.8755 55.6014 16.8709L50.3407 13.8324ZM71.8373 30.6124C71.8373 28.2088 70.1593 25.2609 68.0731 24.0818L65.3067 22.4945V21.3154C65.3067 15.3743 61.1343 8.11809 55.9643 5.12489C53.3792 3.62829 51.0663 3.49224 49.3883 4.48997L44.7624 7.16571C43.0844 8.11809 42.0413 10.2496 42.0413 13.1975V15.7825L35.4654 19.5013C34.7851 19.9095 34.377 20.7258 34.377 21.9503V34.9662C34.377 37.3698 36.055 40.3176 38.1411 41.4968L56.7806 52.2904C57.8237 52.88 58.776 52.9253 59.4563 52.5625L70.7488 46.0319C71.4291 45.6238 71.8373 44.8074 71.8373 43.5829V32.5172V30.6124Z" fill="#FFD69C"/>
<path opacity="0.64" d="M49.3426 13.8324V12.6532C49.3426 12.3358 49.388 11.973 49.4333 11.6555C49.7508 11.7916 50.0683 11.9276 50.3404 12.109C52.0637 13.1068 53.5603 14.8755 54.6034 16.8709L49.3426 13.8324ZM70.8392 30.6124C70.8392 28.2088 69.1612 25.2609 67.0751 24.0818L64.3086 22.4945V21.3154C64.3086 15.3743 60.1363 8.11809 54.9662 5.12489C52.3812 3.62829 50.0683 3.49224 48.3449 4.48997L43.719 7.16571C42.041 8.11809 40.998 10.2496 40.998 13.1975V15.7825L34.4673 19.5013C33.7871 19.9095 33.3789 20.7258 33.3789 21.9503V34.9662C33.3789 37.3698 35.0569 40.3176 37.1431 41.4968L55.7825 52.2451C56.8256 52.8346 57.778 52.88 58.4583 52.5172L69.7508 45.9866C70.4311 45.5784 70.8392 44.7621 70.8392 43.5376V32.5172V30.6124Z" fill="#FFD497"/>
<path opacity="0.67" d="M48.3446 13.8324V12.6532C48.3446 12.3358 48.3899 11.973 48.4353 11.6555C48.7527 11.7916 49.0702 11.9276 49.3423 12.109C51.0657 13.1068 52.5623 14.8755 53.6053 16.8709L48.3446 13.8324ZM69.8412 30.6124C69.8412 28.2088 68.1632 25.2609 66.077 24.0818L63.3106 22.4945V21.3154C63.3106 15.3743 59.1382 8.11809 53.9682 5.12489C51.3831 3.62829 49.0702 3.49224 47.3922 4.48997L42.7663 7.16571C41.0883 8.11809 40.0453 10.2496 40.0453 13.1975V15.7825L33.4693 19.5013C32.789 19.9095 32.3809 20.7258 32.3809 21.9503V34.9662C32.3809 37.3698 34.0589 40.3176 36.145 41.4968L54.7845 52.2904C55.8276 52.88 56.78 52.9253 57.4602 52.5625L68.7527 46.0319C69.433 45.6238 69.8412 44.8074 69.8412 43.5829V32.5172V30.6124Z" fill="#FFD292"/>
<path opacity="0.7" d="M47.347 13.8324V12.6532C47.347 12.3358 47.3923 11.973 47.4377 11.6555C47.7551 11.7916 48.0726 11.9276 48.3447 12.109C50.068 13.1068 51.5646 14.8755 52.6077 16.8709L47.347 13.8324ZM68.8436 30.6124C68.8436 28.2088 67.1656 25.2609 65.0794 24.0818L62.3129 22.4945V21.3154C62.3129 15.3743 58.1406 8.11809 52.9705 5.12489C50.3855 3.62829 48.0726 3.49224 46.3492 4.48997L41.7234 7.16571C40.0454 8.11809 39.0023 10.2496 39.0023 13.1975V15.7825L32.4263 19.5013C31.7461 19.9095 31.3379 20.7258 31.3379 21.9503V34.9662C31.3379 37.3698 33.0159 40.3176 35.1021 41.4968L53.7415 52.2904C54.7846 52.88 55.737 52.9253 56.4173 52.5625L67.7098 46.0319C68.39 45.6238 68.7982 44.8074 68.7982 43.5829V32.5172V30.6124H68.8436Z" fill="#FFD08D"/>
<path opacity="0.73" d="M46.3036 13.8325V12.6533C46.3036 12.3359 46.3489 11.9731 46.3943 11.6556C46.7117 11.7917 47.0292 11.9277 47.3013 12.1091C49.0247 13.1069 50.5212 14.8756 51.5643 16.871L46.3036 13.8325ZM67.8455 30.6125C67.8455 28.2089 66.1675 25.261 64.0813 24.0819L61.3149 22.4946V21.3155C61.3149 15.3744 57.1426 8.11819 51.9725 5.12499C49.3875 3.62839 47.0292 3.49234 45.3512 4.44472L40.7253 7.12046C39.0473 8.07284 38.0042 10.2044 38.0042 13.1522V15.7372L31.4283 19.5014C30.748 19.9096 30.3398 20.7259 30.3398 21.9504V34.9663C30.3398 37.3699 32.0178 40.3177 34.104 41.4969L52.7435 52.2905C53.7866 52.8801 54.7389 52.9254 55.4192 52.5626L66.7117 46.032C67.392 45.6239 67.8002 44.8075 67.8002 43.583V32.5173V30.6125H67.8455Z" fill="#FFCE88"/>
<path opacity="0.76" d="M45.3055 13.8324V12.6532C45.3055 12.3358 45.3509 11.973 45.3962 11.6555C45.7137 11.7916 46.0311 11.9276 46.3033 12.109C48.0266 13.1068 49.5232 14.8755 50.5663 16.8709L45.3055 13.8324ZM66.8021 30.6124C66.8021 28.2088 65.1241 25.2609 63.0379 24.0818L60.2715 22.4945V21.3154C60.2715 15.3743 56.0992 8.11809 50.9291 5.12489C48.3441 3.62829 46.0311 3.49224 44.3531 4.48997L39.7273 7.16571C38.0493 8.11809 37.0062 10.2496 37.0062 13.1975V15.7825L30.4302 19.5013C29.75 19.9095 29.3418 20.7258 29.3418 21.9503V34.9662C29.3418 37.3698 31.0198 40.3176 33.106 41.4968L51.7454 52.2904C52.7885 52.88 53.7409 52.9253 54.4212 52.5625L65.7137 46.0319C66.394 45.6238 66.8021 44.8074 66.8021 43.5829V32.5172V30.6124Z" fill="#FFCB84"/>
<path opacity="0.79" d="M44.3075 13.8325V12.6533C44.3075 12.3359 44.3528 11.9731 44.3982 11.6556C44.7156 11.7917 45.0331 11.9277 45.3052 12.1091C47.0286 13.1069 48.5252 14.8756 49.5682 16.871L44.3075 13.8325ZM65.8041 30.6125C65.8041 28.2089 64.1261 25.261 62.0399 24.0819L59.2735 22.4946V21.3155C59.2735 15.3744 55.1011 8.11819 49.9311 5.12499C47.346 3.62839 45.0331 3.49234 43.3551 4.44472L38.7292 7.12046C37.0512 8.07284 36.0082 10.2044 36.0082 13.1522V15.7372L29.4322 19.5014C28.7519 19.9096 28.3438 20.7259 28.3438 21.9504V34.9663C28.3438 37.3699 30.0218 40.3177 32.1079 41.4969L50.7474 52.2905C51.7905 52.8801 52.7428 52.9254 53.4231 52.5626L64.7156 46.032C65.3959 45.6239 65.8041 44.8075 65.8041 43.583V32.5173V30.6125Z" fill="#FFC97F"/>
<path opacity="0.82" d="M43.3094 13.8325V12.6533C43.3094 12.3359 43.3548 11.9731 43.4001 11.6556C43.7176 11.7917 44.035 11.9277 44.3072 12.1091C46.0305 13.1069 47.5271 14.8756 48.5702 16.871L43.3094 13.8325ZM64.806 30.6125C64.806 28.2089 63.128 25.261 61.0419 24.0819L58.2754 22.4946V21.3155C58.2754 15.3744 54.1031 8.11819 48.933 5.12499C46.348 3.62839 44.035 3.49234 42.3117 4.44472L37.6858 7.12046C36.0078 8.07284 34.9648 10.2044 34.9648 13.1522V15.7372L28.4341 19.5014C27.7539 19.9096 27.3457 20.7259 27.3457 21.9504V34.9663C27.3457 37.3699 29.0237 40.3177 31.1099 41.4969L49.7493 52.2905C50.7924 52.8801 51.7448 52.9254 52.4251 52.5626L63.7176 46.032C64.3979 45.6239 64.806 44.8075 64.806 43.583V32.5173V30.6125Z" fill="#FFC77A"/>
<path opacity="0.85" d="M42.2665 13.8325V12.6533C42.2665 12.3359 42.3118 11.9731 42.3572 11.6556C42.6746 11.7917 42.9921 11.9277 43.2642 12.1091C44.9875 13.1069 46.4841 14.8756 47.5272 16.871L42.2665 13.8325ZM63.7631 30.6125C63.7631 28.2089 62.0851 25.261 59.9989 24.0819L57.2324 22.4946V21.3155C57.2324 15.3744 53.0601 8.11819 47.89 5.12499C45.3504 3.62839 42.9921 3.49234 41.3141 4.44472L36.6882 7.12046C35.0102 8.07284 33.9671 10.2044 33.9671 13.1522V15.7372L27.3912 19.5014C26.7109 19.9096 26.3027 20.7259 26.3027 21.9504V34.9663C26.3027 37.3699 27.9807 40.3177 30.0669 41.4969L48.7064 52.2905C49.7494 52.8801 50.7018 52.9254 51.3821 52.5626L62.6746 46.032C63.3549 45.6239 63.7631 44.8075 63.7631 43.583V32.5173V30.6125Z" fill="#FFC575"/>
<path opacity="0.88" d="M41.2704 13.8325V12.6533C41.2704 12.3359 41.3157 11.9731 41.3611 11.6556C41.6785 11.7917 41.996 11.9277 42.2681 12.1091C43.9914 13.1069 45.488 14.8756 46.5311 16.871L41.2704 13.8325ZM62.767 30.6125C62.767 28.2089 61.089 25.261 59.0028 24.0819L56.2363 22.4946V21.3155C56.2363 15.3744 52.064 8.11819 46.8939 5.12499C44.3543 3.62839 41.996 3.49234 40.318 4.44472L35.6921 7.12046C34.0141 8.07284 32.971 10.2044 32.971 13.1522V15.7372L26.3951 19.5014C25.7148 19.9096 25.3066 20.7259 25.3066 21.9504V34.9663C25.3066 37.3699 26.9846 40.3177 29.0708 41.4969L47.7103 52.2905C48.7534 52.8801 49.7057 52.9254 50.386 52.5626L61.6785 46.032C62.3588 45.6239 62.767 44.8075 62.767 43.583V32.5173V30.6125Z" fill="#FFC370"/>
<path opacity="0.91" d="M40.2723 13.8325V12.6533C40.2723 12.3359 40.3177 11.9731 40.363 11.6556C40.6805 11.7917 40.9979 11.9277 41.27 12.1091C42.9934 13.1069 44.49 14.8756 45.5331 16.871L40.2723 13.8325ZM61.7689 30.6125C61.7689 28.2089 60.0909 25.261 58.0047 24.0819L55.2383 22.4946V21.3155C55.2383 15.3744 51.066 8.11819 45.8959 5.12499C43.3109 3.62839 40.9979 3.49234 39.3199 4.44472L34.6941 7.12046C33.0161 8.07284 31.973 10.2044 31.973 13.1522V15.7372L25.397 19.5014C24.7168 19.9096 24.3086 20.7259 24.3086 21.9504V34.9663C24.3086 37.3699 25.9866 40.3177 28.0728 41.4969L46.7122 52.2452C47.7553 52.8347 48.7077 52.8801 49.388 52.5173L60.6805 45.9867C61.3608 45.5785 61.7689 44.7622 61.7689 43.5377V32.5173V30.6125Z" fill="#FFC16B"/>
<path opacity="0.94" d="M39.2743 13.8325V12.6533C39.2743 12.3359 39.3196 11.9731 39.365 11.6556C39.6824 11.7917 39.9999 11.9277 40.272 12.1091C41.9954 13.1069 43.492 14.8756 44.535 16.871L39.2743 13.8325ZM60.7709 30.6125C60.7709 28.2089 59.0929 25.261 57.0067 24.0819L54.2403 22.4946V21.3155C54.2403 15.3744 50.0679 8.11819 44.8978 5.12499C42.3128 3.62839 39.9999 3.49234 38.2765 4.44472L33.6507 7.12046C31.9727 8.07284 30.9296 10.2044 30.9296 13.1522V15.7372L24.399 19.5014C23.7187 19.9096 23.3105 20.7259 23.3105 21.9504V34.9663C23.3105 37.3699 24.9886 40.3177 27.0747 41.4969L45.7142 52.2905C46.7573 52.8801 47.7096 52.9254 48.3899 52.5626L59.6824 46.032C60.3627 45.6239 60.7709 44.8075 60.7709 43.583V32.5173V30.6125Z" fill="#FFBF66"/>
<path opacity="0.97" d="M38.2313 13.8325V12.6533C38.2313 12.3359 38.2766 11.9731 38.322 11.6556C38.6395 11.7917 38.9569 11.9277 39.229 12.1091C40.9524 13.1069 42.449 14.8756 43.4921 16.871L38.2313 13.8325ZM59.7733 30.6125C59.7733 28.2089 58.0952 25.261 56.0091 24.0819L53.2426 22.4946V21.3155C53.2426 15.3744 49.0703 8.11819 43.9002 5.12499C41.3152 3.62839 38.9569 3.49234 37.2789 4.44472L32.6531 7.16581C30.9751 8.11819 29.932 10.2497 29.932 13.1976V15.7826L23.356 19.5014C22.6757 19.9096 22.2676 20.7259 22.2676 21.9504V34.9663C22.2676 37.3699 23.9456 40.3177 26.0318 41.4969L44.6712 52.2452C45.7143 52.8347 46.6667 52.8801 47.3469 52.5173L58.6395 45.9867C59.3197 45.5785 59.7279 44.7622 59.7279 43.5377V32.5173L59.7733 30.6125Z" fill="#FFBD61"/>
<path d="M37.2333 13.8325V12.6533C37.2333 12.3359 37.2786 11.9731 37.324 11.6556C37.6414 11.7917 37.9589 11.9277 38.231 12.1091C39.9543 13.1069 41.4509 14.8756 42.494 16.871L37.2333 13.8325ZM58.7299 30.6125C58.7299 28.2089 57.0518 25.261 54.9657 24.0819L52.1992 22.4946V21.3155C52.1992 15.3744 48.0269 8.11819 42.8568 5.12499C40.3172 3.62839 37.9589 3.49234 36.2809 4.44472L31.655 7.12046C29.977 8.07284 28.9339 10.2044 28.9339 13.1522V15.7372L22.358 19.5014C21.6777 19.9096 21.2695 20.7259 21.2695 21.9504V34.9663C21.2695 37.3699 22.9475 40.3177 25.0337 41.4969L43.6732 52.2452C44.7162 52.8347 45.6686 52.8801 46.3489 52.5173L57.6414 45.9867C58.3217 45.5785 58.7299 44.7622 58.7299 43.5377V32.5173V30.6125Z" fill="#FFBB5C"/>
</g>
<path d="M71.7916 37.7778L19.7734 44.5352V45.7597L71.7916 39.0477V37.7778Z" fill="#3C3C3B"/>
<path d="M71.6092 39.2743L40.3167 57.3696C40.0899 57.5056 39.8178 57.5056 39.591 57.3696L19.9538 46.0317C19.8178 45.9864 19.7724 45.8503 19.8178 45.7596C19.8631 45.7143 19.9085 45.6689 19.9538 45.6235L51.2464 27.5283C51.4731 27.3923 51.7452 27.3923 51.972 27.5283L71.6092 38.8662C71.7452 38.9115 71.7906 39.0476 71.7452 39.1383C71.7452 39.1836 71.6545 39.229 71.6092 39.2743Z" fill="#3C3C3B"/>
<path d="M71.6092 38.0043L40.3167 56.0996C40.0899 56.2356 39.8178 56.2356 39.591 56.0996L19.9538 44.7617C19.8178 44.7163 19.7724 44.5803 19.8178 44.4896C19.8631 44.4442 19.9085 44.3989 19.9538 44.3535L51.2464 26.2583C51.4731 26.1222 51.7452 26.1222 51.972 26.2583L71.6092 37.5962C71.7452 37.6415 71.7906 37.7776 71.7452 37.8683C71.7452 37.959 71.6545 38.0043 71.6092 38.0043Z" fill="#9D9D9C"/>
<path d="M46.8476 30.1135L46.3034 30.4763L44.6708 31.3833L44.1266 31.7008L42.4939 32.6532L41.9497 32.9706L40.317 33.923L39.7728 34.2405L38.1402 35.1928L37.5506 35.5103L35.9633 36.4173L35.3737 36.7801L33.7411 37.6872L33.1969 38.0046L31.5642 38.957L31.02 39.2745L29.3873 40.2268L28.8431 40.5443L27.2105 41.4967L26.6662 41.8142L25.0336 42.7212L24.4894 43.0386L22.3125 44.3085L24.3987 45.533L24.9429 45.8504L26.5302 46.7575L27.0744 47.0749L28.6164 47.982L29.2059 48.2994L30.7479 49.2064L31.2921 49.5239L32.834 50.4309L33.4236 50.7484L35.5098 51.9729L37.732 50.703L38.2762 50.3856L42.0857 48.2087L42.63 47.8459L55.1923 40.635L55.7365 40.3176L57.3692 39.3652L57.9134 39.0477L59.5461 38.0953L60.0903 37.7779L61.7229 36.8255L62.2672 36.508L64.444 35.2382L62.3579 34.059L61.8136 33.6962L60.2263 32.8346L59.6821 32.5171L56.0086 30.3856L55.4644 30.0681L53.8771 29.1611L53.3329 28.8436L51.2014 27.6191L46.8476 30.1135Z" fill="#3C3C3B"/>
<path d="M25.0337 43.2197L23.1289 44.3082L24.943 45.3966L26.8477 44.2628L25.0337 43.2197Z" fill="#C6C6C6"/>
<path d="M27.2114 41.9502L25.3066 43.0386L27.1207 44.1271L29.0708 43.0386L27.2114 41.9502Z" fill="white"/>
<path d="M29.3418 42.8571L31.2466 41.7687L29.3872 40.7256L27.4824 41.814L29.3418 42.8571Z" fill="white"/>
<path d="M31.5649 39.4556L29.6602 40.544L31.5196 41.5871L33.4243 40.4987L31.5649 39.4556Z" fill="white"/>
<path d="M33.7407 38.186L31.8359 39.2745L33.6954 40.3176L35.6001 39.2291L33.7407 38.186Z" fill="white"/>
<path d="M35.9634 36.916L34.0586 38.0045L35.8727 39.0929L37.7774 38.0045L35.9634 36.916Z" fill="white"/>
<path d="M38.1411 35.6465L36.2363 36.7803L38.0504 37.8234L39.9551 36.7349L38.1411 35.6465Z" fill="white"/>
<path d="M40.3169 34.3765L38.4121 35.5103L40.2262 36.5533L42.1309 35.4649L40.3169 34.3765Z" fill="white"/>
<path d="M42.4039 35.2834L44.3087 34.1949L42.4946 33.1519L40.5898 34.2403L42.4039 35.2834Z" fill="white"/>
<path d="M44.625 34.0592L46.5298 32.9254L44.6704 31.8823L42.7656 32.9708L44.625 34.0592Z" fill="white"/>
<path d="M46.8028 32.7892L48.7075 31.6554L46.8481 30.6123L44.9434 31.7007L46.8028 32.7892Z" fill="white"/>
<path d="M47.1211 30.476L48.9805 31.519L53.0621 29.1608L51.2027 28.1177L47.1211 30.476Z" fill="#C6C6C6"/>
<path d="M27.1211 44.4443L25.2617 45.5328L27.0758 46.6212L28.9805 45.4874L27.1211 44.4443Z" fill="white"/>
<path d="M29.3423 43.1748L27.4375 44.2632L29.2516 45.3517L31.1563 44.2632L29.3423 43.1748Z" fill="white"/>
<path d="M31.4293 44.0817L33.3341 42.9932L31.52 41.9048L29.6152 43.0386L31.4293 44.0817Z" fill="white"/>
<path d="M33.6958 40.6802L31.791 41.7686L33.6051 42.8117L35.5098 41.7233L33.6958 40.6802Z" fill="white"/>
<path d="M35.8735 39.4106L33.9688 40.4991L35.7828 41.5422L37.7329 40.4537L35.8735 39.4106Z" fill="white"/>
<path d="M38.0493 38.1406L36.1445 39.2291L38.0039 40.3175L39.9087 39.1837L38.0493 38.1406Z" fill="white"/>
<path d="M40.227 36.8706L38.3223 38.0044L40.1817 39.0475L42.0864 37.959L40.227 36.8706Z" fill="white"/>
<path d="M42.4028 35.6011L40.498 36.7349L42.3575 37.7779L44.2622 36.6895L42.4028 35.6011Z" fill="white"/>
<path d="M44.5348 36.508L46.4395 35.4195L44.6255 34.3765L42.7207 35.4649L44.5348 36.508Z" fill="white"/>
<path d="M46.7125 35.238L48.6173 34.1495L46.8032 33.1064L44.8984 34.1949L46.7125 35.238Z" fill="white"/>
<path d="M48.8883 34.0138L50.793 32.88L48.979 31.8369L47.0742 32.9254L48.8883 34.0138Z" fill="white"/>
<path d="M51.1567 30.5669L49.252 31.6553L51.066 32.7438L52.9708 31.6553L51.1567 30.5669Z" fill="white"/>
<path d="M53.2871 31.4738L55.1919 30.3854L53.3325 29.3423L51.4277 30.4307L53.2871 31.4738Z" fill="white"/>
<path d="M29.2524 45.6689L27.3477 46.7574L29.2071 47.8005L31.1118 46.712L29.2524 45.6689Z" fill="white"/>
<path d="M31.4282 44.3989L29.5234 45.4874L31.3828 46.5758L33.2876 45.442L31.4282 44.3989Z" fill="white"/>
<path d="M33.5606 45.3063L35.4653 44.2178L33.6059 43.1294L31.7012 44.2632L33.5606 45.3063Z" fill="white"/>
<path d="M35.7832 41.8594L33.9238 42.9932L35.7379 44.0362L37.6426 42.9478L35.7832 41.8594Z" fill="white"/>
<path d="M38.0044 40.6348L36.0996 41.7232L37.9137 42.7663L39.8184 41.6779L38.0044 40.6348Z" fill="white"/>
<path d="M40.1821 39.3652L38.2773 40.4537L40.0914 41.5421L41.9962 40.4083L40.1821 39.3652Z" fill="white"/>
<path d="M42.3579 38.0952L40.4531 39.1837L42.2672 40.2721L44.1719 39.1383L42.3579 38.0952Z" fill="white"/>
<path d="M44.5356 36.8252L42.6309 37.959L44.4903 39.0021L46.395 37.9136L44.5356 36.8252Z" fill="white"/>
<path d="M46.6661 37.7325L48.5708 36.6441L46.7114 35.5557L44.8066 36.6895L46.6661 37.7325Z" fill="white"/>
<path d="M48.8438 36.4626L50.7485 35.3741L48.8891 34.3311L46.9844 35.4195L48.8438 36.4626Z" fill="white"/>
<path d="M51.0196 35.2379L52.9243 34.1041L51.0649 33.061L49.1602 34.1495L51.0196 35.2379Z" fill="white"/>
<path d="M53.2876 31.7915L51.3828 32.8799L53.1969 33.9684L55.1016 32.8346L53.2876 31.7915Z" fill="white"/>
<path d="M55.6456 32.8344L53.4688 34.1042L55.2828 35.1473L59.3644 32.7891L55.4189 30.5215L53.5141 31.6099L55.6456 32.8344Z" fill="#C6C6C6"/>
<path d="M33.5601 45.6235L29.4785 47.9818L31.2926 49.0249L35.3742 46.6666L33.5601 45.6235Z" fill="#C6C6C6"/>
<path d="M35.6461 46.5304L37.5509 45.4419L35.7368 44.3535L33.832 45.4419L35.6461 46.5304Z" fill="white"/>
<path d="M37.9145 43.084L36.0098 44.2178L37.8692 45.2609L39.7739 44.1724L37.9145 43.084Z" fill="white"/>
<path d="M40.0903 41.8594L38.1855 42.9478L40.045 43.9909L41.9497 42.9025L40.0903 41.8594Z" fill="white"/>
<path d="M42.268 40.5894L40.3633 41.6778L42.2227 42.7209L44.1275 41.6324L42.268 40.5894Z" fill="white"/>
<path d="M44.4892 39.3198L42.5391 40.4083L44.3985 41.4967L46.3032 40.3629L44.4892 39.3198Z" fill="white"/>
<path d="M46.6665 38.0498L44.7617 39.1382L46.5758 40.2267L48.4805 39.1382L46.6665 38.0498Z" fill="white"/>
<path d="M48.7535 38.9571L50.6583 37.8687L48.8442 36.7803L46.9395 37.9141L48.7535 38.9571Z" fill="white"/>
<path d="M50.9293 37.6872L52.8341 36.5987L51.02 35.5557L49.1152 36.6441L50.9293 37.6872Z" fill="white"/>
<path d="M53.1524 36.4172L55.0118 35.3287L53.1977 34.2856L51.293 35.3741L53.1524 36.4172Z" fill="white"/>
<path d="M36.3264 48.5715L37.5055 47.8912L35.6461 46.8481L31.5645 49.2064L33.4239 50.2495L35.6007 49.025L36.3264 48.5715Z" fill="#C6C6C6"/>
<path d="M37.7769 47.755L39.6817 46.6212L37.8677 45.5781L35.9629 46.6666L37.7769 47.755Z" fill="white"/>
<path d="M40.0454 44.3086L38.1406 45.4424L39.9547 46.4855L41.8594 45.397L40.0454 44.3086Z" fill="white"/>
<path d="M42.2231 43.0386L40.3184 44.1724L42.1324 45.2154L44.0372 44.127L42.2231 43.0386Z" fill="white"/>
<path d="M44.3989 41.814L42.4941 42.9024L44.3082 43.9455L46.213 42.8571L44.3989 41.814Z" fill="white"/>
<path d="M46.5766 40.5444L44.6719 41.6329L46.5313 42.7213L48.436 41.5875L46.5766 40.5444Z" fill="white"/>
<path d="M48.7524 39.2744L46.8477 40.3629L48.7071 41.4513L50.6118 40.3175L48.7524 39.2744Z" fill="white"/>
<path d="M50.8848 40.1813L52.7896 39.0928L50.9302 38.0044L49.0254 39.1382L50.8848 40.1813Z" fill="white"/>
<path d="M53.0606 38.9118L54.9653 37.8234L53.1513 36.7803L51.2012 37.8687L53.0606 38.9118Z" fill="white"/>
<path d="M55.2379 37.6418L57.1426 36.5533L55.3286 35.5103L53.4238 36.5987L55.2379 37.6418Z" fill="white"/>
<path d="M57.4156 36.4174L61.4973 34.0591L59.6832 32.9707L55.6016 35.329L57.4156 36.4174Z" fill="#C6C6C6"/>
<path d="M35.5094 51.4738L37.4141 50.3854L35.6001 49.3423L33.6953 50.4307L35.5094 51.4738Z" fill="white"/>
<path d="M38.0499 47.8912L35.873 49.161L37.7325 50.2041L39.9093 48.9796L40.5896 48.5714L41.8141 47.8458L39.9547 46.8027L38.7302 47.483L38.0499 47.8912Z" fill="white"/>
<path d="M42.086 47.7098L54.8751 40.3175L53.061 39.2744L40.2266 46.6667L42.086 47.7098Z" fill="#C6C6C6"/>
<path d="M55.1934 40.1359L57.0982 39.0475L55.2387 38.0044L53.334 39.0928L55.1934 40.1359Z" fill="white"/>
<path d="M57.3692 38.8664L59.2739 37.7779L57.4145 36.7349L55.5098 37.8233L57.3692 38.8664Z" fill="white"/>
<path d="M59.5469 37.5964L61.4517 36.5079L59.5923 35.4648L57.6875 36.5533L59.5469 37.5964Z" fill="white"/>
<path d="M61.7242 36.3717L63.629 35.2379L61.8149 34.1948L59.9102 35.2833L61.7242 36.3717Z" fill="white"/>
<path d="M56.5995 43.492L54.4226 42.2222C54.1958 42.0861 53.9237 42.0861 53.697 42.2222L47.6199 45.7596C47.4838 45.8049 47.4385 45.941 47.4838 46.0317C47.5292 46.077 47.5745 46.1224 47.6199 46.1677L49.8421 47.4376L56.5995 43.492Z" fill="#3C3C3B"/>
<path d="M49.9766 47.5283L50.8382 48.0272C51.065 48.1632 51.3371 48.1632 51.5639 48.0272L54.5117 46.3492L53.2872 45.6235L49.9766 47.5283Z" fill="#3C3C3B"/>
<path d="M53.4688 45.4873L54.6932 46.213L57.6411 44.535C57.7771 44.4896 57.8225 44.3536 57.7771 44.2629C57.7318 44.2175 57.6864 44.1722 57.6411 44.1268L56.7794 43.6279L53.4688 45.4873Z" fill="#3C3C3B"/>
<path d="M44.6268 0.136054L44.2186 0C44.1279 0 44.0372 0 43.9465 0.0453515L12.2912 18.3673C12.1098 18.5034 12.0191 18.7755 12.1098 19.1383L18.459 43.4921C18.5951 44.0816 19.4114 44.5805 19.9103 44.3991L20.0917 44.263L15.1937 23.6735L45.3524 6.2585L44.9896 4.12698L50.4318 24.9887C50.5225 25.4422 50.8853 25.8503 51.3388 25.9864L51.5202 25.6689L44.6268 0.136054Z" fill="#3C3C3B"/>
<path d="M44.8981 0.453709L51.4741 25.6691C51.5195 25.8959 51.4288 26.1226 51.2473 26.2133L19.8641 44.3539C19.7734 44.3993 19.6374 44.3993 19.5467 44.2632C19.5467 44.2632 19.5467 44.2179 19.5013 44.2179L12.9254 18.7304C12.8347 18.5036 12.9707 18.2315 13.1521 18.1408L44.2632 0.181601C44.49 0.0455461 44.7621 0.136249 44.8981 0.363006C44.8981 0.408358 44.8981 0.408358 44.8981 0.453709Z" fill="#C6C6C6"/>
<path d="M50.0675 25.4421L20.453 42.5397L20.3623 42.2675L14.2852 18.9569L43.6729 1.99543L43.945 1.85938L50.0675 25.4421Z" fill="#3C3C3B"/>
<path d="M49.75 25.2609L45.623 27.6645L33.8316 34.4673L33.7863 34.5126L20.3623 42.2677L15.8725 25.0795L15.6457 24.1271L15.0561 21.9049L14.2852 18.9571H14.3759L14.6933 18.7303L16.0085 18.0047L27.2557 11.5194L43.6729 1.99561L49.75 25.2609Z" fill="#53B4BD"/>
<path opacity="0.2" d="M61.1332 41.6325H60.9518C60.3623 41.5872 59.7727 41.3604 59.2738 41.0883L56.462 39.8638L53.6502 38.1858L54.5573 38.8661L57.2784 40.9522L60.1355 42.6302C61.5414 43.5826 60.9972 44.5804 59.682 44.4897C59.0471 44.399 58.4575 44.1722 57.9586 43.8547L55.1922 42.4942L52.3804 40.5894L52.0629 40.3627L54.648 42.4942L57.4598 44.2175C58.775 45.2153 58.2761 46.1677 57.0516 46.077C56.4167 45.9863 55.7818 45.7595 55.2375 45.3513L52.5165 43.9001L49.7954 41.9046L48.0267 40.6348L50.6117 43.1291L52.5165 44.2175C53.6956 44.9432 53.4688 45.7595 52.5618 45.8049C52.0176 45.8049 51.4734 45.6234 51.0199 45.3513L48.4348 44.0361L44.3532 40.7255C40.3623 38.5486 38.4121 36.7799 37.5505 35.374C36.6888 35.7822 35.8725 35.7368 35.3736 35.3287L33.8316 34.467L15.6457 24.1268L15.0561 21.95L14.2852 19.0021L14.3759 18.9568L14.6933 18.7754L16.0085 18.0044L45.623 27.6643C46.2126 27.7096 46.7568 27.8003 47.3464 27.9364C48.5255 28.1631 49.6593 28.5259 50.7931 28.9795C52.5618 29.9772 54.0584 30.5668 55.8271 30.5214C57.1877 30.4761 57.9586 30.7935 58.0947 31.4284C58.14 32.5169 57.0969 32.8797 56.0539 33.1518C54.3305 33.6053 51.8362 32.8343 50.2035 32.5622L53.6049 34.9205L53.7409 35.0112L55.6457 36.3264L58.5028 38.2765L61.4507 39.7731C62.7659 40.6348 62.3577 41.6325 61.1332 41.6325Z" fill="#1D1D1B"/>
<path d="M43.311 25.4875C43.311 27.2562 41.8598 29.5238 40.091 30.5668C38.3223 31.6099 36.8711 30.975 36.8711 29.2063C36.8711 27.4376 38.3223 25.1247 40.091 24.1269C41.8598 23.1292 43.311 23.7188 43.311 25.4875Z" fill="#DADADA"/>
<path d="M55.6909 30.2946C54.421 29.7504 52.9244 30.2492 52.2441 31.4284L53.8314 32.3808L55.6909 33.5145L58.5933 35.2379L61.4051 36.4624C61.904 36.7798 62.4936 36.9613 63.0831 37.0066H63.1285C64.4437 37.052 64.9426 36.0089 63.4913 35.1472L60.5435 33.6506L57.6863 31.7005L55.6909 30.2946Z" fill="#FFC999"/>
<path opacity="0.15" d="M54.7395 31.4287L53.7871 32.3811L55.6465 33.5149L58.549 35.2382L61.3608 36.4627C61.8597 36.7802 62.4492 36.9616 63.0388 37.0069H63.0842L59.5921 35.3743L56.4628 33.3788L54.7395 31.4287Z" fill="#1D1D1B"/>
<path d="M42.2673 22.5398C41.8138 22.2223 41.2696 21.9956 40.7253 21.9049C38.6845 21.542 36.7344 22.9933 35.8727 24.5806C35.4192 25.4876 35.2832 26.3947 35.7367 27.0749L39.138 29.5693C39.4555 31.1112 41.1789 33.2427 46.5303 36.0999L47.3013 36.508C47.5734 36.4627 47.8455 36.4627 48.0723 36.4173C48.7526 36.3266 49.4328 36.1452 50.0677 35.8731C52.8342 34.83 54.5122 32.6985 55.782 30.3856L52.2446 27.9366L51.2922 27.3017L44.8523 24.0364L44.6256 23.9003L44.0814 23.5829L42.2673 22.5398Z" fill="#FFC999"/>
<path d="M57.9129 25.8503C56.1442 25.941 54.6476 25.3061 52.8789 24.3084C51.7451 23.8549 50.6114 23.4921 49.4322 23.2653C46.8925 22.7211 45.2145 23.0386 44.0807 23.5828C43.8086 23.7188 43.5365 23.8549 43.2644 24.0816C42.6748 24.4898 42.2213 25.0794 41.9492 25.7596C46.2123 30.4308 47.9356 30.5215 52.2894 27.9819C53.9674 28.254 56.4163 29.0249 58.1397 28.5714C59.2281 28.2993 60.2712 27.9365 60.1805 26.8481C60.0445 26.1678 59.2735 25.805 57.9129 25.8503Z" fill="#FFC999"/>
<path d="M54.5118 32.6076C53.1059 32.0634 52.1536 32.4716 51.2012 33.696L52.1989 34.3763L54.5572 35.9636L57.369 37.8684L60.1354 39.2289C60.6343 39.5917 61.2238 39.8185 61.8588 39.8638C63.174 39.9999 63.6728 38.9568 62.3123 38.0044L59.4551 36.3718L56.7341 34.2856L54.5118 32.6076Z" fill="#FFC999"/>
<path opacity="0.15" d="M52.2907 27.9821C48.7986 29.1159 44.9437 28.2996 42.2227 25.8506C45.3519 29.1612 49.5242 30.4311 52.9256 28.4356L52.2907 27.9821Z" fill="#1D1D1B"/>
<path opacity="0.15" d="M44.0826 23.5828L42.2685 22.5397C41.815 22.2222 41.2708 21.9955 40.7266 21.9048L43.3116 24.0817L43.8105 24.5352C44.0372 24.2631 44.3093 24.0817 44.6268 23.9456C45.4431 23.5374 46.8944 23.1293 49.434 23.356C46.8944 22.7665 45.2164 23.0386 44.0826 23.5828Z" fill="#1D1D1B"/>
<path opacity="0.15" d="M52.8799 33.6509L52.1543 34.3765L54.5126 35.9638L57.3244 37.8686L60.0908 39.2291C60.5897 39.5919 61.1792 39.8187 61.8142 39.864L57.7325 37.5511L54.9207 35.4196L52.8799 33.6509Z" fill="#1D1D1B"/>
<path d="M52.0177 33.9684C50.6571 33.3788 49.6594 33.7416 48.707 34.9661L49.3873 35.465L51.9723 37.3244L54.6934 39.3198L57.4145 40.7711C57.9587 41.1793 58.5483 41.406 59.1832 41.4967C60.4077 41.5874 60.9066 40.635 59.5914 39.6373L56.7796 37.914L54.1039 35.7371L52.0177 33.9684Z" fill="#FFC999"/>
<path opacity="0.15" d="M50.2046 34.6484L49.4336 35.4194L52.0186 37.2788L54.7397 39.2743L57.4608 40.7255C58.005 41.1337 58.5946 41.3605 59.2295 41.4512L54.8304 39.0022L51.7465 36.4171L50.2046 34.6484Z" fill="#1D1D1B"/>
<path d="M49.4776 35.2837C48.7973 34.8755 47.9356 34.9209 47.3007 35.3744C46.9832 35.6012 46.7111 35.8279 46.4844 36.1L50.566 39.4107L53.151 40.7259C53.6046 40.998 54.1488 41.1794 54.693 41.1794C55.6454 41.134 55.8268 40.3177 54.6476 39.5921L52.7429 38.5037L50.0671 35.8733L49.4776 35.2837Z" fill="#FFC999"/>
<path opacity="0.15" d="M35.8727 24.5806C35.4192 25.4876 35.2832 26.3946 35.7367 27.0749L39.138 29.5692C39.4555 31.1112 41.1789 33.2427 46.5303 36.0998L50.612 39.4105L53.197 40.7257C53.6505 40.9978 54.1947 41.1792 54.7389 41.1792C52.8342 40.2722 51.519 39.864 51.0201 38.6849C49.841 38.186 48.8433 37.3697 48.0723 36.3719C47.8002 36.0545 47.5734 35.6917 47.3467 35.3289L47.2106 35.1021C41.9045 32.7892 39.002 29.3425 40.2718 27.1656C38.4578 27.9366 37.0519 26.3946 35.8727 24.5806Z" fill="#1D1D1B"/>
<path d="M61.4521 32.2905V33.8324C61.4521 34.9662 60.7265 36.0546 59.2299 36.9163C56.282 38.6397 51.4748 38.6397 48.5269 36.9163C47.0303 36.0546 46.3047 34.9209 46.3047 33.7871V32.2451C46.3047 33.3789 47.0303 34.5127 48.5269 35.3744C51.5201 37.0977 56.282 37.0977 59.2299 35.3744C60.7265 34.5127 61.4521 33.3789 61.4521 32.2905Z" fill="#B88325"/>
<path d="M59.2292 29.1612C62.2224 30.8845 62.2224 33.651 59.2745 35.3743C56.3267 37.0977 51.5194 37.0977 48.5716 35.3743C45.6237 33.651 45.5784 30.8845 48.5262 29.1612C51.4741 27.4378 56.236 27.4378 59.2292 29.1612Z" fill="#F9B233"/>
<path d="M53.8793 35.8277C52.156 35.8731 50.4326 35.4649 48.8907 34.6486C47.7115 33.9683 47.0312 33.1067 47.0312 32.245C47.0312 31.3833 47.6662 30.5216 48.8453 29.8414C51.9746 28.2541 55.648 28.2541 58.7773 29.8414C59.9564 30.5216 60.6367 31.3833 60.6367 32.245C60.6367 33.1067 60.0018 33.9683 58.8226 34.6486C57.326 35.4649 55.6027 35.8731 53.8793 35.8277Z" fill="#B88325"/>
<path d="M53.8793 36.1905C52.156 36.2359 50.4326 35.8277 48.8907 35.0114C47.7115 34.3311 47.0312 33.4695 47.0312 32.6078C47.0312 31.7461 47.6662 30.8844 48.8453 30.2041C51.9746 28.6168 55.648 28.6168 58.7773 30.2041C59.9564 30.8844 60.6367 31.7461 60.6367 32.6078C60.6367 33.4695 60.0018 34.3311 58.8226 35.0114C57.326 35.8277 55.6027 36.2359 53.8793 36.1905Z" fill="#FFCA38"/>
<path d="M55.1925 31.3833H54.875V30.9751" fill="#B88325"/>
<path opacity="0.15" d="M18.0494 16.8252L14.6934 18.73L16.5981 17.6415L18.0494 16.8252Z" fill="#1D1D1B"/>
<path d="M27.2557 11.519L18.0494 16.8252L16.5981 17.6415L14.6934 18.7299L25.9859 24.671C25.8045 23.7639 25.8952 22.7662 26.2126 21.9045C27.2104 18.7299 30.521 15.6007 33.6503 16.0995L27.2557 11.519Z" fill="#EDEDED"/>
<path d="M33.6508 16.1451C30.4762 15.6463 27.2109 18.7302 26.2131 21.9501C25.8957 22.8571 25.8503 23.8095 25.9864 24.7165L37.5057 30.7936C37.3696 30.2041 37.3242 29.5692 37.415 28.9342C37.8685 25.8503 40.7256 21.9955 43.6735 23.4014L33.6508 16.1451Z" fill="white"/>
<path d="M41.0885 21.4964C37.9593 19.9998 34.83 24.1721 34.3312 27.4828C34.1951 28.163 34.2405 28.8433 34.4219 29.4782L21.9956 22.9476L14.4219 18.9567L14.7393 18.7753L27.2563 11.519L30.2495 13.6959L41.0885 21.4964Z" fill="#3C3C3B"/>
</g>
<defs>
<linearGradient id="paint0_linear_3161_543" x1="0" y1="57.6605" x2="80" y2="57.6605" gradientUnits="userSpaceOnUse">
<stop stop-color="#FFED44"/>
<stop offset="0.07" stop-color="#FFF047"/>
<stop offset="0.3" stop-color="#FFF24A"/>
<stop offset="0.55" stop-color="#FFE23A"/>
<stop offset="0.74" stop-color="#FFDC34"/>
<stop offset="1" stop-color="#F9B519"/>
</linearGradient>
<clipPath id="clip0_3161_543">
<rect width="80" height="73.0612" fill="white"/>
</clipPath>
</defs>
</svg>
