<?xml version="1.0" encoding="utf-8"?>
<!-- Generator: Adobe Illustrator 23.0.5, SVG Export Plug-In . SVG Version: 6.00 Build 0)  -->
<svg version="1.1" id="Layer_1" xmlns="http://www.w3.org/2000/svg" xmlns:xlink="http://www.w3.org/1999/xlink" x="0px" y="0px"
	 viewBox="0 0 80 70" style="enable-background:new 0 0 80 70;" xml:space="preserve">
<style type="text/css">
	.st0{clip-path:url(#SVGID_2_);fill:#949494;}
	.st1{clip-path:url(#SVGID_2_);fill:#2E2E2E;}
	.st2{clip-path:url(#SVGID_2_);fill:url(#SVGID_3_);}
	.st3{clip-path:url(#SVGID_2_);fill:#612E00;}
	.st4{clip-path:url(#SVGID_2_);}
	.st5{fill:#D9D9D9;}
	.st6{enable-background:new    ;}
	.st7{fill:#E6E6E6;}
	.st8{fill:#F2F2F2;}
	.st9{fill:#D4D4D4;}
	.st10{fill:#999999;}
	.st11{fill:#F0F0F0;}
	.st12{fill:#707070;}
	.st13{fill:#FFBB24;}
	.st14{fill:#4F4F4F;}
	.st15{fill:#666666;}
	.st16{fill:#2B2B2B;}
	.st17{fill:#7A7A7A;}
	.st18{clip-path:url(#SVGID_4_);fill:#595959;}
	.st19{clip-path:url(#SVGID_4_);fill:#4A4A4A;}
	.st20{fill:#FFFFFF;}
	.st21{fill:#5CBDFF;}
	.st22{fill:#BABABA;}
	.st23{fill:#DCDCDC;}
	.st24{fill:#878076;}
	.st25{opacity:0.5;fill:#AADFE6;}
	.st26{fill:#57514B;}
	.st27{fill:#E6582C;}
	.st28{fill:#5C5850;}
	.st29{fill:#FF6030;}
	.st30{fill:#86B0AB;}
	.st31{clip-path:url(#SVGID_6_);fill:#858585;}
	.st32{fill:#545454;}
	.st33{fill:#B3B3B3;}
</style>
<g>
	<defs>
		<rect id="SVGID_1_" width="80" height="69.3"/>
	</defs>
	<clipPath id="SVGID_2_">
		<use xlink:href="#SVGID_1_"  style="overflow:visible;"/>
	</clipPath>
	<path class="st0" d="M66.8,30.8c-17.6-10.2-35.9-10.2-53.5,0C4.4,35.9,0,41,0,46.3c0,5.2,4.4,10.3,13.2,15.4
		c17.6,10.2,35.9,10.2,53.5,0C75.6,56.6,80,51.4,80,46.2S75.6,35.9,66.8,30.8z"/>
	<path class="st1" d="M66.8,30.8c-17.6-10.2-35.9-10.2-53.5,0C4.4,35.9,0,41,0,46.3c0,5.2,4.4,10.3,13.2,15.4
		c17.6,10.2,35.9,10.2,53.5,0C75.6,56.6,80,51.4,80,46.2S75.6,35.9,66.8,30.8z"/>
	
		<linearGradient id="SVGID_3_" gradientUnits="userSpaceOnUse" x1="0" y1="16.06" x2="80" y2="16.06" gradientTransform="matrix(1 0 0 -1 0 70)">
		<stop  offset="0" style="stop-color:#734000"/>
		<stop  offset="0.1" style="stop-color:#784300"/>
		<stop  offset="0.3" style="stop-color:#7B4500"/>
		<stop  offset="0.55" style="stop-color:#6B3500"/>
		<stop  offset="0.74" style="stop-color:#652F00"/>
		<stop  offset="1" style="stop-color:#3B0800"/>
	</linearGradient>
	<path class="st2" d="M66.8,54c-17.6,10.2-35.9,10.2-53.5,0C4.4,48.9,0,43.7,0,38.5v7.7c0,5.2,4.4,10.3,13.2,15.4
		c17.6,10.2,35.9,10.2,53.5,0C75.6,56.6,80,51.4,80,46.2v-7.7C80,43.7,75.6,48.9,66.8,54z"/>
	<path class="st3" d="M66.8,23.1c-17.6-10.2-35.9-10.2-53.5,0C4.4,28.2,0,33.4,0,38.6S4.4,48.9,13.2,54c17.6,10.2,35.9,10.2,53.5,0
		C75.6,48.9,80,43.8,80,38.6S75.6,28.2,66.8,23.1z"/>
	<g class="st4">
		<g>
			<g>
				<path class="st5" d="M36.4,56.4c0.5,0,1-0.1,1.4-0.3l31.5-18.2c0.5-0.3,0.8-0.7,0.8-1.2c0-0.5-0.3-0.9-0.8-1.2L44.3,21
					c-0.4-0.2-0.9-0.3-1.4-0.3c-0.5,0-1,0.1-1.4,0.3L10.1,39.2c-0.5,0.3-0.8,0.7-0.8,1.2c0,0.5,0.3,0.9,0.8,1.2l25,14.6
					C35.4,56.3,35.9,56.4,36.4,56.4z"/>
			</g>
			<g>
				<g>
					<g>
						<g>
							<g>
								<g>
									<g>
										<g>
											<g>
												<g>
													<g>
														<g class="st6">
															<path class="st7" d="M18.6,43.9l17,9.9c0.5,0.3,1.4,0.3,2,0L68.3,36c0.3-0.2,0.4-0.4,0.4-0.6l0,0.9
																c0,0.2-0.1,0.4-0.4,0.6L37.6,54.7c-0.5,0.3-1.4,0.3-2,0l-17-9.9c-0.3-0.2-0.4-0.4-0.4-0.6l0-0.9
																C18.2,43.5,18.3,43.7,18.6,43.9z"/>
															<g>
																<path class="st8" d="M18.6,42.7c-0.5,0.3-0.6,0.8,0,1.1l17,9.9c0.5,0.3,1.4,0.3,2,0L68.3,36c0.5-0.3,0.6-0.8,0-1.1
																	l-17-9.9c-0.5-0.3-1.4-0.3-2,0L18.6,42.7z"/>
															</g>
														</g>
													</g>
													<g>
														<g>
															<path class="st7" d="M19.6,43c-0.5,0.3-0.5,0.7,0,1l9.8,5.7c0.5,0.3,1.2,0.3,1.6,0l30.3-17.5c0.5-0.3,0.5-0.7,0-1
																l-9.8-5.7c-0.5-0.3-1.2-0.3-1.6,0L19.6,43z"/>
														</g>
													</g>
													<g>
														<path class="st9" d="M43.3,43.2c-0.4,0.2-0.4,0.7,0,0.9l3.9,2.3c0.4,0.2,1.1,0.2,1.6,0l7-4c0.4-0.2,0.4-0.7,0-0.9
															l-3.9-2.3c-0.4-0.2-1.1-0.2-1.6,0L43.3,43.2z"/>
													</g>
												</g>
											</g>
										</g>
										<g>
											<g>
												<path class="st10" d="M23.2,43.3l-1.1,0.6c-0.1,0.1-0.4,0.1-0.5,0l-1.1-0.6c-0.1,0-0.1-0.1-0.1-0.2l0,0.3
													c0,0.1,0,0.1,0.1,0.2l1.1,0.6c0.1,0.1,0.4,0.1,0.5,0l1.1-0.6c0.1,0,0.1-0.1,0.1-0.2l0-0.3
													C23.3,43.2,23.3,43.3,23.2,43.3z"/>
												<path class="st11" d="M23.2,43c0.1,0.1,0.2,0.2,0,0.3l-1.1,0.6c-0.1,0.1-0.4,0.1-0.5,0l-1.1-0.6c-0.1-0.1-0.1-0.2,0-0.3
													l1.1-0.6c0.1-0.1,0.4-0.1,0.5,0L23.2,43z"/>
											</g>
											<g>
												<path class="st10" d="M27.3,43.4l-3,1.8c-0.1,0.1-0.4,0.1-0.5,0l-1.1-0.6c-0.1,0-0.1-0.1-0.1-0.2l0,0.3
													c0,0.1,0,0.1,0.1,0.2l1.1,0.6c0.1,0.1,0.4,0.1,0.5,0l3-1.8c0.1,0,0.1-0.1,0.1-0.2l0-0.3C27.4,43.3,27.3,43.4,27.3,43.4z
													"/>
												<path class="st11" d="M27.3,43.1c0.1,0.1,0.1,0.2,0,0.3l-3,1.8c-0.1,0.1-0.4,0.1-0.5,0l-1.1-0.6c-0.1-0.1-0.1-0.2,0-0.3
													l3-1.8c0.1-0.1,0.4-0.1,0.5,0L27.3,43.1z"/>
											</g>
											<g>
												<path class="st10" d="M28.2,45.3l-1.9,1.1c-0.1,0.1-0.4,0.1-0.5,0l-1.1-0.6c-0.1,0-0.1-0.1-0.1-0.2l0,0.3
													c0,0.1,0,0.1,0.1,0.2l1.1,0.6c0.1,0.1,0.4,0.1,0.5,0l1.9-1.1c0.1,0,0.1-0.1,0.1-0.2l0-0.3
													C28.3,45.2,28.3,45.2,28.2,45.3z"/>
												<path class="st11" d="M28.2,45c0.1,0.1,0.2,0.2,0,0.3l-1.9,1.1c-0.1,0.1-0.4,0.1-0.5,0l-1.1-0.6c-0.1-0.1-0.1-0.2,0-0.3
													l1.9-1.1c0.1-0.1,0.4-0.1,0.5,0L28.2,45z"/>
											</g>
											<g>
												<path class="st10" d="M33.6,47l-1.1,0.6l-2,1.2c-0.1,0.1-0.4,0.1-0.5,0l-1.1-0.6c-0.1,0-0.1-0.1-0.1-0.2l0,0.3
													c0,0.1,0,0.1,0.1,0.2l1.1,0.6c0.1,0.1,0.4,0.1,0.5,0l2-1.2l1.1-0.6c0.1,0,0.1-0.1,0.1-0.2l0-0.3
													C33.7,46.9,33.7,47,33.6,47z"/>
												<path class="st11" d="M33.6,46.7c0.1,0.1,0.2,0.2,0,0.3l-1.1,0.6l-2,1.2c-0.1,0.1-0.4,0.1-0.5,0l-1.1-0.6
													c-0.1-0.1-0.1-0.2,0-0.3l2-1.2l1.1-0.6c0.1-0.1,0.4-0.1,0.5,0L33.6,46.7z"/>
											</g>
											<g>
												<path class="st10" d="M37.1,45l-0.5,0.3l-1,0.6l-1.1,0.6c-0.1,0.1-0.4,0.1-0.5,0l-1.1-0.6c-0.1,0-0.1-0.1-0.1-0.2l0,0.3
													c0,0.1,0,0.1,0.1,0.2l1.1,0.6c0.1,0.1,0.4,0.1,0.5,0l1.1-0.6l1-0.6l0.5-0.3c0.1,0,0.1-0.1,0.1-0.2l0-0.3
													C37.2,44.9,37.1,45,37.1,45z"/>
												<path class="st11" d="M37.1,44.7c0.1,0.1,0.2,0.2,0,0.3l-0.5,0.3l-1,0.6l-1.1,0.6c-0.1,0.1-0.4,0.1-0.5,0l-1.1-0.6
													c-0.1-0.1-0.1-0.2,0-0.3l1.1-0.6l1-0.6l0.5-0.3c0.1-0.1,0.4-0.1,0.5,0L37.1,44.7z"/>
											</g>
											<g>
												<path class="st10" d="M46.3,39.6L38,44.4c-0.1,0.1-0.4,0.1-0.5,0l-1.1-0.6c-0.1,0-0.1-0.1-0.1-0.2l0,0.3
													c0,0.1,0,0.1,0.1,0.2l1.1,0.6c0.1,0.1,0.4,0.1,0.5,0l8.3-4.8c0.1,0,0.1-0.1,0.1-0.2l0-0.3
													C46.4,39.5,46.4,39.6,46.3,39.6z"/>
												<path class="st11" d="M46.3,39.3c0.1,0.1,0.1,0.2,0,0.3L38,44.4c-0.1,0.1-0.4,0.1-0.5,0l-1.1-0.6
													c-0.1-0.1-0.1-0.2,0-0.3l8.3-4.8c0.1-0.1,0.4-0.1,0.5,0L46.3,39.3z"/>
											</g>
											<g>
												<path class="st10" d="M49.8,37.6l-1.1,0.6l-0.4,0.2l-1.1,0.6c-0.1,0.1-0.4,0.1-0.5,0l-1.1-0.6c-0.1,0-0.1-0.1-0.1-0.2
													l0,0.3c0,0.1,0,0.1,0.1,0.2l1.1,0.6c0.1,0.1,0.4,0.1,0.5,0l1.1-0.6l0.4-0.2l1.1-0.6c0.1,0,0.1-0.1,0.1-0.2l0-0.3
													C49.9,37.5,49.8,37.6,49.8,37.6z"/>
												<path class="st11" d="M49.8,37.3c0.1,0.1,0.1,0.2,0,0.3l-1.1,0.6l-0.4,0.2l-1.1,0.6c-0.1,0.1-0.4,0.1-0.5,0l-1.1-0.6
													c-0.1-0.1-0.1-0.2,0-0.3l1.1-0.6l0.4-0.2l1.1-0.6c0.1-0.1,0.4-0.1,0.5,0L49.8,37.3z"/>
											</g>
											<g>
												<path class="st11" d="M47.6,33.7c0.1,0.1,0.2,0.2,0,0.3l-2.3,1.3c-0.1,0.1-0.4,0.1-0.5,0l-1.1-0.6
													c-0.1-0.1-0.1-0.2,0-0.3l2.3-1.3c0.1-0.1,0.4-0.1,0.5,0L47.6,33.7z"/>
												<path class="st10" d="M47.6,34l-2.3,1.3c-0.1,0.1-0.4,0.1-0.5,0l-1.1-0.6c-0.1,0-0.1-0.1-0.1-0.2l0,0.3
													c0,0.1,0,0.1,0.1,0.2l1.1,0.6c0.1,0.1,0.4,0.1,0.5,0l2.3-1.3c0.1,0,0.1-0.1,0.1-0.2l0-0.3C47.7,33.9,47.7,34,47.6,34z"
													/>
											</g>
											<g>
												<path class="st11" d="M49.6,32.5c0.1,0.1,0.2,0.2,0,0.3l-1.1,0.6c-0.1,0.1-0.4,0.1-0.5,0l-1.6-0.9
													c-0.1-0.1-0.3-0.1-0.4,0l-1.6,0.9c-0.1,0.1-0.4,0.1-0.5,0l-1.1-0.6c-0.1-0.1-0.1-0.2,0-0.3l1.1-0.6l1-0.6l1.1-0.6
													c0.1-0.1,0.4-0.1,0.5,0l1.1,0.6l1,0.6L49.6,32.5z"/>
												<path class="st10" d="M49.6,32.8l-1.1,0.6c-0.1,0.1-0.4,0.1-0.5,0l-1.6-0.9c-0.1-0.1-0.3-0.1-0.4,0l-1.6,0.9
													c-0.1,0.1-0.4,0.1-0.5,0l-1.1-0.6c-0.1,0-0.1-0.1-0.1-0.2l0,0.3c0,0.1,0,0.1,0.1,0.2l1.1,0.6c0.1,0.1,0.4,0.1,0.5,0
													l1.6-0.9c0.1-0.1,0.3-0.1,0.4,0l1.6,0.9c0.1,0.1,0.4,0.1,0.5,0l1.1-0.6c0.1,0,0.1-0.1,0.1-0.2l0-0.3
													C49.7,32.7,49.7,32.8,49.6,32.8z"/>
											</g>
											<g>
												<path class="st10" d="M48.8,29.6l-1.1,0.6c-0.1,0.1-0.4,0.1-0.5,0l-0.5-0.3c-0.1,0-0.1-0.1-0.1-0.2l0,0.3
													c0,0.1,0,0.1,0.1,0.2l0.5,0.3c0.1,0.1,0.4,0.1,0.5,0l1.1-0.6c0.1,0,0.1-0.1,0.1-0.2l0-0.3C49,29.5,48.9,29.6,48.8,29.6z
													"/>
												<path class="st11" d="M48.8,29.3c0.1,0.1,0.1,0.2,0,0.3l-1.1,0.6c-0.1,0.1-0.4,0.1-0.5,0l-0.5-0.3
													c-0.1-0.1-0.1-0.2,0-0.3l1.1-0.6c0.1-0.1,0.4-0.1,0.5,0L48.8,29.3z"/>
											</g>
											<g>
												<path class="st10" d="M50.9,28.5l-1.1,0.6c-0.1,0.1-0.4,0.1-0.5,0l-0.5-0.3c-0.1,0-0.1-0.1-0.1-0.2l0,0.3
													c0,0.1,0,0.1,0.1,0.2l0.5,0.3c0.1,0.1,0.4,0.1,0.5,0l1.1-0.6c0.1,0,0.1-0.1,0.1-0.2l0-0.3C51,28.4,50.9,28.4,50.9,28.5z
													"/>
												<path class="st11" d="M50.9,28.1c0.1,0.1,0.1,0.2,0,0.3l-1.1,0.6c-0.1,0.1-0.4,0.1-0.5,0l-0.5-0.3
													c-0.1-0.1-0.1-0.2,0-0.3l1.1-0.6c0.1-0.1,0.4-0.1,0.5,0L50.9,28.1z"/>
											</g>
											<g>
												<path class="st10" d="M52.9,27.3l-1.1,0.6c-0.1,0.1-0.4,0.1-0.5,0l-0.5-0.3c-0.1,0-0.1-0.1-0.1-0.2l0,0.3
													c0,0.1,0,0.1,0.1,0.2l0.5,0.3c0.1,0.1,0.4,0.1,0.5,0l1.1-0.6c0.1,0,0.1-0.1,0.1-0.2l0-0.3C53,27.2,53,27.2,52.9,27.3z"
													/>
												<path class="st11" d="M52.9,27c0.1,0.1,0.1,0.2,0,0.3l-1.1,0.6c-0.1,0.1-0.4,0.1-0.5,0l-0.5-0.3c-0.1-0.1-0.1-0.2,0-0.3
													l1.1-0.6c0.1-0.1,0.4-0.1,0.5,0L52.9,27z"/>
											</g>
											<g>
												<path class="st10" d="M51.3,26.4L50.2,27c-0.1,0.1-0.4,0.1-0.5,0l-0.5-0.3c-0.1,0-0.1-0.1-0.1-0.2l0,0.3
													c0,0.1,0,0.1,0.1,0.2l0.5,0.3c0.1,0.1,0.4,0.1,0.5,0l1.1-0.6c0.1,0,0.1-0.1,0.1-0.2l0-0.3
													C51.4,26.3,51.4,26.3,51.3,26.4z"/>
												<path class="st11" d="M51.3,26.1c0.1,0.1,0.1,0.2,0,0.3L50.2,27c-0.1,0.1-0.4,0.1-0.5,0l-0.5-0.3
													c-0.1-0.1-0.1-0.2,0-0.3l1.1-0.6c0.1-0.1,0.4-0.1,0.5,0L51.3,26.1z"/>
											</g>
											<g>
												<path class="st10" d="M49.3,27.5l-1.1,0.6c-0.1,0.1-0.4,0.1-0.5,0l-0.5-0.3c-0.1,0-0.1-0.1-0.1-0.2l0,0.3
													c0,0.1,0,0.1,0.1,0.2l0.5,0.3c0.1,0.1,0.4,0.1,0.5,0l1.1-0.6c0.1,0,0.1-0.1,0.1-0.2l0-0.3
													C49.4,27.4,49.4,27.5,49.3,27.5z"/>
												<path class="st11" d="M49.3,27.2c0.1,0.1,0.1,0.2,0,0.3l-1.1,0.6c-0.1,0.1-0.4,0.1-0.5,0l-0.5-0.3
													c-0.1-0.1-0.1-0.2,0-0.3l1.1-0.6c0.1-0.1,0.4-0.1,0.5,0L49.3,27.2z"/>
											</g>
											<g>
												<path class="st10" d="M47.3,28.7l-1.1,0.6c-0.1,0.1-0.4,0.1-0.5,0L45.1,29C45,29,45,28.9,45,28.9l0,0.3
													c0,0.1,0,0.1,0.1,0.2l0.5,0.3c0.1,0.1,0.4,0.1,0.5,0l1.1-0.6c0.1,0,0.1-0.1,0.1-0.2l0-0.3
													C47.4,28.6,47.3,28.7,47.3,28.7z"/>
												<path class="st11" d="M47.3,28.4c0.1,0.1,0.1,0.2,0,0.3l-1.1,0.6c-0.1,0.1-0.4,0.1-0.5,0L45.1,29
													c-0.1-0.1-0.1-0.2,0-0.3l1.1-0.6c0.1-0.1,0.4-0.1,0.5,0L47.3,28.4z"/>
											</g>
											<g>
												<path class="st10" d="M25.2,42.2l-1.1,0.6c-0.1,0.1-0.4,0.1-0.5,0l-1.1-0.6c-0.1,0-0.1-0.1-0.1-0.2l0,0.3
													c0,0.1,0,0.1,0.1,0.2l1.1,0.6c0.1,0.1,0.4,0.1,0.5,0l1.1-0.6c0.1,0,0.1-0.1,0.1-0.2l0-0.3
													C25.3,42.1,25.3,42.1,25.2,42.2z"/>
												<path class="st11" d="M25.2,41.8c0.1,0.1,0.2,0.2,0,0.3l-1.1,0.6c-0.1,0.1-0.4,0.1-0.5,0l-1.1-0.6
													c-0.1-0.1-0.1-0.2,0-0.3l1.1-0.6c0.1-0.1,0.4-0.1,0.5,0L25.2,41.8z"/>
											</g>
											<g>
												<path class="st10" d="M27.2,41l-1.1,0.6c-0.1,0.1-0.4,0.1-0.5,0L24.5,41c-0.1,0-0.1-0.1-0.1-0.2l0,0.3
													c0,0.1,0,0.1,0.1,0.2l1.1,0.6c0.1,0.1,0.4,0.1,0.5,0l1.1-0.6c0.1,0,0.1-0.1,0.1-0.2l0-0.3C27.3,40.9,27.3,40.9,27.2,41z
													"/>
												<path class="st11" d="M27.2,40.7c0.1,0.1,0.2,0.2,0,0.3l-1.1,0.6c-0.1,0.1-0.4,0.1-0.5,0L24.5,41
													c-0.1-0.1-0.1-0.2,0-0.3l1.1-0.6c0.1-0.1,0.4-0.1,0.5,0L27.2,40.7z"/>
											</g>
											<g>
												<path class="st10" d="M29.3,39.8l-1.1,0.6c-0.1,0.1-0.4,0.1-0.5,0l-1.1-0.6c-0.1,0-0.1-0.1-0.1-0.2l0,0.3
													c0,0.1,0,0.1,0.1,0.2l1.1,0.6c0.1,0.1,0.4,0.1,0.5,0l1.1-0.6c0.1,0,0.1-0.1,0.1-0.2l0-0.3
													C29.4,39.7,29.3,39.8,29.3,39.8z"/>
												<path class="st11" d="M29.2,39.5c0.1,0.1,0.2,0.2,0,0.3l-1.1,0.6c-0.1,0.1-0.4,0.1-0.5,0l-1.1-0.6
													c-0.1-0.1-0.1-0.2,0-0.3l1.1-0.6c0.1-0.1,0.4-0.1,0.5,0L29.2,39.5z"/>
											</g>
											<g>
												<path class="st10" d="M31.3,38.6l-1.1,0.6c-0.1,0.1-0.4,0.1-0.5,0l-1.1-0.6c-0.1,0-0.1-0.1-0.1-0.2l0,0.3
													c0,0.1,0,0.1,0.1,0.2l1.1,0.6c0.1,0.1,0.4,0.1,0.5,0l1.1-0.6c0.1,0,0.1-0.1,0.1-0.2l0-0.3
													C31.4,38.5,31.3,38.6,31.3,38.6z"/>
												<path class="st11" d="M31.3,38.3c0.1,0.1,0.2,0.2,0,0.3l-1.1,0.6c-0.1,0.1-0.4,0.1-0.5,0l-1.1-0.6
													c-0.1-0.1-0.1-0.2,0-0.3l1.1-0.6c0.1-0.1,0.4-0.1,0.5,0L31.3,38.3z"/>
											</g>
											<g>
												<path class="st10" d="M33.3,37.5l-1.1,0.6c-0.1,0.1-0.4,0.1-0.5,0l-1.1-0.6c-0.1,0-0.1-0.1-0.1-0.2l0,0.3
													c0,0.1,0,0.1,0.1,0.2l1.1,0.6c0.1,0.1,0.4,0.1,0.5,0l1.1-0.6c0.1,0,0.1-0.1,0.1-0.2l0-0.3
													C33.4,37.4,33.4,37.4,33.3,37.5z"/>
												<path class="st11" d="M33.3,37.1c0.1,0.1,0.2,0.2,0,0.3l-1.1,0.6c-0.1,0.1-0.4,0.1-0.5,0l-1.1-0.6
													c-0.1-0.1-0.1-0.2,0-0.3l1.1-0.6c0.1-0.1,0.4-0.1,0.5,0L33.3,37.1z"/>
											</g>
											<g>
												<path class="st10" d="M35.3,36.3l-1.1,0.6c-0.1,0.1-0.4,0.1-0.5,0l-1.1-0.6c-0.1,0-0.1-0.1-0.1-0.2l0,0.3
													c0,0.1,0,0.1,0.1,0.2l1.1,0.6c0.1,0.1,0.4,0.1,0.5,0l1.1-0.6c0.1,0,0.1-0.1,0.1-0.2l0-0.3
													C35.4,36.2,35.4,36.2,35.3,36.3z"/>
												<path class="st11" d="M35.3,36c0.1,0.1,0.2,0.2,0,0.3l-1.1,0.6c-0.1,0.1-0.4,0.1-0.5,0l-1.1-0.6c-0.1-0.1-0.1-0.2,0-0.3
													l1.1-0.6c0.1-0.1,0.4-0.1,0.5,0L35.3,36z"/>
											</g>
											<g>
												<path class="st10" d="M37.3,35.1l-1.1,0.6c-0.1,0.1-0.4,0.1-0.5,0l-1.1-0.6c-0.1,0-0.1-0.1-0.1-0.2l0,0.3
													c0,0.1,0,0.1,0.1,0.2l1.1,0.6c0.1,0.1,0.4,0.1,0.5,0l1.1-0.6c0.1,0,0.1-0.1,0.1-0.2l0-0.3C37.4,35,37.4,35.1,37.3,35.1z
													"/>
												<path class="st11" d="M37.3,34.8c0.1,0.1,0.2,0.2,0,0.3l-1.1,0.6c-0.1,0.1-0.4,0.1-0.5,0l-1.1-0.6
													c-0.1-0.1-0.1-0.2,0-0.3l1.1-0.6c0.1-0.1,0.4-0.1,0.5,0L37.3,34.8z"/>
											</g>
											<g>
												<path class="st10" d="M39.4,33.9l-1.1,0.6c-0.1,0.1-0.4,0.1-0.5,0l-1.1-0.6c-0.1,0-0.1-0.1-0.1-0.2l0,0.3
													c0,0.1,0,0.1,0.1,0.2l1.1,0.6c0.1,0.1,0.4,0.1,0.5,0l1.1-0.6c0.1,0,0.1-0.1,0.1-0.2l0-0.3
													C39.5,33.8,39.4,33.9,39.4,33.9z"/>
												<path class="st11" d="M39.4,33.6c0.1,0.1,0.2,0.2,0,0.3l-1.1,0.6c-0.1,0.1-0.4,0.1-0.5,0l-1.1-0.6
													c-0.1-0.1-0.1-0.2,0-0.3l1.1-0.6c0.1-0.1,0.4-0.1,0.5,0L39.4,33.6z"/>
											</g>
											<g>
												<path class="st10" d="M41.4,32.8l-1.1,0.6c-0.1,0.1-0.4,0.1-0.5,0l-1.1-0.6c-0.1,0-0.1-0.1-0.1-0.2l0,0.3
													c0,0.1,0,0.1,0.1,0.2l1.1,0.6c0.1,0.1,0.4,0.1,0.5,0l1.1-0.6c0.1,0,0.1-0.1,0.1-0.2l0-0.3
													C41.5,32.7,41.4,32.7,41.4,32.8z"/>
												<path class="st11" d="M41.4,32.4c0.1,0.1,0.2,0.2,0,0.3l-1.1,0.6c-0.1,0.1-0.4,0.1-0.5,0l-1.1-0.6
													c-0.1-0.1-0.1-0.2,0-0.3l1.1-0.6c0.1-0.1,0.4-0.1,0.5,0L41.4,32.4z"/>
											</g>
											<g>
												<path class="st10" d="M43.4,31.6l-1.1,0.6c-0.1,0.1-0.4,0.1-0.5,0l-1.1-0.6c-0.1,0-0.1-0.1-0.1-0.2l0,0.3
													c0,0.1,0,0.1,0.1,0.2l1.1,0.6c0.1,0.1,0.4,0.1,0.5,0l1.1-0.6c0.1,0,0.1-0.1,0.1-0.2l0-0.3
													C43.5,31.5,43.5,31.5,43.4,31.6z"/>
												<path class="st11" d="M43.4,31.3c0.1,0.1,0.2,0.2,0,0.3l-1.1,0.6c-0.1,0.1-0.4,0.1-0.5,0l-1.1-0.6
													c-0.1-0.1-0.1-0.2,0-0.3l1.1-0.6c0.1-0.1,0.4-0.1,0.5,0L43.4,31.3z"/>
											</g>
											<g>
												<path class="st10" d="M45.4,30.4L44.3,31c-0.1,0.1-0.4,0.1-0.5,0l-1.1-0.6c-0.1,0-0.1-0.1-0.1-0.2l0,0.3
													c0,0.1,0,0.1,0.1,0.2l1.1,0.6c0.1,0.1,0.4,0.1,0.5,0l1.1-0.6c0.1,0,0.1-0.1,0.1-0.2l0-0.3
													C45.5,30.3,45.5,30.4,45.4,30.4z"/>
												<path class="st11" d="M45.4,30.1c0.1,0.1,0.2,0.2,0,0.3L44.3,31c-0.1,0.1-0.4,0.1-0.5,0l-1.1-0.6
													c-0.1-0.1-0.1-0.2,0-0.3l1.1-0.6c0.1-0.1,0.4-0.1,0.5,0L45.4,30.1z"/>
											</g>
											<g>
												<path class="st10" d="M29.4,46.9l-1.1,0.6c-0.1,0.1-0.4,0.1-0.5,0l-1.1-0.6c-0.1,0-0.1-0.1-0.1-0.2l0,0.3
													c0,0.1,0,0.1,0.1,0.2l1.1,0.6c0.1,0.1,0.4,0.1,0.5,0l1.1-0.6c0.1,0,0.1-0.1,0.1-0.2l0-0.3
													C29.6,46.8,29.5,46.9,29.4,46.9z"/>
												<path class="st11" d="M29.4,46.6c0.1,0.1,0.2,0.2,0,0.3l-1.1,0.6c-0.1,0.1-0.4,0.1-0.5,0l-1.1-0.6
													c-0.1-0.1-0.1-0.2,0-0.3l1.1-0.6c0.1-0.1,0.4-0.1,0.5,0L29.4,46.6z"/>
											</g>
											<g>
												<path class="st10" d="M31.5,45.8l-1.1,0.6c-0.1,0.1-0.4,0.1-0.5,0l-1.1-0.6c-0.1,0-0.1-0.1-0.1-0.2l0,0.3
													c0,0.1,0,0.1,0.1,0.2l1.1,0.6c0.1,0.1,0.4,0.1,0.5,0l1.1-0.6c0.1,0,0.1-0.1,0.1-0.2l0-0.3
													C31.6,45.7,31.5,45.7,31.5,45.8z"/>
												<path class="st11" d="M31.5,45.5c0.1,0.1,0.2,0.2,0,0.3l-1.1,0.6c-0.1,0.1-0.4,0.1-0.5,0l-1.1-0.6
													c-0.1-0.1-0.1-0.2,0-0.3l1.1-0.6c0.1-0.1,0.4-0.1,0.5,0L31.5,45.5z"/>
											</g>
											<g>
												<path class="st10" d="M33.5,44.6l-1.1,0.6c-0.1,0.1-0.4,0.1-0.5,0l-1.1-0.6c-0.1,0-0.1-0.1-0.1-0.2l0,0.3
													c0,0.1,0,0.1,0.1,0.2l1.1,0.6c0.1,0.1,0.4,0.1,0.5,0l1.1-0.6c0.1,0,0.1-0.1,0.1-0.2l0-0.3
													C33.6,44.5,33.6,44.5,33.5,44.6z"/>
												<path class="st11" d="M33.5,44.3c0.1,0.1,0.2,0.2,0,0.3l-1.1,0.6c-0.1,0.1-0.4,0.1-0.5,0l-1.1-0.6
													c-0.1-0.1-0.1-0.2,0-0.3l1.1-0.6c0.1-0.1,0.4-0.1,0.5,0L33.5,44.3z"/>
											</g>
											<g>
												<path class="st10" d="M35.5,43.4L34.4,44c-0.1,0.1-0.4,0.1-0.5,0l-1.1-0.6c-0.1,0-0.1-0.1-0.1-0.2l0,0.3
													c0,0.1,0,0.1,0.1,0.2l1.1,0.6c0.1,0.1,0.4,0.1,0.5,0l1.1-0.6c0.1,0,0.1-0.1,0.1-0.2l0-0.3
													C35.6,43.3,35.6,43.4,35.5,43.4z"/>
												<path class="st11" d="M35.5,43.1c0.1,0.1,0.2,0.2,0,0.3L34.4,44c-0.1,0.1-0.4,0.1-0.5,0l-1.1-0.6
													c-0.1-0.1-0.1-0.2,0-0.3l1.1-0.6c0.1-0.1,0.4-0.1,0.5,0L35.5,43.1z"/>
											</g>
											<g>
												<path class="st10" d="M37.5,42.2l-1.1,0.6c-0.1,0.1-0.4,0.1-0.5,0l-1.1-0.6c-0.1,0-0.1-0.1-0.1-0.2l0,0.3
													c0,0.1,0,0.1,0.1,0.2l1.1,0.6c0.1,0.1,0.4,0.1,0.5,0l1.1-0.6c0.1,0,0.1-0.1,0.1-0.2l0-0.3
													C37.6,42.1,37.6,42.2,37.5,42.2z"/>
												<path class="st11" d="M37.5,41.9c0.1,0.1,0.2,0.2,0,0.3l-1.1,0.6c-0.1,0.1-0.4,0.1-0.5,0l-1.1-0.6
													c-0.1-0.1-0.1-0.2,0-0.3l1.1-0.6c0.1-0.1,0.4-0.1,0.5,0L37.5,41.9z"/>
											</g>
											<g>
												<path class="st10" d="M39.5,41.1l-1.1,0.6c-0.1,0.1-0.4,0.1-0.5,0l-1.1-0.6c-0.1,0-0.1-0.1-0.1-0.2l0,0.3
													c0,0.1,0,0.1,0.1,0.2l1.1,0.6c0.1,0.1,0.4,0.1,0.5,0l1.1-0.6c0.1,0,0.1-0.1,0.1-0.2l0-0.3C39.7,41,39.6,41,39.5,41.1z"
													/>
												<path class="st11" d="M39.5,40.8c0.1,0.1,0.2,0.2,0,0.3l-1.1,0.6c-0.1,0.1-0.4,0.1-0.5,0l-1.1-0.6
													c-0.1-0.1-0.1-0.2,0-0.3l1.1-0.6c0.1-0.1,0.4-0.1,0.5,0L39.5,40.8z"/>
											</g>
											<g>
												<path class="st10" d="M41.6,39.9l-1.1,0.6c-0.1,0.1-0.4,0.1-0.5,0l-1.1-0.6c-0.1,0-0.1-0.1-0.1-0.2l0,0.3
													c0,0.1,0,0.1,0.1,0.2l1.1,0.6c0.1,0.1,0.4,0.1,0.5,0l1.1-0.6c0.1,0,0.1-0.1,0.1-0.2l0-0.3
													C41.7,39.8,41.6,39.9,41.6,39.9z"/>
												<path class="st11" d="M41.6,39.6c0.1,0.1,0.2,0.2,0,0.3l-1.1,0.6c-0.1,0.1-0.4,0.1-0.5,0l-1.1-0.6
													c-0.1-0.1-0.1-0.2,0-0.3L40,39c0.1-0.1,0.4-0.1,0.5,0L41.6,39.6z"/>
											</g>
											<g>
												<path class="st10" d="M43.6,38.7l-1.1,0.6c-0.1,0.1-0.4,0.1-0.5,0l-1.1-0.6c-0.1,0-0.1-0.1-0.1-0.2l0,0.3
													c0,0.1,0,0.1,0.1,0.2l1.1,0.6c0.1,0.1,0.4,0.1,0.5,0l1.1-0.6c0.1,0,0.1-0.1,0.1-0.2l0-0.3
													C43.7,38.6,43.7,38.7,43.6,38.7z"/>
												<path class="st11" d="M43.6,38.4c0.1,0.1,0.2,0.2,0,0.3l-1.1,0.6c-0.1,0.1-0.4,0.1-0.5,0l-1.1-0.6
													c-0.1-0.1-0.1-0.2,0-0.3l1.1-0.6c0.1-0.1,0.4-0.1,0.5,0L43.6,38.4z"/>
											</g>
											<g>
												<path class="st10" d="M45.6,37.5l-1.1,0.6c-0.1,0.1-0.4,0.1-0.5,0l-1.1-0.6c-0.1,0-0.1-0.1-0.1-0.2l0,0.3
													c0,0.1,0,0.1,0.1,0.2l1.1,0.6c0.1,0.1,0.4,0.1,0.5,0l1.1-0.6c0.1,0,0.1-0.1,0.1-0.2l0-0.3
													C45.7,37.4,45.7,37.5,45.6,37.5z"/>
												<path class="st11" d="M45.6,37.2c0.1,0.1,0.2,0.2,0,0.3l-1.1,0.6c-0.1,0.1-0.4,0.1-0.5,0l-1.1-0.6
													c-0.1-0.1-0.1-0.2,0-0.3l1.1-0.6c0.1-0.1,0.4-0.1,0.5,0L45.6,37.2z"/>
											</g>
											<g>
												<path class="st10" d="M47.6,36.4L46.6,37c-0.1,0.1-0.4,0.1-0.5,0l-1.1-0.6c-0.1,0-0.1-0.1-0.1-0.2l0,0.3
													c0,0.1,0,0.1,0.1,0.2l1.1,0.6c0.1,0.1,0.4,0.1,0.5,0l1.1-0.6c0.1,0,0.1-0.1,0.1-0.2l0-0.3
													C47.7,36.3,47.7,36.3,47.6,36.4z"/>
												<path class="st11" d="M47.6,36.1c0.1,0.1,0.2,0.2,0,0.3L46.6,37c-0.1,0.1-0.4,0.1-0.5,0l-1.1-0.6
													c-0.1-0.1-0.1-0.2,0-0.3l1.1-0.6c0.1-0.1,0.4-0.1,0.5,0L47.6,36.1z"/>
											</g>
											<g>
												<path class="st10" d="M49.7,35.2l-1.1,0.6c-0.1,0.1-0.4,0.1-0.5,0L47,35.2c-0.1,0-0.1-0.1-0.1-0.2l0,0.3
													c0,0.1,0,0.1,0.1,0.2l1.1,0.6c0.1,0.1,0.4,0.1,0.5,0l1.1-0.6c0.1,0,0.1-0.1,0.1-0.2l0-0.3
													C49.8,35.1,49.7,35.2,49.7,35.2z"/>
												<path class="st11" d="M49.7,34.9c0.1,0.1,0.2,0.2,0,0.3l-1.1,0.6c-0.1,0.1-0.4,0.1-0.5,0L47,35.2
													c-0.1-0.1-0.1-0.2,0-0.3l1.1-0.6c0.1-0.1,0.4-0.1,0.5,0L49.7,34.9z"/>
											</g>
											<g>
												<path class="st10" d="M51.7,34l-1.1,0.6c-0.1,0.1-0.4,0.1-0.5,0L49,34c-0.1,0-0.1-0.1-0.1-0.2l0,0.3
													c0,0.1,0,0.1,0.1,0.2l1.1,0.6c0.1,0.1,0.4,0.1,0.5,0l1.1-0.6c0.1,0,0.1-0.1,0.1-0.2l0-0.3C51.8,33.9,51.7,34,51.7,34z"
													/>
												<path class="st11" d="M51.7,33.7c0.1,0.1,0.2,0.2,0,0.3l-1.1,0.6c-0.1,0.1-0.4,0.1-0.5,0L49,34c-0.1-0.1-0.1-0.2,0-0.3
													l1.1-0.6c0.1-0.1,0.4-0.1,0.5,0L51.7,33.7z"/>
											</g>
											<g>
												<path class="st10" d="M51.8,36.4l-1.1,0.6c-0.1,0.1-0.4,0.1-0.5,0l-1.1-0.6c-0.1,0-0.1-0.1-0.1-0.2l0,0.3
													c0,0.1,0,0.1,0.1,0.2l1.1,0.6c0.1,0.1,0.4,0.1,0.5,0l1.1-0.6c0.1,0,0.1-0.1,0.1-0.2l0-0.3
													C51.9,36.3,51.9,36.4,51.8,36.4z"/>
												<path class="st11" d="M51.8,36.1c0.1,0.1,0.2,0.2,0,0.3l-1.1,0.6c-0.1,0.1-0.4,0.1-0.5,0l-1.1-0.6
													c-0.1-0.1-0.1-0.2,0-0.3l1.1-0.6c0.1-0.1,0.4-0.1,0.5,0L51.8,36.1z"/>
											</g>
											<g>
												<path class="st10" d="M53.8,35.3l-1.1,0.6c-0.1,0.1-0.4,0.1-0.5,0l-1.1-0.6c-0.1,0-0.1-0.1-0.1-0.2l0,0.3
													c0,0.1,0,0.1,0.1,0.2l1.1,0.6c0.1,0.1,0.4,0.1,0.5,0l1.1-0.6c0.1,0,0.1-0.1,0.1-0.2l0-0.3
													C53.9,35.2,53.9,35.2,53.8,35.3z"/>
												<path class="st11" d="M53.8,34.9c0.1,0.1,0.2,0.2,0,0.3l-1.1,0.6c-0.1,0.1-0.4,0.1-0.5,0l-1.1-0.6
													c-0.1-0.1-0.1-0.2,0-0.3l1.1-0.6c0.1-0.1,0.4-0.1,0.5,0L53.8,34.9z"/>
											</g>
											<g>
												<path class="st10" d="M56.2,33.9l-1.1,0.6c-0.1,0.1-0.4,0.1-0.5,0l-1.1-0.6c-0.1,0-0.1-0.1-0.1-0.2l0,0.3
													c0,0.1,0,0.1,0.1,0.2l1.1,0.6c0.1,0.1,0.4,0.1,0.5,0l1.1-0.6c0.1,0,0.1-0.1,0.1-0.2l0-0.3
													C56.3,33.8,56.3,33.8,56.2,33.9z"/>
												<path class="st11" d="M56.2,33.6c0.1,0.1,0.2,0.2,0,0.3l-1.1,0.6c-0.1,0.1-0.4,0.1-0.5,0l-1.1-0.6
													c-0.1-0.1-0.1-0.2,0-0.3l1.1-0.6c0.1-0.1,0.4-0.1,0.5,0L56.2,33.6z"/>
											</g>
											<g>
												<path class="st10" d="M58.2,32.7l-1.1,0.6c-0.1,0.1-0.4,0.1-0.5,0l-1.1-0.6c-0.1,0-0.1-0.1-0.1-0.2l0,0.3
													c0,0.1,0,0.1,0.1,0.2l1.1,0.6c0.1,0.1,0.4,0.1,0.5,0l1.1-0.6c0.1,0,0.1-0.1,0.1-0.2l0-0.3
													C58.3,32.6,58.3,32.7,58.2,32.7z"/>
												<path class="st11" d="M58.2,32.4c0.1,0.1,0.2,0.2,0,0.3l-1.1,0.6c-0.1,0.1-0.4,0.1-0.5,0l-1.1-0.6
													c-0.1-0.1-0.1-0.2,0-0.3l1.1-0.6c0.1-0.1,0.4-0.1,0.5,0L58.2,32.4z"/>
											</g>
											<g>
												<path class="st10" d="M60.2,31.5l-1.1,0.6c-0.1,0.1-0.4,0.1-0.5,0l-1.1-0.6c-0.1,0-0.1-0.1-0.1-0.2l0,0.3
													c0,0.1,0,0.1,0.1,0.2l1.1,0.6c0.1,0.1,0.4,0.1,0.5,0l1.1-0.6c0.1,0,0.1-0.1,0.1-0.2l0-0.3
													C60.3,31.4,60.3,31.5,60.2,31.5z"/>
												<path class="st11" d="M60.2,31.2c0.1,0.1,0.2,0.2,0,0.3l-1.1,0.6c-0.1,0.1-0.4,0.1-0.5,0l-1.1-0.6
													c-0.1-0.1-0.1-0.2,0-0.3l1.1-0.6c0.1-0.1,0.4-0.1,0.5,0L60.2,31.2z"/>
											</g>
											<g>
												<path class="st10" d="M56.1,31.5L55,32.1c-0.1,0.1-0.4,0.1-0.5,0l-1.1-0.6c-0.1,0-0.1-0.1-0.1-0.2l0,0.3
													c0,0.1,0,0.1,0.1,0.2l1.1,0.6c0.1,0.1,0.4,0.1,0.5,0l1.1-0.6c0.1,0,0.1-0.1,0.1-0.2l0-0.3
													C56.2,31.4,56.2,31.4,56.1,31.5z"/>
												<path class="st11" d="M56.1,31.2c0.1,0.1,0.2,0.2,0,0.3L55,32.1c-0.1,0.1-0.4,0.1-0.5,0l-1.1-0.6
													c-0.1-0.1-0.1-0.2,0-0.3l1.1-0.6c0.1-0.1,0.4-0.1,0.5,0L56.1,31.2z"/>
											</g>
											<g>
												<path class="st10" d="M29.3,42.2l-1.1,0.6c-0.1,0.1-0.4,0.1-0.5,0l-1.1-0.6c-0.1,0-0.1-0.1-0.1-0.2l0,0.3
													c0,0.1,0,0.1,0.1,0.2l1.1,0.6c0.1,0.1,0.4,0.1,0.5,0l1.1-0.6c0.1,0,0.1-0.1,0.1-0.2l0-0.3
													C29.4,42.1,29.4,42.2,29.3,42.2z"/>
												<path class="st11" d="M29.3,41.9c0.1,0.1,0.2,0.2,0,0.3l-1.1,0.6c-0.1,0.1-0.4,0.1-0.5,0l-1.1-0.6
													c-0.1-0.1-0.1-0.2,0-0.3l1.1-0.6c0.1-0.1,0.4-0.1,0.5,0L29.3,41.9z"/>
											</g>
											<g>
												<path class="st10" d="M31.3,41.1l-1.1,0.6c-0.1,0.1-0.4,0.1-0.5,0l-1.1-0.6c-0.1,0-0.1-0.1-0.1-0.2l0,0.3
													c0,0.1,0,0.1,0.1,0.2l1.1,0.6c0.1,0.1,0.4,0.1,0.5,0l1.1-0.6c0.1,0,0.1-0.1,0.1-0.2l0-0.3C31.4,41,31.4,41,31.3,41.1z"
													/>
												<path class="st11" d="M31.3,40.7c0.1,0.1,0.2,0.2,0,0.3l-1.1,0.6c-0.1,0.1-0.4,0.1-0.5,0l-1.1-0.6
													c-0.1-0.1-0.1-0.2,0-0.3l1.1-0.6c0.1-0.1,0.4-0.1,0.5,0L31.3,40.7z"/>
											</g>
											<g>
												<path class="st10" d="M33.3,39.9l-1.1,0.6c-0.1,0.1-0.4,0.1-0.5,0l-1.1-0.6c-0.1,0-0.1-0.1-0.1-0.2l0,0.3
													c0,0.1,0,0.1,0.1,0.2l1.1,0.6c0.1,0.1,0.4,0.1,0.5,0l1.1-0.6c0.1,0,0.1-0.1,0.1-0.2l0-0.3
													C33.4,39.8,33.4,39.8,33.3,39.9z"/>
												<path class="st11" d="M33.3,39.6c0.1,0.1,0.2,0.2,0,0.3l-1.1,0.6c-0.1,0.1-0.4,0.1-0.5,0l-1.1-0.6
													c-0.1-0.1-0.1-0.2,0-0.3l1.1-0.6c0.1-0.1,0.4-0.1,0.5,0L33.3,39.6z"/>
											</g>
											<g>
												<path class="st10" d="M35.3,38.7l-1.1,0.6c-0.1,0.1-0.4,0.1-0.5,0l-1.1-0.6c-0.1,0-0.1-0.1-0.1-0.2l0,0.3
													c0,0.1,0,0.1,0.1,0.2l1.1,0.6c0.1,0.1,0.4,0.1,0.5,0l1.1-0.6c0.1,0,0.1-0.1,0.1-0.2l0-0.3
													C35.5,38.6,35.4,38.7,35.3,38.7z"/>
												<path class="st11" d="M35.3,38.4c0.1,0.1,0.2,0.2,0,0.3l-1.1,0.6c-0.1,0.1-0.4,0.1-0.5,0l-1.1-0.6
													c-0.1-0.1-0.1-0.2,0-0.3l1.1-0.6c0.1-0.1,0.4-0.1,0.5,0L35.3,38.4z"/>
											</g>
											<g>
												<path class="st10" d="M37.4,37.5l-1.1,0.6c-0.1,0.1-0.4,0.1-0.5,0l-1.1-0.6c-0.1,0-0.1-0.1-0.1-0.2l0,0.3
													c0,0.1,0,0.1,0.1,0.2l1.1,0.6c0.1,0.1,0.4,0.1,0.5,0l1.1-0.6c0.1,0,0.1-0.1,0.1-0.2l0-0.3
													C37.5,37.4,37.4,37.5,37.4,37.5z"/>
												<path class="st11" d="M37.4,37.2c0.1,0.1,0.2,0.2,0,0.3l-1.1,0.6c-0.1,0.1-0.4,0.1-0.5,0l-1.1-0.6
													c-0.1-0.1-0.1-0.2,0-0.3l1.1-0.6c0.1-0.1,0.4-0.1,0.5,0L37.4,37.2z"/>
											</g>
											<g>
												<path class="st10" d="M39.4,36.4L38.3,37c-0.1,0.1-0.4,0.1-0.5,0l-1.1-0.6c-0.1,0-0.1-0.1-0.1-0.2l0,0.3
													c0,0.1,0,0.1,0.1,0.2l1.1,0.6c0.1,0.1,0.4,0.1,0.5,0l1.1-0.6c0.1,0,0.1-0.1,0.1-0.2l0-0.3
													C39.5,36.3,39.5,36.3,39.4,36.4z"/>
												<path class="st11" d="M39.4,36c0.1,0.1,0.2,0.2,0,0.3L38.3,37c-0.1,0.1-0.4,0.1-0.5,0l-1.1-0.6c-0.1-0.1-0.1-0.2,0-0.3
													l1.1-0.6c0.1-0.1,0.4-0.1,0.5,0L39.4,36z"/>
											</g>
											<g>
												<path class="st10" d="M41.4,35.2l-1.1,0.6c-0.1,0.1-0.4,0.1-0.5,0l-1.1-0.6c-0.1,0-0.1-0.1-0.1-0.2l0,0.3
													c0,0.1,0,0.1,0.1,0.2l1.1,0.6c0.1,0.1,0.4,0.1,0.5,0l1.1-0.6c0.1,0,0.1-0.1,0.1-0.2l0-0.3
													C41.5,35.1,41.5,35.1,41.4,35.2z"/>
												<path class="st11" d="M41.4,34.9c0.1,0.1,0.2,0.2,0,0.3l-1.1,0.6c-0.1,0.1-0.4,0.1-0.5,0l-1.1-0.6
													c-0.1-0.1-0.1-0.2,0-0.3l1.1-0.6c0.1-0.1,0.4-0.1,0.5,0L41.4,34.9z"/>
											</g>
											<g>
												<path class="st10" d="M43.4,34l-1.1,0.6c-0.1,0.1-0.4,0.1-0.5,0L40.7,34c-0.1,0-0.1-0.1-0.1-0.2l0,0.3
													c0,0.1,0,0.1,0.1,0.2l1.1,0.6c0.1,0.1,0.4,0.1,0.5,0l1.1-0.6c0.1,0,0.1-0.1,0.1-0.2l0-0.3C43.5,33.9,43.5,34,43.4,34z"
													/>
												<path class="st11" d="M43.4,33.7c0.1,0.1,0.2,0.2,0,0.3l-1.1,0.6c-0.1,0.1-0.4,0.1-0.5,0L40.7,34
													c-0.1-0.1-0.1-0.2,0-0.3l1.1-0.6c0.1-0.1,0.4-0.1,0.5,0L43.4,33.7z"/>
											</g>
											<g>
												<path class="st10" d="M30.3,44.1l-1.1,0.6c-0.1,0.1-0.4,0.1-0.5,0l-1.1-0.6c-0.1,0-0.1-0.1-0.1-0.2l0,0.3
													c0,0.1,0,0.1,0.1,0.2l1.1,0.6c0.1,0.1,0.4,0.1,0.5,0l1.1-0.6c0.1,0,0.1-0.1,0.1-0.2l0-0.3C30.4,44,30.3,44.1,30.3,44.1z
													"/>
												<path class="st11" d="M30.3,43.8c0.1,0.1,0.2,0.2,0,0.3l-1.1,0.6c-0.1,0.1-0.4,0.1-0.5,0l-1.1-0.6
													c-0.1-0.1-0.1-0.2,0-0.3l1.1-0.6c0.1-0.1,0.4-0.1,0.5,0L30.3,43.8z"/>
											</g>
											<g>
												<path class="st10" d="M32.3,42.9l-1.1,0.6c-0.1,0.1-0.4,0.1-0.5,0l-1.1-0.6c-0.1,0-0.1-0.1-0.1-0.2l0,0.3
													c0,0.1,0,0.1,0.1,0.2l1.1,0.6c0.1,0.1,0.4,0.1,0.5,0l1.1-0.6c0.1,0,0.1-0.1,0.1-0.2l0-0.3
													C32.4,42.8,32.4,42.9,32.3,42.9z"/>
												<path class="st11" d="M32.3,42.6c0.1,0.1,0.2,0.2,0,0.3l-1.1,0.6c-0.1,0.1-0.4,0.1-0.5,0l-1.1-0.6
													c-0.1-0.1-0.1-0.2,0-0.3l1.1-0.6c0.1-0.1,0.4-0.1,0.5,0L32.3,42.6z"/>
											</g>
											<g>
												<path class="st10" d="M34.3,41.8l-1.1,0.6c-0.1,0.1-0.4,0.1-0.5,0l-1.1-0.6c-0.1,0-0.1-0.1-0.1-0.2l0,0.3
													c0,0.1,0,0.1,0.1,0.2l1.1,0.6c0.1,0.1,0.4,0.1,0.5,0l1.1-0.6c0.1,0,0.1-0.1,0.1-0.2l0-0.3
													C34.4,41.7,34.4,41.7,34.3,41.8z"/>
												<path class="st11" d="M34.3,41.4c0.1,0.1,0.2,0.2,0,0.3l-1.1,0.6c-0.1,0.1-0.4,0.1-0.5,0l-1.1-0.6
													c-0.1-0.1-0.1-0.2,0-0.3l1.1-0.6c0.1-0.1,0.4-0.1,0.5,0L34.3,41.4z"/>
											</g>
											<g>
												<path class="st10" d="M36.3,40.6l-1.1,0.6c-0.1,0.1-0.4,0.1-0.5,0l-1.1-0.6c-0.1,0-0.1-0.1-0.1-0.2l0,0.3
													c0,0.1,0,0.1,0.1,0.2l1.1,0.6c0.1,0.1,0.4,0.1,0.5,0l1.1-0.6c0.1,0,0.1-0.1,0.1-0.2l0-0.3
													C36.4,40.5,36.4,40.5,36.3,40.6z"/>
												<path class="st11" d="M36.3,40.3c0.1,0.1,0.2,0.2,0,0.3l-1.1,0.6c-0.1,0.1-0.4,0.1-0.5,0l-1.1-0.6
													c-0.1-0.1-0.1-0.2,0-0.3l1.1-0.6c0.1-0.1,0.4-0.1,0.5,0L36.3,40.3z"/>
											</g>
											<g>
												<path class="st10" d="M38.3,39.4L37.3,40c-0.1,0.1-0.4,0.1-0.5,0l-1.1-0.6c-0.1,0-0.1-0.1-0.1-0.2l0,0.3
													c0,0.1,0,0.1,0.1,0.2l1.1,0.6c0.1,0.1,0.4,0.1,0.5,0l1.1-0.6c0.1,0,0.1-0.1,0.1-0.2l0-0.3
													C38.5,39.3,38.4,39.4,38.3,39.4z"/>
												<path class="st11" d="M38.3,39.1c0.1,0.1,0.2,0.2,0,0.3L37.3,40c-0.1,0.1-0.4,0.1-0.5,0l-1.1-0.6
													c-0.1-0.1-0.1-0.2,0-0.3l1.1-0.6c0.1-0.1,0.4-0.1,0.5,0L38.3,39.1z"/>
											</g>
											<g>
												<path class="st10" d="M40.4,38.2l-1.1,0.6c-0.1,0.1-0.4,0.1-0.5,0l-1.1-0.6c-0.1,0-0.1-0.1-0.1-0.2l0,0.3
													c0,0.1,0,0.1,0.1,0.2l1.1,0.6c0.1,0.1,0.4,0.1,0.5,0l1.1-0.6c0.1,0,0.1-0.1,0.1-0.2l0-0.3
													C40.5,38.1,40.4,38.2,40.4,38.2z"/>
												<path class="st11" d="M40.4,37.9c0.1,0.1,0.2,0.2,0,0.3l-1.1,0.6c-0.1,0.1-0.4,0.1-0.5,0l-1.1-0.6
													c-0.1-0.1-0.1-0.2,0-0.3l1.1-0.6c0.1-0.1,0.4-0.1,0.5,0L40.4,37.9z"/>
											</g>
											<g>
												<path class="st10" d="M42.4,37.1l-1.1,0.6c-0.1,0.1-0.4,0.1-0.5,0l-1.1-0.6c-0.1,0-0.1-0.1-0.1-0.2l0,0.3
													c0,0.1,0,0.1,0.1,0.2l1.1,0.6c0.1,0.1,0.4,0.1,0.5,0l1.1-0.6c0.1,0,0.1-0.1,0.1-0.2l0-0.3C42.5,37,42.5,37,42.4,37.1z"
													/>
												<path class="st11" d="M42.4,36.7c0.1,0.1,0.2,0.2,0,0.3l-1.1,0.6c-0.1,0.1-0.4,0.1-0.5,0l-1.1-0.6
													c-0.1-0.1-0.1-0.2,0-0.3l1.1-0.6c0.1-0.1,0.4-0.1,0.5,0L42.4,36.7z"/>
											</g>
											<g>
												<path class="st10" d="M44.4,35.9l-1.1,0.6c-0.1,0.1-0.4,0.1-0.5,0l-1.1-0.6c-0.1,0-0.1-0.1-0.1-0.2l0,0.3
													c0,0.1,0,0.1,0.1,0.2l1.1,0.6c0.1,0.1,0.4,0.1,0.5,0l1.1-0.6c0.1,0,0.1-0.1,0.1-0.2l0-0.3
													C44.5,35.8,44.5,35.8,44.4,35.9z"/>
												<path class="st11" d="M44.4,35.6c0.1,0.1,0.2,0.2,0,0.3l-1.1,0.6c-0.1,0.1-0.4,0.1-0.5,0l-1.1-0.6
													c-0.1-0.1-0.1-0.2,0-0.3l1.1-0.6c0.1-0.1,0.4-0.1,0.5,0L44.4,35.6z"/>
											</g>
										</g>
									</g>
								</g>
							</g>
							<g>
								<g>
									<path class="st12" d="M42,0.2c0.6-0.3,1.2,0,1.5,0.7l6.8,21.9c0.2,0.7-0.1,1.6-0.6,1.9l-31.1,18c-0.6,0.3-1.2,0-1.5-0.7
										l-6.8-21.9c-0.2-0.7,0.1-1.6,0.6-1.9L42,0.2z"/>
								</g>
								<g>
									<polygon class="st13" points="42.1,2.2 48.6,23.3 18.5,40.8 11.9,19.6 									"/>
								</g>
								<path class="st14" d="M42.6,0.1L41.8,0c-0.2,0-0.4,0-0.6,0.1l-31.1,18c-0.6,0.3-0.9,1.2-0.6,1.9l6.8,21.9
									c0.2,0.5,0.5,0.8,0.9,0.9l0.7,0.1c-0.4,0-0.7-0.3-0.9-0.9l-6.8-21.9c-0.2-0.7,0.1-1.6,0.6-1.9L42,0.2l0,0
									C42.2,0.1,42.4,0.1,42.6,0.1z"/>
							</g>
						</g>
						<g>
							<path class="st15" d="M26.6,9.5c0.3-0.1,0.6,0,0.7,0.3c0.1,0.3,0,0.7-0.3,0.9c-0.3,0.1-0.6,0-0.7-0.3
								C26.2,10,26.4,9.6,26.6,9.5z"/>
							<path class="st16" d="M26.8,9.8c0.1-0.1,0.2,0,0.3,0.1c0,0.1,0,0.3-0.1,0.4c-0.1,0.1-0.2,0-0.3-0.1
								C26.6,10,26.6,9.9,26.8,9.8z"/>
							<path class="st17" d="M27.1,9.5c-0.1-0.1-0.3-0.1-0.4,0c-0.3,0.1-0.4,0.5-0.3,0.9c0,0.1,0.1,0.2,0.1,0.2L27.1,9.5z"/>
						</g>
					</g>
					<g>
						<defs>
							<path id="SVGID_7_" d="M42,0.2c0.6-0.3,1.2,0,1.5,0.7l6.8,21.9c0.2,0.7-0.1,1.6-0.6,1.9l-31.1,18c-0.6,0.3-1.2,0-1.5-0.7
								l-6.8-21.9c-0.2-0.7,0.1-1.6,0.6-1.9L42,0.2z"/>
						</defs>
						<clipPath id="SVGID_4_">
							<use xlink:href="#SVGID_7_"  style="overflow:visible;"/>
						</clipPath>
						
							<rect x="22.8" y="-0.6" transform="matrix(0.9602 0.2794 -0.2794 0.9602 2.6792 -10.7704)" class="st18" width="32.6" height="9.3"/>
						
							<rect x="6.8" y="19.7" transform="matrix(0.9602 0.2794 -0.2794 0.9602 7.9294 -6.9583)" class="st19" width="43.1" height="9.3"/>
						
							<rect x="4.6" y="29.7" transform="matrix(0.9602 0.2794 -0.2794 0.9602 9.7475 -6.0562)" class="st19" width="43.1" height="2.9"/>
					</g>
				</g>
			</g>
		</g>
		<g>
			<g>
				<g>
					<path class="st20" d="M39,14.4c-0.2,0.7,0,1.5,0.6,1.8c0.3,0.1,0.6,0.1,0.8,0c0.2-0.1,0.4-0.3,0.5-0.6l0.2,0.1
						c0,0.1,0,0.2,0.1,0.2l1.4,0.7c0.1,0,0.1,0,0.2,0c0.1,0,0.1-0.1,0.1-0.2l0.1-0.2c0-0.1,0-0.3-0.1-0.4l-1.4-0.7c0,0-0.1,0-0.1,0
						c0,0-0.1,0-0.1,0.1L41,15.1c0.1-0.7-0.1-1.3-0.6-1.6c-0.3-0.1-0.6-0.1-0.8,0C39.3,13.7,39.1,14,39,14.4z M39.6,15.9
						c-0.4-0.2-0.6-0.8-0.4-1.4c0.1-0.3,0.3-0.5,0.5-0.6c0.2-0.1,0.4-0.1,0.7,0c0.4,0.2,0.6,0.8,0.4,1.4c-0.1,0.3-0.3,0.5-0.5,0.6
						C40.1,16,39.8,16,39.6,15.9L39.6,15.9z"/>
				</g>
				<g>
					<path class="st21" d="M39.7,13.9c-0.2,0.1-0.4,0.3-0.5,0.6c-0.2,0.6,0,1.2,0.4,1.4c0.2,0.1,0.5,0.1,0.7,0
						c0.2-0.1,0.4-0.3,0.5-0.6c0.2-0.6,0-1.2-0.4-1.4C40.1,13.7,39.9,13.8,39.7,13.9z"/>
				</g>
				<g class="st6">
					<g>
						<path class="st20" d="M22.8,25.4c-0.2,0.1-0.4,0.3-0.3,0.5c0,0.1,0.1,0.2,0.2,0.1c0.1-0.1,0.2-0.2,0.2-0.3c0,0,0-0.1,0-0.1
							L22.8,25.4C22.9,25.4,22.8,25.4,22.8,25.4z"/>
					</g>
					<g>
						<path class="st20" d="M18.4,25c-0.4,0.2-0.5,0.7-0.4,1.2l0.9,3c0.1,0.4,0.5,0.6,0.9,0.4l18.6-10.3L37,14.7L18.4,25z"/>
					</g>
					<g>
						<path class="st20" d="M21.6,25.6c-0.2,0.1-0.2,0.3-0.2,0.5l0.5-0.3C21.9,25.7,21.8,25.5,21.6,25.6z"/>
					</g>
					<g>
						<path class="st21" d="M18.3,24.6c-0.5,0.3-0.8,1-0.6,1.6l0.9,3c0.2,0.6,0.8,0.9,1.3,0.6l18.9-10.5l4.7-2.6
							c0.5-0.3,0.8-1,0.6-1.6l-0.9-3c-0.2-0.6-0.8-0.9-1.3-0.6l-4.7,2.6L18.3,24.6z M18.9,29.1l-0.9-3c-0.1-0.4,0-1,0.4-1.2L37,14.7
							l1.4,4.6L19.8,29.6C19.5,29.8,19.1,29.6,18.9,29.1L18.9,29.1z M39.5,16.2c-0.6-0.3-0.8-1.1-0.6-1.8c0.1-0.4,0.3-0.6,0.6-0.8
							c0.3-0.1,0.6-0.2,0.8,0c0.5,0.2,0.7,0.9,0.6,1.6l0.2,0.1c0,0,0-0.1,0.1-0.1c0,0,0.1,0,0.1,0l1.4,0.7c0.1,0.1,0.2,0.2,0.1,0.4
							l-0.1,0.2c0,0.1-0.1,0.1-0.1,0.2c-0.1,0-0.1,0-0.2,0l-1.4-0.7c-0.1,0-0.1-0.1-0.1-0.2l-0.2-0.1c-0.1,0.3-0.3,0.4-0.5,0.6
							C40.1,16.3,39.8,16.3,39.5,16.2L39.5,16.2z"/>
					</g>
					<g>
						<path class="st20" d="M18.1,24c-0.8,0.4-1.2,1.6-0.9,2.6l0.9,3c0.3,1,1.2,1.4,2,1l23.6-13.1c0.8-0.4,1.2-1.6,0.9-2.6l-0.9-3
							c-0.3-1-1.2-1.4-2-1L18.1,24z M18.7,29.3l-0.9-3c-0.2-0.6,0.1-1.4,0.6-1.6l18.9-10.5l4.7-2.6c0.5-0.3,1.1,0,1.3,0.6l0.9,3
							c0.2,0.6-0.1,1.4-0.6,1.6l-4.7,2.6L19.9,29.9C19.4,30.2,18.8,29.9,18.7,29.3L18.7,29.3z"/>
					</g>
				</g>
			</g>
			<g>
				<g>
					<path class="st22" d="M20.4,25.5c-0.3,0.1-0.4,0.4-0.3,0.7c0.1,0.2,0.3,0.3,0.5,0.3c0.2,0,0.3,0,0.4,0.2c0.1,0.2,0,0.3-0.2,0.4
						c-0.1,0.1-0.2,0.1-0.3,0.1l0,0.2c0.1,0,0.2,0,0.4-0.1c0.3-0.2,0.4-0.5,0.3-0.7c-0.1-0.2-0.2-0.3-0.5-0.3c-0.2,0-0.3,0-0.4-0.2
						c0-0.1,0-0.3,0.2-0.4c0.1-0.1,0.2-0.1,0.3-0.1l0-0.2C20.7,25.4,20.6,25.4,20.4,25.5z"/>
				</g>
				<g>
					<path class="st22" d="M24.5,23.2l0.5,1.8l0.2-0.1L25,24.1c0,0,0-0.1,0-0.1c0-0.1,0.1-0.3,0.2-0.3c0.2-0.1,0.3,0,0.3,0.2
						l0.2,0.7l0.2-0.1l-0.2-0.7c-0.1-0.4-0.4-0.4-0.5-0.3c-0.1,0-0.1,0.1-0.2,0.2c0,0.1-0.1,0.1-0.1,0.2l0,0l-0.2-0.7L24.5,23.2z"/>
				</g>
				<g>
					<path class="st22" d="M23.6,24.3c-0.1,0.1-0.2,0.2-0.2,0.4l0,0l-0.1-0.2l-0.2,0.1c0,0.1,0.1,0.2,0.1,0.4l0.3,0.8l0.2-0.1
						L23.5,25c0,0,0-0.1,0-0.1c0-0.2,0-0.3,0.1-0.4c0,0,0,0,0.1,0L23.6,24.3C23.6,24.3,23.6,24.3,23.6,24.3z"/>
				</g>
				<g>
					<path class="st22" d="M24.2,24c-0.3,0.2-0.4,0.6-0.3,0.9c0.1,0.4,0.4,0.5,0.7,0.3c0.1-0.1,0.2-0.2,0.3-0.2l-0.1-0.1
						c0,0.1-0.1,0.1-0.2,0.2c-0.2,0.1-0.4,0-0.5-0.3c-0.1-0.2,0-0.5,0.2-0.6c0.1-0.1,0.2-0.1,0.2-0.1l0-0.2
						C24.4,23.9,24.3,23.9,24.2,24z"/>
				</g>
				<g>
					<path class="st22" d="M22.8,25.3c-0.4,0.2-0.5,0.5-0.4,0.8c0.1,0.2,0.2,0.3,0.4,0.2c0.1-0.1,0.2-0.2,0.2-0.3l0,0l0.1,0.1
						l0.2-0.1c0-0.1-0.1-0.2-0.1-0.3L23,25.2c-0.1-0.2-0.2-0.4-0.5-0.3c-0.1,0.1-0.2,0.2-0.3,0.3l0.1,0.1c0.1-0.1,0.1-0.2,0.2-0.2
						c0,0,0,0,0,0C22.7,25,22.8,25.1,22.8,25.3L22.8,25.3C22.8,25.3,22.8,25.3,22.8,25.3z M22.8,26c-0.1,0-0.2,0-0.2-0.1
						c-0.1-0.2,0.1-0.4,0.3-0.5c0,0,0,0,0,0l0.1,0.2c0,0,0,0,0,0.1C23,25.8,22.9,26,22.8,26L22.8,26z"/>
				</g>
				<g>
					<path class="st22" d="M21.6,25.4c-0.3,0.2-0.4,0.5-0.3,0.9c0.1,0.4,0.4,0.5,0.7,0.3c0.2-0.1,0.2-0.2,0.3-0.3l-0.1-0.1
						c-0.1,0.1-0.1,0.1-0.2,0.2c-0.2,0.1-0.4,0.1-0.5-0.2l0.7-0.4c0,0,0-0.1,0-0.1C22.1,25.5,21.9,25.3,21.6,25.4z M21.9,25.8
						l-0.5,0.3c0-0.2,0-0.4,0.2-0.5C21.8,25.5,21.9,25.7,21.9,25.8L21.9,25.8z"/>
				</g>
			</g>
		</g>
		<g>
			<g>
				<defs>
					<path id="SVGID_9_" d="M29.4,24.1c-1.7-2.2-1.6-5.9,0.2-8.2c0.4-0.6,0.9-1,1.5-1.3c1.7-0.9,3.7-0.6,5,1.1
						c1.7,2.2,1.6,5.9-0.2,8.2c-0.4,0.6-0.9,1-1.5,1.3C32.7,26.2,30.7,25.8,29.4,24.1L29.4,24.1z"/>
				</defs>
				<clipPath id="SVGID_5_">
					<use xlink:href="#SVGID_9_"  style="overflow:visible;"/>
				</clipPath>
			</g>
		</g>
	</g>
	<g class="st4">
		<g>
			<g>
				<g>
					<path class="st23" d="M58.3,31.5L31,47.4c-1.2,0.7-3.1,0.7-4.3,0c-1.2-0.7-1.2-1.8,0-2.5L54,29L58.3,31.5z"/>
				</g>
				<g>
					<g>
						<g>
							<g>
								<g class="st6">
									<path class="st24" d="M55.4,17.9c-0.8-0.3-3.4-0.6-3.4-0.6c1.1,0.7,2.5,1.2,2.5,3.2c0,4-2.8,8.8-6.2,10.8
										c-1.7,1-3.3,1.1-4.4,0.4l2.8,1.7c1.1,0.7,2.7,0.6,4.4-0.4c3.4-2,6.2-6.8,6.2-10.8C57.3,20.2,56.6,18.4,55.4,17.9z"/>
									<path class="st25" d="M49.8,18.2c3.3-1.9,6-0.4,6,3.4c0,3.8-2.7,8.4-6,10.4c-3.3,1.9-6,0.4-6-3.4
										C43.8,24.8,46.5,20.2,49.8,18.2z"/>
									<path class="st24" d="M53.9,14.7c-1.4-0.8-3.4-0.7-5.5,0.5l0,0c-4.3,2.5-7.8,8.5-7.7,13.4c0,2.4,0.9,4.2,2.3,5l2.6,1.5
										c-1.4-0.8-2.3-2.5-2.3-5c0-4.9,3.5-10.9,7.7-13.4c2.2-1.2,4.1-1.4,5.5-0.5L53.9,14.7z"/>
									<path class="st26" d="M43.2,30.2c0,4.9,3.5,6.9,7.8,4.4c4.3-2.5,7.8-8.5,7.7-13.4c0-4.9-3.5-6.9-7.8-4.4
										C46.7,19.2,43.2,25.3,43.2,30.2z M51,32.8c-3.4,2-6.2,0.4-6.2-3.5c0-3.9,2.8-8.7,6.2-10.7c3.4-2,6.2-0.4,6.2,3.5
										C57.2,26.1,54.4,30.8,51,32.8L51,32.8z"/>
								</g>
								<g>
									<path class="st27" d="M32.8,38.2l8.5-6.7c0.2-0.2,0.5-0.1,0.9,0.1c0.7,0.4,1.3,1.3,1.4,2c0,0.3,0,0.5-0.2,0.6l-8.5,6.7
										c0.2-0.1,0.2-0.3,0.2-0.6c-0.1-0.7-0.7-1.6-1.4-2C33.3,38.1,33,38.1,32.8,38.2z"/>
									<path class="st10" d="M34.2,37.2l7.1-5.6c0.2-0.2,0.5-0.1,0.9,0.1c0.3,0.2,0.5,0.4,0.8,0.7L34.5,39
										c0.2-0.1,0.2-0.3,0.2-0.6C34.6,37.9,34.4,37.5,34.2,37.2z"/>
									<path class="st28" d="M26.5,42.1L38,33c0.3-0.2,0.8-0.2,1.4,0.1c1.1,0.6,2,2,2.2,3.1c0.1,0.5,0,0.8-0.3,1l-11.5,9
										c0.2-0.2,0.3-0.5,0.3-1c-0.1-1.1-1.1-2.5-2.2-3.1C27.3,41.8,26.8,41.8,26.5,42.1z"/>
									<path class="st29" d="M25.5,44.5c0-0.1,0-0.2,0-0.3c0-0.1,0-0.2,0-0.2c0-0.1,0-0.3,0.1-0.4c0-0.1,0.1-0.2,0.1-0.3
										c0-0.1,0.1-0.2,0.1-0.3c0.1-0.1,0.1-0.3,0.2-0.4c0.2-0.2,0.3-0.4,0.5-0.6c0.3-0.2,0.8-0.2,1.4,0.1c1.1,0.6,2,2,2.2,3.1
										c0.1,0.5,0,0.8-0.3,1c-0.1,0.1-0.2,0.2-0.4,0.2c-0.1,0-0.2,0.1-0.2,0.1c-0.3,0.1-0.6,0.2-0.7,0.2c-0.3,0-0.8,0.1-1.4-0.2
										C26.5,46.3,25.7,45.6,25.5,44.5c0.1,0.4,0.3,0.8,0.8,1.1C25.9,45.3,25.6,44.9,25.5,44.5z"/>
								</g>
							</g>
							<g>
								<path class="st30" d="M51.3,19.3c0,0-0.2,0.1-0.5,0.4c-0.2,0.1-0.4,0.3-0.6,0.5c-0.2,0.2-0.5,0.4-0.7,0.7
									c-0.3,0.3-0.5,0.6-0.8,0.9c-0.1,0.2-0.3,0.3-0.4,0.5c-0.1,0.2-0.2,0.4-0.4,0.6L47.9,23l-0.1,0.1c-0.1,0.1-0.1,0.2-0.2,0.3
									c-0.1,0.2-0.2,0.4-0.3,0.6c-0.1,0.1-0.1,0.2-0.2,0.3c-0.1,0.1-0.1,0.2-0.2,0.3L46.8,25l-0.1,0.3l-0.1,0.3
									c0,0.1-0.1,0.2-0.1,0.3c0,0.1-0.1,0.2-0.1,0.3c0,0.1-0.1,0.2-0.1,0.3c0,0.1-0.1,0.2-0.1,0.3c0,0.1-0.1,0.2-0.1,0.3
									c0,0.1,0,0.2-0.1,0.3c0,0.1,0,0.2-0.1,0.3c0,0.1,0,0.2,0,0.3c0,0.1,0,0.1,0,0.2c0,0.1,0,0.1,0,0.2c0,0.1,0,0.2,0,0.3l0,0.1
									c0,0,0,0.1,0,0.1c0,0.1,0,0.1,0,0.2c0,0.4,0,0.8,0.1,1.1c0.1,0.3,0.2,0.7,0.3,0.9c0.1,0.3,0.3,0.5,0.5,0.6
									c0,0,0.1,0.1,0.1,0.1c0,0,0.1,0.1,0.1,0.1c0.1,0,0.1,0.1,0.2,0.1c0.1,0.1,0.2,0.1,0.2,0.1s-0.1,0-0.2-0.1
									c-0.1,0-0.1-0.1-0.2-0.1c-0.1,0-0.2-0.1-0.2-0.2c-0.2-0.1-0.4-0.3-0.5-0.6c-0.2-0.3-0.3-0.6-0.4-0.9
									c-0.1-0.4-0.2-0.8-0.2-1.2c0-0.1,0-0.1,0-0.2c0,0,0,0,0-0.1l0-0.1c0-0.1,0-0.2,0-0.3c0-0.2,0-0.5,0.1-0.7c0-0.1,0-0.2,0-0.3
									c0-0.1,0-0.2,0.1-0.3c0-0.1,0-0.2,0.1-0.4c0-0.1,0.1-0.2,0.1-0.4c0-0.1,0.1-0.2,0.1-0.4c0-0.1,0.1-0.2,0.1-0.3
									c0-0.1,0.1-0.2,0.1-0.4l0.1-0.3l0.1-0.3l0.2-0.3c0.1-0.1,0.1-0.2,0.2-0.3c0.1-0.1,0.1-0.2,0.2-0.3c0.1-0.2,0.2-0.4,0.4-0.6
									c0.1-0.1,0.1-0.2,0.2-0.3l0.1-0.1l0.1-0.1c0.1-0.2,0.3-0.4,0.4-0.6c0.1-0.2,0.3-0.3,0.4-0.5c0.3-0.3,0.5-0.6,0.8-0.9
									c0.3-0.3,0.5-0.5,0.8-0.7c0.2-0.2,0.5-0.3,0.6-0.4C51.1,19.4,51.3,19.3,51.3,19.3z"/>
								<g>
									<defs>
										<path id="SVGID_11_" d="M55.8,21.7c0,3.8-2.7,8.4-6,10.4c-1.6,0.9-3,1-4.1,0.5c-0.6-0.8-1-1.9-1-3.3
											c0-3.9,2.8-8.7,6.2-10.7c1.1-0.6,2.1-0.9,2.9-0.8C55.1,18.3,55.8,19.7,55.8,21.7z"/>
									</defs>
									<clipPath id="SVGID_6_">
										<use xlink:href="#SVGID_11_"  style="overflow:visible;"/>
									</clipPath>
									
										<rect x="51.9" y="14.8" transform="matrix(-0.9668 -0.2557 0.2557 -0.9668 98.8047 65.8691)" class="st31" width="3.5" height="23.4"/>
								</g>
							</g>
						</g>
						<path class="st10" d="M48.4,15.3L48.4,15.3c0.7-0.4,1.4-0.7,2-0.9l2.6,1.5c-0.6,0.2-1.3,0.5-2,0.9c-1.1,0.6-2.1,1.4-3,2.4
							l-2.6-1.5C46.3,16.7,47.3,15.9,48.4,15.3z"/>
						<path class="st32" d="M39.4,33.1c0.3,0.1,0.5,0.3,0.7,0.5l-11.5,9c-0.2-0.2-0.5-0.4-0.7-0.5c-0.6-0.3-1.1-0.4-1.4-0.1L38,33
							C38.3,32.8,38.8,32.8,39.4,33.1z"/>
					</g>
					<path class="st33" d="M27.8,43.9c-0.2,0.2-0.2,0.6,0,1c0.3,0.4,0.7,0.6,0.9,0.5c0.2-0.2,0.2-0.6,0-1
						C28.5,43.9,28.1,43.7,27.8,43.9z"/>
				</g>
			</g>
		</g>
		<g>
			<g>
				<path class="st20" d="M48,24.7c1.1-0.6,1.6-0.2,1.6,0.6c0,0.7-0.4,1.5-0.7,2.1c-0.3,0.6-0.4,1-0.4,1.5l0,0.2l-1.1,0.7l0-0.2
					c0-0.5,0.1-1.1,0.5-1.8c0.3-0.5,0.5-1,0.5-1.3c0-0.3-0.2-0.5-0.6-0.2c-0.3,0.2-0.6,0.5-0.8,0.8l-0.3-0.9
					C46.9,25.5,47.4,25,48,24.7z"/>
			</g>
			<g>
				<path class="st20" d="M47.9,29.8c0.5-0.3,0.8-0.1,0.8,0.4c0,0.5-0.3,1.1-0.8,1.3c-0.5,0.3-0.8,0.1-0.8-0.5
					C47.2,30.6,47.5,30,47.9,29.8z"/>
			</g>
			<g>
				<path class="st20" d="M50.8,24.9c0.5-0.3,0.8-0.1,0.8,0.4c0,0.5-0.3,1.1-0.8,1.3c-0.5,0.3-0.8,0.1-0.8-0.5
					C50,25.7,50.3,25.1,50.8,24.9z"/>
			</g>
			<g>
				<path class="st20" d="M53.3,27.7c0.5-0.3,0.8-0.1,0.8,0.4c0,0.5-0.3,1.1-0.8,1.3c-0.5,0.3-0.8,0.1-0.8-0.5
					C52.5,28.5,52.8,27.9,53.3,27.7z"/>
			</g>
			<g>
				<path class="st20" d="M53.4,22.6c1.1-0.6,1.6-0.2,1.6,0.6c0,0.7-0.4,1.5-0.7,2.1c-0.3,0.6-0.4,1-0.4,1.5l0,0.2l-1.1,0.7l0-0.2
					c0-0.5,0.1-1.1,0.5-1.8c0.3-0.5,0.5-1,0.5-1.3c0-0.3-0.2-0.5-0.6-0.2c-0.3,0.2-0.6,0.5-0.8,0.8l-0.3-0.9
					C52.3,23.4,52.8,22.9,53.4,22.6z"/>
			</g>
			<g>
				<path class="st20" d="M50.9,19.8c1.1-0.6,1.6-0.2,1.6,0.6c0,0.7-0.4,1.5-0.7,2.1c-0.3,0.6-0.4,1-0.4,1.5l0,0.2l-1.1,0.7l0-0.2
					c0-0.5,0.1-1.1,0.5-1.8c0.3-0.5,0.5-1,0.5-1.3c0-0.3-0.2-0.5-0.6-0.2c-0.3,0.2-0.6,0.5-0.8,0.8L49.5,21
					C49.8,20.6,50.3,20.1,50.9,19.8z"/>
			</g>
		</g>
	</g>
</g>
</svg>
