<svg width="80" height="80" viewBox="0 0 80 80" fill="none" xmlns="http://www.w3.org/2000/svg">
<g clip-path="url(#clip0_3161_694)">
<path d="M66.269 41.7333C48.7563 31.6039 30.6584 31.6039 13.1458 41.7333C4.36691 46.7755 0 51.9078 0 57.085C0 62.2623 4.36691 67.3495 13.1458 72.4367C30.6584 82.5662 48.7563 82.5662 66.269 72.4367C75.0478 67.3945 79.4147 62.2623 79.4147 57.085C79.4147 51.9078 75.0478 46.7755 66.269 41.7333Z" fill="#FF9B00"/>
<path d="M66.269 64.7383C48.7563 74.8678 30.6584 74.8678 13.1458 64.7383C4.36691 59.6961 0 54.5639 0 49.4316V57.085C0 62.2172 4.36691 67.3495 13.1458 72.4367C30.6584 82.5661 48.7563 82.5661 66.269 72.4367C75.0478 67.3945 79.4147 62.2623 79.4147 57.085V49.4316C79.4147 54.5639 75.0478 59.6961 66.269 64.7383Z" fill="url(#paint0_linear_3161_694)"/>
<path d="M66.269 34.08C48.7563 23.9506 30.6584 23.9506 13.1458 34.08C4.36691 39.1222 0 44.2544 0 49.4317C0 54.609 4.36691 59.6962 13.1458 64.7834C30.6584 74.9128 48.7563 74.9128 66.269 64.7834C75.0478 59.7412 79.4147 54.5639 79.4147 49.4317C79.4147 44.2995 75.0478 39.1222 66.269 34.08Z" fill="#FFDB32"/>
<mask id="mask0_3161_694" style="mask-type:luminance" maskUnits="userSpaceOnUse" x="0" y="26" width="80" height="47">
<path d="M66.269 34.08C48.7563 23.9506 30.6584 23.9506 13.1458 34.08C4.36691 39.1222 0 44.2544 0 49.4317C0 54.609 4.36691 59.6962 13.1458 64.7834C30.6584 74.9128 48.7563 74.9128 66.269 64.7834C75.0478 59.7412 79.4147 54.5639 79.4147 49.4317C79.4147 44.2995 75.0478 39.1222 66.269 34.08Z" fill="white"/>
</mask>
<g mask="url(#mask0_3161_694)">
<path opacity="0.03" d="M71.7173 60.1465C85.2431 60.1465 96.208 49.1816 96.208 35.6558C96.208 22.1299 85.2431 11.165 71.7173 11.165C58.1914 11.165 47.2266 22.1299 47.2266 35.6558C47.2266 49.1816 58.1914 60.1465 71.7173 60.1465Z" fill="#FFFDF8"/>
<path opacity="0.06" d="M70.727 60.1465C84.2529 60.1465 95.2178 49.1816 95.2178 35.6558C95.2178 22.1299 84.2529 11.165 70.727 11.165C57.2012 11.165 46.2363 22.1299 46.2363 35.6558C46.2363 49.1816 57.2012 60.1465 70.727 60.1465Z" fill="#FFFBF1"/>
<path opacity="0.09" d="M69.7349 60.1465C83.2607 60.1465 94.2256 49.1816 94.2256 35.6558C94.2256 22.1299 83.2607 11.165 69.7349 11.165C56.209 11.165 45.2441 22.1299 45.2441 35.6558C45.2441 49.1816 56.209 60.1465 69.7349 60.1465Z" fill="#FFFAEA"/>
<path opacity="0.12" d="M68.7446 60.1465C82.2705 60.1465 93.2353 49.1816 93.2353 35.6558C93.2353 22.1299 82.2705 11.165 68.7446 11.165C55.2188 11.165 44.2539 22.1299 44.2539 35.6558C44.2539 49.1816 55.2188 60.1465 68.7446 60.1465Z" fill="#FFF8E3"/>
<path opacity="0.15" d="M67.7095 60.1465C81.2353 60.1465 92.2002 49.1816 92.2002 35.6558C92.2002 22.1299 81.2353 11.165 67.7095 11.165C54.1836 11.165 43.2188 22.1299 43.2188 35.6558C43.2188 49.1816 54.1836 60.1465 67.7095 60.1465Z" fill="#FFF6DC"/>
<path opacity="0.18" d="M66.7192 60.1465C80.2451 60.1465 91.2099 49.1816 91.2099 35.6558C91.2099 22.1299 80.2451 11.165 66.7192 11.165C53.1934 11.165 42.2285 22.1299 42.2285 35.6558C42.2285 49.1816 53.1934 60.1465 66.7192 60.1465Z" fill="#FFF4D5"/>
<path opacity="0.21" d="M65.729 60.1465C79.2548 60.1465 90.2197 49.1816 90.2197 35.6558C90.2197 22.1299 79.2548 11.165 65.729 11.165C52.2031 11.165 41.2383 22.1299 41.2383 35.6558C41.2383 49.1816 52.2031 60.1465 65.729 60.1465Z" fill="#FFF3CE"/>
<path opacity="0.24" d="M64.7388 60.1465C78.2646 60.1465 89.2295 49.1816 89.2295 35.6558C89.2295 22.1299 78.2646 11.165 64.7388 11.165C51.2129 11.165 40.248 22.1299 40.248 35.6558C40.248 49.1816 51.2129 60.1465 64.7388 60.1465Z" fill="#FFF1C7"/>
<path opacity="0.27" d="M63.7485 60.1465C77.2744 60.1465 88.2392 49.1816 88.2392 35.6558C88.2392 22.1299 77.2744 11.165 63.7485 11.165C50.2227 11.165 39.2578 22.1299 39.2578 35.6558C39.2578 49.1816 50.2227 60.1465 63.7485 60.1465Z" fill="#FFEFC0"/>
<path opacity="0.3" d="M62.7134 60.1465C76.2392 60.1465 87.2041 49.1816 87.2041 35.6558C87.2041 22.1299 76.2392 11.165 62.7134 11.165C49.1875 11.165 38.2227 22.1299 38.2227 35.6558C38.2227 49.1816 49.1875 60.1465 62.7134 60.1465Z" fill="#FFEDB9"/>
<path opacity="0.33" d="M61.7212 60.1465C75.247 60.1465 86.2119 49.1816 86.2119 35.6558C86.2119 22.1299 75.247 11.165 61.7212 11.165C48.1953 11.165 37.2305 22.1299 37.2305 35.6558C37.2305 49.1816 48.1953 60.1465 61.7212 60.1465Z" fill="#FFECB2"/>
<path opacity="0.36" d="M60.7309 60.1465C74.2568 60.1465 85.2217 49.1816 85.2217 35.6558C85.2217 22.1299 74.2568 11.165 60.7309 11.165C47.2051 11.165 36.2402 22.1299 36.2402 35.6558C36.2402 49.1816 47.2051 60.1465 60.7309 60.1465Z" fill="#FFEAAB"/>
<path opacity="0.39" d="M59.7407 60.1465C73.2666 60.1465 84.2314 49.1816 84.2314 35.6558C84.2314 22.1299 73.2666 11.165 59.7407 11.165C46.2149 11.165 35.25 22.1299 35.25 35.6558C35.25 49.1816 46.2149 60.1465 59.7407 60.1465Z" fill="#FFE8A4"/>
<path opacity="0.42" d="M58.7056 60.1465C72.2314 60.1465 83.1963 49.1816 83.1963 35.6558C83.1963 22.1299 72.2314 11.165 58.7056 11.165C45.1797 11.165 34.2148 22.1299 34.2148 35.6558C34.2148 49.1816 45.1797 60.1465 58.7056 60.1465Z" fill="#FFE69D"/>
<path opacity="0.45" d="M57.7153 60.1465C71.2412 60.1465 82.206 49.1816 82.206 35.6558C82.206 22.1299 71.2412 11.165 57.7153 11.165C44.1895 11.165 33.2246 22.1299 33.2246 35.6558C33.2246 49.1816 44.1895 60.1465 57.7153 60.1465Z" fill="#FFE596"/>
<path opacity="0.48" d="M56.7251 60.1465C70.2509 60.1465 81.2158 49.1816 81.2158 35.6558C81.2158 22.1299 70.2509 11.165 56.7251 11.165C43.1992 11.165 32.2344 22.1299 32.2344 35.6558C32.2344 49.1816 43.1992 60.1465 56.7251 60.1465Z" fill="#FFE38F"/>
<path opacity="0.52" d="M55.7349 60.1465C69.2607 60.1465 80.2256 49.1816 80.2256 35.6558C80.2256 22.1299 69.2607 11.165 55.7349 11.165C42.209 11.165 31.2441 22.1299 31.2441 35.6558C31.2441 49.1816 42.209 60.1465 55.7349 60.1465Z" fill="#FFE187"/>
<path opacity="0.55" d="M54.7446 60.1465C68.2705 60.1465 79.2353 49.1816 79.2353 35.6558C79.2353 22.1299 68.2705 11.165 54.7446 11.165C41.2188 11.165 30.2539 22.1299 30.2539 35.6558C30.2539 49.1816 41.2188 60.1465 54.7446 60.1465Z" fill="#FFDF80"/>
<path opacity="0.58" d="M53.7095 60.1465C67.2353 60.1465 78.2002 49.1816 78.2002 35.6558C78.2002 22.1299 67.2353 11.165 53.7095 11.165C40.1836 11.165 29.2188 22.1299 29.2188 35.6558C29.2188 49.1816 40.1836 60.1465 53.7095 60.1465Z" fill="#FFDE79"/>
<path opacity="0.61" d="M52.7173 60.1465C66.2431 60.1465 77.208 49.1816 77.208 35.6558C77.208 22.1299 66.2431 11.165 52.7173 11.165C39.1914 11.165 28.2266 22.1299 28.2266 35.6558C28.2266 49.1816 39.1914 60.1465 52.7173 60.1465Z" fill="#FFDC72"/>
<path opacity="0.64" d="M51.727 60.1465C65.2529 60.1465 76.2178 49.1816 76.2178 35.6558C76.2178 22.1299 65.2529 11.165 51.727 11.165C38.2012 11.165 27.2363 22.1299 27.2363 35.6558C27.2363 49.1816 38.2012 60.1465 51.727 60.1465Z" fill="#FFDA6B"/>
<path opacity="0.67" d="M50.7368 60.1465C64.2627 60.1465 75.2275 49.1816 75.2275 35.6558C75.2275 22.1299 64.2627 11.165 50.7368 11.165C37.211 11.165 26.2461 22.1299 26.2461 35.6558C26.2461 49.1816 37.211 60.1465 50.7368 60.1465Z" fill="#FFD864"/>
<path opacity="0.7" d="M49.7017 60.1465C63.2275 60.1465 74.1924 49.1816 74.1924 35.6558C74.1924 22.1299 63.2275 11.165 49.7017 11.165C36.1758 11.165 25.2109 22.1299 25.2109 35.6558C25.2109 49.1816 36.1758 60.1465 49.7017 60.1465Z" fill="#FFD75D"/>
<path opacity="0.73" d="M48.7114 60.1465C62.2373 60.1465 73.2021 49.1816 73.2021 35.6558C73.2021 22.1299 62.2373 11.165 48.7114 11.165C35.1856 11.165 24.2207 22.1299 24.2207 35.6558C24.2207 49.1816 35.1856 60.1465 48.7114 60.1465Z" fill="#FFD556"/>
<path opacity="0.76" d="M47.7212 60.1465C61.247 60.1465 72.2119 49.1816 72.2119 35.6558C72.2119 22.1299 61.247 11.165 47.7212 11.165C34.1953 11.165 23.2305 22.1299 23.2305 35.6558C23.2305 49.1816 34.1953 60.1465 47.7212 60.1465Z" fill="#FFD34F"/>
<path opacity="0.79" d="M46.7309 60.1465C60.2568 60.1465 71.2217 49.1816 71.2217 35.6558C71.2217 22.1299 60.2568 11.165 46.7309 11.165C33.2051 11.165 22.2402 22.1299 22.2402 35.6558C22.2402 49.1816 33.2051 60.1465 46.7309 60.1465Z" fill="#FFD148"/>
<path opacity="0.82" d="M45.6958 60.1465C59.2216 60.1465 70.1865 49.1816 70.1865 35.6558C70.1865 22.1299 59.2216 11.165 45.6958 11.165C32.1699 11.165 21.2051 22.1299 21.2051 35.6558C21.2051 49.1816 32.1699 60.1465 45.6958 60.1465Z" fill="#FFD041"/>
<path opacity="0.85" d="M44.7056 60.1465C58.2314 60.1465 69.1963 49.1816 69.1963 35.6558C69.1963 22.1299 58.2314 11.165 44.7056 11.165C31.1797 11.165 20.2148 22.1299 20.2148 35.6558C20.2148 49.1816 31.1797 60.1465 44.7056 60.1465Z" fill="#FFCE3A"/>
<path opacity="0.88" d="M43.7134 60.1465C57.2392 60.1465 68.2041 49.1816 68.2041 35.6558C68.2041 22.1299 57.2392 11.165 43.7134 11.165C30.1875 11.165 19.2227 22.1299 19.2227 35.6558C19.2227 49.1816 30.1875 60.1465 43.7134 60.1465Z" fill="#FFCC33"/>
<path opacity="0.91" d="M42.7231 60.1465C56.249 60.1465 67.2139 49.1816 67.2139 35.6558C67.2139 22.1299 56.249 11.165 42.7231 11.165C29.1973 11.165 18.2324 22.1299 18.2324 35.6558C18.2324 49.1816 29.1973 60.1465 42.7231 60.1465Z" fill="#FFCA2C"/>
<path opacity="0.94" d="M41.7329 60.1465C55.2587 60.1465 66.2236 49.1816 66.2236 35.6558C66.2236 22.1299 55.2587 11.165 41.7329 11.165C28.2071 11.165 17.2422 22.1299 17.2422 35.6558C17.2422 49.1816 28.2071 60.1465 41.7329 60.1465Z" fill="#FFC925"/>
<path opacity="0.97" d="M40.6977 60.1465C54.2236 60.1465 65.1885 49.1816 65.1885 35.6558C65.1885 22.1299 54.2236 11.165 40.6977 11.165C27.1719 11.165 16.207 22.1299 16.207 35.6558C16.207 49.1816 27.1719 60.1465 40.6977 60.1465Z" fill="#FFC71E"/>
<path d="M39.7075 60.1465C53.2334 60.1465 64.1982 49.1816 64.1982 35.6558C64.1982 22.1299 53.2334 11.165 39.7075 11.165C26.1817 11.165 15.2168 22.1299 15.2168 35.6558C15.2168 49.1816 26.1817 60.1465 39.7075 60.1465Z" fill="#FFC517"/>
</g>
<path d="M36.781 55.1041V43.2189L28.8125 36.0157L28.8575 25.9313C28.8575 18.6381 33.9898 9.72424 40.3375 6.07764C41.9132 5.13223 43.669 4.54697 45.5148 4.50195C45.7399 4.50195 45.965 4.50195 46.1451 4.54697H46.1901C46.4152 4.54697 46.6403 4.59199 46.8654 4.63701C47.0005 4.68203 47.1805 4.72705 47.3156 4.77207C47.3606 4.77207 47.4056 4.77207 47.4957 4.81709C47.5857 4.81709 47.6758 4.86211 47.7208 4.90713C47.9909 4.99717 48.216 5.13223 48.4411 5.26729C50.557 6.4378 51.8626 9.00392 51.8626 12.6955L51.7725 22.7799L51.8176 34.4851L51.8626 46.4153L36.781 55.1041Z" fill="#1D2943"/>
<path d="M51.6388 10.0393L29.1289 23.05C30.2094 16.4321 34.8464 9.27394 40.3388 6.12256C41.9145 5.17715 43.6703 4.63691 45.5161 4.54688C45.7412 4.54688 45.9663 4.54687 46.1464 4.59189H46.1914C46.4165 4.59189 46.6416 4.63691 46.8667 4.68193C47.0017 4.72695 47.1818 4.77197 47.3169 4.81699C47.3619 4.81699 47.4069 4.81699 47.4969 4.86201L47.722 4.95205C47.9922 5.04209 48.2173 5.17715 48.4424 5.31221C50.018 6.07754 51.1435 7.69825 51.6388 10.0393Z" fill="#FFD06C"/>
<path d="M59.696 29.8931L51.8626 34.4401L36.781 43.2189L28.8125 36.0158L51.7275 22.6899L51.8176 22.735L59.696 29.8931Z" fill="#111D33"/>
<path d="M56.4097 42.6781L56.3647 44.9291L54.834 44.0287L54.879 41.8228L56.4097 42.6781Z" fill="#B0B8CF"/>
<path d="M56.7254 43.1734V45.4244C56.7254 45.1993 56.5903 45.0192 56.3652 44.9292V42.6782C56.5903 42.7683 56.7254 42.9483 56.7254 43.1734Z" fill="#B0B8CF"/>
<path d="M58.0758 43.1733V45.4243C58.0308 45.8745 57.7606 46.2347 57.3555 46.4598V44.2088C57.7606 43.9837 58.0308 43.6235 58.0758 43.1733Z" fill="#B0B8CF"/>
<path d="M57.3566 44.209V46.415L46.957 52.4926V50.2416L57.3566 44.209Z" fill="#B0B8CF"/>
<path d="M43.3998 50.2417V52.4927L41.8691 51.5923V49.3413L43.3998 50.2417Z" fill="#B0B8CF"/>
<path d="M46.9569 50.2417V52.4927C45.8315 53.0779 44.5259 53.0779 43.4004 52.4927V50.2417C44.5259 50.827 45.8315 50.827 46.9569 50.2417Z" fill="#B0B8CF"/>
<path d="M57.356 42.1381C58.3464 42.7233 58.3464 43.6237 57.356 44.209L46.9114 50.2867C45.7859 50.8719 44.4804 50.8719 43.3549 50.2867L41.8242 49.3863L42.7696 48.846L44.3003 49.7464C44.7955 50.0165 45.4258 50.0165 45.921 49.7464L56.3656 43.6688C56.8158 43.3986 56.8158 42.9935 56.3656 42.7233L54.8349 41.823L55.8253 41.2827L57.356 42.1381Z" fill="#E3E7F0"/>
<path d="M59.6975 29.8929L59.6525 50.9622L36.6924 64.288L28.724 59.696V59.651L21.0706 55.194V21.4292C21.0256 14.136 26.2029 5.22215 32.5506 1.57555C35.792 -0.270255 38.7183 -0.450334 40.7892 0.765198L48.4426 5.22215C48.2175 5.08709 47.9474 4.99705 47.7223 4.86199C47.6322 4.81697 47.5422 4.81697 47.4972 4.77195C47.4521 4.72693 47.3621 4.72693 47.3171 4.72693C47.182 4.68191 47.002 4.63689 46.8669 4.59187C46.6418 4.54685 46.4167 4.50183 46.1916 4.50183H46.1466C45.9665 4.50183 45.7414 4.45681 45.5163 4.45681C43.6705 4.50183 41.9147 5.04207 40.339 6.0325C33.9913 9.72412 28.814 18.638 28.859 25.9312L28.814 36.0156L36.7825 43.2188L51.8641 34.4849L59.6975 29.8929Z" fill="#1D2943"/>
<path d="M59.6964 29.8931V50.9623L36.7363 64.2881L36.7813 55.1041V43.2189L51.8629 34.4401L59.6964 29.8931Z" fill="#1D2943"/>
<path d="M48.4421 5.22215C48.217 5.08709 47.9469 4.99705 47.7218 4.86199C47.6317 4.81697 47.5417 4.81697 47.4967 4.77195C47.4517 4.72693 47.4066 4.72693 47.3166 4.72693C47.1815 4.68191 47.0015 4.63689 46.8664 4.59187C46.6413 4.54685 46.4162 4.50183 46.1911 4.50183H46.1461C45.921 4.50183 45.6959 4.45681 45.5158 4.45681C43.67 4.50183 41.9142 5.08709 40.3385 6.0325C33.9908 9.72412 28.8135 18.638 28.8585 25.9312L28.8135 36.0156L36.782 43.2188V55.104V64.243L28.7685 59.651V59.6059L21.1602 55.194V21.4292C21.1602 14.136 26.2924 5.22215 32.6402 1.57555C35.8366 -0.270255 38.7178 -0.450334 40.7887 0.765198L48.4421 5.22215Z" fill="#4C5C75"/>
<path d="M31.604 46.6403C31.649 47.1805 31.4239 47.7208 30.9737 48.0359L29.0379 49.1614C29.4881 48.8463 29.7132 48.306 29.6682 47.7658C29.5781 46.2802 28.7678 44.8845 27.5072 44.0742C27.057 43.759 26.4718 43.714 25.9766 43.9391L27.9124 42.7686C28.4076 42.5435 28.9929 42.5885 29.4431 42.9037C30.7036 43.714 31.514 45.1096 31.604 46.6403Z" fill="#DEDFFB"/>
<path d="M27.5535 44.029C28.8141 44.8394 29.6244 46.235 29.7145 47.7206C29.7145 49.1162 28.724 49.6565 27.5535 48.9812C26.293 48.1708 25.4826 46.7752 25.3926 45.2445C25.4376 43.8939 26.383 43.3537 27.5535 44.029Z" fill="white"/>
<path d="M28.272 46.9106C28.317 47.1357 28.227 47.3158 28.0469 47.4509L27.9569 47.5409L25.7059 48.8465C25.3007 49.0716 24.8505 49.2066 24.4003 49.2066C23.9501 49.2066 23.4999 49.0716 23.0947 48.8465C22.2844 48.3963 21.7892 47.5409 21.7892 46.5955L21.7441 27.147C21.7892 27.3721 21.9242 27.5522 22.1043 27.6422C22.6445 27.9123 23.2748 27.9123 23.815 27.6422C23.9951 27.5522 24.1302 27.3721 24.1752 27.147L24.2202 46.5955C24.2202 46.6405 24.2652 46.6855 24.3103 46.7305C24.3553 46.7756 24.4003 46.7756 24.4453 46.7305L26.8314 45.38C27.0114 45.3349 27.2365 45.3349 27.4166 45.47C27.9569 45.7401 28.272 46.2803 28.272 46.9106Z" fill="#DEDFFB"/>
<path d="M24.267 27.1016C24.222 27.3267 24.0869 27.5068 23.9068 27.5968C23.3666 27.8669 22.7363 27.8669 22.1961 27.5968C22.016 27.5068 21.881 27.3267 21.8359 27.1016C21.881 26.8765 21.971 26.6964 22.1961 26.6064C22.7363 26.3363 23.3666 26.3363 23.9068 26.6064C24.0869 26.6514 24.222 26.8765 24.267 27.1016Z" fill="#989FB2"/>
<path d="M26.5621 27.3269C26.5621 29.2628 24.9864 30.8385 23.0506 30.8385C21.1148 30.8385 19.5391 29.2628 19.5391 27.3269C19.5391 25.3911 21.1148 23.8154 23.0506 23.8154C24.9864 23.7704 26.5621 25.3461 26.5621 27.3269C26.5621 27.2819 26.5621 27.2819 26.5621 27.3269Z" fill="#57B3FE"/>
<path d="M35.6113 29.5777L32.2799 31.5135C32.7751 31.1984 33.0902 30.6131 33.0902 29.7127C33.0002 28.092 32.2799 26.5613 31.1094 25.4358L34.4408 23.5C35.6564 24.6255 36.3767 26.1562 36.4217 27.7769C36.4217 28.6773 36.1516 29.3075 35.6113 29.5777Z" fill="white"/>
<path d="M31.1095 25.436C32.325 26.5615 33.0453 28.0922 33.0903 29.7129C33.0903 31.1986 32.235 31.9189 31.0645 31.6488L31.1095 25.436Z" fill="#DEDFFB"/>
<path d="M42.5899 25.5709L39.2584 27.4617C39.7536 27.1916 40.0688 26.5614 40.0688 25.661C39.9787 24.0403 39.2584 22.5096 38.0879 21.3841L41.4193 19.4482C42.6349 20.5737 43.3552 22.1044 43.4002 23.7251C43.4002 24.6255 43.0851 25.2558 42.5899 25.5709Z" fill="white"/>
<path d="M38.088 21.3843C39.2585 22.5098 39.9788 24.0404 40.0689 25.6611C40.0689 27.1468 39.2135 27.8671 38.043 27.597L38.088 21.3843Z" fill="#DEDFFB"/>
<path d="M49.5216 21.5191L46.1901 23.4549C46.6854 23.1398 47.0005 22.5545 47.0005 21.6541C46.9105 20.0334 46.1901 18.5027 44.9746 17.3773L48.3061 15.4414C49.5216 16.5669 50.2419 18.0976 50.2869 19.7183C50.332 20.5737 50.0168 21.2039 49.5216 21.5191Z" fill="white"/>
<path d="M45.0196 17.3774C46.1901 18.5029 46.9105 19.9886 47.0005 21.6093C47.0005 23.0949 46.1451 23.8153 44.9746 23.5451L45.0196 17.3774Z" fill="#DEDFFB"/>
<path d="M35.2969 26.3814C35.2969 26.4715 35.2969 26.5165 35.2519 26.6065L34.3064 29.3977L34.2164 29.4878C34.1714 29.5328 34.1714 29.5778 34.1264 29.5778C34.0814 29.6228 34.0363 29.6228 33.9913 29.5778C33.9463 29.5328 33.9013 29.4878 33.9463 29.4428L33.9913 29.3077L34.8467 26.7866L33.6762 27.4619C33.6312 27.5069 33.5861 27.5069 33.5411 27.4619C33.4961 27.4169 33.4961 27.3719 33.4961 27.3268C33.4961 27.1918 33.5861 27.0567 33.6762 26.9667L35.0268 26.1563C35.0718 26.1113 35.1618 26.1113 35.2068 26.1563C35.2519 26.2013 35.2969 26.2914 35.2969 26.3814Z" fill="#1D2943"/>
<path d="M42.3184 22.2397C42.3184 22.3298 42.3184 22.3748 42.2733 22.4648L41.3279 25.256L41.2379 25.3911C41.1929 25.4361 41.1929 25.4811 41.1479 25.4811C41.1028 25.5262 41.0578 25.5262 41.0128 25.4811C40.9678 25.4361 40.9228 25.3911 40.9678 25.3461V25.211L41.8231 22.6899L40.6977 23.3652C40.6526 23.4102 40.6076 23.4102 40.5626 23.3652C40.5176 23.3202 40.5176 23.2752 40.5176 23.2302C40.5176 23.0951 40.6076 22.96 40.6977 22.87L42.0482 22.0596C42.0933 22.0146 42.1833 22.0146 42.2283 22.0596C42.3184 22.1047 42.3184 22.1497 42.3184 22.2397Z" fill="#1D2943"/>
<path d="M49.162 18.188C49.162 18.278 49.162 18.323 49.117 18.4131L48.1716 21.2043L48.0815 21.3393C48.0365 21.3844 48.0365 21.4294 47.9915 21.4294C47.9465 21.4744 47.9015 21.4744 47.8564 21.4294C47.8114 21.3844 47.7664 21.3393 47.8114 21.2943L47.8564 21.1593L48.7118 18.6382L47.5863 19.3135C47.5413 19.3585 47.4963 19.3585 47.4513 19.3135C47.4062 19.2684 47.4062 19.2234 47.4062 19.1784C47.4062 19.0433 47.4963 18.9083 47.5863 18.8182L48.9369 18.0079C48.9819 17.9629 49.072 17.9629 49.117 18.0079C49.162 18.0529 49.162 18.1429 49.162 18.188Z" fill="#1D2943"/>
<path d="M33.2246 36.1956L43.1289 30.4331L47.5409 34.3498L37.5915 40.1574L33.2246 36.1956Z" fill="#E93565"/>
<path d="M49.9264 25.9312C49.3862 26.2464 49.3412 26.9217 49.8814 27.4169C50.4217 27.9121 51.187 28.0472 51.8623 27.732C52.4025 27.4169 52.4475 26.7416 51.9073 26.2464C51.3671 25.7512 50.6017 25.6161 49.9264 25.9312Z" fill="#78E75A"/>
<path d="M52.944 28.8126C52.4038 29.1277 52.3588 29.803 52.899 30.2982C53.4392 30.7935 54.2046 30.9285 54.8799 30.6134C55.4201 30.2982 55.4651 29.6229 54.9249 29.1277C54.3846 28.6325 53.6193 28.4975 52.944 28.8126Z" fill="#E3E7F0"/>
<path d="M49.026 31.1085C48.4858 31.4236 48.4408 32.0989 48.981 32.5941C49.5213 33.0894 50.2866 33.2244 50.9619 32.9093C51.5021 32.5941 51.5471 31.9188 51.0069 31.4236C50.4667 30.9284 49.7013 30.7934 49.026 31.1085Z" fill="#FFD06C"/>
<path d="M45.9655 28.1821C45.4253 28.4972 45.3802 29.1725 45.9205 29.7127C46.4607 30.208 47.2261 30.343 47.9013 30.0279C48.4416 29.7127 48.4866 29.0375 47.9464 28.5422C47.4061 28.002 46.6408 27.8669 45.9655 28.1821Z" fill="#57B3FE"/>
<path d="M31.3352 11.5251C29.9396 11.5251 28.8141 12.6506 28.8141 14.0012C28.8141 12.6056 27.6886 11.4801 26.293 11.4801C27.6886 11.4801 28.8141 10.3546 28.8141 8.95898C28.8141 10.3996 29.9396 11.5251 31.3352 11.5251Z" fill="white"/>
<path d="M31.1992 20.2138C32.91 14.8565 36.7366 9.72423 41.0135 7.24815C42.3641 6.39278 43.9398 5.94258 45.5155 5.85254H45.6505C45.7406 5.85254 45.8756 5.85254 45.9657 5.85254H46.0557H46.1458C46.2808 5.85254 46.3709 5.89756 46.5059 5.89756C46.641 5.89756 46.731 5.94258 46.8211 5.9876L47.0462 6.07764H47.0912L47.1812 6.12266C47.3613 6.2127 47.5414 6.25772 47.7214 6.34776C48.8469 7.02305 49.6573 8.0585 50.0175 9.31906L31.1992 20.2138Z" fill="#FDBC1F"/>
</g>
<defs>
<linearGradient id="paint0_linear_3161_694" x1="0" y1="64.7029" x2="79.4057" y2="64.7029" gradientUnits="userSpaceOnUse">
<stop stop-color="#FFED44"/>
<stop offset="0.07" stop-color="#FFF047"/>
<stop offset="0.3" stop-color="#FFF24A"/>
<stop offset="0.55" stop-color="#FFE23A"/>
<stop offset="0.74" stop-color="#FFDC34"/>
<stop offset="1" stop-color="#F9B519"/>
</linearGradient>
<clipPath id="clip0_3161_694">
<rect width="79.4147" height="80" fill="white"/>
</clipPath>
</defs>
</svg>
