<svg width="80" height="70" viewBox="0 0 80 70" fill="none" xmlns="http://www.w3.org/2000/svg">
<g clip-path="url(#clip0_3161_783)">
<path d="M66.7574 30.7937C49.1156 20.5896 30.8844 20.5896 13.2426 30.7937C4.39909 35.8731 0 41.0431 0 46.2585C0 51.474 4.39909 56.5987 13.2426 61.678C30.8844 71.8821 49.1156 71.8821 66.7574 61.678C75.6009 56.5987 80 51.3833 80 46.2132C80 41.0431 75.6009 35.8731 66.7574 30.7937Z" fill="#949494"/>
<path d="M66.7574 30.7937C49.1156 20.5896 30.8844 20.5896 13.2426 30.7937C4.39909 35.8731 0 41.0431 0 46.2585C0 51.474 4.39909 56.5987 13.2426 61.678C30.8844 71.8821 49.1156 71.8821 66.7574 61.678C75.6009 56.5987 80 51.3833 80 46.2132C80 41.0431 75.6009 35.8731 66.7574 30.7937Z" fill="#2E2E2E"/>
<path d="M66.7574 53.9683C49.1156 64.1724 30.8844 64.1724 13.2426 53.9683C4.39909 48.889 0 43.7189 0 38.5488V46.2586C0 51.4286 4.39909 56.5987 13.2426 61.6781C30.8844 71.8822 49.1156 71.8822 66.7574 61.6781C75.6009 56.5987 80 51.3833 80 46.2132V38.5488C80 43.7189 75.6009 48.889 66.7574 53.9683Z" fill="url(#paint0_linear_3161_783)"/>
<path d="M66.7574 23.0837C49.1156 12.8796 30.8844 12.8796 13.2426 23.0837C4.39909 28.1631 0 33.3332 0 38.5486C0 43.764 4.39909 48.8887 13.2426 53.9681C30.8844 64.1722 49.1156 64.1722 66.7574 53.9681C75.6009 48.8887 80 43.7186 80 38.5486C80 33.3785 75.6009 28.1631 66.7574 23.0837Z" fill="#612E00"/>
<mask id="mask0_3161_783" style="mask-type:luminance" maskUnits="userSpaceOnUse" x="0" y="15" width="80" height="47">
<path d="M66.7574 23.0837C49.1156 12.8796 30.8844 12.8796 13.2426 23.0837C4.39909 28.1631 0 33.3332 0 38.5486C0 43.764 4.39909 48.8887 13.2426 53.9681C30.8844 64.1722 49.1156 64.1722 66.7574 53.9681C75.6009 48.8887 80 43.7186 80 38.5486C80 33.3785 75.6009 28.1631 66.7574 23.0837Z" fill="white"/>
</mask>
<g mask="url(#mask0_3161_783)">
<path opacity="0.03" d="M86.621 16.5078L87.7548 17.1427L86.4396 16.3718L86.0767 16.145L86.621 16.5078ZM76.3262 5.03391C76.0541 5.16996 75.782 5.30601 75.5099 5.39672C75.8273 5.30601 76.0994 5.16996 76.3262 5.03391ZM77.7321 3.40125C77.7774 3.2652 77.8228 3.08379 77.8228 2.94774C77.8228 2.17676 77.3239 1.45114 76.3262 0.861571C74.0586 -0.272216 71.3829 -0.272216 69.1153 0.861571C68.1176 1.45114 67.6187 2.17676 67.6187 2.94774V28.7981C66.0314 29.2516 64.5348 29.9319 63.1289 30.7482C60.1357 32.4715 58.5938 34.2403 58.5938 36.009V37.4149C58.5938 39.1836 60.0903 40.9523 63.1289 42.6756C69.1606 46.1677 75.3738 46.1677 81.4055 42.6756C84.3987 40.9523 85.9407 39.1836 85.9407 37.4149V36.8253L86.6663 37.2335L90.0223 39.1836L94.6028 36.5532V15.8276L91.2468 13.8774L87.8908 11.9273L82.8568 9.07019L81.1788 8.07245L77.8681 6.16769V2.94774C77.8228 3.08379 77.8228 3.2652 77.7321 3.40125ZM69.1153 5.03391C68.8885 4.89785 68.6618 4.7618 68.4804 4.58039C68.6618 4.71645 68.8885 4.89785 69.1153 5.03391Z" fill="#F9F8F7"/>
<path opacity="0.06" d="M85.6249 16.5078L86.7587 17.1427L85.4435 16.3718L85.0807 16.145L85.6249 16.5078ZM76.736 3.40125C76.7813 3.2652 76.8267 3.08379 76.8267 2.94774C76.8267 2.17676 76.3278 1.45114 75.3301 0.861571C73.0625 -0.272216 70.3868 -0.272216 68.1192 0.861571C67.1215 1.45114 66.6226 2.17676 66.6226 2.94774V28.7981C65.0353 29.2516 63.5387 29.9319 62.1328 30.7482C59.1396 32.4715 57.5977 34.2403 57.5977 36.009V37.4149C57.5977 39.1836 59.0943 40.9523 62.1328 42.6756C68.1645 46.1677 74.3777 46.1677 80.4094 42.6756C83.4026 40.9523 84.9446 39.1836 84.9446 37.4149V36.8253L85.6702 37.2335L89.0262 39.1836L93.6067 36.5532V15.8276L90.2507 13.8774L86.8947 11.9273L81.8607 9.07019L80.1827 8.11781L76.872 6.21304V2.94774C76.8267 3.08379 76.7813 3.2652 76.736 3.40125Z" fill="#F3F1F0"/>
<path opacity="0.09" d="M84.5815 16.5078L85.7153 17.1881L84.4001 16.4171L84.0373 16.1904L84.5815 16.5078ZM75.8286 2.94774C75.8286 2.17676 75.3298 1.45114 74.332 0.861571C72.0645 -0.272216 69.3887 -0.317567 67.1212 0.861571C66.1234 1.45114 65.6246 2.17676 65.6246 2.94774V28.8434C64.0372 29.2969 62.5407 29.9772 61.1348 30.7935C58.1416 32.5169 56.5996 34.2856 56.5996 36.0543V37.4602C56.5996 39.2289 58.0962 40.9976 61.1348 42.721C67.1665 46.213 73.3797 46.213 79.4114 42.721C82.4046 40.9976 83.9466 39.2289 83.9466 37.4602V36.8706L84.6722 37.2788L87.9828 39.2289L92.5633 36.5985V15.8276L89.2073 13.8774L85.8513 11.9273L80.8173 9.07019L79.1393 8.11781L75.8286 6.21305V2.94774Z" fill="#ECEAE8"/>
<path opacity="0.12" d="M83.5834 16.5078L84.7172 17.1881L83.402 16.4171L82.9939 16.1904L83.5834 16.5078ZM73.2886 5.03391C73.0165 5.16996 72.7444 5.30601 72.4723 5.39672C72.7898 5.30601 73.0619 5.16996 73.2886 5.03391C73.5154 4.89785 73.7422 4.7618 73.9236 4.58039C73.7422 4.7618 73.5608 4.89785 73.2886 5.03391ZM74.7399 3.40125C74.7852 3.2652 74.8306 3.08379 74.8306 2.94774C74.8306 2.17676 74.3317 1.45114 73.334 0.861571C71.0664 -0.272216 68.3907 -0.272216 66.1231 0.861571C65.1254 1.45114 64.6265 2.17676 64.6265 2.94774V28.7981C63.0392 29.2516 61.5426 29.9319 60.1367 30.7482C57.1435 32.4715 55.6016 34.2403 55.6016 36.009V37.4149C55.6016 39.1836 57.0982 40.9523 60.1367 42.6756C66.1685 46.1677 72.3816 46.1677 78.4134 42.6756C81.4065 40.9523 82.9485 39.1836 82.9485 37.4149V36.8253L83.6741 37.2335L87.0301 39.1836L91.6106 36.5532V15.8276L88.2546 13.8774L84.8986 11.9273L79.8193 9.07019L78.1412 8.11781L74.8306 6.21304V2.94774C74.7852 3.08379 74.7852 3.2652 74.7399 3.40125ZM66.1231 5.03391C66.3952 5.16996 66.6673 5.30601 66.9394 5.39672C66.622 5.30601 66.3499 5.16996 66.1231 5.03391Z" fill="#E6E3E0"/>
<path opacity="0.15" d="M82.5858 16.5078L83.7196 17.1881L82.4044 16.4171L81.9962 16.1904L82.5858 16.5078ZM72.291 5.03391C72.0189 5.16996 71.7468 5.30601 71.4747 5.39672C71.7922 5.30601 72.0643 5.16996 72.291 5.03391ZM73.6969 3.40125C73.7423 3.2652 73.7876 3.08379 73.7876 2.94774C73.7876 2.17676 73.2887 1.45114 72.291 0.861571C70.0234 -0.272216 67.3477 -0.272216 65.0801 0.861571C64.0824 1.45114 63.5835 2.17676 63.5835 2.94774V28.7981C61.9962 29.2516 60.4996 29.9319 59.0937 30.7482C56.1005 32.4715 54.5586 34.2403 54.5586 36.009V37.4149C54.5586 39.1836 56.0552 40.9523 59.0937 42.6756C65.1255 46.1677 71.3386 46.1677 77.3704 42.6756C80.3636 40.9523 81.9055 39.1836 81.9055 37.4149V36.8253L82.6312 37.2335L85.9872 39.1836L90.5677 36.5532V15.8276L87.2117 13.8774L83.8556 11.9273L78.8216 9.07019L77.1436 8.11781L73.833 6.21304V2.94774C73.7876 3.08379 73.7876 3.2652 73.6969 3.40125ZM65.0801 5.03391C64.8534 4.89785 64.6266 4.7618 64.4452 4.58039C64.672 4.7618 64.8534 4.89785 65.0801 5.03391Z" fill="#E0DCD8"/>
<path opacity="0.18" d="M81.5424 16.5078L82.7215 17.1881L81.4064 16.4171L80.9982 16.1904L81.5424 16.5078ZM72.6989 3.40125C72.7442 3.2652 72.7896 3.08379 72.7896 2.94774C72.7896 2.17676 72.2907 1.45114 71.293 0.861571C69.0254 -0.272216 66.3497 -0.272216 64.0821 0.861571C63.0844 1.45114 62.5855 2.17676 62.5855 2.94774V28.7981C60.9982 29.2516 59.5016 29.9319 58.0957 30.7482C55.1025 32.4715 53.5605 34.2403 53.5605 36.009V37.4149C53.5605 39.1836 55.0571 40.9523 58.0957 42.6756C64.1274 46.1677 70.3406 46.1677 76.3723 42.6756C79.3655 40.9523 80.9075 39.1836 80.9075 37.4149V36.8253L81.6331 37.2335L84.9891 39.1836L89.5696 36.5532V15.8276L86.2136 13.8774L82.8576 11.9273L77.8689 9.07019L76.1909 8.11781L72.8803 6.21304V2.94774C72.7896 3.08379 72.7442 3.2652 72.6989 3.40125Z" fill="#DAD4D1"/>
<path opacity="0.21" d="M80.5444 16.5078L81.7235 17.1881L80.4083 16.4171L80.0001 16.1904L80.5444 16.5078ZM71.7008 3.40125C71.7462 3.2652 71.7915 3.08379 71.7915 2.94774C71.7915 2.17676 71.2927 1.45114 70.2949 0.861571C68.0274 -0.272216 65.3516 -0.272216 63.084 0.861571C62.0863 1.45114 61.5874 2.17676 61.5874 2.94774V28.7981C60.0001 29.2516 58.5035 29.9319 57.0976 30.7482C54.1045 32.4715 52.5625 34.2403 52.5625 36.009V37.4149C52.5625 39.1836 54.0591 40.9523 57.0976 42.6756C63.1294 46.1677 69.3425 46.1677 75.3743 42.6756C78.3675 40.9523 79.9094 39.1836 79.9094 37.4149V36.8253L80.6351 37.2335L83.9911 39.1836L88.5716 36.5532V15.8276L85.2156 13.8774L81.8596 11.9273L76.8255 9.07019L75.1475 8.11781L71.8369 6.21304V2.94774C71.7915 3.08379 71.7462 3.2652 71.7008 3.40125ZM63.084 5.03391C62.8573 4.89785 62.6305 4.7618 62.4491 4.58039C62.0863 4.30828 61.8596 3.94547 61.6781 3.49196C61.8142 3.90012 62.0863 4.26293 62.4038 4.53504C62.6305 4.71645 62.8573 4.89785 63.084 5.03391Z" fill="#D4CDC9"/>
<path opacity="0.24" d="M79.5463 16.5078L80.7255 17.1881L79.4556 16.4625L79.0475 16.2357L79.5463 16.5078ZM70.7028 3.40125C70.7481 3.2652 70.7935 3.08379 70.7935 2.94774C70.7935 2.17676 70.2946 1.45114 69.2969 0.861571C67.0293 -0.272216 64.3536 -0.272216 62.086 0.861571C61.0883 1.45114 60.5894 2.17676 60.5894 2.94774V28.7981C59.0021 29.2516 57.5055 29.9319 56.0996 30.7482C53.1064 32.4715 51.5645 34.2403 51.5645 36.009V37.4149C51.5645 39.1836 53.0611 40.9523 56.0996 42.6756C62.1313 46.1677 68.3445 46.1677 74.3762 42.6756C77.3694 40.9523 78.9114 39.1836 78.9114 37.4149V36.8253L79.637 37.2335L82.993 39.1836L87.5735 36.5532V15.8276L84.2175 13.8774L80.8615 11.9273L75.7821 9.07019L74.1041 8.07245L70.7935 6.16769V2.94774C70.7481 3.08379 70.7481 3.2652 70.7028 3.40125ZM62.086 5.03391C62.3581 5.16996 62.6302 5.30601 62.9023 5.39672C62.5849 5.30601 62.3128 5.16996 62.086 5.03391Z" fill="#CEC6C1"/>
<path opacity="0.27" d="M78.5029 16.5078L79.6821 17.1881L78.4122 16.4625L78.004 16.2357L78.5029 16.5078ZM68.2535 5.03391C67.9814 5.16996 67.7093 5.30601 67.4372 5.39672C67.7546 5.30601 68.0267 5.16996 68.2535 5.03391C68.4802 4.89785 68.707 4.7618 68.8884 4.58039C68.707 4.7618 68.5256 4.89785 68.2535 5.03391ZM69.7047 3.40125C69.7501 3.2652 69.7954 3.08379 69.7954 2.94774C69.7954 2.17676 69.2966 1.45114 68.2988 0.861571C66.0313 -0.272216 63.3555 -0.272216 61.0879 0.861571C60.0902 1.45114 59.5913 2.17676 59.5913 2.94774V28.7981C58.004 29.2516 56.5074 29.9319 55.1016 30.7482C52.1084 32.4715 50.5664 34.2403 50.5664 36.009V37.4149C50.5664 39.1836 52.063 40.9523 55.1016 42.6756C61.1333 46.1677 67.3465 46.1677 73.3782 42.6756C76.3714 40.9523 77.9133 39.1836 77.9133 37.4149V36.8253L78.639 37.2335L81.995 39.1836L86.5755 36.5532V15.8276L83.2195 13.8774L79.8635 11.9273L74.7841 9.07019L73.1061 8.11781L69.7954 6.21304V2.94774C69.7501 3.08379 69.7501 3.2652 69.7047 3.40125ZM61.0879 5.03391C60.8612 4.89785 60.6344 4.7618 60.453 4.58039C60.6344 4.7618 60.8158 4.89785 61.0879 5.03391C61.3601 5.16996 61.6322 5.30601 61.9043 5.39672C61.5868 5.30601 61.3147 5.16996 61.0879 5.03391Z" fill="#C7BFB9"/>
<path opacity="0.3" d="M77.5053 16.5078L78.6844 17.1881L77.4146 16.4625L77.0064 16.2357L77.5053 16.5078ZM67.2559 5.03391C66.9838 5.16996 66.7116 5.30601 66.4395 5.39672C66.757 5.30601 66.9838 5.16996 67.2559 5.03391ZM68.6618 3.40125C68.7071 3.2652 68.7525 3.08379 68.7525 2.94774C68.7525 2.17676 68.2536 1.45114 67.2559 0.861571C64.9883 -0.272216 62.3126 -0.272216 60.045 0.861571C59.0472 1.45114 58.5484 2.17676 58.5484 2.94774V28.7981C56.9611 29.2516 55.4645 29.9319 54.0586 30.7482C51.0654 32.4715 49.5234 34.2403 49.5234 36.009V37.4149C49.5234 39.1836 51.02 40.9523 54.0586 42.6756C60.0903 46.1677 66.3035 46.1677 72.3352 42.6756C75.3284 40.9523 76.8704 39.1836 76.8704 37.4149V36.8253L77.596 37.2335L80.952 39.1836L85.5325 36.5532V15.8276L82.1765 13.8774L78.8205 11.9273L73.7865 9.07019L72.1085 8.11781L68.7978 6.21304V2.94774C68.7525 3.08379 68.7071 3.2652 68.6618 3.40125ZM60.045 5.03391C59.8182 4.89785 59.5915 4.7618 59.4101 4.58039C59.0926 4.30828 58.8205 3.94547 58.6844 3.53731C58.8205 3.94547 59.0926 4.30828 59.4554 4.58039C59.5915 4.71645 59.8182 4.89785 60.045 5.03391Z" fill="#C1B8B2"/>
<path opacity="0.33" d="M76.4639 16.4625L77.643 17.1427L76.3731 16.4171L75.9196 16.1904L76.4639 16.4625ZM67.6657 3.40125C67.711 3.2652 67.7564 3.08379 67.7564 2.94774C67.7564 2.17676 67.2575 1.45114 66.2598 0.861571C63.9922 -0.272216 61.3165 -0.272216 59.0489 0.861571C58.0512 1.45114 57.5523 2.17676 57.5523 2.94774V28.7981C55.965 29.2516 54.4684 29.9319 53.0625 30.7482C50.0693 32.4715 48.5273 34.2403 48.5273 36.009V37.4149C48.5273 39.1836 50.0239 40.9523 53.0625 42.6756C59.0942 46.1677 65.3074 46.1677 71.3391 42.6756C74.3323 40.9523 75.8743 39.1836 75.8743 37.4149V36.8253L76.5999 37.2335L79.9559 39.1836L84.5364 36.5532V15.8276L81.1804 13.8774L77.8244 11.9273L72.7904 9.07019L71.1124 8.11781L67.8017 6.21304V2.94774C67.7564 3.08379 67.711 3.2652 67.6657 3.40125ZM58.414 4.58039C58.0965 4.30828 57.8244 3.94547 57.643 3.53731C57.779 3.94547 58.0512 4.30828 58.414 4.58039Z" fill="#BBB1AA"/>
<path opacity="0.36" d="M75.4658 16.4625L76.6449 17.1428L75.3751 16.4171L74.9216 16.145L75.4658 16.4625ZM66.7583 2.94774C66.7583 2.17676 66.2595 1.45114 65.2617 0.861571C62.9941 -0.272216 60.3184 -0.317567 58.0508 0.861571C57.0531 1.45114 56.5542 2.17676 56.5542 2.94774V28.8434C54.9669 29.2969 53.4703 29.9772 52.0644 30.7935C49.0712 32.5169 47.5293 34.2856 47.5293 36.0543V37.4602C47.5293 39.2289 49.0259 40.9976 52.0644 42.721C58.0962 46.213 64.3093 46.213 70.3411 42.721C73.3343 40.9976 74.8762 39.2289 74.8762 37.4602V36.8706L75.6019 37.2788L78.9579 39.2289L83.5384 36.5985V15.8276L80.1824 13.8774L76.8263 11.9273L71.747 9.07019L70.069 8.07246L66.7583 6.16769V2.94774ZM57.4159 4.58039C57.0985 4.30828 56.8263 3.94547 56.6449 3.53731C56.781 3.94547 57.0531 4.30828 57.4159 4.58039Z" fill="#B5AAA2"/>
<path opacity="0.39" d="M74.4678 16.4625L75.6922 17.1427L74.4224 16.4171L73.9689 16.145L74.4678 16.4625ZM64.2183 5.03391C63.9462 5.16996 63.6741 5.30601 63.402 5.39672C63.7195 5.30601 63.9916 5.16996 64.2183 5.03391C64.4451 4.89785 64.6718 4.7618 64.8532 4.58039C64.6718 4.7618 64.4904 4.89785 64.2183 5.03391ZM65.6696 3.40125C65.7149 3.2652 65.7603 3.08379 65.7603 2.94774C65.7603 2.17676 65.2614 1.45114 64.2637 0.861571C61.9961 -0.272216 59.3204 -0.272216 57.0528 0.861571C56.0551 1.45114 55.5562 2.17676 55.5562 2.94774V28.7981C53.9689 29.2516 52.4723 29.9319 51.0664 30.7482C48.0732 32.4715 46.5312 34.2403 46.5312 36.009V37.4149C46.5312 39.1836 48.0278 40.9523 51.0664 42.6756C57.0981 46.1677 63.3113 46.1677 69.343 42.6756C72.3362 40.9523 73.8782 39.1836 73.8782 37.4149V36.8253L74.6038 37.2335L77.9598 39.1836L82.5403 36.5532V15.8276L79.1843 13.8774L75.8283 11.9273L70.7489 9.07019L69.0709 8.11781L65.7603 6.21304V2.94774C65.7149 3.08379 65.7149 3.2652 65.6696 3.40125ZM57.0528 5.03391C56.826 4.89785 56.5993 4.7618 56.4179 4.58039C56.1004 4.30828 55.8283 3.94547 55.6469 3.53731C55.783 3.94547 56.0551 4.30828 56.4179 4.58039C56.5993 4.7618 56.7807 4.89785 57.0528 5.03391C57.3249 5.16996 57.597 5.30601 57.8691 5.39672C57.5517 5.30601 57.2796 5.16996 57.0528 5.03391Z" fill="#AFA39B"/>
<path opacity="0.42" d="M63.2207 5.03391C62.9486 5.16996 62.6765 5.30601 62.4044 5.39672C62.7218 5.30601 62.9939 5.16996 63.2207 5.03391ZM64.6266 3.40125C64.672 3.2652 64.7173 3.08379 64.7173 2.94774C64.7173 2.17676 64.2184 1.45114 63.2207 0.861571C60.9531 -0.272216 58.2774 -0.272216 56.0098 0.861571C55.0121 1.45114 54.5132 2.17676 54.5132 2.94774V28.7981C52.9259 29.2516 51.4293 29.9319 50.0234 30.7482C47.0302 32.4715 45.4883 34.2403 45.4883 36.009V37.4149C45.4883 39.1836 46.9849 40.9523 50.0234 42.6756C56.0552 46.1677 62.2683 46.1677 68.3001 42.6756C71.2933 40.9523 72.8352 39.1836 72.8352 37.4149V36.8253L73.5608 37.2335L76.9169 39.1836L81.4973 36.5532V15.8276L78.1413 13.8774L74.7853 11.9273L69.7513 9.07019L68.0733 8.11781L64.7627 6.21304V2.94774C64.7173 3.08379 64.672 3.2652 64.6266 3.40125ZM55.3749 4.58039C55.0574 4.30828 54.7853 3.94547 54.6039 3.53731C54.74 3.94547 55.0121 4.30828 55.3749 4.58039Z" fill="#A89C93"/>
<path opacity="0.45" d="M63.6286 3.40125C63.6739 3.2652 63.7193 3.08379 63.7193 2.94774C63.7193 2.17676 63.2204 1.45114 62.2227 0.861571C59.9551 -0.272216 57.2794 -0.272216 55.0118 0.861571C54.014 1.40579 53.5152 2.17676 53.5152 2.90239V28.7981C51.9279 29.2516 50.4313 29.9319 49.0254 30.7482C46.0322 32.4715 44.4902 34.2403 44.4902 36.009V37.4149C44.4902 39.1836 45.9868 40.9523 49.0254 42.6756C55.0571 46.1677 61.2703 46.1677 67.302 42.6756C70.2952 40.9523 71.8372 39.1836 71.8372 37.4149V36.8253L72.5628 37.2335L75.9188 39.1836L80.4993 36.5532V15.8276L77.1433 13.8774L73.7873 11.9273L68.7986 9.07019L67.1206 8.11781L63.81 6.21304V2.94774C63.7193 3.08379 63.6739 3.2652 63.6286 3.40125ZM54.3769 4.58039C54.0594 4.30828 53.7873 3.94547 53.6059 3.53731C53.7419 3.94547 54.014 4.30828 54.3769 4.58039Z" fill="#A2958B"/>
<path opacity="0.48" d="M62.7212 2.94774C62.7212 2.17676 62.2223 1.45114 61.2246 0.861571C58.957 -0.272216 56.2813 -0.272216 54.0137 0.861571C53.016 1.45114 52.5171 2.17676 52.5171 2.94774V28.7981C50.9298 29.2516 49.4332 29.9319 48.0273 30.7482C45.0341 32.4715 43.4922 34.2403 43.4922 36.009V37.4149C43.4922 39.1836 44.9888 40.9523 48.0273 42.6756C54.0591 46.1677 60.2722 46.1677 66.304 42.6756C69.2972 40.9523 70.8391 39.1836 70.8391 37.4149V36.8253L71.5648 37.2335L74.9208 39.1836L79.5013 36.5532V15.8276L76.1452 13.8774L72.7892 11.9273L67.7099 9.07019L66.0319 8.11781L62.7212 6.21304V2.94774ZM54.0137 5.03391C53.787 4.89785 53.5602 4.7618 53.3788 4.58039C53.016 4.30828 52.7892 3.94547 52.6078 3.49196C52.7439 3.90012 53.016 4.26293 53.3788 4.53504C53.5602 4.71645 53.787 4.89785 54.0137 5.03391Z" fill="#9C8E83"/>
<path opacity="0.52" d="M60.2266 5.03391C60.4533 4.89785 60.6801 4.7618 60.8615 4.58039C60.6347 4.7618 60.4533 4.89785 60.2266 5.03391ZM61.6325 3.40125C61.6778 3.2652 61.7232 3.08379 61.7232 2.94774C61.7232 2.17676 61.2243 1.45114 60.2266 0.861571C57.959 -0.272216 55.2833 -0.272216 53.0157 0.861571C52.018 1.45114 51.5191 2.17676 51.5191 2.94774V28.7981C49.9318 29.2516 48.4352 29.9319 47.0293 30.7482C44.0361 32.4715 42.4941 34.2403 42.4941 36.009V37.4149C42.4941 39.1836 43.9907 40.9523 47.0293 42.6756C53.061 46.1677 59.2742 46.1677 65.3059 42.6756C68.2991 40.9523 69.8411 39.1836 69.8411 37.4149V36.8253L70.5667 37.2335L73.9227 39.1836L78.5032 36.5532V15.8276L75.1472 13.8774L71.7912 11.9273L66.7118 9.07019L65.0338 8.11781L61.6778 6.16769V2.94774C61.6778 3.08379 61.6778 3.2652 61.6325 3.40125ZM53.0157 5.03391C52.7889 4.89785 52.5622 4.7618 52.3808 4.58039C52.0633 4.30828 51.7912 3.94547 51.6098 3.53731C51.7458 3.94547 52.018 4.30828 52.3808 4.58039C52.5622 4.7618 52.7889 4.89785 53.0157 5.03391C53.2878 5.16996 53.5599 5.30601 53.832 5.39672C53.5145 5.30601 53.2424 5.16996 53.0157 5.03391Z" fill="#96867C"/>
<path opacity="0.55" d="M59.2285 5.03391C59.4553 4.89785 59.682 4.7618 59.8634 4.58039C59.6367 4.7618 59.4553 4.89785 59.2285 5.03391ZM60.6344 3.40125C60.6798 3.2652 60.7251 3.08379 60.7251 2.94774C60.7251 2.17676 60.2263 1.45114 59.2285 0.861571C56.9609 -0.272216 54.2852 -0.272216 52.0176 0.861571C51.0199 1.45114 50.521 2.17676 50.521 2.94774V28.7981C48.9337 29.2516 47.4371 29.9319 46.0312 30.7482C43.038 32.4715 41.4961 34.2403 41.4961 36.009V37.4149C41.4961 39.1836 42.9927 40.9523 46.0312 42.6756C52.063 46.1677 58.2761 46.1677 64.3079 42.6756C67.3011 40.9523 68.843 39.1836 68.843 37.4149V36.8253L69.5687 37.2335L72.9247 39.1836L77.5052 36.5532V15.8276L74.1492 13.8774L70.7931 11.9273L65.7138 9.07019L64.0358 8.11781L60.7251 6.21304V2.94774C60.6798 3.08379 60.6798 3.2652 60.6344 3.40125ZM52.0176 5.03391C51.7909 4.89785 51.5641 4.7618 51.3827 4.58039C51.0653 4.30828 50.7931 3.94547 50.6117 3.53731C50.7478 3.94547 51.0199 4.30828 51.3827 4.58039C51.5641 4.7618 51.7909 4.89785 52.0176 5.03391C52.2897 5.16996 52.5619 5.30601 52.834 5.39672C52.5165 5.30601 52.2444 5.16996 52.0176 5.03391Z" fill="#907F74"/>
<path opacity="0.58" d="M59.5914 3.40125C59.6368 3.2652 59.6822 3.08379 59.6822 2.94774C59.6822 2.17676 59.1833 1.45114 58.1856 0.861571C55.918 -0.272216 53.2422 -0.272216 50.9747 0.861571C49.9769 1.45114 49.4781 2.17676 49.4781 2.94774V28.7981C47.8908 29.2516 46.3942 29.9319 44.9883 30.7482C41.9951 32.4715 40.4531 34.2403 40.4531 36.009V37.4149C40.4531 39.1836 41.9497 40.9523 44.9883 42.6756C51.02 46.1677 57.2332 46.1677 63.2649 42.6756C66.2581 40.9523 67.8001 39.1836 67.8001 37.4149V36.8253L68.5257 37.2335L71.8817 39.1836L76.4622 36.5532V15.8276L73.1062 13.8774L69.7502 11.9273L64.7162 9.07019L63.0382 8.11781L59.7275 6.21304V2.94774C59.6822 3.08379 59.6368 3.2652 59.5914 3.40125ZM50.9747 5.03391C50.7479 4.89785 50.5212 4.7618 50.3397 4.58039C50.0223 4.30828 49.7502 3.94547 49.5688 3.53731C49.7048 3.94547 49.9769 4.30828 50.3397 4.58039C50.5212 4.71645 50.7479 4.89785 50.9747 5.03391Z" fill="#8A786C"/>
<path opacity="0.61" d="M58.6861 2.94774C58.6861 2.17676 58.1872 1.45114 57.1895 0.861571C54.9219 -0.272216 52.2461 -0.272216 49.9786 0.861571C48.9808 1.45114 48.482 2.17676 48.482 2.94774V28.7981C46.8947 29.2516 45.3981 29.9319 43.9922 30.7482C40.999 32.4715 39.457 34.2403 39.457 36.009V37.4149C39.457 39.1836 40.9536 40.9523 43.9922 42.6756C50.0239 46.1677 56.2371 46.1677 62.2688 42.6756C65.262 40.9523 66.804 39.1836 66.804 37.4149V36.8253L67.5296 37.2335L70.8856 39.1836L75.4661 36.5532V15.8276L72.0647 13.8774L68.7087 11.9273L63.6747 9.07019L61.9967 8.11781L58.6861 6.21304V2.94774ZM49.9786 5.03391C49.7518 4.89785 49.5251 4.7618 49.3437 4.58039C49.0262 4.30828 48.7541 3.94547 48.5727 3.53731C48.7087 3.94547 48.9808 4.30828 49.3437 4.58039C49.5251 4.7618 49.7518 4.89785 49.9786 5.03391C50.2507 5.16996 50.5228 5.30601 50.7949 5.39672C50.4774 5.30601 50.2053 5.16996 49.9786 5.03391Z" fill="#837164"/>
<path opacity="0.64" d="M66.3501 16.4625L67.62 17.1881L66.4408 16.5078L65.942 16.2357L66.3501 16.4625ZM57.688 2.94774C57.688 2.17676 57.1891 1.45114 56.1914 0.861571C53.9238 -0.272216 51.2481 -0.317567 48.9805 0.861571C47.9828 1.45114 47.4839 2.17676 47.4839 2.94774V28.8434C45.8966 29.2969 44.4 29.9772 42.9941 30.7935C40.0009 32.5169 38.459 34.2856 38.459 36.0543V37.4602C38.459 39.2289 39.9556 40.9976 42.9941 42.721C49.0259 46.213 55.239 46.213 61.2708 42.721C64.264 40.9976 65.8059 39.2289 65.8059 37.4602V36.8706L66.5315 37.2788L69.8876 39.2289L74.4681 36.5985V15.8276L71.112 13.8774L67.756 11.9273L62.6767 9.07019L60.9987 8.11781L57.688 6.21305V2.94774ZM48.3456 4.58039C48.0281 4.30828 47.756 3.94547 47.5746 3.53731C47.7107 3.94547 47.9828 4.30828 48.3456 4.58039Z" fill="#7D6A5D"/>
<path opacity="0.67" d="M65.3067 16.4625L66.5766 17.1881L65.3974 16.5078L64.8986 16.1904L65.3067 16.4625ZM55.148 5.03391C54.8759 5.16996 54.6038 5.30601 54.3317 5.39672C54.6491 5.30601 54.9213 5.16996 55.148 5.03391C55.3748 4.89785 55.6015 4.7618 55.7829 4.58039C55.6015 4.7618 55.4201 4.89785 55.148 5.03391ZM56.5993 3.40125C56.6446 3.2652 56.69 3.08379 56.69 2.94774C56.69 2.17676 56.1911 1.45114 55.1934 0.861571C52.9258 -0.272216 50.2501 -0.272216 47.9825 0.861571C46.9847 1.45114 46.4859 2.17676 46.4859 2.94774V28.7981C44.8986 29.2516 43.402 29.9319 41.9961 30.7482C39.0029 32.4715 37.4609 34.2403 37.4609 36.009V37.4149C37.4609 39.1836 38.9575 40.9523 41.9961 42.6756C48.0278 46.1677 54.241 46.1677 60.2727 42.6756C63.2659 40.9523 64.8079 39.1836 64.8079 37.4149V36.8253L65.5335 37.2335L68.8895 39.1836L73.47 36.5532V15.8276L70.114 13.8774L66.758 11.9273L61.6786 9.07019L60.0006 8.11781L56.69 6.21304V2.94774C56.6446 3.08379 56.6446 3.2652 56.5993 3.40125ZM47.9825 5.03391C47.7557 4.89785 47.529 4.7618 47.3476 4.58039C47.0301 4.30828 46.758 3.94547 46.5766 3.53731C46.7126 3.94547 46.9847 4.30828 47.3476 4.58039C47.529 4.7618 47.7104 4.89785 47.9825 5.03391C48.2546 5.16996 48.5267 5.30601 48.7988 5.39672C48.4813 5.30601 48.2092 5.16996 47.9825 5.03391Z" fill="#776355"/>
<path opacity="0.7" d="M64.3091 16.4171L65.579 17.1427L64.3998 16.4625L63.901 16.145L64.3091 16.4171ZM54.1504 5.03391C53.8783 5.16996 53.6062 5.30601 53.3341 5.39672C53.6515 5.30601 53.8783 5.16996 54.1504 5.03391ZM55.647 2.94774C55.647 2.17676 55.1481 1.45114 54.1504 0.861571C51.8828 -0.272216 49.2071 -0.272216 46.9395 0.861571C45.9418 1.45114 45.4429 2.17676 45.4429 2.94774V28.7981C43.8556 29.2516 42.359 29.9319 40.9531 30.7482C37.9599 32.4715 36.418 34.2403 36.418 36.009V37.4149C36.418 39.1836 37.9146 40.9523 40.9531 42.6756C46.9849 46.1677 53.198 46.1677 59.2298 42.6756C62.223 40.9523 63.7649 39.1836 63.7649 37.4149V36.8253L64.4905 37.2335L67.8465 39.1836L72.427 36.5532V15.8276L69.071 13.8774L65.715 11.9273L60.681 9.07019L58.9576 8.07245L55.647 6.16769V2.94774ZM46.3046 4.58039C45.9871 4.30828 45.715 3.94547 45.5336 3.53731C45.6697 3.94547 45.9418 4.30828 46.3046 4.58039Z" fill="#715C4D"/>
<path opacity="0.73" d="M63.2657 16.4171L64.5356 17.1427L63.3564 16.4625L62.8576 16.145L63.2657 16.4171ZM54.5582 3.40125C54.6036 3.2652 54.6489 3.08379 54.6489 2.94774C54.6489 2.17676 54.1501 1.45114 53.1523 0.861571C50.8848 -0.272216 48.209 -0.272216 45.9415 0.861571C44.9437 1.45114 44.4449 2.17676 44.4449 2.94774V28.8434C42.8576 29.2969 41.361 29.9772 39.9551 30.7935C36.9619 32.5169 35.4199 34.2856 35.4199 36.0543V37.4602C35.4199 39.2289 36.9165 40.9976 39.9551 42.721C45.9868 46.213 52.2 46.213 58.2317 42.721C61.2249 40.9976 62.7669 39.2289 62.7669 37.4602V36.8706L63.4925 37.2788L66.8485 39.2289L71.429 36.5985V15.8276L68.073 13.8774L64.717 11.9273L59.683 9.07019L58.005 8.11781L54.6943 6.21304V2.94774C54.6489 3.08379 54.6036 3.2652 54.5582 3.40125ZM45.3065 4.58039C44.9891 4.30828 44.717 3.94547 44.5356 3.53731C44.6716 3.94547 44.9437 4.30828 45.3065 4.58039Z" fill="#6B5546"/>
<path opacity="0.76" d="M62.2677 16.4171L63.5375 17.1427L62.3584 16.4625L61.8142 16.145L62.2677 16.4171ZM53.6509 2.94774C53.6509 2.17676 53.152 1.45114 52.1543 0.861571C49.8867 -0.272216 47.211 -0.272216 44.9434 0.861571C43.9457 1.45114 43.4468 2.17676 43.4468 2.94774V28.7981C41.8595 29.2516 40.3629 29.9319 38.957 30.7482C35.9638 32.4715 34.4219 34.2403 34.4219 36.009V37.4149C34.4219 39.1836 35.9185 40.9523 38.957 42.6756C44.9888 46.1677 51.2019 46.1677 57.2337 42.6756C60.2269 40.9523 61.7688 39.1836 61.7688 37.4149V36.8253L62.4944 37.2335L65.8504 39.1836L70.4309 36.5532V15.8276L67.0749 13.8774L63.7189 11.9273L58.6396 9.07019L56.9616 8.07245L53.6509 6.16769V2.94774ZM44.9434 5.03391C44.7167 4.89785 44.4899 4.7618 44.3085 4.58039C43.9457 4.30828 43.7189 3.94547 43.5375 3.49196C43.6736 3.90012 43.9457 4.26293 44.3085 4.53504C44.4899 4.71645 44.7167 4.89785 44.9434 5.03391Z" fill="#644E3E"/>
<path opacity="0.79" d="M61.2696 16.4171L62.5848 17.1881L61.4057 16.5078L60.8615 16.1904L61.2696 16.4171ZM51.1109 5.03391C50.8388 5.16996 50.5667 5.30601 50.2946 5.39672C50.612 5.30601 50.8841 5.16996 51.1109 5.03391C51.3377 4.89785 51.5644 4.7618 51.7458 4.58039C51.5644 4.7618 51.383 4.89785 51.1109 5.03391ZM52.5622 3.40125C52.6075 3.2652 52.6529 3.08379 52.6529 2.94774C52.6529 2.17676 52.154 1.45114 51.1563 0.861571C48.8887 -0.272216 46.2129 -0.272216 43.9454 0.861571C42.9476 1.45114 42.4488 2.17676 42.4488 2.94774V28.7981C40.8615 29.2516 39.3649 29.9319 37.959 30.7482C34.9658 32.4715 33.4238 34.2403 33.4238 36.009V37.4149C33.4238 39.1836 34.9204 40.9523 37.959 42.6756C43.9907 46.1677 50.2039 46.1677 56.2356 42.6756C59.2288 40.9523 60.7708 39.1836 60.7708 37.4149V36.8253L61.4964 37.2335L64.8524 39.1836L69.4783 36.5532V15.8276L66.1222 13.8774L62.7662 11.9273L57.6415 9.07019L55.9635 8.11781L52.6075 6.16769V2.94774C52.6075 3.08379 52.6075 3.2652 52.5622 3.40125ZM43.9454 5.03391C43.7186 4.89785 43.4919 4.7618 43.3105 4.58039C42.993 4.30828 42.7209 3.94547 42.5395 3.53731C42.6755 3.94547 42.9476 4.30828 43.3105 4.58039C43.4919 4.7618 43.6733 4.89785 43.9454 5.03391C44.2175 5.16996 44.4896 5.30601 44.7617 5.39672C44.4442 5.30601 44.1721 5.16996 43.9454 5.03391Z" fill="#5E4736"/>
<path opacity="0.82" d="M60.2267 16.4171L61.5419 17.1881L60.3627 16.5078L59.8185 16.1904L60.2267 16.4171ZM50.1133 5.03391C49.8412 5.16996 49.5691 5.30601 49.297 5.39672C49.6144 5.30601 49.8865 5.16996 50.1133 5.03391ZM51.5192 3.40125C51.5645 3.2652 51.6099 3.08379 51.6099 2.94774C51.6099 2.17676 51.111 1.45114 50.1133 0.861571C47.8457 -0.272216 45.17 -0.272216 42.9024 0.861571C41.9047 1.45114 41.4058 2.17676 41.4058 2.94774V28.7981C39.8185 29.2516 38.3219 29.9319 36.916 30.7482C33.9228 32.4715 32.3809 34.2403 32.3809 36.009V37.4149C32.3809 39.1836 33.8775 40.9523 36.916 42.6756C42.9478 46.1677 49.1609 46.1677 55.1926 42.6756C58.1858 40.9523 59.7278 39.1836 59.7278 37.4149V36.8253L60.4534 37.2335L63.8094 39.1836L68.3899 36.5532V15.8276L65.0339 13.8774L61.6779 11.9273L56.6439 9.07019L54.9659 8.11781L51.6552 6.21304V2.94774C51.6099 3.08379 51.5645 3.2652 51.5192 3.40125ZM42.2675 4.58039C41.95 4.30828 41.6779 3.94547 41.4965 3.53731C41.6326 3.94547 41.9047 4.30828 42.2675 4.58039Z" fill="#58402E"/>
<path opacity="0.85" d="M59.2286 16.4171L60.5438 17.1881L59.41 16.5078L58.8658 16.1904L59.2286 16.4171ZM50.5211 3.40125C50.5665 3.2652 50.6118 3.08379 50.6118 2.94774C50.6118 2.17676 50.113 1.45114 49.1152 0.861571C46.8477 -0.272216 44.1719 -0.272216 41.9044 0.861571C40.9066 1.45114 40.4078 2.17676 40.4078 2.94774V28.7981C38.8205 29.2516 37.3239 29.9319 35.918 30.7482C32.9248 32.4715 31.3828 34.2403 31.3828 36.009V37.4149C31.3828 39.1836 32.8794 40.9523 35.918 42.6756C41.9497 46.1677 48.1629 46.1677 54.1946 42.6756C57.1878 40.9523 58.7298 39.1836 58.7298 37.4149V36.8253L59.4554 37.2335L62.8114 39.1836L67.3919 36.5532V15.8276L64.0359 13.8774L60.6799 11.9273L55.6459 9.07019L53.9678 8.11781L50.6572 6.21304V2.94774C50.6118 3.08379 50.5665 3.2652 50.5211 3.40125ZM41.9044 5.03391C41.6776 4.89785 41.4508 4.7618 41.2694 4.58039C40.9066 4.30828 40.6799 3.94547 40.4985 3.49196C40.6345 3.90012 40.9066 4.26293 41.2694 4.53504C41.4508 4.71645 41.6776 4.89785 41.9044 5.03391C42.1311 5.16996 42.4032 5.30601 42.6753 5.39672C42.4032 5.30601 42.1765 5.16996 41.9044 5.03391Z" fill="#523827"/>
<path opacity="0.88" d="M58.1872 16.4171L59.5024 17.1881L58.3686 16.5078L57.8244 16.1904L58.1872 16.4171ZM49.6157 2.94774C49.6157 2.17676 49.1169 1.45114 48.1191 0.861571C45.8516 -0.272216 43.1758 -0.272216 40.9083 0.861571C39.9559 1.40579 39.4117 2.17676 39.4117 2.94774V28.8434C37.8244 29.2969 36.3278 29.9772 34.9219 30.7935C31.9287 32.5169 30.3867 34.2856 30.3867 36.0543V37.4602C30.3867 39.2289 31.8833 40.9976 34.9219 42.721C40.9536 46.213 47.1668 46.213 53.1985 42.721C56.1917 40.9976 57.7337 39.2289 57.7337 37.4602V36.8706L58.4593 37.2788L61.8153 39.2289L66.3958 36.5985V15.8276L63.0398 13.8774L59.6838 11.9273L54.6044 9.07019L52.9264 8.11781L49.6157 6.21304V2.94774ZM40.9083 5.03391C40.6815 4.89785 40.4547 4.7618 40.2733 4.58039C39.9559 4.30828 39.6838 3.94547 39.5024 3.53731C39.6384 3.94547 39.9105 4.30828 40.2733 4.58039C40.4547 4.7618 40.6815 4.89785 40.9083 5.03391C41.1804 5.16996 41.4525 5.30601 41.7246 5.39672C41.4071 5.30601 41.135 5.16996 40.9083 5.03391Z" fill="#4C311F"/>
<path opacity="0.91" d="M57.1891 16.4171L58.5043 17.1881L57.3705 16.5078L56.8263 16.1904L57.1891 16.4171ZM47.0757 5.03391C46.8036 5.16996 46.5315 5.30601 46.2594 5.39672C46.5769 5.30601 46.849 5.16996 47.0757 5.03391C47.3025 4.89785 47.5293 4.7618 47.7107 4.58039C47.5293 4.7618 47.3479 4.89785 47.0757 5.03391ZM48.527 3.40125C48.5723 3.2652 48.6177 3.08379 48.6177 2.94774C48.6177 2.17676 48.1188 1.45114 47.1211 0.861571C44.8535 -0.272216 42.1778 -0.272216 39.9102 0.861571C38.9125 1.45114 38.4136 2.17676 38.4136 2.94774V28.7981C36.8263 29.2516 35.3297 29.9319 33.9238 30.7482C30.9306 32.4715 29.3887 34.2403 29.3887 36.009V37.4149C29.3887 39.1836 30.8853 40.9523 33.9238 42.6756C39.9556 46.1677 46.1687 46.1677 52.2005 42.6756C55.1937 40.9523 56.7356 39.1836 56.7356 37.4149V36.8253L57.4612 37.2335L60.8172 39.1836L65.3977 36.5532V15.8276L62.0417 13.8774L58.6857 11.9273L53.6064 9.07019L51.9284 8.11781L48.6177 6.21304V2.94774C48.5723 3.08379 48.5723 3.2652 48.527 3.40125ZM39.9102 5.03391C39.6835 4.89785 39.4567 4.7618 39.2753 4.58039C38.9578 4.30828 38.6857 3.94547 38.5043 3.53731C38.6404 3.94547 38.9125 4.30828 39.2753 4.58039C39.4567 4.7618 39.6835 4.89785 39.9102 5.03391C40.1823 5.16996 40.4544 5.30601 40.7265 5.39672C40.4091 5.30601 40.137 5.16996 39.9102 5.03391Z" fill="#462A17"/>
<path opacity="0.94" d="M56.1911 16.4171L57.5063 17.1881L56.3725 16.5532L55.7829 16.2357L56.1911 16.4171ZM46.0777 5.03391C45.8056 5.16996 45.5335 5.30601 45.2614 5.39672C45.5788 5.30601 45.8509 5.16996 46.0777 5.03391ZM47.5289 3.40125C47.5743 3.2652 47.6197 3.08379 47.6197 2.94774C47.6197 2.17676 47.1208 1.45114 46.1231 0.861571C43.8555 -0.272216 41.1797 -0.272216 38.9122 0.861571C37.9144 1.45114 37.4156 2.17676 37.4156 2.94774V28.7981C35.8283 29.2516 34.3317 29.9319 32.9258 30.7482C29.9326 32.4715 28.3906 34.2403 28.3906 36.009V37.4149C28.3906 39.1836 29.8872 40.9523 32.9258 42.6756C38.9575 46.1677 45.1707 46.1677 51.2024 42.6756C54.1956 40.9523 55.7376 39.1836 55.7376 37.4149V36.8253L56.4632 37.2335L59.8192 39.1836L64.3997 36.5532V15.8276L61.0437 13.8774L57.6877 11.9273L52.6083 9.07019L50.9303 8.11781L47.6197 6.21304V2.94774C47.5743 3.08379 47.5743 3.2652 47.5289 3.40125ZM38.9122 5.03391C38.6854 4.89785 38.4587 4.7618 38.2772 4.58039C37.9598 4.30828 37.6877 3.94547 37.5063 3.53731C37.6423 3.94547 37.9144 4.30828 38.2772 4.58039C38.4587 4.7618 38.6401 4.89785 38.9122 5.03391C39.1843 5.16996 39.4564 5.30601 39.7285 5.39672C39.411 5.30601 39.1389 5.16996 38.9122 5.03391Z" fill="#3F230F"/>
<path opacity="0.97" d="M55.1481 16.4171L56.4633 17.1881L55.3295 16.5532L54.7399 16.2357L55.1481 16.4171ZM46.5767 2.94774C46.5767 2.17676 46.0778 1.45114 45.0801 0.861571C42.8125 -0.272216 40.1368 -0.272216 37.8692 0.861571C36.8715 1.45114 36.3726 2.17676 36.3726 2.94774V28.7981C34.7853 29.2516 33.2887 29.9319 31.8828 30.7482C28.8896 32.4715 27.3477 34.2403 27.3477 36.009V37.4149C27.3477 39.1836 28.8443 40.9523 31.8828 42.6756C37.9146 46.1677 44.1277 46.1677 50.1594 42.6756C53.1526 40.9523 54.6946 39.1836 54.6946 37.4149V36.8253L55.4202 37.2335L58.7762 39.1836L63.3567 36.5532V15.8276L60.0007 13.8774L56.6447 11.9273L51.6107 9.07019L49.8873 8.07245L46.5767 6.16769V2.94774ZM37.2343 4.58039C36.9168 4.30828 36.6447 3.94547 36.4633 3.53731C36.5994 3.94547 36.8715 4.30828 37.2343 4.58039Z" fill="#391C08"/>
<path d="M54.1501 16.4171L55.5106 17.1881L54.3768 16.5532L53.7873 16.2357L54.1501 16.4171ZM45.4879 3.40125C45.5333 3.2652 45.5786 3.08379 45.5786 2.94774C45.5786 2.17676 45.0798 1.45114 44.082 0.861571C41.8145 -0.272216 39.1387 -0.272216 36.8712 0.861571C35.8734 1.45114 35.3746 2.17676 35.3746 2.94774V28.8434C33.7873 29.2969 32.2907 29.9772 30.8848 30.7935C27.8916 32.5169 26.3496 34.2856 26.3496 36.0543V37.4602C26.3496 39.2289 27.8462 40.9976 30.8848 42.721C36.9165 46.213 43.1297 46.213 49.1614 42.721C52.1546 40.9976 53.6966 39.2289 53.6966 37.4602V36.8706L54.4222 37.2788L57.7782 39.2289L62.3587 36.5985V15.8276L59.0027 13.8774L55.6467 11.9273L50.658 9.07019L48.98 8.11781L45.6693 6.21304V2.94774C45.5786 3.08379 45.5333 3.2652 45.4879 3.40125ZM36.8712 5.03391C36.6444 4.89785 36.4176 4.7618 36.2362 4.58039C35.9188 4.30828 35.6467 3.94547 35.4653 3.53731C35.6013 3.94547 35.8734 4.30828 36.2362 4.58039C36.4176 4.7618 36.6444 4.89785 36.8712 5.03391C37.1433 5.16996 37.4154 5.30601 37.6875 5.39672C37.37 5.30601 37.0979 5.16996 36.8712 5.03391Z" fill="#331500"/>
</g>
<path d="M49.1165 41.315C43.0847 44.807 36.8716 44.807 30.8398 41.315C27.8466 39.5916 26.3047 37.8229 26.3047 36.0542V37.4601C26.3047 39.2288 27.8013 40.9975 30.8398 42.7209C36.8716 46.2129 43.0847 46.2129 49.1165 42.7209C52.1097 40.9975 53.6516 39.2288 53.6516 37.4601V36.0542C53.6516 37.7776 52.155 39.5916 49.1165 41.315Z" fill="url(#paint1_linear_3161_783)"/>
<path d="M49.1165 30.748C43.0847 27.2559 36.8716 27.2559 30.8398 30.748C27.8466 32.4713 26.3047 34.24 26.3047 36.0087C26.3047 37.7774 27.8013 39.5461 30.8398 41.2695C36.8716 44.7616 43.0847 44.7616 49.1165 41.2695C52.1097 39.5461 53.6516 37.7774 53.6516 36.0087C53.6516 34.24 52.155 32.5167 49.1165 30.748Z" fill="#EF5619"/>
<path d="M44.0825 5.03392C41.8149 6.16771 39.1392 6.16771 36.8716 5.03392C35.8739 4.44435 35.375 3.71873 35.375 2.94775V36.145C35.375 36.916 35.8739 37.6416 36.8716 38.2312C39.1392 39.365 41.8149 39.365 44.0825 38.2312C45.0802 37.6416 45.5791 36.916 45.5791 36.145V2.94775C45.5791 3.71873 45.0802 4.44435 44.0825 5.03392Z" fill="url(#paint2_linear_3161_783)"/>
<path d="M44.0825 5.03391C41.8149 6.16769 39.1392 6.16769 36.8716 5.03391C35.8739 4.44434 35.375 3.71871 35.375 2.94774C35.375 2.17676 35.8739 1.45114 36.8716 0.861571C39.1392 -0.272216 41.8149 -0.272216 44.0825 0.861571C45.0802 1.45114 45.5791 2.17676 45.5791 2.94774C45.5791 3.71871 45.0802 4.44434 44.0825 5.03391Z" fill="#CECECE"/>
<path d="M57.7324 39.229V18.458L62.3129 15.8276V36.5533L57.7324 39.229Z" fill="black"/>
<path d="M62.3137 15.8278L45.5336 6.12256C45.3522 6.93889 44.808 7.57381 44.0824 7.93662C43.13 8.43548 42.0416 8.75294 40.9531 8.7983L57.7332 18.4582L62.3137 15.8278Z" fill="#383838"/>
<path d="M57.7324 35.0566L62.3129 32.4262V28.2539L57.7324 30.9296V35.0566Z" fill="#B3B3B3"/>
<path d="M62.3129 19.9546L57.7324 22.6303V26.7573L62.3129 24.1269V19.9546Z" fill="#B3B3B3"/>
<path d="M55.6 11.9272L51.0195 14.603L53.151 15.8275L54.3755 16.5077L58.956 13.8774L55.6 11.9272Z" fill="white"/>
<path d="M48.8891 8.07227L44.3086 10.7027L47.5739 12.6074L47.6646 12.6528L52.2451 10.0224L48.8891 8.07227Z" fill="white"/>
<path d="M51.0195 27.0293L54.3755 28.9794V24.8071L51.0195 22.9023V27.0293Z" fill="#F0F0F0"/>
<path d="M51.0195 31.2016L54.3755 33.1517V28.9794L51.0195 27.0293V31.2016Z" fill="#242424"/>
<path d="M44.3091 10.7026L40.9531 8.79785V12.9248L44.3091 14.8749V10.7026Z" fill="#242424"/>
<path d="M51.0195 22.9023L54.3755 24.8071V20.6801L51.0195 18.73V22.9023Z" fill="#242424"/>
<path d="M51.0201 18.7299V14.6029L47.6641 12.6528V16.7798L51.0201 18.7299Z" fill="#242424"/>
<path d="M47.6646 16.7797V12.6527L44.3086 10.7026V14.875L47.6646 16.7797Z" fill="#F0F0F0"/>
<path d="M54.3755 20.6801V16.5078L51.0195 14.603V18.73L54.3755 20.6801Z" fill="#F0F0F0"/>
<path d="M51.0201 22.9022V18.7299L47.6641 16.7798V20.9521L51.0201 22.9022Z" fill="#F0F0F0"/>
<path d="M47.6646 16.7798L44.3086 14.875V19.002L47.6646 20.9521V16.7798Z" fill="#242424"/>
<path d="M47.6641 25.1245V29.2515L51.0201 31.2016V27.0293L47.6641 25.1245Z" fill="#F0F0F0"/>
<path d="M47.6641 25.1245L51.0201 27.0292V22.9023L47.6641 20.9521V25.1245Z" fill="#242424"/>
<path d="M44.3086 23.1743V27.3013L47.6646 29.2514V25.1244L44.3086 23.1743Z" fill="#242424"/>
<path d="M47.6646 20.9521L44.3086 19.002V23.1743L47.6646 25.1244V20.9521Z" fill="#F0F0F0"/>
<path d="M54.377 20.6801L57.733 22.6303V18.4579L54.377 16.5078V20.6801Z" fill="#242424"/>
<path d="M44.3091 14.8754L40.9531 12.9253V17.0976L44.3091 19.0024V14.8754Z" fill="#F0F0F0"/>
<path d="M54.377 28.9795L57.733 30.9296V26.7572L54.377 24.8071V28.9795Z" fill="#242424"/>
<path d="M54.377 37.2788L57.733 39.229V35.0566L54.377 33.1519V37.2788Z" fill="#242424"/>
<path d="M54.377 24.8072L57.733 26.7573V22.6303L54.377 20.6802V24.8072Z" fill="#F0F0F0"/>
<path d="M51.0195 31.2017V35.3286L54.3755 37.2788V33.1518L51.0195 31.2017Z" fill="#F0F0F0"/>
<path d="M54.377 33.1518L57.733 35.0566V30.9296L54.377 28.9795V33.1518Z" fill="white"/>
<path d="M44.3091 19.0019L40.9531 17.0972V21.2242L44.3091 23.1743V19.0019Z" fill="#242424"/>
<path d="M44.3091 23.1747L40.9531 21.2246V25.3969L44.3091 27.3017V23.1747Z" fill="#F0F0F0"/>
<path d="M44.3086 27.3013V31.4736L47.6646 33.4237V29.2514L44.3086 27.3013Z" fill="#F0F0F0"/>
<path d="M47.6641 29.2515V33.4238L51.0201 35.3286V31.2016L47.6641 29.2515Z" fill="#242424"/>
<path d="M40.9531 25.3965V29.5235L44.3091 31.4736V27.3012L40.9531 25.3965Z" fill="#242424"/>
</g>
<defs>
<linearGradient id="paint0_linear_3161_783" x1="0" y1="53.9349" x2="79.9909" y2="53.9349" gradientUnits="userSpaceOnUse">
<stop stop-color="#734000"/>
<stop offset="0.1" stop-color="#784300"/>
<stop offset="0.3" stop-color="#7B4500"/>
<stop offset="0.55" stop-color="#6B3500"/>
<stop offset="0.74" stop-color="#652F00"/>
<stop offset="1" stop-color="#3B0800"/>
</linearGradient>
<linearGradient id="paint1_linear_3161_783" x1="26.3319" y1="40.6716" x2="53.638" y2="40.6716" gradientUnits="userSpaceOnUse">
<stop stop-color="#FF682B"/>
<stop offset="0.07" stop-color="#FF6B2E"/>
<stop offset="0.3" stop-color="#FF6D31"/>
<stop offset="0.55" stop-color="#F65D21"/>
<stop offset="0.74" stop-color="#F3571B"/>
<stop offset="1" stop-color="#C93000"/>
</linearGradient>
<linearGradient id="paint2_linear_3161_783" x1="35.375" y1="21.0164" x2="45.5836" y2="21.0164" gradientUnits="userSpaceOnUse">
<stop stop-color="#E0E0E0"/>
<stop offset="0.1" stop-color="#E5E3E4"/>
<stop offset="0.3" stop-color="#E8E5E6"/>
<stop offset="0.55" stop-color="#D8D5D6"/>
<stop offset="0.74" stop-color="#D2CFD0"/>
<stop offset="1" stop-color="#A8A8A8"/>
</linearGradient>
<clipPath id="clip0_3161_783">
<rect width="80" height="69.3424" fill="white"/>
</clipPath>
</defs>
</svg>
