<?xml version="1.0" encoding="utf-8"?>
<!-- Generator: Adobe Illustrator 25.2.1, SVG Export Plug-In . SVG Version: 6.00 Build 0)  -->
<svg version="1.1" xmlns="http://www.w3.org/2000/svg" xmlns:xlink="http://www.w3.org/1999/xlink" x="0px" y="0px"
	 viewBox="0 0 36 36" style="enable-background:new 0 0 36 36;" xml:space="preserve">
<style type="text/css">
	.st0{fill:#E0C55E;}
	.st1{display:none;}
	.st2{display:inline;}
	.st3{fill:#00F354;}
	.st4{display:inline;fill:#00F354;}
	.st5{fill:#A8A8A8;}
	.st6{display:inline;fill:#A8A8A8;}
	.st7{fill:#FE1F03;}
	.st8{display:inline;fill:#FE1F03;}
	.st9{fill:#D8D8D8;}
	.st10{display:inline;fill:#D8D8D8;}
	.st11{fill:#0094FE;}
	.st12{display:inline;fill:#0094FE;}
	.st13{fill:#FFFFFF;}
	.st14{display:inline;fill:#FFFFFF;}
	.st15{fill:#E4FF23;}
	.st16{display:inline;fill:#E4FF23;}
	.st17{fill:#919EF8;}
	.st18{display:inline;fill:#919EF8;}
	.st19{fill:#91CACE;}
	.st20{display:inline;fill:#91CACE;}
	.st21{fill:#3F6B6E;}
	.st22{display:inline;fill:#3F6B6E;}
	.st23{fill:#393637;}
	.st24{display:inline;fill:#393637;}
	.st25{fill:#111111;}
	.st26{display:inline;fill:#111111;}
	.st27{fill:#FF00B2;}
	.st28{display:inline;fill:#FF00B2;}
	.st29{fill:#FF800E;}
	.st30{display:inline;fill:#FF800E;}
	.st31{fill:#25AAE1;}
	.st32{display:inline;fill:#25AAE1;}
</style>
<g id="w1n">
	<g>
		<path class="st0" d="M20.1,21.2c-0.1,0-0.2,0.1-0.2,0.2c-0.1,0.2-0.1,0.3-0.2,0.5c-0.3,1.5-0.7,2.9-1,4.4
			c-0.1,0.2-0.1,0.5-0.1,0.7c0,0.2,0.1,0.3,0.3,0.3c0.2,0,0.4-0.1,0.4-0.3c0.1-0.2,0.1-0.4,0.2-0.6c0.3-1.2,0.5-2.5,0.8-3.7
			c0.1-0.4,0.2-0.8,0.3-1.3C20.7,20.9,20.4,21,20.1,21.2z"/>
		<path class="st0" d="M32.7,16.7c-0.6,0.5-0.5,0.5-0.9,0.7c-0.6,0.2-1.3,0.3-2,0.1c-0.9,0-1.8-0.5-2.3-1.3
			c-0.2-0.4-0.3-0.8-0.4-1.3c-0.1-0.7,0.2-1.3,0.7-1.8c0.4-0.5,0.8-0.9,1.3-1.2c0.7-0.5,1.2-1.2,1.6-1.9C31,9,31,7.9,30.6,6.9
			c-0.4-1.3-1.4-2.4-2.7-2.9c0,0,1.8,2.2,1.6,3.7c-0.2,1.5-1.4,2.6-2.9,2.7c-1.2-0.1-2.4-0.5-3.3-1.3c-0.8-0.9-1.3-2.1-1.4-3.3
			c-0.1-1,0-2,0.5-2.8c0.8-1,2-1.7,3.3-1.9c-1.5-0.3-3-0.1-4.4,0.6c-1.8,1-2.6,3.2-1.9,5.1c0.2,1,1.7,3.9,1.7,5.1
			c0,1-0.5,4.3-2.7,4.7c-0.7,0.2-1.4,0.1-2.1-0.2c-2.1-1.1-1.9-4.4-1.6-5.7C15.2,9,15.1,6.9,14.5,5c-0.4-1-1-1.9-1.9-2.6
			C11.5,1.6,10.4,0.7,9.1,0c1.2,1.3,2.2,2.9,2.9,4.6c0.4,2-0.2,4-1.7,5.4c-1.1,1.1-1.6,1.4-2.3,2.3c-0.9,1-1.8,2.2-2.5,3.4
			c0,0,0-0.1,0-0.1c-0.2-0.2-0.4-0.7-0.5-0.8c-1.5-1.6-4.2-0.8-4.5-0.8c0.3,0,2.6,0.3,3.2,2c0.4,1.3,0.6,2.6,0.6,4
			c-0.1,0.6-0.1,1.2-0.1,1.8c0,7.9,6.4,14.4,14.3,14.4c5.9,0,11.2-3.6,13.4-9.1c0.7-1.8,1.2-3.7,1.3-5.7c0-1.1,0.1-2.1,0.4-3.2
			c0.3-0.8,0.9-1.5,1.7-1.9C34.5,15.8,33.4,16,32.7,16.7z M15.1,28.5C15.1,28.5,15.1,28.6,15.1,28.5l-2.6,0.1
			c0.3-1.2,0.6-2.4,0.8-3.7h-0.8c-0.1,0.4-0.2,0.7-0.2,1.1l-0.6,2.6c0,0-0.1,0.1-0.1,0.1c0,0,0,0,0,0H9.2c0.1-0.3,0.1-0.6,0.2-0.9
			c0.5-2.1,1-4.2,1.4-6.4l0.3-1.4c0,0,0-0.1,0.1-0.1h2.5c-0.2,1-0.5,2.1-0.7,3.1h0.7l0.7-3.1H17c0,0.3-0.1,0.6-0.2,0.8l-1.5,6.8
			C15.2,27.8,15.1,28.2,15.1,28.5z M23.1,21.7c-0.2,1.1-0.4,2.2-0.7,3.3c-0.1,0.5-0.2,1-0.4,1.6c-0.3,1-1,1.7-2,2
			c-0.4,0.1-0.8,0.2-1.3,0.2c-0.5,0-1-0.1-1.4-0.3c-0.7-0.3-1.1-1-1-1.7c0.2-1,0.4-1.9,0.6-2.9c0.1-0.7,0.3-1.3,0.5-2
			c0.2-0.9,1-1.7,1.9-2c0.8-0.3,1.7-0.3,2.6-0.1C22.7,20,23.3,20.8,23.1,21.7C23.1,21.7,23.1,21.7,23.1,21.7z M29.2,21.6h-1.6
			c-0.5,2.3-1,4.7-1.6,7h-2.6c0.5-2.3,1-4.7,1.6-7h-1.5l0.4-1.7h5.6L29.2,21.6z"/>
		<path class="st0" d="M6.6,10.8c-0.4-0.4-0.7-0.8-1-1.3C5.4,9,5.5,8.4,5.9,7.9c0.7-1.1,1.5-1.7,1.7-2.2C7.6,4.7,7.4,3.8,6.9,3
			c0.8,0.8,1.5,1.7,2,2.7c0.5,0.9,0.4,1.9-0.3,2.7C8.3,8.8,7.1,9.1,6.8,9.7C6.7,10.1,6.6,10.4,6.6,10.8z"/>
	</g>
</g>
<g id="w2n" class="st1">
</g>
<g id="w3n" class="st1">
</g>
<g id="w4n" class="st1">
</g>
<g id="w5n" class="st1">
</g>
<g id="w6n" class="st1">
</g>
<g id="w7n" class="st1">
</g>
<g id="w8n" class="st1">
</g>
<g id="w9n" class="st1">
</g>
<g id="w10n" class="st1">
</g>
<g id="w11n" class="st1">
</g>
<g id="n2a" class="st1">
</g>
</svg>
