<?xml version="1.0" encoding="utf-8"?>
<!-- Generator: Adobe Illustrator 25.2.1, SVG Export Plug-In . SVG Version: 6.00 Build 0)  -->
<svg version="1.1" xmlns="http://www.w3.org/2000/svg" xmlns:xlink="http://www.w3.org/1999/xlink" x="0px" y="0px"
	 viewBox="0 0 36 36" style="enable-background:new 0 0 36 36;" xml:space="preserve">
<style type="text/css">
	.st0{display:none;}
	.st1{display:inline;}
	.st2{fill:#E0C55E;}
	.st3{display:inline;fill:#E0C55E;}
	.st4{fill:#A8A8A8;}
	.st5{fill:#00F354;}
	.st6{fill:#FE1F03;}
	.st7{fill:#D8D8D8;}
	.st8{fill:#0094FE;}
	.st9{fill:#FFFFFF;}
	.st10{fill:#E4FF23;}
	.st11{fill:#919EF8;}
	.st12{fill:#91CACE;}
	.st13{fill:#3F6B6E;}
	.st14{fill:#393637;}
	.st15{fill:#111111;}
	.st16{fill:#FF00B2;}
	.st17{fill:#FF800E;}
	.st18{fill:#25AAE1;}
</style>
<g id="w1n__x28_a_x29_" class="st0">
	<path class="st3" d="M35.9,16.5c-0.1-1-0.2-2-0.5-3c-0.4-1.4-0.9-2.8-1.6-4.1c-0.7-1.3-1.6-2.5-2.6-3.6c-0.7-0.7-1.4-1.4-2.2-2
		c-1.9-1.5-4.2-2.6-6.6-3.3c-1.3-0.3-2.6-0.5-3.9-0.5c-1.1,0-2.3,0-3.4,0.2c-1.8,0.3-3.5,0.8-5.1,1.6C8.5,2.5,7,3.5,5.7,4.7
		c-1,1-1.9,2-2.7,3.2C2,9.5,1.2,11.3,0.6,13.1c-0.3,1-0.5,2-0.6,3v0.8v0.2c0,0,0,0.1,0,0.1v0.2c0,0.1,0,0.2,0,0.2v0.2v0.3
		c0,0.1,0,0.2,0,0.4v0.2c0,0,0,0.1,0,0.1c0,0,0,0.1,0,0.1v0.2c0,0,0,0,0,0.1c0,0.5,0.1,1,0.1,1.5c0.3,2.2,1,4.2,2.1,6.1
		c1,1.8,2.3,3.3,3.8,4.7c1.2,1.1,2.5,2,3.9,2.7c1.3,0.7,2.7,1.2,4.2,1.5c0.6,0.2,1.3,0.3,2,0.3h0.8H17c0.1,0,0.1,0,0.2,0h0.2
		c0.1,0,0.3,0,0.4,0h0.2c0.1,0,0.2,0,0.4,0h0.2c0.1,0,0.1,0,0.2,0H19c0,0,0.1,0,0.1,0c0.4,0,0.8,0,1.3-0.1c2.1-0.3,4.2-1,6.1-2
		c2.6-1.4,4.8-3.4,6.4-5.8c0.8-1.2,1.5-2.5,2-3.9c0.6-1.6,0.9-3.2,1-4.9C36,18.4,36,17.5,35.9,16.5z M16.1,26.4h-5.5
		c-0.4,0.1-0.8-0.2-0.9-0.7c0-0.1,0-0.1,0-0.2V20c-0.1-0.4,0.3-0.8,0.7-0.9c0.1,0,0.1,0,0.2,0h5.5c0.4-0.1,0.8,0.2,0.9,0.7
		c0,0.1,0,0.1,0,0.2v5.5c0.1,0.4-0.3,0.8-0.7,0.9C16.2,26.4,16.1,26.4,16.1,26.4z M17,16.7c0.1,0.4-0.3,0.8-0.7,0.9
		c-0.1,0-0.1,0-0.2,0h-5.5c-0.4,0.1-0.8-0.3-0.9-0.7c0-0.1,0-0.1,0-0.2v-5.5c-0.1-0.4,0.2-0.8,0.7-0.9c0.1,0,0.1,0,0.2,0h5.5
		c0.4-0.1,0.8,0.3,0.9,0.7c0,0.1,0,0.1,0,0.2V16.7z M25.8,25.5c0,0.4-0.3,0.8-0.7,0.9c-0.1,0-0.1,0-0.2,0h-5.5
		c-0.4,0-0.8-0.3-0.9-0.7c0-0.1,0-0.1,0-0.2V20c0-0.4,0.3-0.8,0.7-0.9c0.1,0,0.1,0,0.2,0h5.5c0.4,0,0.8,0.3,0.9,0.7
		c0,0.1,0,0.1,0,0.2V25.5z M25.9,14.8L22.6,18c-0.1,0.2-0.3,0.2-0.5,0.2c-0.2,0-0.4-0.1-0.5-0.2l-3.3-3.3c-0.3-0.3-0.3-0.7,0-1
		c0,0,0,0,0,0l3.3-3.3c0.3-0.3,0.8-0.3,1.1,0c0,0,0,0,0,0c1.1,1.1,2.2,2.2,3.3,3.3c0.3,0.3,0.4,0.7,0.1,1
		C26,14.7,25.9,14.7,25.9,14.8z"/>
</g>
<g id="w1n__x28_d_x29_">
	<path class="st4" d="M35.9,16.5c-0.1-1-0.2-2-0.5-3c-0.4-1.4-0.9-2.8-1.6-4.1c-0.7-1.3-1.6-2.5-2.6-3.6c-0.7-0.7-1.4-1.4-2.2-2
		c-1.9-1.5-4.2-2.6-6.6-3.3c-1.3-0.3-2.6-0.5-3.9-0.5c-1.1,0-2.3,0-3.4,0.2c-1.8,0.3-3.5,0.8-5.1,1.6C8.5,2.5,7,3.5,5.7,4.7
		c-1,1-1.9,2-2.7,3.2C2,9.5,1.2,11.3,0.6,13.1c-0.3,1-0.5,2-0.6,3v0.8v0.2c0,0,0,0.1,0,0.1v0.2c0,0.1,0,0.2,0,0.2v0.2v0.3
		c0,0.1,0,0.2,0,0.4v0.2c0,0,0,0.1,0,0.1c0,0,0,0.1,0,0.1v0.2c0,0,0,0,0,0.1c0,0.5,0.1,1,0.1,1.5c0.3,2.2,1,4.2,2.1,6.1
		c1,1.8,2.3,3.3,3.8,4.7c1.2,1.1,2.5,2,3.9,2.7c1.3,0.7,2.7,1.2,4.2,1.5c0.6,0.2,1.3,0.3,2,0.3h0.8H17c0.1,0,0.1,0,0.2,0h0.2
		c0.1,0,0.3,0,0.4,0h0.2c0.1,0,0.2,0,0.4,0h0.2c0.1,0,0.1,0,0.2,0H19c0,0,0.1,0,0.1,0c0.4,0,0.8,0,1.3-0.1c2.1-0.3,4.2-1,6.1-2
		c2.6-1.4,4.8-3.4,6.4-5.8c0.8-1.2,1.5-2.5,2-3.9c0.6-1.6,0.9-3.2,1-4.9C36,18.4,36,17.5,35.9,16.5z M16.1,26.4h-5.5
		c-0.4,0.1-0.8-0.2-0.9-0.7c0-0.1,0-0.1,0-0.2V20c-0.1-0.4,0.3-0.8,0.7-0.9c0.1,0,0.1,0,0.2,0h5.5c0.4-0.1,0.8,0.2,0.9,0.7
		c0,0.1,0,0.1,0,0.2v5.5c0.1,0.4-0.3,0.8-0.7,0.9C16.2,26.4,16.1,26.4,16.1,26.4z M17,16.7c0.1,0.4-0.3,0.8-0.7,0.9
		c-0.1,0-0.1,0-0.2,0h-5.5c-0.4,0.1-0.8-0.3-0.9-0.7c0-0.1,0-0.1,0-0.2v-5.5c-0.1-0.4,0.2-0.8,0.7-0.9c0.1,0,0.1,0,0.2,0h5.5
		c0.4-0.1,0.8,0.3,0.9,0.7c0,0.1,0,0.1,0,0.2V16.7z M25.8,25.5c0,0.4-0.3,0.8-0.7,0.9c-0.1,0-0.1,0-0.2,0h-5.5
		c-0.4,0-0.8-0.3-0.9-0.7c0-0.1,0-0.1,0-0.2V20c0-0.4,0.3-0.8,0.7-0.9c0.1,0,0.1,0,0.2,0h5.5c0.4,0,0.8,0.3,0.9,0.7
		c0,0.1,0,0.1,0,0.2V25.5z M25.9,14.8L22.6,18c-0.1,0.2-0.3,0.2-0.5,0.2c-0.2,0-0.4-0.1-0.5-0.2l-3.3-3.3c-0.3-0.3-0.3-0.7,0-1
		c0,0,0,0,0,0l3.3-3.3c0.3-0.3,0.8-0.3,1.1,0c0,0,0,0,0,0c1.1,1.1,2.2,2.2,3.3,3.3c0.3,0.3,0.4,0.7,0.1,1
		C26,14.7,25.9,14.7,25.9,14.8z"/>
</g>
<g id="w2n">
</g>
<g id="w3n">
</g>
<g id="w4n">
</g>
<g id="w5n">
</g>
<g id="w6n">
</g>
<g id="w7n">
</g>
<g id="w8n">
</g>
<g id="w9n">
</g>
<g id="w10n">
</g>
<g id="w11n">
</g>
<g id="n2a">
</g>
<g id="Layer_14">
</g>
</svg>
