<?xml version="1.0" encoding="utf-8"?>
<!-- Generator: Adobe Illustrator 25.2.1, SVG Export Plug-In . SVG Version: 6.00 Build 0)  -->
<svg version="1.1" xmlns="http://www.w3.org/2000/svg" xmlns:xlink="http://www.w3.org/1999/xlink" x="0px" y="0px"
	 viewBox="0 0 36 36" style="enable-background:new 0 0 36 36;" xml:space="preserve">
<style type="text/css">
	.st0{display:none;}
	.st1{display:inline;}
	.st2{fill:#E0C55E;}
	.st3{display:inline;fill:#E0C55E;}
	.st4{fill:#A8A8A8;}
	.st5{fill:#00F354;}
	.st6{fill:#FE1F03;}
	.st7{fill:#D8D8D8;}
	.st8{fill:#0094FE;}
	.st9{fill:#FFFFFF;}
	.st10{fill:#E4FF23;}
	.st11{fill:#919EF8;}
	.st12{fill:#91CACE;}
	.st13{fill:#3F6B6E;}
	.st14{fill:#393637;}
	.st15{fill:#111111;}
	.st16{fill:#FF00B2;}
	.st17{fill:#FF800E;}
	.st18{fill:#25AAE1;}
</style>
<g id="w1n__x28_a_x29_" class="st0">
	<g class="st1">
		<path class="st2" d="M34.7,24.1c0-0.2-0.1-0.3-0.3-0.3c-0.6,0.1-1.2,0.2-1.8,0.3c-0.2,0-0.3-0.1-0.3-0.3c-0.1-0.6-0.2-1.1-0.4-1.7
			c-0.1-0.4-0.3-0.7-0.5-1c-0.1-0.2-0.1-0.3,0.1-0.5l1.6-0.9c0.2-0.1,0.2-0.2,0.1-0.3c-1.4-2.6-3.8-4.4-6.7-5.2
			c-0.4-0.1-0.4-0.1-0.4,0.3c-0.1,0.6-0.2,1.1-0.3,1.7c0,0.2-0.1,0.3-0.4,0.3c-0.9-0.2-1.8-0.2-2.7,0c-0.3,0.1-0.3,0-0.4-0.3
			l-0.3-1.9c0,0,0-0.1,0-0.1l0.7-0.1c0.6,0,1.3-0.1,1.9-0.1c0.2,0,0.3-0.1,0.3-0.3V2.1c0-0.2,0-0.4,0-0.6c-0.2-0.8-0.8-1.3-1.6-1.4
			L22.9,0H6.6L6.3,0.1C5.4,0.2,4.8,0.9,4.7,1.8v0.7c0,0.3-0.1,0.3-0.4,0.3c-0.5,0-1.1,0-1.6,0.1C1.9,3,1.3,3.7,1.2,4.6v1.2v23.9
			c0,0.6,0.1,1.1,0.5,1.6c0.4,0.4,0.9,0.6,1.5,0.6h5.3h6.6c0.4,0,0.8,0.1,1,0.5c0,0,0.1,0.1,0.1,0.1l0.2-0.1l1.4-1.3
			c0.2-0.2,0.2-0.2,0.4,0c0.6,0.6,1.2,1.1,1.9,1.5c0.6,0.3,0.6,0.3,0.3,1c-0.3,0.6-0.4,0.9-0.6,1.3c-0.1,0.2,0,0.3,0.1,0.3
			c0.7,0.4,1.6,0.6,2.4,0.7c0.4,0,0.9,0.1,1.4,0.1c0.1,0,0.2,0,0.3,0h0.6l0.6-0.1c1,0,2-0.2,2.9-0.6c0.6-0.3,0.6-0.3,0.3-0.9
			c-0.3-0.6-0.4-1-0.6-1.4c0-0.1-0.1-0.2,0.1-0.3c0.9-0.4,1.7-1,2.4-1.8l0.2-0.1l0.5,0.4l1.1,1.1c0.1,0.1,0.2,0.1,0.3,0
			c1.3-1.6,2.2-3.5,2.5-5.6C34.8,25.8,34.8,24.9,34.7,24.1z M16.7,21.1c-0.4,0.8-0.7,1.7-0.8,2.6c0,0.4-0.2,0.5-0.6,0.4
			c-0.4-0.1-1-0.1-1.6-0.2c-0.2,0-0.3,0-0.3,0.2c-0.2,1.6,0,3.2,0.6,4.7c0.1,0.4,0.3,0.7,0.4,1.1H4c-0.4,0.1-0.8-0.2-0.9-0.6
			c0-0.1,0-0.1,0-0.2V5.7C3.1,5.3,3.4,4.9,3.8,4.8c0,0,0.1,0,0.1,0h14.7c0.4,0,0.8,0.3,0.8,0.7c0,0.1,0,0.1,0,0.2v9
			c0,0.2-0.1,0.4-0.3,0.5c-1.7,0.9-3.2,2.3-4.2,4c-0.1,0.2-0.1,0.3,0.1,0.4c0.5,0.3,1,0.6,1.5,0.9C16.8,20.7,16.8,20.8,16.7,21.1z
			 M27.3,30.8c-0.9,0.5-1.9,0.8-2.9,0.9c-3.3,0.2-6.1-2.1-6.7-5.3c-0.5-2.7,0.5-5.4,2.8-6.9c1.1-0.7,2.3-1.1,3.6-1
			c3,0,5.5,2.1,6.2,5c0.1,0.4,0.2,0.9,0.2,1.3C30.6,27.1,29.4,29.5,27.3,30.8L27.3,30.8z"/>
		<path class="st2" d="M11.2,15.6c0.3-0.3,0.4-0.5,0.6-0.7c0.6-0.6,1.5-0.6,2.1-0.1c0.2,0.2,0.4,0.5,0.4,0.8c0.2,0.5,0,1-0.3,1.4
			c-0.9,1-1.9,2-2.8,3h-0.1L11.1,20c-0.9-0.9-1.9-1.9-2.8-2.9c-0.6-0.6-0.6-1.7,0.1-2.3c0.2-0.2,0.5-0.3,0.7-0.4
			c0.5-0.2,1.1,0,1.5,0.4C10.8,15.1,11,15.4,11.2,15.6z"/>
		<path class="st2" d="M24,21.2l0.9,0.8c0.7,0.7,1.4,1.4,2.1,2.1c0.6,0.6,0.6,1.6-0.1,2.2c-0.2,0.2-0.4,0.3-0.6,0.4
			c-0.5,0.1-1,0-1.4-0.4l-0.4-0.4h-0.1c0,0.2,0,0.4,0,0.7c0.1,0.5,0.5,1,1,1.2c0.1,0,0.1,0.1,0.2,0.2c0,0,0,0.1,0,0.1
			c-0.1,0-0.2,0-0.3,0c-0.7-0.2-1.5-0.2-2.3,0c-0.1,0-0.2,0-0.3,0l0.3-0.2c0.6-0.4,0.9-1,0.9-1.7c0,0,0-0.1,0-0.2
			c-0.1,0.1-0.2,0.1-0.3,0.2c-0.3,0.3-0.6,0.5-0.9,0.6c-0.8,0.2-1.7-0.2-1.9-1.1c-0.2-0.5,0-1.1,0.4-1.5c0.8-0.8,1.6-1.5,2.4-2.3
			C23.6,21.6,23.8,21.4,24,21.2z"/>
		<path class="st2" d="M8,10.7C7.6,9.5,7.2,8.3,6.9,7c0-0.2-0.2-0.3-0.4-0.3C6.3,6.7,6.1,6.8,6,7C5.8,7.8,5.6,8.5,5.3,9.2
			C5.1,9.9,4.9,10.4,4.7,11c0.3,0.2,0.4,0.1,0.5-0.2c0.1-0.3,0.2-0.6,0.3-0.8c0-0.2,0.2-0.3,0.4-0.3h1c0.2,0,0.3,0.1,0.4,0.3
			c0,0,0,0,0,0c0.1,0.3,0.2,0.6,0.3,0.9s0.2,0.3,0.4,0.2C8.2,11,8.1,10.8,8,10.7z M5.8,9.3c0.2-0.7,0.4-1.4,0.6-2h0.1
			c0.2,0.7,0.4,1.3,0.6,2H5.8z"/>
	</g>
</g>
<g id="w1n__x28_d_x29_">
	<g>
		<path class="st4" d="M34.7,24.1c0-0.2-0.1-0.3-0.3-0.3c-0.6,0.1-1.2,0.2-1.8,0.3c-0.2,0-0.3-0.1-0.3-0.3c-0.1-0.6-0.2-1.1-0.4-1.7
			c-0.1-0.4-0.3-0.7-0.5-1c-0.1-0.2-0.1-0.3,0.1-0.5l1.6-0.9c0.2-0.1,0.2-0.2,0.1-0.3c-1.4-2.6-3.8-4.4-6.7-5.2
			c-0.4-0.1-0.4-0.1-0.4,0.3c-0.1,0.6-0.2,1.1-0.3,1.7c0,0.2-0.1,0.3-0.4,0.3c-0.9-0.2-1.8-0.2-2.7,0c-0.3,0.1-0.3,0-0.4-0.3
			l-0.3-1.9c0,0,0-0.1,0-0.1l0.7-0.1c0.6,0,1.3-0.1,1.9-0.1c0.2,0,0.3-0.1,0.3-0.3V2.1c0-0.2,0-0.4,0-0.6c-0.2-0.8-0.8-1.3-1.6-1.4
			L22.9,0H6.6L6.3,0.1C5.4,0.2,4.8,0.9,4.7,1.8v0.7c0,0.3-0.1,0.3-0.4,0.3c-0.5,0-1.1,0-1.6,0.1C1.9,3,1.3,3.7,1.2,4.6v1.2v23.9
			c0,0.6,0.1,1.1,0.5,1.6c0.4,0.4,0.9,0.6,1.5,0.6h5.3h6.6c0.4,0,0.8,0.1,1,0.5c0,0,0.1,0.1,0.1,0.1l0.2-0.1l1.4-1.3
			c0.2-0.2,0.2-0.2,0.4,0c0.6,0.6,1.2,1.1,1.9,1.5c0.6,0.3,0.6,0.3,0.3,1c-0.3,0.6-0.4,0.9-0.6,1.3c-0.1,0.2,0,0.3,0.1,0.3
			c0.7,0.4,1.6,0.6,2.4,0.7c0.4,0,0.9,0.1,1.4,0.1c0.1,0,0.2,0,0.3,0h0.6l0.6-0.1c1,0,2-0.2,2.9-0.6c0.6-0.3,0.6-0.3,0.3-0.9
			c-0.3-0.6-0.4-1-0.6-1.4c0-0.1-0.1-0.2,0.1-0.3c0.9-0.4,1.7-1,2.4-1.8l0.2-0.1l0.5,0.4l1.1,1.1c0.1,0.1,0.2,0.1,0.3,0
			c1.3-1.6,2.2-3.5,2.5-5.6C34.8,25.8,34.8,24.9,34.7,24.1z M16.7,21.1c-0.4,0.8-0.7,1.7-0.8,2.6c0,0.4-0.2,0.5-0.6,0.4
			c-0.4-0.1-1-0.1-1.6-0.2c-0.2,0-0.3,0-0.3,0.2c-0.2,1.6,0,3.2,0.6,4.7c0.1,0.4,0.3,0.7,0.4,1.1H4c-0.4,0.1-0.8-0.2-0.9-0.6
			c0-0.1,0-0.1,0-0.2V5.7C3.1,5.3,3.4,4.9,3.8,4.8c0,0,0.1,0,0.1,0h14.7c0.4,0,0.8,0.3,0.8,0.7c0,0.1,0,0.1,0,0.2v9
			c0,0.2-0.1,0.4-0.3,0.5c-1.7,0.9-3.2,2.3-4.2,4c-0.1,0.2-0.1,0.3,0.1,0.4c0.5,0.3,1,0.6,1.5,0.9C16.8,20.7,16.8,20.8,16.7,21.1z
			 M27.3,30.8c-0.9,0.5-1.9,0.8-2.9,0.9c-3.3,0.2-6.1-2.1-6.7-5.3c-0.5-2.7,0.5-5.4,2.8-6.9c1.1-0.7,2.3-1.1,3.6-1
			c3,0,5.5,2.1,6.2,5c0.1,0.4,0.2,0.9,0.2,1.3C30.6,27.1,29.4,29.5,27.3,30.8L27.3,30.8z"/>
		<path class="st4" d="M11.2,15.6c0.3-0.3,0.4-0.5,0.6-0.7c0.6-0.6,1.5-0.6,2.1-0.1c0.2,0.2,0.4,0.5,0.4,0.8c0.2,0.5,0,1-0.3,1.4
			c-0.9,1-1.9,2-2.8,3h-0.1L11.1,20c-0.9-0.9-1.9-1.9-2.8-2.9c-0.6-0.6-0.6-1.7,0.1-2.3c0.2-0.2,0.5-0.3,0.7-0.4
			c0.5-0.2,1.1,0,1.5,0.4C10.8,15.1,11,15.4,11.2,15.6z"/>
		<path class="st4" d="M24,21.2l0.9,0.8c0.7,0.7,1.4,1.4,2.1,2.1c0.6,0.6,0.6,1.6-0.1,2.2c-0.2,0.2-0.4,0.3-0.6,0.4
			c-0.5,0.1-1,0-1.4-0.4l-0.4-0.4h-0.1c0,0.2,0,0.4,0,0.7c0.1,0.5,0.5,1,1,1.2c0.1,0,0.1,0.1,0.2,0.2c0,0,0,0.1,0,0.1
			c-0.1,0-0.2,0-0.3,0c-0.7-0.2-1.5-0.2-2.3,0c-0.1,0-0.2,0-0.3,0l0.3-0.2c0.6-0.4,0.9-1,0.9-1.7c0,0,0-0.1,0-0.2
			c-0.1,0.1-0.2,0.1-0.3,0.2c-0.3,0.3-0.6,0.5-0.9,0.6c-0.8,0.2-1.7-0.2-1.9-1.1c-0.2-0.5,0-1.1,0.4-1.5c0.8-0.8,1.6-1.5,2.4-2.3
			C23.6,21.6,23.8,21.4,24,21.2z"/>
		<path class="st4" d="M8,10.7C7.6,9.5,7.2,8.3,6.9,7c0-0.2-0.2-0.3-0.4-0.3C6.3,6.7,6.1,6.8,6,7C5.8,7.8,5.6,8.5,5.3,9.2
			C5.1,9.9,4.9,10.4,4.7,11c0.3,0.2,0.4,0.1,0.5-0.2c0.1-0.3,0.2-0.6,0.3-0.8c0-0.2,0.2-0.3,0.4-0.3h1c0.2,0,0.3,0.1,0.4,0.3
			c0,0,0,0,0,0c0.1,0.3,0.2,0.6,0.3,0.9s0.2,0.3,0.4,0.2C8.2,11,8.1,10.8,8,10.7z M5.8,9.3c0.2-0.7,0.4-1.4,0.6-2h0.1
			c0.2,0.7,0.4,1.3,0.6,2H5.8z"/>
	</g>
</g>
<g id="w2n">
</g>
<g id="w3n">
</g>
<g id="w4n">
</g>
<g id="w5n">
</g>
<g id="w6n">
</g>
<g id="w7n">
</g>
<g id="w8n">
</g>
<g id="w9n">
</g>
<g id="w10n">
</g>
<g id="w11n">
</g>
<g id="n2a">
</g>
<g id="Layer_14">
</g>
</svg>
