<?xml version="1.0" encoding="utf-8"?>
<!-- Generator: Adobe Illustrator 25.2.1, SVG Export Plug-In . SVG Version: 6.00 Build 0)  -->
<svg version="1.1" id="Layer_1" xmlns="http://www.w3.org/2000/svg" xmlns:xlink="http://www.w3.org/1999/xlink" x="0px" y="0px"
	 viewBox="0 0 36 36" style="enable-background:new 0 0 36 36;" xml:space="preserve">
<style type="text/css">
	.st0{fill:#A8A8A8;}
	.st1{display:none;}
	.st2{display:inline;}
	.st3{fill:#58D0F4;}
</style>
<g id="w1n__x28_a_x29_">
</g>
<g id="w1n__x28_d_x29_">
</g>
<g id="w2n">
</g>
<g id="w3n">
</g>
<g id="w4n">
</g>
<g id="w5n">
</g>
<g id="w6n">
</g>
<g id="w7n">
</g>
<g id="w8n">
</g>
<g id="w9n">
</g>
<g id="w10n">
</g>
<g id="w11n">
</g>
<g id="n2a__x28_d_x29_">
	<g>
		<path class="st0" d="M4.5,33.6c0,1.3,1,2.4,2.3,2.4h7.5V20.3H4.5V33.6z"/>
		<path class="st0" d="M21.7,36h7.5c1.3,0,2.3-1.1,2.3-2.4V20.3h-9.7L21.7,36L21.7,36z"/>
		<path class="st0" d="M2.8,17.6h11.5v-6.8H5.1c-1.3,0-2.3,1.1-2.3,2.4V17.6z"/>
		<path class="st0" d="M21.7,10.9v6.8h11.5v-4.3c0-1.3-1-2.4-2.3-2.4h-9.2V10.9z"/>
		<rect x="15.9" y="10.9" class="st0" width="4.2" height="25.1"/>
		<path class="st0" d="M10.1,8.4H26c1.4,0,4.7-1.6,4.7-5.4c0-1.8-1.3-3-3.3-3s-4.6,1.2-6.8,3.4c-0.7-0.6-1.5-1-2.5-1s-1.8,0.4-2.5,1
			C13.3,1.2,10.7,0,8.7,0S5.4,1.2,5.4,3C5.4,6.7,8.7,8.4,10.1,8.4z M20.5,5.9c2.4-2.5,5.2-3.8,6.9-3.8c0.8,0,0.8,0.8,0.8,1.1
			c-0.3,1.6-2.2,3-2.9,3.1h-4.6c-0.1,0-0.2-0.1-0.3-0.2C20.4,6.1,20.4,5.9,20.5,5.9z M8.4,2.1c1.7,0,4.6,1.3,6.9,3.8
			c0.1,0.1,0.1,0.2,0,0.3c0,0.1-0.1,0.2-0.3,0.2h-4.6C9.9,6.2,8,4.8,7.6,3.2C7.6,2.8,7.6,2.1,8.4,2.1z"/>
	</g>
</g>
<g id="n2a__x28_a_x29_" class="st1">
	<g class="st2">
		<path class="st3" d="M4.5,33.6c0,1.3,1,2.4,2.3,2.4h7.5V20.3H4.5V33.6z"/>
		<path class="st3" d="M21.7,36h7.5c1.3,0,2.3-1.1,2.3-2.4V20.3h-9.7L21.7,36L21.7,36z"/>
		<path class="st3" d="M2.8,17.6h11.5v-6.8H5.1c-1.3,0-2.3,1.1-2.3,2.4V17.6z"/>
		<path class="st3" d="M21.7,10.9v6.8h11.5v-4.3c0-1.3-1-2.4-2.3-2.4h-9.2V10.9z"/>
		<rect x="15.9" y="10.9" class="st3" width="4.2" height="25.1"/>
		<path class="st3" d="M10.1,8.4H26c1.4,0,4.7-1.6,4.7-5.4c0-1.8-1.3-3-3.3-3s-4.6,1.2-6.8,3.4c-0.7-0.6-1.5-1-2.5-1s-1.8,0.4-2.5,1
			C13.3,1.2,10.7,0,8.7,0S5.4,1.2,5.4,3C5.4,6.7,8.7,8.4,10.1,8.4z M20.5,5.9c2.4-2.5,5.2-3.8,6.9-3.8c0.8,0,0.8,0.8,0.8,1.1
			c-0.3,1.6-2.2,3-2.9,3.1h-4.6c-0.1,0-0.2-0.1-0.3-0.2C20.4,6.1,20.4,5.9,20.5,5.9z M8.4,2.1c1.7,0,4.6,1.3,6.9,3.8
			c0.1,0.1,0.1,0.2,0,0.3c0,0.1-0.1,0.2-0.3,0.2h-4.6C9.9,6.2,8,4.8,7.6,3.2C7.6,2.8,7.6,2.1,8.4,2.1z"/>
	</g>
</g>
</svg>
