<svg id="Layer_1" data-name="Layer 1" xmlns="http://www.w3.org/2000/svg" xmlns:xlink="http://www.w3.org/1999/xlink" viewBox="0 0 500 500"><defs><style>.cls-1{fill:url(#linear-gradient);}.cls-2{fill:url(#linear-gradient-2);}.cls-3{fill:url(#linear-gradient-3);}.cls-4{fill:url(#radial-gradient);}.cls-5{fill:url(#radial-gradient-2);}.cls-6{fill:url(#linear-gradient-4);}.cls-7{fill:url(#linear-gradient-5);}.cls-8{fill:url(#linear-gradient-6);}.cls-9{fill:url(#linear-gradient-7);}.cls-10{fill:url(#linear-gradient-8);}.cls-11{fill:url(#linear-gradient-9);}.cls-12{fill:url(#linear-gradient-10);}.cls-13{fill:url(#linear-gradient-11);}.cls-14{fill:url(#linear-gradient-12);}.cls-15{fill:url(#linear-gradient-13);}.cls-16{fill:url(#linear-gradient-14);}.cls-17{fill:url(#linear-gradient-15);}.cls-18{fill:url(#linear-gradient-16);}.cls-19{fill:url(#linear-gradient-17);}.cls-20{fill:url(#linear-gradient-18);}.cls-21{fill:url(#linear-gradient-19);}.cls-22{fill:url(#linear-gradient-20);}.cls-23{fill:url(#linear-gradient-21);}.cls-24{fill:url(#radial-gradient-3);}.cls-25{fill:url(#radial-gradient-4);}.cls-26{fill:url(#radial-gradient-5);}.cls-27{fill:url(#linear-gradient-22);}.cls-28{fill:url(#radial-gradient-6);}.cls-29{fill:url(#linear-gradient-23);}.cls-30{fill:url(#radial-gradient-7);}.cls-31{fill:url(#linear-gradient-24);}.cls-32{fill:url(#linear-gradient-25);}.cls-33{fill:url(#linear-gradient-26);}.cls-34{fill:url(#linear-gradient-27);}.cls-35{fill:url(#linear-gradient-28);}.cls-36{fill:url(#linear-gradient-29);}.cls-37{fill:url(#linear-gradient-30);}.cls-38{fill:#fdfdfd;}.cls-39{fill:url(#linear-gradient-31);}.cls-40{fill:url(#linear-gradient-32);}.cls-41{fill:#231f20;opacity:0.2;isolation:isolate;}.cls-42{fill:#fdfbfc;}.cls-43{fill:url(#linear-gradient-33);}.cls-44{fill:url(#linear-gradient-34);}.cls-45{fill:url(#radial-gradient-8);}.cls-46{fill:url(#linear-gradient-35);}.cls-47{fill:#b11618;}.cls-48{fill:url(#linear-gradient-36);}</style><linearGradient id="linear-gradient" x1="64.09" y1="324.46" x2="465.33" y2="324.46" gradientTransform="matrix(1, 0, 0, -1, 0, 500)" gradientUnits="userSpaceOnUse"><stop offset="0" stop-color="#600b0f"/><stop offset="0.05" stop-color="#681311"/><stop offset="0.13" stop-color="#7f2917"/><stop offset="0.23" stop-color="#a34d20"/><stop offset="0.33" stop-color="#cd762b"/><stop offset="0.4" stop-color="#bb6526"/><stop offset="0.55" stop-color="#8b381a"/><stop offset="0.65" stop-color="#651411"/><stop offset="0.69" stop-color="#6b1b14"/><stop offset="0.76" stop-color="#7a2e1c"/><stop offset="0.83" stop-color="#934e2a"/><stop offset="0.92" stop-color="#b67a3c"/><stop offset="1" stop-color="#dba950"/></linearGradient><linearGradient id="linear-gradient-2" x1="319.86" y1="147.11" x2="319.86" y2="415.04" gradientTransform="matrix(1, 0, 0, -1, 0, 500)" gradientUnits="userSpaceOnUse"><stop offset="0.32" stop-color="#d39c42"/><stop offset="0.35" stop-color="#cb9640"/><stop offset="0.4" stop-color="#b4853b"/><stop offset="0.46" stop-color="#8f6a32"/><stop offset="0.52" stop-color="#5c4525"/><stop offset="0.6" stop-color="#1b1616"/><stop offset="0.61" stop-color="#151114"/><stop offset="0.94" stop-color="#691411"/></linearGradient><linearGradient id="linear-gradient-3" x1="106.4" y1="247.94" x2="415.09" y2="247.94" gradientTransform="matrix(1, 0, 0, -1, 0, 500)" gradientUnits="userSpaceOnUse"><stop offset="0.32" stop-color="#d39c42"/><stop offset="0.35" stop-color="#d6a24a"/><stop offset="0.41" stop-color="#dcb161"/><stop offset="0.49" stop-color="#e8ca86"/><stop offset="0.57" stop-color="#f7edb8"/><stop offset="0.61" stop-color="#fefcce"/><stop offset="0.94" stop-color="#bc7d2e"/></linearGradient><radialGradient id="radial-gradient" cx="219.35" cy="291.64" r="206.02" gradientTransform="matrix(1, 0, 0, -1, 0, 500)" gradientUnits="userSpaceOnUse"><stop offset="0.37" stop-color="#fefdfe"/><stop offset="0.47" stop-color="#fbfafa"/><stop offset="0.56" stop-color="#f0eff0"/><stop offset="0.65" stop-color="#deddde"/><stop offset="0.73" stop-color="#c5c3c4"/><stop offset="0.81" stop-color="#a5a3a3"/><stop offset="0.89" stop-color="#7d7b7b"/><stop offset="0.91" stop-color="#757373"/></radialGradient><radialGradient id="radial-gradient-2" cx="137.86" cy="269.28" r="18.01" gradientTransform="matrix(1, 0, 0, -1.09, 0, 505.32)" gradientUnits="userSpaceOnUse"><stop offset="0.37" stop-color="#7c8186"/><stop offset="0.48" stop-color="#797e82"/><stop offset="0.58" stop-color="#6e7378"/><stop offset="0.68" stop-color="#5d6166"/><stop offset="0.77" stop-color="#45494c"/><stop offset="0.85" stop-color="#26292c"/><stop offset="0.91" stop-color="#101315"/></radialGradient><linearGradient id="linear-gradient-4" x1="111.76" y1="274.74" x2="132.77" y2="274.74" gradientTransform="matrix(1, 0, 0, -1, 0, 500)" gradientUnits="userSpaceOnUse"><stop offset="0.5" stop-color="#151314"/><stop offset="0.52" stop-color="#181617"/><stop offset="0.69" stop-color="#353334"/><stop offset="0.83" stop-color="#474545"/><stop offset="0.94" stop-color="#4d4b4b"/></linearGradient><linearGradient id="linear-gradient-5" x1="384.96" y1="254.8" x2="409.71" y2="254.8" xlink:href="#linear-gradient-3"/><linearGradient id="linear-gradient-6" x1="361.69" y1="340.93" x2="367.72" y2="340.93" xlink:href="#linear-gradient-3"/><linearGradient id="linear-gradient-7" x1="267.81" y1="104.48" x2="286.95" y2="104.48" xlink:href="#linear-gradient-3"/><linearGradient id="linear-gradient-8" x1="182.7" y1="162.56" x2="194.02" y2="162.56" xlink:href="#linear-gradient-3"/><linearGradient id="linear-gradient-9" x1="248.89" y1="161.81" x2="293.68" y2="161.81" xlink:href="#linear-gradient-3"/><linearGradient id="linear-gradient-10" x1="342.79" y1="202.07" x2="355.78" y2="202.07" xlink:href="#linear-gradient-3"/><linearGradient id="linear-gradient-11" x1="259.62" y1="255.15" x2="319.34" y2="255.15" xlink:href="#linear-gradient-3"/><linearGradient id="linear-gradient-12" x1="129.69" y1="244.42" x2="171.03" y2="244.42" xlink:href="#linear-gradient-3"/><linearGradient id="linear-gradient-13" x1="134.66" y1="334.69" x2="180.22" y2="334.69" xlink:href="#linear-gradient-3"/><linearGradient id="linear-gradient-14" x1="211.32" y1="309.01" x2="220.46" y2="309.01" xlink:href="#linear-gradient-3"/><linearGradient id="linear-gradient-15" x1="268.43" y1="344.85" x2="325.3" y2="344.85" xlink:href="#linear-gradient-3"/><linearGradient id="linear-gradient-16" x1="167.53" y1="225.14" x2="263.21" y2="225.14" xlink:href="#linear-gradient-3"/><linearGradient id="linear-gradient-17" x1="315.29" y1="280.9" x2="388.43" y2="280.9" xlink:href="#linear-gradient-3"/><linearGradient id="linear-gradient-18" x1="281.52" y1="138.1" x2="365.88" y2="138.1" xlink:href="#linear-gradient-3"/><linearGradient id="linear-gradient-19" x1="141.46" y1="134.04" x2="205.83" y2="134.04" xlink:href="#linear-gradient-3"/><linearGradient id="linear-gradient-20" x1="112.16" y1="274.72" x2="138.77" y2="274.72" xlink:href="#linear-gradient-3"/><linearGradient id="linear-gradient-21" x1="175.37" y1="368.1" x2="272.18" y2="368.1" xlink:href="#linear-gradient-3"/><radialGradient id="radial-gradient-3" cx="226.05" cy="246.72" r="34.11" gradientTransform="matrix(1, 0, 0, -1, 0, 500)" xlink:href="#radial-gradient-2"/><radialGradient id="radial-gradient-4" cx="324.18" cy="137.43" r="35.13" gradientTransform="matrix(1, 0, 0, -1, 0, 500)" xlink:href="#radial-gradient-2"/><radialGradient id="radial-gradient-5" cx="334.53" cy="293.89" r="29.14" gradientTransform="matrix(1, 0, 0, -1, 0, 500)" xlink:href="#radial-gradient-2"/><linearGradient id="linear-gradient-22" x1="321.15" y1="281.24" x2="386.08" y2="281.24" gradientTransform="matrix(1, 0, 0, -1, 0, 500)" gradientUnits="userSpaceOnUse"><stop offset="0.06" stop-color="#2f2f2f"/><stop offset="0.23" stop-color="#292929"/><stop offset="0.46" stop-color="#191718"/><stop offset="0.5" stop-color="#151314"/></linearGradient><radialGradient id="radial-gradient-6" cx="229.5" cy="365.73" r="32.38" gradientTransform="matrix(1, 0, 0, -1, 0, 500)" xlink:href="#radial-gradient-2"/><linearGradient id="linear-gradient-23" x1="224.33" y1="344.85" x2="224.33" y2="396.92" gradientTransform="matrix(1, 0, 0, -1, 0, 500)" gradientUnits="userSpaceOnUse"><stop offset="0.06" stop-color="#4d4b4b"/><stop offset="0.17" stop-color="#474545"/><stop offset="0.32" stop-color="#353334"/><stop offset="0.48" stop-color="#181617"/><stop offset="0.5" stop-color="#151314"/></linearGradient><radialGradient id="radial-gradient-7" cx="172.58" cy="133.58" r="25.97" gradientTransform="matrix(1, 0, 0, -1, 0, 500)" xlink:href="#radial-gradient-2"/><linearGradient id="linear-gradient-24" x1="237.13" y1="254.96" x2="190.94" y2="174.97" xlink:href="#linear-gradient-23"/><linearGradient id="linear-gradient-25" x1="337" y1="114.9" x2="302.34" y2="149.55" xlink:href="#linear-gradient-23"/><linearGradient id="linear-gradient-26" x1="145.5" y1="133.28" x2="197.46" y2="133.28" xlink:href="#linear-gradient-23"/><linearGradient id="linear-gradient-27" x1="7.97" y1="205.53" x2="492.03" y2="205.53" xlink:href="#linear-gradient-3"/><linearGradient id="linear-gradient-28" x1="7.97" y1="205.53" x2="492.03" y2="205.53" gradientTransform="matrix(1, 0, 0, -1, 0, 500)" gradientUnits="userSpaceOnUse"><stop offset="0.06" stop-color="#bc7d2e"/><stop offset="0.39" stop-color="#fefcce"/><stop offset="0.43" stop-color="#f7edb8"/><stop offset="0.51" stop-color="#e8ca86"/><stop offset="0.58" stop-color="#dcb161"/><stop offset="0.65" stop-color="#d6a24a"/><stop offset="0.68" stop-color="#d39c42"/></linearGradient><linearGradient id="linear-gradient-29" x1="287.33" y1="14.95" x2="287.33" y2="411.05" gradientTransform="matrix(1, 0, 0, -1, 0, 500)" gradientUnits="userSpaceOnUse"><stop offset="0" stop-color="#013524"/><stop offset="0.21" stop-color="#006b3e"/><stop offset="0.68" stop-color="#01261d"/></linearGradient><linearGradient id="linear-gradient-30" x1="66.54" y1="277.98" x2="177.6" y2="85.62" gradientTransform="matrix(1, 0, 0, -1, 0, 500)" gradientUnits="userSpaceOnUse"><stop offset="0" stop-color="#0c1c2e"/><stop offset="0.13" stop-color="#0a2a4e"/><stop offset="0.28" stop-color="#08366b"/><stop offset="0.41" stop-color="#073e7e"/><stop offset="0.5" stop-color="#074184"/><stop offset="0.7" stop-color="#083467"/><stop offset="1" stop-color="#0a1f36"/></linearGradient><linearGradient id="linear-gradient-31" x1="401.03" y1="478.32" x2="22.2" y2="253.09" xlink:href="#linear-gradient-3"/><linearGradient id="linear-gradient-32" x1="58.1" y1="258.92" x2="359.32" y2="465.36" gradientTransform="matrix(1, 0, 0, -1, 0, 500)" gradientUnits="userSpaceOnUse"><stop offset="0" stop-color="#8d0506"/><stop offset="0.12" stop-color="#ae1916"/><stop offset="0.26" stop-color="#d22e28"/><stop offset="0.41" stop-color="#ee4734"/><stop offset="0.63" stop-color="#d61e16"/><stop offset="0.78" stop-color="#c40000"/><stop offset="0.97" stop-color="#9c1f14"/></linearGradient><linearGradient id="linear-gradient-33" x1="94.77" y1="435.45" x2="188.23" y2="435.45" xlink:href="#linear-gradient-3"/><linearGradient id="linear-gradient-34" x1="68.04" y1="115.48" x2="113.84" y2="194.81" xlink:href="#linear-gradient-3"/><radialGradient id="radial-gradient-8" cx="210.73" cy="643.07" r="53.43" gradientTransform="matrix(1.18, 0, 0, -0.45, -27.7, 386.86)" gradientUnits="userSpaceOnUse"><stop offset="0" stop-color="#ffea6a" stop-opacity="0.5"/><stop offset="0.17" stop-color="#ffea6a" stop-opacity="0.42"/><stop offset="0.5" stop-color="#ffea6a" stop-opacity="0.22"/><stop offset="0.82" stop-color="#ffea6a" stop-opacity="0"/></radialGradient><linearGradient id="linear-gradient-35" x1="388.91" y1="105.03" x2="388.91" y2="16.21" gradientTransform="matrix(-0.17, 0.89, 0.92, 0.18, 355.15, 81.55)" gradientUnits="userSpaceOnUse"><stop offset="0.41" stop-color="#fefdfe"/><stop offset="1" stop-color="#a9a7a8"/></linearGradient><linearGradient id="linear-gradient-36" x1="390.1" y1="77.71" x2="390.1" y2="31.96" gradientTransform="matrix(-0.17, 0.89, 0.92, 0.18, 356.2, 83.85)" xlink:href="#linear-gradient-35"/></defs><title>Artboard 1nex</title><g id="Layer_1-2" data-name="Layer 1"><path class="cls-1" d="M351.5,48.17,186.12,28.28,159.4,55.44a150,150,0,0,0-36.6,20.1c-14.54,11-44.73,33.27-54.88,72.89l-3.83,3.89v33l.18.11c1.66,29.78,14.58,52.14,27.82,62.72,56.5,45.15,94.55,61.75,118.89,74.66.76-.48,3.37-1.63,2.35-2.62V282.63L142.2,221a72.22,72.22,0,0,1-.31-35.3c7-28.4,29.94-36.49,37.89-41.7C315.1,50.3,465.33,179.14,465.33,179.14V152.76c-14.56-19-35.85-53.75-65.68-75.54A319.92,319.92,0,0,0,351.5,48.17Zm84.51,82Z"/><path class="cls-2" d="M441.53,162.19,347.93,89h0c-22.93,0-36,26.06-22.44,44.54,34.54,46.95,67.34,125.8-5.33,210.9-19.88,23.28-45,41.63-73.74,52.28q-2.86,1.08-5.84,2.05L185.9,455.47s157.25-33.92,158.4-35.65S453.83,279,453.83,279Z"/><path class="cls-3" d="M260.74,97.72a154.34,154.34,0,1,0,109.14,45.2A154.34,154.34,0,0,0,260.74,97.72Z"/><circle class="cls-4" cx="260.74" cy="252.06" r="148.98"/><path class="cls-5" d="M112.16,263l18.64-16.41a194.78,194.78,0,0,1,5-59l-10.12,1.62a148.44,148.44,0,0,0-13.9,62.91Q111.76,257.56,112.16,263Z"/><path class="cls-6" d="M112.11,258.25l16.3-14.35a170.21,170.21,0,0,1,4.36-51.63l-8.86,1.42a130,130,0,0,0-12.15,55Q111.76,253.52,112.11,258.25Z"/><path class="cls-7" d="M402,243.65a47.42,47.42,0,0,0-15.5-10,1.13,1.13,0,0,0-.83,2.1h0a45.22,45.22,0,0,1,14.77,9.53,98.53,98.53,0,0,1,9.2,11.57c0-1.25.07-2.51.07-3.77A82.7,82.7,0,0,0,402,243.65Z"/><path class="cls-8" d="M366.88,174.7a64.06,64.06,0,0,0,.78-13.27c-.18-3.72-1.47-10.05-2.92-16-1-1-2-1.94-3.05-2.9,1.73,6.73,3.52,14.79,3.72,19a61,61,0,0,1-.76,12.8,1.14,1.14,0,0,0,.93,1.3h.19A1.13,1.13,0,0,0,366.88,174.7Z"/><path class="cls-9" d="M284.26,390.49a156.3,156.3,0,0,1-16.45,10.38c2.62-.12,5.21-.31,7.79-.56,6.28-3.83,10.29-6.81,10.69-7.12a1.69,1.69,0,0,0-2-2.7Z"/><path class="cls-10" d="M183.83,349.86a.75.75,0,0,1-.21,0,1.12,1.12,0,0,1-.9-1.31,63.29,63.29,0,0,1,9.23-23,1.13,1.13,0,0,1,1.89,1.23h0a60.87,60.87,0,0,0-8.9,22.18A1.13,1.13,0,0,1,183.83,349.86Z"/><path class="cls-11" d="M292.55,358.47a1.19,1.19,0,0,1-.63-.19,209.67,209.67,0,0,1-42.78-38.54,1.13,1.13,0,0,1,1.72-1.45,206.84,206.84,0,0,0,42.33,38.12,1.13,1.13,0,0,1-.64,2.06Z"/><path class="cls-12" d="M343.92,332.79a1,1,0,0,1-.3,0,1.13,1.13,0,0,1-.8-1.38h0a323,323,0,0,0,7.58-36.27c1.53-10.22,2.58-20.63,3.12-31a1.14,1.14,0,0,1,1.19-1.06,1.11,1.11,0,0,1,1.06,1.18h0c-.54,10.4-1.6,20.88-3.14,31.17A329.47,329.47,0,0,1,345,332,1.12,1.12,0,0,1,343.92,332.79Z"/><path class="cls-13" d="M260.74,259.58a1.12,1.12,0,0,1-1.12-1.13,1.14,1.14,0,0,1,.64-1l57.49-27.21a1.13,1.13,0,0,1,1,2l-57.5,27.21A1.13,1.13,0,0,1,260.74,259.58Z"/><path class="cls-14" d="M169.9,265.71l-.27,0a113.73,113.73,0,0,1-39.49-18.2,1.13,1.13,0,0,1,1.32-1.83,111.51,111.51,0,0,0,38.71,17.84,1.13,1.13,0,0,1-.27,2.22Z"/><path class="cls-15" d="M135.78,188.67a1.12,1.12,0,0,1-1.12-1.13,1.1,1.1,0,0,1,.21-.65,205,205,0,0,1,43.55-44.71,1.13,1.13,0,1,1,1.36,1.8A203,203,0,0,0,136.7,188.2,1.11,1.11,0,0,1,135.78,188.67Z"/><path class="cls-16" d="M212.45,225.08h0a1.11,1.11,0,0,1-1.08-1.16c.41-10.86,1.18-21.85,2.3-32.66,1.16-11.15,2.71-22.41,4.61-33.46a1.13,1.13,0,0,1,2.22.38c-1.9,11-3.44,22.21-4.59,33.31-1.11,10.77-1.88,21.7-2.29,32.51A1.13,1.13,0,0,1,212.45,225.08Z"/><path class="cls-17" d="M324.18,175.64a1.14,1.14,0,0,1-.77-.3A246.8,246.8,0,0,0,269,136.8a1.13,1.13,0,1,1,1-2A249.27,249.27,0,0,1,325,173.69a1.13,1.13,0,0,1,.05,1.59A1.11,1.11,0,0,1,324.18,175.64Z"/><path class="cls-18" d="M212.45,224l48.29,34.5L250,319s-19.67,7.28-49.61,7.28q-3.64,0-7.49-.15c-3.85-.15-18.79-30.13-23-61.56,0,0,22.23-25.68,42.54-40.63m0-2.78-1.31,1c-20.29,14.93-42.69,40.71-42.92,41l-.66.77.13,1c4.24,31.54,22.55,61.2,23.32,62.45l.63,1,1.19,0c2.52.1,5.07.15,7.59.15,30,0,49.57-7.12,50.39-7.42l1.21-.45.23-1.27L263,258.85l.25-1.4-1.16-.83-48.3-34.5-1.33-1Z"/><path class="cls-19" d="M338.79,173.32c12.32,0,27,1.19,27,1.19,14.19,23.77,20.32,60.18,20.32,60.18-4.6,8.43-31.43,29.51-31.43,29.51l-36.41-33c4.6-6.9,5.94-56.73,5.94-56.73,2.87-.89,8.45-1.19,14.61-1.19m0-2.25c-7.48,0-12.48.42-15.28,1.29l-1.54.48,0,1.61c-.52,19-2.48,50.91-5.57,55.54l-1.07,1.62,1.44,1.3,36.41,33,1.41,1.27L356,266c1.11-.87,27.25-21.47,32-30.21l.37-.68-.13-.77c-.25-1.5-6.37-37.1-20.6-61l-.6-1-1.16-.09c-.14,0-14.88-1.2-27.15-1.2Z"/><path class="cls-20" d="M345.65,330.22l-1.45-1.73-1.73,1.45c-.28.23-28.09,23.33-50.1,25.16l-2.07.17v2.08c0,.21,0,21.34-7,33.36l-1.8,3.12,3.58.26,16.7,1.22c2-.57,3.95-1.18,5.9-1.83l-22.43-1.64c7.34-12.71,7.28-34.5,7.28-34.5,23-1.91,51.36-25.68,51.36-25.68l19.17,23L354.34,368c2.09-1.69,4.14-3.43,6.13-5.23L365,355.9l.92-1.4-1.07-1.29Z"/><path class="cls-21" d="M203.45,387.49A91.48,91.48,0,0,1,186,348.33l-.32-1.74-1.76-.1c-6.12-.35-12.3-.87-18.39-1.56-7.22-.81-14.52-1.88-21.68-3.16l-2.43-.44c.67.89,1.34,1.78,2,2.65,6.85,1.23,14.13,2.32,21.83,3.19,6.43.72,12.61,1.23,18.51,1.57a93.78,93.78,0,0,0,17.83,40.12c1.38.6,2.77,1.18,4.17,1.73Z"/><path class="cls-22" d="M135.43,185.32l-8.59,1.38c-.4.81-.79,1.64-1.17,2.46l10.12-1.62a194.47,194.47,0,0,0-5,59L112.16,263q.11,1.39.24,2.79l1.25-1.1,18.64-16.4.84-.74-.08-1.11A192.13,192.13,0,0,1,138,188.08l.8-3.29Z"/><path class="cls-23" d="M271.78,135.44a157.17,157.17,0,0,1-1.89-20.78c-.09-3.74,0-7.54.15-11.28-.75,0-1.5-.1-2.25-.13-.18,3.62-.24,7.45-.15,11.47a158.49,158.49,0,0,0,1.92,21.08c-10.35.38-50.22,22.19-50.22,22.19-16.48-8.46-40.24-14.91-40.24-14.91L197.8,117l1.23-.55h0c-1.85.84-3.68,1.7-5.48,2.61l-16.29,22.71-1.89,2.64,3.14.84c.23.07,23.73,6.49,39.8,14.75l1.07.54,1-.57c11-6,41.16-21.62,49.22-21.92l2.54-.09Z"/><path class="cls-24" d="M169.9,264.59s22.23-25.68,42.55-40.63l48.3,34.5L250,319s-23,8.51-57.1,7.13C192.9,326.15,174.12,296,169.9,264.59Z"/><path class="cls-25" d="M292.55,357.35s.07,21.79-7.28,34.5l22.44,1.63A148.64,148.64,0,0,0,354.35,368l8.73-13.3-19.16-23S315.55,355.43,292.55,357.35Z"/><path class="cls-26" d="M354.65,264.2s26.83-21.08,31.43-29.51c0,0-6.13-36.42-20.32-60.18,0,0-33-2.69-41.58,0,0,0-1.35,49.83-5.94,56.73Z"/><path class="cls-27" d="M356,262.25s25.68-20.18,30.08-28.24c0,0-5.87-34.85-19.44-57.6,0,0-31.55-2.56-39.8,0,0,0-1.29,47.69-5.69,54.29Z"/><path class="cls-28" d="M197.8,117l-18.7,26.08s23.77,6.45,40.25,14.91c0,0,39.86-21.81,50.21-22.19a158.49,158.49,0,0,1-1.92-21.08c-.09-4,0-7.85.15-11.47-1.7-.08-4.13-.17-7-.17A148.34,148.34,0,0,0,197.8,117Z"/><path class="cls-29" d="M199.17,116.28,181.44,141s22.53,6.11,38.16,14.14c0,0,37.8-20.68,47.62-21a150.62,150.62,0,0,1-1.82-20c-.09-3.82,0-7.45.14-10.88-1.61-.08-3.91-.16-6.68-.16A140.71,140.71,0,0,0,199.17,116.28Z"/><path class="cls-30" d="M183.83,348.74c-5.9-.34-12.08-.85-18.51-1.57-7.7-.87-15-2-21.83-3.19a149.52,149.52,0,0,0,58.17,44.88A93.83,93.83,0,0,1,183.83,348.74Z"/><path class="cls-31" d="M171.29,268.3s20.89-24.14,40-38.19l45.39,32.43-10.1,56.91s-21.61,8-53.67,6.7C192.9,326.16,175.25,297.84,171.29,268.3Z"/><path class="cls-32" d="M293.9,358.89s.06,20.86-7,33l21.48,1.57A142.42,142.42,0,0,0,353.06,369l8.36-12.72-18.34-22S315.92,357.05,293.9,358.89Z"/><path class="cls-33" d="M145.5,346.48a149.53,149.53,0,0,0,52,40.48,89.12,89.12,0,0,1-15.57-36.3c-5.61-.32-11.5-.8-17.62-1.49C157.69,348.42,151.43,347.51,145.5,346.48Z"/><path class="cls-34" d="M20.25,218.51a1.11,1.11,0,0,0-1.45-.61,1.14,1.14,0,0,0-.65.71C9.39,247.48-34.71,423.1,166.07,485.05c219.05,67.59,316.8-112.95,323.12-163.54S505.08,149.62,347.93,89c0,0,138.67,118.72,36.33,255.44-18.34,24.51-45,41.63-73.74,52.29-29.71,11-60.22,15.57-86.19-13.27C174.46,328,141.45,280.34,114,278.33,73.69,275.38,26.92,235.94,20.25,218.51Z"/><path class="cls-35" d="M347.93,89s.36.3,1,.88c152.79,60.18,143.42,179,137.2,228.7-6.24,50-102.73,228.18-319,161.45C-26.63,420.19,10.64,253.16,20.49,219.08l-.23-.56a1.11,1.11,0,0,0-2.1.09C9.39,247.48-34.71,423.1,166.07,485.05c219.05,67.59,316.8-112.95,323.12-163.54S505.08,149.62,347.93,89Z"/><path class="cls-36" d="M347.93,89c55.2,41.5,88.42,102.82,84,169-7.56,113.68-123.34,198.54-258.61,189.54A287.18,287.18,0,0,1,93.25,430.6C131,461,179.82,480.85,234.05,484.46,362.78,493,473.34,406.76,481,291.78,486.81,204.33,431.42,125.48,347.93,89Z"/><path class="cls-37" d="M107.13,276.27c-51.33-9.8-84.91-54.1-85.45-54.81v0A188.3,188.3,0,0,0,26.19,338.9C37,368.06,57.53,392.77,84.82,407.66c88.6,48.34,202.51,6.13,202.51,6.13C210.53,426.72,158.88,286.15,107.13,276.27Z"/><polygon class="cls-38" points="76.61 321.24 83.51 292.78 104.21 325.02 130.08 330.73 111.97 346.25 123.18 379.89 95.5 359.19 70.58 379.89 70.58 341.94 50.74 321.24 76.61 321.24"/><path class="cls-39" d="M185.9,310.58C159.16,296.4,154.25,298,85.83,251.16c-20.5-14-74.23-63.62-58.33-126.86C39.17,77.91,72.42,51.46,89,39,125.27,11.64,170.85,2.15,225.29.11c92-3.45,215,75,240,152.65C422,110.28,378.45,92.55,354.27,84.82c-6.42-2-124.58-38.11-203.4,20.51C138.54,114.49,117.06,131.4,110,160c-4.7,19-1.48,36.16,4.4,51.7,5.71,15.11,15.92,33.23,26.79,45.19,27.19,29.92,40.24,43.39,47.29,50.87C189.56,308.84,186.74,310.05,185.9,310.58Z"/><path class="cls-40" d="M125.24,245.45C98.51,214.23,63.15,123.15,183,75.72c78.3-31,157.49-6.55,203,14.13a221,221,0,0,1,66.54,46.66c.83.85,1.26,1.31,1.26,1.31s-12.87-28.52-65-69a206.57,206.57,0,0,0-22.6-16.52h0c-30.69-19.47-69-33.15-111.33-37.9C143.46,1.88,45.9,55.81,37,134.86,31.45,184.49,62.18,232.23,113.41,264h0l.39.23q3.12,1.92,6.34,3.77l59.44,35.42L164.5,287.81S152,276.66,125.24,245.45Z"/><path class="cls-41" d="M179.55,32.74l-1.75,1.17-10.4,6.93-1.93-2.15-1-1.09-.8,1.23c-4.23,6.48-8.88,12-10.35,12.41-1-1.18-1.33-8.51-.81-16.32l.14-2.09-1.82,1a55.91,55.91,0,0,0-8.47,6.46l-9.91-6.43-1.12-.72-.53,1.21-6.66,15.28-8,1.61-2.17.43,1.63,1.5a27.22,27.22,0,0,1,7.63,11.27h-15l.07,1.2.24,3.86L96,75.81l-1.22.61.83,1.08,6.9,9-3.66,3.91-1.89,2,2.76-.12,25.16-1.09L123,97.48l-1,3.38,2.77-2.17,20-15.65,2.7,8.5.42,1.32,1.21-.68,4.6-2.6.81-.46-.3-.88-2.8-8.42,23.66-8,2-.69-1.74-1.28-5.05-3.73,16.44-18.77,1.49-1.69L186,45.5,179.56,45V32.74Z"/><path class="cls-42" d="M145.34,78.9,124.09,95.55l2.3-7.76L99.66,89,104,84.34,96.5,74.57,109.72,68l-.28-4.6h15.23s-1.15-6.61-8.33-13.22L125,48.41l6.9-15.82,10.64,6.9a60.24,60.24,0,0,1,8.91-6.9s-1.15,17.25,1.72,17.54,11.5-12.94,11.5-12.94l2.59,2.88,11.21-7.48V43.81l7.48.57L168.65,64.07l6,4.46L150,76.87l3.16,9.48-4.6,2.6Z"/><path class="cls-43" d="M178.43,32.59V43.81l7.47.57L168.65,64.07l6,4.46L150,76.87l3.16,9.48-4.6,2.6-3.19-10L124.09,95.55l2.3-7.76L99.66,89,104,84.34,96.5,74.57,109.72,68l-.28-4.6h15.23s-1.15-6.61-8.33-13.22L125,48.41l6.9-15.82,10.64,6.9a60.24,60.24,0,0,1,8.91-6.9s-1.15,17.25,1.72,17.54h.1c3,0,11.4-12.94,11.4-12.94l2.59,2.87,11.21-7.47m1.12-2.1-1.75,1.17-10.4,6.93-1.93-2.15-1-1.09-.8,1.23c-4.23,6.47-8.88,12-10.35,12.41-1-1.19-1.33-8.52-.81-16.32l.14-2.1-1.82,1.05a55.85,55.85,0,0,0-8.47,6.45l-9.91-6.42-1.11-.72-.53,1.21-6.67,15.28-8,1.61-2.17.43,1.63,1.5a27.22,27.22,0,0,1,7.63,11.27h-15l.07,1.2.24,3.86L96,73.56l-1.22.61.83,1.08,6.9,9-3.66,3.91L97,90.2l2.76-.12L124.87,89,123,95.24l-1,3.38,2.78-2.18,20-15.65,2.7,8.5.42,1.33,1.21-.69,4.6-2.6.8-.45L154.2,86l-2.81-8.42,23.66-8,2-.69-1.74-1.28-5.05-3.73,16.44-18.77,1.48-1.7L186,43.26l-6.44-.5V30.49Z"/><path class="cls-44" d="M83.51,292.78,104.21,325l25.88,5.71L112,346.25l11.22,33.64-27.68-20.7-24.93,20.7V341.94l-19.84-20.7H76.61l6.9-28.46m-1-5.64-1.24,5.11L74.84,319H45.46l3.66,3.81,19.2,20v41.84l3.7-3.06,23.56-19.57,26.26,19.64,5.75,4.31-2.27-6.82L114.59,347l17-14.54L135,329.5l-4.4-1-25-5.51L85.4,291.57l-2.84-4.43Z"/><ellipse class="cls-45" cx="220.33" cy="95.55" rx="83.87" ry="28.85" transform="translate(-15.42 49.76) rotate(-12.45)"/><ellipse class="cls-46" cx="344.54" cy="436.61" rx="41.89" ry="24.87" transform="translate(-149.93 181.98) rotate(-24.48)"/><ellipse class="cls-47" cx="343.54" cy="437.07" rx="33.02" ry="18.09" transform="translate(-150.6 182.36) rotate(-24.56)"/><ellipse class="cls-48" cx="339.55" cy="438.92" rx="21.6" ry="11.84" transform="translate(-151.73 180.87) rotate(-24.56)"/></g></svg>