<svg xmlns="http://www.w3.org/2000/svg" xmlns:xlink="http://www.w3.org/1999/xlink" viewBox="0 0 499.88 491.55"><defs><style>.cls-1{fill:url(#linear-gradient);}.cls-2{fill:url(#linear-gradient-2);}.cls-3{fill:url(#linear-gradient-3);}.cls-4{fill:url(#radial-gradient);}.cls-5{fill:url(#radial-gradient-2);}.cls-6{fill:url(#linear-gradient-4);}.cls-7{fill:url(#linear-gradient-5);}.cls-8{fill:url(#linear-gradient-6);}.cls-9{fill:url(#linear-gradient-7);}.cls-10{fill:url(#linear-gradient-8);}.cls-11{fill:url(#linear-gradient-9);}.cls-12{fill:url(#linear-gradient-10);}.cls-13{fill:url(#linear-gradient-11);}.cls-14{fill:url(#linear-gradient-12);}.cls-15{fill:url(#linear-gradient-13);}.cls-16{fill:url(#linear-gradient-14);}.cls-17{fill:url(#linear-gradient-15);}.cls-18{fill:url(#linear-gradient-16);}.cls-19{fill:url(#linear-gradient-17);}.cls-20{fill:url(#linear-gradient-18);}.cls-21{fill:url(#linear-gradient-19);}.cls-22{fill:url(#linear-gradient-20);}.cls-23{fill:url(#linear-gradient-21);}.cls-24{fill:url(#radial-gradient-3);}.cls-25{fill:url(#radial-gradient-4);}.cls-26{fill:url(#radial-gradient-5);}.cls-27{fill:url(#linear-gradient-22);}.cls-28{fill:url(#radial-gradient-6);}.cls-29{fill:url(#linear-gradient-23);}.cls-30{fill:url(#radial-gradient-7);}.cls-31{fill:url(#linear-gradient-24);}.cls-32{fill:url(#linear-gradient-25);}.cls-33{fill:url(#linear-gradient-26);}.cls-34{fill:url(#linear-gradient-27);}.cls-35{fill:url(#linear-gradient-28);}.cls-36{fill:url(#linear-gradient-29);}.cls-37{fill:url(#linear-gradient-30);}.cls-38{fill:#fdfdfd;}.cls-39{fill:url(#linear-gradient-31);}.cls-40{fill:url(#linear-gradient-32);}.cls-41{fill:#231f20;opacity:0.2;isolation:isolate;}.cls-42{fill:#fdfbfc;}.cls-43{fill:url(#linear-gradient-33);}.cls-44{fill:url(#linear-gradient-34);}.cls-45{fill:url(#radial-gradient-8);}.cls-46{fill:url(#linear-gradient-35);}.cls-47{fill:#b11618;}.cls-48{fill:url(#linear-gradient-36);}</style><linearGradient id="linear-gradient" x1="63.35" y1="-282.15" x2="464.59" y2="-282.15" gradientTransform="translate(69.69 512.53) rotate(-16.59)" gradientUnits="userSpaceOnUse"><stop offset="0" stop-color="#600b0f"/><stop offset="0.05" stop-color="#681311"/><stop offset="0.13" stop-color="#7f2917"/><stop offset="0.23" stop-color="#a34d20"/><stop offset="0.33" stop-color="#cd762b"/><stop offset="0.4" stop-color="#bb6526"/><stop offset="0.55" stop-color="#8b381a"/><stop offset="0.65" stop-color="#651411"/><stop offset="0.69" stop-color="#6b1b14"/><stop offset="0.76" stop-color="#7a2e1c"/><stop offset="0.83" stop-color="#934e2a"/><stop offset="0.92" stop-color="#b67a3c"/><stop offset="1" stop-color="#dba950"/></linearGradient><linearGradient id="linear-gradient-2" x1="319.12" y1="-104.81" x2="319.12" y2="-372.74" gradientTransform="translate(69.69 512.53) rotate(-16.59)" gradientUnits="userSpaceOnUse"><stop offset="0.32" stop-color="#d39c42"/><stop offset="0.35" stop-color="#cb9640"/><stop offset="0.4" stop-color="#b4853b"/><stop offset="0.46" stop-color="#8f6a32"/><stop offset="0.52" stop-color="#5c4525"/><stop offset="0.6" stop-color="#1b1616"/><stop offset="0.61" stop-color="#151114"/><stop offset="0.94" stop-color="#691411"/></linearGradient><linearGradient id="linear-gradient-3" x1="105.67" y1="-205.64" x2="414.35" y2="-205.64" gradientTransform="translate(69.69 512.53) rotate(-16.59)" gradientUnits="userSpaceOnUse"><stop offset="0.32" stop-color="#d39c42"/><stop offset="0.35" stop-color="#d6a24a"/><stop offset="0.41" stop-color="#dcb161"/><stop offset="0.49" stop-color="#e8ca86"/><stop offset="0.57" stop-color="#f7edb8"/><stop offset="0.61" stop-color="#fefcce"/><stop offset="0.94" stop-color="#bc7d2e"/></linearGradient><radialGradient id="radial-gradient" cx="218.61" cy="-249.34" r="206.02" gradientTransform="translate(69.69 512.53) rotate(-16.59)" gradientUnits="userSpaceOnUse"><stop offset="0.37" stop-color="#fefdfe"/><stop offset="0.47" stop-color="#fbfafa"/><stop offset="0.56" stop-color="#f0eff0"/><stop offset="0.65" stop-color="#deddde"/><stop offset="0.73" stop-color="#c5c3c4"/><stop offset="0.81" stop-color="#a5a3a3"/><stop offset="0.89" stop-color="#7d7b7b"/><stop offset="0.91" stop-color="#757373"/></radialGradient><radialGradient id="radial-gradient-2" cx="137.12" cy="-208.4" r="18.01" gradientTransform="matrix(0.96, -0.29, 0.31, 1.04, 64.34, 494.58)" gradientUnits="userSpaceOnUse"><stop offset="0.37" stop-color="#7c8186"/><stop offset="0.48" stop-color="#797e82"/><stop offset="0.58" stop-color="#6e7378"/><stop offset="0.68" stop-color="#5d6166"/><stop offset="0.77" stop-color="#45494c"/><stop offset="0.85" stop-color="#26292c"/><stop offset="0.91" stop-color="#101315"/></radialGradient><linearGradient id="linear-gradient-4" x1="111.02" y1="-232.44" x2="132.03" y2="-232.44" gradientTransform="translate(69.69 512.53) rotate(-16.59)" gradientUnits="userSpaceOnUse"><stop offset="0.5" stop-color="#151314"/><stop offset="0.52" stop-color="#181617"/><stop offset="0.69" stop-color="#353334"/><stop offset="0.83" stop-color="#474545"/><stop offset="0.94" stop-color="#4d4b4b"/></linearGradient><linearGradient id="linear-gradient-5" x1="384.22" y1="-212.48" x2="408.97" y2="-212.48" xlink:href="#linear-gradient-3"/><linearGradient id="linear-gradient-6" x1="360.95" y1="-298.62" x2="366.98" y2="-298.62" xlink:href="#linear-gradient-3"/><linearGradient id="linear-gradient-7" x1="267.07" y1="-62.13" x2="286.21" y2="-62.13" xlink:href="#linear-gradient-3"/><linearGradient id="linear-gradient-8" x1="181.96" y1="-120.22" x2="193.28" y2="-120.22" xlink:href="#linear-gradient-3"/><linearGradient id="linear-gradient-9" x1="248.15" y1="-119.48" x2="292.94" y2="-119.48" xlink:href="#linear-gradient-3"/><linearGradient id="linear-gradient-10" x1="342.04" y1="-159.76" x2="355.03" y2="-159.76" xlink:href="#linear-gradient-3"/><linearGradient id="linear-gradient-11" x1="258.88" y1="-212.82" x2="318.6" y2="-212.82" xlink:href="#linear-gradient-3"/><linearGradient id="linear-gradient-12" x1="128.98" y1="-202.08" x2="170.32" y2="-202.08" xlink:href="#linear-gradient-3"/><linearGradient id="linear-gradient-13" x1="133.92" y1="-292.41" x2="179.48" y2="-292.41" xlink:href="#linear-gradient-3"/><linearGradient id="linear-gradient-14" x1="210.58" y1="-266.68" x2="219.71" y2="-266.68" xlink:href="#linear-gradient-3"/><linearGradient id="linear-gradient-15" x1="267.69" y1="-302.58" x2="324.56" y2="-302.58" xlink:href="#linear-gradient-3"/><linearGradient id="linear-gradient-16" x1="166.81" y1="267.13" x2="262.51" y2="267.13" gradientTransform="translate(-58.82 81.27) rotate(-16.59)" xlink:href="#linear-gradient-3"/><linearGradient id="linear-gradient-17" x1="314.62" y1="211.39" x2="387.76" y2="211.39" gradientTransform="translate(-58.82 81.27) rotate(-16.59)" xlink:href="#linear-gradient-3"/><linearGradient id="linear-gradient-18" x1="280.76" y1="-95.8" x2="365.18" y2="-95.8" xlink:href="#linear-gradient-3"/><linearGradient id="linear-gradient-19" x1="140.68" y1="-91.74" x2="205.02" y2="-91.74" xlink:href="#linear-gradient-3"/><linearGradient id="linear-gradient-20" x1="111.42" y1="-232.41" x2="138.03" y2="-232.41" xlink:href="#linear-gradient-3"/><linearGradient id="linear-gradient-21" x1="174.63" y1="-325.8" x2="271.4" y2="-325.8" xlink:href="#linear-gradient-3"/><radialGradient id="radial-gradient-3" cx="225.31" cy="-204.42" r="34.11" gradientTransform="translate(69.69 512.53) rotate(-16.59)" xlink:href="#radial-gradient-2"/><radialGradient id="radial-gradient-4" cx="323.43" cy="-95.11" r="35.13" gradientTransform="translate(69.69 512.53) rotate(-16.59)" xlink:href="#radial-gradient-2"/><radialGradient id="radial-gradient-5" cx="333.79" cy="-251.59" r="29.14" gradientTransform="translate(69.69 512.53) rotate(-16.59)" xlink:href="#radial-gradient-2"/><linearGradient id="linear-gradient-22" x1="320.41" y1="-238.94" x2="385.34" y2="-238.94" gradientTransform="translate(69.69 512.53) rotate(-16.59)" gradientUnits="userSpaceOnUse"><stop offset="0.06" stop-color="#2f2f2f"/><stop offset="0.23" stop-color="#292929"/><stop offset="0.46" stop-color="#191718"/><stop offset="0.5" stop-color="#151314"/></linearGradient><radialGradient id="radial-gradient-6" cx="228.76" cy="-323.43" r="32.38" gradientTransform="translate(69.69 512.53) rotate(-16.59)" xlink:href="#radial-gradient-2"/><linearGradient id="linear-gradient-23" x1="223.59" y1="-302.56" x2="223.59" y2="-354.6" gradientTransform="translate(69.69 512.53) rotate(-16.59)" gradientUnits="userSpaceOnUse"><stop offset="0.06" stop-color="#4d4b4b"/><stop offset="0.17" stop-color="#474545"/><stop offset="0.32" stop-color="#353334"/><stop offset="0.48" stop-color="#181617"/><stop offset="0.5" stop-color="#151314"/></linearGradient><radialGradient id="radial-gradient-7" cx="171.83" cy="-91.28" r="25.98" gradientTransform="translate(69.69 512.53) rotate(-16.59)" xlink:href="#radial-gradient-2"/><linearGradient id="linear-gradient-24" x1="236.39" y1="-212.66" x2="190.21" y2="-132.68" xlink:href="#linear-gradient-23"/><linearGradient id="linear-gradient-25" x1="336.24" y1="-72.62" x2="301.6" y2="-107.25" xlink:href="#linear-gradient-23"/><linearGradient id="linear-gradient-26" x1="144.76" y1="-90.98" x2="196.76" y2="-90.98" xlink:href="#linear-gradient-23"/><linearGradient id="linear-gradient-27" x1="7.23" y1="-163.2" x2="491.28" y2="-163.2" xlink:href="#linear-gradient-3"/><linearGradient id="linear-gradient-28" x1="7.23" y1="-163.2" x2="491.28" y2="-163.2" gradientTransform="translate(69.69 512.53) rotate(-16.59)" gradientUnits="userSpaceOnUse"><stop offset="0.06" stop-color="#bc7d2e"/><stop offset="0.39" stop-color="#fefcce"/><stop offset="0.43" stop-color="#f7edb8"/><stop offset="0.51" stop-color="#e8ca86"/><stop offset="0.58" stop-color="#dcb161"/><stop offset="0.65" stop-color="#d6a24a"/><stop offset="0.68" stop-color="#d39c42"/></linearGradient><linearGradient id="linear-gradient-29" x1="286.59" y1="27.35" x2="286.59" y2="-368.7" gradientTransform="translate(69.69 512.53) rotate(-16.59)" gradientUnits="userSpaceOnUse"><stop offset="0" stop-color="#013524"/><stop offset="0.21" stop-color="#006b3e"/><stop offset="0.68" stop-color="#01261d"/></linearGradient><linearGradient id="linear-gradient-30" x1="65.8" y1="-235.68" x2="176.86" y2="-43.32" gradientTransform="translate(69.69 512.53) rotate(-16.59)" gradientUnits="userSpaceOnUse"><stop offset="0" stop-color="#0c1c2e"/><stop offset="0.13" stop-color="#0a2a4e"/><stop offset="0.28" stop-color="#08366b"/><stop offset="0.41" stop-color="#073e7e"/><stop offset="0.5" stop-color="#074184"/><stop offset="0.7" stop-color="#083467"/><stop offset="1" stop-color="#0a1f36"/></linearGradient><linearGradient id="linear-gradient-31" x1="400.28" y1="-436.02" x2="21.45" y2="-210.79" xlink:href="#linear-gradient-3"/><linearGradient id="linear-gradient-32" x1="57.35" y1="-216.62" x2="358.57" y2="-423.06" gradientTransform="translate(69.69 512.53) rotate(-16.59)" gradientUnits="userSpaceOnUse"><stop offset="0" stop-color="#8d0506"/><stop offset="0.12" stop-color="#ae1916"/><stop offset="0.26" stop-color="#d22e28"/><stop offset="0.41" stop-color="#ee4734"/><stop offset="0.63" stop-color="#d61e16"/><stop offset="0.78" stop-color="#c40000"/><stop offset="0.97" stop-color="#9c1f14"/></linearGradient><linearGradient id="linear-gradient-33" x1="94.04" y1="56.86" x2="187.44" y2="56.86" gradientTransform="translate(-58.82 81.27) rotate(-16.59)" xlink:href="#linear-gradient-3"/><linearGradient id="linear-gradient-34" x1="67.3" y1="376.79" x2="113.08" y2="297.49" gradientTransform="translate(-58.82 81.27) rotate(-16.59)" xlink:href="#linear-gradient-3"/><radialGradient id="radial-gradient-8" cx="289.9" cy="-971.8" r="53.43" gradientTransform="translate(-164.73 542.01) scale(1.18 0.45)" gradientUnits="userSpaceOnUse"><stop offset="0" stop-color="#ffea6a" stop-opacity="0.5"/><stop offset="0.17" stop-color="#ffea6a" stop-opacity="0.42"/><stop offset="0.5" stop-color="#ffea6a" stop-opacity="0.22"/><stop offset="0.82" stop-color="#ffea6a" stop-opacity="0"/></radialGradient><linearGradient id="linear-gradient-35" x1="311.93" y1="338.79" x2="311.93" y2="427.61" gradientTransform="matrix(-0.17, 0.89, -0.92, -0.18, 799.35, 185.58)" gradientUnits="userSpaceOnUse"><stop offset="0.41" stop-color="#fefdfe"/><stop offset="1" stop-color="#a9a7a8"/></linearGradient><linearGradient id="linear-gradient-36" x1="312.97" y1="365.7" x2="312.97" y2="411.45" gradientTransform="matrix(-0.17, 0.89, -0.92, -0.18, 800.83, 189.43)" xlink:href="#linear-gradient-35"/></defs><title>Asset 1nexus</title><g id="Layer_2" data-name="Layer 2"><g id="Layer_1-2" data-name="Layer 1"><g id="Layer_1-2-2" data-name="Layer 1-2"><path class="cls-1" d="M288.89,19.89,124.72,48.06,106.87,81.72a150.16,150.16,0,0,0-29.34,29.71C66.74,126.13,44.16,156.09,45.75,197l-2.56,4.82,9.43,31.63.2.05c10.1,28.07,28.86,45.81,44.57,52.16,67,27.14,108.25,32.18,135.26,37.6.59-.67,2.77-2.52,1.51-3.18l-10.73-36L137.66,245.3a72.39,72.39,0,0,1-10.38-33.75c-1.4-29.21,18.28-43.52,24.41-50.78C254.61,32.33,435.38,112.9,435.38,112.9l-7.53-25.28C408.47,73.57,378.14,46.34,343.33,34A320.65,320.65,0,0,0,288.89,19.89Z"/><path class="cls-2" d="M407.73,103.45,297.13,60h0c-22,6.55-27.06,35.26-8.79,49.09,46.51,35.13,100.46,101.33,55.12,203.64-12.4,28-31.23,52.75-55.74,71.16q-2.43,1.86-5,3.64L246.5,457.52s141-77.41,141.62-79.4,64.76-166.24,64.76-166.24Z"/><path class="cls-3" d="M216.06,93.3a154.35,154.35,0,1,0,117.5,12.15A154.32,154.32,0,0,0,216.06,93.3Z"/><circle class="cls-4" cx="260.14" cy="241.21" r="148.98"/><path class="cls-5" d="M120.87,294.12l13.18-21.05a194.66,194.66,0,0,1-12.06-58l-9.24,4.45a148.44,148.44,0,0,0,4.65,64.26Q118.93,289,120.87,294.12Z"/><path class="cls-6" d="M119.46,289.59,131,271.18a170.15,170.15,0,0,1-10.57-50.73l-8.09,3.9a130,130,0,0,0,4.07,56.17Q117.78,285.16,119.46,289.59Z"/><path class="cls-7" d="M393.11,192.81a47.37,47.37,0,0,0-17.71-5.16,1.14,1.14,0,0,0-1.18,1.08,1.12,1.12,0,0,0,1,1.17h0a45.17,45.17,0,0,1,16.87,4.92,97.72,97.72,0,0,1,12.12,8.46c-.35-1.2-.65-2.43-1-3.64A82.21,82.21,0,0,0,393.11,192.81Z"/><path class="cls-8" d="M339.76,136.76a63.9,63.9,0,0,0-3-12.94c-1.23-3.51-4.28-9.21-7.37-14.5-1.24-.67-2.47-1.29-3.75-1.91,3.58,6,7.6,13.17,9,17.15A60.08,60.08,0,0,1,337.52,137a1.14,1.14,0,0,0,1.26,1L339,138A1.13,1.13,0,0,0,339.76,136.76Z"/><path class="cls-9" d="M322.21,367.16a156.15,156.15,0,0,1-12.8,14.64c2.48-.86,4.9-1.78,7.3-2.76,4.93-5.46,7.92-9.46,8.22-9.87a1.69,1.69,0,0,0-2.69-2Z"/><path class="cls-10" d="M214.36,356.9a.76.76,0,0,1-.2.06,1.12,1.12,0,0,1-1.24-1h0a63.37,63.37,0,0,1,2.28-24.68,1.13,1.13,0,0,1,2.16.64h0a60.79,60.79,0,0,0-2.19,23.8A1.14,1.14,0,0,1,214.36,356.9Z"/><path class="cls-11" d="M321,334.1a1.23,1.23,0,0,1-.66,0,209.65,209.65,0,0,1-52-24.72,1.13,1.13,0,0,1,1.23-1.88A207.13,207.13,0,0,0,321,332a1.13,1.13,0,0,1,.73,1.42,1.14,1.14,0,0,1-.75.73Z"/><path class="cls-12" d="M362.91,294.82a1,1,0,0,1-.29.09,1.13,1.13,0,0,1-1.16-1.1h0a323.8,323.8,0,0,0-3.1-36.92c-1.45-10.23-3.41-20.51-5.86-30.6a1.15,1.15,0,0,1,.84-1.36,1.12,1.12,0,0,1,1.35.81v0h0c2.45,10.12,4.43,20.47,5.89,30.77a329.08,329.08,0,0,1,3.14,37.23A1.13,1.13,0,0,1,362.91,294.82Z"/><path class="cls-13" d="M262.28,248.42a1.12,1.12,0,0,1-1.39-.76h0a1.12,1.12,0,0,1,.33-1.14L308.54,204a1.13,1.13,0,0,1,1.53,1.63l-47.33,42.5A1.33,1.33,0,0,1,262.28,248.42Z"/><path class="cls-14" d="M177,280.23l-.26.08a113.82,113.82,0,0,1-43-6.16,1.13,1.13,0,0,1-.62-1.48,1.15,1.15,0,0,1,1.36-.66,111.61,111.61,0,0,0,42.19,6.05,1.13,1.13,0,0,1,.38,2.2Z"/><path class="cls-15" d="M122.28,216.14a1.12,1.12,0,0,1-1.4-.75h0a1.06,1.06,0,0,1,0-.68,204.93,204.93,0,0,1,29-55.29,1.13,1.13,0,0,1,1.9,1.23.44.44,0,0,1-.08.11A203.19,203.19,0,0,0,123,215.43,1.08,1.08,0,0,1,122.28,216.14Z"/><path class="cls-16" d="M206.15,229.14h0a1.11,1.11,0,0,1-1.36-.78v0c-2.71-10.52-5.11-21.28-7.13-32-2.07-11-3.8-22.25-5.13-33.38a1.13,1.13,0,0,1,2.23-.27c1.32,11.08,3.05,22.27,5.12,33.23,2,10.64,4.39,21.34,7.08,31.81A1.12,1.12,0,0,1,206.15,229.14Z"/><path class="cls-17" d="M299.11,149.85a1.11,1.11,0,0,1-.82-.06,246.62,246.62,0,0,0-63.15-21.4,1.13,1.13,0,0,1,.06-2.26.87.87,0,0,1,.32.06,249.49,249.49,0,0,1,63.82,21.56,1.13,1.13,0,0,1,.5,1.51A1.09,1.09,0,0,1,299.11,149.85Z"/><path class="cls-18" d="M205.84,228.11,262,247.38l7,61.05S252.19,321,223.49,329.57c-2.32.7-4.73,1.36-7.22,2-3.73.95-26.61-23.51-39.62-52.43,0,0,14-31,29.17-51.09m-.8-2.66-1,1.33c-15.18,20.1-29.28,51.21-29.42,51.55l-.41.93.41.92c13.07,29,39.09,52.21,40.18,53.19l.89.78,1.14-.34c2.44-.63,4.9-1.31,7.32-2,28.75-8.56,45.47-21,46.17-21.5l1-.77-.14-1.29-7-61.09-.16-1.41-1.35-.47-56.14-19.27-1.56-.57Z"/><path class="cls-19" d="M312.45,143.46c11.81-3.52,26.21-6.57,26.21-6.57,20.39,18.73,36.66,51.87,36.66,51.87-2,9.39-21.69,37.26-21.69,37.26l-44.32-21.23c2.44-7.93-10.51-56.07-10.51-56.07,2.5-1.67,7.76-3.55,13.67-5.31m-.65-2.15c-7.16,2.13-11.84,4-14.27,5.6l-1.34.9.46,1.54c4.93,18.36,12.16,49.5,10.52,54.82l-.56,1.85,1.75.84L352.7,228l1.71.81,1-1.49c.82-1.15,20-28.35,22-38.09l.16-.75-.34-.7c-.67-1.37-16.7-33.74-37.17-52.58l-.86-.79-1.13.25c-.14,0-14.61,3.1-26.37,6.6Z"/><path class="cls-20" d="M363.83,291.87,362,290.62l-1.25,1.89c-.2.3-20.25,30.38-40.83,38.42l-1.93.75.59,2c.06.2,6.1,20.45,2.82,34l-.83,3.51,3.5-.78,16.36-3.6c1.75-1.11,3.44-2.26,5.13-3.44l-22,4.84C327,353.89,320.67,333,320.67,333c21.49-8.4,41.89-39.28,41.89-39.28l24.94,16.57L383,325.59c1.52-2.22,3-4.47,4.38-6.76l2.38-7.88.48-1.6-1.39-.93Z"/><path class="cls-21" d="M243.91,387.36A91.47,91.47,0,0,1,216,354.81l-.8-1.57-1.72.4c-6,1.42-12,2.68-18.07,3.76-7.15,1.29-14.45,2.35-21.68,3.16l-2.45.28,2.67,2c6.92-.78,14.21-1.82,21.83-3.18q9.56-1.72,18.19-3.78a93.73,93.73,0,0,0,28.55,33.35c1.49.18,3,.34,4.49.47Z"/><path class="cls-22" d="M121,213l-7.83,3.78c-.16.89-.29,1.8-.42,2.69l9.23-4.44A194.73,194.73,0,0,0,134,273l-13.15,21.09q.5,1.31,1,2.61l.89-1.41,13.18-21,.59-.95-.39-1A192.13,192.13,0,0,1,124.24,215l-.18-3.39Z"/><path class="cls-23" d="M237.41,126.29a157,157,0,0,1-7.74-19.37c-1.16-3.56-2.16-7.23-3.08-10.86-.72.22-1.47.34-2.19.52.86,3.52,1.89,7.21,3.13,11a157.83,157.83,0,0,0,7.86,19.65c-9.81,3.32-41.79,35.61-41.79,35.61-18.21-3.4-42.83-2.8-42.83-2.8l10.48-30.33,1-.88h0c-1.53,1.33-3,2.68-4.51,4.07l-9.12,26.41-1.06,3.07,3.25-.09c.24,0,24.59-.56,42.35,2.77l1.18.21.8-.83c8.83-8.89,33.27-32.47,40.91-35.06l2.41-.81Z"/><path class="cls-24" d="M176.66,279.16s14-31,29.17-51.09L262,247.34l7,61.09s-19.61,14.72-52.69,23.14C216.28,331.59,189.67,308.06,176.66,279.16Z"/><path class="cls-25" d="M320.69,333s6.29,20.86,2.88,35.14l22-4.84A148.81,148.81,0,0,0,383,325.59l4.57-15.24L362.6,293.78S342.18,324.62,320.69,333Z"/><path class="cls-26" d="M353.6,226s19.69-27.86,21.7-37.25c0,0-16.28-33.15-36.66-51.87,0,0-32.4,6.84-39.85,11.87,0,0,12.93,48.14,10.51,56.07Z"/><path class="cls-27" d="M354.34,223.77s18.85-26.67,20.76-35.65c0,0-15.58-31.73-35.08-49.65,0,0-31,6.55-38.14,11.36,0,0,12.38,46.08,10.05,53.66Z"/><path class="cls-28" d="M161.25,129.75l-10.48,30.33s24.63-.6,42.84,2.8c0,0,32-32.29,41.78-35.61a157.83,157.83,0,0,1-7.86-19.65c-1.23-3.81-2.24-7.53-3.13-11-1.66.41-4,1-6.76,1.84A148.22,148.22,0,0,0,161.25,129.75Z"/><path class="cls-29" d="M162.35,128.67l-9.93,28.75s23.34-.58,40.61,2.65c0,0,30.32-30.61,39.64-33.72a150.12,150.12,0,0,1-7.46-18.65c-1.17-3.63-2.12-7.14-3-10.46-1.56.38-3.79,1-6.45,1.75A140.81,140.81,0,0,0,162.35,128.67Z"/><path class="cls-30" d="M214,355.83q-8.62,2-18.19,3.78C188.22,361,180.9,362,174,362.79a149.55,149.55,0,0,0,68.56,26.39A93.71,93.71,0,0,1,214,355.83Z"/><path class="cls-31" d="M179.05,282.32s13.12-29.1,27.43-48l52.76,18.11,6.57,57.43s-18.42,13.83-49.52,21.74C216.28,331.6,191.28,309.5,179.05,282.32Z"/><path class="cls-32" d="M322.42,334.12s6,20,2.72,33.63l21-4.63A142.44,142.44,0,0,0,382,326.91l4.38-14.57-23.86-15.85S343,326.07,322.42,334.12Z"/><path class="cls-33" d="M176.66,364.61a149.67,149.67,0,0,0,61.39,23.94,89,89,0,0,1-25.28-30.34c-5.47,1.29-11.25,2.52-17.32,3.6C188.9,363,182.64,363.9,176.66,364.61Z"/><path class="cls-34" d="M20.08,277.74a1.11,1.11,0,0,0-1.56-.18h0a1.11,1.11,0,0,0-.42.87C18,308.6,25.84,489.5,236,491.53c229.23,2.22,271.35-198.72,263-249S465.05,73.26,297.13,60c0,0,166.8,74.17,107.76,234.43-10.57,28.72-31.23,52.74-55.73,71.17-25.33,19-53.27,32.12-86.39,11.89-63.63-38.9-108.88-75.15-135.76-69.24C87.54,317,31.45,292.53,20.08,277.74Z"/><path class="cls-35" d="M297.13,60s.43.18,1.21.56c163.61,14,188.56,130.59,196.8,180,8.3,49.7-33.29,248-259.61,245.83C32.75,484.4,20.77,313.69,20.47,278.21l-.38-.47a1.11,1.11,0,0,0-1.56-.19,1.07,1.07,0,0,0-.42.88C18,308.6,25.84,489.5,236,491.53c229.23,2.22,271.35-198.72,263-249S465.05,73.26,297.13,60Z"/><path class="cls-36" d="M297.13,60c64.75,24,114.1,73.29,128.76,138,25.22,111.11-61.5,225.5-193.71,255.5a287.1,287.1,0,0,1-81.57,6.64c44.86,18.35,97.31,23.43,150.32,11.4C426.73,443,508.06,328.75,482.57,216.37,463.16,130.91,387.56,71.16,297.13,60Z"/><path class="cls-37" d="M119.84,308.28c-52,5.27-96.83-27.6-97.55-28.13h0A188.39,188.39,0,0,0,60.15,391.42c18.69,24.85,45.42,42.67,75.83,49.15,98.71,21,195.83-52,195.83-52C261.9,422.93,172.25,303,119.84,308.28Z"/><polygon class="cls-38" points="103.43 360.09 101.92 330.85 130.96 355.83 157.38 353.92 144.46 373.96 164.81 403 132.37 391.07 114.4 418.02 103.56 381.65 78.64 367.48 103.43 360.09"/><path class="cls-39" d="M205.12,318.66c-29.67-6-33.92-3-112.87-28.36C68.61,282.73,3,250.53.12,185.38c-2.06-47.79,22.25-82.64,34.58-99.31C61.65,49.49,102.62,27.38,154.21,9.88c87.18-29.58,227.47,10.47,273.6,77.75C374.19,59.28,327.39,54.73,302,54.22c-6.72-.08-130.27-.94-189.07,77.75-9.2,12.3-25,34.64-23.56,64.06.92,19.55,8.91,35.08,19,48.29,9.79,12.85,24.75,27.3,38.58,35.66,34.61,20.91,51,30.09,59.85,35.25C208.14,316,205.78,317.92,205.12,318.66Z"/><path class="cls-40" d="M128.39,273.57C93.86,251.28,34,174.1,135.27,94.41,201.46,42.34,284.34,43.16,333.86,50A220.87,220.87,0,0,1,411,75.7c1,.57,1.58.89,1.58.89s-20.48-23.65-82-47.56a207.16,207.16,0,0,0-26.37-9.38h0c-35-9.89-75.6-12.06-117.52-4.53C76.29,34.94-1.8,114.49,12.24,192.79c8.86,49.14,51.94,86.12,110.11,101.94h0l.44.11q3.54.95,7.15,1.8l67.08,17L178.11,303S163,295.84,128.39,273.57Z"/><path class="cls-41" d="M119.69,54.21l-1.34,1.62-8,9.61-2.46-1.51-1.27-.76-.42,1.41c-2.2,7.42-5.08,14-6.37,14.85-1.3-.85-3.71-7.78-5.44-15.41l-.46-2-1.46,1.48a55.26,55.26,0,0,0-6.27,8.61L74.88,68.73l-1.28-.37-.17,1.31-2,16.55-7.2,3.83-2,1,2,1a27.17,27.17,0,0,1,10.53,8.62L60.4,105l.41,1.13,1.33,3.63-10.22,9.63-1,.93,1.1.8,9.18,6.65-2.39,4.79L57.58,135l2.61-.9L84,125.85v10.08l2-2.87,14.7-20.71,5,7.37.78,1.15,1-1,3.66-3.81.65-.67-.54-.76-5.09-7.27,20.39-14.42,1.72-1.23-2-.73-5.91-2.13,10.4-22.69.94-2-2.16.48L123.2,66l-3.5-11.75Z"/><path class="cls-42" d="M100.09,108.22l-15.61,22v-8.09L59.2,130.94l2.83-5.7-10-7.23,10.79-10.07-1.58-4.33,14.6-4.35s-3-6-11.76-10.29l7.79-4.17L74,67.67l12.16,3.58a60.46,60.46,0,0,1,6.57-9.16S96.55,79,99.38,78.41s7.32-15.69,7.32-15.69l3.31,2,8.61-10.37,3.2,10.76,7.33-1.59-11,23.81,7,2.56-21.24,15,5.73,8.18-3.66,3.81Z"/><path class="cls-43" d="M118.58,54.38l3.2,10.76,7.32-1.59-10.91,23.8,7,2.56-21.24,15,5.73,8.18-3.66,3.81-5.92-8.67-15.65,22v-8.09L59.2,130.94l2.83-5.7-10-7.23,10.79-10.07-1.58-4.33,14.6-4.35s-3-6-11.76-10.29l7.79-4.17L74,67.67l12.16,3.58a60.46,60.46,0,0,1,6.57-9.16S96.55,79,99.38,78.41l.09,0c2.88-.86,7.23-15.66,7.23-15.66l3.31,2,8.61-10.36m.47-2.33-1.34,1.62-8,9.61-2.46-1.51L106,61l-.42,1.4c-2.21,7.41-5.08,14-6.37,14.85-1.3-.85-3.71-7.78-5.44-15.41l-.47-2.05-1.44,1.53a56.38,56.38,0,0,0-6.28,8.6L74.28,66.6,73,66.23l-.16,1.31-2,16.55-7.21,3.83-2,1,2,1a27.24,27.24,0,0,1,10.53,8.62L59.8,102.83l.41,1.13,1.34,3.63-10.27,9.6-1,.93,1.1.8,9.18,6.65-2.39,4.8L57,132.85l2.61-.9,23.76-8.21v10l2.05-2.88,14.69-20.71,5,7.37.78,1.16,1-1,3.67-3.81.64-.66-.55-.75-5.1-7.27L125.9,90.8l1.72-1.23-2-.73-5.91-2.14L130.08,64l.93-2-2.13.48-6.32,1.36-3.5-11.76Z"/><path class="cls-44" d="M101.92,330.85l29,25,26.44-1.92L144.49,374l20.36,29-32.44-11.93-18,26.95-10.84-36.37L78.67,367.47l24.76-7.38-1.51-29.24m-2.57-5.12.27,5.25,1.47,27.47-28.15,8.39,4.59,2.61,24.12,13.68,11.94,40.1,2.68-4,17-25.48L164,405.08l6.74,2.49-4.12-5.89-19.46-27.75,12.13-18.79,2.43-3.81-4.5.3-25.54,1.86-28.33-24.34-4-3.44Z"/><ellipse class="cls-45" cx="176.71" cy="102.77" rx="83.87" ry="28.85" transform="translate(-27.67 98.71) rotate(-29.04)"/><ellipse class="cls-46" cx="393.16" cy="394.1" rx="41.89" ry="24.87" transform="translate(-162.17 355.31) rotate(-41.07)"/><ellipse class="cls-47" cx="392.32" cy="394.9" rx="33.02" ry="18.09" transform="translate(-162.95 355.73) rotate(-41.15)"/><ellipse class="cls-48" cx="389.02" cy="397.81" rx="21.6" ry="11.84" transform="translate(-165.68 354.29) rotate(-41.15)"/></g></g></g></svg>