<svg width="80" height="43" viewBox="0 0 80 43" fill="none" xmlns="http://www.w3.org/2000/svg">
<path d="M76 2.72217H4C1.79086 2.72217 0 4.51303 0 6.72217V38.7222C0 40.9313 1.79086 42.7222 4 42.7222H76C78.2091 42.7222 80 40.9313 80 38.7222V6.72217C80 4.51303 78.2091 2.72217 76 2.72217Z" fill="#181818"/>
<mask id="mask0_349_4346" style="mask-type:luminance" maskUnits="userSpaceOnUse" x="8" y="13" width="64" height="19">
<path d="M71.6629 13.7334H8.6629V31.7461H71.6629V13.7334Z" fill="white"/>
</mask>
<g mask="url(#mask0_349_4346)">
<path fill-rule="evenodd" clip-rule="evenodd" d="M33.566 27.3954C34.7634 27.4811 36.1586 26.551 36.6501 26.0199C38.3587 24.1711 38.3999 21.4978 36.6798 19.5616C36.0399 18.8409 34.5358 18.0443 33.5842 18.1565H30.139V27.3838L33.5743 27.3954H33.566ZM32.0817 25.3965V20.1438C32.621 20.1084 33.162 20.1084 33.7013 20.1438C34.1256 20.193 34.5303 20.3496 34.8772 20.5989C36.8562 21.9513 36.0316 25.1755 33.6683 25.3916C33.1402 25.4287 32.6101 25.4303 32.0817 25.3965Z" fill="#7A7A7A"/>
<path fill-rule="evenodd" clip-rule="evenodd" d="M63.8112 27.412H65.7754V25.4231H69.6725L69.6841 27.4021H71.6483V24.1235C71.6483 23.1339 71.7307 21.9003 71.4834 21.0048C71.2587 20.185 70.772 19.4611 70.0975 18.9437C69.4231 18.4263 68.5979 18.1437 67.7479 18.139C66.8978 18.1344 66.0696 18.4079 65.3895 18.9179C64.7094 19.4278 64.2148 20.1463 63.9811 20.9636C63.7172 21.8476 63.8063 23.1158 63.8063 24.0971C63.8063 25.2054 63.7947 26.3202 63.8063 27.4285L63.8112 27.412ZM65.7771 23.4226C65.7655 22.5979 65.6781 21.7156 66.0657 21.0807C66.2358 20.7883 66.4803 20.5463 66.7744 20.3791C67.0684 20.212 67.4014 20.1257 67.7396 20.1291C68.0761 20.1316 68.4062 20.2213 68.6976 20.3895C68.9889 20.5578 69.2317 20.7988 69.4021 21.0889C69.7847 21.7486 69.694 22.5732 69.6841 23.4242L65.7771 23.4226Z" fill="#7A7A7A"/>
<path fill-rule="evenodd" clip-rule="evenodd" d="M41.3488 27.4102H43.3064C43.3064 26.9946 43.2536 25.7231 43.3246 25.4213H47.2068L47.22 27.4086H49.1809C49.171 26.3069 49.1809 25.2069 49.1809 24.1102C49.1809 23.1701 49.2683 21.8243 49.016 20.9898C48.7899 20.1711 48.3025 19.4486 47.6279 18.9324C46.9534 18.4162 46.1286 18.1345 45.2792 18.1302C44.4298 18.1259 43.6023 18.3992 42.9225 18.9086C42.2428 19.418 41.7481 20.1355 41.5137 20.9519C41.2515 21.8095 41.3406 23.1206 41.3406 24.0755C41.3406 25.1772 41.3158 26.3069 41.3406 27.4053L41.3488 27.4102ZM43.3081 23.4224C43.2949 22.5978 43.2108 21.704 43.5983 21.0822C43.7684 20.7906 44.0119 20.5487 44.3046 20.3806C44.5973 20.2125 44.929 20.124 45.2665 20.124C45.6041 20.124 45.9357 20.2125 46.2284 20.3806C46.5211 20.5487 46.7646 20.7906 46.9347 21.0822C47.319 21.7419 47.2266 22.5797 47.22 23.4191L43.3081 23.4224Z" fill="#7A7A7A"/>
<path fill-rule="evenodd" clip-rule="evenodd" d="M52.626 21.7601L52.598 23.1339C52.598 24.2884 52.5419 26.4439 52.598 27.3823H54.5177C54.5622 26.7226 54.4484 22.0372 54.5688 21.8871C54.5688 20.9767 55.5204 20.129 56.4802 20.1257C56.9792 20.1227 57.4596 20.3144 57.8194 20.6601C58.0635 20.8827 58.4378 21.3907 58.4312 21.9036C58.5203 21.9547 58.4494 26.8512 58.4774 27.3938H60.3988L60.3839 21.7947C60.4317 21.356 60.1679 20.6782 59.998 20.3352C59.683 19.6816 59.1913 19.1292 58.5785 18.7407C57.9657 18.3521 57.2564 18.1429 56.5309 18.1367C55.8053 18.1306 55.0925 18.3277 54.4732 18.7057C53.8539 19.0838 53.3529 19.6277 53.0268 20.2758C52.8619 20.6139 52.5848 21.3099 52.626 21.7601Z" fill="#7A7A7A"/>
<path d="M17.6693 31.7461C22.6433 31.7461 26.6756 27.7138 26.6756 22.7398C26.6756 17.7657 22.6433 13.7334 17.6693 13.7334C12.6952 13.7334 8.6629 17.7657 8.6629 22.7398C8.6629 27.7138 12.6952 31.7461 17.6693 31.7461Z" fill="#7A7A7A"/>
<path d="M22.9171 22.7777V25.3125C22.9171 25.4775 22.8462 25.5121 22.7077 25.4313C22.5224 25.3201 22.3295 25.222 22.1305 25.1377C21.5294 24.8983 20.8783 24.8116 20.2355 24.8854C19.5339 24.9764 18.8454 25.1491 18.1839 25.3999C17.5242 25.6226 16.8777 25.8634 16.2048 26.0497C15.6475 26.2152 15.0675 26.2915 14.4863 26.2757C13.8423 26.2507 13.2163 26.0555 12.6722 25.71C12.6038 25.6688 12.5478 25.6101 12.5098 25.5399C12.4718 25.4697 12.4533 25.3906 12.4562 25.3109C12.4562 23.6507 12.4562 21.9905 12.4562 20.3303C12.4562 20.2495 12.4562 20.1538 12.5287 20.1126C12.6013 20.0713 12.6755 20.139 12.7382 20.1802C13.329 20.5797 14.0288 20.7871 14.742 20.7739C15.2519 20.753 15.7562 20.6591 16.2395 20.4952C16.9255 20.2824 17.5885 20.0004 18.263 19.7613C18.7881 19.5595 19.3265 19.3942 19.8743 19.2665C20.3445 19.1564 20.8324 19.1449 21.3072 19.2326C21.7821 19.3203 22.2336 19.5053 22.6335 19.7761C22.7251 19.8323 22.8002 19.9119 22.8509 20.0066C22.9016 20.1014 22.9262 20.208 22.9221 20.3154C22.9221 21.14 22.9221 21.9646 22.9221 22.7892L22.9171 22.7777Z" fill="#181818"/>
</g>
<path d="M22.8593 0.581421V2.75538H20.5474L22.8593 0.581421Z" fill="#085200"/>
<path d="M57.1409 0.581665V2.75563H59.4528L57.1409 0.581665Z" fill="#085200"/>
<path d="M51.6548 10.03H28.3455C25.3156 10.03 22.8593 7.5738 22.8593 4.54386V0.581665H57.1409V4.54386C57.1409 7.57378 54.6847 10.03 51.6548 10.03Z" fill="url(#paint0_linear_349_4346)"/>
<path d="M33.9263 6.64296H32.1789L31.8988 7.46997H30.705L32.399 2.788H33.7196L35.4136 7.46997H34.2064L33.9263 6.64296ZM33.6329 5.76259L33.0526 4.04853L32.479 5.76259H33.6329ZM37.0497 2.788V5.58918C37.0497 5.8693 37.1186 6.08494 37.2564 6.23612C37.3943 6.38729 37.5966 6.46288 37.8633 6.46288C38.1301 6.46288 38.3347 6.38729 38.4769 6.23612C38.6192 6.08494 38.6904 5.8693 38.6904 5.58918V2.788H39.8308V5.58251C39.8308 6.00046 39.7419 6.35395 39.5641 6.64296C39.3862 6.93197 39.1461 7.14984 38.8438 7.29656C38.5459 7.44329 38.2124 7.51666 37.8433 7.51666C37.4743 7.51666 37.143 7.44552 36.8496 7.30323C36.5606 7.15651 36.3316 6.93864 36.1626 6.64963C35.9937 6.35617 35.9092 6.00046 35.9092 5.58251V2.788H37.0497ZM43.9998 2.788V3.70172H42.7593V7.46997H41.6188V3.70172H40.3783V2.788H43.9998ZM46.7864 7.51666C46.3462 7.51666 45.9416 7.41439 45.5726 7.20986C45.208 7.00533 44.9167 6.72077 44.6989 6.35617C44.4855 5.98712 44.3787 5.57362 44.3787 5.11565C44.3787 4.65768 44.4855 4.24639 44.6989 3.88179C44.9167 3.5172 45.208 3.23263 45.5726 3.0281C45.9416 2.82357 46.3462 2.72131 46.7864 2.72131C47.2266 2.72131 47.629 2.82357 47.9936 3.0281C48.3626 3.23263 48.6517 3.5172 48.8606 3.88179C49.0741 4.24639 49.1808 4.65768 49.1808 5.11565C49.1808 5.57362 49.0741 5.98712 48.8606 6.35617C48.6472 6.72077 48.3582 7.00533 47.9936 7.20986C47.629 7.41439 47.2266 7.51666 46.7864 7.51666ZM46.7864 6.47622C47.1599 6.47622 47.4578 6.35172 47.6801 6.10273C47.9069 5.85373 48.0203 5.52471 48.0203 5.11565C48.0203 4.70214 47.9069 4.37311 47.6801 4.12856C47.4578 3.87957 47.1599 3.75507 46.7864 3.75507C46.4085 3.75507 46.1061 3.87735 45.8794 4.12189C45.6571 4.36644 45.5459 4.69769 45.5459 5.11565C45.5459 5.52915 45.6571 5.8604 45.8794 6.1094C46.1061 6.35395 46.4085 6.47622 46.7864 6.47622Z" fill="white"/>
<defs>
<linearGradient id="paint0_linear_349_4346" x1="22.8593" y1="5.30585" x2="57.1409" y2="5.30585" gradientUnits="userSpaceOnUse">
<stop stop-color="#78A700"/>
<stop offset="1" stop-color="#216400"/>
</linearGradient>
</defs>
</svg>
