<svg width="80" height="43" viewBox="0 0 80 43" fill="none" xmlns="http://www.w3.org/2000/svg">
<path d="M76 2.22217H4C1.79086 2.22217 0 4.01303 0 6.22217V38.2222C0 40.4313 1.79086 42.2222 4 42.2222H76C78.2091 42.2222 80 40.4313 80 38.2222V6.22217C80 4.01303 78.2091 2.22217 76 2.22217Z" fill="#181818"/>
<path d="M22.8593 0.581421V2.75538H20.5474L22.8593 0.581421Z" fill="#085200"/>
<path d="M57.1409 0.581665V2.75563H59.4528L57.1409 0.581665Z" fill="#085200"/>
<path d="M51.6548 10.03H28.3455C25.3156 10.03 22.8593 7.5738 22.8593 4.54386V0.581665H57.141V4.54386C57.141 7.57378 54.6847 10.03 51.6548 10.03Z" fill="url(#paint0_linear_356_6951)"/>
<path d="M33.9263 6.64296H32.1789L31.8988 7.46997H30.705L32.399 2.788H33.7196L35.4136 7.46997H34.2064L33.9263 6.64296ZM33.6329 5.76259L33.0526 4.04853L32.479 5.76259H33.6329ZM37.0497 2.788V5.58918C37.0497 5.8693 37.1186 6.08494 37.2564 6.23612C37.3943 6.38729 37.5966 6.46288 37.8633 6.46288C38.1301 6.46288 38.3347 6.38729 38.4769 6.23612C38.6192 6.08494 38.6904 5.8693 38.6904 5.58918V2.788H39.8308V5.58251C39.8308 6.00046 39.7419 6.35395 39.5641 6.64296C39.3862 6.93197 39.1461 7.14984 38.8438 7.29656C38.5459 7.44329 38.2124 7.51666 37.8433 7.51666C37.4743 7.51666 37.143 7.44552 36.8496 7.30323C36.5606 7.15651 36.3316 6.93864 36.1626 6.64963C35.9937 6.35617 35.9092 6.00046 35.9092 5.58251V2.788H37.0497ZM43.9998 2.788V3.70172H42.7593V7.46997H41.6188V3.70172H40.3783V2.788H43.9998ZM46.7864 7.51666C46.3462 7.51666 45.9416 7.41439 45.5726 7.20986C45.208 7.00533 44.9167 6.72077 44.6989 6.35617C44.4855 5.98712 44.3787 5.57362 44.3787 5.11565C44.3787 4.65768 44.4855 4.24639 44.6989 3.88179C44.9167 3.5172 45.208 3.23263 45.5726 3.0281C45.9416 2.82357 46.3462 2.72131 46.7864 2.72131C47.2266 2.72131 47.629 2.82357 47.9936 3.0281C48.3626 3.23263 48.6517 3.5172 48.8606 3.88179C49.0741 4.24639 49.1808 4.65768 49.1808 5.11565C49.1808 5.57362 49.0741 5.98712 48.8606 6.35617C48.6472 6.72077 48.3582 7.00533 47.9936 7.20986C47.629 7.41439 47.2266 7.51666 46.7864 7.51666ZM46.7864 6.47622C47.1599 6.47622 47.4578 6.35172 47.6801 6.10273C47.9069 5.85373 48.0203 5.52471 48.0203 5.11565C48.0203 4.70214 47.9069 4.37311 47.6801 4.12856C47.4578 3.87957 47.1599 3.75507 46.7864 3.75507C46.4085 3.75507 46.1061 3.87735 45.8794 4.12189C45.6571 4.36644 45.5459 4.69769 45.5459 5.11565C45.5459 5.52915 45.6571 5.8604 45.8794 6.1094C46.1061 6.35395 46.4085 6.47622 46.7864 6.47622Z" fill="white"/>
<path d="M31.539 15.3647L29.7982 20H28.9179L27.1705 15.3647H27.9841L29.358 19.2197L30.7386 15.3647H31.539ZM32.9351 15.3647V20H32.1748V15.3647H32.9351ZM36.341 20L35.2739 18.1459H34.6937V20H33.9334V15.3647H35.534C35.8897 15.3647 36.1899 15.427 36.4344 15.5515C36.6834 15.676 36.8679 15.8427 36.988 16.0517C37.1125 16.2606 37.1747 16.4941 37.1747 16.752C37.1747 17.0543 37.0858 17.33 36.9079 17.579C36.7345 17.8235 36.4655 17.9903 36.1009 18.0792L37.2481 20H36.341ZM34.6937 17.539H35.534C35.8186 17.539 36.032 17.4678 36.1743 17.3255C36.321 17.1833 36.3944 16.9921 36.3944 16.752C36.3944 16.5119 36.3233 16.3251 36.181 16.1917C36.0387 16.0539 35.823 15.985 35.534 15.985H34.6937V17.539ZM41.142 15.3647V15.985H39.9081V20H39.1478V15.985H37.9073V15.3647H41.142ZM42.6656 15.3647V18.3193C42.6656 18.6706 42.7568 18.9351 42.9391 19.113C43.1258 19.2908 43.3837 19.3797 43.7127 19.3797C44.0462 19.3797 44.3041 19.2908 44.4864 19.113C44.6731 18.9351 44.7665 18.6706 44.7665 18.3193V15.3647H45.5268V18.306C45.5268 18.6839 45.4446 19.004 45.2801 19.2664C45.1155 19.5287 44.8955 19.7243 44.6198 19.8533C44.3441 19.9822 44.0395 20.0467 43.7061 20.0467C43.3726 20.0467 43.068 19.9822 42.7923 19.8533C42.5211 19.7243 42.3055 19.5287 42.1454 19.2664C41.9853 19.004 41.9053 18.6839 41.9053 18.306V15.3647H42.6656ZM49.3113 19.0529H47.3705L47.037 20H46.2433L47.904 15.358H48.7844L50.4451 20H49.6448L49.3113 19.0529ZM49.0979 18.4327L48.3442 16.2784L47.5839 18.4327H49.0979ZM51.9275 19.3864H53.4948V20H51.1672V15.3647H51.9275V19.3864Z" fill="#7A7A7A"/>
<path d="M25.0051 23C27.1102 23.0075 29.2833 23.5055 31.5167 24.5015L31.6223 24.5468L31.66 24.6524V24.66C31.8411 25.2108 31.9996 25.7616 32.1278 26.3124C32.2561 26.8632 32.3617 27.414 32.4372 27.9648C32.5428 28.6891 32.6032 29.4059 32.6183 30.1303V30.9754C32.573 32.8013 32.2561 34.6273 31.66 36.4532L31.6223 36.5589L31.5167 36.6041C29.404 37.5397 27.2838 38 25.1711 38H25.0051V37.4869H25.1711C27.1781 37.4869 29.1927 37.0568 31.2073 36.1816C32.0826 33.4653 32.324 30.749 31.9317 28.0327C31.8562 27.5045 31.7506 26.9613 31.6223 26.4256C31.5091 25.9276 31.3658 25.422 31.2073 24.924C29.072 23.9884 27.0046 23.5206 25.0051 23.5131V23ZM18.8104 24.5091C20.7873 23.498 22.8396 23 24.9598 23H25.0051V23.5131H24.9598C22.9452 23.5131 21.0061 23.9809 19.1273 24.924C18.3653 26.7349 17.9352 28.576 17.9125 30.4547C17.8824 32.3184 18.2672 34.2274 19.1198 36.174C21.0816 37.0267 23.0433 37.4643 25.0051 37.4869V38C22.9452 37.9774 20.8854 37.5171 18.8255 36.6041L18.6897 36.4759C17.8145 34.5141 17.407 32.5825 17.3995 30.6886V30.4472C17.4221 28.4779 17.8824 26.5387 18.6897 24.6373L18.8104 24.5091Z" fill="#7A7A7A"/>
<path fill-rule="evenodd" clip-rule="evenodd" d="M25.1409 34.6876C25.0353 33.2464 25.1032 31.7449 24.6731 30.3717C24.2732 29.089 22.7566 28.3571 22.7264 26.9461C22.6962 25.8445 23.5338 24.5694 25.1032 24.5694C26.5745 24.5618 27.4875 25.6333 27.5931 26.8254C27.7214 28.2062 26.0463 29.1343 25.6087 30.4471C25.156 31.7902 25.2843 33.2766 25.1409 34.6876Z" fill="#7A7A7A"/>
<path fill-rule="evenodd" clip-rule="evenodd" d="M25.7219 34.3405C25.6615 33.088 25.6615 31.8883 26.0086 30.8244C26.3934 29.6171 27.1932 28.5985 28.4156 28.2665C29.2531 28.0402 30.483 29.0211 30.2868 30.0246C30.1208 30.8319 29.3134 31.7826 28.0157 31.8883C27.412 31.9411 27.1555 32.424 26.7782 32.7031C28.4684 32.5371 29.5624 31.8732 30.3245 31.179C30.4377 31.7675 30.5131 32.756 30.0529 33.0955C29.1474 33.7368 28.3099 33.2162 27.246 33.518C26.65 33.6916 26.2802 34.0688 25.7219 34.3405Z" fill="#7A7A7A"/>
<path fill-rule="evenodd" clip-rule="evenodd" d="M24.5675 34.3405C24.6354 33.088 24.6278 31.8883 24.2883 30.8244C23.9035 29.6171 23.1037 28.5985 21.8814 28.2665C21.0438 28.0402 19.8064 29.0211 20.0101 30.0246C20.1761 30.8319 20.9835 31.7826 22.2813 31.8883C22.8773 31.9411 23.1414 32.424 23.5187 32.7031C21.821 32.5371 20.7345 31.8732 19.9724 31.179C19.8592 31.7675 19.7838 32.756 20.244 33.0955C21.1495 33.7368 21.987 33.2162 23.0509 33.518C23.647 33.6916 24.0091 34.0688 24.5675 34.3405Z" fill="#7A7A7A"/>
<path fill-rule="evenodd" clip-rule="evenodd" d="M28.5891 36.2043V36.0006L28.74 35.9628L28.5891 35.7365V35.3592L29.2682 36.3024L29.0267 36.3627L28.8607 36.1288L28.5891 36.2043ZM28.5891 35.3592V35.7365L28.4835 35.5856L28.4382 36.0383L28.5891 36.0006V36.2043L28.4156 36.242L28.3854 36.5212L28.1439 36.5815L28.3024 35.3517L28.5438 35.2913L28.5891 35.3592ZM26.3406 36.8607V36.6645H26.3934C26.4764 36.657 26.5293 36.6494 26.5519 36.6419C26.5821 36.6344 26.6123 36.6117 26.6273 36.5891C26.65 36.5589 26.6575 36.5287 26.6575 36.491C26.65 36.4533 26.6424 36.4231 26.6198 36.4005C26.6047 36.3778 26.5745 36.3627 26.5443 36.3552C26.5142 36.3476 26.4463 36.3476 26.3406 36.3552V36.159C26.401 36.159 26.4387 36.1515 26.4538 36.1515C26.4915 36.1439 26.5217 36.1213 26.5443 36.0986C26.567 36.076 26.5745 36.0458 26.567 36.0081C26.567 35.9704 26.5519 35.9402 26.5293 35.9251C26.5142 35.9025 26.484 35.8874 26.4387 35.8874C26.4236 35.8874 26.3934 35.8874 26.3406 35.8949V35.6987C26.4236 35.6912 26.484 35.6912 26.5217 35.6987C26.567 35.6987 26.6123 35.7138 26.65 35.7365C26.6877 35.7516 26.7179 35.7817 26.7481 35.8195C26.7707 35.8572 26.7858 35.9025 26.7933 35.9553C26.8009 36.0081 26.7858 36.0609 26.7632 36.1062C26.7405 36.1515 26.7028 36.1892 26.65 36.2194C26.7254 36.2345 26.7858 36.2646 26.8235 36.3099C26.8688 36.3552 26.8914 36.408 26.899 36.4759C26.899 36.5287 26.8914 36.5815 26.8763 36.6344C26.8537 36.6872 26.8235 36.7249 26.7858 36.7626C26.7405 36.7928 26.6952 36.8154 26.6349 36.8305C26.5972 36.8381 26.4991 36.8456 26.3557 36.8607H26.3406ZM27.7667 36.2269L28.0006 36.2571C27.9855 36.3854 27.9478 36.491 27.8799 36.5664C27.8119 36.6344 27.7139 36.6872 27.5931 36.7098C27.4422 36.7324 27.3064 36.7023 27.1932 36.6193C27.0725 36.5287 27.0046 36.4005 26.9669 36.2194C26.9367 36.0307 26.9593 35.8723 27.0423 35.7516C27.1178 35.6308 27.2385 35.5554 27.397 35.5252C27.5403 35.5026 27.6535 35.5252 27.7591 35.5931C27.8195 35.6308 27.8723 35.6912 27.91 35.7817L27.6912 35.8723C27.6686 35.8195 27.6309 35.7742 27.5856 35.7516C27.5328 35.7214 27.48 35.7138 27.4196 35.7214C27.3366 35.7365 27.2762 35.7817 27.231 35.8496C27.1857 35.9251 27.1781 36.0232 27.2008 36.159C27.231 36.3024 27.2762 36.4005 27.3366 36.4533C27.397 36.5061 27.4724 36.5287 27.5554 36.5136C27.6158 36.4985 27.661 36.4684 27.6988 36.4231C27.7365 36.3778 27.7591 36.3099 27.7667 36.2269ZM26.3406 35.6987V35.8949C26.3104 35.8949 26.2803 35.9025 26.2425 35.9025L26.1067 35.9176L26.1294 36.1816L26.2878 36.1665C26.3029 36.1665 26.3255 36.1665 26.3406 36.159V36.3552H26.3331L26.152 36.3703L26.1746 36.6796L26.3406 36.6645V36.8607L25.9634 36.8984L25.8577 35.744L26.318 35.7063C26.3255 35.6987 26.3331 35.6987 26.3406 35.6987ZM24.8844 36.4608V36.2646C24.9372 36.2646 24.9674 36.2571 24.99 36.2495C25.0202 36.242 25.0428 36.2194 25.0655 36.1967C25.0806 36.1665 25.0881 36.1364 25.0881 36.1062C25.0956 36.0609 25.0806 36.0307 25.0579 36.0006C25.0353 35.9704 25.0051 35.9553 24.9674 35.9477C24.9447 35.9477 24.9221 35.9402 24.8844 35.9402V35.744C24.9976 35.744 25.0655 35.7516 25.1032 35.7666C25.1711 35.7817 25.2239 35.8195 25.2692 35.8798C25.3145 35.9402 25.3371 36.0156 25.3296 36.1062C25.3296 36.1741 25.3145 36.2345 25.2918 36.2873C25.2616 36.3325 25.2315 36.3703 25.1937 36.4005C25.1485 36.4231 25.1107 36.4382 25.0655 36.4533C25.0202 36.4608 24.9598 36.4608 24.8844 36.4608ZM24.8844 35.744V35.9402H24.7938L24.6807 35.9326V36.2646H24.8844V36.4608H24.6731L24.6656 36.8984L24.4317 36.8909L24.4543 35.7365L24.824 35.744H24.8844ZM22.7038 36.3476V35.993C22.7717 36.0081 22.817 36.0081 22.8396 36.0081C22.8698 36.0006 22.8924 35.993 22.9151 35.9704C22.9302 35.9477 22.9452 35.9251 22.9528 35.8874C22.9603 35.8496 22.9528 35.8195 22.9377 35.7893C22.9226 35.7591 22.8924 35.744 22.8547 35.7289C22.8396 35.7214 22.7868 35.7138 22.7038 35.6987V35.5026L22.8019 35.5177C22.9226 35.5403 23.0056 35.5629 23.0584 35.5931C23.1112 35.6233 23.149 35.6686 23.1716 35.7289C23.1942 35.7817 23.2018 35.8496 23.1867 35.9176C23.1716 36.0006 23.1339 36.0685 23.0735 36.1137C23.0207 36.159 22.9377 36.1816 22.8321 36.1816C22.8773 36.2194 22.9151 36.2571 22.9377 36.2948C22.9679 36.3401 22.9981 36.408 23.0358 36.5061L23.1339 36.7551L22.8622 36.7023L22.7415 36.4231C22.7264 36.4005 22.7189 36.3703 22.7038 36.3476ZM23.3678 35.6308L23.5941 35.6535L23.5413 36.2797C23.5338 36.3778 23.5338 36.4457 23.5338 36.4684C23.5413 36.5212 23.564 36.5589 23.5941 36.5891C23.6319 36.6268 23.6771 36.6419 23.745 36.6494C23.813 36.657 23.8658 36.6419 23.896 36.6193C23.9337 36.5966 23.9563 36.5664 23.9714 36.5287C23.9789 36.491 23.9865 36.4231 23.994 36.3325L24.0469 35.6912L24.2808 35.7138L24.2279 36.3175C24.2204 36.4608 24.2053 36.5589 24.1827 36.6117C24.1676 36.6645 24.1374 36.7174 24.1072 36.7475C24.0695 36.7853 24.0167 36.8154 23.9563 36.8305C23.9035 36.8532 23.828 36.8532 23.7375 36.8456C23.6243 36.8381 23.5413 36.8154 23.4885 36.7853C23.4357 36.7551 23.3904 36.7174 23.3602 36.6796C23.3301 36.6344 23.315 36.5891 23.3074 36.5438C23.2999 36.4759 23.2999 36.3778 23.3074 36.2495L23.3678 35.6308ZM21.5343 35.9704L21.5796 35.7817L22.07 35.91L21.9493 36.3552C21.8889 36.3929 21.8135 36.4155 21.7078 36.4231C21.6097 36.4306 21.5192 36.4231 21.4286 36.4005C21.3079 36.3703 21.2098 36.3175 21.1419 36.2495C21.0665 36.1741 21.0212 36.0835 20.9986 35.9855C20.9835 35.8798 20.9835 35.7742 21.0137 35.6686C21.0438 35.5554 21.0967 35.4573 21.1721 35.3743C21.24 35.2988 21.3306 35.2536 21.4362 35.2309C21.5192 35.2083 21.6173 35.2158 21.7229 35.246C21.8587 35.2838 21.9644 35.3366 22.0247 35.4196C22.0851 35.495 22.1153 35.5931 22.1077 35.6987L21.8738 35.6837C21.8738 35.6233 21.8587 35.5705 21.821 35.5252C21.7833 35.4875 21.738 35.4497 21.6701 35.4347C21.572 35.412 21.489 35.4196 21.4136 35.4648C21.3381 35.5101 21.2853 35.6007 21.2476 35.7214C21.2098 35.8572 21.2174 35.9628 21.2551 36.0458C21.3004 36.1288 21.3683 36.1816 21.4588 36.2043C21.5116 36.2194 21.5569 36.2194 21.6097 36.2194C21.6626 36.2118 21.7078 36.1967 21.7531 36.1816L21.7908 36.0383L21.5343 35.9704ZM22.7038 35.5026L22.3114 35.4347L22.1153 36.574L22.3416 36.6117L22.4246 36.1364L22.4774 36.1439C22.5303 36.1515 22.568 36.1665 22.5906 36.1741C22.6133 36.1892 22.6283 36.2118 22.651 36.2345C22.6585 36.2571 22.6812 36.2948 22.7038 36.3476V35.993C22.6812 35.993 22.6585 35.9855 22.6283 35.9855L22.4624 35.9553L22.5076 35.6686L22.6887 35.6987H22.7038V35.5026Z" fill="#7A7A7A"/>
<path fill-rule="evenodd" clip-rule="evenodd" d="M58.6645 34.0916V31.9638H59.6002V28.2214L58.6645 30.0926V25.4221H62.3391L63.2747 36.1816H59.6002V34.0916H58.6645ZM58.6645 25.4221V30.0926L57.7289 31.9638H58.6645V34.0916H56.899L56.1746 36.0684H53.8959V33.6087L56.4387 28.1233H55.9181L57.3668 25.4221H58.6645ZM53.8959 29.0061L55.0353 26.3049L53.8959 25.6711V29.0061ZM44.8341 27.9724C44.8869 27.663 44.8869 27.3612 44.8341 27.0745V27.9724ZM53.8959 25.6711V29.0061L53.745 29.3682C51.4965 27.7611 48.1766 29.2249 47.988 30.9226C47.7994 32.6957 49.15 34.1293 52.5982 33.0579L51.4135 36.2269C46.8637 36.7324 45.0981 34.9291 44.8341 32.824V31.6318C44.902 31.081 45.0453 30.5453 45.2415 30.0473C47.4825 24.4789 51.1193 25.7314 52.5001 25.6258L52.7038 25.0071L53.8959 25.6711ZM53.8959 33.6087L52.7566 36.0684H53.8959V33.6087ZM40.7445 36.0005C43.1817 35.5176 45.5735 32.5901 43.1741 30.2586C44.1097 29.7606 44.6907 28.8627 44.8341 27.9724V27.0745C44.6681 26.1464 43.9513 25.3919 42.6007 25.3693L40.7445 25.3315V27.3989H41.5141C42.3366 27.3989 42.2309 29.5267 41.2048 29.5267H40.7445V31.1565C41.8537 31.3677 41.4613 32.907 40.7445 33.3823V36.0005ZM44.8341 32.824V31.6318C44.7888 32.0317 44.7888 32.4316 44.8341 32.824ZM37.5302 25.2636L36.0287 28.1761L36.7003 28.1233L34.8894 36.0684H40.073C40.2994 36.0684 40.5182 36.0458 40.7445 36.0005V33.3823C40.6163 33.4729 40.4729 33.5257 40.3295 33.5257H38.4659L39.0846 31.1338H40.4804C40.5785 31.1338 40.6691 31.1414 40.7445 31.1565V29.5267H39.4467L39.9674 27.3989H40.7445V25.3315L37.5302 25.2636Z" fill="#7A7A7A"/>
<defs>
<linearGradient id="paint0_linear_356_6951" x1="22.8593" y1="5.30585" x2="57.141" y2="5.30585" gradientUnits="userSpaceOnUse">
<stop stop-color="#78A700"/>
<stop offset="1" stop-color="#216400"/>
</linearGradient>
</defs>
</svg>
