<svg width="80" height="43" viewBox="0 0 80 43" fill="none" xmlns="http://www.w3.org/2000/svg">
<path d="M76 2.72217H4C1.79086 2.72217 0 4.51303 0 6.72217V38.7222C0 40.9313 1.79086 42.7222 4 42.7222H76C78.2091 42.7222 80 40.9313 80 38.7222V6.72217C80 4.51303 78.2091 2.72217 76 2.72217Z" fill="#181818"/>
<path d="M22.8593 0.581543V2.75551H20.5474L22.8593 0.581543Z" fill="#085200"/>
<path d="M57.1409 0.581787V2.75575H59.4528L57.1409 0.581787Z" fill="#085200"/>
<path d="M51.6548 10.0302H28.3455C25.3156 10.0302 22.8593 7.57392 22.8593 4.54398V0.581787H57.141V4.54398C57.141 7.5739 54.6847 10.0302 51.6548 10.0302Z" fill="url(#paint0_linear_356_7008)"/>
<path d="M33.9263 6.64296H32.1789L31.8988 7.46997H30.705L32.399 2.788H33.7196L35.4136 7.46997H34.2064L33.9263 6.64296ZM33.6329 5.76259L33.0526 4.04853L32.479 5.76259H33.6329ZM37.0497 2.788V5.58918C37.0497 5.8693 37.1186 6.08494 37.2564 6.23612C37.3943 6.38729 37.5966 6.46288 37.8633 6.46288C38.1301 6.46288 38.3347 6.38729 38.4769 6.23612C38.6192 6.08494 38.6904 5.8693 38.6904 5.58918V2.788H39.8308V5.58251C39.8308 6.00046 39.7419 6.35395 39.5641 6.64296C39.3862 6.93197 39.1461 7.14984 38.8438 7.29656C38.5459 7.44329 38.2124 7.51666 37.8433 7.51666C37.4743 7.51666 37.143 7.44552 36.8496 7.30323C36.5606 7.15651 36.3316 6.93864 36.1626 6.64963C35.9937 6.35617 35.9092 6.00046 35.9092 5.58251V2.788H37.0497ZM43.9998 2.788V3.70172H42.7593V7.46997H41.6188V3.70172H40.3783V2.788H43.9998ZM46.7864 7.51666C46.3462 7.51666 45.9416 7.41439 45.5726 7.20986C45.208 7.00533 44.9167 6.72077 44.6989 6.35617C44.4855 5.98712 44.3787 5.57362 44.3787 5.11565C44.3787 4.65768 44.4855 4.24639 44.6989 3.88179C44.9167 3.5172 45.208 3.23263 45.5726 3.0281C45.9416 2.82357 46.3462 2.72131 46.7864 2.72131C47.2266 2.72131 47.629 2.82357 47.9936 3.0281C48.3626 3.23263 48.6517 3.5172 48.8606 3.88179C49.0741 4.24639 49.1808 4.65768 49.1808 5.11565C49.1808 5.57362 49.0741 5.98712 48.8606 6.35617C48.6472 6.72077 48.3582 7.00533 47.9936 7.20986C47.629 7.41439 47.2266 7.51666 46.7864 7.51666ZM46.7864 6.47622C47.1599 6.47622 47.4578 6.35172 47.6801 6.10273C47.9069 5.85373 48.0203 5.52471 48.0203 5.11565C48.0203 4.70214 47.9069 4.37311 47.6801 4.12856C47.4578 3.87957 47.1599 3.75507 46.7864 3.75507C46.4085 3.75507 46.1061 3.87735 45.8794 4.12189C45.6571 4.36644 45.5459 4.69769 45.5459 5.11565C45.5459 5.52915 45.6571 5.8604 45.8794 6.1094C46.1061 6.35395 46.4085 6.47622 46.7864 6.47622Z" fill="white"/>
<path d="M31.3648 16.6425L29.6241 21.2778H28.7437L26.9963 16.6425H27.81L29.1839 20.4975L30.5645 16.6425H31.3648ZM32.761 16.6425V21.2778H32.0006V16.6425H32.761ZM36.1669 21.2778L35.0998 19.4237H34.5195V21.2778H33.7592V16.6425H35.3599C35.7156 16.6425 36.0157 16.7048 36.2602 16.8293C36.5092 16.9538 36.6938 17.1205 36.8138 17.3295C36.9383 17.5385 37.0006 17.7719 37.0006 18.0298C37.0006 18.3321 36.9116 18.6078 36.7338 18.8568C36.5604 19.1014 36.2914 19.2681 35.9268 19.357L37.0739 21.2778H36.1669ZM34.5195 18.8168H35.3599C35.6444 18.8168 35.8579 18.7457 36.0001 18.6034C36.1469 18.4611 36.2202 18.2699 36.2202 18.0298C36.2202 17.7897 36.1491 17.603 36.0068 17.4696C35.8645 17.3317 35.6489 17.2628 35.3599 17.2628H34.5195V18.8168ZM40.9678 16.6425V17.2628H39.734V21.2778H38.9736V17.2628H37.7331V16.6425H40.9678ZM42.4915 16.6425V19.5971C42.4915 19.9484 42.5826 20.2129 42.7649 20.3908C42.9517 20.5686 43.2095 20.6576 43.5386 20.6576C43.872 20.6576 44.1299 20.5686 44.3122 20.3908C44.499 20.2129 44.5923 19.9484 44.5923 19.5971V16.6425H45.3527V19.5838C45.3527 19.9617 45.2704 20.2819 45.1059 20.5442C44.9414 20.8065 44.7213 21.0022 44.4456 21.1311C44.1699 21.26 43.8654 21.3245 43.5319 21.3245C43.1984 21.3245 42.8939 21.26 42.6182 21.1311C42.347 21.0022 42.1313 20.8065 41.9712 20.5442C41.8112 20.2819 41.7311 19.9617 41.7311 19.5838V16.6425H42.4915ZM49.1371 20.3308H47.1963L46.8628 21.2778H46.0692L47.7299 16.6359H48.6102L50.2709 21.2778H49.4706L49.1371 20.3308ZM48.9237 19.7105L48.1701 17.5563L47.4097 19.7105H48.9237ZM51.7533 20.6642H53.3207V21.2778H50.993V16.6425H51.7533V20.6642Z" fill="#7A7A7A"/>
<path d="M34.1486 24.2778L24.8175 24.2885C23.8555 24.3847 23.118 25.1756 23.0218 26.1162V35.394C23.0966 36.2811 23.7273 37.0293 24.593 37.2217C27.853 37.2965 31.1558 37.2965 34.4266 37.2217C35.2816 37.0293 35.9016 36.2918 35.987 35.426V26.0949C35.8802 25.1329 35.1106 24.3527 34.1486 24.2778ZM26.5918 36.1422C25.7901 36.3239 24.764 36.3132 24.5396 35.3619C24.4541 32.3904 24.5289 29.4083 24.5075 26.4369C24.5289 25.8918 24.8816 25.4001 25.4588 25.336C25.7581 25.2933 26.3246 25.304 26.6345 25.3253C27.9599 25.4322 28.6333 26.9927 27.853 28.0509C26.9873 28.9808 26.0467 29.8679 25.1702 30.7872L25.2023 30.8513L27.6072 33.2776C28.5264 34.3358 27.8958 35.8429 26.5918 36.1422ZM33.6249 36.1956H28.9967C29.1784 35.6612 29.4563 35.0947 29.4884 34.5282C29.5205 34.0579 29.4029 33.4807 29.2318 33.0532C28.8364 32.1339 27.8744 31.514 27.2652 30.7658L28.9967 28.9594C29.7449 27.912 29.7556 26.4156 29.0823 25.3253H30.2901C30.3648 25.3253 30.6321 25.4108 30.7176 25.4429C31.7651 25.849 32.0964 27.2492 31.391 28.1044L28.8043 30.7551L33.9456 36.0139C34.0097 36.0994 33.6462 36.1956 33.6249 36.1956ZM34.512 34.5068L30.7924 30.7551L32.6095 28.9166C33.2294 28.1044 33.2936 26.7255 32.9194 25.7956C32.8553 25.6353 32.7484 25.4856 32.6843 25.3253H33.5073C33.9563 25.3253 34.512 25.8811 34.512 26.3193V34.5068Z" fill="#7A7A7A"/>
<path d="M45.2862 32.1021C45.1259 31.3753 44.6021 30.6057 43.9928 30.1888V30.1461C44.8693 29.3124 45.051 28.158 44.57 27.0571C43.9928 25.7424 42.6033 25.3469 41.2779 25.2935C39.9526 25.2401 38.5951 25.3362 37.259 25.2935V36.1959H42.0689C44.3028 36.0676 45.7886 34.3574 45.2862 32.1021ZM39.2899 27.1747C40.0488 27.2281 40.8825 27.0999 41.6307 27.2067C42.924 27.3991 43.0843 28.6604 42.3254 29.5582H39.2899V27.1747ZM41.8872 34.2826H39.2899V31.4715H42.0689C42.3468 31.4715 42.7744 31.696 42.9668 31.899C43.7791 32.8075 43.1057 34.2826 41.8872 34.2826Z" fill="#7A7A7A"/>
<path d="M51.6245 32.038C53.014 31.6532 54.0935 30.5202 54.2005 29.0452C54.3929 26.4799 52.7147 25.379 50.3632 25.2935C48.9416 25.2401 47.4987 25.3362 46.0771 25.2935V36.1959H48.14V32.1663H49.2837L52.1269 36.1959H54.5531L51.6245 32.038ZM48.14 30.253V27.1747C48.9844 27.2388 49.9357 27.0892 50.7587 27.2067C51.7955 27.3671 52.3834 28.2649 52.0092 29.2696C51.8383 29.7292 51.2183 30.253 50.7053 30.253H48.14Z" fill="#7A7A7A"/>
<path d="M57.3041 25.2947V36.1926H55.187V25.3382C55.187 25.3162 55.2678 25.2947 55.2885 25.2947H57.3041Z" fill="#7A7A7A"/>
<defs>
<linearGradient id="paint0_linear_356_7008" x1="22.8593" y1="5.30597" x2="57.141" y2="5.30597" gradientUnits="userSpaceOnUse">
<stop stop-color="#78A700"/>
<stop offset="1" stop-color="#216400"/>
</linearGradient>
</defs>
</svg>
