<svg width="80" height="43" viewBox="0 0 80 43" fill="none" xmlns="http://www.w3.org/2000/svg">
<path d="M76 2.72217H4C1.79086 2.72217 0 4.51303 0 6.72217V38.7222C0 40.9313 1.79086 42.7222 4 42.7222H76C78.2091 42.7222 80 40.9313 80 38.7222V6.72217C80 4.51303 78.2091 2.72217 76 2.72217Z" fill="#181818"/>
<path d="M22.8593 0.581421V2.75538H20.5474L22.8593 0.581421Z" fill="#085200"/>
<path d="M57.1409 0.581665V2.75563H59.4528L57.1409 0.581665Z" fill="#085200"/>
<path d="M51.6548 10.03H28.3455C25.3156 10.03 22.8593 7.5738 22.8593 4.54386V0.581665H57.141V4.54386C57.141 7.57378 54.6847 10.03 51.6548 10.03Z" fill="url(#paint0_linear_356_6963)"/>
<path d="M33.9263 6.64296H32.1789L31.8988 7.46997H30.705L32.399 2.788H33.7196L35.4136 7.46997H34.2064L33.9263 6.64296ZM33.6329 5.76259L33.0526 4.04853L32.479 5.76259H33.6329ZM37.0497 2.788V5.58918C37.0497 5.8693 37.1186 6.08494 37.2564 6.23612C37.3943 6.38729 37.5966 6.46288 37.8633 6.46288C38.1301 6.46288 38.3347 6.38729 38.4769 6.23612C38.6192 6.08494 38.6904 5.8693 38.6904 5.58918V2.788H39.8308V5.58251C39.8308 6.00046 39.7419 6.35395 39.5641 6.64296C39.3862 6.93197 39.1461 7.14984 38.8438 7.29656C38.5459 7.44329 38.2124 7.51666 37.8433 7.51666C37.4743 7.51666 37.143 7.44552 36.8496 7.30323C36.5606 7.15651 36.3316 6.93864 36.1626 6.64963C35.9937 6.35617 35.9092 6.00046 35.9092 5.58251V2.788H37.0497ZM43.9998 2.788V3.70172H42.7593V7.46997H41.6188V3.70172H40.3783V2.788H43.9998ZM46.7864 7.51666C46.3462 7.51666 45.9416 7.41439 45.5726 7.20986C45.208 7.00533 44.9167 6.72077 44.6989 6.35617C44.4855 5.98712 44.3787 5.57362 44.3787 5.11565C44.3787 4.65768 44.4855 4.24639 44.6989 3.88179C44.9167 3.5172 45.208 3.23263 45.5726 3.0281C45.9416 2.82357 46.3462 2.72131 46.7864 2.72131C47.2266 2.72131 47.629 2.82357 47.9936 3.0281C48.3626 3.23263 48.6517 3.5172 48.8606 3.88179C49.0741 4.24639 49.1808 4.65768 49.1808 5.11565C49.1808 5.57362 49.0741 5.98712 48.8606 6.35617C48.6472 6.72077 48.3582 7.00533 47.9936 7.20986C47.629 7.41439 47.2266 7.51666 46.7864 7.51666ZM46.7864 6.47622C47.1599 6.47622 47.4578 6.35172 47.6801 6.10273C47.9069 5.85373 48.0203 5.52471 48.0203 5.11565C48.0203 4.70214 47.9069 4.37311 47.6801 4.12856C47.4578 3.87957 47.1599 3.75507 46.7864 3.75507C46.4085 3.75507 46.1061 3.87735 45.8794 4.12189C45.6571 4.36644 45.5459 4.69769 45.5459 5.11565C45.5459 5.52915 45.6571 5.8604 45.8794 6.1094C46.1061 6.35395 46.4085 6.47622 46.7864 6.47622Z" fill="white"/>
<path d="M31.539 15.8647L29.7982 20.5H28.9179L27.1705 15.8647H27.9841L29.358 19.7197L30.7386 15.8647H31.539ZM32.9351 15.8647V20.5H32.1748V15.8647H32.9351ZM36.341 20.5L35.2739 18.6459H34.6937V20.5H33.9334V15.8647H35.534C35.8897 15.8647 36.1899 15.927 36.4344 16.0515C36.6834 16.176 36.8679 16.3427 36.988 16.5517C37.1125 16.7606 37.1747 16.9941 37.1747 17.252C37.1747 17.5543 37.0858 17.83 36.9079 18.079C36.7345 18.3235 36.4655 18.4903 36.1009 18.5792L37.2481 20.5H36.341ZM34.6937 18.039H35.534C35.8186 18.039 36.032 17.9678 36.1743 17.8255C36.321 17.6833 36.3944 17.4921 36.3944 17.252C36.3944 17.0119 36.3233 16.8251 36.181 16.6917C36.0387 16.5539 35.823 16.485 35.534 16.485H34.6937V18.039ZM41.142 15.8647V16.485H39.9081V20.5H39.1478V16.485H37.9073V15.8647H41.142ZM42.6656 15.8647V18.8193C42.6656 19.1706 42.7568 19.4351 42.9391 19.613C43.1258 19.7908 43.3837 19.8797 43.7127 19.8797C44.0462 19.8797 44.3041 19.7908 44.4864 19.613C44.6731 19.4351 44.7665 19.1706 44.7665 18.8193V15.8647H45.5268V18.806C45.5268 19.1839 45.4446 19.504 45.2801 19.7664C45.1155 20.0287 44.8955 20.2243 44.6198 20.3533C44.3441 20.4822 44.0395 20.5467 43.7061 20.5467C43.3726 20.5467 43.068 20.4822 42.7923 20.3533C42.5211 20.2243 42.3055 20.0287 42.1454 19.7664C41.9853 19.504 41.9053 19.1839 41.9053 18.806V15.8647H42.6656ZM49.3113 19.5529H47.3705L47.037 20.5H46.2433L47.904 15.858H48.7844L50.4451 20.5H49.6448L49.3113 19.5529ZM49.0979 18.9327L48.3442 16.7784L47.5839 18.9327H49.0979ZM51.9275 19.8864H53.4948V20.5H51.1672V15.8647H51.9275V19.8864Z" fill="#7A7A7A"/>
<path d="M33.7047 28.6995H35.7595C36.8918 28.6995 37.6181 29.394 37.6181 30.3331C37.6181 31.2722 36.901 31.9818 35.7595 31.9818H34.7175V33.875H33.7047V28.6995ZM35.6384 31.2062C36.1824 31.2062 36.6053 30.9332 36.6053 30.3406C36.6053 29.7421 36.1824 29.475 35.6384 29.475H34.7175V31.2047H35.6384V31.2062Z" fill="#7A7A7A"/>
<path d="M37.7452 32.0042C37.7452 30.9091 38.4623 30.0225 39.6253 30.0225C40.9767 30.0225 41.6264 31.1026 41.4762 32.2637H38.6738C38.7412 32.8848 39.066 33.2688 39.6789 33.2688C40.1095 33.2688 40.3807 33.0693 40.5247 32.7587H41.4379C41.2188 33.5568 40.5768 33.9859 39.6559 33.9859C38.3949 33.9859 37.7452 33.1143 37.7452 32.0042ZM40.5768 31.5751C40.4941 31.0651 40.1845 30.7395 39.6176 30.7395C39.089 30.7395 38.7948 31.0726 38.6967 31.5751H40.5768Z" fill="#7A7A7A"/>
<path d="M41.9851 30.1335H42.9137V30.8146C43.0868 30.4305 43.5036 30.105 44.1149 30.105H44.1686V30.9556H44.1149C43.1711 30.9556 42.9366 31.5991 42.9366 32.3087V33.8764H41.9851V30.1335Z" fill="#7A7A7A"/>
<path d="M44.5454 30.1339H45.4739V30.7189C45.6854 30.2824 46.1236 30.0378 46.6063 30.0378C47.1947 30.0378 47.6038 30.2899 47.8075 30.7324C48.065 30.3034 48.5323 30.0378 49.0395 30.0378C49.9236 30.0378 50.3833 30.5704 50.3833 31.4795V33.8753H49.4317V31.643C49.4317 31.1105 49.2126 30.7999 48.7438 30.7999C48.2381 30.7999 47.9439 31.199 47.9439 31.88V33.8767H46.9847V31.643C46.9847 31.1105 46.7733 30.7999 46.3044 30.7999C45.7911 30.7999 45.4969 31.199 45.4969 31.88V33.8767H44.5454V30.1339Z" fill="#7A7A7A"/>
<path d="M50.8737 32.004C50.8737 30.8579 51.5004 30.0298 52.5653 30.0298C53.1092 30.0298 53.5169 30.2743 53.7743 30.6959V30.1333H54.7026V33.8747H53.7743V33.3136C53.5169 33.7277 53.1092 33.9797 52.5653 33.9797C51.5004 33.9797 50.8737 33.1501 50.8737 32.004ZM52.792 33.2176C53.4188 33.2176 53.759 32.7226 53.759 32.0055C53.759 31.2884 53.4188 30.7934 52.792 30.7934C52.1654 30.7934 51.8252 31.2884 51.8252 32.0055C51.8252 32.7226 52.173 33.2176 52.792 33.2176Z" fill="#7A7A7A"/>
<path d="M55.6834 30.8728H55.1012V30.1333H55.6834V29.1282H56.6424V30.1333H57.4057V30.8728H56.6424V33.8746H55.6834V30.8728Z" fill="#7A7A7A"/>
<path d="M57.571 32.004C57.571 30.8579 58.1976 30.0298 59.2626 30.0298C59.8067 30.0298 60.2141 30.2743 60.4715 30.6959V30.1333H61.4001V33.8747H60.4715V33.3136C60.2141 33.7277 59.8067 33.9797 59.2626 33.9797C58.1976 33.9797 57.571 33.1501 57.571 32.004ZM59.4893 33.2176C60.1159 33.2176 60.4562 32.7226 60.4562 32.0055C60.4562 31.2884 60.1159 30.7934 59.4893 30.7934C58.8627 30.7934 58.5225 31.2884 58.5225 32.0055C58.5225 32.7226 58.8703 33.2176 59.4893 33.2176Z" fill="#7A7A7A"/>
<path d="M29.675 29.481L25.02 23.4999L20.3665 29.481C19.5805 30.4936 19.274 31.3742 19.274 32.3313C19.274 33.7939 20.0218 35.1065 21.361 36.0246L25.0185 38.4999L28.6775 36.0246C30.0182 35.1065 30.7644 33.7924 30.7644 32.3313C30.7659 31.3757 30.4595 30.4936 29.675 29.481ZM24.2738 35.7816V36.6637L22.0336 35.1635C20.981 34.4705 20.3864 33.4384 20.3864 32.3882C20.3864 31.8452 20.5397 31.3202 20.8078 30.8311C20.9227 31.1491 21.1143 31.4686 21.5356 31.9382L23.9106 34.526C24.2921 34.9565 24.2738 35.219 24.2738 35.7816ZM22.5117 31.3757C21.9172 30.7381 21.8038 30.3826 21.8038 30.0075C21.8038 29.6505 21.8804 29.3324 22.3401 28.7504L25.0215 25.3376L27.7029 28.7504C28.1442 29.3324 28.2393 29.6505 28.2393 30.0075C28.2393 30.3826 28.1243 30.7396 27.5314 31.3757L25.02 34.1134L22.5117 31.3757ZM28.0079 35.1635L25.7677 36.6637V35.7816C25.7677 35.219 25.7493 34.9565 26.1324 34.5245L28.5074 31.9367C28.9287 31.4686 29.1203 31.1491 29.2352 30.8296C29.5033 31.3172 29.6566 31.8422 29.6566 32.3868C29.655 33.4384 29.0621 34.469 28.0079 35.1635Z" fill="#7A7A7A"/>
<defs>
<linearGradient id="paint0_linear_356_6963" x1="22.8593" y1="5.30585" x2="57.141" y2="5.30585" gradientUnits="userSpaceOnUse">
<stop stop-color="#78A700"/>
<stop offset="1" stop-color="#216400"/>
</linearGradient>
</defs>
</svg>
