<svg width="80" height="43" viewBox="0 0 80 43" fill="none" xmlns="http://www.w3.org/2000/svg">
<path d="M76 2.72217H4C1.79086 2.72217 0 4.51303 0 6.72217V38.7222C0 40.9313 1.79086 42.7222 4 42.7222H76C78.2091 42.7222 80 40.9313 80 38.7222V6.72217C80 4.51303 78.2091 2.72217 76 2.72217Z" fill="#181818"/>
<path d="M31.3648 15.1045L29.6241 19.7397H28.7437L26.9963 15.1045H27.81L29.1839 18.9594L30.5645 15.1045H31.3648ZM32.761 15.1045V19.7397H32.0006V15.1045H32.761ZM36.1669 19.7397L35.0998 17.8856H34.5195V19.7397H33.7592V15.1045H35.3599C35.7156 15.1045 36.0157 15.1667 36.2602 15.2912C36.5092 15.4157 36.6938 15.5824 36.8138 15.7914C36.9383 16.0004 37.0006 16.2338 37.0006 16.4917C37.0006 16.7941 36.9116 17.0697 36.7338 17.3187C36.5604 17.5633 36.2914 17.73 35.9268 17.8189L37.0739 19.7397H36.1669ZM34.5195 17.2787H35.3599C35.6444 17.2787 35.8579 17.2076 36.0001 17.0653C36.1469 16.923 36.2202 16.7318 36.2202 16.4917C36.2202 16.2516 36.1491 16.0649 36.0068 15.9315C35.8645 15.7936 35.6489 15.7247 35.3599 15.7247H34.5195V17.2787ZM40.9678 15.1045V15.7247H39.734V19.7397H38.9736V15.7247H37.7331V15.1045H40.9678ZM42.4915 15.1045V18.059C42.4915 18.4103 42.5826 18.6749 42.7649 18.8527C42.9517 19.0306 43.2095 19.1195 43.5386 19.1195C43.872 19.1195 44.1299 19.0306 44.3122 18.8527C44.499 18.6749 44.5923 18.4103 44.5923 18.059V15.1045H45.3527V18.0457C45.3527 18.4236 45.2704 18.7438 45.1059 19.0061C44.9414 19.2684 44.7213 19.4641 44.4456 19.593C44.1699 19.722 43.8654 19.7864 43.5319 19.7864C43.1984 19.7864 42.8939 19.722 42.6182 19.593C42.347 19.4641 42.1313 19.2684 41.9712 19.0061C41.8112 18.7438 41.7311 18.4236 41.7311 18.0457V15.1045H42.4915ZM49.1371 18.7927H47.1963L46.8628 19.7397H46.0692L47.7299 15.0978H48.6102L50.2709 19.7397H49.4706L49.1371 18.7927ZM48.9237 18.1724L48.1701 16.0182L47.4097 18.1724H48.9237ZM51.7533 19.1262H53.3207V19.7397H50.993V15.1045H51.7533V19.1262Z" fill="#7A7A7A"/>
<path d="M10.2029 22.7397V27.044H19.9699V24.7371L10.2029 22.7397Z" fill="#525252"/>
<path d="M31.0751 27.044L19.9699 22.7397V24.7471L31.0751 27.044Z" fill="#818181"/>
<path d="M19.9699 27.044H31.0751L19.9699 24.7371V27.044Z" fill="#676767"/>
<path d="M56.591 32.4469L31.095 27.0441L56.591 35.5228V32.4469Z" fill="#828282"/>
<path d="M13.6882 35.5227C13.7482 35.1731 13.7482 34.8436 13.7482 34.504C13.7482 33.5653 13.4885 32.9761 13.2588 32.7164C12.9292 32.3369 12.6296 32.3069 12.2502 32.3069H11.601V36.9308C11.601 36.9308 11.5111 36.9408 11.9006 36.9408C13.3387 36.9308 13.5884 36.0619 13.6882 35.5227ZM14.3773 32.2171C14.9565 32.8562 15.1463 33.8948 15.1463 34.524C15.1463 36.8808 14.2774 37.7397 12.35 37.7397H10.2029V31.488H12.35C13.0091 31.488 13.7781 31.5679 14.3773 32.2171ZM18.5617 35.4827C18.1323 35.5227 18.0225 35.5227 17.8427 35.5726C17.5031 35.6525 17.2035 35.8422 17.2035 36.3016C17.2035 36.3915 17.2135 36.4914 17.2335 36.5912C17.3234 36.8908 17.5431 36.9807 17.7928 36.9807C17.8926 36.9807 18.1523 36.9707 18.332 36.8009C18.5517 36.6012 18.5617 36.3216 18.5617 36.1219V35.4827ZM19.3207 33.5153C19.7002 33.8449 19.6902 34.3143 19.6902 34.6438V37.5999H18.5118L18.5018 37.3203C18.5018 37.3203 18.0924 37.7097 17.2135 37.7097C16.854 37.7097 16.4845 37.6099 16.2548 37.3402C16.0751 37.1505 15.9552 36.8309 15.9552 36.4115C15.9552 36.2417 15.9552 35.7224 16.4845 35.3629C16.8141 35.1432 17.1037 35.0832 17.8627 34.9934L18.5617 34.9235V34.5739C18.5617 34.3642 18.5517 34.1844 18.4719 34.0446C18.332 33.8049 18.0424 33.8049 17.9426 33.8049C17.643 33.8049 17.4832 33.9448 17.4133 34.0346C17.2735 34.2044 17.2635 34.4441 17.2535 34.6239H16.1749C16.1749 34.4241 16.1649 34.1545 16.3147 33.8948C16.6543 33.2856 17.2535 33.1458 18.0524 33.1458C18.3121 33.1458 18.4119 33.1658 18.6816 33.2157C18.9412 33.2657 19.121 33.3356 19.3207 33.5153ZM27.8094 35.4827C27.39 35.5227 27.2701 35.5227 27.0904 35.5726C26.7508 35.6525 26.4512 35.8422 26.4512 36.3016C26.4512 36.3915 26.4612 36.4914 26.4812 36.5912C26.5711 36.8908 26.7908 36.9807 27.0304 36.9807C27.1403 36.9807 27.3999 36.9707 27.5697 36.8009C27.7894 36.6012 27.7994 36.3216 27.7994 36.1219V35.4827H27.8094ZM28.5684 33.5153C28.9479 33.8449 28.9379 34.3143 28.9379 34.6438V37.5999H27.7695L27.7595 37.3203C27.7595 37.3203 27.34 37.7097 26.4712 37.7097C26.1217 37.7097 25.7422 37.6099 25.5125 37.3402C25.3427 37.1505 25.2129 36.8309 25.2129 36.4115C25.2129 36.2417 25.2229 35.7224 25.7422 35.3629C26.0717 35.1432 26.3513 35.0832 27.1203 34.9934L27.8194 34.9235V34.5739C27.8194 34.3642 27.8094 34.1844 27.7395 34.0446C27.5897 33.8049 27.3101 33.8049 27.2102 33.8049C26.9106 33.8049 26.7408 33.9448 26.6809 34.0346C26.5411 34.2044 26.5311 34.4441 26.5211 34.6239H25.4326C25.4326 34.4241 25.4226 34.1545 25.5724 33.8948C25.9119 33.2856 26.5111 33.1458 27.3101 33.1458C27.5697 33.1458 27.6696 33.1658 27.9292 33.2157C28.1889 33.2657 28.3687 33.3356 28.5684 33.5153ZM39.7535 36.0619C39.7734 35.8223 39.7934 35.5926 39.7934 35.3429C39.7934 35.1531 39.7834 34.9634 39.7635 34.7737C39.7435 34.504 39.6836 33.8149 39.0244 33.8149C38.8846 33.8149 38.7748 33.8449 38.645 33.9048C38.2954 34.1145 38.2355 34.5539 38.2155 34.7836C38.1856 35.0733 38.1756 35.3129 38.1756 35.4827C38.1756 35.6725 38.1856 35.8722 38.2055 36.0719C38.2155 36.3416 38.2854 37.0706 38.9845 37.0706C39.0944 37.0706 39.2142 37.0406 39.3141 36.9907C39.6836 36.781 39.7335 36.3016 39.7535 36.0619ZM40.6223 33.775C41.0517 34.2643 41.0517 34.9834 41.0517 35.3629C41.0517 35.7623 41.0517 36.5713 40.5624 37.1006C40.0131 37.7097 39.2841 37.7097 38.9945 37.7097C38.6849 37.7097 38.5151 37.6898 38.2055 37.5999C37.137 37.2903 36.9372 36.3915 36.9372 35.5426C36.9372 35.0932 36.9372 34.2144 37.5564 33.6651C38.1057 33.1758 38.8047 33.1558 39.1043 33.1558C39.364 33.1558 40.103 33.1558 40.6223 33.775ZM45.5458 34.5639C45.5358 34.2444 45.5358 33.8549 45.2661 33.5453C45.1463 33.4055 44.8567 33.1858 44.2774 33.1858C43.5884 33.1858 43.3087 33.4854 42.9991 33.765V33.2757H41.7708V37.6099H42.9991V34.6838C43.0091 34.4541 43.0191 34.1545 43.3786 33.9847C43.4585 33.9547 43.5784 33.9148 43.7182 33.9148C44.2475 33.9148 44.2974 34.3642 44.3074 34.504C44.3174 34.6438 44.3174 34.7836 44.3174 34.9634V37.6099H45.5458V34.5639ZM24.3041 34.5639C24.2941 34.2444 24.2941 33.8549 24.0245 33.5453C23.9046 33.4055 23.625 33.1858 23.0358 33.1858C22.3467 33.1858 22.0671 33.4854 21.7575 33.765V33.2757H20.5291V37.6099H21.7575V34.6838C21.7675 34.4541 21.7774 34.1545 22.137 33.9847C22.2169 33.9547 22.3367 33.9148 22.4665 33.9148C23.0058 33.9148 23.0458 34.3642 23.0557 34.504C23.0757 34.6438 23.0757 34.7836 23.0757 34.9634V37.6099H24.3041V34.5639ZM29.8467 33.2657H31.075V33.775C31.3147 33.5653 31.7242 33.1858 32.4632 33.1858C33.3021 33.1858 33.5418 33.6951 33.6017 33.8549C34.101 33.3755 34.4406 33.1858 34.9199 33.1858C35.1496 33.1858 35.3194 33.2257 35.4692 33.2856C36.1283 33.5353 36.1483 34.1245 36.1583 34.504V37.5999H34.9099V34.7737C34.8999 34.4641 34.89 34.2943 34.8101 34.1545C34.7901 34.1145 34.6703 33.9048 34.3607 33.9048C34.2508 33.9048 34.0511 33.9348 33.9612 33.9847C33.6217 34.1545 33.6017 34.4341 33.6017 34.6638V37.5899H32.3833V34.7836C32.3833 34.4541 32.3933 33.8948 31.834 33.8948C31.7142 33.8948 31.4945 33.9348 31.3846 33.9947C31.075 34.1844 31.075 34.4641 31.075 34.8436V37.5899H29.8467V33.2657Z" fill="#7A7A7A"/>
<path d="M31.085 27.0441L56.581 27.0541V32.4469L31.085 27.0441Z" fill="#676767"/>
<path d="M56.581 27.054V32.4468L70.123 35.5326L70.113 27.054H56.581Z" fill="#525252"/>
<path d="M22.8593 0.581421V2.75538H20.5474L22.8593 0.581421Z" fill="#085200"/>
<path d="M57.1409 0.581665V2.75563H59.4528L57.1409 0.581665Z" fill="#085200"/>
<path d="M51.6548 10.03H28.3455C25.3156 10.03 22.8593 7.5738 22.8593 4.54386V0.581665H57.1409V4.54386C57.1409 7.57378 54.6847 10.03 51.6548 10.03Z" fill="url(#paint0_linear_356_6982)"/>
<path d="M33.9263 6.64296H32.1789L31.8988 7.46997H30.705L32.399 2.788H33.7196L35.4136 7.46997H34.2064L33.9263 6.64296ZM33.6329 5.76259L33.0526 4.04853L32.479 5.76259H33.6329ZM37.0497 2.788V5.58918C37.0497 5.8693 37.1186 6.08494 37.2564 6.23612C37.3943 6.38729 37.5966 6.46288 37.8633 6.46288C38.1301 6.46288 38.3347 6.38729 38.4769 6.23612C38.6192 6.08494 38.6904 5.8693 38.6904 5.58918V2.788H39.8308V5.58251C39.8308 6.00046 39.7419 6.35395 39.5641 6.64296C39.3862 6.93197 39.1461 7.14984 38.8438 7.29656C38.5459 7.44329 38.2124 7.51666 37.8433 7.51666C37.4743 7.51666 37.143 7.44552 36.8496 7.30323C36.5606 7.15651 36.3316 6.93864 36.1626 6.64963C35.9937 6.35617 35.9092 6.00046 35.9092 5.58251V2.788H37.0497ZM43.9998 2.788V3.70172H42.7593V7.46997H41.6188V3.70172H40.3783V2.788H43.9998ZM46.7864 7.51666C46.3462 7.51666 45.9416 7.41439 45.5726 7.20986C45.208 7.00533 44.9167 6.72077 44.6989 6.35617C44.4855 5.98712 44.3787 5.57362 44.3787 5.11565C44.3787 4.65768 44.4855 4.24639 44.6989 3.88179C44.9167 3.5172 45.208 3.23263 45.5726 3.0281C45.9416 2.82357 46.3462 2.72131 46.7864 2.72131C47.2266 2.72131 47.629 2.82357 47.9936 3.0281C48.3626 3.23263 48.6517 3.5172 48.8606 3.88179C49.0741 4.24639 49.1808 4.65768 49.1808 5.11565C49.1808 5.57362 49.0741 5.98712 48.8606 6.35617C48.6472 6.72077 48.3582 7.00533 47.9936 7.20986C47.629 7.41439 47.2266 7.51666 46.7864 7.51666ZM46.7864 6.47622C47.1599 6.47622 47.4578 6.35172 47.6801 6.10273C47.9069 5.85373 48.0203 5.52471 48.0203 5.11565C48.0203 4.70214 47.9069 4.37311 47.6801 4.12856C47.4578 3.87957 47.1599 3.75507 46.7864 3.75507C46.4085 3.75507 46.1061 3.87735 45.8794 4.12189C45.6571 4.36644 45.5459 4.69769 45.5459 5.11565C45.5459 5.52915 45.6571 5.8604 45.8794 6.1094C46.1061 6.35395 46.4085 6.47622 46.7864 6.47622Z" fill="white"/>
<defs>
<linearGradient id="paint0_linear_356_6982" x1="22.8593" y1="5.30585" x2="57.1409" y2="5.30585" gradientUnits="userSpaceOnUse">
<stop stop-color="#78A700"/>
<stop offset="1" stop-color="#216400"/>
</linearGradient>
</defs>
</svg>
