<svg width="80" height="43" viewBox="0 0 80 43" fill="none" xmlns="http://www.w3.org/2000/svg">
<path d="M76 2.72217H4C1.79086 2.72217 0 4.51303 0 6.72217V38.7222C0 40.9313 1.79086 42.7222 4 42.7222H76C78.2091 42.7222 80 40.9313 80 38.7222V6.72217C80 4.51303 78.2091 2.72217 76 2.72217Z" fill="#181818"/>
<path d="M22.8593 0.581543V2.75551H20.5474L22.8593 0.581543Z" fill="#085200"/>
<path d="M57.1409 0.581787V2.75575H59.4528L57.1409 0.581787Z" fill="#085200"/>
<path d="M51.6548 10.0302H28.3455C25.3156 10.0302 22.8593 7.57392 22.8593 4.54398V0.581787H57.1409V4.54398C57.1409 7.5739 54.6847 10.0302 51.6548 10.0302Z" fill="url(#paint0_linear_356_7022)"/>
<path d="M33.9263 6.64296H32.1789L31.8988 7.46997H30.705L32.399 2.788H33.7196L35.4136 7.46997H34.2064L33.9263 6.64296ZM33.6329 5.76259L33.0526 4.04853L32.479 5.76259H33.6329ZM37.0497 2.788V5.58918C37.0497 5.8693 37.1186 6.08494 37.2564 6.23612C37.3943 6.38729 37.5966 6.46288 37.8633 6.46288C38.1301 6.46288 38.3347 6.38729 38.4769 6.23612C38.6192 6.08494 38.6904 5.8693 38.6904 5.58918V2.788H39.8308V5.58251C39.8308 6.00046 39.7419 6.35395 39.5641 6.64296C39.3862 6.93197 39.1461 7.14984 38.8438 7.29656C38.5459 7.44329 38.2124 7.51666 37.8433 7.51666C37.4743 7.51666 37.143 7.44552 36.8496 7.30323C36.5606 7.15651 36.3316 6.93864 36.1626 6.64963C35.9937 6.35617 35.9092 6.00046 35.9092 5.58251V2.788H37.0497ZM43.9998 2.788V3.70172H42.7593V7.46997H41.6188V3.70172H40.3783V2.788H43.9998ZM46.7864 7.51666C46.3462 7.51666 45.9416 7.41439 45.5726 7.20986C45.208 7.00533 44.9167 6.72077 44.6989 6.35617C44.4855 5.98712 44.3787 5.57362 44.3787 5.11565C44.3787 4.65768 44.4855 4.24639 44.6989 3.88179C44.9167 3.5172 45.208 3.23263 45.5726 3.0281C45.9416 2.82357 46.3462 2.72131 46.7864 2.72131C47.2266 2.72131 47.629 2.82357 47.9936 3.0281C48.3626 3.23263 48.6517 3.5172 48.8606 3.88179C49.0741 4.24639 49.1808 4.65768 49.1808 5.11565C49.1808 5.57362 49.0741 5.98712 48.8606 6.35617C48.6472 6.72077 48.3582 7.00533 47.9936 7.20986C47.629 7.41439 47.2266 7.51666 46.7864 7.51666ZM46.7864 6.47622C47.1599 6.47622 47.4578 6.35172 47.6801 6.10273C47.9069 5.85373 48.0203 5.52471 48.0203 5.11565C48.0203 4.70214 47.9069 4.37311 47.6801 4.12856C47.4578 3.87957 47.1599 3.75507 46.7864 3.75507C46.4085 3.75507 46.1061 3.87735 45.8794 4.12189C45.6571 4.36644 45.5459 4.69769 45.5459 5.11565C45.5459 5.52915 45.6571 5.8604 45.8794 6.1094C46.1061 6.35395 46.4085 6.47622 46.7864 6.47622Z" fill="white"/>
<path d="M31.3648 15.6425L29.6241 20.2778H28.7437L26.9963 15.6425H27.81L29.1839 19.4975L30.5645 15.6425H31.3648ZM32.761 15.6425V20.2778H32.0006V15.6425H32.761ZM36.1669 20.2778L35.0998 18.4237H34.5195V20.2778H33.7592V15.6425H35.3599C35.7156 15.6425 36.0157 15.7048 36.2602 15.8293C36.5092 15.9538 36.6938 16.1205 36.8138 16.3295C36.9383 16.5385 37.0006 16.7719 37.0006 17.0298C37.0006 17.3321 36.9116 17.6078 36.7338 17.8568C36.5604 18.1014 36.2914 18.2681 35.9268 18.357L37.0739 20.2778H36.1669ZM34.5195 17.8168H35.3599C35.6444 17.8168 35.8579 17.7457 36.0001 17.6034C36.1469 17.4611 36.2202 17.2699 36.2202 17.0298C36.2202 16.7897 36.1491 16.603 36.0068 16.4696C35.8645 16.3317 35.6489 16.2628 35.3599 16.2628H34.5195V17.8168ZM40.9678 15.6425V16.2628H39.734V20.2778H38.9736V16.2628H37.7331V15.6425H40.9678ZM42.4915 15.6425V18.5971C42.4915 18.9484 42.5826 19.2129 42.7649 19.3908C42.9517 19.5686 43.2095 19.6576 43.5386 19.6576C43.872 19.6576 44.1299 19.5686 44.3122 19.3908C44.499 19.2129 44.5923 18.9484 44.5923 18.5971V15.6425H45.3527V18.5838C45.3527 18.9617 45.2704 19.2819 45.1059 19.5442C44.9414 19.8065 44.7213 20.0022 44.4456 20.1311C44.1699 20.26 43.8654 20.3245 43.5319 20.3245C43.1984 20.3245 42.8939 20.26 42.6182 20.1311C42.347 20.0022 42.1313 19.8065 41.9712 19.5442C41.8112 19.2819 41.7311 18.9617 41.7311 18.5838V15.6425H42.4915ZM49.1371 19.3308H47.1963L46.8628 20.2778H46.0692L47.7299 15.6359H48.6102L50.2709 20.2778H49.4706L49.1371 19.3308ZM48.9237 18.7105L48.1701 16.5563L47.4097 18.7105H48.9237ZM51.7533 19.6642H53.3207V20.2778H50.993V15.6425H51.7533V19.6642Z" fill="#7A7A7A"/>
<path d="M14.4824 33.5914C14.4824 32.8482 14.4695 32.2242 14.4297 31.6668H15.8367L15.9033 32.6227H15.9419C16.2609 32.1179 16.8452 31.5208 17.9343 31.5208C18.7838 31.5208 19.4475 31.9987 19.7257 32.7151H19.7525C19.9781 32.3574 20.2445 32.091 20.5495 31.9052C20.9082 31.6539 21.3185 31.5208 21.8501 31.5208C22.9252 31.5208 24.0132 32.2511 24.0132 34.3218V38.1313H22.4204V34.5613C22.4204 33.4851 22.0488 32.8482 21.2658 32.8482C20.7084 32.8482 20.2971 33.2467 20.1242 33.7107C20.0844 33.8707 20.0447 34.0694 20.0447 34.2552V38.1313H18.4519V34.3873C18.4519 33.4851 18.0932 32.8482 17.3371 32.8482C16.726 32.8482 16.3146 33.3262 16.1686 33.7772C16.102 33.9373 16.0751 34.1231 16.0751 34.3078V38.1313H14.4824V33.5914Z" fill="#7A7A7A"/>
<path d="M30.2189 36.5789C30.2189 37.162 30.2458 37.7334 30.3123 38.1319H28.8388L28.7325 37.4155H28.6927C28.2943 37.9192 27.6166 38.2779 26.781 38.2779C25.4804 38.2779 24.75 37.335 24.75 36.3533C24.75 34.7198 26.1967 33.897 28.5864 33.9099V33.8036C28.5864 33.3794 28.4135 32.6759 27.2718 32.6759C26.6349 32.6759 25.9712 32.8746 25.533 33.1538L25.214 32.0916C25.6919 31.7995 26.5286 31.5203 27.5511 31.5203C29.6217 31.5203 30.2189 32.8349 30.2189 34.2418V36.5789ZM28.6261 34.9721C27.4716 34.9453 26.3696 35.1977 26.3696 36.1793C26.3696 36.8173 26.781 37.1094 27.2986 37.1094C27.9495 37.1094 28.4274 36.6841 28.5724 36.2201C28.6132 36.1009 28.6261 35.9677 28.6261 35.8614V34.9721Z" fill="#7A7A7A"/>
<path d="M31.3474 33.5914C31.3474 32.8482 31.3345 32.2242 31.2948 31.6668H32.7286L32.808 32.6356H32.8478C33.127 32.1308 33.8294 31.5208 34.9056 31.5208C36.0333 31.5208 37.2018 32.2511 37.2018 34.2949V38.1313H35.5693V34.4807C35.5693 33.5517 35.2235 32.8482 34.3342 32.8482C33.6845 32.8482 33.2323 33.3133 33.0604 33.8041C33.0067 33.9502 32.9939 34.1489 32.9939 34.3347V38.1313H31.3474V33.5914Z" fill="#7A7A7A"/>
<path d="M44.2805 29.0691V36.3133C44.2805 36.977 44.3073 37.6934 44.3342 38.1316H42.8735L42.8069 37.1102H42.7801C42.3956 37.8266 41.6126 38.2777 40.6697 38.2777C39.1295 38.2777 37.9084 36.9631 37.9084 34.9719C37.8955 32.8088 39.2498 31.5211 40.8028 31.5211C41.6921 31.5211 42.329 31.8927 42.6211 32.3706H42.648V29.0691H44.2805ZM42.648 34.3618C42.648 34.2286 42.6351 34.0697 42.6082 33.9376C42.4622 33.2996 41.9445 32.782 41.2013 32.782C40.152 32.782 39.5677 33.711 39.5677 34.9192C39.5677 36.1006 40.152 36.9631 41.1873 36.9631C41.8511 36.9631 42.4353 36.512 42.5943 35.8085C42.6351 35.6625 42.648 35.5035 42.648 35.3306V34.3618Z" fill="#7A7A7A"/>
<path d="M47.0825 31.6677H45.436V38.1322H47.0825V31.6677Z" fill="#7A7A7A"/>
<path d="M48.2366 33.751C48.2366 32.8746 48.2237 32.2506 48.1829 31.6675H49.6038L49.6564 32.9015H49.7101C50.0291 31.9864 50.7852 31.6675 51.4758 31.6675C51.6347 31.6675 51.7282 31.6406 51.8614 31.6675V33.1002C51.7282 33.0744 51.5821 33.0476 51.3823 33.0476C50.5994 33.0476 50.0688 33.5513 49.9228 34.2816C49.8959 34.4287 49.8691 34.6006 49.8691 34.7864V38.1319H48.2366V33.751Z" fill="#7A7A7A"/>
<path d="M54.2625 31.6677H52.616V38.1322H54.2625V31.6677Z" fill="#7A7A7A"/>
<path d="M52.2793 23.8413C51.289 24.4154 48.0604 26.2602 48.0604 26.2602C46.8477 26.7601 45.9177 26.1515 45.6173 25.7045C45.6042 25.6875 45.5911 25.6689 45.5811 25.6514L45.5434 25.5846L45.3385 25.2496C45.2504 25.1111 45.153 24.9688 45.0418 24.8239C44.9427 24.6963 44.8318 24.5689 44.7117 24.4473C43.9324 23.6609 42.6872 23.1087 40.6126 24.0951C39.3573 24.8124 36.4395 26.48 36.4395 26.48L36.4383 26.4816C35.238 27.1669 34.3028 27.7018 34.3028 27.7018L35.4075 29.0584C35.8726 29.5018 36.746 30.2281 38.0996 29.6159C38.0996 29.6159 41.8325 27.4547 41.8459 27.448C45.0379 25.697 46.6121 27.3707 47.3084 28.486C47.3313 28.5215 47.3527 28.5579 47.374 28.5917L47.3754 28.5939C47.383 28.607 47.3903 28.6193 47.3975 28.633L47.4761 28.7613C47.8135 29.2761 48.3501 29.6073 48.9877 29.5925C49.3388 29.5852 49.577 29.471 49.9249 29.278L53.5363 27.183C53.5363 27.183 53.5406 27.1812 53.5436 27.1801C56.7752 25.4074 58.3757 27.1901 59.0599 28.3056C59.1134 28.4026 59.1727 28.4937 59.2361 28.5792C59.5736 29.0393 60.0407 29.3397 60.6336 29.3263C61.0245 29.3178 61.4666 29.0825 61.5299 29.0401L65.8604 26.5395C65.8604 26.5395 65.4164 25.8721 64.5065 24.8307C63.6925 23.9011 62.8262 24.3223 62.137 24.6633C61.8489 24.8071 59.7579 25.9922 59.7579 25.9922C58.6137 26.4646 57.7209 25.9486 57.3705 25.5141C57.335 25.4691 57.3026 25.4256 57.2791 25.3841L57.1985 25.2421C57.0735 25.0313 56.9229 24.7932 56.7389 24.5568C56.6396 24.4292 56.5296 24.3009 56.409 24.1794C55.928 23.6939 55.2689 23.2975 54.3467 23.2974C53.7681 23.2974 53.086 23.4532 52.2793 23.8413Z" fill="#7A7A7A"/>
<mask id="mask0_356_7022" style="mask-type:luminance" maskUnits="userSpaceOnUse" x="34" y="23" width="32" height="7">
<path d="M65.8961 23.2778H34.2961V29.8556H65.8961V23.2778Z" fill="white"/>
</mask>
<g mask="url(#mask0_356_7022)">
</g>
<defs>
<linearGradient id="paint0_linear_356_7022" x1="22.8593" y1="5.30597" x2="57.1409" y2="5.30597" gradientUnits="userSpaceOnUse">
<stop stop-color="#78A700"/>
<stop offset="1" stop-color="#216400"/>
</linearGradient>
</defs>
</svg>
