<svg width="80" height="43" viewBox="0 0 80 43" fill="none" xmlns="http://www.w3.org/2000/svg">
<path d="M76 2.72217H4C1.79086 2.72217 0 4.51303 0 6.72217V38.7222C0 40.9313 1.79086 42.7222 4 42.7222H76C78.2091 42.7222 80 40.9313 80 38.7222V6.72217C80 4.51303 78.2091 2.72217 76 2.72217Z" fill="#181818"/>
<path d="M22.8593 0.581543V2.75551H20.5474L22.8593 0.581543Z" fill="#085200"/>
<path d="M57.1409 0.581787V2.75575H59.4528L57.1409 0.581787Z" fill="#085200"/>
<path d="M51.6548 10.0302H28.3455C25.3156 10.0302 22.8593 7.57392 22.8593 4.54398V0.581787H57.141V4.54398C57.141 7.5739 54.6847 10.0302 51.6548 10.0302Z" fill="url(#paint0_linear_356_6994)"/>
<path d="M33.9263 6.64296H32.1789L31.8988 7.46997H30.705L32.399 2.788H33.7196L35.4136 7.46997H34.2064L33.9263 6.64296ZM33.6329 5.76259L33.0526 4.04853L32.479 5.76259H33.6329ZM37.0497 2.788V5.58918C37.0497 5.8693 37.1186 6.08494 37.2564 6.23612C37.3943 6.38729 37.5966 6.46288 37.8633 6.46288C38.1301 6.46288 38.3347 6.38729 38.4769 6.23612C38.6192 6.08494 38.6904 5.8693 38.6904 5.58918V2.788H39.8308V5.58251C39.8308 6.00046 39.7419 6.35395 39.5641 6.64296C39.3862 6.93197 39.1461 7.14984 38.8438 7.29656C38.5459 7.44329 38.2124 7.51666 37.8433 7.51666C37.4743 7.51666 37.143 7.44552 36.8496 7.30323C36.5606 7.15651 36.3316 6.93864 36.1626 6.64963C35.9937 6.35617 35.9092 6.00046 35.9092 5.58251V2.788H37.0497ZM43.9998 2.788V3.70172H42.7593V7.46997H41.6188V3.70172H40.3783V2.788H43.9998ZM46.7864 7.51666C46.3462 7.51666 45.9416 7.41439 45.5726 7.20986C45.208 7.00533 44.9167 6.72077 44.6989 6.35617C44.4855 5.98712 44.3787 5.57362 44.3787 5.11565C44.3787 4.65768 44.4855 4.24639 44.6989 3.88179C44.9167 3.5172 45.208 3.23263 45.5726 3.0281C45.9416 2.82357 46.3462 2.72131 46.7864 2.72131C47.2266 2.72131 47.629 2.82357 47.9936 3.0281C48.3626 3.23263 48.6517 3.5172 48.8606 3.88179C49.0741 4.24639 49.1808 4.65768 49.1808 5.11565C49.1808 5.57362 49.0741 5.98712 48.8606 6.35617C48.6472 6.72077 48.3582 7.00533 47.9936 7.20986C47.629 7.41439 47.2266 7.51666 46.7864 7.51666ZM46.7864 6.47622C47.1599 6.47622 47.4578 6.35172 47.6801 6.10273C47.9069 5.85373 48.0203 5.52471 48.0203 5.11565C48.0203 4.70214 47.9069 4.37311 47.6801 4.12856C47.4578 3.87957 47.1599 3.75507 46.7864 3.75507C46.4085 3.75507 46.1061 3.87735 45.8794 4.12189C45.6571 4.36644 45.5459 4.69769 45.5459 5.11565C45.5459 5.52915 45.6571 5.8604 45.8794 6.1094C46.1061 6.35395 46.4085 6.47622 46.7864 6.47622Z" fill="white"/>
<path d="M31.3648 17.1425L29.6241 21.7778H28.7437L26.9963 17.1425H27.81L29.1839 20.9975L30.5645 17.1425H31.3648ZM32.761 17.1425V21.7778H32.0006V17.1425H32.761ZM36.1669 21.7778L35.0998 19.9237H34.5195V21.7778H33.7592V17.1425H35.3599C35.7156 17.1425 36.0157 17.2048 36.2603 17.3293C36.5092 17.4538 36.6938 17.6205 36.8138 17.8295C36.9383 18.0385 37.0006 18.2719 37.0006 18.5298C37.0006 18.8321 36.9116 19.1078 36.7338 19.3568C36.5604 19.6014 36.2914 19.7681 35.9268 19.857L37.0739 21.7778H36.1669ZM34.5195 19.3168H35.3599C35.6444 19.3168 35.8579 19.2457 36.0001 19.1034C36.1469 18.9611 36.2202 18.7699 36.2202 18.5298C36.2202 18.2897 36.1491 18.103 36.0068 17.9696C35.8645 17.8317 35.6489 17.7628 35.3599 17.7628H34.5195V19.3168ZM40.9678 17.1425V17.7628H39.734V21.7778H38.9736V17.7628H37.7331V17.1425H40.9678ZM42.4915 17.1425V20.0971C42.4915 20.4484 42.5826 20.7129 42.7649 20.8908C42.9517 21.0686 43.2095 21.1576 43.5386 21.1576C43.872 21.1576 44.1299 21.0686 44.3122 20.8908C44.499 20.7129 44.5924 20.4484 44.5924 20.0971V17.1425H45.3527V20.0838C45.3527 20.4617 45.2704 20.7819 45.1059 21.0442C44.9414 21.3065 44.7213 21.5022 44.4456 21.6311C44.17 21.76 43.8654 21.8245 43.5319 21.8245C43.1984 21.8245 42.8939 21.76 42.6182 21.6311C42.347 21.5022 42.1313 21.3065 41.9712 21.0442C41.8112 20.7819 41.7311 20.4617 41.7311 20.0838V17.1425H42.4915ZM49.1371 20.8308H47.1963L46.8628 21.7778H46.0692L47.7299 17.1359H48.6102L50.2709 21.7778H49.4706L49.1371 20.8308ZM48.9237 20.2105L48.1701 18.0563L47.4097 20.2105H48.9237ZM51.7533 21.1642H53.3207V21.7778H50.993V17.1425H51.7533V21.1642Z" fill="#7A7A7A"/>
<path d="M55.4345 24.8574L54.8121 25.2405C54.7483 25.2883 54.4611 25.5117 54.4611 25.5755V36.7779C54.3174 36.746 54.1579 36.6342 54.0302 36.5385C52.5621 35.5172 51.5408 33.9214 50.4078 32.565L46.53 27.5224V35.2938C46.53 35.5651 47.2002 36.012 47.3599 36.2353H44.3758C44.6311 35.9481 44.9662 35.7566 45.1417 35.4056L45.1577 25.6713C45.1098 25.2883 44.5992 25.1128 44.3758 24.8574H47.0567C48.1418 26.4373 49.1949 28.0331 50.328 29.5809L53.1844 33.2991V25.5755C53.1844 25.5436 52.8653 25.2723 52.8174 25.2085L52.3546 24.8574H55.4345Z" fill="#7A7A7A"/>
<path d="M43.0513 31.9427C42.764 30.682 41.615 29.9161 40.3863 29.7246L41.1203 29.2937C43.0832 27.4585 41.7747 25.0968 39.3171 24.8574H33.9713L34.5298 25.2085C34.6575 25.3362 34.8011 25.4638 34.8649 25.6394L34.8969 35.1502C34.833 35.6608 34.3224 35.9161 33.9713 36.2353H39.0459C41.3278 35.98 43.6896 34.6077 43.0513 31.9427ZM36.732 26.0064H39.0938C39.1576 26.0064 39.5405 26.2299 39.6363 26.2937C40.4023 26.8521 40.5778 28.0331 40.0034 28.799C39.8437 29.0065 39.2373 29.533 38.998 29.533H36.732V26.0064ZM40.1949 34.5917C40.0512 34.6715 39.4448 34.9427 39.3171 34.9427H36.732V30.4586H39.3171C39.4927 30.4586 40.1469 30.7458 40.3384 30.8575C41.9502 31.7991 41.7427 33.714 40.1949 34.5917Z" fill="#7A7A7A"/>
<path d="M60.7484 36.2353H57.3015C57.6367 35.9002 58.1154 35.6608 58.1792 35.1502L58.1633 25.6394C58.0834 25.4638 57.9399 25.3362 57.8122 25.2085L57.3015 24.8574H60.7963L60.0303 25.3681L59.8707 25.6075C59.8069 28.8469 59.7909 32.1023 59.8707 35.3417C60.0463 35.6928 60.3654 35.9161 60.6845 36.1236C60.7325 36.1555 60.7643 36.1236 60.7484 36.2353Z" fill="#7A7A7A"/>
<path d="M25.3541 31.4482L25.3222 31.5279L24.1892 32.4216L19.5296 26.5811V24.7778H23.2956C22.3382 27.2354 23.902 29.5811 25.3541 31.4482Z" fill="#7A7A7A"/>
<path d="M31.083 28.3364V32.5812C31.067 32.7407 30.5723 32.8684 30.4287 32.8844C29.0085 33.0279 27.1095 31.0652 26.918 29.7406C26.7584 28.5279 27.5084 27.363 28.785 27.2992C29.5829 27.2672 30.5085 27.8258 31.083 28.3364Z" fill="#7A7A7A"/>
<path d="M31.083 24.7778V26.3258C29.8383 25.8629 28.5138 25.9427 27.4605 26.8045C26.6786 27.4587 26.3594 28.2886 26.2319 29.2779C26.2159 29.3577 26.2637 29.4216 26.168 29.4056C25.1946 28.129 24.2212 26.4056 24.8116 24.7778H31.083Z" fill="#7A7A7A"/>
<path d="M31.0829 33.3949V36.1555C31.0829 36.1715 31.0191 36.2353 31.0191 36.2353H27.1892C27.1573 36.1236 27.2212 36.1555 27.253 36.1236C27.4765 35.9161 27.7318 35.7406 27.9233 35.5013C26.4711 35.5172 25.5615 34.1289 24.7158 33.1395C25.0988 32.8842 25.4499 32.4693 25.8169 32.2299C25.8807 32.1821 25.9286 32.1342 25.9924 32.1661C27.0616 33.4747 28.785 34.7353 30.5085 33.8416L31.0829 33.3949Z" fill="#7A7A7A"/>
<path d="M23.0243 33.3631L19.5296 36.2355V28.9907L23.0243 33.3631Z" fill="#7A7A7A"/>
<path d="M25.3541 36.2356H20.9657L23.5987 34.0334L25.3541 36.2356Z" fill="#7A7A7A"/>
<defs>
<linearGradient id="paint0_linear_356_6994" x1="22.8593" y1="5.30597" x2="57.141" y2="5.30597" gradientUnits="userSpaceOnUse">
<stop stop-color="#78A700"/>
<stop offset="1" stop-color="#216400"/>
</linearGradient>
</defs>
</svg>
