<svg width="80" height="43" viewBox="0 0 80 43" fill="none" xmlns="http://www.w3.org/2000/svg">
<path d="M76 2.72217H4C1.79086 2.72217 0 4.51303 0 6.72217V38.7222C0 40.9313 1.79086 42.7222 4 42.7222H76C78.2091 42.7222 80 40.9313 80 38.7222V6.72217C80 4.51303 78.2091 2.72217 76 2.72217Z" fill="#181818"/>
<path d="M23.0568 30.7305C18.6416 30.7709 15.1179 27.2802 15.1111 22.7492C15.1044 18.2032 18.6553 14.7355 23.0594 14.7397C27.3921 14.7439 30.9776 18.1885 30.9642 22.7663C30.9511 27.2707 27.4342 30.7625 23.0568 30.7305ZM18.081 22.8258C18.1077 23.0953 18.1373 23.4474 18.1797 23.798C18.1988 23.9552 18.2392 24.1105 18.2776 24.2648C18.8025 26.375 20.4947 27.9357 22.6387 28.0899C24.3335 28.2119 25.7367 27.6241 26.7975 26.3008C28.2258 24.5192 28.3879 21.8357 27.2285 19.8057C25.8409 17.3762 22.7254 16.6055 20.4015 18.1532C18.777 19.2351 18.1333 20.8458 18.081 22.8258Z" fill="#7A7A7A"/>
<path d="M55.9863 14.7527C60.2775 14.6884 63.9158 18.1074 63.9085 22.7489C63.9012 27.326 60.3866 30.6355 56.2065 30.7359C51.5889 30.8467 48.0424 27.2505 48.0547 22.7151C48.067 18.1926 51.6022 14.698 55.9863 14.7527ZM60.9761 22.7505C60.9025 22.2536 60.8638 21.7485 60.7492 21.2613C60.2363 19.0816 58.5307 17.5833 56.5106 17.3977C54.7592 17.2368 53.2623 17.7992 52.2117 19.2087C50.7378 21.186 50.6198 23.3563 51.7265 25.5342C53.2009 28.4359 57.1299 29.0073 59.406 26.6872C60.4703 25.6022 60.9139 24.2572 60.9761 22.7505Z" fill="#7A7A7A"/>
<path d="M31.6032 15.1634C31.8073 15.1634 31.9824 15.1634 32.1575 15.1634C33.9828 15.1635 35.8081 15.1676 37.6333 15.159C37.8779 15.1578 37.9748 15.2086 37.9662 15.4786C37.9455 16.1248 37.9485 16.7723 37.9658 17.4187C37.9728 17.6787 37.9134 17.7836 37.631 17.7645C37.2458 17.7383 36.8575 17.7579 36.4199 17.7579C37.636 20.6368 38.8343 23.4734 40.0481 26.3468C41.2201 23.474 42.3772 20.6377 43.5498 17.7631H42.0478V15.181H47.0771C47.0243 15.7948 47.1833 16.4026 46.9224 17.0084C45.6563 19.9472 44.4093 22.8942 43.1548 25.838C42.4998 27.3751 41.8377 28.9091 41.1941 30.4508C41.0984 30.6801 40.9756 30.7298 40.7434 30.7375C39.7577 30.7706 38.9466 30.4271 38.3827 29.6183C38.1282 29.2531 37.9612 28.8226 37.7817 28.4099C36.2822 24.9632 34.7866 21.5148 33.299 18.063C33.1952 17.8221 33.0678 17.7304 32.8059 17.7512C32.48 17.777 32.1505 17.752 31.8229 17.7607C31.6685 17.7648 31.5989 17.7237 31.6003 17.5542C31.6068 16.7749 31.6032 15.9956 31.6032 15.1634Z" fill="#7A7A7A"/>
<path d="M22.8593 0.581421V2.75538H20.5474L22.8593 0.581421Z" fill="#085200"/>
<path d="M57.1409 0.581665V2.75563H59.4528L57.1409 0.581665Z" fill="#085200"/>
<path d="M51.6548 10.03H28.3455C25.3156 10.03 22.8593 7.5738 22.8593 4.54386V0.581665H57.141V4.54386C57.141 7.57378 54.6847 10.03 51.6548 10.03Z" fill="url(#paint0_linear_349_4359)"/>
<path d="M33.9263 6.64296H32.1789L31.8988 7.46997H30.705L32.399 2.788H33.7196L35.4136 7.46997H34.2064L33.9263 6.64296ZM33.6329 5.76259L33.0526 4.04853L32.479 5.76259H33.6329ZM37.0497 2.788V5.58918C37.0497 5.8693 37.1186 6.08494 37.2564 6.23612C37.3943 6.38729 37.5966 6.46288 37.8633 6.46288C38.1301 6.46288 38.3347 6.38729 38.4769 6.23612C38.6192 6.08494 38.6904 5.8693 38.6904 5.58918V2.788H39.8308V5.58251C39.8308 6.00046 39.7419 6.35395 39.5641 6.64296C39.3862 6.93197 39.1461 7.14984 38.8438 7.29656C38.5459 7.44329 38.2124 7.51666 37.8433 7.51666C37.4743 7.51666 37.143 7.44552 36.8496 7.30323C36.5606 7.15651 36.3316 6.93864 36.1626 6.64963C35.9937 6.35617 35.9092 6.00046 35.9092 5.58251V2.788H37.0497ZM43.9998 2.788V3.70172H42.7593V7.46997H41.6188V3.70172H40.3783V2.788H43.9998ZM46.7864 7.51666C46.3462 7.51666 45.9416 7.41439 45.5726 7.20986C45.208 7.00533 44.9167 6.72077 44.6989 6.35617C44.4855 5.98712 44.3787 5.57362 44.3787 5.11565C44.3787 4.65768 44.4855 4.24639 44.6989 3.88179C44.9167 3.5172 45.208 3.23263 45.5726 3.0281C45.9416 2.82357 46.3462 2.72131 46.7864 2.72131C47.2266 2.72131 47.629 2.82357 47.9936 3.0281C48.3626 3.23263 48.6517 3.5172 48.8606 3.88179C49.0741 4.24639 49.1808 4.65768 49.1808 5.11565C49.1808 5.57362 49.0741 5.98712 48.8606 6.35617C48.6472 6.72077 48.3582 7.00533 47.9936 7.20986C47.629 7.41439 47.2266 7.51666 46.7864 7.51666ZM46.7864 6.47622C47.1599 6.47622 47.4578 6.35172 47.6801 6.10273C47.9069 5.85373 48.0203 5.52471 48.0203 5.11565C48.0203 4.70214 47.9069 4.37311 47.6801 4.12856C47.4578 3.87957 47.1599 3.75507 46.7864 3.75507C46.4085 3.75507 46.1061 3.87735 45.8794 4.12189C45.6571 4.36644 45.5459 4.69769 45.5459 5.11565C45.5459 5.52915 45.6571 5.8604 45.8794 6.1094C46.1061 6.35395 46.4085 6.47622 46.7864 6.47622Z" fill="white"/>
<defs>
<linearGradient id="paint0_linear_349_4359" x1="22.8593" y1="5.30585" x2="57.141" y2="5.30585" gradientUnits="userSpaceOnUse">
<stop stop-color="#78A700"/>
<stop offset="1" stop-color="#216400"/>
</linearGradient>
</defs>
</svg>
