<svg width="80" height="43" viewBox="0 0 80 43" fill="none" xmlns="http://www.w3.org/2000/svg">
<path d="M76 2.72217H4C1.79086 2.72217 0 4.51303 0 6.72217V38.7222C0 40.9313 1.79086 42.7222 4 42.7222H76C78.2091 42.7222 80 40.9313 80 38.7222V6.72217C80 4.51303 78.2091 2.72217 76 2.72217Z" fill="#181818"/>
<path d="M32.0674 16.7413L44.1861 16.7413L44.1862 24.0121L39.1021 24.0121L44.1862 28.6652L39.8672 28.6652L34.8813 24.0121L34.8813 28.6652L32.0674 28.6652L32.0674 21.2738L40.9528 21.2738L40.9528 19.5045L32.0674 19.5045L32.0674 16.7413Z" fill="#7A7A7A"/>
<path d="M45.4446 28.6652L48.4063 28.6652L48.4063 16.7172L45.4445 16.7172L45.4446 28.6652Z" fill="#7A7A7A"/>
<path d="M21.7263 25.7812L21.7263 16.7413L19.4062 16.7413C18.9867 16.7413 18.6658 17.0566 18.6658 17.4439C18.6658 19.5773 18.6411 25.8539 18.6411 27.9381C18.6411 28.3259 18.962 28.6652 19.3569 28.6652C20.9612 28.6652 25.5765 28.6652 26.2426 28.6652L26.2426 25.7812L21.7263 25.7812Z" fill="#7A7A7A"/>
<path d="M27.7728 31.6461C28.0446 31.6461 30.1177 31.6461 30.809 31.6461C30.809 31.6461 30.809 25.7569 30.809 25.66C29.8215 25.66 28.7854 25.66 27.7728 25.66C27.7728 27.6473 27.7728 29.6345 27.7728 31.6461Z" fill="#7A7A7A"/>
<path d="M23.2071 16.7414C23.2071 16.7902 23.2072 19.7221 23.2072 19.7221C24.5647 19.7221 26.2921 19.7222 27.7728 19.7222C27.7728 21.7827 27.7728 24.1818 27.7728 24.1818C28.4641 24.1818 30.5372 24.1818 30.809 24.1818L30.809 17.4688C30.809 17.0807 30.4877 16.7654 30.0934 16.7414C28.6126 16.7414 25.1075 16.7414 23.2071 16.7414Z" fill="#7A7A7A"/>
<path d="M23.2072 21.1759C23.2072 22.1698 23.2072 23.1637 23.2072 24.2056C23.454 24.2056 23.7255 24.2056 23.9723 24.2056C24.6637 24.2056 25.5269 24.2056 26.2183 24.2056C26.2183 24.2056 26.2183 21.2248 26.2183 21.1759C25.2308 21.1759 24.2191 21.1759 23.2072 21.1759ZM25.3298 23.2845C25.0337 23.2845 24.688 23.2845 24.4162 23.2845C24.3179 23.2845 24.2191 23.2845 24.0957 23.2845C24.0957 22.8724 24.0957 22.4851 24.0957 22.073C24.5152 22.073 24.9103 22.073 25.3298 22.073C25.3298 22.097 25.3298 23.2845 25.3298 23.2845Z" fill="#7A7A7A"/>
<path d="M62.9435 25.66L62.9435 30.1193C62.9435 30.507 62.5979 30.8221 62.2036 30.8221L57.6623 30.8221L57.6623 31.5491L62.9435 31.5491L62.9687 31.5491C63.3387 31.5491 63.6591 31.234 63.6591 30.8462L63.6591 30.8221L63.6591 25.66L62.9435 25.66Z" fill="#7A7A7A"/>
<path d="M17.4071 19.6982L17.4071 15.2386C17.4071 14.8513 17.7033 14.56 18.0982 14.56L22.6395 14.56C22.6642 14.56 22.6642 14.536 22.6642 14.536L22.6642 13.8574C22.6642 13.8574 22.6642 13.8334 22.6395 13.8334L17.4071 13.8334C16.9876 13.8334 16.6667 14.1487 16.6667 14.56L16.6667 19.6982C16.6667 19.7222 16.6913 19.7222 16.6913 19.7222L17.3825 19.7222C17.3825 19.7222 17.4071 19.7222 17.4071 19.6982Z" fill="#7A7A7A"/>
<path d="M61.6599 19.6982L61.6599 16.7414L49.6897 16.7414L49.6897 21.1761L49.6897 24.1578L57.6624 24.1578L57.6624 25.6358L49.6897 25.6358L49.6897 28.6167L61.66 28.6167L61.66 21.201L53.6882 21.201L53.6882 19.6982L61.6599 19.6982Z" fill="#7A7A7A"/>
<path d="M22.8593 0.581421V2.75538H20.5474L22.8593 0.581421Z" fill="#085200"/>
<path d="M57.1409 0.581665V2.75563H59.4528L57.1409 0.581665Z" fill="#085200"/>
<path d="M51.6548 10.03H28.3455C25.3156 10.03 22.8593 7.5738 22.8593 4.54386V0.581665H57.141V4.54386C57.141 7.57378 54.6847 10.03 51.6548 10.03Z" fill="url(#paint0_linear_349_4366)"/>
<path d="M33.9263 6.64296H32.1789L31.8988 7.46997H30.705L32.399 2.788H33.7196L35.4136 7.46997H34.2064L33.9263 6.64296ZM33.6329 5.76259L33.0526 4.04853L32.479 5.76259H33.6329ZM37.0497 2.788V5.58918C37.0497 5.8693 37.1186 6.08494 37.2564 6.23612C37.3943 6.38729 37.5966 6.46288 37.8633 6.46288C38.1301 6.46288 38.3347 6.38729 38.4769 6.23612C38.6192 6.08494 38.6904 5.8693 38.6904 5.58918V2.788H39.8308V5.58251C39.8308 6.00046 39.7419 6.35395 39.5641 6.64296C39.3862 6.93197 39.1461 7.14984 38.8438 7.29656C38.5459 7.44329 38.2124 7.51666 37.8433 7.51666C37.4743 7.51666 37.143 7.44552 36.8496 7.30323C36.5606 7.15651 36.3316 6.93864 36.1626 6.64963C35.9937 6.35617 35.9092 6.00046 35.9092 5.58251V2.788H37.0497ZM43.9998 2.788V3.70172H42.7593V7.46997H41.6188V3.70172H40.3783V2.788H43.9998ZM46.7864 7.51666C46.3462 7.51666 45.9416 7.41439 45.5726 7.20986C45.208 7.00533 44.9167 6.72077 44.6989 6.35617C44.4855 5.98712 44.3787 5.57362 44.3787 5.11565C44.3787 4.65768 44.4855 4.24639 44.6989 3.88179C44.9167 3.5172 45.208 3.23263 45.5726 3.0281C45.9416 2.82357 46.3462 2.72131 46.7864 2.72131C47.2266 2.72131 47.629 2.82357 47.9936 3.0281C48.3626 3.23263 48.6517 3.5172 48.8606 3.88179C49.0741 4.24639 49.1808 4.65768 49.1808 5.11565C49.1808 5.57362 49.0741 5.98712 48.8606 6.35617C48.6472 6.72077 48.3582 7.00533 47.9936 7.20986C47.629 7.41439 47.2266 7.51666 46.7864 7.51666ZM46.7864 6.47622C47.1599 6.47622 47.4578 6.35172 47.6801 6.10273C47.9069 5.85373 48.0203 5.52471 48.0203 5.11565C48.0203 4.70214 47.9069 4.37311 47.6801 4.12856C47.4578 3.87957 47.1599 3.75507 46.7864 3.75507C46.4085 3.75507 46.1061 3.87735 45.8794 4.12189C45.6571 4.36644 45.5459 4.69769 45.5459 5.11565C45.5459 5.52915 45.6571 5.8604 45.8794 6.1094C46.1061 6.35395 46.4085 6.47622 46.7864 6.47622Z" fill="white"/>
<defs>
<linearGradient id="paint0_linear_349_4366" x1="22.8593" y1="5.30585" x2="57.141" y2="5.30585" gradientUnits="userSpaceOnUse">
<stop stop-color="#78A700"/>
<stop offset="1" stop-color="#216400"/>
</linearGradient>
</defs>
</svg>
