<?xml version="1.0" encoding="UTF-8"?>
<svg id="Layer_3" data-name="Layer 3" xmlns="http://www.w3.org/2000/svg" xmlns:xlink="http://www.w3.org/1999/xlink" viewBox="0 0 40 40">
  <defs>
    <style>
      .cls-1 {
        fill: #fff;
      }

      .cls-2 {
        fill: url(#linear-gradient);
      }
    </style>
    <linearGradient id="linear-gradient" x1="19.999999999997272" y1=".473525613429047" x2="20.000000000001386" y2="40.473525613431775" gradientUnits="userSpaceOnUse">
      <stop offset="0" stop-color="#88b706"/>
      <stop offset=".849420603509428" stop-color="#75a501"/>
      <stop offset="1" stop-color="#72a200"/>
    </linearGradient>
  </defs>
  <rect class="cls-2" x=".000000000000909" width="39.999999999998181" height="40" rx="5.297029702949417" ry="5.297029702949417"/>
  <g>
    <path class="cls-1" d="M26.447432700390891,16.90254938803082v9.602345646510003c0,1.002788694690025-.698896597508792,1.842953617770036-1.639787884647376,2.059768771289782.008166075960617.040660078389919.008166075960617.084016492300179.008166075960617.124676570690099v2.913498081839862c0,1.048857986100302-.851164038036586,1.897161541639434-1.903558776837599,1.897161541639434-1.052394738799194,0-1.90355877683578-.848303555539133-1.90355877683578-1.897161541639434v-2.913498081839862c0-.021686477930416,0-.046069291390268.00272202533597-.067755769339783h-1.909002827456789c.002722025301409.021686477949515.002722025301409.046069291409367.002722025301409.067755769339783v2.913498081839862c0,1.048857986100302-.851164038016577,1.897161541639434-1.90355877681759,1.897161541639434-1.052394738782823,0-1.903558776819409-.848303555539133-1.903558776819409-1.897161541639434v-2.913498081839862c0-.040660078389919,0-.084016492300179.008166075960617-.124676570690099-.940891287173145-.216815153519747-1.639787884663747-1.056980076599757-1.639787884663747-2.059768771289782v-9.602345646510003c0-.525785431800614.426959629392513-.951293648309729.95450141373658-.951293648309729h10.872034674061069c.527541784344066,0,.954501413722028.425508216509115.954501413722028.951293648309729Z"/>
    <rect class="cls-1" x="28.19288244528223" y="15.951255727993441" width="3.807117614621923" height="10.773167348794118" rx="1.90035562562279" ry="1.90035562562279"/>
    <rect class="cls-1" x="8.000000041911244" y="15.951255727993612" width="3.807117469802671" height="10.773167348794232" rx="1.900355522944065" ry="1.900355522944065"/>
    <path class="cls-1" d="M24.065262204051578,8.771857066650227l1.294422623863284-1.290072495029563c.114225476963838-.113825060760064.168599592430837-.260188109390583.168599592430837-.406534616069621,0-.146346506680857-.054374115466999-.292709555310466-.168599592430837-.40653461607053-.225695733177417-.224953785959769-.590081975733483-.224953785959769-.81581090434338,0l-1.544583389471882,1.539409094480106c-.625468304840979-.252049476939646-1.308032750446728-.387561015620122-2.023228304406075-.387561015620122h-1.838296560108574c-.742382611695575,0-1.446690064391078.146346506699956-2.091212546472889.411960371030546l-1.569048421863044-1.56380844989053c-.225695733179236-.224953785959769-.590115171165962-.224953785959769-.81581090434338,0-.114225476965657.113825060760064-.168599592412647.260188109389674-.168599592412647.40653461607053,0,.146346506679038.05437411544699.292709555309557.168599592412647.406534616069621l1.33249778285608,1.328019695920375c-.258360036981685.181580830108942-.503109947363555.384848138149209-.726083655239563.607089046628971-.989854547377035.986527971730538-1.601712725650941,2.352478326610253-1.601712725650941,3.856653097690469,0,.506811831340201.41062747748947.916059324889829.919148280043373.916059324889829h10.942740941431111c.255638011643896,0,.484055770140913-.102990092759683.649933337250332-.268310199890038.165877567091229-.165320107149455.269214942794861-.395699648079244.269214942794861-.647749124999791,0-1.870065850699575-.943613312476373-3.517874250969726-2.382170496339313-4.501689345210252ZM17.201575784393754,12.089176887070607c-.451391466356654,0-.81581090436157-.363178202150266-.81581090436157-.813069232150156,0-.449891029989885.364419438004916-.813069232120142.81581090436157-.813069232120142.451424661805504,0,.815810904341561.363178202130257.815810904341561.813069232120142,0,.44989102999989-.364386242536057.813069232150156-.815810904341561.813069232150156ZM22.912252114866533,12.089176887070607c-.451391466373025,0-.81581090436157-.363178202150266-.81581090436157-.813069232150156,0-.449891029989885.364419437988545-.813069232120142.81581090436157-.813069232120142.451424661789133,0,.815810904345199.363178202130257.815810904345199.813069232120142,0,.44989102999989-.364386242556066.813069232150156-.815810904345199.813069232150156Z"/>
  </g>
</svg>