<?xml version="1.0" encoding="UTF-8"?>
<svg id="Layer_3" data-name="Layer 3" xmlns="http://www.w3.org/2000/svg" viewBox="0 0 40 40">
  <defs>
    <style>
      .cls-1 {
        fill: #fff;
      }
    </style>
  </defs>
  <path class="cls-1" d="M37.910165647721442,3.597697490160499L.835086034599954,17.341871684240687c-1.142499404832051.42688395417008-1.103061412326497,2.114564703209908.059156988769246,2.500745768719753l8.470992219521577,2.74496310063023,3.664126169547671,11.324586014319721c.334982460717583,1.057034163270146,1.634993360024964,1.382657272480174,2.423031783437182.609798764749939l5.082451046378992-5.123600203360184,9.495418122398405,6.689172286430221c1.319729895545606.93517368565972,3.151913218105619.203514443280255,3.506614675090532-1.423111972760125l6.422140413738816-29.216483837510168c.275584996426915-1.240197162189361-.886633404672466-2.277128069469654-2.048851805760933-1.850244115299574ZM32.611046118119702,10.347924109590167l-17.454197390456102,14.841911245990559c-.078875985011109.061054332969434-.118073501969775.162563366259747-.137792498211638.264320587879411l-.571369940214936,5.99771955605047c-.019478520669509.183162998930129-.295544468215667.223865887589454-.354701456959447.040702888660235l-3.013880244347092-9.027106500549962c-.059156988772884-.183162998920125.019718996241863-.386181065510755.177230490691727-.487938287140423l20.901655076802854-12.300710776989945c.433336966456409-.243969143570212.827235940378159.345726365219889.453055962694634.671101286099656Z"/>
</svg>